<svg id="bbf74f55-af44-492d-944e-b44686691d0d" data-name="Layer 1" xmlns="http://www.w3.org/2000/svg" xmlns:xlink="http://www.w3.org/1999/xlink" viewBox="0 0 1080 1080"><defs><clipPath id="a4abf06b-5245-4802-bae2-2ccc2c2f448f"><rect x="317.53" y="418.12" width="444.94" height="224.8" style="fill:none"/></clipPath><clipPath id="b526106c-6e17-475f-b90f-bc5f37b8d88c"><path d="M542.83,515.13A127.65,127.65,0,1,0,670.47,642.78,127.65,127.65,0,0,0,542.83,515.13Zm0,239.18A111.53,111.53,0,1,1,654.36,642.78,111.53,111.53,0,0,1,542.83,754.31Z" style="fill:none"/></clipPath></defs><g style="clip-path:url(#a4abf06b-5245-4802-bae2-2ccc2c2f448f)"><rect x="387.33" y="487.28" width="311" height="311" transform="translate(613.5 -195.57) rotate(45)" style="fill:none;stroke:#fab317;stroke-miterlimit:10;stroke-width:2px"/><circle cx="542.83" cy="642.78" r="201.21" style="fill:#1a1a1a"/><rect x="387.33" y="487.28" width="311" height="311" transform="translate(1185.61 99.95) rotate(90)" style="fill:none;stroke:#fab317;stroke-miterlimit:10;stroke-width:2px"/><circle cx="542.83" cy="642.78" r="201.21" style="fill:#1a1a1a"/><rect x="387.33" y="487.28" width="311" height="311" transform="translate(926.44 -106) rotate(67.31)" style="fill:none;stroke:#fab317;stroke-miterlimit:10;stroke-width:2px"/><circle cx="542.83" cy="642.78" r="201.21" style="fill:#1a1a1a"/><rect x="387.33" y="487.28" width="311" height="311" transform="translate(1343.55 384.57) rotate(112.31)" style="fill:none;stroke:#fab317;stroke-miterlimit:10;stroke-width:2px"/><circle cx="542.83" cy="642.78" r="201.21" style="fill:#1a1a1a"/><g style="clip-path:url(#b526106c-6e17-475f-b90f-bc5f37b8d88c)"><circle cx="542.83" cy="642.78" r="131.91" style="fill:none;stroke:#fff;stroke-miterlimit:10"/><line x1="542.83" y1="642.78" x2="542.83" y2="774.69" style="fill:none;stroke:#fff;stroke-miterlimit:10"/><line x1="542.83" y1="642.78" x2="563.46" y2="773.06" style="fill:none;stroke:#fff;stroke-miterlimit:10"/><line x1="542.83" y1="642.78" x2="583.59" y2="768.23" style="fill:none;stroke:#fff;stroke-miterlimit:10"/><line x1="542.83" y1="642.78" x2="602.71" y2="760.31" style="fill:none;stroke:#fff;stroke-miterlimit:10"/><line x1="542.83" y1="642.78" x2="620.36" y2="749.49" style="fill:none;stroke:#fff;stroke-miterlimit:10"/><line x1="542.83" y1="642.78" x2="636.1" y2="736.05" style="fill:none;stroke:#fff;stroke-miterlimit:10"/><line x1="542.83" y1="642.78" x2="649.54" y2="720.31" style="fill:none;stroke:#fff;stroke-miterlimit:10"/><line x1="542.83" y1="642.78" x2="660.36" y2="702.66" style="fill:none;stroke:#fff;stroke-miterlimit:10"/><line x1="542.83" y1="642.78" x2="668.28" y2="683.54" style="fill:none;stroke:#fff;stroke-miterlimit:10"/><line x1="542.83" y1="642.78" x2="673.11" y2="663.41" style="fill:none;stroke:#fff;stroke-miterlimit:10"/><line x1="542.83" y1="642.78" x2="674.73" y2="642.78" style="fill:none;stroke:#fff;stroke-miterlimit:10"/><line x1="542.83" y1="642.78" x2="673.11" y2="622.15" style="fill:none;stroke:#fff;stroke-miterlimit:10"/><line x1="542.83" y1="642.78" x2="668.28" y2="602.02" style="fill:none;stroke:#fff;stroke-miterlimit:10"/><line x1="542.83" y1="642.78" x2="660.36" y2="582.9" style="fill:none;stroke:#fff;stroke-miterlimit:10"/><line x1="542.83" y1="642.78" x2="649.54" y2="565.25" style="fill:none;stroke:#fff;stroke-miterlimit:10"/><line x1="542.83" y1="642.78" x2="636.1" y2="549.51" style="fill:none;stroke:#fff;stroke-miterlimit:10"/><line x1="542.83" y1="642.78" x2="620.36" y2="536.06" style="fill:none;stroke:#fff;stroke-miterlimit:10"/><line x1="542.83" y1="642.78" x2="602.71" y2="525.25" style="fill:none;stroke:#fff;stroke-miterlimit:10"/><line x1="542.83" y1="642.78" x2="583.59" y2="517.33" style="fill:none;stroke:#fff;stroke-miterlimit:10"/><line x1="542.83" y1="642.78" x2="563.46" y2="512.5" style="fill:none;stroke:#fff;stroke-miterlimit:10"/><line x1="542.83" y1="642.78" x2="542.83" y2="510.87" style="fill:none;stroke:#fff;stroke-miterlimit:10"/><line x1="542.83" y1="642.78" x2="522.19" y2="512.5" style="fill:none;stroke:#fff;stroke-miterlimit:10"/><line x1="542.83" y1="642.78" x2="502.07" y2="517.33" style="fill:none;stroke:#fff;stroke-miterlimit:10"/><line x1="542.83" y1="642.78" x2="482.94" y2="525.25" style="fill:none;stroke:#fff;stroke-miterlimit:10"/><line x1="542.83" y1="642.78" x2="465.29" y2="536.06" style="fill:none;stroke:#fff;stroke-miterlimit:10"/><line x1="542.83" y1="642.78" x2="449.55" y2="549.51" style="fill:none;stroke:#fff;stroke-miterlimit:10"/><line x1="542.83" y1="642.78" x2="436.11" y2="565.25" style="fill:none;stroke:#fff;stroke-miterlimit:10"/><line x1="542.83" y1="642.78" x2="425.3" y2="582.9" style="fill:none;stroke:#fff;stroke-miterlimit:10"/><line x1="542.83" y1="642.78" x2="417.38" y2="602.02" style="fill:none;stroke:#fff;stroke-miterlimit:10"/><line x1="542.83" y1="642.78" x2="412.54" y2="622.15" style="fill:none;stroke:#fff;stroke-miterlimit:10"/><line x1="542.83" y1="642.78" x2="410.92" y2="642.78" style="fill:none;stroke:#fff;stroke-miterlimit:10"/><line x1="542.83" y1="642.78" x2="412.54" y2="663.41" style="fill:none;stroke:#fff;stroke-miterlimit:10"/><line x1="542.83" y1="642.78" x2="417.38" y2="683.54" style="fill:none;stroke:#fff;stroke-miterlimit:10"/><line x1="542.83" y1="642.78" x2="425.3" y2="702.66" style="fill:none;stroke:#fff;stroke-miterlimit:10"/><line x1="542.83" y1="642.78" x2="436.11" y2="720.31" style="fill:none;stroke:#fff;stroke-miterlimit:10"/><line x1="542.83" y1="642.78" x2="449.55" y2="736.05" style="fill:none;stroke:#fff;stroke-miterlimit:10"/><line x1="542.83" y1="642.78" x2="465.29" y2="749.49" style="fill:none;stroke:#fff;stroke-miterlimit:10"/><line x1="542.83" y1="642.78" x2="482.94" y2="760.31" style="fill:none;stroke:#fff;stroke-miterlimit:10"/><line x1="542.83" y1="642.78" x2="502.07" y2="768.23" style="fill:none;stroke:#fff;stroke-miterlimit:10"/><line x1="542.83" y1="642.78" x2="522.19" y2="773.06" style="fill:none;stroke:#fff;stroke-miterlimit:10"/></g><circle cx="542.83" cy="642.78" r="111.53" style="fill:none;stroke:#fff;stroke-miterlimit:10"/><circle cx="542.83" cy="642.78" r="127.65" style="fill:none;stroke:#fff;stroke-miterlimit:10"/><path d="M676.08,664.08A150.15,150.15,0,0,0,677.76,643l24.55,0a172.92,172.92,0,0,1-2,24.89Z" style="fill:#1a1a1a"/><path d="M682.59,659.76c.11-1,.25-1.9.35-2.86l.21-2.87c.13-1.91.35-3.82.35-5.74l12.79.49c0,2.1-.24,4.18-.38,6.26l-.24,3.13c-.1,1-.25,2.08-.38,3.12Z" style="fill:#fab317"/><path d="M676.08,664.08A150.15,150.15,0,0,0,677.76,643l24.55,0a172.92,172.92,0,0,1-2,24.89Z" style="fill:none;stroke:#fff;stroke-miterlimit:10;stroke-width:0.5px"/><path d="M671.13,684.57a136.41,136.41,0,0,0,5-20.53l24.25,3.84a162.4,162.4,0,0,1-5.85,24.29Z" style="fill:#1a1a1a"/><path d="M677.14,675.15q2.64-1.41,5.33-2.95c1.78-1,3.46-2.13,5.2-3.26,1.22,1.66,2.5,3.38,3.65,5.11s2.29,3.51,3.42,5.33L692,681c-.91.53-1.85,1-2.77,1.55q-2.79,1.51-5.53,2.91-1.59-2.7-3.21-5.28c-.54-.86-1.07-1.7-1.64-2.54Z" style="fill:#fab317"/><path d="M671.13,684.57a136.41,136.41,0,0,0,5-20.53l24.25,3.84a162.4,162.4,0,0,1-5.85,24.29Z" style="fill:none;stroke:#fff;stroke-miterlimit:10;stroke-width:0.5px"/><path d="M652,722.07a127.27,127.27,0,0,0,11-18l21.87,11.18a153.48,153.48,0,0,1-13.07,21.28Z" style="fill:#1a1a1a"/><path d="M660.63,715c2-.32,3.93-.75,5.94-1.18s4-.9,6-1.45c.68,2,1.24,3.93,1.83,6s1.17,4.09,1.64,6.15q-3.15.72-6.22,1.32l-3.06.58-3.11.46-.64-3-.76-3Q661.48,717.85,660.63,715Z" style="fill:#fab317"/><path d="M652,722.07a127.27,127.27,0,0,0,11-18l21.87,11.18a153.48,153.48,0,0,1-13.07,21.28Z" style="fill:none;stroke:#fff;stroke-miterlimit:10;stroke-width:0.5px"/><path d="M663,704.06a127.71,127.71,0,0,0,8.11-19.5l23.35,7.6a152.9,152.9,0,0,1-9.59,23.07Z" style="fill:#1a1a1a"/><path d="M670.59,702c.77-1.76,1.62-3.48,2.33-5.26l2.11-5.35,12,4.42-2.3,5.84c-.78,1.94-1.7,3.82-2.54,5.73Z" style="fill:#fab317"/><path d="M663,704.06a127.71,127.71,0,0,0,8.11-19.5l23.35,7.6a152.9,152.9,0,0,1-9.59,23.07Z" style="fill:none;stroke:#fff;stroke-miterlimit:10;stroke-width:0.5px"/><path d="M638.27,738.16A142.94,142.94,0,0,0,652,722.07l19.86,14.45a168.59,168.59,0,0,1-16.2,19Z" style="fill:#1a1a1a"/><path d="M646.08,738.49l1-1,.94-1.09,1.89-2.17c.62-.73,1.27-1.44,1.86-2.19l1.78-2.26,10.06,7.91-1.94,2.46c-.65.82-1.36,1.59-2,2.39l-2,2.37-1,1.18-1.08,1.14Z" style="fill:#fab317"/><path d="M638.27,738.16A142.94,142.94,0,0,0,652,722.07l19.86,14.45a168.59,168.59,0,0,1-16.2,19Z" style="fill:none;stroke:#fff;stroke-miterlimit:10;stroke-width:0.5px"/><path d="M622.22,751.86a144,144,0,0,0,16.08-13.72l17.37,17.35a169.36,169.36,0,0,1-19,16.21Z" style="fill:#1a1a1a"/><path d="M632.61,747.75q3,.4,6.06.74t6.12.42c0,2.06,0,4.16,0,6.28s-.21,4.17-.37,6.3c-4.2-.27-8.45-.88-12.49-1.51C632.28,755.81,632.6,751.83,632.61,747.75Z" style="fill:#fab317"/><path d="M622.22,751.86a144,144,0,0,0,16.08-13.72l17.37,17.35a169.36,169.36,0,0,1-19,16.21Z" style="fill:none;stroke:#fff;stroke-miterlimit:10;stroke-width:0.5px"/><path d="M584.73,771.05a128.23,128.23,0,0,0,19.49-8.12l11.2,21.85a152.56,152.56,0,0,1-23.07,9.61Z" style="fill:#1a1a1a"/><path d="M595.89,770.37c1.82.92,3.63,1.69,5.51,2.52s3.79,1.62,5.72,2.35c-.61,2-1.3,3.91-2,5.89s-1.45,4-2.28,6q-3-1.26-5.81-2.57l-2.82-1.32-2.79-1.44,1.23-2.81,1.14-2.88Q594.9,773.2,595.89,770.37Z" style="fill:#fab317"/><path d="M584.73,771.05a128.23,128.23,0,0,0,19.49-8.12l11.2,21.85a152.56,152.56,0,0,1-23.07,9.61Z" style="fill:none;stroke:#fff;stroke-miterlimit:10;stroke-width:0.5px"/><path d="M604.23,762.92a129.69,129.69,0,0,0,18-11.06l14.47,19.83a153.61,153.61,0,0,1-21.28,13.09Z" style="fill:#1a1a1a"/><path d="M611.57,765.67c1.65-1,3.35-1.88,5-2.9l4.84-3.11,7.15,10.61-5.28,3.39c-1.77,1.12-3.62,2.11-5.42,3.17Z" style="fill:#fab317"/><path d="M604.23,762.92a129.69,129.69,0,0,0,18-11.06l14.47,19.83a153.61,153.61,0,0,1-21.28,13.09Z" style="fill:none;stroke:#fff;stroke-miterlimit:10;stroke-width:0.5px"/><path d="M563.78,776.09a140.56,140.56,0,0,0,20.55-4.9l7.54,23.36a164.69,164.69,0,0,1-24.31,5.8Z" style="fill:#1a1a1a"/><path d="M569.89,781c1-.15,1.88-.35,2.82-.58l2.8-.65c.93-.22,1.87-.41,2.8-.66l2.76-.79,3.47,12.32-3,.86c-1,.26-2,.48-3,.72l-3.06.71c-1,.24-2,.46-3.07.63Z" style="fill:#fab317"/><path d="M563.78,776.09a140.56,140.56,0,0,0,20.55-4.9l7.54,23.36a164.69,164.69,0,0,1-24.31,5.8Z" style="fill:none;stroke:#fff;stroke-miterlimit:10;stroke-width:0.5px"/><path d="M542.73,777.71a150.12,150.12,0,0,0,21.09-1.63l3.79,24.26a176,176,0,0,1-24.89,1.93Z" style="fill:#1a1a1a"/><path d="M553.56,780.49c1.44,1.39,2.93,2.83,4.45,4.17s3.09,2.64,4.7,4c-1.21,1.67-2.45,3.35-3.75,5s-2.63,3.25-4,4.88c-1.61-1.4-3.18-2.76-4.71-4.2s-3-2.94-4.47-4.41c1.39-1.54,2.73-3.09,4-4.63S552.35,782.08,553.56,780.49Z" style="fill:#fab317"/><path d="M542.73,777.71a150.12,150.12,0,0,0,21.09-1.63l3.79,24.26a176,176,0,0,1-24.89,1.93Z" style="fill:none;stroke:#fff;stroke-miterlimit:10;stroke-width:0.5px"/><path d="M501.12,771.12a139,139,0,0,0,20.54,4.93l-3.82,24.26a163.43,163.43,0,0,1-24.3-5.84Z" style="fill:#1a1a1a"/><path d="M510.54,777.11c.95,1.77,1.93,3.54,3,5.33s2.13,3.46,3.26,5.21c-1.66,1.22-3.37,2.49-5.11,3.65s-3.5,2.28-5.32,3.41c-2.25-3.55-4.24-7.37-6.11-11C503.83,781.56,507.23,779.51,510.54,777.11Z" style="fill:#fab317"/><path d="M501.12,771.12a139,139,0,0,0,20.54,4.93l-3.82,24.26a163.43,163.43,0,0,1-24.3-5.84Z" style="fill:none;stroke:#fff;stroke-miterlimit:10;stroke-width:0.5px"/><path d="M521.66,776.05a148.78,148.78,0,0,0,21.09,1.66l0,24.56a174.57,174.57,0,0,1-24.89-2Z" style="fill:#1a1a1a"/><path d="M526,782.56c1,.11,1.9.26,2.85.34l2.87.22c1.91.13,3.82.34,5.74.34L537,796.24c-2.09,0-4.17-.22-6.26-.37l-3.12-.24c-1-.08-2.08-.25-3.12-.37Z" style="fill:#fab317"/><path d="M521.66,776.05a148.78,148.78,0,0,0,21.09,1.66l0,24.56a174.57,174.57,0,0,1-24.89-2Z" style="fill:none;stroke:#fff;stroke-miterlimit:10;stroke-width:0.5px"/><path d="M481.62,763a127.77,127.77,0,0,0,19.51,8.1l-7.58,23.35a152.49,152.49,0,0,1-23.08-9.57Z" style="fill:#1a1a1a"/><path d="M483.7,770.58c1.76.77,3.47,1.63,5.26,2.32l5.35,2.11-4.41,12-5.84-2.3c-1.95-.76-3.83-1.69-5.74-2.53Z" style="fill:#fab317"/><path d="M481.62,763a127.77,127.77,0,0,0,19.51,8.1l-7.58,23.35a152.49,152.49,0,0,1-23.08-9.57Z" style="fill:none;stroke:#fff;stroke-miterlimit:10;stroke-width:0.5px"/><path d="M463.64,752a128.75,128.75,0,0,0,18,11l-11.15,21.88a152.61,152.61,0,0,1-21.3-13Z" style="fill:#1a1a1a"/><path d="M470.73,760.65c.34,2,.76,3.93,1.2,5.94s.9,4,1.45,6c-2,.69-3.93,1.24-6,1.83s-4.08,1.17-6.15,1.65c-.48-2.09-.92-4.17-1.32-6.22l-.58-3.06c-.17-1-.32-2.07-.47-3.1,1-.21,2-.42,3-.65l3-.77Q467.87,761.5,470.73,760.65Z" style="fill:#fab317"/><path d="M463.64,752a128.75,128.75,0,0,0,18,11l-11.15,21.88a152.61,152.61,0,0,1-21.3-13Z" style="fill:none;stroke:#fff;stroke-miterlimit:10;stroke-width:0.5px"/><path d="M433.8,722.25a142.9,142.9,0,0,0,13.74,16.06L430.2,755.7a168.55,168.55,0,0,1-16.23-19Z" style="fill:#1a1a1a"/><path d="M437.92,732.63q-.41,3-.74,6.06c-.17,2-.3,4-.41,6.13q-3.11,0-6.28,0t-6.31-.37c.28-4.2.88-8.44,1.51-12.49C429.86,732.31,433.84,732.62,437.92,732.63Z" style="fill:#fab317"/><path d="M433.8,722.25a142.9,142.9,0,0,0,13.74,16.06L430.2,755.7a168.55,168.55,0,0,1-16.23-19Z" style="fill:none;stroke:#fff;stroke-miterlimit:10;stroke-width:0.5px"/><path d="M447.54,738.32A142.09,142.09,0,0,0,463.65,752l-14.43,19.87a165.71,165.71,0,0,1-19-16.18Z" style="fill:#1a1a1a"/><path d="M447.22,746.13c.68.67,1.4,1.31,2.13,1.93l2.18,1.88c1.42,1.29,2.94,2.46,4.45,3.64l-7.9,10.06c-1.65-1.28-3.3-2.57-4.86-4l-2.37-2.06c-.79-.68-1.58-1.37-2.32-2.1Z" style="fill:#fab317"/><path d="M447.54,738.32A142.09,142.09,0,0,0,463.65,752l-14.43,19.87a165.71,165.71,0,0,1-19-16.18Z" style="fill:none;stroke:#fff;stroke-miterlimit:10;stroke-width:0.5px"/><path d="M422.52,703.87a128.18,128.18,0,0,0,11,18l-19.88,14.42a152.48,152.48,0,0,1-13-21.3Z" style="fill:#1a1a1a"/><path d="M419.76,711.21c1,1.65,1.89,3.33,2.88,5l3.11,4.84-10.63,7.12-3.39-5.28c-1.08-1.79-2.1-3.62-3.15-5.43Z" style="fill:#fab317"/><path d="M422.52,703.87a128.18,128.18,0,0,0,11,18l-19.88,14.42a152.48,152.48,0,0,1-13-21.3Z" style="fill:none;stroke:#fff;stroke-miterlimit:10;stroke-width:0.5px"/><path d="M414.46,684.39a129.3,129.3,0,0,0,8.08,19.51L400.66,715A153.48,153.48,0,0,1,391.1,692Z" style="fill:#1a1a1a"/><path d="M415.12,695.55c-.94,1.82-1.71,3.63-2.53,5.5s-1.62,3.78-2.37,5.72c-2-.62-3.91-1.3-5.89-2s-4-1.45-5.93-2.29c1.71-4,3.35-7.71,5.35-11.41C407.45,692.77,411.39,694.21,415.12,695.55Z" style="fill:#fab317"/><path d="M414.46,684.39a129.3,129.3,0,0,0,8.08,19.51L400.66,715A153.48,153.48,0,0,1,391.1,692Z" style="fill:none;stroke:#fff;stroke-miterlimit:10;stroke-width:0.5px"/><path d="M407.89,642.78a150.11,150.11,0,0,0,1.65,21.08l-24.26,3.81a176,176,0,0,1-1.94-24.89Z" style="fill:#1a1a1a"/><path d="M405.13,653.6c-1.39,1.45-2.84,2.94-4.17,4.46s-2.64,3.09-4,4.7c-1.67-1.21-3.35-2.45-5-3.74s-3.25-2.64-4.89-4c1.4-1.61,2.77-3.19,4.2-4.72s2.94-3,4.41-4.47c1.54,1.39,3.09,2.73,4.63,4S403.53,652.39,405.13,653.6Z" style="fill:#fab317"/><path d="M407.89,642.78a150.11,150.11,0,0,0,1.65,21.08l-24.26,3.81a176,176,0,0,1-1.94-24.89Z" style="fill:none;stroke:#fff;stroke-miterlimit:10;stroke-width:0.5px"/><path d="M409.54,663.87a140.37,140.37,0,0,0,4.92,20.53L391.11,692a163.4,163.4,0,0,1-5.83-24.3Z" style="fill:#1a1a1a"/><path d="M404.66,670c.15.95.37,1.88.59,2.82l.65,2.8c.22.93.41,1.87.66,2.79l.79,2.77L395,684.64l-.86-3c-.28-1-.48-2-.73-3l-.7-3.06c-.24-1-.48-2-.65-3.07Z" style="fill:#fab317"/><path d="M409.54,663.87a140.37,140.37,0,0,0,4.92,20.53L391.11,692a163.4,163.4,0,0,1-5.83-24.3Z" style="fill:none;stroke:#fff;stroke-miterlimit:10;stroke-width:0.5px"/><path d="M409.54,621.7a150.11,150.11,0,0,0-1.65,21.08H383.34a176,176,0,0,1,1.94-24.89Z" style="fill:#1a1a1a"/><path d="M403,626c-.11,1-.27,1.9-.34,2.85l-.22,2.87c-.13,1.91-.33,3.82-.33,5.74L389.36,637c0-2.09.22-4.17.37-6.26l.24-3.12c.07-1,.24-2.08.36-3.12Z" style="fill:#fab317"/><path d="M409.54,621.7a150.11,150.11,0,0,0-1.65,21.08H383.34a176,176,0,0,1,1.94-24.89Z" style="fill:none;stroke:#fff;stroke-miterlimit:10;stroke-width:0.5px"/><path d="M414.45,601.2a140.37,140.37,0,0,0-4.92,20.53l-24.25-3.79a163.34,163.34,0,0,1,5.81-24.3Z" style="fill:#1a1a1a"/><path d="M408.47,610.62q-2.66,1.43-5.33,3c-1.76,1-3.46,2.13-5.2,3.26-1.23-1.66-2.49-3.37-3.66-5.1s-2.29-3.51-3.42-5.32c3.55-2.25,7.36-4.26,11-6.12C404,603.91,406.06,607.31,408.47,610.62Z" style="fill:#fab317"/><path d="M414.45,601.2a140.37,140.37,0,0,0-4.92,20.53l-24.25-3.79a163.34,163.34,0,0,1,5.81-24.3Z" style="fill:none;stroke:#fff;stroke-miterlimit:10;stroke-width:0.5px"/><path d="M433.55,563.67a128.18,128.18,0,0,0-11,18l-21.88-11.14a152.48,152.48,0,0,1,13-21.3Z" style="fill:#1a1a1a"/><path d="M424.9,570.76c-2,.35-3.93.77-5.93,1.2s-4.05.9-6,1.46c-.7-2-1.25-3.93-1.85-6s-1.16-4.08-1.65-6.14q3.15-.74,6.22-1.33l3.06-.58c1-.18,2.08-.33,3.1-.48.21,1,.42,2,.66,3l.76,3C423.79,566.91,424.34,568.86,424.9,570.76Z" style="fill:#fab317"/><path d="M433.55,563.67a128.18,128.18,0,0,0-11,18l-21.88-11.14a152.48,152.48,0,0,1,13-21.3Z" style="fill:none;stroke:#fff;stroke-miterlimit:10;stroke-width:0.5px"/><path d="M422.52,581.7a128.65,128.65,0,0,0-8.07,19.51l-23.36-7.56a152.94,152.94,0,0,1,9.55-23.09Z" style="fill:#1a1a1a"/><path d="M415,583.78c-.76,1.76-1.63,3.47-2.32,5.26l-2.11,5.35-12-4.39,2.3-5.85c.75-1.95,1.69-3.82,2.53-5.74Z" style="fill:#fab317"/><path d="M422.52,581.7a128.65,128.65,0,0,0-8.07,19.51l-23.36-7.56a152.94,152.94,0,0,1,9.55-23.09Z" style="fill:none;stroke:#fff;stroke-miterlimit:10;stroke-width:0.5px"/><path d="M447.54,547.25a142.9,142.9,0,0,0-13.74,16.06L414,548.83a168.55,168.55,0,0,1,16.23-19Z" style="fill:#1a1a1a"/><path d="M439.73,546.91c-1.35,1.35-2.55,2.86-3.82,4.29-.63.73-1.27,1.44-1.88,2.18l-1.78,2.27-10-7.93,1.94-2.47c.67-.8,1.36-1.58,2-2.38,1.39-1.56,2.7-3.2,4.17-4.68Z" style="fill:#fab317"/><path d="M447.54,547.25a142.9,142.9,0,0,0-13.74,16.06L414,548.83a168.55,168.55,0,0,1,16.23-19Z" style="fill:none;stroke:#fff;stroke-miterlimit:10;stroke-width:0.5px"/><path d="M463.61,533.57a143,143,0,0,0-16.1,13.7l-17.34-17.38a165.76,165.76,0,0,1,19-16.18Z" style="fill:#1a1a1a"/><path d="M453.21,537.67q-3-.42-6-.75c-2-.19-4.05-.31-6.12-.43,0-2.06,0-4.18,0-6.28s.22-4.18.38-6.31c4.19.28,8.45.91,12.48,1.54C453.57,529.62,453.22,533.58,453.21,537.67Z" style="fill:#fab317"/><path d="M463.61,533.57a143,143,0,0,0-16.1,13.7l-17.34-17.38a165.76,165.76,0,0,1,19-16.18Z" style="fill:none;stroke:#fff;stroke-miterlimit:10;stroke-width:0.5px"/><path d="M501.13,514.44a127.77,127.77,0,0,0-19.51,8.1l-11.15-21.88a152.49,152.49,0,0,1,23.08-9.57Z" style="fill:#1a1a1a"/><path d="M490,515.11c-1.82-.94-3.62-1.7-5.5-2.53s-3.79-1.62-5.72-2.36c.62-2,1.3-3.91,2-5.9s1.45-4,2.29-5.93q3,1.26,5.81,2.57c.95.44,1.88.87,2.81,1.33l2.79,1.45-1.24,2.8c-.4.95-.77,1.92-1.14,2.88Q491,512.29,490,515.11Z" style="fill:#fab317"/><path d="M501.13,514.44a127.77,127.77,0,0,0-19.51,8.1l-11.15-21.88a152.49,152.49,0,0,1,23.08-9.57Z" style="fill:none;stroke:#fff;stroke-miterlimit:10;stroke-width:0.5px"/><path d="M481.62,522.54a127.88,127.88,0,0,0-18,11l-14.43-19.86a151.56,151.56,0,0,1,21.29-13.05Z" style="fill:#1a1a1a"/><path d="M474.28,519.78c-1.65,1-3.34,1.89-5,2.89l-4.84,3.11-7.14-10.63,5.29-3.39c1.78-1.09,3.61-2.1,5.42-3.15Z" style="fill:#fab317"/><path d="M481.62,522.54a127.88,127.88,0,0,0-18,11l-14.43-19.86a151.56,151.56,0,0,1,21.29-13.05Z" style="fill:none;stroke:#fff;stroke-miterlimit:10;stroke-width:0.5px"/><path d="M521.66,509.51a139,139,0,0,0-20.54,4.93l-7.58-23.35a163.43,163.43,0,0,1,24.3-5.84Z" style="fill:#1a1a1a"/><path d="M515.54,504.63c-1.89.32-3.74.84-5.61,1.24-.94.23-1.88.4-2.8.67l-2.77.79L500.88,495l3-.86c1-.29,2-.49,3.05-.73,2-.45,4.06-1,6.12-1.36Z" style="fill:#fab317"/><path d="M521.66,509.51a139,139,0,0,0-20.54,4.93l-7.58-23.35a163.43,163.43,0,0,1,24.3-5.84Z" style="fill:none;stroke:#fff;stroke-miterlimit:10;stroke-width:0.5px"/><path d="M542.7,507.85a148.64,148.64,0,0,0-21.08,1.66l-3.83-24.25a174.46,174.46,0,0,1,24.89-2Z" style="fill:#1a1a1a"/><path d="M531.87,505.09c-1.44-1.38-2.93-2.85-4.46-4.16s-3.09-2.64-4.7-4q1.8-2.5,3.74-5c1.28-1.7,2.63-3.25,4-4.89,1.62,1.39,3.19,2.77,4.72,4.19s3,2.94,4.48,4.41q-2.08,2.31-4,4.62C534.33,501.87,533.08,503.49,531.87,505.09Z" style="fill:#fab317"/><path d="M542.7,507.85a148.64,148.64,0,0,0-21.08,1.66l-3.83-24.25a174.46,174.46,0,0,1,24.89-2Z" style="fill:none;stroke:#fff;stroke-miterlimit:10;stroke-width:0.5px"/><path d="M584.33,514.37a140.56,140.56,0,0,0-20.55-4.9l3.78-24.26a164.69,164.69,0,0,1,24.31,5.8Z" style="fill:#1a1a1a"/><path d="M574.89,508.4q-1.41-2.65-3-5.33c-1-1.75-2.14-3.46-3.27-5.2,1.66-1.23,3.36-2.48,5.1-3.66s3.5-2.29,5.32-3.42c2.25,3.55,4.26,7.36,6.12,11C581.6,503.92,578.2,506,574.89,508.4Z" style="fill:#fab317"/><path d="M584.33,514.37a140.56,140.56,0,0,0-20.55-4.9l3.78-24.26a164.69,164.69,0,0,1,24.31,5.8Z" style="fill:none;stroke:#fff;stroke-miterlimit:10;stroke-width:0.5px"/><path d="M563.78,509.47a150.23,150.23,0,0,0-21.09-1.62l0-24.56a176,176,0,0,1,24.89,1.92Z" style="fill:#1a1a1a"/><path d="M559.44,503c-1.9-.28-3.81-.4-5.72-.54s-3.83-.33-5.75-.33l.46-12.79c2.09,0,4.18.2,6.26.36s4.17.29,6.25.6Z" style="fill:#fab317"/><path d="M563.78,509.47a150.23,150.23,0,0,0-21.09-1.62l0-24.56a176,176,0,0,1,24.89,1.92Z" style="fill:none;stroke:#fff;stroke-miterlimit:10;stroke-width:0.5px"/><path d="M604.22,522.63a128.23,128.23,0,0,0-19.49-8.12l7.62-23.34a152.56,152.56,0,0,1,23.07,9.61Z" style="fill:#1a1a1a"/><path d="M602.16,515.08c-1.75-.78-3.48-1.62-5.25-2.34l-5.35-2.11,4.42-12,5.84,2.3c1.94.78,3.83,1.7,5.74,2.54Z" style="fill:#fab317"/><path d="M604.22,522.63a128.23,128.23,0,0,0-19.49-8.12l7.62-23.34a152.56,152.56,0,0,1,23.07,9.61Z" style="fill:none;stroke:#fff;stroke-miterlimit:10;stroke-width:0.5px"/><path d="M622.19,533.68a128.16,128.16,0,0,0-18-11.06l11.19-21.86a153.07,153.07,0,0,1,21.27,13.08Z" style="fill:#1a1a1a"/><path d="M615.11,525c-.32-2-.75-3.94-1.18-5.94s-.9-4-1.44-6c2-.67,3.93-1.23,6-1.82s4.1-1.17,6.15-1.64q.72,3.15,1.32,6.22l.58,3.06L627,522l-3,.64-3,.76Q618,524.18,615.11,525Z" style="fill:#fab317"/><path d="M622.19,533.68a128.16,128.16,0,0,0-18-11.06l11.19-21.86a153.07,153.07,0,0,1,21.27,13.08Z" style="fill:none;stroke:#fff;stroke-miterlimit:10;stroke-width:0.5px"/><path d="M652,563.49a142.94,142.94,0,0,0-13.71-16.09L655.64,530a168.59,168.59,0,0,1,16.2,19Z" style="fill:#1a1a1a"/><path d="M647.88,553.1c.28-2,.52-4,.74-6.06s.32-4,.43-6.12c2.06,0,4.17,0,6.28.05s4.18.21,6.31.37c-.28,4.19-.9,8.45-1.53,12.49C655.93,553.44,652,553.11,647.88,553.1Z" style="fill:#fab317"/><path d="M652,563.49a142.94,142.94,0,0,0-13.71-16.09L655.64,530a168.59,168.59,0,0,1,16.2,19Z" style="fill:none;stroke:#fff;stroke-miterlimit:10;stroke-width:0.5px"/><path d="M638.27,547.39a144.08,144.08,0,0,0-16.09-13.72l14.46-19.84a166.68,166.68,0,0,1,19,16.21Z" style="fill:#1a1a1a"/><path d="M638.6,539.59c-1.36-1.36-2.87-2.54-4.3-3.82-.73-.62-1.44-1.27-2.19-1.87l-2.26-1.78,7.92-10,2.46,1.94c.82.65,1.59,1.36,2.39,2,1.56,1.39,3.2,2.69,4.69,4.16Z" style="fill:#fab317"/><path d="M638.27,547.39a144.08,144.08,0,0,0-16.09-13.72l14.46-19.84a166.68,166.68,0,0,1,19,16.21Z" style="fill:none;stroke:#fff;stroke-miterlimit:10;stroke-width:0.5px"/><path d="M663,581.5a127.27,127.27,0,0,0-11-18L671.83,549a153.48,153.48,0,0,1,13.07,21.28Z" style="fill:#1a1a1a"/><path d="M665.78,574.16c-1-1.66-1.88-3.34-2.89-5l-3.11-4.84,10.62-7.14,3.39,5.28c1.11,1.78,2.11,3.62,3.16,5.42Z" style="fill:#fab317"/><path d="M663,581.5a127.27,127.27,0,0,0-11-18L671.83,549a153.48,153.48,0,0,1,13.07,21.28Z" style="fill:none;stroke:#fff;stroke-miterlimit:10;stroke-width:0.5px"/><path d="M671.12,601a127.71,127.71,0,0,0-8.11-19.5l21.87-11.17a152,152,0,0,1,9.59,23.07Z" style="fill:#1a1a1a"/><path d="M670.45,589.81c.93-1.83,1.7-3.63,2.52-5.51s1.62-3.79,2.36-5.72c2,.61,3.91,1.3,5.89,2s4,1.45,5.94,2.28q-1.24,3-2.57,5.82l-1.32,2.81-1.45,2.79-2.8-1.23-2.88-1.15Q673.28,590.79,670.45,589.81Z" style="fill:#fab317"/><path d="M671.12,601a127.71,127.71,0,0,0-8.11-19.5l21.87-11.17a152,152,0,0,1,9.59,23.07Z" style="fill:none;stroke:#fff;stroke-miterlimit:10;stroke-width:0.5px"/><path d="M677.76,642.56a150.15,150.15,0,0,0-1.68-21.08l24.25-3.84a172.92,172.92,0,0,1,2,24.89Z" style="fill:#1a1a1a"/><path d="M680.51,631.73c1.38-1.44,2.85-2.94,4.15-4.46s2.65-3.09,4-4.7q2.52,1.8,5,3.73c1.71,1.28,3.25,2.63,4.89,4q-2.09,2.43-4.18,4.72T690,639.51q-2.33-2.07-4.63-4C683.73,634.19,682.11,632.94,680.51,631.73Z" style="fill:#fab317"/><path d="M677.76,642.56a150.15,150.15,0,0,0-1.68-21.08l24.25-3.84a172.92,172.92,0,0,1,2,24.89Z" style="fill:none;stroke:#fff;stroke-miterlimit:10;stroke-width:0.5px"/><path d="M676.07,621.48a136.41,136.41,0,0,0-5-20.53l23.35-7.61a162.14,162.14,0,0,1,5.86,24.29Z" style="fill:#1a1a1a"/><path d="M681,615.35c-.33-1.88-.84-3.74-1.24-5.61s-.94-3.71-1.47-5.56l12.31-3.5c.57,2,1.17,4,1.6,6.07s1,4.07,1.36,6.13Z" style="fill:#fab317"/><path d="M676.07,621.48a136.41,136.41,0,0,0-5-20.53l23.35-7.61a162.14,162.14,0,0,1,5.86,24.29Z" style="fill:none;stroke:#fff;stroke-miterlimit:10;stroke-width:0.5px"/><path d="M542.83,484.43A158.35,158.35,0,1,0,701.18,642.78,158.35,158.35,0,0,0,542.83,484.43Zm0,293.05a134.7,134.7,0,1,1,134.69-134.7A134.7,134.7,0,0,1,542.83,777.48Z" style="fill:none;stroke:#fff;stroke-miterlimit:10"/><polyline points="721.11 657.22 708.02 656.17 708.27 652.95 708.39 651.34 708.43 649.73 708.6 643.27 721.73 643.31" style="fill:none;stroke:#fff;stroke-miterlimit:10"/><path d="M708,656.16l13.09,1.05-.27,3.47c-.1,1.16-.28,2.31-.41,3.46-.32,2.3-.54,4.61-.94,6.9l-13-2.06" style="fill:none;stroke:#fff;stroke-miterlimit:10"/><path d="M716.76,684.68,704,681.61c.46-2.1,1-4.18,1.41-6.29l1.13-6.36,13,2.06" style="fill:none;stroke:#fff;stroke-miterlimit:10"/><path d="M704,681.6l12.77,3.07c-.28,1.13-.5,2.27-.82,3.38l-1,3.36c-.65,2.23-1.21,4.48-2,6.67L700.5,694" style="fill:none;stroke:#fff;stroke-miterlimit:10"/><path d="M708.18,711.13l-12.13-5,2.37-6c.72-2,1.39-4.07,2.09-6.11L713,698.06" style="fill:none;stroke:#fff;stroke-miterlimit:10"/><path d="M696.06,706.1l12.13,5c-.41,1.09-.89,2.15-1.37,3.2l-1.44,3.18c-.48,1-.94,2.12-1.45,3.17l-1.59,3.1-11.7-5.95" style="fill:none;stroke:#fff;stroke-miterlimit:10"/><path d="M695.59,735.93l-11.2-6.85c2.17-3.72,4.37-7.41,6.26-11.28l11.7,6" style="fill:none;stroke:#fff;stroke-miterlimit:10"/><path d="M684.4,729.07l11.2,6.85-3.76,5.86c-1.25,2-2.66,3.81-4,5.71l-10.63-7.69" style="fill:none;stroke:#fff;stroke-miterlimit:10"/><polyline points="678.57 759.26 668.61 750.71 670.73 748.27 672.72 745.73 674.72 743.19 675.71 741.92 676.65 740.6 687.24 748.36" style="fill:none;stroke:#fff;stroke-miterlimit:10"/><path d="M668.62,750.7l10,8.55c-3,3.57-6.23,6.89-9.45,10.23l-9.27-9.29" style="fill:none;stroke:#fff;stroke-miterlimit:10"/><path d="M658.89,778.88l-8.53-10,2.44-2.11c.82-.71,1.64-1.4,2.41-2.16l4.67-4.46,9.27,9.3" style="fill:none;stroke:#fff;stroke-miterlimit:10"/><path d="M650.37,768.89l8.53,10c-.89.75-1.75,1.53-2.65,2.26l-2.74,2.15c-1.83,1.43-3.63,2.91-5.55,4.22l-7.72-10.62" style="fill:none;stroke:#fff;stroke-miterlimit:10"/><path d="M636.42,795.26l-6.88-11.18,5.44-3.49c1.79-1.19,3.52-2.48,5.28-3.71L648,787.49" style="fill:none;stroke:#fff;stroke-miterlimit:10"/><path d="M629.55,784.07l6.88,11.18c-2,1.24-4,2.34-6,3.52s-4.07,2.23-6.14,3.29l-6-11.68" style="fill:none;stroke:#fff;stroke-miterlimit:10"/><path d="M611.68,807.94l-5.06-12.11c2-.82,3.93-1.76,5.9-2.63s3.88-1.85,5.79-2.83l6,11.68" style="fill:none;stroke:#fff;stroke-miterlimit:10"/><path d="M606.63,795.82l5.06,12.12-6.49,2.55c-2.17.83-4.39,1.52-6.58,2.28l-4.09-12.47" style="fill:none;stroke:#fff;stroke-miterlimit:10"/><polyline points="584.18 816.83 581.16 804.06 584.3 803.33 587.41 802.45 590.51 801.57 592.07 801.13 593.6 800.61 597.61 813.11" style="fill:none;stroke:#fff;stroke-miterlimit:10"/><path d="M581.17,804.06l3,12.77-3.4.78c-1.13.27-2.26.53-3.41.71l-6.86,1.23-2-13" style="fill:none;stroke:#fff;stroke-miterlimit:10"/><path d="M556.71,821.1l-1-13.09c4.3-.23,8.56-.89,12.83-1.44l2,13" style="fill:none;stroke:#fff;stroke-miterlimit:10"/><path d="M555.72,808l1,13.09c-4.63.45-9.28.46-13.91.59V808.56" style="fill:none;stroke:#fff;stroke-miterlimit:10"/><path d="M528.93,821.1l1-13.09c4.29.43,8.6.42,12.91.55v13.13" style="fill:none;stroke:#fff;stroke-miterlimit:10"/><path d="M530,808l-1,13.09c-4.64-.26-9.24-1-13.84-1.56l2-13" style="fill:none;stroke:#fff;stroke-miterlimit:10"/><path d="M501.46,816.83l3-12.77,3.15.72c1,.25,2.09.49,3.16.66l6.35,1.14-2,13" style="fill:none;stroke:#fff;stroke-miterlimit:10"/><polyline points="504.49 804.06 501.47 816.83 498.07 816.04 494.72 815.1 491.37 814.14 489.69 813.66 488.04 813.11 492.06 800.61" style="fill:none;stroke:#fff;stroke-miterlimit:10"/><path d="M474,807.94l5-12.12,6,2.37c2,.77,4.07,1.4,6.1,2.11L487,812.77" style="fill:none;stroke:#fff;stroke-miterlimit:10"/><path d="M479,795.83l-5,12.11c-2.15-.88-4.24-1.89-6.37-2.83s-4.19-2-6.25-3.06l6-11.68" style="fill:none;stroke:#fff;stroke-miterlimit:10"/><path d="M449.22,795.25l6.88-11.18c1.82,1.15,3.72,2.17,5.57,3.26s3.78,2.07,5.69,3l-6,11.68" style="fill:none;stroke:#fff;stroke-miterlimit:10"/><path d="M456.11,784.08l-6.88,11.18-5.86-3.76c-1.93-1.29-3.8-2.67-5.7-4l7.73-10.61" style="fill:none;stroke:#fff;stroke-miterlimit:10"/><path d="M426.76,778.88l8.52-10c.82.7,1.61,1.43,2.46,2.1l2.53,2c1.7,1.33,3.36,2.7,5.14,3.91l-7.72,10.62" style="fill:none;stroke:#fff;stroke-miterlimit:10"/><path d="M435.29,768.9l-8.52,10-2.63-2.28c-.88-.75-1.77-1.51-2.59-2.32l-5-4.81,9.26-9.3" style="fill:none;stroke:#fff;stroke-miterlimit:10"/><path d="M407.08,759.25l10-8.55c2.75,3.31,5.77,6.38,8.75,9.49l-9.27,9.29" style="fill:none;stroke:#fff;stroke-miterlimit:10"/><polyline points="417.04 750.71 407.08 759.26 404.81 756.63 402.65 753.89 400.5 751.15 399.43 749.78 398.42 748.36 409.01 740.6" style="fill:none;stroke:#fff;stroke-miterlimit:10"/><path d="M390.05,735.92l11.21-6.85,3.48,5.44c1.16,1.82,2.47,3.52,3.7,5.29l-10.64,7.69" style="fill:none;stroke:#fff;stroke-miterlimit:10"/><path d="M401.26,729.08l-11.2,6.85c-2.34-4-4.72-8-6.76-12.18l11.7-6" style="fill:none;stroke:#fff;stroke-miterlimit:10"/><path d="M377.47,711.12l12.13-5c.37,1,.82,2,1.27,3L392.2,712c.45,1,.87,2,1.34,2.93l1.47,2.88-11.7,5.95" style="fill:none;stroke:#fff;stroke-miterlimit:10"/><path d="M389.6,706.11l-12.13,5-2.56-6.48c-.78-2.19-1.5-4.4-2.25-6.59L385.15,694" style="fill:none;stroke:#fff;stroke-miterlimit:10"/><path d="M368.9,684.67l12.76-3.07c.26,1,.46,2.11.75,3.14l.89,3.11c.6,2.06,1.12,4.15,1.85,6.17l-12.48,4.06" style="fill:none;stroke:#fff;stroke-miterlimit:10"/><path d="M381.66,681.61l-12.76,3.07c-.5-2.27-1.09-4.52-1.52-6.8L366.16,671l13-2.06" style="fill:none;stroke:#fff;stroke-miterlimit:10"/><path d="M364.54,657.21l13.09-1.05.24,3.22c.1,1.07.27,2.14.39,3.21.3,2.13.5,4.27.86,6.39l-13,2.06" style="fill:none;stroke:#fff;stroke-miterlimit:10"/><polyline points="377.63 656.17 364.55 657.22 364.28 653.75 364.15 652.01 364.1 650.27 363.93 643.31 377.06 643.27" style="fill:none;stroke:#fff;stroke-miterlimit:10"/><polyline points="364.55 628.34 377.63 629.39 377.38 632.61 377.26 634.22 377.22 635.83 377.06 642.29 363.93 642.25" style="fill:none;stroke:#fff;stroke-miterlimit:10"/><path d="M377.63,629.4l-13.09-1,.27-3.47c.11-1.16.28-2.31.42-3.46.31-2.3.53-4.61.93-6.9l13,2.06" style="fill:none;stroke:#fff;stroke-miterlimit:10"/><path d="M368.9,600.88,381.66,604c-.46,2.1-1,4.18-1.4,6.29l-1.14,6.36-13-2.06" style="fill:none;stroke:#fff;stroke-miterlimit:10"/><path d="M381.66,604l-12.76-3.07c.27-1.13.49-2.27.81-3.38l1-3.36c.65-2.23,1.22-4.48,2-6.67l12.48,4.06" style="fill:none;stroke:#fff;stroke-miterlimit:10"/><path d="M377.47,574.43l12.13,5-2.37,6c-.72,2-1.38,4.07-2.08,6.11l-12.49-4.06" style="fill:none;stroke:#fff;stroke-miterlimit:10"/><path d="M389.6,579.46l-12.13-5c.4-1.09.89-2.15,1.37-3.21l1.43-3.17c.49-1.06,1-2.12,1.45-3.17l1.59-3.1,11.7,6" style="fill:none;stroke:#fff;stroke-miterlimit:10"/><path d="M390.06,549.63l11.2,6.85c-2.16,3.72-4.37,7.41-6.26,11.28l-11.7-6" style="fill:none;stroke:#fff;stroke-miterlimit:10"/><path d="M401.26,556.49l-11.21-6.85,3.76-5.86c1.25-2,2.67-3.81,4-5.71l10.64,7.69" style="fill:none;stroke:#fff;stroke-miterlimit:10"/><polyline points="407.08 526.3 417.04 534.85 414.93 537.29 412.93 539.83 410.94 542.37 409.94 543.64 409.01 544.96 398.42 537.2" style="fill:none;stroke:#fff;stroke-miterlimit:10"/><path d="M417,534.86l-10-8.55c3-3.57,6.22-6.89,9.44-10.23l9.27,9.29" style="fill:none;stroke:#fff;stroke-miterlimit:10"/><path d="M426.77,506.68l8.52,10-2.44,2.11c-.82.71-1.64,1.4-2.4,2.16l-4.68,4.46-9.26-9.3" style="fill:none;stroke:#fff;stroke-miterlimit:10"/><path d="M435.28,516.67l-8.52-10c.88-.75,1.74-1.53,2.65-2.26l2.73-2.15c1.84-1.43,3.63-2.91,5.55-4.22l7.72,10.62" style="fill:none;stroke:#fff;stroke-miterlimit:10"/><path d="M449.23,490.3l6.88,11.18L450.67,505c-1.78,1.2-3.51,2.49-5.27,3.72l-7.73-10.61" style="fill:none;stroke:#fff;stroke-miterlimit:10"/><path d="M456.1,501.49l-6.88-11.18c2-1.24,4-2.34,6-3.52s4.07-2.23,6.14-3.29l6,11.68" style="fill:none;stroke:#fff;stroke-miterlimit:10"/><path d="M474,477.62l5,12.11c-2,.82-3.92,1.76-5.89,2.63s-3.88,1.85-5.8,2.83l-6-11.68" style="fill:none;stroke:#fff;stroke-miterlimit:10"/><path d="M479,489.74l-5-12.12,6.48-2.55c2.17-.83,4.39-1.52,6.59-2.28l4.09,12.47" style="fill:none;stroke:#fff;stroke-miterlimit:10"/><polyline points="501.47 468.73 504.49 481.5 501.35 482.23 498.25 483.11 495.14 483.99 493.59 484.43 492.06 484.95 488.04 472.45" style="fill:none;stroke:#fff;stroke-miterlimit:10"/><path d="M504.48,481.5l-3-12.77,3.39-.78c1.13-.27,2.27-.53,3.41-.71l6.86-1.23,2,13" style="fill:none;stroke:#fff;stroke-miterlimit:10"/><path d="M528.94,464.46l1,13.08c-4.31.24-8.57.9-12.83,1.45l-2-13" style="fill:none;stroke:#fff;stroke-miterlimit:10"/><path d="M529.93,477.55l-1-13.09c4.62-.45,9.27-.46,13.91-.59V477" style="fill:none;stroke:#fff;stroke-miterlimit:10"/><path d="M556.73,464.46l-1,13.09c-4.29-.43-8.6-.42-12.9-.55V463.87" style="fill:none;stroke:#fff;stroke-miterlimit:10"/><path d="M555.71,477.54l1-13.08c4.64.26,9.24,1,13.85,1.56l-2,13" style="fill:none;stroke:#fff;stroke-miterlimit:10"/><path d="M584.2,468.73l-3,12.77-3.14-.72c-1-.25-2.1-.49-3.16-.66L568.51,479l2-13" style="fill:none;stroke:#fff;stroke-miterlimit:10"/><polyline points="581.16 481.5 584.18 468.73 587.58 469.51 590.93 470.46 594.28 471.42 595.96 471.89 597.61 472.45 593.6 484.95" style="fill:none;stroke:#fff;stroke-miterlimit:10"/><path d="M611.69,477.62l-5.06,12.12-6-2.37c-2-.77-4.07-1.4-6.1-2.11l4.09-12.47" style="fill:none;stroke:#fff;stroke-miterlimit:10"/><path d="M606.62,489.73l5.06-12.11c2.14.88,4.24,1.89,6.36,2.83s4.19,2,6.26,3.06l-6,11.68" style="fill:none;stroke:#fff;stroke-miterlimit:10"/><path d="M636.43,490.31l-6.88,11.18c-1.82-1.15-3.72-2.17-5.57-3.26s-3.77-2.07-5.69-3.05l6-11.68" style="fill:none;stroke:#fff;stroke-miterlimit:10"/><path d="M629.54,501.48l6.88-11.18,5.87,3.76c1.93,1.29,3.79,2.67,5.69,4l-7.72,10.61" style="fill:none;stroke:#fff;stroke-miterlimit:10"/><path d="M658.9,506.68l-8.53,10c-.82-.7-1.61-1.43-2.45-2.1l-2.54-2c-1.7-1.33-3.36-2.7-5.14-3.91L648,498.05" style="fill:none;stroke:#fff;stroke-miterlimit:10"/><path d="M650.36,516.66l8.53-10,2.63,2.28c.88.75,1.76,1.51,2.59,2.32l5,4.81-9.27,9.3" style="fill:none;stroke:#fff;stroke-miterlimit:10"/><path d="M678.58,526.31l-10,8.55c-2.76-3.31-5.78-6.38-8.76-9.49l9.27-9.29" style="fill:none;stroke:#fff;stroke-miterlimit:10"/><polyline points="668.61 534.85 678.57 526.3 680.85 528.93 683 531.67 685.15 534.41 686.23 535.78 687.24 537.2 676.65 544.96" style="fill:none;stroke:#fff;stroke-miterlimit:10"/><path d="M695.6,549.64l-11.2,6.85-3.49-5.44c-1.15-1.82-2.47-3.52-3.69-5.29l10.63-7.69" style="fill:none;stroke:#fff;stroke-miterlimit:10"/><path d="M684.39,556.48l11.2-6.85c2.35,4,4.72,8,6.76,12.18l-11.7,6" style="fill:none;stroke:#fff;stroke-miterlimit:10"/><path d="M708.19,574.44l-12.13,5c-.38-1-.83-2-1.27-3l-1.33-2.94c-.45-1-.87-2-1.35-2.93l-1.47-2.88,11.7-6" style="fill:none;stroke:#fff;stroke-miterlimit:10"/><path d="M696.05,579.45l12.13-5,2.56,6.48c.78,2.19,1.5,4.4,2.25,6.59l-12.48,4.06" style="fill:none;stroke:#fff;stroke-miterlimit:10"/><path d="M716.76,600.89,704,604c-.25-1.05-.45-2.11-.75-3.14l-.88-3.11c-.61-2.06-1.12-4.15-1.86-6.17L713,587.48" style="fill:none;stroke:#fff;stroke-miterlimit:10"/><path d="M704,604l12.77-3.07c.5,2.27,1.09,4.52,1.51,6.8l1.23,6.86-13,2.06" style="fill:none;stroke:#fff;stroke-miterlimit:10"/><path d="M721.11,628.35l-13.09,1-.24-3.22c-.1-1.07-.26-2.14-.39-3.21-.29-2.13-.49-4.27-.86-6.39l13-2.06" style="fill:none;stroke:#fff;stroke-miterlimit:10"/><polyline points="708.02 629.39 721.11 628.34 721.37 631.81 721.5 633.55 721.55 635.29 721.73 642.25 708.6 642.29" style="fill:none;stroke:#fff;stroke-miterlimit:10"/><circle cx="542.83" cy="642.78" r="188.52" style="fill:none;stroke:#fab317;stroke-miterlimit:10;stroke-width:2px"/></g><path d="M581.35,581.22A20.21,20.21,0,0,0,550,603.06Z" style="fill:#fff"/><path d="M504.59,581.22A20.21,20.21,0,0,1,536,603.06Z" style="fill:#fff"/><path d="M594.65,563.7v88.18a10,10,0,0,1-10,10H500.77a10,10,0,0,1-10-10V563.7" style="fill:none;stroke:#fff;stroke-miterlimit:10"/><path d="M540,593.33a23.59,23.59,0,0,0-8.24-17.72A23.21,23.21,0,0,0,517.65,570v0H491.29" style="fill:none;stroke:#fff;stroke-miterlimit:10"/><path d="M545.91,593.28A23.22,23.22,0,0,1,568.13,570v0h26.36" style="fill:none;stroke:#fff;stroke-miterlimit:10"/><rect x="490.77" y="557.58" width="103.88" height="6.71" style="fill:none;stroke:#fff;stroke-miterlimit:10"/><polyline points="518.16 620.57 490.78 620.57 490.78 574.1 518.16 574.1" style="fill:none;stroke:#fff;stroke-miterlimit:10"/><ellipse cx="517.13" cy="597.33" rx="23.26" ry="23.24" style="fill:none;stroke:#fff;stroke-miterlimit:10"/><ellipse cx="516.61" cy="597.33" rx="20.16" ry="20.14" style="fill:none;stroke:#fff;stroke-miterlimit:10"/><polyline points="567.78 620.57 594.66 620.57 594.66 574.1 567.78 574.1" style="fill:none;stroke:#fff;stroke-miterlimit:10"/><ellipse cx="568.81" cy="597.33" rx="23.26" ry="23.24" style="fill:none;stroke:#fff;stroke-miterlimit:10"/><ellipse cx="569.33" cy="597.33" rx="20.16" ry="20.14" style="fill:none;stroke:#fff;stroke-miterlimit:10"/><path d="M517.75,594.2a3.13,3.13,0,1,1-3.13,3.13,3.13,3.13,0,0,1,3.13-3.13m0-1a4.13,4.13,0,1,0,4.13,4.13,4.13,4.13,0,0,0-4.13-4.13Z" style="fill:#fff"/><path d="M568.4,594.2a3.13,3.13,0,1,1-3.13,3.13,3.14,3.14,0,0,1,3.13-3.13m0-1a4.13,4.13,0,1,0,4.14,4.13,4.13,4.13,0,0,0-4.14-4.13Z" style="fill:#fff"/><path d="M496.45,597.33a20.16,20.16,0,0,1,40.32,0" style="fill:none;stroke:#fff;stroke-miterlimit:10"/><path d="M549.19,597.28a20.16,20.16,0,0,1,40.32,0" style="fill:none;stroke:#fff;stroke-miterlimit:10"/><path d="M504.59,581.22A20.21,20.21,0,0,1,536,603.06Z" style="fill:none;stroke:#fff;stroke-miterlimit:10"/><path d="M581.35,581.22A20.21,20.21,0,0,0,550,603.06Z" style="fill:none;stroke:#fff;stroke-miterlimit:10"/><rect x="490.76" y="557.6" width="6.95" height="6.66" style="fill:none;stroke:#fff;stroke-miterlimit:10"/><rect x="504.61" y="557.6" width="6.95" height="6.66" style="fill:none;stroke:#fff;stroke-miterlimit:10"/><rect x="518.46" y="557.6" width="6.95" height="6.66" style="fill:none;stroke:#fff;stroke-miterlimit:10"/><rect x="532.3" y="557.6" width="6.95" height="6.66" style="fill:none;stroke:#fff;stroke-miterlimit:10"/><rect x="546.15" y="557.6" width="6.95" height="6.66" style="fill:none;stroke:#fff;stroke-miterlimit:10"/><rect x="560" y="557.6" width="6.95" height="6.66" style="fill:none;stroke:#fff;stroke-miterlimit:10"/><rect x="573.84" y="557.6" width="6.95" height="6.66" style="fill:none;stroke:#fff;stroke-miterlimit:10"/><rect x="587.69" y="557.6" width="6.95" height="6.66" style="fill:none;stroke:#fff;stroke-miterlimit:10"/><polygon points="551.17 627.19 542.67 620.68 534.11 627.19 517.35 627.19 542.72 647.13 567.93 627.19 551.17 627.19" style="fill:#f8b318;stroke:#fff;stroke-miterlimit:10"/><path d="M607.77,605.87a19.2,19.2,0,0,1,2.53.17h25.05c3.45,0,6.28,2.26,6.28,5s-2.83,5-6.28,5h-.74a5,5,0,0,1,3.25,4.4c0,2.76-2.83,5-6.28,5h-1.37a5,5,0,0,1,3.25,4.4c0,2.76-2.83,5-6.28,5H625.3a19.82,19.82,0,1,1-17.53-29.07Z" style="fill:#1a1a1a"/><path d="M477.89,605.16a19.35,19.35,0,0,0-2.54.17h-25c-3.46,0-6.29,2.26-6.29,5s2.83,5,6.29,5h.74a5,5,0,0,0-3.26,4.4c0,2.77,2.83,5,6.29,5h1.37a5,5,0,0,0-3.26,4.4c0,2.76,2.83,5,6.29,5h1.88a19.82,19.82,0,1,0,17.53-29.08Z" style="fill:#1a1a1a"/><path d="M477.89,605.16a19.35,19.35,0,0,0-2.54.17h-25c-3.46,0-6.29,2.26-6.29,5s2.83,5,6.29,5h.74a5,5,0,0,0-3.26,4.4c0,2.77,2.83,5,6.29,5h1.37a5,5,0,0,0-3.26,4.4c0,2.76,2.83,5,6.29,5h1.88a19.82,19.82,0,1,0,17.53-29.08Z" style="fill:none;stroke:#fff;stroke-miterlimit:10"/><ellipse cx="478.01" cy="624.97" rx="9.59" ry="9.59" style="fill:none;stroke:#fff;stroke-miterlimit:10"/><ellipse cx="478.01" cy="624.97" rx="4.07" ry="4.07" style="fill:#f8b318;stroke:#fff;stroke-miterlimit:10"/><path d="M607.77,605.87a19.2,19.2,0,0,1,2.53.17h25.05c3.45,0,6.28,2.26,6.28,5s-2.83,5-6.28,5h-.74a5,5,0,0,1,3.25,4.4c0,2.76-2.83,5-6.28,5h-1.37a5,5,0,0,1,3.25,4.4c0,2.76-2.83,5-6.28,5H625.3a19.82,19.82,0,1,1-17.53-29.07Z" style="fill:none;stroke:#fff;stroke-miterlimit:10"/><ellipse cx="607.64" cy="625.68" rx="9.59" ry="9.59" style="fill:none;stroke:#fff;stroke-miterlimit:10"/><ellipse cx="607.64" cy="625.68" rx="4.07" ry="4.07" style="fill:#f8b318;stroke:#fff;stroke-miterlimit:10"/></svg>