<svg id="a84bd3a0-5986-4361-a781-d14f58fe7504" data-name="Layer 1" xmlns="http://www.w3.org/2000/svg" xmlns:xlink="http://www.w3.org/1999/xlink" viewBox="0 0 400 400"><defs><clipPath id="fd049c19-8e7d-433e-bb0b-c32b44a7ee95"><rect x="3.97" y="62.58" width="392.63" height="198.37" style="fill:none"/></clipPath><clipPath id="e7411a57-7b92-4f39-aac5-3333147fd8df"><path d="M202.78,148.18A112.64,112.64,0,1,0,315.41,260.82,112.64,112.64,0,0,0,202.78,148.18Zm0,211.06a98.42,98.42,0,1,1,98.42-98.42A98.42,98.42,0,0,1,202.78,359.24Z" style="fill:none"/></clipPath></defs><g style="clip-path:url(#fd049c19-8e7d-433e-bb0b-c32b44a7ee95)"><rect x="65.56" y="123.6" width="274.44" height="274.44" transform="translate(243.82 -66.99) rotate(45)" style="fill:none;stroke:#fab317;stroke-miterlimit:10;stroke-width:2px"/><circle cx="202.78" cy="260.82" r="177.55" style="fill:#1a1a1a"/><rect x="65.56" y="123.6" width="274.44" height="274.44" transform="translate(463.6 58.04) rotate(90)" style="fill:none;stroke:#fab317;stroke-miterlimit:10;stroke-width:2px"/><circle cx="202.78" cy="260.82" r="177.55" style="fill:#1a1a1a"/><rect x="65.56" y="123.6" width="274.44" height="274.44" transform="translate(365.18 -26.88) rotate(67.31)" style="fill:none;stroke:#fab317;stroke-miterlimit:10;stroke-width:2px"/><circle cx="202.78" cy="260.82" r="177.55" style="fill:#1a1a1a"/><rect x="65.56" y="123.6" width="274.44" height="274.44" transform="translate(521.05 172.22) rotate(112.31)" style="fill:none;stroke:#fab317;stroke-miterlimit:10;stroke-width:2px"/><circle cx="202.78" cy="260.82" r="177.55" style="fill:#1a1a1a"/><g style="clip-path:url(#e7411a57-7b92-4f39-aac5-3333147fd8df)"><circle cx="202.78" cy="260.82" r="116.4" style="fill:none;stroke:#fff;stroke-miterlimit:10"/><line x1="202.78" y1="260.82" x2="202.78" y2="377.22" style="fill:none;stroke:#fff;stroke-miterlimit:10"/><line x1="202.78" y1="260.82" x2="220.99" y2="375.79" style="fill:none;stroke:#fff;stroke-miterlimit:10"/><line x1="202.78" y1="260.82" x2="238.75" y2="371.52" style="fill:none;stroke:#fff;stroke-miterlimit:10"/><line x1="202.78" y1="260.82" x2="255.62" y2="364.53" style="fill:none;stroke:#fff;stroke-miterlimit:10"/><line x1="202.78" y1="260.82" x2="271.19" y2="354.99" style="fill:none;stroke:#fff;stroke-miterlimit:10"/><line x1="202.78" y1="260.82" x2="285.08" y2="343.13" style="fill:none;stroke:#fff;stroke-miterlimit:10"/><line x1="202.78" y1="260.82" x2="296.95" y2="329.24" style="fill:none;stroke:#fff;stroke-miterlimit:10"/><line x1="202.78" y1="260.82" x2="306.49" y2="313.66" style="fill:none;stroke:#fff;stroke-miterlimit:10"/><line x1="202.78" y1="260.82" x2="313.48" y2="296.79" style="fill:none;stroke:#fff;stroke-miterlimit:10"/><line x1="202.78" y1="260.82" x2="317.74" y2="279.03" style="fill:none;stroke:#fff;stroke-miterlimit:10"/><line x1="202.78" y1="260.82" x2="319.18" y2="260.82" style="fill:none;stroke:#fff;stroke-miterlimit:10"/><line x1="202.78" y1="260.82" x2="317.74" y2="242.61" style="fill:none;stroke:#fff;stroke-miterlimit:10"/><line x1="202.78" y1="260.82" x2="313.48" y2="224.85" style="fill:none;stroke:#fff;stroke-miterlimit:10"/><line x1="202.78" y1="260.82" x2="306.49" y2="207.98" style="fill:none;stroke:#fff;stroke-miterlimit:10"/><line x1="202.78" y1="260.82" x2="296.95" y2="192.4" style="fill:none;stroke:#fff;stroke-miterlimit:10"/><line x1="202.78" y1="260.82" x2="285.08" y2="178.51" style="fill:none;stroke:#fff;stroke-miterlimit:10"/><line x1="202.78" y1="260.82" x2="271.19" y2="166.65" style="fill:none;stroke:#fff;stroke-miterlimit:10"/><line x1="202.78" y1="260.82" x2="255.62" y2="157.11" style="fill:none;stroke:#fff;stroke-miterlimit:10"/><line x1="202.78" y1="260.82" x2="238.75" y2="150.12" style="fill:none;stroke:#fff;stroke-miterlimit:10"/><line x1="202.78" y1="260.82" x2="220.99" y2="145.85" style="fill:none;stroke:#fff;stroke-miterlimit:10"/><line x1="202.78" y1="260.82" x2="202.78" y2="144.42" style="fill:none;stroke:#fff;stroke-miterlimit:10"/><line x1="202.78" y1="260.82" x2="184.57" y2="145.85" style="fill:none;stroke:#fff;stroke-miterlimit:10"/><line x1="202.78" y1="260.82" x2="166.81" y2="150.12" style="fill:none;stroke:#fff;stroke-miterlimit:10"/><line x1="202.78" y1="260.82" x2="149.93" y2="157.11" style="fill:none;stroke:#fff;stroke-miterlimit:10"/><line x1="202.78" y1="260.82" x2="134.36" y2="166.65" style="fill:none;stroke:#fff;stroke-miterlimit:10"/><line x1="202.78" y1="260.82" x2="120.47" y2="178.51" style="fill:none;stroke:#fff;stroke-miterlimit:10"/><line x1="202.78" y1="260.82" x2="108.61" y2="192.4" style="fill:none;stroke:#fff;stroke-miterlimit:10"/><line x1="202.78" y1="260.82" x2="99.06" y2="207.98" style="fill:none;stroke:#fff;stroke-miterlimit:10"/><line x1="202.78" y1="260.82" x2="92.08" y2="224.85" style="fill:none;stroke:#fff;stroke-miterlimit:10"/><line x1="202.78" y1="260.82" x2="87.81" y2="242.61" style="fill:none;stroke:#fff;stroke-miterlimit:10"/><line x1="202.78" y1="260.82" x2="86.38" y2="260.82" style="fill:none;stroke:#fff;stroke-miterlimit:10"/><line x1="202.78" y1="260.82" x2="87.81" y2="279.03" style="fill:none;stroke:#fff;stroke-miterlimit:10"/><line x1="202.78" y1="260.82" x2="92.08" y2="296.79" style="fill:none;stroke:#fff;stroke-miterlimit:10"/><line x1="202.78" y1="260.82" x2="99.06" y2="313.66" style="fill:none;stroke:#fff;stroke-miterlimit:10"/><line x1="202.78" y1="260.82" x2="108.61" y2="329.24" style="fill:none;stroke:#fff;stroke-miterlimit:10"/><line x1="202.78" y1="260.82" x2="120.47" y2="343.13" style="fill:none;stroke:#fff;stroke-miterlimit:10"/><line x1="202.78" y1="260.82" x2="134.36" y2="354.99" style="fill:none;stroke:#fff;stroke-miterlimit:10"/><line x1="202.78" y1="260.82" x2="149.93" y2="364.53" style="fill:none;stroke:#fff;stroke-miterlimit:10"/><line x1="202.78" y1="260.82" x2="166.81" y2="371.52" style="fill:none;stroke:#fff;stroke-miterlimit:10"/><line x1="202.78" y1="260.82" x2="184.57" y2="375.79" style="fill:none;stroke:#fff;stroke-miterlimit:10"/></g><circle cx="202.78" cy="260.82" r="98.42" style="fill:none;stroke:#fff;stroke-miterlimit:10"/><circle cx="202.78" cy="260.82" r="112.64" style="fill:none;stroke:#fff;stroke-miterlimit:10"/><path d="M318.12,284a117.36,117.36,0,0,0,2.28-22.92l24.55.05a141.43,141.43,0,0,1-2.76,27.67Z" style="fill:#1a1a1a"/><path d="M324.89,279.41l.78-6.25c.15-2.1.33-4.2.46-6.3l12.78.62c-.14,2.31-.34,4.63-.51,6.94s-.57,4.6-.86,6.9Z" style="fill:#fab317"/><path d="M318.12,284a117.36,117.36,0,0,0,2.28-22.92l24.55.05a141.43,141.43,0,0,1-2.76,27.67Z" style="fill:none;stroke:#fff;stroke-miterlimit:10;stroke-width:0.5px"/><path d="M311.43,305.93a116.6,116.6,0,0,0,6.69-22l24.08,4.79a140.63,140.63,0,0,1-8.1,26.63Z" style="fill:#1a1a1a"/><path d="M318.41,296q2.76-1.44,5.56-3c1.88-1.07,3.63-2.22,5.47-3.4,1.1,1.85,2.27,3.77,3.28,5.71s2,3.94,3,6c-1.9,1.17-3.92,2.25-5.84,3.29L327,306.12c-1,.49-2,.95-3,1.41-.42-1-.83-2-1.27-3l-1.4-2.92C320.36,299.72,319.46,297.87,318.41,296Z" style="fill:#fab317"/><path d="M311.43,305.93a116.6,116.6,0,0,0,6.69-22l24.08,4.79a140.63,140.63,0,0,1-8.1,26.63Z" style="fill:none;stroke:#fff;stroke-miterlimit:10;stroke-width:0.5px"/><path d="M286,344a117.57,117.57,0,0,0,14.61-17.8L321,339.87a143.23,143.23,0,0,1-17.65,21.49Z" style="fill:#1a1a1a"/><path d="M296.19,337.5a120.2,120.2,0,0,0,12.65-1.72A130.88,130.88,0,0,1,310.17,349a132.19,132.19,0,0,1-13.23,1.26A121,121,0,0,0,296.19,337.5Z" style="fill:#fab317"/><path d="M286,344a117.57,117.57,0,0,0,14.61-17.8L321,339.87a143.23,143.23,0,0,1-17.65,21.49Z" style="fill:none;stroke:#fff;stroke-miterlimit:10;stroke-width:0.5px"/><path d="M300.57,326.2a118.4,118.4,0,0,0,10.87-20.28l22.67,9.42A142.67,142.67,0,0,1,321,339.86Z" style="fill:#1a1a1a"/><path d="M308.57,324.58c1-1.83,2.12-3.63,3.11-5.48s2-3.72,2.83-5.63l11.57,5.46c-1,2.11-2.08,4.14-3.12,6.22s-2.3,4-3.44,6.05Z" style="fill:#fab317"/><path d="M300.57,326.2a118.4,118.4,0,0,0,10.87-20.28l22.67,9.42A142.67,142.67,0,0,1,321,339.86Z" style="fill:none;stroke:#fff;stroke-miterlimit:10;stroke-width:0.5px"/><path d="M268.16,358.61A117.66,117.66,0,0,0,286,344l17.37,17.37A143.05,143.05,0,0,1,281.83,379Z" style="fill:#1a1a1a"/><path d="M276.17,360.15c1.69-1.25,3.31-2.59,5-3.87l4.78-4.13,8.61,9.46q-2.61,2.29-5.26,4.55c-1.83,1.43-3.63,2.89-5.49,4.28Z" style="fill:#fab317"/><path d="M268.16,358.61A117.66,117.66,0,0,0,286,344l17.37,17.37A143.05,143.05,0,0,1,281.83,379Z" style="fill:none;stroke:#fff;stroke-miterlimit:10;stroke-width:0.5px"/><path d="M247.92,369.46a117.93,117.93,0,0,0,20.27-10.87L281.87,379a142.4,142.4,0,0,1-24.52,13.15Z" style="fill:#1a1a1a"/><path d="M259.85,367.37c2,.65,4,1.19,6.08,1.75,1,.27,2.08.55,3.13.8l3.15.67-.8,3.2c-.29,1-.6,2.09-.92,3.14-.65,2.1-1.32,4.28-2.08,6.38-2.2-.56-4.36-1.16-6.46-1.77s-4.22-1.37-6.25-2.09c.8-2,1.59-4,2.26-6S259.27,369.36,259.85,367.37Z" style="fill:#fab317"/><path d="M247.92,369.46a117.93,117.93,0,0,0,20.27-10.87L281.87,379a142.4,142.4,0,0,1-24.52,13.15Z" style="fill:none;stroke:#fff;stroke-miterlimit:10;stroke-width:0.5px"/><path d="M203,378.44a117.44,117.44,0,0,0,22.92-2.28l4.8,24.08A143,143,0,0,1,203.06,403Z" style="fill:#1a1a1a"/><path d="M214.85,381.07c1.6,1.35,3.24,2.64,4.94,3.95.85.65,1.71,1.31,2.59,1.94l2.65,1.83-2,2.64c-.67.87-1.36,1.7-2.06,2.56-1.41,1.69-2.86,3.42-4.37,5.09a126.36,126.36,0,0,1-10.26-8.45A119.28,119.28,0,0,0,214.85,381.07Z" style="fill:#fab317"/><path d="M203,378.44a117.44,117.44,0,0,0,22.92-2.28l4.8,24.08A143,143,0,0,1,203.06,403Z" style="fill:none;stroke:#fff;stroke-miterlimit:10;stroke-width:0.5px"/><path d="M225.93,376.16a117.37,117.37,0,0,0,22-6.7l9.43,22.66a141.54,141.54,0,0,1-26.62,8.12Z" style="fill:#1a1a1a"/><path d="M232.73,380.65c2.05-.48,4.05-1.13,6.08-1.68s4-1.33,6-2l4.35,12c-2.2.73-4.38,1.52-6.6,2.19s-4.45,1.32-6.71,1.86Z" style="fill:#fab317"/><path d="M225.93,376.16a117.37,117.37,0,0,0,22-6.7l9.43,22.66a141.54,141.54,0,0,1-26.62,8.12Z" style="fill:none;stroke:#fff;stroke-miterlimit:10;stroke-width:0.5px"/><path d="M179.63,376.16a117.34,117.34,0,0,0,22.91,2.28l0,24.56a143.06,143.06,0,0,1-27.67-2.76Z" style="fill:#1a1a1a"/><path d="M184.18,382.93l6.26.78c2.1.15,4.19.33,6.29.46L196.12,397c-2.32-.14-4.63-.34-6.94-.51s-4.61-.58-6.91-.87Z" style="fill:#fab317"/><path d="M179.63,376.16a117.34,117.34,0,0,0,22.91,2.28l0,24.56a143.06,143.06,0,0,1-27.67-2.76Z" style="fill:none;stroke:#fff;stroke-miterlimit:10;stroke-width:0.5px"/><path d="M157.67,369.47a117.37,117.37,0,0,0,22,6.7l-4.8,24.08a142.32,142.32,0,0,1-26.63-8.1Z" style="fill:#1a1a1a"/><path d="M167.56,376.45c1,1.84,2,3.69,3,5.56s2.22,3.63,3.4,5.48c-1.85,1.1-3.78,2.27-5.72,3.27s-3.93,2-6,3c-1.17-1.89-2.25-3.91-3.3-5.84l-1.52-2.9c-.49-1-.95-2-1.41-3,1-.42,2-.83,3-1.27l2.92-1.41C163.87,378.4,165.72,377.5,167.56,376.45Z" style="fill:#fab317"/><path d="M157.67,369.47a117.37,117.37,0,0,0,22,6.7l-4.8,24.08a142.32,142.32,0,0,1-26.63-8.1Z" style="fill:none;stroke:#fff;stroke-miterlimit:10;stroke-width:0.5px"/><path d="M119.6,344a118.66,118.66,0,0,0,17.79,14.62L123.73,379a142.06,142.06,0,0,1-21.49-17.64Z" style="fill:#1a1a1a"/><path d="M126.09,354.23a123.51,123.51,0,0,0,1.73,12.66,130.9,130.9,0,0,1-13.22,1.32A129,129,0,0,1,113.34,355,120.8,120.8,0,0,0,126.09,354.23Z" style="fill:#fab317"/><path d="M119.6,344a118.66,118.66,0,0,0,17.79,14.62L123.73,379a142.06,142.06,0,0,1-21.49-17.64Z" style="fill:none;stroke:#fff;stroke-miterlimit:10;stroke-width:0.5px"/><path d="M137.4,358.61a117.71,117.71,0,0,0,20.28,10.87l-9.42,22.67A141.76,141.76,0,0,1,123.73,379Z" style="fill:#1a1a1a"/><path d="M139,366.61c1.84,1,3.63,2.12,5.49,3.11s3.72,2,5.63,2.83l-5.46,11.58c-2.11-1-4.15-2.09-6.22-3.13s-4-2.29-6-3.44Z" style="fill:#fab317"/><path d="M137.4,358.61a117.71,117.71,0,0,0,20.28,10.87l-9.42,22.67A141.76,141.76,0,0,1,123.73,379Z" style="fill:none;stroke:#fff;stroke-miterlimit:10;stroke-width:0.5px"/><path d="M105,326.2A118.78,118.78,0,0,0,119.6,344l-17.36,17.36a143.23,143.23,0,0,1-17.65-21.49Z" style="fill:#1a1a1a"/><path d="M103.45,334.21c1.25,1.69,2.58,3.31,3.87,5l4.13,4.77L102,352.58c-1.53-1.75-3.06-3.5-4.56-5.27s-2.89-3.62-4.27-5.49Z" style="fill:#fab317"/><path d="M105,326.2A118.78,118.78,0,0,0,119.6,344l-17.36,17.36a143.23,143.23,0,0,1-17.65-21.49Z" style="fill:none;stroke:#fff;stroke-miterlimit:10;stroke-width:0.5px"/><path d="M94.14,306A117,117,0,0,0,105,326.24L84.62,339.91a141.35,141.35,0,0,1-13.15-24.52Z" style="fill:#1a1a1a"/><path d="M96.23,317.89c-.66,2-1.19,4-1.75,6.08-.28,1-.55,2.08-.8,3.13L93,330.26l-3.2-.8c-1-.29-2.09-.61-3.15-.93-2.09-.64-4.27-1.31-6.37-2.08.56-2.2,1.15-4.36,1.77-6.46s1.37-4.22,2.09-6.25c2,.8,4,1.59,6,2.26S94.24,317.31,96.23,317.89Z" style="fill:#fab317"/><path d="M94.14,306A117,117,0,0,0,105,326.24L84.62,339.91a141.35,141.35,0,0,1-13.15-24.52Z" style="fill:none;stroke:#fff;stroke-miterlimit:10;stroke-width:0.5px"/><path d="M85.15,261.05A118.15,118.15,0,0,0,87.44,284l-24.08,4.8A142.2,142.2,0,0,1,60.6,261.1Z" style="fill:#1a1a1a"/><path d="M82.52,272.89c-1.34,1.6-2.63,3.24-3.94,4.94-.65.85-1.31,1.72-2,2.59l-1.82,2.66-2.65-2c-.86-.67-1.7-1.36-2.55-2.06-1.69-1.4-3.42-2.86-5.1-4.37,2.77-3.63,5.45-7,8.45-10.26A122.84,122.84,0,0,0,82.52,272.89Z" style="fill:#fab317"/><path d="M85.15,261.05A118.15,118.15,0,0,0,87.44,284l-24.08,4.8A142.2,142.2,0,0,1,60.6,261.1Z" style="fill:none;stroke:#fff;stroke-miterlimit:10;stroke-width:0.5px"/><path d="M87.44,284a116.53,116.53,0,0,0,6.7,22l-22.67,9.44a141.61,141.61,0,0,1-8.11-26.63Z" style="fill:#1a1a1a"/><path d="M83,290.78c.48,2,1.12,4.05,1.67,6.07s1.34,4,2,6l-12,4.36c-.73-2.2-1.53-4.39-2.2-6.61s-1.31-4.45-1.85-6.71Z" style="fill:#fab317"/><path d="M87.44,284a116.53,116.53,0,0,0,6.7,22l-22.67,9.44a141.61,141.61,0,0,1-8.11-26.63Z" style="fill:none;stroke:#fff;stroke-miterlimit:10;stroke-width:0.5px"/><path d="M87.44,237.67a118.12,118.12,0,0,0-2.29,22.91l-24.55,0a142.12,142.12,0,0,1,2.76-27.67Z" style="fill:#1a1a1a"/><path d="M80.67,242.23l-.78,6.25c-.15,2.1-.34,4.2-.47,6.3l-12.78-.62c.14-2.31.34-4.63.51-6.94s.57-4.6.86-6.9Z" style="fill:#fab317"/><path d="M87.44,237.67a118.12,118.12,0,0,0-2.29,22.91l-24.55,0a142.12,142.12,0,0,1,2.76-27.67Z" style="fill:none;stroke:#fff;stroke-miterlimit:10;stroke-width:0.5px"/><path d="M94.12,215.71a117.34,117.34,0,0,0-6.69,22l-24.08-4.79a141.36,141.36,0,0,1,8.1-26.63Z" style="fill:#1a1a1a"/><path d="M87.15,225.61q-2.76,1.44-5.57,3c-1.88,1.07-3.63,2.22-5.47,3.4-1.1-1.85-2.27-3.77-3.28-5.71s-2-3.94-3-6c1.9-1.17,3.92-2.25,5.85-3.29l2.9-1.53c1-.49,2-1,3-1.41.42,1,.83,2,1.27,3l1.4,2.92C85.19,221.92,86.1,223.77,87.15,225.61Z" style="fill:#fab317"/><path d="M94.12,215.71a117.34,117.34,0,0,0-6.69,22l-24.08-4.79a141.36,141.36,0,0,1,8.1-26.63Z" style="fill:none;stroke:#fff;stroke-miterlimit:10;stroke-width:0.5px"/><path d="M119.6,177.64A118.78,118.78,0,0,0,105,195.44l-20.4-13.67a143.23,143.23,0,0,1,17.65-21.49Z" style="fill:#1a1a1a"/><path d="M109.37,184.13a123.14,123.14,0,0,0-12.66,1.73,128.07,128.07,0,0,1-1.32-13.22,131.72,131.72,0,0,1,13.22-1.26A120.62,120.62,0,0,0,109.37,184.13Z" style="fill:#fab317"/><path d="M119.6,177.64A118.78,118.78,0,0,0,105,195.44l-20.4-13.67a143.23,143.23,0,0,1,17.65-21.49Z" style="fill:none;stroke:#fff;stroke-miterlimit:10;stroke-width:0.5px"/><path d="M105,195.44a117,117,0,0,0-10.87,20.28L71.45,206.3a141.31,141.31,0,0,1,13.14-24.52Z" style="fill:#1a1a1a"/><path d="M97,197.06c-1,1.83-2.13,3.63-3.12,5.48s-2,3.72-2.83,5.63l-11.57-5.46c1-2.11,2.09-4.14,3.13-6.22s2.29-4,3.43-6.05Z" style="fill:#fab317"/><path d="M105,195.44a117,117,0,0,0-10.87,20.28L71.45,206.3a141.31,141.31,0,0,1,13.14-24.52Z" style="fill:none;stroke:#fff;stroke-miterlimit:10;stroke-width:0.5px"/><path d="M137.39,163a118.66,118.66,0,0,0-17.79,14.62l-17.36-17.37a142.06,142.06,0,0,1,21.49-17.64Z" style="fill:#1a1a1a"/><path d="M129.39,161.49c-1.69,1.25-3.32,2.59-5,3.87l-4.77,4.13L111,160c1.75-1.53,3.49-3.05,5.26-4.55s3.63-2.89,5.49-4.28Z" style="fill:#fab317"/><path d="M137.39,163a118.66,118.66,0,0,0-17.79,14.62l-17.36-17.37a142.06,142.06,0,0,1,21.49-17.64Z" style="fill:none;stroke:#fff;stroke-miterlimit:10;stroke-width:0.5px"/><path d="M157.64,152.18a118.4,118.4,0,0,0-20.28,10.87l-13.67-20.39a141.94,141.94,0,0,1,24.51-13.15Z" style="fill:#1a1a1a"/><path d="M145.71,154.27c-2-.65-4-1.19-6.08-1.75-1-.27-2.09-.55-3.14-.8l-3.15-.67.8-3.2c.29-1,.6-2.09.92-3.14.65-2.1,1.32-4.28,2.09-6.38,2.2.56,4.35,1.16,6.46,1.77s4.21,1.37,6.25,2.09c-.81,2-1.59,4-2.26,6S146.29,152.28,145.71,154.27Z" style="fill:#fab317"/><path d="M157.64,152.18a118.4,118.4,0,0,0-20.28,10.87l-13.67-20.39a141.94,141.94,0,0,1,24.51-13.15Z" style="fill:none;stroke:#fff;stroke-miterlimit:10;stroke-width:0.5px"/><path d="M202.54,143.2a117.34,117.34,0,0,0-22.91,2.28l-4.81-24.08a143.06,143.06,0,0,1,27.67-2.76Z" style="fill:#1a1a1a"/><path d="M190.7,140.57c-1.59-1.35-3.24-2.64-4.94-3.95-.85-.65-1.71-1.31-2.59-1.94l-2.65-1.83,2-2.65c.67-.86,1.36-1.69,2.06-2.55,1.4-1.69,2.85-3.42,4.37-5.09A127.93,127.93,0,0,1,199.17,131,121.26,121.26,0,0,0,190.7,140.57Z" style="fill:#fab317"/><path d="M202.54,143.2a117.34,117.34,0,0,0-22.91,2.28l-4.81-24.08a143.06,143.06,0,0,1,27.67-2.76Z" style="fill:none;stroke:#fff;stroke-miterlimit:10;stroke-width:0.5px"/><path d="M179.62,145.48a117.37,117.37,0,0,0-22,6.7l-9.43-22.67a141.39,141.39,0,0,1,26.63-8.11Z" style="fill:#1a1a1a"/><path d="M172.82,141c-2,.48-4,1.13-6.08,1.68s-4,1.33-6,2l-4.35-12c2.2-.73,4.38-1.53,6.61-2.19s4.45-1.32,6.71-1.86Z" style="fill:#fab317"/><path d="M179.62,145.48a117.37,117.37,0,0,0-22,6.7l-9.43-22.67a141.39,141.39,0,0,1,26.63-8.11Z" style="fill:none;stroke:#fff;stroke-miterlimit:10;stroke-width:0.5px"/><path d="M225.93,145.48A117.44,117.44,0,0,0,203,143.2l.05-24.56a143,143,0,0,1,27.67,2.76Z" style="fill:#1a1a1a"/><path d="M221.37,138.71l-6.26-.78c-2.09-.15-4.19-.34-6.29-.46l.62-12.79c2.31.14,4.62.34,6.93.51s4.61.58,6.91.87Z" style="fill:#fab317"/><path d="M225.93,145.48A117.44,117.44,0,0,0,203,143.2l.05-24.56a143,143,0,0,1,27.67,2.76Z" style="fill:none;stroke:#fff;stroke-miterlimit:10;stroke-width:0.5px"/><path d="M247.89,152.17a117.37,117.37,0,0,0-22-6.7l4.79-24.08a142.32,142.32,0,0,1,26.63,8.1Z" style="fill:#1a1a1a"/><path d="M238,145.19c-1-1.84-2-3.69-3-5.57s-2.21-3.63-3.4-5.47c1.85-1.1,3.78-2.27,5.72-3.27s3.94-2,6-3c1.17,1.89,2.24,3.91,3.29,5.84l1.53,2.9c.48,1,.95,2,1.4,3-1,.42-2,.83-3,1.27l-2.91,1.4C241.68,143.23,239.83,144.14,238,145.19Z" style="fill:#fab317"/><path d="M247.89,152.17a117.37,117.37,0,0,0-22-6.7l4.79-24.08a142.32,142.32,0,0,1,26.63,8.1Z" style="fill:none;stroke:#fff;stroke-miterlimit:10;stroke-width:0.5px"/><path d="M286,177.65A117.66,117.66,0,0,0,268.16,163l13.67-20.39a143.05,143.05,0,0,1,21.49,17.64Z" style="fill:#1a1a1a"/><path d="M279.46,167.41a120.8,120.8,0,0,0-1.73-12.66A128.35,128.35,0,0,1,291,153.43a126.29,126.29,0,0,1,1.26,13.23A121,121,0,0,0,279.46,167.41Z" style="fill:#fab317"/><path d="M286,177.65A117.66,117.66,0,0,0,268.16,163l13.67-20.39a143.05,143.05,0,0,1,21.49,17.64Z" style="fill:none;stroke:#fff;stroke-miterlimit:10;stroke-width:0.5px"/><path d="M268.15,163a117,117,0,0,0-20.28-10.87l9.43-22.67a141.67,141.67,0,0,1,24.52,13.14Z" style="fill:#1a1a1a"/><path d="M266.54,155c-1.83-1-3.63-2.12-5.48-3.11s-3.72-2-5.64-2.84l5.47-11.57c2.11,1,4.14,2.09,6.21,3.13s4,2.29,6.06,3.44Z" style="fill:#fab317"/><path d="M268.15,163a117,117,0,0,0-20.28-10.87l9.43-22.67a141.67,141.67,0,0,1,24.52,13.14Z" style="fill:none;stroke:#fff;stroke-miterlimit:10;stroke-width:0.5px"/><path d="M300.56,195.44A117.57,117.57,0,0,0,286,177.64l17.36-17.36A143.23,143.23,0,0,1,321,181.77Z" style="fill:#1a1a1a"/><path d="M302.11,187.43c-1.25-1.69-2.59-3.31-3.88-5l-4.12-4.77,9.46-8.62c1.52,1.75,3.05,3.5,4.55,5.27s2.89,3.62,4.27,5.49Z" style="fill:#fab317"/><path d="M300.56,195.44A117.57,117.57,0,0,0,286,177.64l17.36-17.36A143.23,143.23,0,0,1,321,181.77Z" style="fill:none;stroke:#fff;stroke-miterlimit:10;stroke-width:0.5px"/><path d="M311.42,215.68a117.75,117.75,0,0,0-10.88-20.28l20.39-13.67a142.08,142.08,0,0,1,13.16,24.52Z" style="fill:#1a1a1a"/><path d="M309.32,203.75c.66-2,1.2-4,1.76-6.08.27-1,.55-2.08.8-3.14l.66-3.15,3.2.8c1.05.29,2.09.61,3.15.93,2.1.64,4.27,1.31,6.38,2.08-.57,2.2-1.16,4.36-1.78,6.46s-1.37,4.22-2.08,6.25c-2-.8-4-1.59-6-2.26S311.31,204.33,309.32,203.75Z" style="fill:#fab317"/><path d="M311.42,215.68a117.75,117.75,0,0,0-10.88-20.28l20.39-13.67a142.08,142.08,0,0,1,13.16,24.52Z" style="fill:none;stroke:#fff;stroke-miterlimit:10;stroke-width:0.5px"/><path d="M320.4,260.58a117.34,117.34,0,0,0-2.28-22.91l24.07-4.8A141.35,141.35,0,0,1,345,260.54Z" style="fill:#1a1a1a"/><path d="M323,248.75c1.35-1.6,2.64-3.24,4-4.94.65-.85,1.31-1.72,1.94-2.59l1.82-2.66,2.65,2c.86.67,1.7,1.36,2.55,2.06,1.69,1.4,3.42,2.86,5.1,4.37a127.93,127.93,0,0,1-8.45,10.25A121.11,121.11,0,0,0,323,248.75Z" style="fill:#fab317"/><path d="M320.4,260.58a117.34,117.34,0,0,0-2.28-22.91l24.07-4.8A141.35,141.35,0,0,1,345,260.54Z" style="fill:none;stroke:#fff;stroke-miterlimit:10;stroke-width:0.5px"/><path d="M318.11,237.66a116.53,116.53,0,0,0-6.7-22l22.67-9.44a141.61,141.61,0,0,1,8.11,26.63Z" style="fill:#1a1a1a"/><path d="M322.61,230.86c-.49-2-1.13-4.05-1.68-6.07s-1.33-4-2-6l12-4.35c.73,2.2,1.52,4.39,2.19,6.61s1.32,4.45,1.85,6.71Z" style="fill:#fab317"/><path d="M318.11,237.66a116.53,116.53,0,0,0-6.7-22l22.67-9.44a141.61,141.61,0,0,1,8.11,26.63Z" style="fill:none;stroke:#fff;stroke-miterlimit:10;stroke-width:0.5px"/><path d="M202.78,121.08A139.74,139.74,0,1,0,342.51,260.82,139.74,139.74,0,0,0,202.78,121.08Zm0,258.6A118.86,118.86,0,1,1,321.64,260.82,118.86,118.86,0,0,1,202.78,379.68Z" style="fill:none;stroke:#fff;stroke-miterlimit:10"/><path d="M360.76,275l-13.08-1.16c.14-2.09.36-4.18.45-6.28l.15-6.3,13.13,0" style="fill:none;stroke:#fff;stroke-miterlimit:10"/><path d="M347.68,273.87,360.76,275c-.12,2.29-.5,4.55-.76,6.82-.15,1.14-.28,2.27-.45,3.4l-.6,3.38L346,286.35" style="fill:none;stroke:#fff;stroke-miterlimit:10"/><path d="M356,302l-12.68-3.4.43-1.51.35-1.53.71-3.07c.51-2,.86-4.11,1.22-6.17L359,288.61" style="fill:none;stroke:#fff;stroke-miterlimit:10"/><path d="M343.31,298.6,356,302c-.63,2.2-1.22,4.42-1.9,6.6l-2.2,6.5-12.34-4.49" style="fill:none;stroke:#fff;stroke-miterlimit:10"/><path d="M346.61,327.75l-11.89-5.54c.84-1.92,1.78-3.8,2.54-5.76l2.3-5.86,12.33,4.49" style="fill:none;stroke:#fff;stroke-miterlimit:10"/><path d="M334.72,322.2l11.9,5.54c-.9,2.11-2,4.11-3,6.16-.53,1-1,2.05-1.59,3l-1.71,3-11.37-6.56" style="fill:none;stroke:#fff;stroke-miterlimit:10"/><path d="M332.94,351.48,322.17,344c1.26-1.69,2.35-3.48,3.49-5.24.56-.89,1.14-1.76,1.69-2.66l1.57-2.73,11.37,6.56" style="fill:none;stroke:#fff;stroke-miterlimit:10"/><path d="M322.18,344,333,351.47c-2.6,3.77-5.42,7.38-8.32,10.92L314.55,354" style="fill:none;stroke:#fff;stroke-miterlimit:10"/><path d="M314.66,373.28,305.4,364c1.48-1.5,2.91-3,4.36-4.55s2.77-3.16,4.16-4.73l10,8.48" style="fill:none;stroke:#fff;stroke-miterlimit:10"/><path d="M305.41,364l9.26,9.3-5,4.74c-1.71,1.52-3.46,3-5.18,4.51l-8.43-10.07" style="fill:none;stroke:#fff;stroke-miterlimit:10"/><path d="M293.65,390.83l-7.53-10.75c3.46-2.38,6.76-5,10-7.65l8.43,10.07" style="fill:none;stroke:#fff;stroke-miterlimit:10"/><path d="M286.13,380.07l7.53,10.76c-1.85,1.36-3.78,2.58-5.71,3.81l-2.89,1.85-3,1.71-6.57-11.36" style="fill:none;stroke:#fff;stroke-miterlimit:10"/><path d="M269.94,404.55l-5.56-11.89,1.43-.64,1.4-.72,2.81-1.44c1.89-.91,3.69-2,5.51-3l6.57,11.36" style="fill:none;stroke:#fff;stroke-miterlimit:10"/><path d="M264.39,392.66,270,404.55c-2.09.92-4.15,1.92-6.27,2.78l-6.39,2.52-4.51-12.33" style="fill:none;stroke:#fff;stroke-miterlimit:10"/><path d="M244.22,414l-3.42-12.67c2-.59,4-1.11,6-1.76l6-2,4.51,12.32" style="fill:none;stroke:#fff;stroke-miterlimit:10"/><path d="M165.23,401.42l-3.38,12.69c-2.2-.63-4.41-1.23-6.6-1.89l-6.5-2.21,4.47-12.34" style="fill:none;stroke:#fff;stroke-miterlimit:10"/><path d="M136.09,404.77l5.52-11.91,2.87,1.3c1,.44,1.91.87,2.89,1.23,2,.76,3.9,1.57,5.87,2.29L148.77,410" style="fill:none;stroke:#fff;stroke-miterlimit:10"/><path d="M141.62,392.86l-5.52,11.91c-2.11-.9-4.12-2-6.16-3-1-.52-2-1-3-1.57l-3-1.71,6.54-11.39" style="fill:none;stroke:#fff;stroke-miterlimit:10"/><path d="M111.46,390.52,119,379.79c.86.6,1.7,1.22,2.57,1.82l2.65,1.69,2.65,1.7c.88.57,1.81,1.06,2.72,1.59L123,397.93" style="fill:none;stroke:#fff;stroke-miterlimit:10"/><path d="M119,379.8l-7.57,10.72c-1.86-1.33-3.75-2.62-5.52-4.07l-2.7-2.12-1.35-1.06-1.3-1.12,8.46-10" style="fill:none;stroke:#fff;stroke-miterlimit:10"/><path d="M90.5,372.9l9.29-9.27,4.55,4.35c1.54,1.43,3.17,2.76,4.74,4.15l-8.46,10" style="fill:none;stroke:#fff;stroke-miterlimit:10"/><path d="M99.8,363.63l-9.29,9.28-4.74-5c-1.54-1.69-3-3.44-4.51-5.17l10-8.44" style="fill:none;stroke:#fff;stroke-miterlimit:10"/><path d="M72.92,351.91l10.74-7.55c2.38,3.46,5,6.75,7.66,10l-10,8.44" style="fill:none;stroke:#fff;stroke-miterlimit:10"/><path d="M83.67,344.37l-10.74,7.55c-.66-.94-1.35-1.86-2-2.81l-1.86-2.89-1.85-2.89c-.59-1-1.15-2-1.72-3l11.35-6.59" style="fill:none;stroke:#fff;stroke-miterlimit:10"/><path d="M59.15,328.23,71,322.65c.42,1,.89,1.9,1.38,2.83l1.43,2.8c.92,1.89,2,3.68,3,5.51l-11.35,6.59" style="fill:none;stroke:#fff;stroke-miterlimit:10"/><path d="M71,322.66l-11.88,5.58c-.93-2.09-1.91-4.16-2.8-6.27l-2.52-6.39,12.32-4.53" style="fill:none;stroke:#fff;stroke-miterlimit:10"/><polyline points="49.41 301.49 62.1 298.13 63.83 304.19 65.85 310.15 53.5 314.6" style="fill:none;stroke:#fff;stroke-miterlimit:10"/><path d="M62.11,298.14,49.42,301.5c-1.12-4.44-2.18-8.9-2.91-13.42l12.94-2.24" style="fill:none;stroke:#fff;stroke-miterlimit:10"/><path d="M44.75,274.5l13.08-1.12c.12,2.1.42,4.18.68,6.26l.4,3.12c.16,1,.36,2.07.54,3.1l-12.94,2.25" style="fill:none;stroke:#fff;stroke-miterlimit:10"/><path d="M57.83,273.39l-13.08,1.12-.26-3.42c-.08-1.14-.18-2.28-.19-3.42l-.17-6.86H57.26" style="fill:none;stroke:#fff;stroke-miterlimit:10"/><path d="M44.75,247.13l13.08,1.12-.24,3.14c-.08,1-.17,2.09-.17,3.14l-.16,6.3H44.13" style="fill:none;stroke:#fff;stroke-miterlimit:10"/><path d="M57.83,248.26l-13.08-1.12c.13-2.29.45-4.55.74-6.82l.43-3.41c.18-1.13.4-2.25.59-3.38l12.94,2.25" style="fill:none;stroke:#fff;stroke-miterlimit:10"/><path d="M49.42,220.14l12.69,3.36c-1,4.07-2,8.15-2.66,12.3l-12.94-2.25" style="fill:none;stroke:#fff;stroke-miterlimit:10"/><polyline points="62.1 223.51 49.41 220.15 51.3 213.55 53.5 207.04 65.85 211.49" style="fill:none;stroke:#fff;stroke-miterlimit:10"/><path d="M59.16,193.4,71,199c-.85,1.92-1.76,3.82-2.57,5.75l-2.31,5.86-12.32-4.53" style="fill:none;stroke:#fff;stroke-miterlimit:10"/><path d="M71,199l-11.88-5.58c.46-1,1-2.07,1.5-3.09l1.57-3c1-2.06,2.19-4,3.32-6l11.35,6.59" style="fill:none;stroke:#fff;stroke-miterlimit:10"/><path d="M72.93,169.72l10.74,7.55c-.6.86-1.24,1.7-1.81,2.58l-1.7,2.65-1.7,2.65c-.54.9-1,1.82-1.58,2.72l-11.35-6.59" style="fill:none;stroke:#fff;stroke-miterlimit:10"/><path d="M83.66,177.28l-10.74-7.55c2.6-3.76,5.44-7.36,8.35-10.88l10,8.44" style="fill:none;stroke:#fff;stroke-miterlimit:10"/><path d="M90.51,148.73,99.8,158l-4.35,4.56c-1.41,1.55-2.76,3.16-4.14,4.74l-10-8.44" style="fill:none;stroke:#fff;stroke-miterlimit:10"/><path d="M99.79,158l-9.29-9.27,5-4.74c1.67-1.56,3.44-3,5.16-4.53l8.46,10" style="fill:none;stroke:#fff;stroke-miterlimit:10"/><path d="M111.47,131.12,119,141.84c-1.71,1.23-3.45,2.4-5.07,3.74l-2.48,1.94-1.24,1-1.19,1-8.46-10" style="fill:none;stroke:#fff;stroke-miterlimit:10"/><path d="M119,141.85l-7.57-10.73c.94-.66,1.86-1.33,2.81-2l2.88-1.85,2.89-1.85c1-.62,2-1.15,3-1.74l6.61,11.35" style="fill:none;stroke:#fff;stroke-miterlimit:10"/><path d="M136.1,116.87l5.52,11.9c-1.93.83-3.77,1.84-5.65,2.78-.93.49-1.87.95-2.79,1.45l-2.73,1.57-6.54-11.39" style="fill:none;stroke:#fff;stroke-miterlimit:10"/><path d="M141.61,128.78l-5.52-11.91,3.12-1.41c1-.48,2.09-.95,3.16-1.35,2.13-.83,4.25-1.71,6.4-2.49L153.24,124" style="fill:none;stroke:#fff;stroke-miterlimit:10"/><path d="M161.85,107.53l3.38,12.69c-2,.58-4,1.13-6,1.73l-6,2-4.47-12.35" style="fill:none;stroke:#fff;stroke-miterlimit:10"/><path d="M165.22,120.22l-3.38-12.69c1.1-.33,2.21-.58,3.33-.83l3.34-.78c2.22-.56,4.49-.91,6.74-1.32l2.26,12.93" style="fill:none;stroke:#fff;stroke-miterlimit:10"/><path d="M188.83,102.82,190,115.89c-2.1.11-4.17.44-6.26.69l-3.12.4-3.1.56-2.26-12.94" style="fill:none;stroke:#fff;stroke-miterlimit:10"/><path d="M190,115.9l-1.14-13.08c2.28-.15,4.56-.4,6.84-.47l6.86-.17,0,13.13" style="fill:none;stroke:#fff;stroke-miterlimit:10"/><polyline points="216.2 102.78 215.1 115.86 211.96 115.62 210.39 115.5 208.82 115.45 202.52 115.31 202.5 102.18" style="fill:none;stroke:#fff;stroke-miterlimit:10"/><path d="M215.09,115.86l1.1-13.08c1.14.1,2.28.14,3.42.29l3.4.43,3.41.43c1.13.15,2.25.39,3.38.58l-2.22,12.94" style="fill:none;stroke:#fff;stroke-miterlimit:10"/><path d="M244.23,107.68l-3.42,12.67c-2-.62-4.08-1-6.12-1.5-1-.22-2-.49-3.07-.68l-3.1-.55,2.31-12.93" style="fill:none;stroke:#fff;stroke-miterlimit:10"/><path d="M240.8,120.35l3.42-12.67c2.19.64,4.41,1.2,6.59,1.91l6.5,2.21-4.51,12.32" style="fill:none;stroke:#fff;stroke-miterlimit:10"/><path d="M270,117.09,264.39,129c-1.92-.84-3.81-1.77-5.75-2.55l-5.86-2.31,4.51-12.33" style="fill:none;stroke:#fff;stroke-miterlimit:10"/><path d="M264.38,129l5.56-11.89,1.57.71,1.53.77,3,1.57c2.06,1,4,2.17,6,3.31l-6.57,11.36" style="fill:none;stroke:#fff;stroke-miterlimit:10"/><path d="M293.66,130.81l-7.53,10.76c-1.69-1.26-3.47-2.37-5.24-3.5l-2.65-1.7-2.73-1.57,6.57-11.36" style="fill:none;stroke:#fff;stroke-miterlimit:10"/><path d="M286.12,141.56l7.53-10.75c3.76,2.59,7.36,5.42,10.9,8.33l-8.43,10.06" style="fill:none;stroke:#fff;stroke-miterlimit:10"/><path d="M314.67,148.37l-9.26,9.3-4.56-4.34c-1.56-1.4-3.17-2.76-4.75-4.14l8.43-10.07" style="fill:none;stroke:#fff;stroke-miterlimit:10"/><path d="M305.4,157.66l9.26-9.3c1.61,1.63,3.17,3.3,4.75,4.95s3,3.44,4.54,5.15l-10,8.48" style="fill:none;stroke:#fff;stroke-miterlimit:10"/><path d="M333,170.17l-10.77,7.51c-2.38-3.46-5-6.77-7.63-10l10.08-8.41" style="fill:none;stroke:#fff;stroke-miterlimit:10"/><path d="M322.17,177.67l10.77-7.51c1.36,1.84,2.56,3.79,3.8,5.71.61,1,1.24,1.92,1.84,2.9l1.71,3-11.37,6.56" style="fill:none;stroke:#fff;stroke-miterlimit:10"/><path d="M346.62,193.9l-11.9,5.54c-.82-1.93-1.85-3.76-2.79-5.64-.49-.93-.93-1.88-1.45-2.79l-1.57-2.73,11.37-6.56" style="fill:none;stroke:#fff;stroke-miterlimit:10"/><path d="M334.72,199.43l11.89-5.54c.93,2.09,1.94,4.14,2.78,6.27s1.69,4.26,2.5,6.4l-12.33,4.49" style="fill:none;stroke:#fff;stroke-miterlimit:10"/><path d="M356,219.64,343.31,223c-.58-2-1.11-4-1.74-6l-2-6,12.34-4.49" style="fill:none;stroke:#fff;stroke-miterlimit:10"/><path d="M343.31,223,356,219.62l.46,1.66.39,1.67.77,3.35c.56,2.22.94,4.47,1.34,6.73L346,235.31" style="fill:none;stroke:#fff;stroke-miterlimit:10"/><path d="M360.76,246.61l-13.08,1.16c-.1-2.1-.46-4.17-.7-6.26-.14-1-.25-2.08-.41-3.12l-.55-3.1L359,233" style="fill:none;stroke:#fff;stroke-miterlimit:10"/><path d="M347.68,247.76l13.08-1.17c.16,2.29.38,4.57.48,6.85l.17,6.86-13.13,0" style="fill:none;stroke:#fff;stroke-miterlimit:10"/><circle cx="202.78" cy="260.82" r="166.35" style="fill:none;stroke:#fab317;stroke-miterlimit:10;stroke-width:2px"/></g><path d="M236.77,206.49a17.84,17.84,0,0,0-28.35,14.39,17.51,17.51,0,0,0,.68,4.89Z" style="fill:#fff"/><path d="M169,206.49a17.84,17.84,0,0,1,27.68,19.28Z" style="fill:#fff"/><path d="M248.5,191v76.63a10,10,0,0,1-10,10H166.84a10,10,0,0,1-10-10V191" style="fill:none;stroke:#fff;stroke-miterlimit:10"/><path d="M200.32,217.19a20.81,20.81,0,0,0-7.27-15.64,20.44,20.44,0,0,0-12.49-5v0H157.3" style="fill:none;stroke:#fff;stroke-miterlimit:10"/><path d="M205.5,217.14a20.65,20.65,0,0,1,7.11-15.62,20.44,20.44,0,0,1,12.5-5v0h23.26" style="fill:none;stroke:#fff;stroke-miterlimit:10"/><rect x="156.84" y="185.63" width="91.67" height="5.92" style="fill:none;stroke:#fff;stroke-miterlimit:10"/><polyline points="181.01 241.22 156.85 241.22 156.85 200.21 181.01 200.21" style="fill:none;stroke:#fff;stroke-miterlimit:10"/><ellipse cx="180.1" cy="220.72" rx="20.52" ry="20.5" style="fill:none;stroke:#fff;stroke-miterlimit:10"/><ellipse cx="179.64" cy="220.72" rx="17.79" ry="17.77" style="fill:none;stroke:#fff;stroke-miterlimit:10"/><polyline points="224.8 241.22 248.51 241.22 248.51 200.21 224.8 200.21" style="fill:none;stroke:#fff;stroke-miterlimit:10"/><ellipse cx="225.71" cy="220.72" rx="20.52" ry="20.5" style="fill:none;stroke:#fff;stroke-miterlimit:10"/><ellipse cx="226.16" cy="220.72" rx="17.79" ry="17.77" style="fill:none;stroke:#fff;stroke-miterlimit:10"/><path d="M180.65,218.07a2.65,2.65,0,1,1-2.65,2.65,2.65,2.65,0,0,1,2.65-2.65m0-1a3.65,3.65,0,1,0,3.65,3.65,3.64,3.64,0,0,0-3.65-3.65Z" style="fill:#fff"/><path d="M225.34,218.07a2.65,2.65,0,1,1-2.64,2.65,2.65,2.65,0,0,1,2.64-2.65m0-1a3.65,3.65,0,1,0,3.65,3.65,3.64,3.64,0,0,0-3.65-3.65Z" style="fill:#fff"/><path d="M161.86,220.72a17.79,17.79,0,0,1,35.57,0" style="fill:none;stroke:#fff;stroke-miterlimit:10"/><path d="M208.39,220.67a17.79,17.79,0,0,1,35.58,0" style="fill:none;stroke:#fff;stroke-miterlimit:10"/><path d="M169,206.49a17.84,17.84,0,0,1,27.68,19.28Z" style="fill:none;stroke:#fff;stroke-miterlimit:10"/><path d="M236.77,206.49a17.84,17.84,0,0,0-28.35,14.39,17.51,17.51,0,0,0,.68,4.89Z" style="fill:none;stroke:#fff;stroke-miterlimit:10"/><rect x="156.83" y="185.66" width="6.13" height="5.88" style="fill:none;stroke:#fff;stroke-miterlimit:10"/><rect x="169.05" y="185.66" width="6.13" height="5.88" style="fill:none;stroke:#fff;stroke-miterlimit:10"/><rect x="181.27" y="185.66" width="6.13" height="5.88" style="fill:none;stroke:#fff;stroke-miterlimit:10"/><rect x="193.49" y="185.66" width="6.13" height="5.88" style="fill:none;stroke:#fff;stroke-miterlimit:10"/><rect x="205.71" y="185.66" width="6.13" height="5.88" style="fill:none;stroke:#fff;stroke-miterlimit:10"/><rect x="217.93" y="185.66" width="6.13" height="5.88" style="fill:none;stroke:#fff;stroke-miterlimit:10"/><rect x="230.15" y="185.66" width="6.13" height="5.88" style="fill:none;stroke:#fff;stroke-miterlimit:10"/><rect x="242.37" y="185.66" width="6.13" height="5.88" style="fill:none;stroke:#fff;stroke-miterlimit:10"/><polygon points="210.14 247.07 202.64 241.32 195.09 247.07 180.29 247.07 202.68 264.65 224.93 247.07 210.14 247.07" style="fill:#f8b318;stroke:#fff;stroke-miterlimit:10"/><path d="M260.08,228.25a16.63,16.63,0,0,1,2.24.15h22.1c3.05,0,5.54,2,5.54,4.43s-2.49,4.44-5.54,4.44h-.66a4.42,4.42,0,0,1,2.88,3.88c0,2.44-2.5,4.44-5.55,4.44h-1.21a4.42,4.42,0,0,1,2.88,3.88c0,2.44-2.5,4.44-5.55,4.44h-1.66a17.49,17.49,0,1,1-15.47-25.66Z" style="fill:#1a1a1a"/><path d="M145.47,227.62a18.15,18.15,0,0,0-2.23.15H121.13c-3,0-5.54,2-5.54,4.44s2.49,4.43,5.54,4.43h.66a4.42,4.42,0,0,0-2.87,3.89c0,2.44,2.49,4.43,5.54,4.43h1.21a4.42,4.42,0,0,0-2.87,3.88c0,2.44,2.49,4.44,5.54,4.44H130a17.5,17.5,0,1,0,15.47-25.66Z" style="fill:#1a1a1a"/><path d="M145.47,227.62a18.15,18.15,0,0,0-2.23.15H121.13c-3,0-5.54,2-5.54,4.44s2.49,4.43,5.54,4.43h.66a4.42,4.42,0,0,0-2.87,3.89c0,2.44,2.49,4.43,5.54,4.43h1.21a4.42,4.42,0,0,0-2.87,3.88c0,2.44,2.49,4.44,5.54,4.44H130a17.5,17.5,0,1,0,15.47-25.66Z" style="fill:none;stroke:#fff;stroke-miterlimit:10"/><ellipse cx="145.58" cy="245.11" rx="8.47" ry="8.46" style="fill:none;stroke:#fff;stroke-miterlimit:10"/><circle cx="145.58" cy="245.11" r="3.59" style="fill:#f8b318;stroke:#fff;stroke-miterlimit:10"/><path d="M260.08,228.25a16.63,16.63,0,0,1,2.24.15h22.1c3.05,0,5.54,2,5.54,4.43s-2.49,4.44-5.54,4.44h-.66a4.42,4.42,0,0,1,2.88,3.88c0,2.44-2.5,4.44-5.55,4.44h-1.21a4.42,4.42,0,0,1,2.88,3.88c0,2.44-2.5,4.44-5.55,4.44h-1.66a17.49,17.49,0,1,1-15.47-25.66Z" style="fill:none;stroke:#fff;stroke-miterlimit:10"/><ellipse cx="259.97" cy="245.73" rx="8.47" ry="8.46" style="fill:none;stroke:#fff;stroke-miterlimit:10"/><circle cx="259.97" cy="245.73" r="3.59" style="fill:#f8b318;stroke:#fff;stroke-miterlimit:10"/></svg>