<svg id="a7406c2b-5e82-48fc-9ab5-7da37e709d65" data-name="Layer 1" xmlns="http://www.w3.org/2000/svg" xmlns:xlink="http://www.w3.org/1999/xlink" viewBox="0 0 400 400"><defs><clipPath id="a3fca8d0-da3a-4acf-9e75-8e5535c67e6a"><path d="M200.4,98.87A105.15,105.15,0,1,0,305.54,204,105.14,105.14,0,0,0,200.4,98.87Zm0,197A91.87,91.87,0,1,1,292.27,204,91.87,91.87,0,0,1,200.4,295.88Z" style="fill:none"/></clipPath></defs><rect x="72.31" y="75.93" width="256.17" height="256.17" transform="translate(202.96 -81.95) rotate(45)" style="fill:none;stroke:#fab317;stroke-miterlimit:10;stroke-width:2px"/><circle cx="200.4" cy="204.01" r="165.74" style="fill:#1a1a1a"/><rect x="72.31" y="75.93" width="256.17" height="256.17" transform="translate(404.41 3.61) rotate(90)" style="fill:none;stroke:#fab317;stroke-miterlimit:10;stroke-width:2px"/><circle cx="200.4" cy="204.01" r="165.74" style="fill:#1a1a1a"/><rect x="72.31" y="75.93" width="256.17" height="256.17" transform="translate(311.31 -59.58) rotate(67.31)" style="fill:none;stroke:#fab317;stroke-miterlimit:10;stroke-width:2px"/><circle cx="200.4" cy="204.01" r="165.74" style="fill:#1a1a1a"/><rect x="72.31" y="75.93" width="256.17" height="256.17" transform="translate(465.21 96.05) rotate(112.31)" style="fill:none;stroke:#fab317;stroke-miterlimit:10;stroke-width:2px"/><circle cx="200.4" cy="204.01" r="165.74" style="fill:#1a1a1a"/><g style="clip-path:url(#a3fca8d0-da3a-4acf-9e75-8e5535c67e6a)"><circle cx="200.4" cy="204.01" r="108.65" style="fill:none;stroke:#fff;stroke-miterlimit:10"/><line x1="200.4" y1="204.01" x2="200.4" y2="312.67" style="fill:none;stroke:#fff;stroke-miterlimit:10"/><line x1="200.4" y1="204.01" x2="217.4" y2="311.33" style="fill:none;stroke:#fff;stroke-miterlimit:10"/><line x1="200.4" y1="204.01" x2="233.98" y2="307.35" style="fill:none;stroke:#fff;stroke-miterlimit:10"/><line x1="200.4" y1="204.01" x2="249.73" y2="300.82" style="fill:none;stroke:#fff;stroke-miterlimit:10"/><line x1="200.4" y1="204.01" x2="264.26" y2="291.92" style="fill:none;stroke:#fff;stroke-miterlimit:10"/><line x1="200.4" y1="204.01" x2="277.23" y2="280.84" style="fill:none;stroke:#fff;stroke-miterlimit:10"/><line x1="200.4" y1="204.01" x2="288.3" y2="267.88" style="fill:none;stroke:#fff;stroke-miterlimit:10"/><line x1="200.4" y1="204.01" x2="297.21" y2="253.34" style="fill:none;stroke:#fff;stroke-miterlimit:10"/><line x1="200.4" y1="204.01" x2="303.74" y2="237.59" style="fill:none;stroke:#fff;stroke-miterlimit:10"/><line x1="200.4" y1="204.01" x2="307.72" y2="221.01" style="fill:none;stroke:#fff;stroke-miterlimit:10"/><line x1="200.4" y1="204.01" x2="309.05" y2="204.01" style="fill:none;stroke:#fff;stroke-miterlimit:10"/><line x1="200.4" y1="204.01" x2="307.72" y2="187.02" style="fill:none;stroke:#fff;stroke-miterlimit:10"/><line x1="200.4" y1="204.01" x2="303.74" y2="170.44" style="fill:none;stroke:#fff;stroke-miterlimit:10"/><line x1="200.4" y1="204.01" x2="297.21" y2="154.69" style="fill:none;stroke:#fff;stroke-miterlimit:10"/><line x1="200.4" y1="204.01" x2="288.3" y2="140.15" style="fill:none;stroke:#fff;stroke-miterlimit:10"/><line x1="200.4" y1="204.01" x2="277.23" y2="127.18" style="fill:none;stroke:#fff;stroke-miterlimit:10"/><line x1="200.4" y1="204.01" x2="264.26" y2="116.11" style="fill:none;stroke:#fff;stroke-miterlimit:10"/><line x1="200.4" y1="204.01" x2="249.73" y2="107.2" style="fill:none;stroke:#fff;stroke-miterlimit:10"/><line x1="200.4" y1="204.01" x2="233.98" y2="100.68" style="fill:none;stroke:#fff;stroke-miterlimit:10"/><line x1="200.4" y1="204.01" x2="217.4" y2="96.7" style="fill:none;stroke:#fff;stroke-miterlimit:10"/><line x1="200.4" y1="204.01" x2="200.4" y2="95.36" style="fill:none;stroke:#fff;stroke-miterlimit:10"/><line x1="200.4" y1="204.01" x2="183.4" y2="96.7" style="fill:none;stroke:#fff;stroke-miterlimit:10"/><line x1="200.4" y1="204.01" x2="166.82" y2="100.68" style="fill:none;stroke:#fff;stroke-miterlimit:10"/><line x1="200.4" y1="204.01" x2="151.07" y2="107.2" style="fill:none;stroke:#fff;stroke-miterlimit:10"/><line x1="200.4" y1="204.01" x2="136.54" y2="116.11" style="fill:none;stroke:#fff;stroke-miterlimit:10"/><line x1="200.4" y1="204.01" x2="123.57" y2="127.18" style="fill:none;stroke:#fff;stroke-miterlimit:10"/><line x1="200.4" y1="204.01" x2="112.5" y2="140.15" style="fill:none;stroke:#fff;stroke-miterlimit:10"/><line x1="200.4" y1="204.01" x2="103.59" y2="154.69" style="fill:none;stroke:#fff;stroke-miterlimit:10"/><line x1="200.4" y1="204.01" x2="97.07" y2="170.44" style="fill:none;stroke:#fff;stroke-miterlimit:10"/><line x1="200.4" y1="204.01" x2="93.09" y2="187.02" style="fill:none;stroke:#fff;stroke-miterlimit:10"/><line x1="200.4" y1="204.01" x2="91.75" y2="204.01" style="fill:none;stroke:#fff;stroke-miterlimit:10"/><line x1="200.4" y1="204.01" x2="93.09" y2="221.01" style="fill:none;stroke:#fff;stroke-miterlimit:10"/><line x1="200.4" y1="204.01" x2="97.07" y2="237.59" style="fill:none;stroke:#fff;stroke-miterlimit:10"/><line x1="200.4" y1="204.01" x2="103.59" y2="253.34" style="fill:none;stroke:#fff;stroke-miterlimit:10"/><line x1="200.4" y1="204.01" x2="112.5" y2="267.88" style="fill:none;stroke:#fff;stroke-miterlimit:10"/><line x1="200.4" y1="204.01" x2="123.57" y2="280.84" style="fill:none;stroke:#fff;stroke-miterlimit:10"/><line x1="200.4" y1="204.01" x2="136.54" y2="291.92" style="fill:none;stroke:#fff;stroke-miterlimit:10"/><line x1="200.4" y1="204.01" x2="151.07" y2="300.82" style="fill:none;stroke:#fff;stroke-miterlimit:10"/><line x1="200.4" y1="204.01" x2="166.82" y2="307.35" style="fill:none;stroke:#fff;stroke-miterlimit:10"/><line x1="200.4" y1="204.01" x2="183.4" y2="311.33" style="fill:none;stroke:#fff;stroke-miterlimit:10"/></g><circle cx="200.4" cy="204.01" r="91.87" style="fill:none;stroke:#fff;stroke-miterlimit:10"/><circle cx="200.4" cy="204.01" r="105.14" style="fill:none;stroke:#fff;stroke-miterlimit:10"/><path d="M307.26,225.46a108.64,108.64,0,0,0,2.12-21.23l24.55.05a132.8,132.8,0,0,1-2.59,26Z" style="fill:#1a1a1a"/><path d="M314,221.31l.73-5.82.43-5.86,12.78.62c-.13,2.17-.32,4.33-.48,6.5s-.53,4.31-.8,6.47Z" style="fill:#fab317"/><path d="M307.26,225.46a108.64,108.64,0,0,0,2.12-21.23l24.55.05a132.8,132.8,0,0,1-2.59,26Z" style="fill:none;stroke:#fff;stroke-miterlimit:10;stroke-width:0.5px"/><path d="M301.07,245.81a108.43,108.43,0,0,0,6.2-20.38l24.08,4.79a133.19,133.19,0,0,1-7.61,25Z" style="fill:#1a1a1a"/><path d="M307.76,236.71q2.72-1.29,5.48-2.74c1.85-1,3.58-2,5.4-3.1,1.12,1.75,2.31,3.58,3.35,5.42s2.07,3.74,3.08,5.68c-1.87,1.08-3.85,2.05-5.74,3l-2.86,1.38c-1,.44-2,.85-2.92,1.26-.44-1-.87-1.88-1.33-2.81L310.77,242C309.78,240.2,308.84,238.45,307.76,236.71Z" style="fill:#fab317"/><path d="M301.07,245.81a108.43,108.43,0,0,0,6.2-20.38l24.08,4.79a133.19,133.19,0,0,1-7.61,25Z" style="fill:none;stroke:#fff;stroke-miterlimit:10;stroke-width:0.5px"/><path d="M277.46,281.08A109.19,109.19,0,0,0,291,264.59l20.4,13.67a134.13,134.13,0,0,1-16.58,20.18Z" style="fill:#1a1a1a"/><path d="M287.13,275.21A114,114,0,0,0,299.41,274a123.31,123.31,0,0,1,1.7,12.72,122,122,0,0,1-12.81.8A116.31,116.31,0,0,0,287.13,275.21Z" style="fill:#fab317"/><path d="M277.46,281.08A109.19,109.19,0,0,0,291,264.59l20.4,13.67a134.13,134.13,0,0,1-16.58,20.18Z" style="fill:none;stroke:#fff;stroke-miterlimit:10;stroke-width:0.5px"/><path d="M291,264.58a108,108,0,0,0,10.07-18.78l22.68,9.42a133.17,133.17,0,0,1-12.35,23Z" style="fill:#1a1a1a"/><path d="M298.78,263.31c1-1.7,2-3.37,2.9-5.1s1.83-3.46,2.63-5.24l11.58,5.47c-.91,2-2,3.88-2.93,5.82s-2.15,3.78-3.22,5.67Z" style="fill:#fab317"/><path d="M291,264.58a108,108,0,0,0,10.07-18.78l22.68,9.42a133.17,133.17,0,0,1-12.35,23Z" style="fill:none;stroke:#fff;stroke-miterlimit:10;stroke-width:0.5px"/><path d="M261,294.61a109.11,109.11,0,0,0,16.48-13.54l17.37,17.37A134.26,134.26,0,0,1,274.64,315Z" style="fill:#1a1a1a"/><path d="M268.65,296.39c1.57-1.16,3.09-2.41,4.63-3.6l4.44-3.84,8.62,9.46c-1.64,1.43-3.28,2.86-4.93,4.26s-3.4,2.71-5.14,4Z" style="fill:#fab317"/><path d="M261,294.61a109.11,109.11,0,0,0,16.48-13.54l17.37,17.37A134.26,134.26,0,0,1,274.64,315Z" style="fill:none;stroke:#fff;stroke-miterlimit:10;stroke-width:0.5px"/><path d="M242.22,304.67A108.52,108.52,0,0,0,261,294.59L274.68,315a133.76,133.76,0,0,1-23,12.35Z" style="fill:#1a1a1a"/><path d="M253.39,302.94c1.91.7,3.82,1.29,5.8,1.91,1,.3,2,.6,3,.88l3,.75-.67,3.11c-.25,1-.52,2-.79,3.07-.56,2-1.14,4.17-1.81,6.22q-3.17-.92-6.19-1.91c-2-.65-4-1.46-6-2.22.71-2,1.4-3.89,2-5.9S252.9,304.88,253.39,302.94Z" style="fill:#fab317"/><path d="M242.22,304.67A108.52,108.52,0,0,0,261,294.59L274.68,315a133.76,133.76,0,0,1-23,12.35Z" style="fill:none;stroke:#fff;stroke-miterlimit:10;stroke-width:0.5px"/><path d="M200.62,313a108.71,108.71,0,0,0,21.23-2.11l4.8,24.07a132.78,132.78,0,0,1-26,2.59Z" style="fill:#1a1a1a"/><path d="M211.61,315.67c1.49,1.35,3,2.66,4.63,4,.8.66,1.61,1.32,2.44,2l2.5,1.85-1.82,2.62c-.62.86-1.25,1.69-1.9,2.54-1.3,1.68-2.65,3.39-4.06,5.05a118.28,118.28,0,0,1-9.63-8.48A117,117,0,0,0,211.61,315.67Z" style="fill:#fab317"/><path d="M200.62,313a108.71,108.71,0,0,0,21.23-2.11l4.8,24.07a132.78,132.78,0,0,1-26,2.59Z" style="fill:none;stroke:#fff;stroke-miterlimit:10;stroke-width:0.5px"/><path d="M221.86,310.87a108.11,108.11,0,0,0,20.37-6.2l9.44,22.66a132.48,132.48,0,0,1-25,7.62Z" style="fill:#1a1a1a"/><path d="M228.26,315.45c1.9-.44,3.77-1,5.65-1.55s3.71-1.24,5.56-1.85l4.36,12c-2.07.69-4.11,1.43-6.19,2.06s-4.17,1.23-6.29,1.73Z" style="fill:#fab317"/><path d="M221.86,310.87a108.11,108.11,0,0,0,20.37-6.2l9.44,22.66a132.48,132.48,0,0,1-25,7.62Z" style="fill:none;stroke:#fff;stroke-miterlimit:10;stroke-width:0.5px"/><path d="M179,310.88A108.79,108.79,0,0,0,200.18,313l-.05,24.55a132.78,132.78,0,0,1-26-2.59Z" style="fill:#1a1a1a"/><path d="M183.11,317.58l5.82.72,5.85.43-.62,12.78c-2.16-.13-4.33-.31-6.49-.47s-4.32-.54-6.47-.81Z" style="fill:#fab317"/><path d="M179,310.88A108.79,108.79,0,0,0,200.18,313l-.05,24.55a132.78,132.78,0,0,1-26-2.59Z" style="fill:none;stroke:#fff;stroke-miterlimit:10;stroke-width:0.5px"/><path d="M158.61,304.68a108.2,108.2,0,0,0,20.38,6.2L174.19,335a132.45,132.45,0,0,1-25-7.61Z" style="fill:#1a1a1a"/><path d="M167.71,311.37q1.29,2.72,2.73,5.48c1,1.86,2,3.58,3.1,5.4-1.75,1.13-3.57,2.32-5.41,3.35s-3.74,2.07-5.69,3.09c-1.07-1.87-2.05-3.85-3-5.75l-1.38-2.85c-.43-1-.85-2-1.26-2.93q1.42-.65,2.82-1.32l2.77-1.46C164.21,313.39,166,312.45,167.71,311.37Z" style="fill:#fab317"/><path d="M158.61,304.68a108.2,108.2,0,0,0,20.38,6.2L174.19,335a132.45,132.45,0,0,1-25-7.61Z" style="fill:none;stroke:#fff;stroke-miterlimit:10;stroke-width:0.5px"/><path d="M123.34,281.07a109.61,109.61,0,0,0,16.48,13.54L126.16,315A134.26,134.26,0,0,1,106,298.44Z" style="fill:#1a1a1a"/><path d="M129.2,290.74A116.57,116.57,0,0,0,130.43,303a120.63,120.63,0,0,1-12.72,1.7,119.15,119.15,0,0,1-.79-12.81A113.54,113.54,0,0,0,129.2,290.74Z" style="fill:#fab317"/><path d="M123.34,281.07a109.61,109.61,0,0,0,16.48,13.54L126.16,315A134.26,134.26,0,0,1,106,298.44Z" style="fill:none;stroke:#fff;stroke-miterlimit:10;stroke-width:0.5px"/><path d="M139.83,294.62a109.16,109.16,0,0,0,18.79,10.07l-9.42,22.67a133.89,133.89,0,0,1-23-12.34Z" style="fill:#1a1a1a"/><path d="M141.1,302.4c1.7,1,3.38,2,5.1,2.89s3.46,1.83,5.24,2.64L146,319.5c-2-.9-3.88-1.95-5.83-2.93s-3.78-2.15-5.66-3.22Z" style="fill:#fab317"/><path d="M139.83,294.62a109.16,109.16,0,0,0,18.79,10.07l-9.42,22.67a133.89,133.89,0,0,1-23-12.34Z" style="fill:none;stroke:#fff;stroke-miterlimit:10;stroke-width:0.5px"/><path d="M109.8,264.59a109.19,109.19,0,0,0,13.54,16.49L106,298.44A134.74,134.74,0,0,1,89.4,278.26Z" style="fill:#1a1a1a"/><path d="M108,272.27c1.17,1.57,2.41,3.08,3.61,4.63l3.83,4.43L106,290c-1.43-1.63-2.86-3.27-4.26-4.93s-2.71-3.4-4-5.14Z" style="fill:#fab317"/><path d="M109.8,264.59a109.19,109.19,0,0,0,13.54,16.49L106,298.44A134.74,134.74,0,0,1,89.4,278.26Z" style="fill:none;stroke:#fff;stroke-miterlimit:10;stroke-width:0.5px"/><path d="M99.74,245.84a108.75,108.75,0,0,0,10.08,18.78L89.43,278.3a133.9,133.9,0,0,1-12.36-23Z" style="fill:#1a1a1a"/><path d="M101.48,257c-.71,1.91-1.3,3.82-1.91,5.81-.3,1-.6,2-.88,3l-.75,3-3.12-.67c-1-.24-2-.51-3.07-.79-2-.55-4.16-1.13-6.22-1.81q.91-3.17,1.92-6.18c.65-2,1.46-4,2.21-6,2,.71,3.9,1.4,5.91,2S99.53,256.51,101.48,257Z" style="fill:#fab317"/><path d="M99.74,245.84a108.75,108.75,0,0,0,10.08,18.78L89.43,278.3a133.9,133.9,0,0,1-12.36-23Z" style="fill:none;stroke:#fff;stroke-miterlimit:10;stroke-width:0.5px"/><path d="M91.42,204.23a108.64,108.64,0,0,0,2.12,21.23l-24.08,4.81a132.8,132.8,0,0,1-2.59-26Z" style="fill:#1a1a1a"/><path d="M88.75,215.23c-1.36,1.49-2.66,3-4,4.62-.65.8-1.32,1.62-2,2.44L81,224.79,78.33,223c-.86-.62-1.69-1.26-2.53-1.91-1.68-1.3-3.39-2.65-5.06-4.06a122.09,122.09,0,0,1,8.49-9.63A113.45,113.45,0,0,0,88.75,215.23Z" style="fill:#fab317"/><path d="M91.42,204.23a108.64,108.64,0,0,0,2.12,21.23l-24.08,4.81a132.8,132.8,0,0,1-2.59-26Z" style="fill:none;stroke:#fff;stroke-miterlimit:10;stroke-width:0.5px"/><path d="M93.54,225.47a108.23,108.23,0,0,0,6.21,20.38l-22.67,9.43a133.22,133.22,0,0,1-7.62-25Z" style="fill:#1a1a1a"/><path d="M89,231.87c.45,1.91,1.05,3.77,1.56,5.65s1.24,3.71,1.84,5.57l-12,4.35c-.68-2.06-1.43-4.11-2-6.19S77,237.08,76.54,235Z" style="fill:#fab317"/><path d="M93.54,225.47a108.23,108.23,0,0,0,6.21,20.38l-22.67,9.43a133.22,133.22,0,0,1-7.62-25Z" style="fill:none;stroke:#fff;stroke-miterlimit:10;stroke-width:0.5px"/><path d="M93.54,182.56a108.82,108.82,0,0,0-2.12,21.24l-24.55-.05a132.8,132.8,0,0,1,2.59-26Z" style="fill:#1a1a1a"/><path d="M86.84,186.72l-.73,5.82-.43,5.85-12.78-.61c.13-2.17.32-4.34.48-6.5s.53-4.31.8-6.47Z" style="fill:#fab317"/><path d="M93.54,182.56a108.82,108.82,0,0,0-2.12,21.24l-24.55-.05a132.8,132.8,0,0,1,2.59-26Z" style="fill:none;stroke:#fff;stroke-miterlimit:10;stroke-width:0.5px"/><path d="M99.73,162.22a108.2,108.2,0,0,0-6.2,20.38l-24.08-4.79a133,133,0,0,1,7.61-25Z" style="fill:#1a1a1a"/><path d="M93,171.32q-2.72,1.29-5.48,2.74c-1.85,1-3.58,2-5.4,3.09-1.12-1.75-2.31-3.57-3.35-5.41s-2.07-3.74-3.08-5.69c1.87-1.07,3.85-2.05,5.74-3l2.86-1.37c1-.44,2-.86,2.92-1.27.44,1,.87,1.89,1.33,2.82L90,166C91,167.83,92,169.58,93,171.32Z" style="fill:#fab317"/><path d="M99.73,162.22a108.2,108.2,0,0,0-6.2,20.38l-24.08-4.79a133,133,0,0,1,7.61-25Z" style="fill:none;stroke:#fff;stroke-miterlimit:10;stroke-width:0.5px"/><path d="M123.34,127a109.19,109.19,0,0,0-13.54,16.49L89.4,129.77A133.75,133.75,0,0,1,106,109.59Z" style="fill:#1a1a1a"/><path d="M113.67,132.81A116.57,116.57,0,0,0,101.39,134a125.73,125.73,0,0,1-1.7-12.72,122,122,0,0,1,12.81-.79A116.12,116.12,0,0,0,113.67,132.81Z" style="fill:#fab317"/><path d="M123.34,127a109.19,109.19,0,0,0-13.54,16.49L89.4,129.77A133.75,133.75,0,0,1,106,109.59Z" style="fill:none;stroke:#fff;stroke-miterlimit:10;stroke-width:0.5px"/><path d="M109.8,143.44a108.47,108.47,0,0,0-10.07,18.79l-22.68-9.42a133.48,133.48,0,0,1,12.35-23Z" style="fill:#1a1a1a"/><path d="M102,144.72c-1,1.7-2,3.37-2.9,5.09s-1.82,3.46-2.63,5.24l-11.58-5.46c.91-2,2-3.88,2.93-5.82S90,140,91.06,138.1Z" style="fill:#fab317"/><path d="M109.8,143.44a108.47,108.47,0,0,0-10.07,18.79l-22.68-9.42a133.48,133.48,0,0,1,12.35-23Z" style="fill:none;stroke:#fff;stroke-miterlimit:10;stroke-width:0.5px"/><path d="M139.82,113.41A110.22,110.22,0,0,0,123.34,127L106,109.59A134.26,134.26,0,0,1,126.16,93Z" style="fill:#1a1a1a"/><path d="M132.15,111.64c-1.57,1.16-3.09,2.4-4.63,3.6l-4.44,3.84-8.62-9.46c1.64-1.43,3.28-2.86,4.93-4.27s3.4-2.71,5.14-4Z" style="fill:#fab317"/><path d="M139.82,113.41A110.22,110.22,0,0,0,123.34,127L106,109.59A134.26,134.26,0,0,1,126.16,93Z" style="fill:none;stroke:#fff;stroke-miterlimit:10;stroke-width:0.5px"/><path d="M158.58,103.36a109.16,109.16,0,0,0-18.79,10.07L126.12,93a132.8,132.8,0,0,1,23-12.35Z" style="fill:#1a1a1a"/><path d="M147.41,105.09c-1.91-.71-3.82-1.3-5.8-1.91-1-.3-2-.6-3-.88l-3-.75.66-3.11c.25-1,.52-2,.79-3.07.56-2.05,1.14-4.17,1.81-6.23,2.11.62,4.17,1.25,6.19,1.92s4,1.46,6,2.22c-.71,2-1.4,3.89-2,5.9S147.9,103.15,147.41,105.09Z" style="fill:#fab317"/><path d="M158.58,103.36a109.16,109.16,0,0,0-18.79,10.07L126.12,93a132.8,132.8,0,0,1,23-12.35Z" style="fill:none;stroke:#fff;stroke-miterlimit:10;stroke-width:0.5px"/><path d="M200.18,95A108.79,108.79,0,0,0,179,97.15l-4.8-24.08a134.33,134.33,0,0,1,26-2.59Z" style="fill:#1a1a1a"/><path d="M189.19,92.36c-1.49-1.36-3-2.66-4.63-4-.8-.66-1.61-1.33-2.43-2l-2.5-1.85,1.81-2.62c.62-.85,1.25-1.68,1.9-2.53,1.3-1.68,2.65-3.39,4.06-5.06A122.25,122.25,0,0,1,197,82.84,115.08,115.08,0,0,0,189.19,92.36Z" style="fill:#fab317"/><path d="M200.18,95A108.79,108.79,0,0,0,179,97.15l-4.8-24.08a134.33,134.33,0,0,1,26-2.59Z" style="fill:none;stroke:#fff;stroke-miterlimit:10;stroke-width:0.5px"/><path d="M178.94,97.15a108.88,108.88,0,0,0-20.37,6.21l-9.44-22.67a133.22,133.22,0,0,1,25-7.62Z" style="fill:#1a1a1a"/><path d="M172.54,92.57c-1.9.45-3.76,1.05-5.65,1.56s-3.71,1.24-5.56,1.85L157,84c2.07-.69,4.11-1.43,6.19-2.06s4.17-1.23,6.29-1.73Z" style="fill:#fab317"/><path d="M178.94,97.15a108.88,108.88,0,0,0-20.37,6.21l-9.44-22.67a133.22,133.22,0,0,1,25-7.62Z" style="fill:none;stroke:#fff;stroke-miterlimit:10;stroke-width:0.5px"/><path d="M221.85,97.15A108.71,108.71,0,0,0,200.62,95l0-24.56a134.33,134.33,0,0,1,26,2.59Z" style="fill:#1a1a1a"/><path d="M217.69,90.45l-5.82-.73L206,89.29l.62-12.78c2.16.13,4.33.32,6.5.48s4.31.54,6.46.81Z" style="fill:#fab317"/><path d="M221.85,97.15A108.71,108.71,0,0,0,200.62,95l0-24.56a134.33,134.33,0,0,1,26,2.59Z" style="fill:none;stroke:#fff;stroke-miterlimit:10;stroke-width:0.5px"/><path d="M242.19,103.35a108,108,0,0,0-20.38-6.21l4.8-24.08a133.19,133.19,0,0,1,25,7.61Z" style="fill:#1a1a1a"/><path d="M233.1,96.65c-.86-1.81-1.78-3.63-2.74-5.48s-2-3.58-3.1-5.39c1.75-1.13,3.57-2.32,5.41-3.35s3.74-2.08,5.69-3.09c1.07,1.87,2,3.85,3,5.75l1.38,2.85c.43,1,.85,2,1.26,2.92-.95.44-1.89.87-2.81,1.33l-2.78,1.45C236.59,94.63,234.83,95.58,233.1,96.65Z" style="fill:#fab317"/><path d="M242.19,103.35a108,108,0,0,0-20.38-6.21l4.8-24.08a133.19,133.19,0,0,1,25,7.61Z" style="fill:none;stroke:#fff;stroke-miterlimit:10;stroke-width:0.5px"/><path d="M277.46,127A109.72,109.72,0,0,0,261,113.41L274.64,93a134.26,134.26,0,0,1,20.19,16.57Z" style="fill:#1a1a1a"/><path d="M271.6,117.29A116,116,0,0,0,270.37,105a120.63,120.63,0,0,1,12.72-1.7,119.15,119.15,0,0,1,.79,12.81A111.07,111.07,0,0,0,271.6,117.29Z" style="fill:#fab317"/><path d="M277.46,127A109.72,109.72,0,0,0,261,113.41L274.64,93a134.26,134.26,0,0,1,20.19,16.57Z" style="fill:none;stroke:#fff;stroke-miterlimit:10;stroke-width:0.5px"/><path d="M261,113.41a109.16,109.16,0,0,0-18.79-10.07l9.43-22.67a133.8,133.8,0,0,1,23,12.34Z" style="fill:#1a1a1a"/><path d="M259.7,105.63c-1.7-1-3.38-2-5.1-2.9s-3.46-1.82-5.24-2.63l5.46-11.57c2,.9,3.89,2,5.83,2.93s3.78,2.14,5.67,3.22Z" style="fill:#fab317"/><path d="M261,113.41a109.16,109.16,0,0,0-18.79-10.07l9.43-22.67a133.8,133.8,0,0,1,23,12.34Z" style="fill:none;stroke:#fff;stroke-miterlimit:10;stroke-width:0.5px"/><path d="M291,143.44A109.19,109.19,0,0,0,277.46,127l17.36-17.36a133.14,133.14,0,0,1,16.58,20.18Z" style="fill:#1a1a1a"/><path d="M292.78,135.76c-1.17-1.57-2.41-3.08-3.6-4.63l-3.84-4.44,9.46-8.61c1.43,1.63,2.86,3.27,4.26,4.93s2.71,3.39,4,5.14Z" style="fill:#fab317"/><path d="M291,143.44A109.19,109.19,0,0,0,277.46,127l17.36-17.36a133.14,133.14,0,0,1,16.58,20.18Z" style="fill:none;stroke:#fff;stroke-miterlimit:10;stroke-width:0.5px"/><path d="M301.06,162.19A108.75,108.75,0,0,0,291,143.41l20.39-13.68a133.21,133.21,0,0,1,12.36,23Z" style="fill:#1a1a1a"/><path d="M299.33,151c.7-1.91,1.29-3.83,1.9-5.81.3-1,.6-2,.88-3l.75-3,3.12.67c1,.24,2,.51,3.07.78,2,.56,4.16,1.14,6.22,1.82-.61,2.1-1.25,4.17-1.92,6.18s-1.46,4-2.21,6c-2-.7-3.9-1.39-5.91-2S301.27,151.52,299.33,151Z" style="fill:#fab317"/><path d="M301.06,162.19A108.75,108.75,0,0,0,291,143.41l20.39-13.68a133.21,133.21,0,0,1,12.36,23Z" style="fill:none;stroke:#fff;stroke-miterlimit:10;stroke-width:0.5px"/><path d="M309.38,203.8a108.82,108.82,0,0,0-2.12-21.24l24.08-4.8a132.8,132.8,0,0,1,2.59,26Z" style="fill:#1a1a1a"/><path d="M312.05,192.8c1.36-1.49,2.66-3,4-4.63.65-.79,1.32-1.61,2-2.43l1.85-2.5,2.62,1.81c.86.62,1.69,1.26,2.53,1.91,1.68,1.3,3.4,2.65,5.06,4.06a124,124,0,0,1-8.48,9.63A115.21,115.21,0,0,0,312.05,192.8Z" style="fill:#fab317"/><path d="M309.38,203.8a108.82,108.82,0,0,0-2.12-21.24l24.08-4.8a132.8,132.8,0,0,1,2.59,26Z" style="fill:none;stroke:#fff;stroke-miterlimit:10;stroke-width:0.5px"/><path d="M307.26,182.56a107.5,107.5,0,0,0-6.21-20.38l22.67-9.43a133.12,133.12,0,0,1,7.62,25Z" style="fill:#1a1a1a"/><path d="M311.84,176.15c-.45-1.9-1-3.76-1.56-5.65s-1.24-3.7-1.84-5.56l12-4.35c.68,2.06,1.43,4.1,2,6.18s1.24,4.17,1.74,6.29Z" style="fill:#fab317"/><path d="M307.26,182.56a107.5,107.5,0,0,0-6.21-20.38l22.67-9.43a133.12,133.12,0,0,1,7.62,25Z" style="fill:none;stroke:#fff;stroke-miterlimit:10;stroke-width:0.5px"/><path d="M200.4,73.58A130.44,130.44,0,1,0,330.84,204,130.43,130.43,0,0,0,200.4,73.58Zm0,241.38A111,111,0,1,1,311.35,204,110.94,110.94,0,0,1,200.4,315Z" style="fill:none;stroke:#fff;stroke-miterlimit:10"/><polyline points="348.18 218.99 335.11 217.68 335.61 211.11 335.79 204.52 348.91 204.56" style="fill:none;stroke:#fff;stroke-miterlimit:10"/><path d="M335.11,217.67,348.18,219l-.9,7.17c-.38,2.38-.83,4.75-1.25,7.13l-12.87-2.58" style="fill:none;stroke:#fff;stroke-miterlimit:10"/><path d="M342.51,247.27,330,243.45c.58-2.11,1.23-4.21,1.76-6.34s1-4.28,1.45-6.43L346,233.25" style="fill:none;stroke:#fff;stroke-miterlimit:10"/><path d="M330,243.44l12.56,3.82c-.68,2.31-1.52,4.58-2.27,6.87s-1.74,4.49-2.61,6.74l-12.12-5" style="fill:none;stroke:#fff;stroke-miterlimit:10"/><path d="M331.46,273.92l-11.58-6.19c1-2,2.05-3.89,3-5.89s1.86-4,2.67-6l12.13,5" style="fill:none;stroke:#fff;stroke-miterlimit:10"/><path d="M319.89,267.72l11.57,6.19c-1.11,2.13-2.37,4.19-3.56,6.29s-2.57,4.07-3.86,6.11L313.12,279" style="fill:none;stroke:#fff;stroke-miterlimit:10"/><path d="M315.47,297.91l-10.17-8.3c1.34-1.74,2.75-3.44,4-5.21s2.59-3.56,3.79-5.39l10.92,7.28" style="fill:none;stroke:#fff;stroke-miterlimit:10"/><path d="M305.31,289.6l10.16,8.3c-1.52,1.87-3.13,3.66-4.7,5.49s-3.31,3.5-5,5.25l-9.32-9.25" style="fill:none;stroke:#fff;stroke-miterlimit:10"/><path d="M294.29,319.09,286,308.92c1.71-1.39,3.34-2.86,5-4.29s3.19-3,4.79-4.53l9.25,9.32" style="fill:none;stroke:#fff;stroke-miterlimit:10"/><path d="M286,308.91l8.31,10.17c-1.91,1.48-3.77,3-5.71,4.43s-3.9,2.83-5.92,4.16l-7.28-10.93" style="fill:none;stroke:#fff;stroke-miterlimit:10"/><path d="M270.29,335.08l-6.18-11.58c1.94-1,3.82-2.17,5.73-3.25s3.71-2.35,5.57-3.52l7.28,10.92" style="fill:none;stroke:#fff;stroke-miterlimit:10"/><path d="M264.12,323.49l6.18,11.58c-2.15,1.08-4.27,2.24-6.45,3.25s-4.38,2-6.61,2.93l-5-12.12" style="fill:none;stroke:#fff;stroke-miterlimit:10"/><path d="M243.65,346.12l-3.82-12.56c2.11-.62,4.17-1.38,6.25-2.07s4.1-1.59,6.15-2.37l5,12.12" style="fill:none;stroke:#fff;stroke-miterlimit:10"/><path d="M239.84,333.56l3.82,12.56c-2.32.64-4.63,1.36-7,1.93s-4.69,1.12-7.05,1.6l-2.57-12.88" style="fill:none;stroke:#fff;stroke-miterlimit:10"/><path d="M215.37,351.79l-1.31-13.06,6.54-.82c2.17-.35,4.33-.77,6.49-1.14l2.57,12.87" style="fill:none;stroke:#fff;stroke-miterlimit:10"/><polyline points="214.07 338.73 215.38 351.79 208.17 352.34 200.95 352.53 200.9 339.4" style="fill:none;stroke:#fff;stroke-miterlimit:10"/><polyline points="185.42 351.79 186.73 338.73 193.3 339.23 199.9 339.4 199.85 352.53" style="fill:none;stroke:#fff;stroke-miterlimit:10"/><path d="M186.74,338.73l-1.31,13.06-7.17-.9c-2.38-.38-4.75-.83-7.12-1.25l2.57-12.87" style="fill:none;stroke:#fff;stroke-miterlimit:10"/><path d="M157.14,346.12,161,333.56c2.12.58,4.21,1.24,6.35,1.76s4.27,1,6.42,1.45l-2.57,12.88" style="fill:none;stroke:#fff;stroke-miterlimit:10"/><path d="M161,333.56l-3.82,12.56c-2.31-.68-4.57-1.51-6.86-2.27s-4.5-1.74-6.75-2.61l5-12.12" style="fill:none;stroke:#fff;stroke-miterlimit:10"/><path d="M130.5,335.07l6.18-11.58c2,1,3.89,2.05,5.89,3s4,1.85,6,2.67l-5,12.12" style="fill:none;stroke:#fff;stroke-miterlimit:10"/><path d="M136.7,323.5l-6.19,11.58c-2.14-1.12-4.19-2.38-6.29-3.56s-4.08-2.58-6.11-3.87l7.28-10.92" style="fill:none;stroke:#fff;stroke-miterlimit:10"/><path d="M106.5,319.08l8.31-10.17c1.74,1.35,3.43,2.75,5.2,4s3.56,2.58,5.4,3.78l-7.28,10.93" style="fill:none;stroke:#fff;stroke-miterlimit:10"/><path d="M114.82,308.92l-8.31,10.17c-1.86-1.52-3.65-3.14-5.48-4.71s-3.5-3.31-5.26-5L105,300.1" style="fill:none;stroke:#fff;stroke-miterlimit:10"/><path d="M85.33,297.9l10.16-8.3c1.39,1.7,2.87,3.33,4.29,5s3,3.19,4.53,4.79L95,308.64" style="fill:none;stroke:#fff;stroke-miterlimit:10"/><path d="M95.5,289.61l-10.17,8.3c-1.47-1.9-3-3.76-4.43-5.71s-2.83-3.9-4.15-5.91L87.67,279" style="fill:none;stroke:#fff;stroke-miterlimit:10"/><path d="M69.34,273.91l11.58-6.19c1,1.95,2.17,3.82,3.24,5.73s2.35,3.71,3.52,5.57l-10.92,7.29" style="fill:none;stroke:#fff;stroke-miterlimit:10"/><path d="M80.92,267.73l-11.58,6.19c-1.08-2.16-2.24-4.27-3.25-6.46s-2-4.38-2.93-6.61l12.13-5" style="fill:none;stroke:#fff;stroke-miterlimit:10"/><path d="M58.29,247.26l12.56-3.82c.62,2.11,1.39,4.17,2.07,6.26s1.59,4.09,2.38,6.14l-12.13,5" style="fill:none;stroke:#fff;stroke-miterlimit:10"/><path d="M70.85,243.45l-12.56,3.82c-.64-2.32-1.35-4.62-1.93-7s-1.12-4.7-1.59-7.06l12.87-2.57" style="fill:none;stroke:#fff;stroke-miterlimit:10"/><path d="M52.62,219l13.07-1.31.82,6.54c.34,2.17.76,4.33,1.13,6.49l-12.87,2.58" style="fill:none;stroke:#fff;stroke-miterlimit:10"/><polyline points="65.69 217.68 52.63 218.99 52.08 211.79 51.89 204.56 65.01 204.52" style="fill:none;stroke:#fff;stroke-miterlimit:10"/><polyline points="52.63 189.03 65.69 190.34 65.19 196.92 65.01 203.51 51.89 203.46" style="fill:none;stroke:#fff;stroke-miterlimit:10"/><path d="M65.69,190.35l-13.07-1.3.9-7.18c.38-2.38.84-4.74,1.25-7.12l12.87,2.57" style="fill:none;stroke:#fff;stroke-miterlimit:10"/><path d="M58.29,160.75l12.56,3.82c-.58,2.12-1.23,4.22-1.76,6.35s-1,4.27-1.45,6.43l-12.87-2.57" style="fill:none;stroke:#fff;stroke-miterlimit:10"/><path d="M70.85,164.58l-12.56-3.81c.68-2.32,1.52-4.58,2.27-6.87s1.74-4.5,2.61-6.74l12.13,5" style="fill:none;stroke:#fff;stroke-miterlimit:10"/><path d="M69.34,134.11l11.58,6.19c-1,2-2,3.89-3,5.88s-1.86,4-2.67,6l-12.13-5" style="fill:none;stroke:#fff;stroke-miterlimit:10"/><path d="M80.92,140.31l-11.58-6.19c1.11-2.13,2.37-4.19,3.56-6.29s2.57-4.07,3.86-6.11L87.68,129" style="fill:none;stroke:#fff;stroke-miterlimit:10"/><path d="M85.33,110.12l10.17,8.3c-1.34,1.74-2.75,3.44-4,5.21s-2.58,3.56-3.79,5.39l-10.92-7.28" style="fill:none;stroke:#fff;stroke-miterlimit:10"/><path d="M95.49,118.43l-10.16-8.3c1.52-1.87,3.13-3.66,4.7-5.49s3.31-3.5,5-5.25l9.31,9.25" style="fill:none;stroke:#fff;stroke-miterlimit:10"/><path d="M106.51,88.94l8.31,10.17c-1.71,1.38-3.33,2.86-5,4.29s-3.19,3-4.79,4.53l-9.25-9.32" style="fill:none;stroke:#fff;stroke-miterlimit:10"/><path d="M114.81,99.11,106.5,89c1.91-1.48,3.77-3,5.71-4.44s3.9-2.83,5.92-4.15l7.28,10.92" style="fill:none;stroke:#fff;stroke-miterlimit:10"/><path d="M130.51,73l6.19,11.58c-1.95,1-3.82,2.17-5.74,3.24s-3.71,2.36-5.57,3.52l-7.28-10.92" style="fill:none;stroke:#fff;stroke-miterlimit:10"/><path d="M136.68,84.53,130.5,73c2.15-1.09,4.27-2.25,6.46-3.25s4.37-2,6.61-2.94l5,12.13" style="fill:none;stroke:#fff;stroke-miterlimit:10"/><path d="M157.15,61.9,161,74.46c-2.11.62-4.17,1.39-6.25,2.07s-4.1,1.59-6.15,2.38l-5-12.13" style="fill:none;stroke:#fff;stroke-miterlimit:10"/><path d="M161,74.47l-3.82-12.56c2.32-.65,4.63-1.36,7-1.94s4.69-1.12,7-1.59l2.57,12.87" style="fill:none;stroke:#fff;stroke-miterlimit:10"/><path d="M185.43,56.24l1.31,13.06-6.54.82c-2.17.34-4.32.76-6.49,1.14l-2.57-12.88" style="fill:none;stroke:#fff;stroke-miterlimit:10"/><polyline points="186.73 69.3 185.42 56.24 192.63 55.69 199.85 55.5 199.9 68.63" style="fill:none;stroke:#fff;stroke-miterlimit:10"/><polyline points="215.38 56.24 214.07 69.3 207.5 68.8 200.9 68.63 200.95 55.5" style="fill:none;stroke:#fff;stroke-miterlimit:10"/><path d="M214.06,69.3l1.31-13.06,7.17.9c2.38.37,4.75.83,7.12,1.24l-2.57,12.88" style="fill:none;stroke:#fff;stroke-miterlimit:10"/><path d="M243.66,61.91l-3.82,12.56c-2.12-.58-4.21-1.24-6.35-1.77s-4.27-1-6.42-1.45l2.57-12.87" style="fill:none;stroke:#fff;stroke-miterlimit:10"/><path d="M239.83,74.46l3.82-12.56c2.31.69,4.57,1.52,6.86,2.28s4.5,1.74,6.75,2.6l-5,12.13" style="fill:none;stroke:#fff;stroke-miterlimit:10"/><path d="M270.3,73l-6.18,11.57c-2-1-3.89-2-5.89-3s-4-1.85-6-2.67l5-12.13" style="fill:none;stroke:#fff;stroke-miterlimit:10"/><path d="M264.11,84.53,270.29,73c2.14,1.12,4.2,2.38,6.29,3.56s4.08,2.58,6.11,3.86l-7.28,10.92" style="fill:none;stroke:#fff;stroke-miterlimit:10"/><path d="M294.3,89,286,99.11c-1.74-1.34-3.43-2.74-5.2-4s-3.56-2.58-5.4-3.79l7.28-10.92" style="fill:none;stroke:#fff;stroke-miterlimit:10"/><path d="M286,99.11l8.31-10.17c1.86,1.52,3.65,3.14,5.48,4.7s3.51,3.31,5.26,5l-9.25,9.32" style="fill:none;stroke:#fff;stroke-miterlimit:10"/><path d="M315.47,110.13l-10.16,8.3c-1.39-1.7-2.87-3.33-4.29-5s-3-3.19-4.53-4.79l9.32-9.25" style="fill:none;stroke:#fff;stroke-miterlimit:10"/><path d="M305.3,118.42l10.17-8.3c1.47,1.9,3,3.76,4.43,5.7s2.83,3.91,4.15,5.92L313.13,129" style="fill:none;stroke:#fff;stroke-miterlimit:10"/><path d="M331.46,134.12l-11.57,6.19c-1-1.95-2.18-3.82-3.25-5.74s-2.35-3.71-3.52-5.57L324,121.72" style="fill:none;stroke:#fff;stroke-miterlimit:10"/><path d="M319.88,140.3l11.58-6.19c1.08,2.15,2.24,4.27,3.25,6.46s2,4.37,2.93,6.61l-12.13,5" style="fill:none;stroke:#fff;stroke-miterlimit:10"/><path d="M342.51,160.77,330,164.58c-.62-2.1-1.39-4.16-2.07-6.25s-1.59-4.09-2.37-6.15l12.12-5" style="fill:none;stroke:#fff;stroke-miterlimit:10"/><path d="M330,164.57l12.56-3.82c.64,2.33,1.35,4.63,1.93,7s1.12,4.69,1.59,7.06l-12.87,2.57" style="fill:none;stroke:#fff;stroke-miterlimit:10"/><path d="M348.18,189.05l-13.07,1.3-.82-6.54c-.34-2.16-.76-4.32-1.13-6.49L346,174.75" style="fill:none;stroke:#fff;stroke-miterlimit:10"/><polyline points="335.11 190.34 348.18 189.03 348.72 196.24 348.91 203.46 335.79 203.51" style="fill:none;stroke:#fff;stroke-miterlimit:10"/><circle cx="200.4" cy="204.01" r="155.28" style="fill:none;stroke:#fab317;stroke-miterlimit:10;stroke-width:2px"/><rect x="17.15" y="111.43" width="366.5" height="185.17" style="fill:none"/><rect x="145.37" y="146.73" width="109.52" height="91.36" style="fill:#1a1a1a;stroke:#fff;stroke-miterlimit:10"/><path d="M196.84,177.37a24.61,24.61,0,0,0-23.55-24.59v0H145.37" style="fill:#1a1a1a;stroke:#fff;stroke-miterlimit:10"/><path d="M203.41,177.37A24.63,24.63,0,0,1,227,152.78v0h27.93" style="fill:#f8b318;stroke:#fff;stroke-miterlimit:10"/><path d="M197.11,177.37h-.54c0-7.08-51.2-24.89-51.2-24.89h28.19v0a24.91,24.91,0,0,1,23.55,24.85Z" style="fill:#f8b318;stroke:#fff;stroke-miterlimit:10"/><path d="M203.68,177.37h-.54a24.91,24.91,0,0,1,23.55-24.85h0l.27,0h27.93V153H227.15l-.18,0a24.34,24.34,0,0,0-23.29,24.32Z" style="fill:#1a1a1a;stroke:#fff;stroke-miterlimit:10"/><rect x="145.37" y="139.62" width="109.52" height="7.11" style="fill:#f8b318;stroke:#fff;stroke-miterlimit:10"/><path d="M249.51,206.36a5.4,5.4,0,0,1,5.38,5.38v33a5.41,5.41,0,0,1-5.38,5.38H150.75a5.4,5.4,0,0,1-5.38-5.38v-33a5.39,5.39,0,0,1,5.38-5.38" style="fill:#1a1a1a;stroke:#fff;stroke-miterlimit:10"/><rect x="145.37" y="157.13" width="28.47" height="49.23" style="fill:#1a1a1a;stroke:#fff;stroke-miterlimit:10"/><ellipse cx="172.75" cy="181.74" rx="24.64" ry="24.62" style="fill:#1a1a1a;stroke:#fff;stroke-miterlimit:10"/><ellipse cx="172.2" cy="181.74" rx="21.36" ry="21.33" style="fill:#fff"/><path d="M159.6,164.51a21.35,21.35,0,0,1,33.14,23.08" style="fill:#1a1a1a;stroke:#fff;stroke-miterlimit:10"/><rect x="226.41" y="157.13" width="28.47" height="49.23" style="fill:#1a1a1a;stroke:#fff;stroke-miterlimit:10"/><ellipse cx="227.51" cy="181.74" rx="24.64" ry="24.62" style="fill:#1a1a1a;stroke:#fff;stroke-miterlimit:10"/><ellipse cx="228.05" cy="181.74" rx="21.36" ry="21.33" style="fill:#fff"/><rect x="146.57" y="141.81" width="2.74" height="2.74" transform="translate(-57.91 146.45) rotate(-44.97)" style="fill:#1a1a1a;stroke:#fff;stroke-miterlimit:10"/><rect x="152.05" y="141.81" width="2.74" height="2.74" transform="translate(-56.31 150.32) rotate(-44.97)" style="fill:#1a1a1a;stroke:#fff;stroke-miterlimit:10"/><rect x="157.53" y="141.81" width="2.74" height="2.74" transform="translate(-54.71 154.19) rotate(-44.97)" style="fill:#1a1a1a;stroke:#fff;stroke-miterlimit:10"/><rect x="163" y="141.81" width="2.74" height="2.74" transform="translate(-53.11 158.06) rotate(-44.97)" style="fill:#1a1a1a;stroke:#fff;stroke-miterlimit:10"/><rect x="168.48" y="141.81" width="2.74" height="2.74" transform="translate(-51.5 161.93) rotate(-44.97)" style="fill:#1a1a1a;stroke:#fff;stroke-miterlimit:10"/><rect x="173.95" y="141.81" width="2.74" height="2.74" transform="translate(-49.9 165.8) rotate(-44.97)" style="fill:#1a1a1a;stroke:#fff;stroke-miterlimit:10"/><rect x="179.43" y="141.81" width="2.74" height="2.74" transform="translate(-48.3 169.67) rotate(-44.97)" style="fill:#1a1a1a;stroke:#fff;stroke-miterlimit:10"/><rect x="184.91" y="141.81" width="2.74" height="2.74" transform="translate(-46.7 173.54) rotate(-44.97)" style="fill:#1a1a1a;stroke:#fff;stroke-miterlimit:10"/><rect x="190.38" y="141.81" width="2.74" height="2.74" transform="translate(-45.1 177.41) rotate(-44.97)" style="fill:#1a1a1a;stroke:#fff;stroke-miterlimit:10"/><rect x="195.86" y="141.81" width="2.74" height="2.74" transform="translate(-43.49 181.28) rotate(-44.97)" style="fill:#1a1a1a;stroke:#fff;stroke-miterlimit:10"/><rect x="201.33" y="141.81" width="2.74" height="2.74" transform="translate(-41.89 185.15) rotate(-44.97)" style="fill:#1a1a1a;stroke:#fff;stroke-miterlimit:10"/><rect x="206.81" y="141.81" width="2.74" height="2.74" transform="translate(-40.29 189.02) rotate(-44.97)" style="fill:#1a1a1a;stroke:#fff;stroke-miterlimit:10"/><rect x="212.28" y="141.81" width="2.74" height="2.74" transform="translate(-38.69 192.89) rotate(-44.97)" style="fill:#1a1a1a;stroke:#fff;stroke-miterlimit:10"/><rect x="217.76" y="141.81" width="2.74" height="2.74" transform="translate(-37.09 196.76) rotate(-44.97)" style="fill:#1a1a1a;stroke:#fff;stroke-miterlimit:10"/><rect x="223.24" y="141.81" width="2.74" height="2.74" transform="translate(-35.48 200.63) rotate(-44.97)" style="fill:#1a1a1a;stroke:#fff;stroke-miterlimit:10"/><rect x="228.71" y="141.81" width="2.74" height="2.74" transform="translate(-33.88 204.5) rotate(-44.97)" style="fill:#1a1a1a;stroke:#fff;stroke-miterlimit:10"/><rect x="234.19" y="141.81" width="2.74" height="2.74" transform="translate(-32.28 208.37) rotate(-44.97)" style="fill:#1a1a1a;stroke:#fff;stroke-miterlimit:10"/><rect x="239.66" y="141.81" width="2.74" height="2.74" transform="translate(-30.68 212.24) rotate(-44.97)" style="fill:#1a1a1a;stroke:#fff;stroke-miterlimit:10"/><rect x="245.14" y="141.81" width="2.74" height="2.74" transform="translate(-29.08 216.11) rotate(-44.97)" style="fill:#1a1a1a;stroke:#fff;stroke-miterlimit:10"/><rect x="250.62" y="141.81" width="2.74" height="2.74" transform="translate(-27.48 219.98) rotate(-44.97)" style="fill:#1a1a1a;stroke:#fff;stroke-miterlimit:10"/><path d="M173.41,185a3.3,3.3,0,1,1,3.3-3.3A3.31,3.31,0,0,1,173.41,185Z" style="fill:#1a1a1a;stroke:#fff;stroke-miterlimit:10"/><path d="M173.41,179.52a2.23,2.23,0,1,1-2.23,2.22,2.23,2.23,0,0,1,2.23-2.22m0-2.15a4.38,4.38,0,1,0,4.38,4.37,4.39,4.39,0,0,0-4.38-4.37Z" style="fill:#1a1a1a;stroke:#fff;stroke-miterlimit:10"/><path d="M227.07,185a3.3,3.3,0,1,1,3.3-3.3A3.31,3.31,0,0,1,227.07,185Z" style="fill:#1a1a1a;stroke:#fff;stroke-miterlimit:10"/><path d="M227.07,179.52a2.23,2.23,0,1,1-2.23,2.22,2.23,2.23,0,0,1,2.23-2.22m0-2.15a4.38,4.38,0,1,0,4.38,4.37,4.38,4.38,0,0,0-4.38-4.37Z" style="fill:#1a1a1a;stroke:#fff;stroke-miterlimit:10"/><path d="M182.17,250.13c0-6.35,8.33-11.49,18.61-11.49s18.62,5.14,18.62,11.49" style="fill:#1a1a1a;stroke:#fff;stroke-miterlimit:10"/><path d="M240.36,164.51a21.36,21.36,0,0,0-33.14,23.08" style="fill:#1a1a1a;stroke:#fff;stroke-miterlimit:10"/><path d="M145.34,211.74c0-3,1.74-3.67,3.83-1.58L174,234.93a7.67,7.67,0,0,0,8.53,1.24L192.1,231c2.6-1.42,5.94-2.57,7.42-2.57s4.83,1.12,7.46,2.49l9,4.72a8.19,8.19,0,0,0,8.71-1.17L251,210c2.16-2,3.94-1.25,3.94,1.71v32.79a5.4,5.4,0,0,1-5.38,5.38H150.56a5.37,5.37,0,0,1-5.36-5.38Z" style="fill:#1a1a1a;stroke:#fff;stroke-miterlimit:10"/><ellipse cx="269.67" cy="212.93" rx="16.98" ry="16.96" style="fill:#1a1a1a;stroke:#fff;stroke-miterlimit:10"/><ellipse cx="269.67" cy="212.93" rx="15.33" ry="15.32" style="fill:#1a1a1a;stroke:#fff;stroke-miterlimit:10"/><ellipse cx="269.78" cy="212.93" rx="8.21" ry="8.21" style="fill:#1a1a1a;stroke:#fff;stroke-miterlimit:10"/><circle cx="269.78" cy="212.93" r="3.48" style="fill:#f8b318;stroke:#fff;stroke-miterlimit:10"/><ellipse cx="131.13" cy="212.93" rx="16.98" ry="16.96" style="fill:#1a1a1a;stroke:#fff;stroke-miterlimit:10"/><ellipse cx="131.13" cy="212.93" rx="15.33" ry="15.32" style="fill:#1a1a1a;stroke:#fff;stroke-miterlimit:10"/><ellipse cx="131.24" cy="212.93" rx="8.21" ry="8.21" style="fill:#1a1a1a;stroke:#fff;stroke-miterlimit:10"/><circle cx="131.24" cy="212.93" r="3.48" style="fill:#f8b318;stroke:#fff;stroke-miterlimit:10"/><circle cx="200.06" cy="164.91" r="2.15" style="fill:#1a1a1a;stroke:#fff;stroke-miterlimit:10"/><path d="M214,146.62a14,14,0,0,1-28,0" style="fill:#f8b318;stroke:#fff;stroke-miterlimit:10"/><path d="M169.26,241.89a6.48,6.48,0,0,1-3.2-.87l-3.29-1.87a4.3,4.3,0,0,1,4.26-7.48l.14.08V220.09a9.7,9.7,0,0,1,9.68-9.69h12.42a8.39,8.39,0,0,0,1.08-.07v-.26a4.31,4.31,0,0,1,8.61,0v2.32c0,3.9-4,6.62-9.69,6.62H176.85a1.09,1.09,0,0,0-1.07,1.08v13.68c0,3.34-1.3,6-3.55,7.32A5.78,5.78,0,0,1,169.26,241.89Z" style="fill:#1a1a1a;stroke:#fff;stroke-miterlimit:10"/><path d="M230.64,241.89a5.78,5.78,0,0,1-3-.8c-2.25-1.31-3.55-4-3.55-7.32V220.09a1.09,1.09,0,0,0-1.07-1.08H210.63c-5.79,0-9.69-2.63-9.69-6.54v-2.23a4.31,4.31,0,1,1,8.61,0v.09a8.39,8.39,0,0,0,1.08.07h12.42a9.7,9.7,0,0,1,9.68,9.69v11.66l.14-.08a4.3,4.3,0,0,1,4.26,7.48L233.84,241A6.48,6.48,0,0,1,230.64,241.89Z" style="fill:#1a1a1a;stroke:#fff;stroke-miterlimit:10"/></svg>