<svg id="ba7b53d5-e943-4c31-bfb5-983afe756c71" data-name="Layer 1" xmlns="http://www.w3.org/2000/svg" xmlns:xlink="http://www.w3.org/1999/xlink" viewBox="0 0 1080 1080"><defs><clipPath id="b53259f7-6871-4789-8da5-09242fffc214"><polygon points="756.64 435.8 527.94 664.5 299.24 435.8 523.77 429.26 756.64 435.8" style="fill:none"/></clipPath><clipPath id="eec38a48-9fde-4503-a337-960d7442bea9"><path d="M527.94,532.91A131.59,131.59,0,1,0,659.53,664.5,131.6,131.6,0,0,0,527.94,532.91Zm0,246.57a115,115,0,1,1,115-115A115,115,0,0,1,527.94,779.48Z" style="fill:none"/></clipPath></defs><g style="clip-path:url(#b53259f7-6871-4789-8da5-09242fffc214)"><circle cx="527.94" cy="664.5" r="207.43" style="fill:#1a1a1a"/><circle cx="527.94" cy="664.5" r="207.43" style="fill:#1a1a1a"/><circle cx="527.94" cy="664.5" r="207.43" style="fill:#1a1a1a"/><circle cx="527.94" cy="664.5" r="207.43" style="fill:#1a1a1a"/><g style="clip-path:url(#eec38a48-9fde-4503-a337-960d7442bea9)"><circle cx="527.94" cy="664.5" r="135.98" style="fill:none;stroke:#fff;stroke-miterlimit:10"/><line x1="527.94" y1="664.5" x2="527.94" y2="800.49" style="fill:none;stroke:#fff;stroke-miterlimit:10"/><line x1="527.94" y1="664.5" x2="549.22" y2="798.81" style="fill:none;stroke:#fff;stroke-miterlimit:10"/><line x1="527.94" y1="664.5" x2="569.96" y2="793.83" style="fill:none;stroke:#fff;stroke-miterlimit:10"/><line x1="527.94" y1="664.5" x2="589.68" y2="785.66" style="fill:none;stroke:#fff;stroke-miterlimit:10"/><line x1="527.94" y1="664.5" x2="607.87" y2="774.52" style="fill:none;stroke:#fff;stroke-miterlimit:10"/><line x1="527.94" y1="664.5" x2="624.1" y2="760.66" style="fill:none;stroke:#fff;stroke-miterlimit:10"/><line x1="527.94" y1="664.5" x2="637.96" y2="744.43" style="fill:none;stroke:#fff;stroke-miterlimit:10"/><line x1="527.94" y1="664.5" x2="649.11" y2="726.24" style="fill:none;stroke:#fff;stroke-miterlimit:10"/><line x1="527.94" y1="664.5" x2="657.27" y2="706.52" style="fill:none;stroke:#fff;stroke-miterlimit:10"/><line x1="527.94" y1="664.5" x2="662.25" y2="685.77" style="fill:none;stroke:#fff;stroke-miterlimit:10"/><line x1="527.94" y1="664.5" x2="663.93" y2="664.5" style="fill:none;stroke:#fff;stroke-miterlimit:10"/><line x1="527.94" y1="664.5" x2="662.25" y2="643.23" style="fill:none;stroke:#fff;stroke-miterlimit:10"/><line x1="527.94" y1="664.5" x2="657.27" y2="622.48" style="fill:none;stroke:#fff;stroke-miterlimit:10"/><line x1="527.94" y1="664.5" x2="649.11" y2="602.77" style="fill:none;stroke:#fff;stroke-miterlimit:10"/><line x1="527.94" y1="664.5" x2="637.96" y2="584.57" style="fill:none;stroke:#fff;stroke-miterlimit:10"/><line x1="527.94" y1="664.5" x2="624.1" y2="568.35" style="fill:none;stroke:#fff;stroke-miterlimit:10"/><line x1="527.94" y1="664.5" x2="607.87" y2="554.49" style="fill:none;stroke:#fff;stroke-miterlimit:10"/><line x1="527.94" y1="664.5" x2="589.68" y2="543.34" style="fill:none;stroke:#fff;stroke-miterlimit:10"/><line x1="527.94" y1="664.5" x2="569.96" y2="535.17" style="fill:none;stroke:#fff;stroke-miterlimit:10"/><line x1="527.94" y1="664.5" x2="549.22" y2="530.19" style="fill:none;stroke:#fff;stroke-miterlimit:10"/><line x1="527.94" y1="664.5" x2="527.94" y2="528.52" style="fill:none;stroke:#fff;stroke-miterlimit:10"/><line x1="527.94" y1="664.5" x2="506.67" y2="530.19" style="fill:none;stroke:#fff;stroke-miterlimit:10"/><line x1="527.94" y1="664.5" x2="485.92" y2="535.17" style="fill:none;stroke:#fff;stroke-miterlimit:10"/><line x1="527.94" y1="664.5" x2="466.21" y2="543.34" style="fill:none;stroke:#fff;stroke-miterlimit:10"/><line x1="527.94" y1="664.5" x2="448.01" y2="554.49" style="fill:none;stroke:#fff;stroke-miterlimit:10"/><line x1="527.94" y1="664.5" x2="431.79" y2="568.35" style="fill:none;stroke:#fff;stroke-miterlimit:10"/><line x1="527.94" y1="664.5" x2="417.93" y2="584.57" style="fill:none;stroke:#fff;stroke-miterlimit:10"/><line x1="527.94" y1="664.5" x2="406.78" y2="602.77" style="fill:none;stroke:#fff;stroke-miterlimit:10"/><line x1="527.94" y1="664.5" x2="398.61" y2="622.48" style="fill:none;stroke:#fff;stroke-miterlimit:10"/><line x1="527.94" y1="664.5" x2="393.63" y2="643.23" style="fill:none;stroke:#fff;stroke-miterlimit:10"/><line x1="527.94" y1="664.5" x2="391.96" y2="664.5" style="fill:none;stroke:#fff;stroke-miterlimit:10"/><line x1="527.94" y1="664.5" x2="393.63" y2="685.77" style="fill:none;stroke:#fff;stroke-miterlimit:10"/><line x1="527.94" y1="664.5" x2="398.61" y2="706.52" style="fill:none;stroke:#fff;stroke-miterlimit:10"/><line x1="527.94" y1="664.5" x2="406.78" y2="726.24" style="fill:none;stroke:#fff;stroke-miterlimit:10"/><line x1="527.94" y1="664.5" x2="417.93" y2="744.43" style="fill:none;stroke:#fff;stroke-miterlimit:10"/><line x1="527.94" y1="664.5" x2="431.79" y2="760.66" style="fill:none;stroke:#fff;stroke-miterlimit:10"/><line x1="527.94" y1="664.5" x2="448.01" y2="774.52" style="fill:none;stroke:#fff;stroke-miterlimit:10"/><line x1="527.94" y1="664.5" x2="466.21" y2="785.66" style="fill:none;stroke:#fff;stroke-miterlimit:10"/><line x1="527.94" y1="664.5" x2="485.92" y2="793.83" style="fill:none;stroke:#fff;stroke-miterlimit:10"/><line x1="527.94" y1="664.5" x2="506.67" y2="798.81" style="fill:none;stroke:#fff;stroke-miterlimit:10"/></g><circle cx="527.94" cy="664.5" r="114.98" style="fill:none;stroke:#fff;stroke-miterlimit:10"/><circle cx="527.94" cy="664.5" r="131.59" style="fill:none;stroke:#fff;stroke-miterlimit:10"/><path d="M711.64,678l-13.1-.95c.41-4,.36-8.07.5-12.11l13.13,0" style="fill:none;stroke:#fff;stroke-miterlimit:10"/><path d="M698.54,677.06l13.1,1c-.19,2.17-.28,4.34-.56,6.5l-.82,6.47-13-1.87" style="fill:none;stroke:#fff;stroke-miterlimit:10"/><path d="M707.94,703.79,695.11,701c.5-2,.8-4,1.17-5.94l.53-3,.27-1.49.19-1.5,13,1.87" style="fill:none;stroke:#fff;stroke-miterlimit:10"/><path d="M695.11,701l12.83,2.79-1.47,6.35c-.55,2.11-1.17,4.19-1.76,6.29l-12.59-3.7" style="fill:none;stroke:#fff;stroke-miterlimit:10"/><path d="M700.63,728.78l-12.3-4.58c.73-1.88,1.32-3.82,2-5.72l1-2.87c.29-1,.55-1.94.83-2.91l12.6,3.69" style="fill:none;stroke:#fff;stroke-miterlimit:10"/><path d="M688.33,724.19l12.31,4.58-2.4,6.07c-.38,1-.82,2-1.27,3l-1.35,3-11.94-5.44" style="fill:none;stroke:#fff;stroke-miterlimit:10"/><path d="M689.85,752.48l-11.53-6.27,2.77-5.39c1-1.78,1.77-3.63,2.6-5.47l11.94,5.44" style="fill:none;stroke:#fff;stroke-miterlimit:10"/><path d="M678.33,746.2l11.53,6.27c-2.19,3.76-4.26,7.59-6.68,11.21l-11.06-7.08" style="fill:none;stroke:#fff;stroke-miterlimit:10"/><path d="M675.2,775.22l-10.49-7.9c1.22-1.61,2.35-3.28,3.53-4.92.58-.82,1.19-1.64,1.75-2.47l1.63-2.55,11,7.13" style="fill:none;stroke:#fff;stroke-miterlimit:10"/><polyline points="664.72 767.32 675.21 775.21 671.18 780.34 670.17 781.62 669.11 782.86 666.97 785.32 657.07 776.71" style="fill:none;stroke:#fff;stroke-miterlimit:10"/><path d="M658.12,794.87l-9.27-9.29c2.77-2.94,5.65-5.78,8.23-8.89L667,785.3" style="fill:none;stroke:#fff;stroke-miterlimit:10"/><path d="M648.85,785.57l9.28,9.29c-3.16,3-6.23,6.07-9.58,8.85l-8.6-9.92" style="fill:none;stroke:#fff;stroke-miterlimit:10"/><path d="M638.45,811.92l-7.88-10.5c3.17-2.51,6.4-4.93,9.4-7.64l8.6,9.92" style="fill:none;stroke:#fff;stroke-miterlimit:10"/><path d="M630.58,801.42l7.88,10.49c-1.75,1.29-3.53,2.53-5.3,3.8-.89.62-1.76,1.28-2.68,1.86l-2.74,1.77-7.12-11" style="fill:none;stroke:#fff;stroke-miterlimit:10"/><path d="M616.58,826l-6.33-11.5,5.25-3c.89-.49,1.74-1,2.59-1.58l2.55-1.63,7.12,11" style="fill:none;stroke:#fff;stroke-miterlimit:10"/><path d="M610.26,814.53l6.33,11.5c-1.9,1.07-3.86,2-5.79,3l-2.9,1.49-3,1.35L599.44,820" style="fill:none;stroke:#fff;stroke-miterlimit:10"/><polyline points="591.98 837.29 587.41 824.98 593.05 822.76 594.46 822.2 595.84 821.58 598.6 820.34 604.02 832.29" style="fill:none;stroke:#fff;stroke-miterlimit:10"/><path d="M587.42,825l4.57,12.3c-2,.77-4.12,1.42-6.17,2.13l-3.09,1.05-3.14.89-3.67-12.6" style="fill:none;stroke:#fff;stroke-miterlimit:10"/><path d="M567,844.56l-2.77-12.83,5.9-1.36c2-.5,3.89-1.09,5.84-1.63l3.67,12.6" style="fill:none;stroke:#fff;stroke-miterlimit:10"/><path d="M564.21,831.72,567,844.56c-2.11.53-4.26.84-6.4,1.24s-4.27.83-6.44,1.05l-1.85-13" style="fill:none;stroke:#fff;stroke-miterlimit:10"/><path d="M541.2,848.21l-.93-13.09c2-.17,4-.26,6-.5l6-.77,1.86,13" style="fill:none;stroke:#fff;stroke-miterlimit:10"/><path d="M540.28,835.12l.93,13.09-3.25.25c-1.08.08-2.17.07-3.26.11l-6.51.16,0-13.12" style="fill:none;stroke:#fff;stroke-miterlimit:10"/><polyline points="515.18 848.25 516.08 835.16 519.1 835.39 522.13 835.46 528.19 835.61 528.21 848.73" style="fill:none;stroke:#fff;stroke-miterlimit:10"/><path d="M516.09,835.16l-.9,13.09c-2.16-.17-4.33-.31-6.5-.51l-6.47-.82,1.82-13" style="fill:none;stroke:#fff;stroke-miterlimit:10"/><path d="M488.41,844.44l2.8-12.82c2,.5,4,.82,5.94,1.17l3,.54c1,.18,2,.36,3,.47l-1.89,13" style="fill:none;stroke:#fff;stroke-miterlimit:10"/><polyline points="491.22 831.62 488.42 844.45 482.06 842.98 475.78 841.2 479.5 828.61" style="fill:none;stroke:#fff;stroke-miterlimit:10"/><path d="M463.43,837.1,468,824.8c1.88.76,3.82,1.32,5.72,2l2.87,1c1,.32,1.94.56,2.91.85l-3.71,12.59" style="fill:none;stroke:#fff;stroke-miterlimit:10"/><path d="M468,824.81l-4.59,12.29-6.07-2.39c-2-.79-4-1.76-6-2.63l5.46-11.94" style="fill:none;stroke:#fff;stroke-miterlimit:10"/><path d="M439.74,826.28,446,814.76c1.78,1,3.59,1.85,5.39,2.78.9.45,1.78.94,2.7,1.36l2.76,1.25-5.46,11.94" style="fill:none;stroke:#fff;stroke-miterlimit:10"/><path d="M446,814.77l-6.29,11.52c-3.76-2.18-7.58-4.27-11.2-6.69l7.1-11.05" style="fill:none;stroke:#fff;stroke-miterlimit:10"/><path d="M417.83,812.22l7.85-10.52c3.31,2.32,6.54,4.76,10,6.86l-7.1,11.05" style="fill:none;stroke:#fff;stroke-miterlimit:10"/><path d="M425.69,801.71l-7.85,10.52c-3.41-2.7-6.91-5.29-10.14-8.2l8.57-9.94" style="fill:none;stroke:#fff;stroke-miterlimit:10"/><path d="M397.4,794.5l9.3-9.27c1.44,1.42,2.92,2.8,4.38,4.2.73.69,1.44,1.41,2.2,2.07l2.3,2-8.63,9.9" style="fill:none;stroke:#fff;stroke-miterlimit:10"/><path d="M406.71,785.24l-9.3,9.27c-3-3.16-6.06-6.24-8.84-9.59l9.93-8.59" style="fill:none;stroke:#fff;stroke-miterlimit:10"/><path d="M380.37,774.81l10.51-7.87c2.51,3.16,4.92,6.41,7.63,9.41l-9.93,8.59" style="fill:none;stroke:#fff;stroke-miterlimit:10"/><path d="M390.88,767l-10.51,7.87c-2.5-3.55-5.13-7-7.4-10.73L384,757" style="fill:none;stroke:#fff;stroke-miterlimit:10"/><polyline points="366.28 752.91 377.8 746.61 380.82 751.86 381.57 753.17 382.39 754.45 384.02 757 372.99 764.1" style="fill:none;stroke:#fff;stroke-miterlimit:10"/><path d="M377.8,746.62l-11.51,6.31c-1.05-1.91-2-3.87-3-5.79l-1.48-2.91-1.35-3,11.93-5.48" style="fill:none;stroke:#fff;stroke-miterlimit:10"/><path d="M355.44,729.24l12.29-4.61,2.22,5.63c.75,1.88,1.64,3.69,2.45,5.54l-11.93,5.48" style="fill:none;stroke:#fff;stroke-miterlimit:10"/><path d="M367.73,724.64l-12.29,4.62c-.42-1-.78-2-1.12-3.07l-1-3.09c-.7-2.06-1.42-4.11-2-6.22l12.58-3.72" style="fill:none;stroke:#fff;stroke-miterlimit:10"/><path d="M347.83,703.28l12.84-2.75,1.36,5.9c.46,2,1.08,3.89,1.61,5.84L351,715.93" style="fill:none;stroke:#fff;stroke-miterlimit:10"/><path d="M360.67,700.54l-12.84,2.75-.36-1.59-.3-1.6-.57-3.21c-.37-2.14-.81-4.27-1-6.44l13-1.83" style="fill:none;stroke:#fff;stroke-miterlimit:10"/><path d="M344.21,677.5l13.1-.91c.17,2,.27,4,.49,6l.76,6-13,1.83" style="fill:none;stroke:#fff;stroke-miterlimit:10"/><path d="M357.31,676.6l-13.1.92-.24-3.26c-.06-1.08-.07-2.17-.1-3.25l-.16-6.52h13.12" style="fill:none;stroke:#fff;stroke-miterlimit:10"/><path d="M344.21,651.49l13.1.91-.23,3c-.06,1-.06,2-.09,3l-.16,6.06H343.71" style="fill:none;stroke:#fff;stroke-miterlimit:10"/><path d="M357.31,652.41l-13.1-.91c.18-2.17.3-4.34.53-6.5l.82-6.47,13,1.84" style="fill:none;stroke:#fff;stroke-miterlimit:10"/><path d="M347.83,625.71l12.84,2.75-.34,1.48-.27,1.49-.53,3c-.35,2-.77,4-1,6l-13-1.84" style="fill:none;stroke:#fff;stroke-miterlimit:10"/><path d="M360.67,628.47l-12.84-2.75,1.47-6.36c.5-2.11,1.16-4.19,1.73-6.28l12.61,3.65" style="fill:none;stroke:#fff;stroke-miterlimit:10"/><path d="M355.44,599.75l12.29,4.61c-.39.94-.72,1.89-1,2.85l-1,2.87c-.65,1.91-1.32,3.81-1.83,5.77l-12.58-3.73" style="fill:none;stroke:#fff;stroke-miterlimit:10"/><path d="M367.73,604.37l-12.29-4.61,2.39-6.07c.81-2,1.76-4,2.64-6l11.93,5.47" style="fill:none;stroke:#fff;stroke-miterlimit:10"/><path d="M366.29,576.08l11.51,6.31c-1,1.77-1.85,3.59-2.79,5.38l-1.37,2.69-1.25,2.76-11.93-5.47" style="fill:none;stroke:#fff;stroke-miterlimit:10"/><polyline points="377.8 582.4 366.28 576.09 369.54 570.43 370.35 569.02 371.23 567.65 372.99 564.9 384.02 572.01" style="fill:none;stroke:#fff;stroke-miterlimit:10"/><path d="M380.37,554.18l10.51,7.87c-2.31,3.31-4.77,6.53-6.87,10l-11-7.11" style="fill:none;stroke:#fff;stroke-miterlimit:10"/><path d="M390.88,562.06l-10.51-7.87c2.7-3.4,5.3-6.9,8.21-10.12l9.93,8.58" style="fill:none;stroke:#fff;stroke-miterlimit:10"/><path d="M397.41,534.5l9.3,9.26c-2.78,2.94-5.63,5.8-8.21,8.91l-9.93-8.59" style="fill:none;stroke:#fff;stroke-miterlimit:10"/><path d="M406.7,543.77l-9.3-9.26c1.55-1.53,3.14-3,4.71-4.52.79-.74,1.55-1.52,2.37-2.23l2.47-2.13,8.63,9.89" style="fill:none;stroke:#fff;stroke-miterlimit:10"/><path d="M417.84,516.78l7.85,10.52c-3.16,2.51-6.42,4.9-9.42,7.62L407.7,525" style="fill:none;stroke:#fff;stroke-miterlimit:10"/><path d="M425.68,527.3l-7.85-10.52c3.55-2.5,7-5.11,10.74-7.39l7.1,11.05" style="fill:none;stroke:#fff;stroke-miterlimit:10"/><path d="M439.75,502.72,446,514.24c-3.49,2-7,4-10.39,6.21l-7.1-11" style="fill:none;stroke:#fff;stroke-miterlimit:10"/><path d="M446,514.24l-6.29-11.52c1.92-1,3.86-2,5.8-3,1-.49,1.92-1,2.91-1.47l3-1.34,5.46,11.93" style="fill:none;stroke:#fff;stroke-miterlimit:10"/><path d="M463.44,491.9,468,504.2l-5.63,2.22c-1.88.73-3.69,1.64-5.54,2.44l-5.46-11.93" style="fill:none;stroke:#fff;stroke-miterlimit:10"/><path d="M468,504.2l-4.59-12.29c2-.82,4.1-1.43,6.16-2.15l3.09-1.05c1-.34,2.08-.61,3.13-.92l3.71,12.6" style="fill:none;stroke:#fff;stroke-miterlimit:10"/><polyline points="488.42 484.56 491.22 497.38 485.32 498.74 479.5 500.39 475.78 487.8" style="fill:none;stroke:#fff;stroke-miterlimit:10"/><path d="M491.21,497.39l-2.8-12.83c2.11-.53,4.25-.89,6.4-1.27l3.21-.57c1.07-.2,2.14-.39,3.22-.51l1.89,13" style="fill:none;stroke:#fff;stroke-miterlimit:10"/><path d="M515.19,480.75l.9,13.1c-2,.16-4,.28-6,.48l-6,.76-1.82-13" style="fill:none;stroke:#fff;stroke-miterlimit:10"/><polyline points="516.08 493.85 515.18 480.75 518.43 480.51 521.69 480.42 528.21 480.27 528.19 493.4" style="fill:none;stroke:#fff;stroke-miterlimit:10"/><path d="M541.21,480.79l-.93,13.09-3-.23c-1-.07-2-.06-3-.1l-6.06-.15,0-13.13" style="fill:none;stroke:#fff;stroke-miterlimit:10"/><path d="M540.27,493.88l.93-13.09c2.16.18,4.34.28,6.5.54l6.47.82-1.86,13" style="fill:none;stroke:#fff;stroke-miterlimit:10"/><path d="M567,484.45l-2.77,12.83c-2-.5-4-.78-5.94-1.15s-4-.78-6-1l1.85-13" style="fill:none;stroke:#fff;stroke-miterlimit:10"/><path d="M564.2,497.28,567,484.45l6.36,1.46c2.11.53,4.19,1.17,6.28,1.75l-3.67,12.6" style="fill:none;stroke:#fff;stroke-miterlimit:10"/><path d="M592,491.72,587.42,504c-1.89-.71-3.82-1.31-5.72-2l-2.87-1-2.91-.82,3.67-12.6" style="fill:none;stroke:#fff;stroke-miterlimit:10"/><polyline points="587.41 504.02 591.98 491.71 598.05 494.11 599.56 494.71 601.05 495.37 604.02 496.72 598.6 508.67" style="fill:none;stroke:#fff;stroke-miterlimit:10"/><path d="M616.59,503l-6.33,11.5c-1.75-1-3.58-1.86-5.37-2.8l-2.69-1.38-2.76-1.25,5.49-11.92" style="fill:none;stroke:#fff;stroke-miterlimit:10"/><path d="M610.25,514.47l6.33-11.5,5.65,3.25c.95.53,1.87,1.11,2.78,1.7l2.75,1.76-7.12,11" style="fill:none;stroke:#fff;stroke-miterlimit:10"/><path d="M638.46,517.09l-7.88,10.5c-1.63-1.2-3.29-2.35-4.93-3.52-.83-.58-1.63-1.2-2.48-1.74l-2.55-1.63,7.12-11" style="fill:none;stroke:#fff;stroke-miterlimit:10"/><path d="M630.57,527.58l7.88-10.5c3.41,2.7,6.89,5.31,10.12,8.23l-8.6,9.92" style="fill:none;stroke:#fff;stroke-miterlimit:10"/><path d="M658.13,534.14l-9.28,9.29c-2.94-2.77-5.78-5.64-8.9-8.22l8.6-9.92" style="fill:none;stroke:#fff;stroke-miterlimit:10"/><path d="M648.85,543.42l9.27-9.29c3,3.16,6.08,6.22,8.87,9.57l-9.91,8.61" style="fill:none;stroke:#fff;stroke-miterlimit:10"/><polyline points="675.21 553.79 664.72 561.69 660.97 556.92 660.04 555.73 659.05 554.59 657.07 552.3 666.97 543.68" style="fill:none;stroke:#fff;stroke-miterlimit:10"/><path d="M664.71,561.68l10.49-7.9c1.3,1.74,2.53,3.54,3.8,5.3.63.89,1.27,1.76,1.88,2.67l1.76,2.74-11,7.14" style="fill:none;stroke:#fff;stroke-miterlimit:10"/><path d="M689.86,576.53l-11.53,6.28c-2-3.49-4-7-6.21-10.4l11.06-7.08" style="fill:none;stroke:#fff;stroke-miterlimit:10"/><path d="M678.32,582.8l11.53-6.28,3,5.8c1,1.92,1.91,3.91,2.8,5.89l-11.94,5.44" style="fill:none;stroke:#fff;stroke-miterlimit:10"/><path d="M700.64,600.23l-12.31,4.58-2.22-5.63c-.35-.95-.76-1.87-1.18-2.79l-1.25-2.76,11.94-5.44" style="fill:none;stroke:#fff;stroke-miterlimit:10"/><path d="M688.33,604.8l12.3-4.58c.79,2,1.42,4.11,2.14,6.16l1.05,3.1c.32,1,.6,2.08.9,3.13l-12.6,3.69" style="fill:none;stroke:#fff;stroke-miterlimit:10"/><path d="M707.94,625.23,695.11,628l-1.36-5.9c-.51-2-1.09-3.88-1.63-5.83l12.59-3.69" style="fill:none;stroke:#fff;stroke-miterlimit:10"/><path d="M695.11,628l12.83-2.79c.53,2.11.86,4.27,1.26,6.4l.57,3.22.28,1.6.21,1.62-13,1.87" style="fill:none;stroke:#fff;stroke-miterlimit:10"/><path d="M711.64,651l-13.1,1c-.18-2-.24-4-.51-6l-.76-6,13-1.87" style="fill:none;stroke:#fff;stroke-miterlimit:10"/><path d="M698.54,651.93l13.1-.95c.42,4.33.39,8.68.53,13L699,664" style="fill:none;stroke:#fff;stroke-miterlimit:10"/><circle cx="527.94" cy="664.5" r="200.71" style="fill:none;stroke:#fff;stroke-miterlimit:10"/></g><path d="M567.42,592.87a20.71,20.71,0,0,0-32.14,22.39Z" style="fill:#fff"/><path d="M488.76,592.87a20.73,20.73,0,0,1,32.14,22.39Z" style="fill:#fff"/><path d="M581.05,574.92v90.62a10,10,0,0,1-10,10H484.6a10,10,0,0,1-10-10V574.92" style="fill:#191919"/><path d="M581.05,574.92v90.62a10,10,0,0,1-10,10H484.6a10,10,0,0,1-10-10V574.92" style="fill:none;stroke:#fff;stroke-miterlimit:10"/><path d="M525.09,605.29a24.2,24.2,0,0,0-8.44-18.16,23.8,23.8,0,0,0-14.51-5.75v0h-27" style="fill:none;stroke:#fff;stroke-miterlimit:10"/><path d="M531.1,605.24a23.81,23.81,0,0,1,22.78-23.89v0h27" style="fill:none;stroke:#fff;stroke-miterlimit:10"/><rect x="474.6" y="568.65" width="106.46" height="6.88" style="fill:none;stroke:#fff;stroke-miterlimit:10"/><polyline points="502.67 633.21 474.6 633.21 474.6 585.58 502.67 585.58" style="fill:none;stroke:#fff;stroke-miterlimit:10"/><ellipse cx="501.61" cy="609.39" rx="23.84" ry="23.81" style="fill:none;stroke:#fff;stroke-miterlimit:10"/><ellipse cx="501.08" cy="609.39" rx="20.66" ry="20.64" style="fill:none;stroke:#fff;stroke-miterlimit:10"/><polyline points="553.51 633.21 581.06 633.21 581.06 585.58 553.51 585.58" style="fill:none;stroke:#fff;stroke-miterlimit:10"/><ellipse cx="554.57" cy="609.39" rx="23.84" ry="23.81" style="fill:none;stroke:#fff;stroke-miterlimit:10"/><ellipse cx="555.1" cy="609.39" rx="20.66" ry="20.64" style="fill:none;stroke:#fff;stroke-miterlimit:10"/><path d="M502.24,606.16a3.24,3.24,0,1,1-3.23,3.23,3.24,3.24,0,0,1,3.23-3.23m0-1a4.24,4.24,0,1,0,4.24,4.23,4.23,4.23,0,0,0-4.24-4.23Z" style="fill:#fff"/><path d="M554.15,606.16a3.24,3.24,0,1,1-3.24,3.23,3.24,3.24,0,0,1,3.24-3.23m0-1a4.24,4.24,0,1,0,4.24,4.23,4.24,4.24,0,0,0-4.24-4.23Z" style="fill:#fff"/><path d="M480.42,609.39a20.66,20.66,0,0,1,41.31,0" style="fill:none;stroke:#fff;stroke-miterlimit:10"/><path d="M534.47,609.34a20.66,20.66,0,0,1,41.31,0" style="fill:none;stroke:#fff;stroke-miterlimit:10"/><path d="M488.76,592.87a20.73,20.73,0,0,1,32.14,22.39Z" style="fill:none;stroke:#fff;stroke-miterlimit:10"/><path d="M567.42,592.87a20.71,20.71,0,0,0-32.14,22.39Z" style="fill:none;stroke:#fff;stroke-miterlimit:10"/><rect x="474.59" y="568.68" width="7.12" height="6.83" style="fill:none;stroke:#fff;stroke-miterlimit:10"/><rect x="488.78" y="568.68" width="7.12" height="6.83" style="fill:none;stroke:#fff;stroke-miterlimit:10"/><rect x="502.97" y="568.68" width="7.12" height="6.83" style="fill:none;stroke:#fff;stroke-miterlimit:10"/><rect x="517.16" y="568.68" width="7.12" height="6.83" style="fill:none;stroke:#fff;stroke-miterlimit:10"/><rect x="531.35" y="568.68" width="7.12" height="6.83" style="fill:none;stroke:#fff;stroke-miterlimit:10"/><rect x="545.54" y="568.68" width="7.12" height="6.83" style="fill:none;stroke:#fff;stroke-miterlimit:10"/><rect x="559.73" y="568.68" width="7.12" height="6.83" style="fill:none;stroke:#fff;stroke-miterlimit:10"/><rect x="573.92" y="568.68" width="7.12" height="6.83" style="fill:none;stroke:#fff;stroke-miterlimit:10"/><polygon points="536.49 640 527.78 633.32 519.01 640 501.83 640 527.83 660.42 553.67 640 536.49 640" style="fill:#f8b318;stroke:#fff;stroke-miterlimit:10"/><path d="M594.5,618.14a20.12,20.12,0,0,1,2.59.17h25.67c3.54,0,6.44,2.32,6.44,5.15s-2.9,5.16-6.44,5.16H622a5.12,5.12,0,0,1,3.33,4.5c0,2.84-2.89,5.16-6.44,5.16h-1.4a5.13,5.13,0,0,1,3.34,4.5c0,2.84-2.9,5.16-6.44,5.16h-1.93a20.32,20.32,0,1,1-18-29.8Z" style="fill:#1a1a1a"/><path d="M461.39,617.42a20.12,20.12,0,0,0-2.59.17H433.13c-3.54,0-6.44,2.31-6.44,5.15s2.9,5.15,6.44,5.15h.76a5.12,5.12,0,0,0-3.34,4.51c0,2.83,2.9,5.15,6.44,5.15h1.41a5.12,5.12,0,0,0-3.34,4.51c0,2.83,2.9,5.15,6.44,5.15h1.93a20.31,20.31,0,1,0,18-29.79Z" style="fill:#1a1a1a"/><path d="M461.39,617.42a20.12,20.12,0,0,0-2.59.17H433.13c-3.54,0-6.44,2.31-6.44,5.15s2.9,5.15,6.44,5.15h.76a5.12,5.12,0,0,0-3.34,4.51c0,2.83,2.9,5.15,6.44,5.15h1.41a5.12,5.12,0,0,0-3.34,4.51c0,2.83,2.9,5.15,6.44,5.15h1.93a20.31,20.31,0,1,0,18-29.79Z" style="fill:none;stroke:#fff;stroke-miterlimit:10"/><ellipse cx="461.52" cy="637.72" rx="9.83" ry="9.82" style="fill:none;stroke:#fff;stroke-miterlimit:10"/><ellipse cx="461.52" cy="637.72" rx="4.17" ry="4.17" style="fill:#f8b318;stroke:#fff;stroke-miterlimit:10"/><path d="M594.5,618.14a20.12,20.12,0,0,1,2.59.17h25.67c3.54,0,6.44,2.32,6.44,5.15s-2.9,5.16-6.44,5.16H622a5.12,5.12,0,0,1,3.33,4.5c0,2.84-2.89,5.16-6.44,5.16h-1.4a5.13,5.13,0,0,1,3.34,4.5c0,2.84-2.9,5.16-6.44,5.16h-1.93a20.32,20.32,0,1,1-18-29.8Z" style="fill:none;stroke:#fff;stroke-miterlimit:10"/><ellipse cx="594.36" cy="638.44" rx="9.83" ry="9.82" style="fill:none;stroke:#fff;stroke-miterlimit:10"/><ellipse cx="594.36" cy="638.44" rx="4.17" ry="4.17" style="fill:#f8b318;stroke:#fff;stroke-miterlimit:10"/></svg>