<svg id="e00115ef-ba70-437b-a99c-114a8882d8ff" data-name="Layer 1" xmlns="http://www.w3.org/2000/svg" xmlns:xlink="http://www.w3.org/1999/xlink" viewBox="0 0 400 400"><defs><clipPath id="e54b5d3e-56b7-4551-b6f1-bef22b4ec77e"><polygon points="499.63 38.98 199.44 339.16 -100.74 38.98 193.97 30.39 499.63 38.98" style="fill:none"/></clipPath><clipPath id="b3a546b0-0492-4b4d-abb2-1f33e11cb68b"><path d="M199.44,166.44A172.72,172.72,0,1,0,372.17,339.16,172.72,172.72,0,0,0,199.44,166.44Zm0,323.64A150.92,150.92,0,1,1,350.36,339.16,150.92,150.92,0,0,1,199.44,490.08Z" style="fill:none"/></clipPath></defs><g style="clip-path:url(#e54b5d3e-56b7-4551-b6f1-bef22b4ec77e)"><circle cx="199.44" cy="339.16" r="272.26" style="fill:#1a1a1a"/><circle cx="199.44" cy="339.16" r="272.26" style="fill:#1a1a1a"/><circle cx="199.44" cy="339.16" r="272.26" style="fill:#1a1a1a"/><circle cx="199.44" cy="339.16" r="272.26" style="fill:#1a1a1a"/><g style="clip-path:url(#b3a546b0-0492-4b4d-abb2-1f33e11cb68b)"><circle cx="199.44" cy="339.16" r="178.49" style="fill:none;stroke:#fff;stroke-miterlimit:10"/><line x1="199.44" y1="339.16" x2="199.44" y2="517.65" style="fill:none;stroke:#fff;stroke-miterlimit:10"/><line x1="199.44" y1="339.16" x2="227.37" y2="515.45" style="fill:none;stroke:#fff;stroke-miterlimit:10"/><line x1="199.44" y1="339.16" x2="254.6" y2="508.92" style="fill:none;stroke:#fff;stroke-miterlimit:10"/><line x1="199.44" y1="339.16" x2="280.48" y2="498.2" style="fill:none;stroke:#fff;stroke-miterlimit:10"/><line x1="199.44" y1="339.16" x2="304.36" y2="483.56" style="fill:none;stroke:#fff;stroke-miterlimit:10"/><line x1="199.44" y1="339.16" x2="325.66" y2="465.37" style="fill:none;stroke:#fff;stroke-miterlimit:10"/><line x1="199.44" y1="339.16" x2="343.85" y2="444.08" style="fill:none;stroke:#fff;stroke-miterlimit:10"/><line x1="199.44" y1="339.16" x2="358.48" y2="420.19" style="fill:none;stroke:#fff;stroke-miterlimit:10"/><line x1="199.44" y1="339.16" x2="369.2" y2="394.32" style="fill:none;stroke:#fff;stroke-miterlimit:10"/><line x1="199.44" y1="339.16" x2="375.74" y2="367.08" style="fill:none;stroke:#fff;stroke-miterlimit:10"/><line x1="199.44" y1="339.16" x2="377.93" y2="339.16" style="fill:none;stroke:#fff;stroke-miterlimit:10"/><line x1="199.44" y1="339.16" x2="375.74" y2="311.24" style="fill:none;stroke:#fff;stroke-miterlimit:10"/><line x1="199.44" y1="339.16" x2="369.2" y2="284.01" style="fill:none;stroke:#fff;stroke-miterlimit:10"/><line x1="199.44" y1="339.16" x2="358.48" y2="258.13" style="fill:none;stroke:#fff;stroke-miterlimit:10"/><line x1="199.44" y1="339.16" x2="343.85" y2="234.25" style="fill:none;stroke:#fff;stroke-miterlimit:10"/><line x1="199.44" y1="339.16" x2="325.66" y2="212.95" style="fill:none;stroke:#fff;stroke-miterlimit:10"/><line x1="199.44" y1="339.16" x2="304.36" y2="194.76" style="fill:none;stroke:#fff;stroke-miterlimit:10"/><line x1="199.44" y1="339.16" x2="280.48" y2="180.13" style="fill:none;stroke:#fff;stroke-miterlimit:10"/><line x1="199.44" y1="339.16" x2="254.6" y2="169.41" style="fill:none;stroke:#fff;stroke-miterlimit:10"/><line x1="199.44" y1="339.16" x2="227.37" y2="162.87" style="fill:none;stroke:#fff;stroke-miterlimit:10"/><line x1="199.44" y1="339.16" x2="199.44" y2="160.67" style="fill:none;stroke:#fff;stroke-miterlimit:10"/><line x1="199.44" y1="339.16" x2="171.52" y2="162.87" style="fill:none;stroke:#fff;stroke-miterlimit:10"/><line x1="199.44" y1="339.16" x2="144.29" y2="169.41" style="fill:none;stroke:#fff;stroke-miterlimit:10"/><line x1="199.44" y1="339.16" x2="118.41" y2="180.13" style="fill:none;stroke:#fff;stroke-miterlimit:10"/><line x1="199.44" y1="339.16" x2="94.53" y2="194.76" style="fill:none;stroke:#fff;stroke-miterlimit:10"/><line x1="199.44" y1="339.16" x2="73.23" y2="212.95" style="fill:none;stroke:#fff;stroke-miterlimit:10"/><line x1="199.44" y1="339.16" x2="55.04" y2="234.25" style="fill:none;stroke:#fff;stroke-miterlimit:10"/><line x1="199.44" y1="339.16" x2="40.41" y2="258.13" style="fill:none;stroke:#fff;stroke-miterlimit:10"/><line x1="199.44" y1="339.16" x2="29.69" y2="284.01" style="fill:none;stroke:#fff;stroke-miterlimit:10"/><line x1="199.44" y1="339.16" x2="23.15" y2="311.24" style="fill:none;stroke:#fff;stroke-miterlimit:10"/><line x1="199.44" y1="339.16" x2="20.96" y2="339.16" style="fill:none;stroke:#fff;stroke-miterlimit:10"/><line x1="199.44" y1="339.16" x2="23.15" y2="367.08" style="fill:none;stroke:#fff;stroke-miterlimit:10"/><line x1="199.44" y1="339.16" x2="29.69" y2="394.32" style="fill:none;stroke:#fff;stroke-miterlimit:10"/><line x1="199.44" y1="339.16" x2="40.41" y2="420.19" style="fill:none;stroke:#fff;stroke-miterlimit:10"/><line x1="199.44" y1="339.16" x2="55.04" y2="444.08" style="fill:none;stroke:#fff;stroke-miterlimit:10"/><line x1="199.44" y1="339.16" x2="73.23" y2="465.37" style="fill:none;stroke:#fff;stroke-miterlimit:10"/><line x1="199.44" y1="339.16" x2="94.53" y2="483.56" style="fill:none;stroke:#fff;stroke-miterlimit:10"/><line x1="199.44" y1="339.16" x2="118.41" y2="498.2" style="fill:none;stroke:#fff;stroke-miterlimit:10"/><line x1="199.44" y1="339.16" x2="144.29" y2="508.92" style="fill:none;stroke:#fff;stroke-miterlimit:10"/><line x1="199.44" y1="339.16" x2="171.52" y2="515.45" style="fill:none;stroke:#fff;stroke-miterlimit:10"/></g><circle cx="199.44" cy="339.16" r="150.92" style="fill:none;stroke:#fff;stroke-miterlimit:10"/><circle cx="199.44" cy="339.16" r="172.72" style="fill:none;stroke:#fff;stroke-miterlimit:10"/><path d="M-10.22,222.83l11.48,6.38c-1.09,1.8-2,3.69-3,5.56l-2.88,5.61-11.81-5.73" style="fill:none;stroke:#fff;stroke-miterlimit:10"/><path d="M1.25,229.22l-11.47-6.38C-8,219-5.89,215.07-3.41,211.38l11.11,7" style="fill:none;stroke:#fff;stroke-miterlimit:10"/><path d="M4,200.33l10.7,7.61c-1.2,1.72-2.47,3.4-3.63,5.16l-3.4,5.31-11.1-7" style="fill:none;stroke:#fff;stroke-miterlimit:10"/><path d="M14.7,208,4,200.34c1.3-1.8,2.54-3.65,3.9-5.41L12,189.69l10.26,8.19" style="fill:none;stroke:#fff;stroke-miterlimit:10"/><path d="M20.6,179.51l9.79,8.74L26.27,193c-.68.8-1.4,1.57-2.05,2.4l-1.95,2.48L12,189.71" style="fill:none;stroke:#fff;stroke-miterlimit:10"/><path d="M30.39,188.26l-9.79-8.75c1.42-1.71,3-3.27,4.52-4.89l4.61-4.82L39,179.07" style="fill:none;stroke:#fff;stroke-miterlimit:10"/><polyline points="39.41 160.66 48.17 170.43 46.98 171.46 45.84 172.55 43.56 174.73 39.01 179.08 29.71 169.81" style="fill:none;stroke:#fff;stroke-miterlimit:10"/><polyline points="48.16 170.43 39.4 160.66 44.44 156.29 46.96 154.12 49.58 152.05 57.79 162.29" style="fill:none;stroke:#fff;stroke-miterlimit:10"/><path d="M61,143.42l7.59,10.72c-1.71,1.22-3.44,2.41-5.13,3.66l-5,3.9-8.17-10.27" style="fill:none;stroke:#fff;stroke-miterlimit:10"/><path d="M68.62,154.14,61,143.43l2.72-1.93c.91-.65,1.81-1.3,2.76-1.88l5.61-3.6,7,11.12" style="fill:none;stroke:#fff;stroke-miterlimit:10"/><path d="M83.58,129.23l6.35,11.49-5.47,3.15c-.9.52-1.82,1-2.72,1.57l-2.66,1.71L72.1,136" style="fill:none;stroke:#fff;stroke-miterlimit:10"/><path d="M89.92,140.73l-6.35-11.49c1.9-1.15,3.92-2.08,5.89-3.12l5.94-3,5.7,11.83" style="fill:none;stroke:#fff;stroke-miterlimit:10"/><polyline points="107.56 117.66 112.59 129.78 111.13 130.37 109.69 131.02 106.82 132.32 101.08 134.92 95.38 123.09" style="fill:none;stroke:#fff;stroke-miterlimit:10"/><polyline points="112.58 129.79 107.55 117.67 113.76 115.22 116.86 114 120.02 112.92 124.36 125.3" style="fill:none;stroke:#fff;stroke-miterlimit:10"/><path d="M132.7,108.87l3.65,12.61c-4.07,1.06-8,2.5-12,3.83L120,112.93" style="fill:none;stroke:#fff;stroke-miterlimit:10"/><path d="M136.34,121.49l-3.65-12.61,6.42-1.82c2.15-.55,4.33-1,6.49-1.53l2.94,12.8" style="fill:none;stroke:#fff;stroke-miterlimit:10"/><path d="M159.68,102.73l2.16,13c-4.13.75-8.29,1.39-12.36,2.43l-2.89-12.81" style="fill:none;stroke:#fff;stroke-miterlimit:10"/><polyline points="161.83 115.68 159.67 102.73 162.95 102.15 166.26 101.73 172.88 100.89 174.31 113.94" style="fill:none;stroke:#fff;stroke-miterlimit:10"/><path d="M186.14,99.77l.72,13.11-6.29.48c-2.09.18-4.2.26-6.28.58l-1.44-13" style="fill:none;stroke:#fff;stroke-miterlimit:10"/><path d="M186.85,112.88l-.72-13.11c4.44-.21,8.88-.25,13.33-.38v13.13" style="fill:none;stroke:#fff;stroke-miterlimit:10"/><path d="M212.76,99.77,212,112.88c-4.2-.2-8.4-.23-12.61-.36V99.39" style="fill:none;stroke:#fff;stroke-miterlimit:10"/><path d="M212,112.88l.72-13.11,6.65.51c2.21.18,4.44.28,6.64.61l-1.44,13" style="fill:none;stroke:#fff;stroke-miterlimit:10"/><polyline points="239.22 102.73 237.06 115.68 233.96 115.13 230.83 114.73 224.57 113.94 226.01 100.89" style="fill:none;stroke:#fff;stroke-miterlimit:10"/><path d="M237.05,115.68l2.16-13c4.37.8,8.77,1.48,13.09,2.57l-2.89,12.81" style="fill:none;stroke:#fff;stroke-miterlimit:10"/><path d="M266.2,108.88l-3.65,12.61-6.06-1.73c-2-.51-4.1-1-6.14-1.43l2.94-12.8" style="fill:none;stroke:#fff;stroke-miterlimit:10"/><path d="M262.54,121.48l3.65-12.61c4.3,1.13,8.49,2.64,12.71,4.06l-4.35,12.38" style="fill:none;stroke:#fff;stroke-miterlimit:10"/><polyline points="291.34 117.67 286.3 129.79 280.44 127.48 277.51 126.32 274.53 125.3 278.87 112.92" style="fill:none;stroke:#fff;stroke-miterlimit:10"/><polyline points="286.29 129.78 291.33 117.66 292.88 118.28 294.4 118.96 297.44 120.34 303.51 123.09 297.81 134.92" style="fill:none;stroke:#fff;stroke-miterlimit:10"/><path d="M315.32,129.24,309,140.73c-1.8-1.1-3.72-2-5.57-2.95l-5.61-2.87,5.7-11.83" style="fill:none;stroke:#fff;stroke-miterlimit:10"/><path d="M309,140.72l6.35-11.49,5.79,3.33c1,.56,1.93,1.1,2.88,1.67l2.81,1.8-7,11.12" style="fill:none;stroke:#fff;stroke-miterlimit:10"/><path d="M337.86,143.43l-7.59,10.71-2.57-1.83c-.86-.61-1.71-1.22-2.6-1.77l-5.31-3.4,7-11.12" style="fill:none;stroke:#fff;stroke-miterlimit:10"/><path d="M330.26,154.14l7.59-10.72c1.8,1.3,3.63,2.56,5.42,3.89l5.24,4.12-8.17,10.27" style="fill:none;stroke:#fff;stroke-miterlimit:10"/><polyline points="359.49 160.66 350.73 170.43 345.96 166.31 343.58 164.24 341.1 162.29 349.31 152.05" style="fill:none;stroke:#fff;stroke-miterlimit:10"/><polyline points="350.72 170.43 359.49 160.66 360.74 161.75 361.95 162.9 364.36 165.2 369.18 169.81 359.88 179.08" style="fill:none;stroke:#fff;stroke-miterlimit:10"/><path d="M378.29,179.51l-9.79,8.75c-1.34-1.62-2.84-3.09-4.28-4.63l-4.35-4.56,9.29-9.27" style="fill:none;stroke:#fff;stroke-miterlimit:10"/><path d="M368.49,188.25l9.79-8.74,4.37,5c.72.84,1.48,1.66,2.16,2.53l2.06,2.63-10.25,8.19" style="fill:none;stroke:#fff;stroke-miterlimit:10"/><path d="M394.88,200.34,384.19,208c-1.24-1.7-2.4-3.45-3.69-5.11l-3.9-5,10.26-8.19" style="fill:none;stroke:#fff;stroke-miterlimit:10"/><path d="M384.18,207.94l10.7-7.61c1.27,1.82,2.6,3.6,3.83,5.46l3.6,5.61-11.1,7" style="fill:none;stroke:#fff;stroke-miterlimit:10"/><path d="M409.11,222.84l-11.47,6.38c-2.13-3.62-4.09-7.34-6.45-10.83l11.11-7" style="fill:none;stroke:#fff;stroke-miterlimit:10"/><path d="M397.63,229.21l11.48-6.38c1.14,1.91,2.12,3.91,3.14,5.88l3,5.94-11.81,5.73" style="fill:none;stroke:#fff;stroke-miterlimit:10"/><circle cx="199.44" cy="339.16" r="263.45" style="fill:none;stroke:#fff;stroke-miterlimit:10"/></g><path d="M251.27,245.15a27.18,27.18,0,0,0-42.19,29.38Z" style="fill:#fff"/><path d="M148,245.15a27.19,27.19,0,0,1,43.22,21.93,27.35,27.35,0,0,1-1,7.45Z" style="fill:#fff"/><path d="M269.15,221.58V343.65a10,10,0,0,1-10,10H139.42a10,10,0,0,1-10-10V221.58" style="fill:#191919"/><path d="M269.15,221.58V343.65a10,10,0,0,1-10,10H139.42a10,10,0,0,1-10-10V221.58" style="fill:none;stroke:#fff;stroke-miterlimit:10"/><path d="M195.7,261.45a31.75,31.75,0,0,0-11.08-23.84,31.18,31.18,0,0,0-19.05-7.56v0H130.12" style="fill:none;stroke:#fff;stroke-miterlimit:10"/><path d="M203.59,261.38A31.28,31.28,0,0,1,233.48,230v0h35.46" style="fill:none;stroke:#fff;stroke-miterlimit:10"/><rect x="129.42" y="213.35" width="139.74" height="9.03" style="fill:none;stroke:#fff;stroke-miterlimit:10"/><polyline points="166.27 298.08 129.43 298.08 129.43 235.57 166.27 235.57" style="fill:none;stroke:#fff;stroke-miterlimit:10"/><ellipse cx="164.88" cy="266.83" rx="31.29" ry="31.25" style="fill:none;stroke:#fff;stroke-miterlimit:10"/><ellipse cx="164.18" cy="266.83" rx="27.11" ry="27.09" style="fill:none;stroke:#fff;stroke-miterlimit:10"/><polyline points="233.01 298.08 269.16 298.08 269.16 235.57 233.01 235.57" style="fill:none;stroke:#fff;stroke-miterlimit:10"/><ellipse cx="234.4" cy="266.83" rx="31.29" ry="31.25" style="fill:none;stroke:#fff;stroke-miterlimit:10"/><ellipse cx="235.1" cy="266.83" rx="27.11" ry="27.09" style="fill:none;stroke:#fff;stroke-miterlimit:10"/><path d="M165.71,262.27a4.56,4.56,0,1,1-4.56,4.56,4.56,4.56,0,0,1,4.56-4.56m0-1a5.56,5.56,0,1,0,5.56,5.56,5.56,5.56,0,0,0-5.56-5.56Z" style="fill:#fff"/><path d="M233.85,262.27a4.56,4.56,0,1,1-4.57,4.56,4.57,4.57,0,0,1,4.57-4.56m0-1a5.56,5.56,0,1,0,5.56,5.56,5.56,5.56,0,0,0-5.56-5.56Z" style="fill:#fff"/><path d="M137.07,266.83a27.12,27.12,0,0,1,54.23,0" style="fill:none;stroke:#fff;stroke-miterlimit:10"/><path d="M208,266.76a27.12,27.12,0,0,1,54.23,0" style="fill:none;stroke:#fff;stroke-miterlimit:10"/><path d="M148,245.15a27.19,27.19,0,0,1,43.22,21.93,27.35,27.35,0,0,1-1,7.45Z" style="fill:none;stroke:#fff;stroke-miterlimit:10"/><path d="M251.27,245.15a27.18,27.18,0,0,0-42.19,29.38Z" style="fill:none;stroke:#fff;stroke-miterlimit:10"/><rect x="129.41" y="213.39" width="9.34" height="8.96" style="fill:none;stroke:#fff;stroke-miterlimit:10"/><rect x="148.04" y="213.39" width="9.34" height="8.96" style="fill:none;stroke:#fff;stroke-miterlimit:10"/><rect x="166.66" y="213.39" width="9.34" height="8.96" style="fill:none;stroke:#fff;stroke-miterlimit:10"/><rect x="185.29" y="213.39" width="9.34" height="8.96" style="fill:none;stroke:#fff;stroke-miterlimit:10"/><rect x="203.91" y="213.39" width="9.34" height="8.96" style="fill:none;stroke:#fff;stroke-miterlimit:10"/><rect x="222.54" y="213.39" width="9.34" height="8.96" style="fill:none;stroke:#fff;stroke-miterlimit:10"/><rect x="241.17" y="213.39" width="9.34" height="8.96" style="fill:none;stroke:#fff;stroke-miterlimit:10"/><rect x="259.79" y="213.39" width="9.34" height="8.96" style="fill:none;stroke:#fff;stroke-miterlimit:10"/><polygon points="210.67 306.99 199.23 298.23 187.72 306.99 165.17 306.99 199.3 333.81 233.22 306.99 210.67 306.99" style="fill:#f8b318;stroke:#fff;stroke-miterlimit:10"/><path d="M286.8,278.31a27.51,27.51,0,0,1,3.41.22H323.9c4.65,0,8.45,3.05,8.45,6.77s-3.8,6.76-8.45,6.76h-1c2.6,1.15,4.38,3.38,4.38,5.92,0,3.72-3.81,6.76-8.45,6.76H317c2.61,1.15,4.38,3.38,4.38,5.92,0,3.72-3.8,6.76-8.45,6.76h-2.53a26.67,26.67,0,1,1-23.58-39.11Z" style="fill:#1a1a1a"/><path d="M112.09,277.36a27.38,27.38,0,0,0-3.41.22H75c-4.65,0-8.45,3-8.45,6.76s3.8,6.77,8.45,6.77h1c-2.6,1.15-4.38,3.37-4.38,5.91,0,3.72,3.81,6.77,8.45,6.77h1.85c-2.61,1.15-4.38,3.37-4.38,5.91,0,3.72,3.8,6.77,8.45,6.77h2.53a26.67,26.67,0,1,0,23.58-39.11Z" style="fill:#1a1a1a"/><path d="M112.09,277.36a27.38,27.38,0,0,0-3.41.22H75c-4.65,0-8.45,3-8.45,6.76s3.8,6.77,8.45,6.77h1c-2.6,1.15-4.38,3.37-4.38,5.91,0,3.72,3.81,6.77,8.45,6.77h1.85c-2.61,1.15-4.38,3.37-4.38,5.91,0,3.72,3.8,6.77,8.45,6.77h2.53a26.67,26.67,0,1,0,23.58-39.11Z" style="fill:none;stroke:#fff;stroke-miterlimit:10"/><ellipse cx="112.26" cy="304" rx="12.91" ry="12.89" style="fill:none;stroke:#fff;stroke-miterlimit:10"/><ellipse cx="112.26" cy="304" rx="5.48" ry="5.47" style="fill:#f8b318;stroke:#fff;stroke-miterlimit:10"/><path d="M286.8,278.31a27.51,27.51,0,0,1,3.41.22H323.9c4.65,0,8.45,3.05,8.45,6.77s-3.8,6.76-8.45,6.76h-1c2.6,1.15,4.38,3.38,4.38,5.92,0,3.72-3.81,6.76-8.45,6.76H317c2.61,1.15,4.38,3.38,4.38,5.92,0,3.72-3.8,6.76-8.45,6.76h-2.53a26.67,26.67,0,1,1-23.58-39.11Z" style="fill:none;stroke:#fff;stroke-miterlimit:10"/><ellipse cx="286.63" cy="304.96" rx="12.91" ry="12.89" style="fill:none;stroke:#fff;stroke-miterlimit:10"/><ellipse cx="286.63" cy="304.96" rx="5.48" ry="5.47" style="fill:#f8b318;stroke:#fff;stroke-miterlimit:10"/></svg>