<svg id="b62c7705-132e-426b-83f4-ecddad954c1e" data-name="Layer 1" xmlns="http://www.w3.org/2000/svg" xmlns:xlink="http://www.w3.org/1999/xlink" viewBox="0 0 1080 1080"><defs><clipPath id="a98a3807-9686-442d-8009-16236289aa36"><rect x="294.76" y="372.97" width="490.47" height="315.98" style="fill:none"/></clipPath><clipPath id="fb7ba186-9b9c-4bfb-8075-b59c11ab18c3"><path d="M547.05,558.32A130.88,130.88,0,1,0,677.93,689.2,130.87,130.87,0,0,0,547.05,558.32Zm0,245.23A114.36,114.36,0,1,1,661.4,689.2,114.36,114.36,0,0,1,547.05,803.55Z" style="fill:none"/></clipPath></defs><g style="clip-path:url(#a98a3807-9686-442d-8009-16236289aa36)"><circle cx="547.05" cy="689.2" r="206.31" style="fill:#1a1a1a"/><circle cx="547.05" cy="689.2" r="206.31" style="fill:#1a1a1a"/><circle cx="547.05" cy="689.2" r="206.31" style="fill:#1a1a1a"/><circle cx="547.05" cy="689.2" r="206.31" style="fill:#1a1a1a"/><g style="clip-path:url(#fb7ba186-9b9c-4bfb-8075-b59c11ab18c3)"><path d="M547.05,824.75a135.46,135.46,0,1,1,95.87-39.68A134.69,134.69,0,0,1,547.05,824.75Zm0-270.5c-74.42,0-134.95,60.53-134.95,135s60.53,134.95,134.95,134.95S682,763.61,682,689.2,621.46,554.25,547.05,554.25Z" style="fill:#fff"/><rect x="546.75" y="689.2" width="0.6" height="135.25" style="fill:#fff"/><rect x="557.33" y="688.36" width="0.6" height="135.25" transform="translate(-111.4 96.54) rotate(-9)" style="fill:#fff"/><rect x="567.65" y="685.89" width="0.6" height="135.25" transform="translate(-205.05 212.38) rotate(-18)" style="fill:#fff"/><rect x="577.45" y="681.83" width="0.6" height="135.25" transform="translate(-277.27 343.98) rotate(-27)" style="fill:#fff"/><rect x="586.5" y="676.28" width="0.6" height="135.25" transform="translate(-325.19 486.98) rotate(-36)" style="fill:#fff"/><rect x="594.57" y="669.39" width="0.6" height="135.25" transform="translate(-346.92 636.5) rotate(-45)" style="fill:#fff"/><rect x="601.46" y="661.32" width="0.6" height="135.25" transform="translate(-341.68 787.31) rotate(-54)" style="fill:#fff"/><rect x="607" y="652.27" width="0.6" height="135.25" transform="translate(-309.84 934.18) rotate(-63)" style="fill:#fff"/><rect x="611.06" y="642.47" width="0.6" height="135.25" transform="translate(-252.9 1072.1) rotate(-72)" style="fill:#fff"/><rect x="613.54" y="632.15" width="0.6" height="135.25" transform="translate(-173.35 1196.59) rotate(-81)" style="fill:#fff"/><rect x="547.05" y="688.9" width="135.25" height="0.6" style="fill:#fff"/><rect x="546.21" y="678.32" width="135.25" height="0.6" transform="translate(-98.53 104.29) rotate(-8.99)" style="fill:#fff"/><rect x="543.74" y="668" width="135.25" height="0.6" transform="translate(-176.4 221.28) rotate(-17.97)" style="fill:#fff"/><rect x="539.68" y="658.2" width="135.25" height="0.6" transform="translate(-232.84 347.71) rotate(-27.02)" style="fill:#fff"/><rect x="534.13" y="649.15" width="135.25" height="0.6" transform="translate(-266.87 478.03) rotate(-36.02)" style="fill:#fff"/><rect x="527.24" y="641.08" width="135.25" height="0.6" transform="translate(-279.29 608.49) rotate(-45)" style="fill:#fff"/><rect x="519.17" y="634.19" width="135.25" height="0.6" transform="translate(-271.46 735.99) rotate(-53.98)" style="fill:#fff"/><rect x="510.12" y="628.64" width="135.25" height="0.6" transform="translate(-245 857.96) rotate(-62.98)" style="fill:#fff"/><rect x="500.32" y="624.58" width="135.25" height="0.6" transform="translate(-201.71 972.27) rotate(-72.03)" style="fill:#fff"/><rect x="490" y="622.11" width="135.25" height="0.6" transform="translate(-144.29 1075.89) rotate(-81.01)" style="fill:#fff"/><rect x="546.75" y="553.95" width="0.6" height="135.25" style="fill:#fff"/><rect x="536.17" y="554.78" width="0.6" height="135.25" transform="translate(-90.76 91.58) rotate(-9)" style="fill:#fff"/><rect x="525.85" y="557.26" width="0.6" height="135.25" transform="matrix(0.95, -0.31, 0.31, 0.95, -167.35, 193.17)" style="fill:#fff"/><rect x="516.05" y="561.32" width="0.6" height="135.25" transform="translate(-229.26 302.97) rotate(-27)" style="fill:#fff"/><rect x="507" y="566.86" width="0.6" height="135.25" transform="translate(-276.06 419.36) rotate(-36)" style="fill:#fff"/><rect x="498.93" y="573.75" width="0.6" height="135.25" transform="translate(-307.3 540.86) rotate(-45)" style="fill:#fff"/><rect x="492.04" y="581.82" width="0.6" height="135.25" transform="translate(-322.47 666.02) rotate(-54)" style="fill:#fff"/><rect x="486.49" y="590.87" width="0.6" height="135.25" transform="translate(-320.93 793.28) rotate(-63)" style="fill:#fff"/><rect x="482.43" y="600.67" width="0.6" height="135.25" transform="translate(-302.03 920.89) rotate(-72)" style="fill:#fff"/><rect x="479.96" y="610.99" width="0.6" height="135.25" transform="translate(-265.14 1046.8) rotate(-81)" style="fill:#fff"/><rect x="411.8" y="688.9" width="135.25" height="0.6" style="fill:#fff"/><rect x="412.63" y="699.48" width="135.25" height="0.6" transform="translate(-103.48 83.67) rotate(-8.99)" style="fill:#fff"/><rect x="415.11" y="709.8" width="135.25" height="0.6" transform="translate(-195.57 183.63) rotate(-17.97)" style="fill:#fff"/><rect x="419.17" y="719.6" width="135.25" height="0.6" transform="translate(-273.88 299.67) rotate(-27.02)" style="fill:#fff"/><rect x="424.71" y="728.65" width="135.25" height="0.6" transform="translate(-334.54 428.88) rotate(-36.02)" style="fill:#fff"/><rect x="431.6" y="736.72" width="135.25" height="0.6" transform="translate(-374.93 568.87) rotate(-45)" style="fill:#fff"/><rect x="439.67" y="743.61" width="135.25" height="0.6" transform="translate(-392.71 716.76) rotate(-53.98)" style="fill:#fff"/><rect x="448.72" y="749.15" width="135.25" height="0.6" transform="translate(-385.87 869.03) rotate(-62.98)" style="fill:#fff"/><rect x="458.52" y="753.21" width="135.25" height="0.6" transform="translate(-352.95 1021.45) rotate(-72.03)" style="fill:#fff"/><rect x="468.84" y="755.69" width="135.25" height="0.6" transform="translate(-294.09 1167.69) rotate(-81.01)" style="fill:#fff"/></g><path d="M547.05,803.85A114.66,114.66,0,1,1,661.7,689.2,114.79,114.79,0,0,1,547.05,803.85Zm0-228.71A114.06,114.06,0,1,0,661.11,689.2,114.18,114.18,0,0,0,547.05,575.14Z" style="fill:#fff"/><path d="M547.05,820.37A131.17,131.17,0,1,1,639.8,782,130.31,130.31,0,0,1,547.05,820.37Zm0-261.75a130.58,130.58,0,1,0,0,261.16c72,0,130.58-58.58,130.58-130.58A130.72,130.72,0,0,0,547.05,558.62Z" style="fill:#fff"/><polygon points="727.46 697.6 719.34 697.24 719.54 689.18 727.67 689.2 727.67 689.79 720.13 689.78 719.95 696.67 727.49 697.01 727.46 697.6" style="fill:#fff"/><path d="M727.22,705.42l-8.11-.71,0-.6,7.51.66.27-3.6L727,700c.06-.8.13-1.62.14-2.44l-7.54-.33,0-.6,8.11.36v.29c0,.93-.07,1.87-.15,2.77,0,.38-.06.77-.08,1.15Z" style="fill:#fff"/><path d="M726.05,713.14l-8.06-1,0-.3c.08-.63.16-1.27.25-1.91.23-1.8.47-3.66.57-5.5l0-.31,8.11.71-.05.6-7.5-.66c-.11,1.76-.34,3.53-.56,5.24l-.21,1.61,7.48,1Z" style="fill:#fff"/><polygon points="725.15 720.91 717.14 719.51 717.24 718.92 724.67 720.22 725.3 716.66 725.76 713.1 718.28 712.12 718.36 711.53 726.42 712.58 725.89 716.75 725.15 720.91" style="fill:#fff"/><path d="M723.34,728.51l-8-1.75.07-.3c.47-1.85.81-3.76,1.13-5.6.1-.57.21-1.15.31-1.71l.05-.3,8,1.41-.1.58-7.43-1.3c-.08.48-.16,1-.25,1.42-.31,1.76-.63,3.57-1.06,5.35l7.35,1.62Z" style="fill:#fff"/><path d="M721.78,736.17l-7.85-2.09.15-.58,7.29,2c.31-1.06.56-2.15.8-3.21l.88-3.8-7.36-1.62.13-.59,7.95,1.75-1,4.4c-.26,1.16-.53,2.35-.89,3.52Z" style="fill:#fff"/><path d="M719.33,743.59l-7.76-2.43.09-.28c.46-1.51.89-3.06,1.31-4.56l.75-2.62.08-.28,7.86,2.09-.16.58-7.29-2-.66,2.34c-.4,1.41-.81,2.86-1.23,4.29l7.19,2.26Z" style="fill:#fff"/><polygon points="717.1 751.09 709.45 748.32 709.65 747.76 716.73 750.32 719.04 743.5 711.86 741.24 712.04 740.67 719.81 743.11 717.1 751.09" style="fill:#fff"/><polygon points="713.75 758.82 706.24 755.7 709.2 748.2 716.83 750.99 716.63 751.55 709.54 748.96 707.01 755.37 713.98 758.27 713.75 758.82" style="fill:#fff"/><polygon points="710.84 766.08 703.47 762.63 703.72 762.09 710.54 765.28 713.23 759.33 713.48 758.7 706.52 755.8 706.75 755.25 714.25 758.38 713.78 759.56 710.84 766.08" style="fill:#fff"/><polygon points="707.09 772.93 699.88 769.17 702.57 763.91 703.45 761.95 710.83 765.4 710.57 765.94 703.75 762.75 703.1 764.17 700.68 768.91 707.36 772.4 707.09 772.93" style="fill:#fff"/><polygon points="703.57 779.92 696.52 775.84 696.82 775.33 703.35 779.1 705.63 775.12 706.83 772.79 700.14 769.3 700.42 768.77 707.63 772.54 706.15 775.41 703.57 779.92" style="fill:#fff"/><polygon points="699.25 786.43 692.39 782.05 694.57 778.65 696.57 775.16 703.61 779.24 703.31 779.75 696.79 775.98 695.08 778.96 693.21 781.87 699.57 785.92 699.25 786.43" style="fill:#fff"/><path d="M695.14,793.08l-6.66-4.66.34-.49,6.18,4.32,1-1.35c.31-.43.72-1,1.09-1.6l2-3-6.36-4,.32-.51,6.86,4.38-2.27,3.54c-.37.61-.79,1.19-1.11,1.63Z" style="fill:#fff"/><path d="M690.28,799.2l-6.45-5,1.34-1.71.69-1,.39-.55,2.34-3.28,6.66,4.66-.34.49-6.18-4.32-2,2.8-.39.54-.71,1-1,1.23,6,4.59Z" style="fill:#fff"/><path d="M685.62,805.48l-6.23-5.22.39-.46,5.78,4.85c.57-.65,1.11-1.34,1.63-2l.63-.81,2.23-2.83-6-4.58.36-.48,6.46,4.95-2.6,3.31-.63.8c-.58.75-1.19,1.53-1.84,2.25Z" style="fill:#fff"/><polygon points="679.85 811.61 673.86 806.1 674.71 805.2 679.18 800.04 685.4 805.28 685.01 805.74 679.25 800.88 675.15 805.6 674.71 806.07 680.25 811.17 679.85 811.61" style="fill:#fff"/><polygon points="674.66 817.46 668.91 811.7 669.33 811.28 674.65 816.61 679.63 811.4 674.09 806.3 674.49 805.86 680.48 811.37 674.66 817.46" style="fill:#fff"/><polygon points="668.79 822.62 663.3 816.62 669.14 811.06 674.88 816.81 674.46 817.24 669.13 811.9 664.14 816.65 669.23 822.22 668.79 822.62" style="fill:#fff"/><path d="M663.1,828l-5.24-6.23.46-.39,4.85,5.77,1.82-1.58c1.19-1,2.42-2.08,3.6-3.16l-5.09-5.55.44-.41,5.5,6-.22.2c-1.26,1.15-2.57,2.28-3.84,3.37l-2,1.78Z" style="fill:#fff"/><path d="M656.81,832.61l-5-6.44,4.65-3.65c.31-.24.61-.5.9-.76l.51-.44.23-.2,5.23,6.23-.46.39L658.07,822l-.27.24c-.31.26-.62.53-.94.78l-4.17,3.28,4.59,6Z" style="fill:#fff"/><path d="M650.68,837.47,646,830.81l.49-.34,4.33,6.16,1.54-1.09c1.43-1,2.9-2,4.28-3.16l-4.6-6,.47-.36,5,6.44-.23.18c-1.46,1.2-3,2.3-4.53,3.37l-1.78,1.26Z" style="fill:#fff"/><path d="M644,841.56l-4.38-6.85,3.4-2.18c.66-.44,1.32-.91,2-1.37.36-.26.72-.52,1.09-.77l.24-.17,4.68,6.65-.49.35-4.33-6.17-.84.6c-.65.46-1.31.94-2,1.38l-2.9,1.86,4.07,6.34Z" style="fill:#fff"/><path d="M637.5,845.87l-4.08-7,.51-.3,3.79,6.51.93-.53c.73-.42,1.46-.84,2.18-1.28l3-1.94L639.8,835l.51-.32,4.38,6.85-3.54,2.27c-.73.45-1.47.87-2.2,1.29l-1.19.68Z" style="fill:#fff"/><path d="M630,849.65l-3.75-7.21.26-.14c.39-.21.79-.41,1.19-.61.7-.35,1.42-.72,2.11-1.11l3.5-2,4.06,7.05-.51.3-3.77-6.53-3,1.71c-.7.41-1.43.78-2.14,1.13l-.92.47,3.48,6.69Z" style="fill:#fff"/><path d="M623.1,853.37,619.66,846l.54-.26,3.19,6.84,1.51-.68c.38-.17.75-.36,1.11-.55l.63-.32,3.21-1.65-3.48-6.68.53-.28,3.75,7.22-3.74,1.92-.62.32c-.38.19-.76.39-1.15.56Z" style="fill:#fff"/><path d="M615.83,856.24l-3.12-7.52.29-.11c.9-.33,1.78-.73,2.64-1.12l4.45-2,3.43,7.37-.54.25-3.18-6.83L615.88,848c-.77.35-1.57.71-2.38,1l2.88,7Z" style="fill:#fff"/><path d="M608.66,859.36l-2.79-7.65.56-.2,2.58,7.08c1.51-.58,3-1.17,4.52-1.77l2.19-.86-2.88-7,.55-.23,3.11,7.52-.28.11-2.47,1c-1.6.63-3.2,1.27-4.81,1.88Z" style="fill:#fff"/><polygon points="601.16 861.57 598.71 853.82 606.35 851.23 609.13 858.87 608.57 859.07 605.99 851.99 599.46 854.19 601.73 861.39 601.16 861.57" style="fill:#fff"/><path d="M593.73,864l-2.11-7.87.58-.15,1.95,7.27,2.32-.65c1.52-.43,3.08-.87,4.6-1.34l-2.26-7.19.57-.18,2.44,7.76-.28.09c-1.63.51-3.29,1-4.9,1.43l-2.62.74Z" style="fill:#fff"/><polygon points="586.07 865.55 584.3 857.62 590.06 856.29 592.13 855.7 594.24 863.57 593.66 863.72 591.71 856.44 590.2 856.87 585.01 858.06 586.65 865.42 586.07 865.55" style="fill:#fff"/><polygon points="578.46 867.36 577.04 859.34 577.63 859.24 578.94 866.66 583.46 865.85 586.01 865.26 584.37 857.9 584.96 857.77 586.72 865.71 583.58 866.44 578.46 867.36" style="fill:#fff"/><path d="M570.09,868.32l-1-8.07,4-.51c.78-.12,1.56-.26,2.35-.4.44-.08.88-.17,1.32-.24l.3-.05,1.39,8-.59.1-1.29-7.42-1,.18c-.78.15-1.57.29-2.36.41l-3.42.44,1,7.47Z" style="fill:#fff"/><polygon points="562.35 869.44 561.66 861.34 562.26 861.28 562.9 868.8 565.52 868.6 570.06 868.02 569.09 860.54 569.69 860.47 570.73 868.54 565.59 869.19 562.35 869.44" style="fill:#fff"/><path d="M554.55,869.65l-.35-8.14h.31c1.09,0,2.19-.1,3.26-.18l4.47-.34.7,8.1-.6,0-.64-7.51-3.88.29c-1,.08-2,.16-3,.18l.32,7.52Z" style="fill:#fff"/><polygon points="546.74 870.14 546.74 861.99 547.34 861.99 547.34 869.52 554.54 869.34 554.22 861.82 554.82 861.79 555.16 869.92 546.74 870.14" style="fill:#fff"/><polygon points="546.75 869.83 546.75 862.28 539.86 862.11 539.54 869.65 538.94 869.62 539.29 861.5 547.35 861.7 547.35 869.83 546.75 869.83" style="fill:#fff"/><path d="M539.54,869.93h-.29c-1.17,0-2.34-.1-3.48-.19l-4.64-.35.69-8.11.6.05-.64,7.51,4,.31c1,.08,2.09.16,3.14.18l.32-7.54.6,0Z" style="fill:#fff"/><polygon points="531.76 869.14 531.17 869.09 531.81 861.59 529.32 861.39 524.96 860.84 524 868.32 523.4 868.24 524.45 860.17 529.38 860.8 532.46 861.03 531.76 869.14" style="fill:#fff"/><path d="M524,868.61l-4.17-.53c-.85-.13-1.68-.28-2.52-.43l-1.34-.24-.3,0,1.39-8,.59.1-1.29,7.43,1.06.19c.83.15,1.66.3,2.49.43l3.58.46,1-7.48.6.08Z" style="fill:#fff"/><polygon points="515.69 867.06 515.1 866.96 516.41 859.53 512.11 858.76 509.65 858.2 508.02 865.55 507.44 865.42 509.2 857.48 512.23 858.18 517.1 859.05 515.69 867.06" style="fill:#fff"/><polygon points="507.96 865.85 501.95 864.46 499.78 863.85 501.88 856 502.46 856.15 500.51 863.43 502.1 863.88 507.51 865.13 509.14 857.77 509.73 857.9 507.96 865.85" style="fill:#fff"/><path d="M500.44,863.72l-.57-.15,1.95-7.29-2.32-.65c-1.41-.4-2.87-.81-4.3-1.25l-2.27,7.19-.57-.18,2.45-7.76.28.09c1.52.47,3.07.91,4.58,1.33l2.6.74.28.08Z" style="fill:#fff"/><polygon points="492.84 861.86 484.86 859.16 487.65 851.51 488.21 851.71 485.63 858.79 492.46 861.1 494.72 853.91 495.29 854.09 492.84 861.86" style="fill:#fff"/><path d="M485.54,859.08l-.56-.21,2.58-7.08c-1.38-.53-2.76-1.07-4.13-1.62l-2.29-.9-2.88,7-.55-.23,3.11-7.51.27.11,2.56,1q2.19.87,4.4,1.71l.27.11Z" style="fill:#fff"/><path d="M478.15,856.51l-.27-.1c-.95-.36-1.89-.78-2.8-1.2l-4.64-2.09,3.44-7.38.54.25-3.18,6.83,4.08,1.85c.82.37,1.66.75,2.5,1.08l2.89-7,.55.23Z" style="fill:#fff"/><path d="M471.12,853.1l-.54-.25,3.18-6.83-1.42-.65c-.38-.16-.74-.35-1.1-.54l-.59-.3L467.59,843l-3.48,6.69-.53-.27,3.75-7.22,3.59,1.84.6.3c.35.19.7.37,1.06.53l2,.89Z" style="fill:#fff"/><path d="M464,849.92l-.27-.14-1.22-.63c-.75-.37-1.51-.76-2.25-1.18l-3.65-2.1,4.06-7,.52.3-3.76,6.53,3.13,1.8c.72.41,1.48.8,2.22,1.17l1,.49,3.48-6.68.53.27Z" style="fill:#fff"/><path d="M456.74,845.61l-.52-.3,3.79-6.52-.9-.51c-.7-.4-1.4-.8-2.08-1.21l-2.9-1.87-4.07,6.35-.5-.32,4.39-6.85,3.4,2.18c.67.41,1.36.8,2,1.2l1.17.67.26.15Z" style="fill:#fff"/><path d="M449.91,841.81l-3.54-2.27c-.72-.47-1.42-1-2.1-1.46l-1.11-.79-.25-.17,4.68-6.66.49.34L443.74,837l.88.63c.67.48,1.37,1,2.07,1.44l3,1.94,4.06-6.35.5.33Z" style="fill:#fff"/><path d="M443.58,837.22l-.48-.34,4.33-6.17-1.5-1.07c-1.35-.95-2.75-1.93-4.06-3l-4.59,6-.48-.36,5-6.46.24.2c1.36,1.12,2.84,2.16,4.26,3.17L448,830.4l.24.17Z" style="fill:#fff"/><path d="M437.1,832.85l-4.85-3.8-1-.83-.51-.45-.23-.19,5.23-6.23.46.39-4.85,5.77.3.26c.31.28.62.55.95.8L437,832l4.6-6,.47.36Z" style="fill:#fff"/><path d="M431.19,827.75l-.46-.39,4.85-5.77L433.77,820c-1.12-1-2.27-2-3.38-3l-5.09,5.56-.44-.4,5.49-6,.22.2c1.17,1.07,2.4,2.13,3.59,3.15l2,1.77.22.19Z" style="fill:#fff"/><polygon points="425.1 822.84 419 817.03 424.75 811.27 425.17 811.69 419.85 817.02 425.07 821.99 430.15 816.44 430.59 816.84 425.1 822.84" style="fill:#fff"/><polygon points="419.65 817.24 419.22 816.82 424.55 811.48 419.79 806.5 414.24 811.6 413.83 811.16 419.82 805.66 425.39 811.49 419.65 817.24" style="fill:#fff"/><polygon points="414.03 811.81 413.15 810.89 408.46 805.48 414.69 800.24 415.07 800.69 409.31 805.55 413.59 810.49 414.06 810.97 419.61 805.87 420.01 806.3 414.03 811.81" style="fill:#fff"/><path d="M408.69,805.29l-.38-.46,5.77-4.83c-.55-.62-1.06-1.28-1.55-1.91l-.61-.77-2.13-2.71-6,4.58-.36-.47,6.45-5,2.5,3.18.61.77c.55.71,1.12,1.44,1.73,2.11l.21.23Z" style="fill:#fff"/><path d="M403.57,799.38l-1.38-1.77c-.26-.34-.51-.69-.75-1L401,796l-2.44-3.43,6.66-4.66.35.49-6.18,4.32,2.09,2.94c.14.18.27.37.41.56l.73,1,1,1.3,6-4.59.37.47Z" style="fill:#fff"/><path d="M399.19,792.91l-.34-.49L405,788.1l-.9-1.28c-.31-.42-.7-1-1.07-1.56l-1.85-2.89-6.36,4-.32-.5,6.86-4.38,2.18,3.4c.35.58.74,1.12,1,1.53l1.26,1.77Z" style="fill:#fff"/><polygon points="394.6 786.59 392.33 783.04 390.22 779.39 397.26 775.31 397.56 775.83 391.04 779.61 392.84 782.74 394.78 785.76 401.13 781.71 401.45 782.21 394.6 786.59" style="fill:#fff"/><polygon points="390.79 779.77 390.49 779.25 397.01 775.48 394.83 771.68 393.68 769.44 387 772.93 386.73 772.4 393.94 768.63 395.36 771.4 397.83 775.69 390.79 779.77" style="fill:#fff"/><polygon points="386.74 773.07 383.94 767.59 383 765.52 390.37 762.08 390.62 762.62 383.79 765.82 384.47 767.33 387 772.27 393.68 768.78 393.95 769.31 386.74 773.07" style="fill:#fff"/><polygon points="383.53 765.95 383.27 765.41 390.1 762.21 387.53 756.52 387.3 755.92 380.34 758.82 380.11 758.26 387.63 755.14 388.08 756.29 390.89 762.5 383.53 765.95" style="fill:#fff"/><polygon points="380.06 758.94 376.98 751.1 384.62 748.3 384.83 748.86 377.75 751.45 380.4 758.15 387.35 755.26 387.58 755.81 380.06 758.94" style="fill:#fff"/><polygon points="377.27 750.99 377.07 750.43 384.17 747.86 381.96 741.33 374.76 743.59 374.58 743.02 382.33 740.59 384.92 748.22 377.27 750.99" style="fill:#fff"/><path d="M374.47,743.69l-.09-.29c-.49-1.65-1-3.32-1.42-4.95-.24-.86-.49-1.71-.73-2.57l-.09-.29,7.87-2.1.15.58L372.89,736c.21.76.43,1.52.64,2.28.43,1.53.88,3.1,1.34,4.65l7.19-2.26.18.57Z" style="fill:#fff"/><path d="M372.6,736.1l-.16-.58,7.28-1.94c-.3-1-.54-2-.76-3.05l-.85-3.65-7.36,1.62-.13-.58,7.94-1.75,1,4.23c.25,1.09.5,2.22.84,3.3l.09.3Z" style="fill:#fff"/><path d="M370.47,728.57l-.07-.28c-.5-2-.86-4-1.2-6-.11-.58-.21-1.15-.31-1.73l-.06-.29,8-1.41.1.59-7.42,1.3c.08.48.17,1,.25,1.43.33,1.86.67,3.78,1.13,5.64l7.37-1.62.12.58Z" style="fill:#fff"/><polygon points="369.24 720.86 369.13 720.27 376.56 718.97 375.95 715.58 375.51 712.16 368.04 713.13 367.96 712.54 376.03 711.49 376.54 715.49 377.25 719.45 369.24 720.86" style="fill:#fff"/><path d="M367.74,713.18l0-.3c-.08-.65-.16-1.29-.25-1.94-.25-1.91-.5-3.88-.61-5.84v-.29l8.09-.71.05.6-7.52.65c.12,1.85.36,3.71.59,5.51.07.55.15,1.1.21,1.65l7.48-1,.07.6Z" style="fill:#fff"/><path d="M367.18,705.39l-.06-.59,7.52-.66-.26-3.43-.09-1.11c-.06-.76-.12-1.55-.14-2.34l-7.52.34,0-.6,8.14-.36V697c0,.87.07,1.75.14,2.6,0,.37.06.74.08,1.11l.31,4Z" style="fill:#fff"/><polygon points="366.33 697.62 366.12 689.2 374.26 689.18 374.26 689.78 366.73 689.79 366.91 696.99 374.43 696.66 374.46 697.26 366.33 697.62" style="fill:#fff"/><polygon points="374.55 689.21 366.42 689.2 366.42 688.6 373.97 688.61 374.14 681.72 366.61 681.39 366.63 680.79 374.75 681.15 374.55 689.21" style="fill:#fff"/><path d="M374.43,681.74l-8.11-.36v-.29c0-.93.08-1.87.15-2.77l.09-1.14.32-4.2,8.1.7-.05.6-7.51-.66-.27,3.6q0,.57-.09,1.14c-.06.81-.13,1.63-.14,2.45l7.54.33Z" style="fill:#fff"/><path d="M375.24,674.32l-8.12-.71.05-.59,7.51.65c.1-1.76.33-3.52.56-5.24.07-.53.14-1.07.2-1.61l-7.47-1,.07-.59,8.07,1.06,0,.29-.24,1.91c-.24,1.8-.48,3.66-.58,5.5Z" style="fill:#fff"/><polygon points="375.73 666.87 367.67 665.81 368.2 661.64 368.94 657.49 376.95 658.89 376.85 659.48 369.43 658.18 368.79 661.73 368.34 665.3 375.81 666.27 375.73 666.87" style="fill:#fff"/><path d="M377.14,659.54l-8-1.4.1-.59,7.43,1.3c.08-.47.17-.94.25-1.41.31-1.76.63-3.58,1.07-5.35l-7.36-1.62.13-.59,8,1.76-.08.3c-.47,1.84-.81,3.75-1.13,5.6-.1.57-.2,1.14-.31,1.71Z" style="fill:#fff"/><path d="M378.27,652.16l-7.94-1.75,1-4.39c.26-1.16.54-2.36.89-3.52l.09-.28,7.85,2.09-.16.58L372.72,643c-.31,1-.56,2.14-.8,3.2L371,650l7.36,1.62Z" style="fill:#fff"/><path d="M380.29,645l-7.85-2.09.15-.58,7.29,1.94c.23-.78.45-1.56.67-2.34.39-1.41.8-2.86,1.23-4.28l-7.2-2.26.18-.57,7.76,2.43-.09.28c-.45,1.52-.89,3.06-1.31,4.56-.25.88-.49,1.75-.75,2.63Z" style="fill:#fff"/><polygon points="382.06 637.72 374.29 635.28 376.99 627.3 384.64 630.07 384.44 630.63 377.36 628.07 375.05 634.9 382.24 637.15 382.06 637.72" style="fill:#fff"/><polygon points="384.89 630.2 377.26 627.4 377.47 626.84 384.55 629.43 387.08 623.02 380.12 620.12 380.35 619.57 387.85 622.7 384.89 630.2" style="fill:#fff"/><polygon points="387.35 623.14 379.84 620.02 380.31 618.84 383.25 612.31 390.62 615.76 390.37 616.3 383.55 613.11 380.86 619.07 380.61 619.69 387.58 622.59 387.35 623.14" style="fill:#fff"/><polygon points="390.64 616.44 383.27 612.99 383.52 612.45 390.35 615.65 390.99 614.22 393.42 609.48 386.73 605.99 387.01 605.46 394.22 609.22 391.53 614.48 390.64 616.44" style="fill:#fff"/><polygon points="393.68 609.62 386.46 605.86 387.94 602.99 390.53 598.48 397.57 602.55 397.27 603.07 390.75 599.29 388.46 603.27 387.27 605.6 393.95 609.09 393.68 609.62" style="fill:#fff"/><polygon points="397.52 603.23 390.48 599.15 390.78 598.64 397.3 602.41 399.02 599.43 400.88 596.52 394.53 592.47 394.85 591.97 401.71 596.34 399.53 599.74 397.52 603.23" style="fill:#fff"/><path d="M401.13,596.69l-6.86-4.37,2.27-3.55c.38-.6.79-1.19,1.11-1.63l1.3-1.83,6.66,4.67-.34.49-6.18-4.33-1,1.35c-.31.44-.72,1-1.08,1.6l-1.95,3,6.35,4.06Z" style="fill:#fff"/><path d="M405.51,590.65,398.84,586l.35-.49,6.17,4.33,2-2.81.38-.54c.24-.33.47-.66.71-1l1-1.24-6-4.58.36-.48,6.46,4.95-1.34,1.71c-.24.31-.47.64-.7,1l-.39.54Z" style="fill:#fff"/><path d="M409.66,584.44l-6.46-5,2.6-3.31.63-.8c.59-.75,1.19-1.52,1.85-2.25l.19-.21,6.23,5.21-.38.46-5.79-4.84c-.57.64-1.11,1.33-1.63,2l-.63.8L404,579.38l6,4.59Z" style="fill:#fff"/><polygon points="414.91 578.35 408.7 573.11 409.08 572.65 414.85 577.51 418.94 572.79 419.38 572.32 413.84 567.23 414.24 566.79 420.24 572.29 419.38 573.19 414.91 578.35" style="fill:#fff"/><polygon points="419.6 572.53 413.61 567.02 419.43 560.93 425.18 566.7 424.76 567.12 419.44 561.79 414.46 567 420.01 572.09 419.6 572.53" style="fill:#fff"/><polygon points="424.96 567.33 419.21 561.58 419.64 561.16 424.97 566.5 429.96 561.74 424.86 556.18 425.3 555.77 430.79 561.77 424.96 567.33" style="fill:#fff"/><path d="M430.15,562l-5.5-6,.23-.2c1.25-1.15,2.56-2.27,3.82-3.36l2.06-1.79.23-.2,5.24,6.24-.46.38-4.84-5.77c-.61.54-1.22,1.06-1.84,1.59-1.18,1-2.41,2.08-3.59,3.15l5.09,5.56Z" style="fill:#fff"/><path d="M436,557.27,430.72,551l.46-.38,4.84,5.77.28-.24c.3-.27.61-.54.93-.79l4.18-3.28-4.6-6,.47-.36,5,6.44-4.64,3.65c-.32.25-.61.51-.91.77l-.51.44Z" style="fill:#fff"/><path d="M441.58,552.36l-4.95-6.44.22-.19c1.46-1.2,3-2.3,4.54-3.37l1.78-1.26.24-.18,4.68,6.66-.49.35-4.33-6.17-1.53,1.09c-1.43,1-2.9,2-4.29,3.16l4.61,6Z" style="fill:#fff"/><path d="M447.76,548.18l-4.68-6.66.49-.34,4.34,6.17.84-.6c.64-.47,1.3-.94,2-1.38l2.9-1.86-4.06-6.35.5-.32,4.39,6.85-3.4,2.18c-.67.43-1.33.9-2,1.36L448,548Z" style="fill:#fff"/><path d="M453.79,543.76l-4.39-6.85,3.54-2.27c.73-.44,1.47-.86,2.2-1.28l1.19-.69.26-.15,4.09,7-.52.3-3.79-6.52-.93.54c-.73.41-1.46.83-2.18,1.27l-3,1.94,4.06,6.35Z" style="fill:#fff"/><path d="M460.8,539.83l-4.06-7.05.52-.29L461,539l3-1.72c.71-.4,1.44-.77,2.15-1.13l.91-.47L463.59,529l.53-.28,3.75,7.22-.27.13-1.18.61c-.7.36-1.43.72-2.12,1.12Z" style="fill:#fff"/><path d="M467.19,536l-3.75-7.22,3.75-1.92.61-.31c.38-.2.76-.39,1.15-.57L471,525l3.43,7.37-.54.25-3.18-6.84-1.52.69c-.38.17-.75.36-1.12.55l-.61.32L464.25,529l3.47,6.69Z" style="fill:#fff"/><path d="M474,532.92l-3.43-7.37.54-.25,3.19,6.83,3.91-1.77c.77-.35,1.57-.71,2.38-1l-2.88-7,.55-.23,3.12,7.53-.29.11c-.89.33-1.78.73-2.63,1.12Z" style="fill:#fff"/><path d="M480.7,529.62l-3.11-7.52.28-.11,2.47-1q2.4-1,4.81-1.88l.29-.11,2.78,7.65-.56.2-2.58-7.08c-1.51.58-3,1.18-4.52,1.77l-2.19.87,2.89,6.95Z" style="fill:#fff"/><polygon points="487.75 527.16 484.97 519.52 485.53 519.32 488.11 526.41 494.64 524.2 492.37 517.01 492.94 516.83 495.38 524.58 487.75 527.16" style="fill:#fff"/><path d="M494.72,524.48l-2.45-7.76.29-.09c1.62-.51,3.29-1,4.9-1.43l2.61-.74.29-.08,2.11,7.86-.57.15-2-7.27-2.32.66c-1.51.42-3.07.86-4.6,1.33l2.27,7.19Z" style="fill:#fff"/><polygon points="501.96 522.69 499.85 514.83 500.43 514.67 502.38 521.95 503.89 521.53 509.08 520.33 507.44 512.97 508.03 512.84 509.79 520.78 504.04 522.11 501.96 522.69" style="fill:#fff"/><polygon points="509.14 520.62 507.37 512.68 510.52 511.96 515.63 511.04 517.05 519.05 516.46 519.15 515.15 511.73 510.64 512.54 508.08 513.13 509.72 520.49 509.14 520.62" style="fill:#fff"/><path d="M517.08,519.35l-1.39-8,.58-.1,1.29,7.43,1-.19,2.36-.41,3.43-.43-1-7.48.59-.07,1,8.07-4,.5c-.78.12-1.56.27-2.34.41l-1.33.24Z" style="fill:#fff"/><polygon points="524.41 517.93 523.37 509.86 528.51 509.2 531.74 508.96 532.43 517.06 531.84 517.11 531.2 509.6 528.57 509.8 524.03 510.37 525 517.85 524.41 517.93" style="fill:#fff"/><path d="M531.85,517.41l-.69-8.11.59-.05.64,7.51,3.89-.29c1-.08,2-.16,3-.18l-.32-7.52.6,0,.34,8.14h-.31c-1.08,0-2.19.09-3.26.17Z" style="fill:#fff"/><polygon points="539.28 516.6 538.93 508.47 547.35 508.26 547.35 516.4 546.75 516.4 546.75 508.87 539.55 509.05 539.87 516.58 539.28 516.6" style="fill:#fff"/><polygon points="554.8 516.9 546.74 516.69 546.74 508.56 547.34 508.56 547.34 516.11 554.23 516.28 554.55 508.75 555.15 508.77 554.8 516.9" style="fill:#fff"/><path d="M562.27,517.11l-.6-.05.65-7.51-4.05-.31c-1-.08-2.09-.16-3.14-.18l-.32,7.54-.6,0,.35-8.12h.29c1.16,0,2.33.1,3.46.19L563,509Z" style="fill:#fff"/><polygon points="569.65 518.22 564.72 517.59 561.63 517.36 562.33 509.25 562.92 509.3 562.28 516.81 564.78 517 569.13 517.55 570.1 510.08 570.69 510.15 569.65 518.22" style="fill:#fff"/><path d="M577.07,519.05l-.59-.1,1.29-7.43-1-.19c-.84-.15-1.67-.3-2.5-.43l-3.57-.45-1,7.48-.59-.08,1-8.07,4.17.53c.85.13,1.69.29,2.52.44l1.34.24.3.05Z" style="fill:#fff"/><polygon points="584.89 520.91 581.87 520.22 576.99 519.34 578.41 511.33 578.99 511.44 577.68 518.86 581.99 519.63 584.44 520.2 586.07 512.84 586.66 512.97 584.89 520.91" style="fill:#fff"/><polygon points="592.21 522.4 591.63 522.24 593.59 514.96 591.99 514.51 586.58 513.26 584.95 520.62 584.37 520.49 586.13 512.55 592.14 513.93 594.32 514.54 592.21 522.4" style="fill:#fff"/><path d="M599.29,524.77l-.29-.09c-1.51-.48-3.07-.92-4.58-1.34-.86-.24-1.73-.48-2.59-.74l-.28-.08,2.1-7.85.58.16-2,7.28,2.31.66c1.42.39,2.88.8,4.32,1.25l2.26-7.19.57.18Z" style="fill:#fff"/><polygon points="606.45 526.89 605.88 526.68 608.46 519.61 601.63 517.3 599.37 524.48 598.8 524.3 601.25 516.54 609.23 519.24 606.45 526.89" style="fill:#fff"/><path d="M613.28,529.89l-.27-.1-2.57-1c-1.46-.57-2.92-1.15-4.39-1.71l-.28-.1,2.78-7.64.56.2-2.58,7.09c1.38.52,2.76,1.07,4.13,1.61l2.29.9,2.89-7,.55.23Z" style="fill:#fff"/><path d="M620.21,532.65l-.54-.25,3.19-6.83-4.09-1.85c-.82-.37-1.65-.75-2.5-1.07l-2.89,7-.55-.23,3.11-7.5.27.1c1,.35,1.89.78,2.8,1.19l4.64,2.1Z" style="fill:#fff"/><path d="M626.76,536.23l-3.59-1.84c-.2-.09-.39-.2-.59-.3-.35-.18-.7-.36-1.07-.53l-2-.89,3.44-7.38.54.26-3.18,6.82,1.43.65c.37.16.73.35,1.09.54l.59.3,3.07,1.57,3.47-6.69.53.28Z" style="fill:#fff"/><path d="M633.44,539.57l-.52-.29,3.77-6.54L633.56,531c-.73-.42-1.49-.81-2.23-1.18l-1-.49L626.89,536l-.53-.28,3.76-7.22.26.14c.4.22.81.42,1.22.63.74.37,1.51.76,2.25,1.19l3.65,2.09Z" style="fill:#fff"/><path d="M640.15,544l-3.4-2.18c-.68-.41-1.37-.8-2.06-1.2l-1.17-.66-.25-.15,4.08-7,.52.3-3.79,6.52.9.52c.7.39,1.4.79,2.08,1.21l2.9,1.86,4.07-6.35.5.32Z" style="fill:#fff"/><path d="M646.5,547.93l-.49-.34,4.34-6.17-.88-.63c-.67-.48-1.37-1-2.07-1.43l-3-2-4.06,6.35-.5-.32,4.38-6.85,3.54,2.27c.72.46,1.42,1,2.1,1.45l1.11.79.25.18Z" style="fill:#fff"/><path d="M652.32,552.6l-.24-.19c-1.36-1.13-2.84-2.17-4.26-3.17L646.07,548l-.24-.18,4.68-6.65.49.34-4.34,6.17,1.5,1.07c1.35,1,2.75,1.94,4.07,3l4.59-6,.47.37Z" style="fill:#fff"/><path d="M658.33,557l-.46-.38,4.85-5.78-.3-.26c-.31-.27-.62-.55-.95-.8l-4.37-3.44-4.59,6L652,552l5-6.45,4.85,3.81c.33.26.66.54,1,.82l.52.45.22.19Z" style="fill:#fff"/><path d="M663.74,562.18l-.22-.2c-1.17-1.07-2.4-2.13-3.58-3.15-.68-.58-1.37-1.17-2-1.77l-.22-.19,5.22-6.22.46.38-4.85,5.78c.6.53,1.21,1.05,1.82,1.57,1.11,1,2.26,2,3.37,3l5.1-5.56.44.4Z" style="fill:#fff"/><polygon points="669.34 567.13 668.92 566.71 674.24 561.38 669.03 556.4 663.94 561.96 663.5 561.55 669 555.55 675.1 561.36 669.34 567.13" style="fill:#fff"/><polygon points="674.27 572.73 668.71 566.9 674.45 561.15 674.87 561.57 669.54 566.91 674.3 571.9 679.85 566.79 680.26 567.23 674.27 572.73" style="fill:#fff"/><polygon points="679.4 578.16 679.02 577.7 684.78 572.85 680.5 567.91 680.04 567.42 674.48 572.53 674.08 572.09 680.07 566.59 680.94 567.51 685.63 572.91 679.4 578.16" style="fill:#fff"/><path d="M684.2,584.62l-2.49-3.17-.62-.78c-.55-.71-1.12-1.44-1.73-2.11l-.2-.23,6.24-5.23.39.46L680,578.39c.55.62,1.06,1.28,1.56,1.91l.6.78,2.13,2.71,6-4.59.36.47Z" style="fill:#fff"/><path d="M688.83,590.48l-.34-.49,6.17-4.32-2.09-2.94-.39-.56c-.25-.34-.49-.69-.75-1l-1-1.3-6,4.58-.36-.47,6.45-5,1.39,1.77q.39.53.75,1.05c.13.18.26.37.4.55l2.44,3.43Z" style="fill:#fff"/><path d="M692.71,596.85l-2.18-3.4c-.35-.58-.74-1.12-1-1.53l-1.26-1.77,6.67-4.67.34.49-6.17,4.32.91,1.28c.3.42.7,1,1.06,1.56l1.85,2.9,6.36-4.06.32.51Z" style="fill:#fff"/><polygon points="696.83 603.08 696.53 602.56 703.06 598.79 701.25 595.66 699.32 592.63 692.96 596.68 692.64 596.18 699.5 591.81 701.76 595.35 703.87 599.01 696.83 603.08" style="fill:#fff"/><polygon points="700.15 609.76 698.74 607 696.27 602.7 703.31 598.63 703.61 599.14 697.08 602.92 699.26 606.71 700.41 608.95 707.09 605.47 707.37 606 700.15 609.76" style="fill:#fff"/><polygon points="703.73 616.32 703.47 615.78 710.3 612.58 709.62 611.07 707.1 606.13 700.41 609.62 700.14 609.09 707.35 605.32 710.16 610.81 711.09 612.87 703.73 616.32" style="fill:#fff"/><polygon points="706.46 623.26 706.01 622.11 703.2 615.89 710.57 612.44 710.82 612.98 703.99 616.18 706.56 621.87 706.8 622.47 713.75 619.58 713.98 620.13 706.46 623.26" style="fill:#fff"/><polygon points="709.47 630.1 709.27 629.53 716.34 626.95 713.7 620.24 706.74 623.13 706.51 622.58 714.03 619.46 717.12 627.3 709.47 630.1" style="fill:#fff"/><polygon points="711.76 637.81 709.17 630.17 716.82 627.4 717.02 627.97 709.93 630.53 712.14 637.06 719.34 634.8 719.51 635.38 711.76 637.81" style="fill:#fff"/><path d="M714.08,644.9l-.15-.57,7.28-1.94c-.22-.77-.44-1.53-.65-2.29-.43-1.53-.87-3.1-1.34-4.64L712,637.71l-.17-.57,7.76-2.43.09.29c.49,1.64,1,3.31,1.42,4.94.25.86.49,1.72.74,2.57l.08.3Z" style="fill:#fff"/><path d="M715.53,652.22l-1-4.24c-.24-1.08-.5-2.21-.83-3.29l-.09-.3,7.87-2.09.15.57-7.27,1.94c.29,1,.53,2,.75,3l.85,3.66,7.36-1.62.13.58Z" style="fill:#fff"/><path d="M717.24,659.49l-.1-.59,7.42-1.3c-.08-.48-.17-1-.25-1.44-.33-1.85-.67-3.77-1.12-5.63l-7.37,1.62-.13-.58,7.93-1.75.07.28c.5,2,.86,4,1.21,6,.1.58.2,1.15.31,1.73l0,.3Z" style="fill:#fff"/><polygon points="718.06 666.91 717.55 662.9 716.84 658.94 724.86 657.54 724.96 658.12 717.54 659.42 718.14 662.81 718.58 666.24 726.05 665.26 726.13 665.85 718.06 666.91" style="fill:#fff"/><path d="M719.16,674.29l0-.59,7.52-.66c-.11-1.85-.36-3.71-.59-5.52l-.21-1.64-7.47,1-.08-.59,8.07-1.06,0,.3c.07.65.16,1.29.24,1.94.25,1.91.51,3.88.61,5.85l0,.29Z" style="fill:#fff"/><path d="M719.35,681.75v-.31c0-.86-.07-1.75-.14-2.6l-.09-1.11-.3-4,8.1-.71.05.6-7.51.65.26,3.44c0,.37,0,.74.08,1.1.06.77.13,1.55.14,2.34l7.52-.33,0,.59Z" style="fill:#fff"/><polygon points="719.84 689.21 719.84 688.61 727.37 688.6 727.18 681.4 719.66 681.73 719.63 681.14 727.76 680.78 727.98 689.2 719.84 689.21" style="fill:#fff"/><path d="M547.05,883.09a193.89,193.89,0,1,1,137.1-56.79A192.64,192.64,0,0,1,547.05,883.09Zm0-386.59c-106.26,0-192.7,86.44-192.7,192.7s86.44,192.7,192.7,192.7,192.7-86.45,192.7-192.7S653.3,496.5,547.05,496.5Z" style="fill:#fab317"/><path d="M547.05,889.12a199.9,199.9,0,1,1,141.37-58.55A198.6,198.6,0,0,1,547.05,889.12Zm0-399.25c-109.91,0-199.33,89.42-199.33,199.33s89.42,199.33,199.33,199.33S746.38,799.11,746.38,689.2,657,489.87,547.05,489.87Z" style="fill:#fff"/></g><path d="M587.71,624.51a20.59,20.59,0,0,0-32,22.27Z" style="fill:#fff"/><path d="M509.47,624.51a20.61,20.61,0,0,1,32,22.27Z" style="fill:#fff"/><path d="M601.27,606.66v94.1a6,6,0,0,1-6,6H501.36a6,6,0,0,1-6-6v-94.1" style="fill:#191919"/><path d="M595.3,707H501.36a6.27,6.27,0,0,1-6.27-6.27v-94.1h.6v94.1a5.67,5.67,0,0,0,5.67,5.67H595.3a5.68,5.68,0,0,0,5.67-5.67v-94.1h.59v94.1A6.27,6.27,0,0,1,595.3,707Z" style="fill:#fff"/><path d="M545.91,636.86h-.6a23.69,23.69,0,0,0-22.54-23.49l-.29,0H495.91v-.6h27.17v0a24.29,24.29,0,0,1,22.83,24.07Z" style="fill:#fff"/><path d="M551.89,636.81h-.6a24,24,0,0,1,22.65-24h0l.3,0h26.87v.6H574.45l-.2,0a23.39,23.39,0,0,0-22.36,23.47Z" style="fill:#fff"/><path d="M601.57,607.56H495.09v-7.44H601.57ZM495.69,607H601v-6.24H495.69Z" style="fill:#fff"/><polygon points="523.31 664.92 495.1 664.92 495.1 616.96 523.31 616.96 523.31 617.56 495.69 617.56 495.69 664.33 523.31 664.33 523.31 664.92" style="fill:#fff"/><path d="M522.25,664.92a24,24,0,1,1,24-24A24,24,0,0,1,522.25,664.92Zm0-47.36a23.39,23.39,0,1,0,23.41,23.38A23.42,23.42,0,0,0,522.25,617.56Z" style="fill:#fff"/><path d="M521.73,661.77a20.83,20.83,0,1,1,20.84-20.83A20.86,20.86,0,0,1,521.73,661.77Zm0-41A20.23,20.23,0,1,0,542,640.94,20.25,20.25,0,0,0,521.73,620.72Z" style="fill:#fff"/><polygon points="601.57 664.92 573.88 664.92 573.88 664.33 600.98 664.33 600.98 617.56 573.88 617.56 573.88 616.96 601.57 616.96 601.57 664.92" style="fill:#fff"/><path d="M574.93,664.92a24,24,0,1,1,24-24A24,24,0,0,1,574.93,664.92Zm0-47.36a23.39,23.39,0,1,0,23.41,23.38A23.42,23.42,0,0,0,574.93,617.56Z" style="fill:#fff"/><path d="M575.46,661.77a20.83,20.83,0,1,1,20.85-20.83A20.86,20.86,0,0,1,575.46,661.77Zm0-41a20.23,20.23,0,1,0,20.25,20.22A20.26,20.26,0,0,0,575.46,620.72Z" style="fill:#fff"/><path d="M522.89,637.33a3.62,3.62,0,1,1-3.62,3.61,3.61,3.61,0,0,1,3.62-3.61m0-.6a4.21,4.21,0,1,0,4.21,4.21,4.22,4.22,0,0,0-4.21-4.21Z" style="fill:#fff"/><path d="M574.51,637.33a3.62,3.62,0,1,1-3.61,3.61,3.62,3.62,0,0,1,3.61-3.61m0-.6a4.21,4.21,0,1,0,4.22,4.21,4.22,4.22,0,0,0-4.22-4.21Z" style="fill:#fff"/><path d="M542.57,640.94H542a20.25,20.25,0,0,0-40.49,0h-.6a20.85,20.85,0,0,1,41.69,0Z" style="fill:#fff"/><path d="M596.33,640.89h-.6a20.25,20.25,0,0,0-40.5,0h-.59a20.85,20.85,0,0,1,41.69,0Z" style="fill:#fff"/><path d="M541.61,647.26,509,624.52l.34-.25a20.91,20.91,0,0,1,33.22,16.86,21.24,21.24,0,0,1-.79,5.73ZM510,624.51l31.27,21.78A20.3,20.3,0,0,0,510,624.51Z" style="fill:#fff"/><path d="M555.57,647.26l-.11-.4a20.91,20.91,0,0,1,32.43-22.59l.34.25Zm20-26.41a20.31,20.31,0,0,0-19.64,25.44l31.28-21.78A20.21,20.21,0,0,0,575.56,620.85Z" style="fill:#fff"/><path d="M502.76,607.54h-7.68v-7.39h7.68Zm-7.08-.6h6.48v-6.19h-6.48Z" style="fill:#fff"/><path d="M516.87,607.54h-7.68v-7.39h7.68Zm-7.08-.6h6.48v-6.19h-6.48Z" style="fill:#fff"/><path d="M531,607.54h-7.67v-7.39H531Zm-7.08-.6h6.49v-6.19H523.9Z" style="fill:#fff"/><path d="M545.1,607.54h-7.68v-7.39h7.68Zm-7.08-.6h6.48v-6.19H538Z" style="fill:#fff"/><path d="M559.21,607.54h-7.67v-7.39h7.67Zm-7.08-.6h6.49v-6.19h-6.49Z" style="fill:#fff"/><path d="M573.33,607.54h-7.68v-7.39h7.68Zm-7.08-.6h6.48v-6.19h-6.48Z" style="fill:#fff"/><path d="M587.44,607.54h-7.68v-7.39h7.68Zm-7.08-.6h6.48v-6.19h-6.48Z" style="fill:#fff"/><path d="M601.55,607.54h-7.67v-7.39h7.67Zm-7.08-.6H601v-6.19h-6.49Z" style="fill:#fff"/><polygon points="556.95 671.38 548.28 664.74 539.57 671.38 522.48 671.38 548.33 691.69 574.04 671.38 556.95 671.38" style="fill:#f8b318"/><path d="M548.34,692.07l-26.73-21h17.85l8.83-6.72,8.76,6.72H574.9Zm-25-20.39,25,19.63,24.85-19.63H556.85l-8.57-6.57-8.61,6.57Z" style="fill:#fff"/><path d="M614.64,649.64a19.85,19.85,0,0,1,2.58.17h25.53c3.52,0,6.41,2.31,6.41,5.13s-2.89,5.12-6.41,5.12H642a5.1,5.1,0,0,1,3.32,4.48c0,2.82-2.88,5.13-6.4,5.13h-1.4a5.11,5.11,0,0,1,3.32,4.48c0,2.82-2.88,5.13-6.41,5.13h-1.91a20.21,20.21,0,1,1-17.87-29.64Z" style="fill:#1a1a1a"/><path d="M482.25,648.92a20.08,20.08,0,0,0-2.58.17H454.14c-3.52,0-6.4,2.31-6.4,5.13s2.88,5.12,6.4,5.12h.76a5.11,5.11,0,0,0-3.32,4.48c0,2.82,2.88,5.13,6.41,5.13h1.39a5.09,5.09,0,0,0-3.31,4.48c0,2.82,2.88,5.13,6.4,5.13h1.92a20.21,20.21,0,1,0,17.86-29.64Z" style="fill:#1a1a1a"/><path d="M482.25,689.6a20.47,20.47,0,0,1-18-10.74h-1.74c-3.7,0-6.7-2.44-6.7-5.43a5.08,5.08,0,0,1,2.45-4.18H458c-3.7,0-6.71-2.44-6.71-5.43a5.08,5.08,0,0,1,2.47-4.19c-3.51-.17-6.31-2.53-6.31-5.41s3-5.43,6.7-5.43h25.53a20.49,20.49,0,1,1,2.58,40.81Zm0-40.38a18.68,18.68,0,0,0-2.54.17H454.14c-3.36,0-6.1,2.16-6.1,4.83s2.74,4.82,6.1,4.82h2.17l-1.29.57a4.8,4.8,0,0,0-3.14,4.21c0,2.66,2.74,4.83,6.11,4.83h2.8l-1.29.57a4.81,4.81,0,0,0-3.14,4.21c0,2.66,2.74,4.83,6.11,4.83h2.1l.08.16a19.91,19.91,0,1,0,17.6-29.2Z" style="fill:#fff"/><path d="M482.39,679.18a10.07,10.07,0,1,1,10.07-10.07A10.08,10.08,0,0,1,482.39,679.18Zm0-19.54a9.48,9.48,0,1,0,9.48,9.47A9.49,9.49,0,0,0,482.39,659.64Z" style="fill:#fff"/><ellipse cx="482.39" cy="669.11" rx="4.15" ry="4.15" style="fill:#f8b318"/><path d="M482.39,673.55a4.47,4.47,0,0,1-3.15-1.29h0a4.48,4.48,0,1,1,3.15,1.29Zm-2.73-1.72a3.86,3.86,0,0,0,5.45,0,3.84,3.84,0,0,0,0-5.44,3.86,3.86,0,0,0-6.58,2.72,3.79,3.79,0,0,0,1.13,2.72Z" style="fill:#fff"/><path d="M614.64,690.32a20.49,20.49,0,1,1,0-41,19.9,19.9,0,0,1,2.62.18h25.49c3.7,0,6.7,2.44,6.7,5.43s-2.79,5.24-6.3,5.41a5.11,5.11,0,0,1,2.46,4.19c0,3-3,5.43-6.7,5.43h-.23a5.1,5.1,0,0,1,2.45,4.18c0,3-3,5.43-6.71,5.43h-1.74A20.47,20.47,0,0,1,614.64,690.32Zm0-40.38a19.9,19.9,0,1,0,17.6,29.2l.09-.16h2.09c3.37,0,6.11-2.17,6.11-4.83a4.8,4.8,0,0,0-3.14-4.21l-1.29-.57h2.81c3.36,0,6.1-2.16,6.1-4.83a4.8,4.8,0,0,0-3.14-4.21l-1.28-.57h2.16c3.37,0,6.11-2.16,6.11-4.82s-2.74-4.83-6.11-4.83H617.22A21.46,21.46,0,0,0,614.64,649.94Z" style="fill:#fff"/><path d="M614.51,679.9a10.07,10.07,0,1,1,10.08-10.07A10.08,10.08,0,0,1,614.51,679.9Zm0-19.54a9.48,9.48,0,1,0,9.48,9.47A9.49,9.49,0,0,0,614.51,660.36Z" style="fill:#fff"/><ellipse cx="614.51" cy="669.83" rx="4.15" ry="4.15" style="fill:#f8b318"/><path d="M614.51,674.28a4.48,4.48,0,0,1-3.15-1.3,4.46,4.46,0,1,1,6.29,0h0A4.44,4.44,0,0,1,614.51,674.28Zm0-8.29a3.84,3.84,0,1,0,2.72,6.56h0a3.84,3.84,0,0,0-2.72-6.56Z" style="fill:#fff"/></svg>