<svg id="a5001360-235b-4feb-93a6-d9104d894612" data-name="Layer 1" xmlns="http://www.w3.org/2000/svg" xmlns:xlink="http://www.w3.org/1999/xlink" viewBox="0 0 400 400"><defs><clipPath id="f13a0754-eafc-4e69-bcac-79441a1dec1d"><ellipse cx="173.64" cy="215.63" rx="17.6" ry="17.58" style="fill:#1a1a1a"/></clipPath><clipPath id="ac635b04-d528-4a8e-a6ec-7f4c5980e8e3"><ellipse cx="226.85" cy="215.63" rx="17.6" ry="17.58" style="fill:#1a1a1a"/></clipPath></defs><path d="M8.1,258.69c0,.29,0,.58,0,.87v-.87Z" style="fill:#1a1a1a"/><path d="M392.54,260.5c0-.61,0-1.21,0-1.81h0Z" style="fill:#1a1a1a"/><path d="M8.15,258.92v0Z" style="fill:#1a1a1a"/><path d="M392.5,258.92v-.23h0Z" style="fill:#1a1a1a"/><path d="M8.15,258.69v0Z" style="fill:#1a1a1a"/><path d="M307.13,258.92v.28H322v-.51H307.13Z" style="fill:#fff"/><path d="M93.52,258.92v-.23H78.69v.51H93.52Z" style="fill:#fff"/><path d="M306.85,258.92v.28h.28v-.51h-.28Z" style="fill:#fff"/><path d="M93.8,258.92v-.23h-.28v.51h.28Z" style="fill:#fff"/><path d="M322,258.92v.28h.28v-.51H322Z" style="fill:#fff"/><path d="M78.69,258.92v-.23h-.28v.51h.28Z" style="fill:#fff"/><polygon points="39.37 258.93 39.64 258.93 39.65 258.69 32.07 258.69 32.07 258.92 39.37 258.91 39.37 258.93" style="fill:#fff"/><polygon points="39.37 258.93 39.37 258.91 32.07 258.92 32.07 258.92 39.37 258.93" style="fill:#fff"/><polygon points="361.28 258.91 368.58 258.92 368.58 258.92 368.87 258.92 368.86 258.69 361.28 258.69 361.28 258.91" style="fill:#fff"/><polygon points="361.28 258.91 361.28 258.93 368.58 258.92 368.58 258.92 361.28 258.91" style="fill:#fff"/><path d="M14.81,208.66c.39-1.47.8-2.93,1.23-4.39C15.61,205.72,15.21,207.19,14.81,208.66Z" style="fill:#1a1a1a"/><path d="M12.75,217c.26-1.15.51-2.3.8-3.45.34-1.45.71-2.89,1.1-4.33Q13.5,213.6,12.53,218l.06-.26C12.64,217.51,12.69,217.28,12.75,217Z" style="fill:#1a1a1a"/><path d="M386.92,212.84c.15.58.28,1.16.42,1.74.19.81.38,1.61.56,2.41-.95-4.29-2-8.54-3.29-12.72.75,2.54,1.43,5.09,2.08,7.65C386.77,212.23,386.85,212.53,386.92,212.84Z" style="fill:#1a1a1a"/><path d="M242.21,71.34c1.15.26,2.3.52,3.44.8,1.45.35,2.89.72,4.32,1.1-2.88-.77-5.78-1.48-8.72-2.12l.25.06Z" style="fill:#1a1a1a"/><path d="M250.59,73.4c1.46.4,2.93.81,4.38,1.24C253.52,74.21,252.06,73.8,250.59,73.4Z" style="fill:#1a1a1a"/><path d="M154.25,72.32l1.74-.41,2.41-.57q-6.45,1.44-12.72,3.3c2.53-.75,5.09-1.44,7.65-2.08Z" style="fill:#1a1a1a"/><path d="M97.31,96.66c1-.63,2-1.25,3-1.87q1.9-1.16,3.83-2.27-3.87,2.24-7.66,4.67l.22-.14Z" style="fill:#1a1a1a"/><path d="M104.69,92.2q2-1.14,4-2.23C107.33,90.69,106,91.44,104.69,92.2Z" style="fill:#1a1a1a"/><path d="M299.69,94.39l1.52.94,2.11,1.3Q297.74,93.09,292,90c2.33,1.26,4.61,2.58,6.88,3.94Z" style="fill:#1a1a1a"/><path d="M367.05,163.28c.75,1.31,1.5,2.64,2.22,4C368.55,165.92,367.8,164.6,367.05,163.28Z" style="fill:#1a1a1a"/><path d="M364.45,158.9c.78,1.27,1.53,2.55,2.28,3.83Q365.62,160.81,364.45,158.9Z" style="fill:#1a1a1a"/><path d="M362.58,155.9c.63,1,1.26,2,1.87,3q-1.17-1.93-2.39-3.83l.13.21Z" style="fill:#1a1a1a"/><path d="M35.8,159.56c.31-.52.63-1,.94-1.53.43-.7.86-1.41,1.3-2.1q-3.54,5.56-6.66,11.32c1.26-2.32,2.58-4.61,3.94-6.88Z" style="fill:#1a1a1a"/><path d="M13.88,212.28l0-.11c.36-1.42.73-2.85,1.13-4.27l.12-.44c.37-1.31.74-2.62,1.14-3.93.09-.29.18-.57.26-.86q.54-1.75,1.11-3.51l.48-1.4c.33-1,.66-2,1-3,.26-.74.54-1.47.81-2.2s.53-1.46.81-2.2q.86-2.22,1.75-4.42c.6-1.47,1.22-2.92,1.86-4.38.32-.72.65-1.43,1-2.14s.64-1.42,1-2.12c.44-1,.9-1.89,1.36-2.83.22-.44.43-.89.65-1.33.55-1.1,1.11-2.19,1.67-3.27l.42-.81c.64-1.21,1.29-2.4,2-3.6.07-.13.14-.26.22-.39q1.08-1.93,2.2-3.84l.05-.09.47-.8c-1.36,2.27-2.68,4.56-3.94,6.88l-.08.15c-.69,1.27-1.36,2.54-2,3.82l-.25.5c-.59,1.16-1.18,2.33-1.74,3.5-.15.31-.3.63-.46.95-.48,1-1,2.05-1.44,3.08l-.66,1.47c-.38.86-.76,1.73-1.13,2.59-.29.68-.58,1.37-.86,2.05l-.84,2c-.35.88-.69,1.76-1,2.64-.19.51-.39,1-.57,1.51-.4,1.06-.79,2.13-1.17,3.2l-.34,1c-.43,1.23-.85,2.47-1.25,3.71-.06.17-.12.35-.17.52-.44,1.37-.87,2.75-1.28,4.14l-.05.15c-.43,1.46-.84,2.92-1.23,4.39-.06.2-.11.4-.16.6-.39,1.44-.76,2.88-1.1,4.33C13.65,213.15,13.77,212.72,13.88,212.28Z" style="fill:#1a1a1a"/><path d="M14.65,209.26c0-.2.1-.4.16-.6C14.75,208.86,14.7,209.06,14.65,209.26Z" style="fill:#1a1a1a"/><path d="M365.14,160.06l.06.1c.75,1.26,1.5,2.53,2.22,3.82l.23.4c.66,1.18,1.32,2.37,2,3.58l.42.79c.57,1.09,1.14,2.17,1.7,3.27l.65,1.32c.47.94.93,1.88,1.38,2.83.34.7.66,1.41,1,2.12s.66,1.41,1,2.13c.65,1.44,1.28,2.9,1.89,4.36s1.2,2.94,1.78,4.41c.28.73.55,1.46.82,2.18s.56,1.47.82,2.21c.36,1,.7,2,1,3,.16.47.33.93.49,1.4.39,1.17.76,2.34,1.13,3.5l.27.86c.4,1.31.79,2.61,1.16,3.92,0,.15.09.29.13.44.4,1.42.79,2.84,1.16,4.26a.52.52,0,0,1,0,.11l.24.89c-.65-2.56-1.33-5.11-2.08-7.65,0-.05,0-.1-.05-.15-.41-1.39-.83-2.77-1.28-4.14,0-.17-.11-.35-.17-.52-.4-1.24-.81-2.48-1.24-3.71-.12-.33-.24-.66-.35-1-.38-1.07-.77-2.14-1.16-3.2-.19-.5-.38-1-.58-1.51-.34-.88-.68-1.76-1-2.64-.27-.68-.55-1.36-.84-2s-.57-1.37-.86-2.05c-.37-.86-.75-1.73-1.13-2.59l-.66-1.47c-.47-1-.95-2.06-1.44-3.08-.15-.32-.3-.64-.46-.95-.56-1.17-1.14-2.34-1.74-3.5-.08-.17-.16-.33-.25-.5-.66-1.28-1.33-2.56-2-3.82l-.08-.15c-.72-1.33-1.47-2.66-2.22-4l-.32-.55c-.75-1.28-1.5-2.56-2.28-3.83h0C364.69,159.28,364.91,159.67,365.14,160.06Z" style="fill:#1a1a1a"/><path d="M366.73,162.73l.32.55Z" style="fill:#1a1a1a"/><polygon points="364.45 158.9 364.45 158.9 364.45 158.9 364.45 158.9" style="fill:#1a1a1a"/><path d="M247,72.47l.12,0c1.42.36,2.85.74,4.27,1.13l.44.12q2,.56,3.93,1.14l.86.27c1.17.36,2.33.72,3.5,1.11l1.41.47c1,.34,2,.67,3,1,.74.26,1.47.54,2.21.81l2.18.8q2.22.85,4.43,1.75T277.65,83c.72.31,1.42.64,2.13,1l2.14,1,2.82,1.36,1.34.65q1.65.82,3.27,1.68l.8.41q1.82,1,3.6,2l.4.22c1.29.72,2.56,1.45,3.83,2.2l.1.06.79.46c-2.27-1.36-4.55-2.68-6.88-3.94l-.14-.08c-1.27-.69-2.55-1.36-3.83-2l-.49-.25q-1.74-.89-3.51-1.74l-.94-.45c-1-.49-2.05-1-3.08-1.44l-1.48-.66c-.86-.39-1.72-.77-2.59-1.14l-2.05-.86-2.05-.84-2.63-1-1.52-.57c-1.06-.4-2.12-.78-3.2-1.16l-1-.35c-1.23-.43-2.47-.84-3.71-1.25l-.53-.17c-1.37-.44-2.75-.87-4.13-1.28l-.16,0c-1.45-.43-2.92-.84-4.38-1.24l-.62-.16c-1.43-.38-2.87-.75-4.32-1.1Z" style="fill:#1a1a1a"/><path d="M250,73.24l.62.16Z" style="fill:#1a1a1a"/><path d="M101.47,94.1l.1,0q1.89-1.14,3.81-2.23l.4-.22c1.19-.67,2.38-1.33,3.58-2l.81-.43c1.08-.57,2.16-1.14,3.25-1.69l1.34-.66c.93-.46,1.87-.93,2.81-1.38.71-.34,1.43-.66,2.14-1s1.4-.66,2.11-1q2.18-1,4.37-1.89t4.41-1.78c.73-.29,1.46-.55,2.18-.83l2.2-.82c1-.36,2-.7,3-1l1.4-.48c1.16-.39,2.33-.76,3.49-1.13l.87-.27c1.3-.41,2.61-.79,3.91-1.17l.45-.13c1.42-.4,2.84-.78,4.26-1.15l.11,0,.89-.23c-2.56.64-5.12,1.33-7.65,2.08l-.16,0c-1.38.41-2.76.84-4.13,1.28l-.53.17c-1.24.41-2.48.82-3.71,1.25l-1,.35c-1.07.37-2.14.76-3.2,1.16l-1.51.57-2.64,1-2,.84-2,.86c-.87.37-1.73.75-2.59,1.14l-1.48.66c-1,.47-2.05,1-3.08,1.44l-.94.45c-1.18.57-2.34,1.15-3.51,1.74l-.49.25c-1.28.66-2.56,1.33-3.83,2l-.14.08q-2,1.09-4,2.23l-.56.32q-1.92,1.11-3.83,2.27C100.69,94.56,101.08,94.34,101.47,94.1Z" style="fill:#1a1a1a"/><path d="M104.13,92.52l.56-.32Z" style="fill:#1a1a1a"/><path d="M9.09,239.52c.16-1.51.33-3,.52-4.52C9.42,236.51,9.25,238,9.09,239.52Z" style="fill:#1a1a1a"/><path d="M10.89,226.45l.12-.7c0-.09,0-.17,0-.25-.53,2.95-1,5.91-1.35,8.87.19-1.47.39-2.94.62-4.41C10.5,228.78,10.69,227.62,10.89,226.45Z" style="fill:#1a1a1a"/><path d="M232.78,69.48l.72.12.25,0c-3-.52-5.91-1-8.87-1.35,1.47.19,2.94.4,4.41.62C230.46,69.09,231.62,69.29,232.78,69.48Z" style="fill:#1a1a1a"/><path d="M219.72,67.69c1.51.15,3,.33,4.53.52C222.74,68,221.23,67.84,219.72,67.69Z" style="fill:#1a1a1a"/><path d="M313.79,103.78l.76.57c2.12,1.56,4.22,3.17,6.28,4.82q-5.08-4.1-10.51-7.88l2,1.45Z" style="fill:#1a1a1a"/><path d="M45.18,145.46c.19-.26.39-.51.57-.77,1.57-2.12,3.17-4.22,4.83-6.28q-4.09,5.1-7.88,10.52c.47-.68,1-1.35,1.44-2Z" style="fill:#1a1a1a"/><path d="M235.84,70l1.66.32,1.67.34c.78.16,1.56.31,2.33.48l-.25-.06-1-.22-2.7-.55c-.91-.18-1.81-.36-2.72-.52l-1-.19-.25,0Z" style="fill:#1a1a1a"/><path d="M11.45,223.41c.1-.56.2-1.11.31-1.67s.23-1.11.35-1.67c.16-.77.31-1.55.48-2.33l-.06.26c-.08.34-.15.68-.23,1-.19.9-.37,1.8-.55,2.71s-.35,1.81-.52,2.71l-.18,1.05c0,.08,0,.16,0,.25C11.15,225,11.3,224.19,11.45,223.41Z" style="fill:#1a1a1a"/><path d="M301.78,95.69l.5.31c1,.6,1.93,1.22,2.88,1.84l1.67,1.1,1.66,1.12c.95.64,1.88,1.29,2.82,2l.47.34.55.39-2-1.45-.93-.64c-.85-.58-1.69-1.15-2.55-1.72s-1.71-1.13-2.57-1.69l-.95-.61-2.11-1.3Z" style="fill:#1a1a1a"/><path d="M37.1,157.46l.3-.49c.61-1,1.22-1.93,1.85-2.89.36-.56.73-1.11,1.1-1.67s.74-1.11,1.12-1.66c.64-.94,1.29-1.88,2-2.81l.33-.48.39-.55c-.48.67-1,1.34-1.44,2-.21.31-.42.62-.64.92l-1.73,2.55c-.57.86-1.12,1.72-1.68,2.58l-.61,1c-.44.69-.87,1.4-1.3,2.1Z" style="fill:#1a1a1a"/><path d="M245.65,72.14c-1.14-.28-2.29-.54-3.44-.8l-.71-.16c-.77-.17-1.55-.32-2.33-.48q3.92.81,7.79,1.77Z" style="fill:#1a1a1a"/><path d="M301.21,95.33l-1.52-.94-.82-.48-.79-.46c1.24.73,2.47,1.48,3.7,2.24Z" style="fill:#1a1a1a"/><path d="M13.55,213.59c-.29,1.15-.54,2.3-.8,3.45-.06.24-.11.47-.16.7-.17.78-.32,1.56-.48,2.33.54-2.61,1.12-5.21,1.77-7.79C13.77,212.72,13.65,213.15,13.55,213.59Z" style="fill:#1a1a1a"/><path d="M36.74,158c-.31.51-.63,1-.94,1.53l-.48.81-.47.8c.74-1.25,1.48-2.48,2.25-3.71Z" style="fill:#1a1a1a"/><path d="M82.89,106.77c1.18-.91,2.36-1.81,3.56-2.69C85.25,105,84.06,105.86,82.89,106.77Z" style="fill:#1a1a1a"/><path d="M89.91,101.6l.21-.15q-1.86,1.29-3.67,2.63c1-.7,1.92-1.38,2.88-2.07C89.53,101.88,89.72,101.73,89.91,101.6Z" style="fill:#1a1a1a"/><path d="M78.82,110q1.77-1.44,3.57-2.83C81.19,108.08,80,109,78.82,110Z" style="fill:#1a1a1a"/><path d="M392.54,258.69h0c0-.14,0-.27,0-.41Z" style="fill:#1a1a1a"/><path d="M390.26,229.44c0,.32.09.64.13.95q.6,3.92,1,7.86-.72-6.51-1.87-13c.14.81.27,1.63.4,2.45Z" style="fill:#1a1a1a"/><path d="M170.85,69l.94-.14c2.61-.39,5.23-.74,7.86-1q-6.51.71-13,1.87c.81-.15,1.63-.28,2.45-.41Z" style="fill:#1a1a1a"/><path d="M349.26,137.41q1.44,1.77,2.83,3.57Q350.7,139.18,349.26,137.41Z" style="fill:#1a1a1a"/><path d="M357.23,147.92l.42.59.15.21c-1.72-2.47-3.5-4.87-5.32-7.24q1.36,1.77,2.68,3.56Q356.21,146.48,357.23,147.92Z" style="fill:#1a1a1a"/><path d="M8.11,257.34c0,.45,0,.9,0,1.35h0Z" style="fill:#1a1a1a"/><path d="M387.49,215.24c0,.19.08.38.13.57.25,1.11.5,2.22.73,3.34.14.65.28,1.31.41,2s.26,1.31.38,2c.22,1.12.42,2.25.61,3.37,0,.19.07.39.1.58s.08.45.11.67c-.13-.82-.26-1.64-.4-2.45l-.21-1.11c-.18-1-.37-2-.57-3s-.42-2-.64-3c-.08-.36-.15-.73-.24-1.1-.18-.8-.37-1.6-.56-2.41Z" style="fill:#1a1a1a"/><path d="M156.64,71.76l.57-.13c1.12-.26,2.23-.5,3.35-.74l2-.4,2-.39,3.37-.61.57-.1.67-.11c-.82.13-1.64.26-2.45.41l-1.1.2-3,.58c-1,.2-2,.41-3,.63l-1.1.24-2.41.57Z" style="fill:#1a1a1a"/><path d="M359,150.47l1,1.41c.32.47.62.94.93,1.41.44.67.88,1.32,1.31,2l-.13-.21c-.19-.3-.38-.6-.58-.9-.5-.77-1-1.53-1.52-2.3l-1.55-2.29-.61-.86-.15-.21Z" style="fill:#1a1a1a"/><path d="M91.87,100.26l1.41-1,1.42-.93c.66-.44,1.32-.88,2-1.31l-.22.14-.89.57q-1.15.75-2.31,1.53L91,100.84l-.87.61-.21.15C90.56,101.14,91.22,100.7,91.87,100.26Z" style="fill:#1a1a1a"/><path d="M387.34,214.58c-.14-.58-.27-1.16-.42-1.74-.07-.31-.15-.61-.23-.92l-.24-.89c.37,1.4.71,2.8,1,4.21Z" style="fill:#1a1a1a"/><path d="M100.3,94.79c-1,.62-2,1.24-3,1.87l-.62.39c-.67.43-1.33.87-2,1.31,2.23-1.46,4.48-2.89,6.77-4.26C101.08,94.34,100.69,94.56,100.3,94.79Z" style="fill:#1a1a1a"/><path d="M156,71.91l-1.74.41-.92.24-.89.23c1.4-.36,2.8-.7,4.2-1Z" style="fill:#1a1a1a"/><path d="M362.19,155.28c-.43-.67-.87-1.32-1.31-2q2.21,3.35,4.26,6.77c-.23-.39-.45-.78-.69-1.16h0c-.61-1-1.24-2-1.87-3Z" style="fill:#1a1a1a"/><polygon points="364.45 158.9 364.45 158.9 364.45 158.9 364.45 158.9" style="fill:#1a1a1a"/><path d="M315.28,104.9l.09.07q1.77,1.32,3.51,2.68l.36.29c1.06.84,2.13,1.7,3.18,2.56l.69.58c.94.79,1.88,1.57,2.81,2.38l1.11,1,2.35,2.08,1.72,1.6c.57.53,1.15,1,1.71,1.59q1.72,1.64,3.41,3.32c1.12,1.12,2.22,2.26,3.32,3.4.54.57,1.06,1.15,1.59,1.72s1.07,1.14,1.59,1.71c.71.78,1.4,1.57,2.09,2.36.33.37.66.73,1,1.11.8.93,1.59,1.86,2.37,2.81l.58.68c.87,1.06,1.72,2.12,2.57,3.19l.28.36q1.37,1.74,2.69,3.5l.07.1.81,1.07q-1.32-1.78-2.68-3.56l-.39-.5q-1.39-1.8-2.83-3.57l-.1-.12c-.91-1.12-1.84-2.23-2.77-3.32l-.36-.43c-.86-1-1.72-2-2.59-2.94l-.7-.77c-.76-.84-1.53-1.68-2.31-2.51-.36-.39-.73-.78-1.1-1.16-.66-.69-1.31-1.37-2-2l-1.57-1.57L334.21,121c-.68-.66-1.36-1.31-2-1.95L331,117.93c-.83-.77-1.67-1.53-2.52-2.29l-.78-.7c-1-.86-2-1.71-2.95-2.55l-.43-.37c-1.1-.92-2.22-1.84-3.34-2.75l-.13-.1c-2.06-1.65-4.16-3.26-6.28-4.82Z" style="fill:#1a1a1a"/><path d="M352.09,141l.39.5Z" style="fill:#1a1a1a"/><path d="M46.3,144l.08-.1q1.32-1.76,2.68-3.5l.29-.36c.84-1.07,1.69-2.13,2.56-3.18.19-.24.39-.47.58-.7.78-.94,1.57-1.88,2.37-2.8l1-1.12c.69-.78,1.38-1.57,2.09-2.34.52-.58,1.06-1.15,1.59-1.73l1.59-1.71c1.1-1.14,2.2-2.28,3.32-3.4s2.26-2.23,3.41-3.32c.57-.54,1.14-1.06,1.71-1.59l1.72-1.6,2.35-2.08,1.11-1c.93-.81,1.87-1.59,2.81-2.38l.69-.58c1.06-.86,2.12-1.72,3.19-2.56l.35-.29q1.74-1.37,3.51-2.68l.09-.07,1.08-.82h0c-1.2.88-2.38,1.78-3.56,2.69l-.5.38q-1.8,1.39-3.57,2.83l-.13.1c-1.12.92-2.22,1.84-3.32,2.78l-.42.36q-1.49,1.27-2.94,2.58l-.78.7c-.84.76-1.67,1.53-2.5,2.31l-1.17,1.11-2,2c-.53.52-1.06,1-1.58,1.57s-1,1.05-1.55,1.58-1.31,1.36-2,2l-1.1,1.17-2.29,2.52-.7.78c-.86,1-1.71,2-2.56,3l-.36.43c-.93,1.1-1.84,2.21-2.75,3.34l-.1.12c-1.66,2.06-3.26,4.16-4.83,6.28Z" style="fill:#1a1a1a"/><polygon points="86.45 104.08 86.45 104.08 86.45 104.08 86.45 104.08" style="fill:#1a1a1a"/><path d="M82.39,107.15l.5-.38Z" style="fill:#1a1a1a"/><path d="M172.7,68.73l.11,0c1.46-.21,2.92-.4,4.39-.58l.44,0c1.36-.16,2.71-.31,4.07-.44l.9-.08c1.22-.11,2.44-.22,3.66-.31l1.49-.09c1-.07,2.08-.14,3.13-.19l2.34-.09,2.34-.08c1.58,0,3.17-.06,4.76-.06h0c1.58,0,3.17,0,4.75.06l2.34.08,2.34.09c1.05,0,2.09.12,3.13.19l1.49.09c1.22.09,2.44.2,3.66.31l.9.08c1.36.13,2.71.28,4.07.44l.45,0c1.46.18,2.92.37,4.38.58l.11,0,1.34.18c-1.47-.22-2.94-.43-4.41-.62l-.63-.08c-1.51-.19-3-.37-4.53-.52l-.16,0c-1.44-.15-2.87-.27-4.31-.39l-.55,0c-1.3-.1-2.61-.18-3.91-.25l-1-.06-3.41-.14-1.61,0c-.94,0-1.88,0-2.83,0h-2.22l-2.22,0c-.94,0-1.88,0-2.83.07l-1.61,0c-1.13,0-2.26.1-3.4.16l-1.05.06c-1.3.08-2.6.18-3.9.28l-.55,0c-1.44.12-2.87.26-4.31.41l-.16,0c-2.63.29-5.25.64-7.86,1Z" style="fill:#1a1a1a"/><path d="M224.25,68.21l.63.08Z" style="fill:#1a1a1a"/><path d="M8.15,258.69q0-2.26.06-4.53c0-.78,0-1.55.08-2.33s.05-1.56.09-2.35c0-1,.12-2.09.19-3.13,0-.49,0-1,.09-1.48.09-1.23.2-2.45.31-3.67,0-.3,0-.59.08-.89.13-1.36.28-2.72.44-4.07,0-.15,0-.3,0-.45.17-1.47.37-2.93.58-4.39v-.1c.07-.45.12-.9.19-1.34-.23,1.47-.43,2.94-.62,4.41l-.09.63c-.19,1.5-.36,3-.52,4.52v.16q-.22,2.16-.39,4.32c0,.18,0,.36,0,.54-.1,1.31-.19,2.61-.26,3.91,0,.35,0,.7-.05,1.05-.06,1.13-.1,2.27-.14,3.4,0,.54,0,1.08,0,1.61,0,1,0,1.89-.05,2.83v1.35Z" style="fill:#1a1a1a"/><path d="M9.61,235l.09-.63Z" style="fill:#1a1a1a"/><path d="M390.52,231.3s0,.07,0,.1c.2,1.46.4,2.92.57,4.39l.06.45c.15,1.35.3,2.71.43,4.07,0,.3.06.59.08.89.12,1.22.22,2.44.31,3.67,0,.49.06,1,.09,1.48.07,1,.14,2.09.19,3.13,0,.79.06,1.57.09,2.35s.07,1.55.08,2.33q.06,2.26.06,4.53h0v-.41c0-.74,0-1.48,0-2.23q0-1.41-.06-2.82c0-.54,0-1.08,0-1.62-.05-1.13-.1-2.26-.17-3.4,0-.35,0-.69-.06-1-.08-1.3-.17-2.6-.28-3.9,0-.19,0-.37,0-.56-.12-1.43-.26-2.87-.42-4.31v-.15q-.44-3.94-1-7.86C390.44,230.69,390.48,231,390.52,231.3Z" style="fill:#1a1a1a"/><path d="M233.5,69.6l-.72-.12c-1.16-.19-2.32-.39-3.49-.57L228,68.73q4,.57,7.89,1.31Z" style="fill:#1a1a1a"/><path d="M171.79,68.85l-.94.14-1.76.29-.67.11c1.43-.23,2.85-.46,4.28-.66Z" style="fill:#1a1a1a"/><path d="M390.39,230.39c0-.31-.09-.63-.13-.95l-.3-1.75c0-.22-.07-.45-.11-.67.24,1.42.46,2.85.67,4.28C390.48,231,390.44,230.69,390.39,230.39Z" style="fill:#1a1a1a"/><path d="M11,225.75l-.12.7c-.2,1.17-.39,2.33-.57,3.51-.07.44-.12.89-.19,1.34.38-2.64.83-5.27,1.32-7.89C11.3,224.19,11.15,225,11,225.75Z" style="fill:#1a1a1a"/><path d="M8.21,254.16q-.06,2.26-.06,4.53h0Q8.15,256.43,8.21,254.16Z" style="fill:#1a1a1a"/><path d="M392.5,258.69h0q0-2.26-.06-4.53Q392.5,256.42,392.5,258.69Z" style="fill:#1a1a1a"/><path d="M45.75,144.69c-.18.26-.38.51-.57.77l-1,1.45-.39.55c.84-1.17,1.69-2.34,2.55-3.49Z" style="fill:#1a1a1a"/><path d="M357.65,148.51l-.42-.59q-1-1.44-2.07-2.88l-.81-1.07c1.59,2.13,3.13,4.3,4.64,6.5Z" style="fill:#1a1a1a"/><path d="M85.37,104.9c2.13-1.6,4.31-3.14,6.5-4.64-.65.44-1.31.88-2,1.34-.19.13-.38.28-.58.41-1,.69-1.93,1.37-2.88,2.07h0Z" style="fill:#1a1a1a"/><polygon points="86.45 104.08 86.45 104.08 86.45 104.08 86.45 104.08" style="fill:#1a1a1a"/><path d="M314.55,104.35l-.76-.57-1.46-1-.55-.39c1.18.84,2.34,1.68,3.5,2.55Z" style="fill:#1a1a1a"/><path d="M275.61,183.24l10.49-10.49a123.31,123.31,0,0,0-14.08-12l-8.72,12A107.54,107.54,0,0,1,275.61,183.24Z" style="fill:#1a1a1a"/><path d="M72.61,131.2A180.62,180.62,0,0,1,380.94,258.69H386c-.12-102.28-83.37-185.45-185.67-185.45S14.77,156.41,14.65,258.69h5.06A179.44,179.44,0,0,1,72.61,131.2Z" style="fill:#1a1a1a"/><path d="M200.05,152.12V137.28a122.44,122.44,0,0,0-18.48,1.45l2.32,14.65A106.35,106.35,0,0,1,200.05,152.12Z" style="fill:#1a1a1a"/><path d="M124.64,183.63l-10.48-10.48a121.69,121.69,0,0,0-12,14.08l12,8.71A109.34,109.34,0,0,1,124.64,183.63Z" style="fill:#1a1a1a"/><path d="M305.87,242.48a109,109,0,0,1,1.26,16.16H322a122.44,122.44,0,0,0-1.44-18.48Z" style="fill:#1a1a1a"/><path d="M216.76,153.38l2.32-14.65a122.34,122.34,0,0,0-18.48-1.45v14.84A106.25,106.25,0,0,1,216.76,153.38Z" style="fill:#1a1a1a"/><path d="M105.05,210.69,91.83,204a122.65,122.65,0,0,0-7.11,17.12l14.11,4.58A105.68,105.68,0,0,1,105.05,210.69Z" style="fill:#1a1a1a"/><path d="M98.66,226.18l-14.11-4.59a121.18,121.18,0,0,0-4.33,18l14.66,2.32A105.84,105.84,0,0,1,98.66,226.18Z" style="fill:#1a1a1a"/><path d="M262.85,172.39l8.72-12a121.64,121.64,0,0,0-15.78-9.71l-6.74,13.22A105.08,105.08,0,0,1,262.85,172.39Z" style="fill:#1a1a1a"/><path d="M94.79,242.48l-14.66-2.32a122.44,122.44,0,0,0-1.44,18.48H93.52A107.64,107.64,0,0,1,94.79,242.48Z" style="fill:#1a1a1a"/><path d="M233.07,157.26l4.58-14.11a120.12,120.12,0,0,0-18-4.33l-2.32,14.65A105.86,105.86,0,0,1,233.07,157.26Z" style="fill:#1a1a1a"/><path d="M113.79,196.39l-12-8.71a121.71,121.71,0,0,0-9.72,15.78l13.22,6.73A108.66,108.66,0,0,1,113.79,196.39Z" style="fill:#1a1a1a"/><path d="M167.06,157.43l-4.59-14.11a120.64,120.64,0,0,0-17.11,7.11l6.73,13.21A106.45,106.45,0,0,1,167.06,157.43Z" style="fill:#1a1a1a"/><path d="M305.77,241.94l14.66-2.32a121.18,121.18,0,0,0-4.33-18L302,226.18A104.61,104.61,0,0,1,305.77,241.94Z" style="fill:#1a1a1a"/><path d="M32.07,258.36l7,0,.16-6.42L32,251.64v-.27c0-.87.08-1.74.14-2.59,0-.35.06-.7.08-1.06l.3-3.91,7.27.63c.1-1.63.31-3.27.52-4.86.06-.5.13-1,.19-1.5l-7.24-.94.5-3.89.69-3.87,7.19,1.26c.08-.44.15-.87.23-1.31.29-1.63.59-3.32,1-5l-7.12-1.57.94-4.09c.25-1.08.5-2.2.83-3.28l.08-.26,7,1.88c.21-.72.41-1.45.62-2.17.37-1.31.75-2.66,1.14-4l-7-2.19,2.51-7.44.26.09.19-.52,6.6,2.42,2.35-6-6.74-2.8.44-1.1,2.74-6.08,6.61,3.1.6-1.32,2.25-4.41-6.47-3.38,1.37-2.68,2.41-4.2,6.32,3.66,1.59-2.77,1.74-2.7L58,168.67l2.12-3.3c.35-.56.73-1.1,1-1.51l1.21-1.71,6,4.19,1.85-2.61.36-.5.66-.92.9-1.14-5.79-4.45,2.42-3.08.59-.74c.54-.7,1.11-1.42,1.72-2.1l.18-.2.21.18.36-.42,5.37,4.52,3.81-4.4.41-.43L76,145.11l5.42-5.67,5.16,5.17,4.64-4.41-4.94-5.39.21-.19c1.17-1.07,2.39-2.12,3.57-3.13L92,129.83l.21-.19,4.7,5.59.24-.21c.28-.25.57-.5.87-.73l3.89-3.06-4.45-5.78.21-.17c1.36-1.12,2.82-2.15,4.23-3.14l1.65-1.18.23-.16,4.2,6,.77-.55c.6-.43,1.22-.87,1.85-1.28l2.69-1.73-3.93-6.15,3.3-2.11c.68-.41,1.36-.81,2-1.2.37-.21.74-.42,1.1-.64l.24-.14.14.25.49-.28,3.5,6.08,2.78-1.59c.65-.38,1.34-.73,2-1.06l.84-.43-3.36-6.48,3.48-1.78.58-.3c.35-.18.7-.36,1.07-.53l1.9-.86,3.09,6.62L136.2,111c.72-.32,1.46-.66,2.22-.95l-2.8-6.74.27-.11,2.3-.9c1.49-.59,3-1.18,4.48-1.75l.26-.1,2.5,6.87,6.07-2.06-2.2-7,.27-.09c1.51-.47,3.06-.91,4.56-1.33l2.44-.69.27-.08,1.89,7.05,1.39-.39,4.83-1.11-1.58-7.13,2.93-.67,4.77-.86,0,.27.55-.09,1.2,6.92,1-.18,2.2-.38,3.18-.4-.93-7.24,4.79-.61,3-.23.62,7.27,3.6-.27c.91-.07,1.85-.15,2.79-.16l-.31-7.29,7.84-.2v7.32l6.4.16.31-7.29h.27c1.08,0,2.18.09,3.23.17l4.33.33-.62,7.28,2.31.17,4,.52.94-7.24,3.88.49,2.35.41,1.25.22.28,0-.05.28.55.09-1.23,6.92,4,.72,2.28.52,1.58-7.12,5.6,1.29,2,.57-1.89,7,2.14.61c1.31.37,2.67.75,4,1.16l2.2-7,7.43,2.52-2.5,6.87c1.28.49,2.56,1,3.83,1.5l2.13.84,2.79-6.74.25.09c.89.33,1.77.73,2.61,1.11l4.33,2-3.09,6.61,1.32.6c.35.15.68.33,1,.5l.55.28,2.85,1.46,3.37-6.48.24.13,1.14.58c.69.35,1.41.72,2.1,1.11l3.4,2-.14.24.48.27-3.53,6.08.84.48c.65.37,1.3.74,1.94,1.13l2.7,1.73,3.93-6.15,3.3,2.11c.67.44,1.32.91,1.95,1.36l1,.74.23.16-4.2,6c.46.34.92.66,1.39,1,1.26.89,2.55,1.8,3.78,2.79l4.44-5.78,4.52,3.55c.31.24.61.5.91.76l.48.42.21.18-4.69,5.59c.55.49,1.12,1,1.68,1.46,1,.89,2.11,1.82,3.14,2.75l4.94-5.38,5.68,5.41L314.44,145l4.42,4.63,5.38-4.94.81.85,4.37,5-.21.18.35.42-5.37,4.5c.51.58,1,1.19,1.44,1.78l.57.72,2,2.52,5.79-4.44,1.3,1.65c.24.32.47.65.7,1,.12.17.24.35.37.52l2.27,3.19-6,4.19.84,1.18c.28.39.65.91,1,1.46l1.72,2.68,6.16-3.92,2.11,3.3,2,3.41-6.32,3.65,2,3.52,1.06,2.09,6.47-3.38,2.62,5.11.87,1.92-6.61,3.09,2.39,5.3.21.55,6.74-2.81,2.88,7.31-.28.1.19.52-6.61,2.39,2.06,6.08,7-2.19.08.27c.46,1.53.91,3.09,1.33,4.6.23.8.45,1.6.68,2.4l.08.28-7.05,1.87c.27.94.49,1.9.7,2.83l.79,3.4,7.12-1.57.07.26c.46,1.84.79,3.72,1.12,5.55.09.54.19,1.08.28,1.61l.06.28-7.2,1.26.57,3.14.4,3.18,7.24-.94,0,.28c.08.6.15,1.2.23,1.8.23,1.78.47,3.62.57,5.45l0,.27-7.27.63.24,3.19c0,.34.05.69.08,1,.06.71.12,1.44.13,2.17l7.29-.32.19,7.61h11c-.13-98.87-80.6-179.27-179.5-179.27S21,159.82,20.82,258.69H32.07Z" style="fill:#1a1a1a"/><path d="M301.82,225.65l14.11-4.58A122.65,122.65,0,0,0,308.82,204l-13.22,6.74A105.68,105.68,0,0,1,301.82,225.65Z" style="fill:#1a1a1a"/><path d="M151.6,163.9l-6.74-13.22a121.64,121.64,0,0,0-15.78,9.71l8.72,12A105.08,105.08,0,0,1,151.6,163.9Z" style="fill:#1a1a1a"/><path d="M286.53,195.94l12-8.71a121.69,121.69,0,0,0-12-14.08L276,183.63A108.31,108.31,0,0,1,286.53,195.94Z" style="fill:#1a1a1a"/><path d="M200.33,152.67a106.37,106.37,0,0,0-106.25,106H306.57A106.36,106.36,0,0,0,200.33,152.67Z" style="fill:#1a1a1a"/><path d="M137.35,172.71l-8.72-12a123.31,123.31,0,0,0-14.08,12L125,183.24A107.54,107.54,0,0,1,137.35,172.71Z" style="fill:#1a1a1a"/><path d="M295.35,210.19l13.22-6.73a122.75,122.75,0,0,0-9.71-15.78l-12,8.71A107.53,107.53,0,0,1,295.35,210.19Z" style="fill:#1a1a1a"/><path d="M360.83,251.7c0-.81-.07-1.63-.13-2.43,0-.34-.06-.69-.08-1l-.29-3.75,7.28-.63c-.11-1.72-.33-3.45-.55-5.13-.06-.51-.13-1-.19-1.52l-7.24.94-.47-3.73-.66-3.69,7.19-1.26-.24-1.32c-.31-1.73-.62-3.51-1.05-5.24l-7.13,1.57-.91-3.95c-.23-1-.47-2.06-.78-3.07l-.08-.28,7.06-1.88c-.21-.7-.4-1.41-.6-2.12-.4-1.42-.82-2.88-1.25-4.31l-6.95,2.18-2.41-7.11.27-.1-.18-.5,6.58-2.41-2.45-6.24-6.74,2.81-.43-1.08-2.61-5.79,6.61-3.09-.63-1.4-2.35-4.6L343,184.92l-1.32-2.57-2.3-4,6.32-3.66-1.68-2.9-1.8-2.82L336,172.9l-2-3.17c-.33-.54-.69-1-1-1.43l-1.18-1.64,6-4.19-1.94-2.73-.36-.52-.69-.95-.95-1.21-5.79,4.44-2.33-2.95-.57-.73c-.51-.65-1-1.33-1.61-2l-.19-.21.21-.18-.34-.41,5.37-4.52-4-4.6-.43-.45-5.37,4.94L313.65,145l5.15-5.16L314,135.22,309,140.6l-.2-.19c-1.1-1-2.24-2-3.34-2.93l-1.91-1.64-.2-.18,4.69-5.59-.27-.24c-.29-.25-.58-.51-.88-.74l-4.07-3.2-4.46,5.79-.22-.18c-1.27-1.05-2.65-2-4-3l-1.63-1.15-.22-.16,4.19-6-.81-.58c-.62-.45-1.27-.91-1.92-1.34L291,117.53l-3.93,6.15-3.17-2c-.62-.38-1.27-.75-1.91-1.12l-1.09-.62-.24-.14.14-.24-.46-.27,3.51-6.08-2.92-1.67c-.67-.39-1.39-.75-2.07-1.1L278,110l-3.37,6.47-3.34-1.71-.56-.29c-.32-.17-.65-.34-1-.49l-1.84-.83,3.08-6.61-3.8-1.72c-.75-.35-1.53-.7-2.31-1l-2.8,6.74-.25-.09-2.39-1-4.09-1.59-.26-.1,2.49-6.85-6.34-2.15-2.19,7-.27-.09c-1.41-.44-2.86-.85-4.26-1.24-.81-.23-1.62-.45-2.42-.69l-.26-.07,1.89-7-1.48-.41-5-1.16-1.58,7.12-2.82-.65-4.54-.81.05-.28-.53-.09,1.2-6.92-1-.17c-.77-.14-1.55-.28-2.32-.4l-3.33-.43-.93,7.24-4.59-.58-2.87-.22.62-7.27-3.76-.29c-1-.08-1.94-.15-2.92-.17l-.31,7.3L200,98.23V90.94l-6.69.17.31,7.3h-.29c-1,0-2,.09-3,.16l-4.17.32-.62-7.27-2.44.19-4.22.53.94,7.24-3.73.47-2.18.38-1.24.22-.27,0,0-.27-.52.09-1.23-6.91-4.2.75-2.37.55,1.58,7.12-5.36,1.24-1.93.54-1.89-7-2.16.61c-1.4.39-2.86.8-4.28,1.24l2.2,6.95L145.09,108l-2.5-6.85-4.2,1.64-2,.81,2.8,6.74-.28.11c-.83.3-1.65.68-2.44,1l-4.16,1.88-3.08-6.62-1.4.63c-.35.16-.69.34-1,.52l-.57.29-3,1.53,3.37,6.47-.25.13-1.1.57c-.66.33-1.33.67-2,1L120,119.78l-.14-.24-.46.27-3.53-6.08-.87.5c-.68.39-1.36.78-2,1.19l-2.82,1.81,3.94,6.15-3.17,2c-.62.41-1.23.85-1.83,1.28l-1,.72-.23.16-4.2-6-1.41,1c-1.33.94-2.7,1.91-4,3l4.46,5.79-4.33,3.39q-.44.34-.84.72l-.48.41-.21.18-4.69-5.59-1.7,1.47c-1.1,1-2.24,1.93-3.34,2.93L92,140.22,86.6,145.4l-5.15-5.16-4.62,4.84L82.2,150l-.8.84-4.16,4.8-.21-.18-.35.41-5.39-4.52c-.53.61-1,1.25-1.52,1.87l-.58.75-2.07,2.63,5.79,4.44-1.25,1.59c-.22.29-.43.6-.64.9l-.37.51-2.17,3.06-6-4.19-.89,1.25c-.29.4-.67.94-1,1.49l-1.82,2.83,6.16,3.92-2,3.17L61,178.84l-6.32-3.66-2.12,3.7L51.49,181,58,184.42l-2.5,4.9-.83,1.83L48,188.05l-2.5,5.54-.23.58L52,197l-2.75,7-.25-.09-.18.5L42.26,202l-2.15,6.35,7,2.18-.07.27c-.43,1.4-.84,2.85-1.23,4.24l-.69,2.45-.08.26-7.06-1.88c-.28,1-.51,2-.74,3l-.81,3.54,7.13,1.57-.07.28c-.44,1.72-.75,3.5-1,5.22-.1.53-.19,1.06-.29,1.59l-.05.27L34.87,230l-.59,3.3-.43,3.32,7.24.95,0,.27c-.07.59-.15,1.19-.23,1.78-.22,1.68-.44,3.41-.53,5.12l0,.29L33,244.43l-.25,3.33c0,.36,0,.71-.08,1.07-.06.74-.12,1.51-.14,2.27l7.3.32-.18,7.27H78.13a122.2,122.2,0,0,1,244.39,0h38.76v-.31l7,0-.17-6.7-7.3.33Z" style="fill:#1a1a1a"/><path d="M14.09,258.69A186.23,186.23,0,0,1,332,127.23a185,185,0,0,1,54.55,131.46h5.94q0-2.26-.06-4.53c0-.78-.05-1.55-.08-2.33s-.05-1.56-.09-2.35c0-1-.12-2.09-.19-3.13,0-.49-.05-1-.09-1.48-.09-1.23-.19-2.45-.31-3.67,0-.3-.05-.59-.08-.89-.13-1.36-.28-2.72-.43-4.07l-.06-.45c-.17-1.47-.37-2.93-.57-4.39,0,0,0-.07,0-.1-.21-1.43-.43-2.86-.67-4.28,0-.19-.06-.39-.1-.58-.19-1.12-.39-2.25-.61-3.37-.12-.65-.25-1.3-.38-2s-.27-1.31-.41-2c-.23-1.12-.48-2.23-.73-3.34-.05-.19-.09-.38-.13-.57-.33-1.41-.67-2.81-1-4.21a.52.52,0,0,0,0-.11c-.37-1.42-.76-2.84-1.16-4.26,0-.15-.09-.29-.13-.44-.37-1.31-.76-2.61-1.16-3.92l-.27-.86c-.37-1.16-.74-2.33-1.13-3.5-.16-.47-.33-.93-.49-1.4-.34-1-.68-2-1-3-.26-.74-.54-1.47-.82-2.21s-.54-1.45-.82-2.18q-.87-2.2-1.78-4.41c-.61-1.46-1.24-2.92-1.89-4.36-.32-.72-.65-1.42-1-2.13s-.65-1.42-1-2.12c-.45-.95-.91-1.89-1.38-2.83l-.65-1.32c-.56-1.1-1.13-2.18-1.7-3.27l-.42-.79c-.65-1.21-1.31-2.4-2-3.58l-.23-.4c-.72-1.29-1.47-2.56-2.22-3.82l-.06-.1q-2.06-3.42-4.26-6.77c-.31-.47-.61-.94-.93-1.41l-1-1.41c-1.51-2.2-3.05-4.37-4.64-6.5l-.07-.1q-1.32-1.76-2.69-3.5l-.28-.36c-.85-1.07-1.7-2.13-2.57-3.19l-.58-.68c-.78-.95-1.57-1.88-2.37-2.81-.32-.38-.65-.74-1-1.11-.69-.79-1.38-1.58-2.09-2.36-.52-.57-1.06-1.14-1.59-1.71s-1.05-1.15-1.59-1.72c-1.1-1.14-2.2-2.28-3.32-3.4s-2.26-2.23-3.41-3.32c-.56-.54-1.14-1.06-1.71-1.59l-1.72-1.6L327,114.44l-1.11-1c-.93-.81-1.87-1.59-2.81-2.38l-.69-.58c-1.05-.86-2.12-1.72-3.18-2.56l-.36-.29q-1.74-1.37-3.51-2.68l-.09-.07c-1.16-.87-2.32-1.71-3.5-2.55l-.47-.34c-.94-.66-1.87-1.31-2.82-2l-1.66-1.12-1.67-1.1c-1-.62-1.92-1.24-2.88-1.84l-.5-.31c-1.23-.76-2.46-1.51-3.7-2.24l-.1-.06c-1.27-.75-2.54-1.48-3.83-2.2l-.4-.22q-1.78-1-3.6-2l-.8-.41q-1.62-.85-3.27-1.68l-1.34-.65-2.82-1.36-2.14-1c-.71-.32-1.41-.65-2.13-1q-2.17-1-4.37-1.87t-4.43-1.75l-2.18-.8c-.74-.27-1.47-.55-2.21-.81-1-.35-2-.68-3-1l-1.41-.47c-1.17-.39-2.33-.75-3.5-1.11l-.86-.27q-2-.58-3.93-1.14l-.44-.12c-1.42-.39-2.85-.77-4.27-1.13l-.12,0q-3.87-1-7.79-1.77l-1.67-.34L235.84,70q-3.93-.74-7.89-1.31l-.11,0c-1.46-.21-2.92-.4-4.38-.58l-.45,0c-1.36-.16-2.71-.31-4.07-.44l-.9-.08c-1.22-.11-2.44-.22-3.66-.31l-1.49-.09c-1-.07-2.08-.14-3.13-.19l-2.34-.09-2.34-.08c-1.58,0-3.17-.06-4.75-.06h0c-1.59,0-3.18,0-4.76.06l-2.34.08-2.34.09c-1,0-2.09.12-3.13.19l-1.49.09c-1.22.09-2.44.2-3.66.31l-.9.08c-1.36.13-2.71.28-4.07.44l-.44,0c-1.47.18-2.93.37-4.39.58l-.11,0c-1.43.2-2.85.43-4.28.66l-.57.1-3.37.61-2,.39-2,.4c-1.12.24-2.23.48-3.35.74l-.57.13c-1.4.33-2.8.67-4.2,1l-.11,0c-1.42.37-2.84.75-4.26,1.15l-.45.13c-1.3.38-2.61.76-3.91,1.17l-.87.27c-1.16.37-2.33.74-3.49,1.13l-1.4.48c-1,.34-2,.68-3,1l-2.2.82c-.72.28-1.45.54-2.18.83q-2.22.85-4.41,1.78t-4.37,1.89c-.71.31-1.41.65-2.11,1s-1.43.65-2.14,1c-.94.45-1.88.92-2.81,1.38l-1.34.66c-1.09.55-2.17,1.12-3.25,1.69l-.81.43c-1.2.64-2.39,1.3-3.58,2l-.4.22q-1.92,1.09-3.81,2.23l-.1,0c-2.29,1.37-4.54,2.8-6.77,4.26l-1.42.93-1.41,1c-2.19,1.5-4.37,3-6.5,4.64l-.09.07q-1.77,1.32-3.51,2.68l-.35.29c-1.07.84-2.13,1.7-3.19,2.56l-.69.58c-.94.79-1.88,1.57-2.81,2.38l-1.11,1-2.35,2.08-1.72,1.6c-.57.53-1.14,1-1.71,1.59-1.15,1.09-2.28,2.2-3.41,3.32s-2.22,2.26-3.32,3.4l-1.59,1.71c-.53.58-1.07,1.15-1.59,1.73-.71.77-1.4,1.56-2.09,2.34l-1,1.12c-.8.92-1.59,1.86-2.37,2.8-.19.23-.39.46-.58.7-.87,1-1.72,2.11-2.56,3.18l-.29.36q-1.37,1.74-2.68,3.5l-.08.1c-.86,1.15-1.71,2.32-2.55,3.49l-.33.48c-.66.93-1.31,1.87-2,2.81-.38.55-.75,1.11-1.12,1.66s-.74,1.11-1.1,1.67C38.62,155,38,156,37.4,157l-.3.49c-.77,1.23-1.51,2.46-2.25,3.71l-.05.09q-1.12,1.91-2.2,3.84c-.08.13-.15.26-.22.39-.66,1.2-1.31,2.39-2,3.6l-.42.81c-.56,1.08-1.12,2.17-1.67,3.27-.22.44-.43.89-.65,1.33-.46.94-.92,1.88-1.36,2.83-.33.7-.65,1.41-1,2.12s-.65,1.42-1,2.14c-.64,1.46-1.26,2.91-1.86,4.38s-1.18,2.94-1.75,4.42c-.28.74-.54,1.47-.81,2.2s-.55,1.46-.81,2.2c-.35,1-.68,2-1,3l-.48,1.4q-.57,1.76-1.11,3.51c-.08.29-.17.57-.26.86-.4,1.31-.77,2.62-1.14,3.93l-.12.44c-.4,1.42-.77,2.85-1.13,4.27l0,.11c-.65,2.58-1.23,5.18-1.77,7.79-.12.56-.24,1.11-.35,1.67s-.21,1.11-.31,1.67c-.49,2.62-.94,5.25-1.32,7.89v.1c-.21,1.46-.41,2.92-.58,4.39,0,.15,0,.3,0,.45-.16,1.35-.31,2.71-.44,4.07,0,.3-.06.59-.08.89-.11,1.22-.22,2.44-.31,3.67,0,.49-.06,1-.09,1.48-.07,1-.14,2.09-.19,3.13,0,.79-.06,1.57-.09,2.35s-.06,1.55-.08,2.33q-.06,2.26-.06,4.53Z" style="fill:#1a1a1a"/><path d="M183.34,153.47,181,138.82a120.12,120.12,0,0,0-18,4.33l4.59,14.1A107,107,0,0,1,183.34,153.47Z" style="fill:#1a1a1a"/><path d="M248.56,163.64l6.73-13.21a120.16,120.16,0,0,0-17.11-7.11l-4.59,14.11A106.45,106.45,0,0,1,248.56,163.64Z" style="fill:#1a1a1a"/><path d="M307.13,258.69H322v-.05H307.13Z" style="fill:#fff"/><path d="M305.87,242.48l14.65-2.32-.09-.54-14.66,2.32C305.8,242.12,305.84,242.3,305.87,242.48Z" style="fill:#fff"/><path d="M302,226.18l14.11-4.59c-.06-.17-.12-.35-.17-.52l-14.11,4.58Z" style="fill:#fff"/><path d="M295.6,210.69,308.82,204c-.09-.16-.17-.33-.25-.49l-13.22,6.73Z" style="fill:#fff"/><path d="M286.86,196.39l12-8.71-.33-.45-12,8.71Z" style="fill:#fff"/><path d="M276,183.63l10.48-10.48-.39-.4-10.49,10.49Z" style="fill:#fff"/><path d="M263.3,172.71l8.72-12-.45-.33-8.72,12Z" style="fill:#fff"/><path d="M249.05,163.9l6.74-13.22-.5-.25-6.73,13.21Z" style="fill:#fff"/><path d="M233.59,157.43l4.59-14.11-.53-.17-4.58,14.11Z" style="fill:#fff"/><path d="M217.31,153.47l2.32-14.65-.55-.09-2.32,14.65Z" style="fill:#fff"/><path d="M200.33,152.11h.27V137.28h-.55v14.84Z" style="fill:#fff"/><path d="M183.89,153.38l-2.32-14.65-.55.09,2.32,14.65Z" style="fill:#fff"/><path d="M167.59,157.25,163,143.15l-.53.17,4.59,14.11Z" style="fill:#fff"/><path d="M152.09,163.64l-6.73-13.21-.5.25,6.74,13.22Z" style="fill:#fff"/><path d="M137.8,172.39l-8.72-12-.45.33,8.72,12Z" style="fill:#fff"/><path d="M125,183.24l-10.49-10.49-.39.4,10.48,10.48Z" style="fill:#fff"/><path d="M114.12,195.94l-12-8.71-.32.45,12,8.71Z" style="fill:#fff"/><path d="M105.3,210.19l-13.22-6.73c-.08.16-.16.33-.25.49l13.22,6.74Z" style="fill:#fff"/><path d="M98.83,225.65l-14.11-4.58c0,.17-.11.35-.17.52l14.11,4.59C98.72,226,98.78,225.83,98.83,225.65Z" style="fill:#fff"/><path d="M94.88,241.94l-14.66-2.32c0,.18-.06.36-.09.54l14.66,2.32C94.81,242.3,94.85,242.12,94.88,241.94Z" style="fill:#fff"/><path d="M93.52,258.64H78.69v.05H93.52Z" style="fill:#fff"/><path d="M137.49,172.9l-.14-.19A107.54,107.54,0,0,0,125,183.24l.16.16A107.08,107.08,0,0,1,137.49,172.9Z" style="fill:#fff"/><path d="M262.72,172.57l.13-.18a105.08,105.08,0,0,0-13.8-8.49l-.11.21A107.53,107.53,0,0,1,262.72,172.57Z" style="fill:#fff"/><path d="M200.05,152.4v-.28a106.35,106.35,0,0,0-16.16,1.26l0,.27A107.12,107.12,0,0,1,200.05,152.4Z" style="fill:#fff"/><path d="M233,157.5l.08-.24a105.86,105.86,0,0,0-15.76-3.79l0,.27A106.83,106.83,0,0,1,233,157.5Z" style="fill:#fff"/><path d="M216.72,153.65l0-.27a106.25,106.25,0,0,0-16.16-1.26v.28A107.12,107.12,0,0,1,216.72,153.65Z" style="fill:#fff"/><path d="M275.45,183.4l.16-.16a107.54,107.54,0,0,0-12.31-10.53l-.14.19A107.08,107.08,0,0,1,275.45,183.4Z" style="fill:#fff"/><path d="M248.45,163.86l.11-.22a106.45,106.45,0,0,0-15-6.21l-.07.24A106.36,106.36,0,0,1,248.45,163.86Z" style="fill:#fff"/><path d="M301.57,225.73a105.17,105.17,0,0,0-6.19-14.93c-.08-.17-.16-.33-.25-.5a105.63,105.63,0,0,0-8.46-13.77l-.33-.45a107,107,0,0,0-10.49-12.29l-.4-.39a107.08,107.08,0,0,0-12.29-10.5l-.44-.33a107.53,107.53,0,0,0-13.78-8.46l-.49-.25a106.36,106.36,0,0,0-14.93-6.19l-.53-.17a106.83,106.83,0,0,0-15.72-3.76l-.55-.09a107.12,107.12,0,0,0-16.12-1.25h-.55a107.12,107.12,0,0,0-16.12,1.25l-.54.09a105,105,0,0,0-15.72,3.76l-.53.17a106,106,0,0,0-14.94,6.19l-.49.25a106.73,106.73,0,0,0-13.77,8.46l-.45.33a107.08,107.08,0,0,0-12.29,10.5l-.39.39a107.08,107.08,0,0,0-10.5,12.29l-.33.45a105.63,105.63,0,0,0-8.46,13.77c-.09.17-.17.33-.25.5a105.17,105.17,0,0,0-6.19,14.93c-.06.18-.12.35-.17.53A105,105,0,0,0,95.15,242c0,.18-.07.36-.1.55a108.2,108.2,0,0,0-1.25,16.11v.05h.28a106.25,106.25,0,0,1,212.49,0h.28v-.05a108.2,108.2,0,0,0-1.25-16.11l-.09-.55a105,105,0,0,0-3.77-15.72C301.69,226.08,301.63,225.91,301.57,225.73Z" style="fill:#fff"/><path d="M305.51,242l.26,0A104.61,104.61,0,0,0,302,226.18l-.25.08A105,105,0,0,1,305.51,242Z" style="fill:#fff"/><path d="M301.57,225.73l.25-.08a105.68,105.68,0,0,0-6.22-15l-.22.11A105.17,105.17,0,0,1,301.57,225.73Z" style="fill:#fff"/><path d="M295.13,210.3l.22-.11a107.53,107.53,0,0,0-8.49-13.8l-.19.14A105.63,105.63,0,0,1,295.13,210.3Z" style="fill:#fff"/><path d="M286.34,196.08l.19-.14A108.31,108.31,0,0,0,276,183.63l-.16.16A107,107,0,0,1,286.34,196.08Z" style="fill:#fff"/><path d="M95.05,242.53l-.26-.05a107.64,107.64,0,0,0-1.27,16.16h.28A108.2,108.2,0,0,1,95.05,242.53Z" style="fill:#fff"/><path d="M105.27,210.8l-.22-.11a105.68,105.68,0,0,0-6.22,15l.25.08A105.17,105.17,0,0,1,105.27,210.8Z" style="fill:#fff"/><path d="M98.91,226.26l-.25-.08a105.84,105.84,0,0,0-3.78,15.76l.27,0A105,105,0,0,1,98.91,226.26Z" style="fill:#fff"/><path d="M306.85,258.64h.28a109,109,0,0,0-1.26-16.16l-.27.05A108.2,108.2,0,0,1,306.85,258.64Z" style="fill:#fff"/><path d="M167.14,157.67l-.08-.24a106.45,106.45,0,0,0-15,6.21l.11.22A106,106,0,0,1,167.14,157.67Z" style="fill:#fff"/><path d="M151.71,164.11l-.11-.21a105.08,105.08,0,0,0-13.8,8.49l.14.18A106.73,106.73,0,0,1,151.71,164.11Z" style="fill:#fff"/><path d="M114,196.53l-.19-.14a108.66,108.66,0,0,0-8.49,13.8l.22.11A105.63,105.63,0,0,1,114,196.53Z" style="fill:#fff"/><path d="M183.39,153.74l0-.27a107,107,0,0,0-15.75,3.78l.08.25A105,105,0,0,1,183.39,153.74Z" style="fill:#fff"/><path d="M124.81,183.79l-.17-.16a109.34,109.34,0,0,0-10.52,12.31l.19.14A107.08,107.08,0,0,1,124.81,183.79Z" style="fill:#fff"/><path d="M306.85,258.69h.28v-.05h-.28Z" style="fill:#fff"/><path d="M305.51,242l.09.55.27-.05c0-.18-.07-.36-.1-.54Z" style="fill:#fff"/><path d="M301.74,226.26l.25-.08-.17-.53-.25.08C301.63,225.91,301.69,226.08,301.74,226.26Z" style="fill:#fff"/><path d="M295.38,210.8l.22-.11-.25-.5-.22.11C295.22,210.47,295.3,210.63,295.38,210.8Z" style="fill:#fff"/><path d="M286.67,196.53l.19-.14-.33-.45-.19.14Z" style="fill:#fff"/><path d="M275.85,183.79l.16-.16-.4-.39-.16.16Z" style="fill:#fff"/><path d="M263.16,172.9l.14-.19-.45-.32-.13.18Z" style="fill:#fff"/><path d="M248.94,164.11l.11-.21-.49-.26-.11.22Z" style="fill:#fff"/><path d="M233.52,157.67l.07-.24-.52-.17-.08.24Z" style="fill:#fff"/><path d="M217.27,153.74l0-.27-.55-.09,0,.27Z" style="fill:#fff"/><path d="M200.33,152.39h.27v-.28h-.55v.28Z" style="fill:#fff"/><path d="M183.93,153.65l0-.27-.55.09,0,.27Z" style="fill:#fff"/><path d="M167.67,157.5l-.08-.25-.53.18.08.24Z" style="fill:#fff"/><path d="M152.2,163.86l-.11-.22-.49.26.11.21Z" style="fill:#fff"/><path d="M137.94,172.57l-.14-.18-.45.32.14.19Z" style="fill:#fff"/><path d="M125.2,183.4l-.16-.16-.4.39.17.16Z" style="fill:#fff"/><path d="M114.31,196.08l-.19-.14-.33.45.19.14Z" style="fill:#fff"/><path d="M105.52,210.3l-.22-.11-.25.5.22.11C105.35,210.63,105.43,210.47,105.52,210.3Z" style="fill:#fff"/><path d="M99.08,225.73l-.25-.08c0,.18-.11.35-.17.53l.25.08C99,226.08,99,225.91,99.08,225.73Z" style="fill:#fff"/><path d="M95.15,242l-.27,0c0,.18-.07.36-.09.54l.26.05C95.08,242.34,95.12,242.16,95.15,242Z" style="fill:#fff"/><path d="M93.8,258.64h-.28v.05h.28Z" style="fill:#fff"/><path d="M181,138.82l0-.28a120.44,120.44,0,0,0-18.07,4.32l.09.29A120.12,120.12,0,0,1,181,138.82Z" style="fill:#fff"/><path d="M200.05,137.28V137a121.58,121.58,0,0,0-18.52,1.44l0,.28A122.44,122.44,0,0,1,200.05,137.28Z" style="fill:#fff"/><path d="M219.08,138.73l0-.28A121.72,121.72,0,0,0,200.6,137v.27A122.34,122.34,0,0,1,219.08,138.73Z" style="fill:#fff"/><path d="M80.13,240.16l-.28,0a124.19,124.19,0,0,0-1.44,18.52h.28A122.44,122.44,0,0,1,80.13,240.16Z" style="fill:#fff"/><path d="M114.16,173.15l-.24-.24A122.12,122.12,0,0,0,101.86,187l.26.2A121.69,121.69,0,0,1,114.16,173.15Z" style="fill:#fff"/><path d="M91.83,204l-.28-.14A120.77,120.77,0,0,0,84.44,221l.28.1A122.65,122.65,0,0,1,91.83,204Z" style="fill:#fff"/><path d="M101.8,187.68l-.27-.2a121.25,121.25,0,0,0-9.73,15.83l.28.15A121.71,121.71,0,0,1,101.8,187.68Z" style="fill:#fff"/><path d="M128.63,160.72l-.19-.27a122.21,122.21,0,0,0-14.12,12.07l.23.23A123.31,123.31,0,0,1,128.63,160.72Z" style="fill:#fff"/><path d="M162.47,143.32l-.09-.29a120.94,120.94,0,0,0-17.17,7.12l.15.28A120.64,120.64,0,0,1,162.47,143.32Z" style="fill:#fff"/><path d="M84.55,221.59l-.28-.09a120.76,120.76,0,0,0-4.33,18.07l.28.05A121.18,121.18,0,0,1,84.55,221.59Z" style="fill:#fff"/><path d="M144.86,150.68l-.14-.28a121.6,121.6,0,0,0-15.83,9.72l.19.27A121.64,121.64,0,0,1,144.86,150.68Z" style="fill:#fff"/><path d="M320.43,239.62l.28-.05a120.76,120.76,0,0,0-4.33-18.07l-.28.09A121.18,121.18,0,0,1,320.43,239.62Z" style="fill:#fff"/><path d="M298.53,187.23l.26-.2a122.12,122.12,0,0,0-12.06-14.12l-.24.24A121.69,121.69,0,0,1,298.53,187.23Z" style="fill:#fff"/><path d="M286.1,172.75l.24-.23a122.31,122.31,0,0,0-14.13-12.07l-.19.27A123.31,123.31,0,0,1,286.1,172.75Z" style="fill:#fff"/><path d="M308.57,203.46l.28-.15a121.25,121.25,0,0,0-9.73-15.83l-.26.2A122.75,122.75,0,0,1,308.57,203.46Z" style="fill:#fff"/><path d="M322,258.64h.28a122.87,122.87,0,0,0-1.44-18.52l-.28,0A122.44,122.44,0,0,1,322,258.64Z" style="fill:#fff"/><path d="M237.65,143.15l.09-.29a120.15,120.15,0,0,0-18.07-4.32l0,.28A120.12,120.12,0,0,1,237.65,143.15Z" style="fill:#fff"/><path d="M315.93,221.07l.28-.1a120.77,120.77,0,0,0-7.11-17.16l-.28.14A122.65,122.65,0,0,1,315.93,221.07Z" style="fill:#fff"/><path d="M271.57,160.39l.19-.27a121.6,121.6,0,0,0-15.83-9.72l-.14.28A121.64,121.64,0,0,1,271.57,160.39Z" style="fill:#fff"/><path d="M255.29,150.43l.15-.28A120.94,120.94,0,0,0,238.27,143l-.09.29A120.16,120.16,0,0,1,255.29,150.43Z" style="fill:#fff"/><path d="M78.41,258.64a124.19,124.19,0,0,1,1.44-18.52l.09-.55a120.76,120.76,0,0,1,4.33-18.07c0-.17.11-.35.17-.53a120.77,120.77,0,0,1,7.11-17.16l.25-.5a121.25,121.25,0,0,1,9.73-15.83l.33-.45a122.12,122.12,0,0,1,12.06-14.12l.4-.39a122.21,122.21,0,0,1,14.12-12.07l.45-.33a121.6,121.6,0,0,1,15.83-9.72l.49-.25A120.94,120.94,0,0,1,162.38,143l.53-.17A120.44,120.44,0,0,1,181,138.54c.18,0,.36-.07.55-.09A121.58,121.58,0,0,1,200.05,137h.55a121.72,121.72,0,0,1,18.53,1.44l.54.09a120.15,120.15,0,0,1,18.07,4.32l.53.17a120.94,120.94,0,0,1,17.17,7.12l.49.25a121.6,121.6,0,0,1,15.83,9.72l.45.33a122.31,122.31,0,0,1,14.13,12.07l.39.39A122.12,122.12,0,0,1,298.79,187l.33.45a121.25,121.25,0,0,1,9.73,15.83c.08.17.17.33.25.5A120.77,120.77,0,0,1,316.21,221c.06.18.12.36.17.53a120.76,120.76,0,0,1,4.33,18.07l.09.55a122.87,122.87,0,0,1,1.44,18.52v.05h.28a122.2,122.2,0,0,0-244.39,0h.28Z" style="fill:#fff"/><path d="M322,258.64v.05h.28v-.05Z" style="fill:#fff"/><path d="M320.52,240.16l.28,0-.09-.55-.28.05Z" style="fill:#fff"/><path d="M316.1,221.59l.28-.09c-.05-.17-.11-.35-.17-.53l-.28.1C316,221.24,316,221.42,316.1,221.59Z" style="fill:#fff"/><path d="M308.82,204l.28-.14c-.08-.17-.17-.33-.25-.5l-.28.15C308.65,203.62,308.73,203.79,308.82,204Z" style="fill:#fff"/><path d="M298.86,187.68l.26-.2-.33-.45-.26.2Z" style="fill:#fff"/><path d="M286.49,173.15l.24-.24-.39-.39-.24.23Z" style="fill:#fff"/><path d="M272,160.72l.19-.27-.45-.33-.19.27Z" style="fill:#fff"/><path d="M255.79,150.68l.14-.28-.49-.25-.15.28Z" style="fill:#fff"/><path d="M238.18,143.32l.09-.29-.53-.17-.09.29Z" style="fill:#fff"/><path d="M219.63,138.82l0-.28-.54-.09,0,.28Z" style="fill:#fff"/><path d="M200.33,137.28h.27V137h-.55v.27Z" style="fill:#fff"/><path d="M181.57,138.73l0-.28c-.19,0-.37.06-.55.09l0,.28Z" style="fill:#fff"/><path d="M163,143.15l-.09-.29-.53.17.09.29Z" style="fill:#fff"/><path d="M145.36,150.43l-.15-.28-.49.25.14.28Z" style="fill:#fff"/><path d="M129.08,160.39l-.19-.27-.45.33.19.27Z" style="fill:#fff"/><path d="M114.55,172.75l-.23-.23-.4.39.24.24Z" style="fill:#fff"/><path d="M102.12,187.23l-.26-.2-.33.45.27.2Z" style="fill:#fff"/><path d="M92.08,203.46l-.28-.15-.25.5.28.14C91.92,203.79,92,203.62,92.08,203.46Z" style="fill:#fff"/><path d="M84.72,221.07l-.28-.1c-.06.18-.12.36-.17.53l.28.09C84.61,221.42,84.67,221.24,84.72,221.07Z" style="fill:#fff"/><path d="M80.22,239.62l-.28-.05-.09.55.28,0C80.16,240,80.2,239.8,80.22,239.62Z" style="fill:#fff"/><path d="M78.69,258.64h-.28v.05h.28Z" style="fill:#fff"/><polygon points="39.83 251.42 32.53 251.1 32.53 251.11 39.56 251.42 39.53 251.97 39.26 251.96 39.1 258.38 32.07 258.36 32.07 258.69 39.65 258.69 39.83 251.42" style="fill:#fff"/><path d="M32.24,251.64l0-.55h.26c0-.76.08-1.53.14-2.27,0-.36.06-.71.08-1.07l.25-3.33-.28,0,.05-.55,7,.61v0l-7.27-.63-.3,3.91c0,.36,0,.71-.08,1.06-.06.85-.13,1.72-.14,2.59v.27l7.29.32h0Z" style="fill:#fff"/><polygon points="39.56 251.42 32.53 251.11 32.53 251.1 32.27 251.09 32.24 251.64 39.26 251.96 39.26 251.96 39.53 251.97 39.56 251.42" style="fill:#fff"/><path d="M40,245l-7-.61v0l7.28.63,0-.29c.09-1.71.31-3.44.53-5.12.08-.59.16-1.19.23-1.78l0-.27-7.24-.95h0l7,.91-.08.55-.27,0c-.06.5-.13,1-.19,1.5-.21,1.59-.42,3.23-.52,4.86l.28,0Z" style="fill:#fff"/><path d="M32.77,243.85l-.05.55.28,0v0l7,.61,0-.55-.28,0v0Z" style="fill:#fff"/><path d="M33.51,237.17l.07-.56.27,0,.43-3.32.59-3.3-.28,0,.1-.55,6.92,1.21h0l-7.19-1.26-.69,3.87-.5,3.89,7.24.94h0Z" style="fill:#fff"/><polygon points="40.82 237.57 33.85 236.66 33.85 236.65 33.58 236.61 33.51 237.16 40.47 238.08 40.47 238.08 40.74 238.12 40.82 237.57" style="fill:#fff"/><path d="M41.78,231.23,34.87,230h0l7.18,1.26.05-.27c.1-.53.19-1.06.29-1.59.3-1.72.61-3.5,1-5.22l.07-.28-7.13-1.57h0l6.85,1.5-.12.55-.28-.06c-.4,1.65-.7,3.34-1,5-.08.44-.15.87-.23,1.31l.27.05Z" style="fill:#fff"/><path d="M34.69,229.44l-.1.55.28,0h0l6.91,1.21.1-.54-.27-.05h0Z" style="fill:#fff"/><path d="M36,222.84l.12-.54.28.06.81-3.54c.23-1,.46-2,.74-3l-.26-.07.15-.54,6.79,1.81h0l-7-1.88-.08.26c-.33,1.08-.58,2.2-.83,3.28l-.94,4.09,7.12,1.57h0Z" style="fill:#fff"/><polygon points="43.23 223.88 36.38 222.37 36.38 222.36 36.1 222.3 35.98 222.84 42.83 224.35 42.83 224.36 43.11 224.42 43.23 223.88" style="fill:#fff"/><path d="M44.73,217.65l-6.79-1.81h0L45,217.73l.08-.26.69-2.45c.39-1.39.8-2.84,1.23-4.24l.07-.27-7-2.18h0l6.69,2.1-.17.53-.26-.08c-.39,1.32-.77,2.67-1.14,4-.21.72-.41,1.45-.62,2.17l.26.07Z" style="fill:#fff"/><path d="M37.82,215.24l-.15.54.26.07h0l6.79,1.81.14-.54-.26-.07h0Z" style="fill:#fff"/><polygon points="39.67 208.78 39.84 208.25 40.11 208.33 42.26 201.98 48.85 204.37 49.03 203.87 42.17 201.36 42.17 201.35 41.91 201.26 39.4 208.7 46.37 210.88 46.37 210.88 39.67 208.78" style="fill:#fff"/><polygon points="46.8 210.44 40.11 208.34 40.11 208.33 39.84 208.25 39.67 208.78 46.37 210.88 46.37 210.88 46.63 210.97 46.8 210.44" style="fill:#fff"/><polygon points="49.03 203.87 49.28 203.96 52.03 196.97 45.29 194.17 45.29 194.17 51.78 196.87 51.56 197.39 51.31 197.28 48.96 203.25 42.36 200.83 42.17 201.35 49.04 203.84 49.03 203.87" style="fill:#fff"/><polygon points="49.03 203.87 49.04 203.84 42.17 201.35 42.17 201.36 49.03 203.87" style="fill:#fff"/><polygon points="44.83 194.58 45.04 194.06 45.29 194.17 45.52 193.59 48.02 188.06 47.76 187.94 48 187.43 54.35 190.41 54.36 190.4 47.75 187.3 45.01 193.38 44.57 194.48 51.31 197.28 51.31 197.28 44.83 194.58" style="fill:#fff"/><polygon points="51.78 196.87 45.29 194.17 45.29 194.17 45.04 194.06 44.83 194.58 51.31 197.28 51.31 197.28 51.56 197.39 51.78 196.87" style="fill:#fff"/><polygon points="54.38 191.02 48.02 188.04 48.02 188.06 54.63 191.15 55.46 189.32 57.96 184.42 51.49 181.04 51.49 181.05 57.71 184.3 57.46 184.79 57.21 184.66 54.95 189.08 54.36 190.4 54.62 190.51 54.38 191.02" style="fill:#fff"/><polygon points="48 187.43 47.76 187.94 48.02 188.06 48.02 188.04 54.38 191.02 54.62 190.51 54.36 190.4 54.35 190.41 48 187.43" style="fill:#fff"/><polygon points="50.99 181.41 51.25 180.92 51.49 181.04 52.6 178.88 54.72 175.18 54.48 175.04 54.76 174.56 60.84 178.08 60.84 178.07 54.52 174.41 52.11 178.61 50.74 181.29 57.21 184.66 57.22 184.66 50.99 181.41" style="fill:#fff"/><polygon points="57.71 184.3 51.49 181.05 51.49 181.04 51.25 180.92 50.99 181.41 57.22 184.66 57.21 184.66 57.46 184.79 57.71 184.3" style="fill:#fff"/><polygon points="60.8 178.69 54.73 175.17 54.72 175.18 61.04 178.84 62.91 175.59 64.94 172.42 58.78 168.5 58.78 168.5 64.7 172.28 64.4 172.75 64.17 172.6 62.43 175.3 60.84 178.07 61.08 178.21 60.8 178.69" style="fill:#fff"/><polygon points="54.76 174.56 54.48 175.04 54.72 175.18 54.73 175.17 60.8 178.69 61.08 178.21 60.84 178.07 60.84 178.08 54.76 174.56" style="fill:#fff"/><path d="M58.25,168.82l.3-.47.23.15,1.82-2.83c.34-.55.72-1.09,1-1.49l.89-1.25-.23-.16.32-.45,5.75,4h0l-6-4.19-1.21,1.71c-.3.41-.68.95-1,1.51L58,168.67l6.16,3.93h0Z" style="fill:#fff"/><polygon points="64.7 172.28 58.78 168.5 58.78 168.5 58.55 168.35 58.25 168.82 64.17 172.59 64.17 172.6 64.4 172.75 64.7 172.28" style="fill:#fff"/><path d="M68.26,167l-5.75-4h0l6,4.19,2.17-3.06.37-.51c.21-.3.42-.61.64-.9l1.25-1.59-5.79-4.44h0l5.57,4.26-.34.45-.23-.17-.9,1.14-.66.92-.36.5-1.85,2.61.23.15Z" style="fill:#fff"/><polygon points="62.59 162.32 62.27 162.77 62.5 162.93 62.51 162.92 68.26 166.95 68.58 166.5 68.35 166.34 68.34 166.35 62.59 162.32" style="fill:#fff"/><path d="M66.56,156.89l.34-.44.22.17L69.19,154l.58-.75c.49-.62,1-1.26,1.52-1.87l5.39,4.52.35-.41-5.58-4.7h0l-.21-.18-.18.2c-.61.68-1.18,1.4-1.72,2.1l-.59.74-2.42,3.08,5.79,4.45h0Z" style="fill:#fff"/><polygon points="72.69 160.9 67.12 156.63 67.12 156.62 66.9 156.45 66.56 156.89 72.13 161.16 72.12 161.16 72.35 161.34 72.69 160.9" style="fill:#fff"/><polygon points="77.03 155.48 77.24 155.66 81.4 150.86 82.2 150.02 76.83 145.08 76.82 145.09 81.99 149.84 81.61 150.25 81.4 150.05 80.99 150.48 77.18 154.88 71.81 150.35 71.45 150.78 77.04 155.46 77.03 155.48" style="fill:#fff"/><polygon points="77.03 155.48 77.04 155.46 71.45 150.78 71.45 150.78 77.03 155.48" style="fill:#fff"/><polygon points="76.24 145.3 76.62 144.89 76.83 145.08 81.45 140.24 81.25 140.04 81.64 139.65 86.61 144.62 86.61 144.62 81.45 139.44 76.03 145.11 81.4 150.05 81.41 150.05 76.24 145.3" style="fill:#fff"/><polygon points="81.99 149.84 76.82 145.09 76.83 145.08 76.62 144.89 76.24 145.3 81.41 150.05 81.4 150.05 81.61 150.25 81.99 149.84" style="fill:#fff"/><polygon points="86.41 145.2 81.46 140.24 81.45 140.24 86.6 145.4 92.03 140.22 87.11 134.84 87.1 134.84 91.84 140.02 91.43 140.4 91.25 140.2 86.61 144.62 86.81 144.81 86.41 145.2" style="fill:#fff"/><polygon points="81.64 139.65 81.25 140.04 81.45 140.24 81.46 140.24 86.41 145.2 86.81 144.81 86.61 144.62 86.61 144.62 81.64 139.65" style="fill:#fff"/><path d="M86.51,135l.41-.38.19.21c1.1-1,2.24-2,3.34-2.93l1.7-1.47-.18-.22.42-.35,4.52,5.37h0l-4.7-5.59-.21.19-1.92,1.66c-1.18,1-2.4,2.06-3.57,3.13l-.21.19,4.94,5.39h0Z" style="fill:#fff"/><polygon points="91.84 140.02 87.1 134.84 87.11 134.84 86.92 134.63 86.51 135.01 91.25 140.19 91.25 140.2 91.43 140.4 91.84 140.02" style="fill:#fff"/><path d="M96.67,135.81l-4.51-5.38h0L96.84,136l.21-.18.48-.41q.41-.37.84-.72l4.33-3.39-4.46-5.79h0l4.28,5.57-.44.34-.16-.22L98,134.29c-.3.23-.59.48-.87.73l-.24.21.18.22Z" style="fill:#fff"/><polygon points="92.39 129.87 91.97 130.22 92.15 130.44 92.16 130.43 96.67 135.81 97.1 135.45 96.92 135.23 96.91 135.24 92.39 129.87" style="fill:#fff"/><path d="M97.64,125.66l.44-.34.16.22c1.29-1,2.66-2,4-3l1.41-1-.16-.23.46-.32,4,5.74h0l-4.2-6-.23.16-1.65,1.18c-1.41,1-2.87,2-4.23,3.14l-.21.17,4.45,5.78h0Z" style="fill:#fff"/><polygon points="102.52 131.11 98.24 125.54 98.24 125.54 98.08 125.32 97.64 125.66 101.92 131.23 101.92 131.23 102.08 131.45 102.52 131.11" style="fill:#fff"/><path d="M107.69,127.32l-4-5.74h0l4.2,6,.23-.16,1-.72c.6-.43,1.21-.87,1.83-1.28l3.17-2-3.94-6.15h0l3.79,5.91-.47.3-.15-.23-2.69,1.73c-.63.41-1.25.85-1.85,1.28l-.77.55.16.23Z" style="fill:#fff"/><polygon points="103.94 121.04 103.48 121.36 103.64 121.59 103.66 121.58 107.69 127.32 108.14 127 107.98 126.78 107.98 126.78 103.94 121.04" style="fill:#fff"/><path d="M109.52,117.29l.47-.3.15.24,2.82-1.81c.67-.41,1.35-.8,2-1.19l.87-.5,3.53,6.08.46-.27-3.65-6.32h0l-.14-.25-.24.14c-.36.22-.73.43-1.1.64-.69.39-1.37.79-2,1.2l-3.3,2.11,3.93,6.15h0Z" style="fill:#fff"/><polygon points="113.92 123.14 110.14 117.23 110.14 117.23 109.99 116.99 109.52 117.29 113.31 123.21 113.3 123.21 113.45 123.44 113.92 123.14" style="fill:#fff"/><path d="M119.85,119.54l.14.24,3.26-1.87c.64-.37,1.31-.71,2-1l1.1-.57.25-.13-3.37-6.47h0l3.24,6.23-.5.26-.13-.25-.84.43c-.66.33-1.35.68-2,1.06L120.19,119l-3.5-6.08-.49.28,3.67,6.31Z" style="fill:#fff"/><polygon points="119.85 119.54 119.87 119.53 116.2 113.22 116.2 113.22 119.85 119.54" style="fill:#fff"/><path d="M122.58,109.71l.49-.26.13.25,3-1.53.57-.29c.35-.18.69-.36,1-.52l1.4-.63-.12-.25.51-.23,3,6.36h0L129.48,106l-1.9.86c-.37.17-.72.35-1.07.53l-.58.3-3.48,1.78,3.36,6.48h0Z" style="fill:#fff"/><polygon points="126.44 115.93 123.2 109.7 123.2 109.7 123.07 109.45 122.58 109.71 125.82 115.94 125.81 115.94 125.94 116.19 126.44 115.93" style="fill:#fff"/><path d="M132.18,113.09l-3-6.37h0l3.08,6.62,4.16-1.88c.79-.36,1.61-.74,2.44-1l.28-.11-2.8-6.74h0l2.69,6.48-.51.21-.11-.26c-.76.29-1.5.63-2.22.95l-3.63,1.65.11.25Z" style="fill:#fff"/><polygon points="129.59 106.25 129.09 106.48 129.2 106.73 129.21 106.72 132.18 113.09 132.68 112.86 132.57 112.61 132.56 112.61 129.59 106.25" style="fill:#fff"/><path d="M135.74,103.53l.51-.22.11.27,2-.81,4.2-1.64-.09-.26.52-.19,2.4,6.6h0l-2.5-6.87-.26.1c-1.5.57-3,1.16-4.48,1.75l-2.3.9-.27.11,2.8,6.74h0Z" style="fill:#fff"/><polygon points="139.04 110.06 136.35 103.58 136.36 103.58 136.25 103.31 135.74 103.53 138.42 110 138.42 110.01 138.53 110.27 139.04 110.06" style="fill:#fff"/><path d="M145,107.72l-2.41-6.59h0l2.5,6.85,7.11-2.41L150,98.62h0l2.11,6.7-.53.16-.08-.26-6.07,2.06.1.25Z" style="fill:#fff"/><path d="M143,100.68l-.52.19.09.26h0l2.41,6.59.52-.19-.1-.25h0Z" style="fill:#fff"/><path d="M149.39,98.52l.53-.17.08.27c1.42-.44,2.88-.85,4.28-1.24l2.16-.61-.08-.28.54-.14,1.82,6.78h0l-1.89-7.05-.27.08-2.44.69c-1.5.42-3,.86-4.56,1.33l-.27.09,2.2,7h0Z" style="fill:#fff"/><polygon points="152.11 105.32 150 98.62 150 98.62 149.92 98.35 149.39 98.52 151.5 105.22 151.5 105.22 151.58 105.48 152.11 105.32" style="fill:#fff"/><path d="M158.27,103.54l-1.82-6.78h0l1.89,7,1.93-.54,5.36-1.24L164,94.91h0l1.52,6.86-.54.12-.06-.27-4.83,1.11-1.39.39.07.28Z" style="fill:#fff"/><path d="M156.9,96.35l-.54.14.08.28h0l1.82,6.78.53-.14-.07-.28h0Z" style="fill:#fff"/><polygon points="163.44 94.76 163.98 94.64 164.04 94.91 166.41 94.36 170.62 93.61 171.84 100.52 172.36 100.43 171.11 93.23 171.11 93.23 171.07 92.96 166.3 93.82 163.37 94.49 164.95 101.62 164.96 101.62 163.44 94.76" style="fill:#fff"/><polygon points="165.55 101.77 164.03 94.91 164.04 94.91 163.98 94.64 163.44 94.76 164.96 101.62 164.95 101.62 165.01 101.89 165.55 101.77" style="fill:#fff"/><path d="M172.36,100.43l0,.27.27,0,1.24-.22,2.18-.38,3.73-.47-.94-7.24h0l.9,7-.55.07,0-.28-3.18.4-2.2.38-1,.18-1.2-6.92-.55.09,1.28,7.19Z" style="fill:#fff"/><polygon points="172.36 100.43 172.38 100.42 171.11 93.23 171.11 93.23 172.36 100.43" style="fill:#fff"/><polygon points="178.31 92.14 178.86 92.06 178.9 92.34 183.11 91.81 185.55 91.62 185.52 91.34 186.08 91.3 186.68 98.3 186.69 98.3 186.07 91.02 183.06 91.25 178.27 91.86 179.2 99.1 179.21 99.1 178.31 92.14" style="fill:#fff"/><polygon points="179.79 99.31 178.89 92.34 178.9 92.34 178.86 92.06 178.31 92.14 179.21 99.1 179.2 99.1 179.24 99.38 179.79 99.31" style="fill:#fff"/><path d="M186.16,98.62l-.6-7h0l.62,7.27,4.17-.32c1-.07,2-.16,3-.16h.29l-.31-7.3h0l.29,7-.55,0v-.28c-.94,0-1.88.09-2.79.16l-3.6.27,0,.28Z" style="fill:#fff"/><polygon points="186.08 91.3 185.52 91.34 185.55 91.62 185.56 91.62 186.16 98.62 186.71 98.57 186.69 98.3 186.68 98.3 186.08 91.3" style="fill:#fff"/><polygon points="192.78 90.85 193.34 90.83 193.35 91.11 200.04 90.94 200.04 90.66 200.6 90.66 200.6 97.69 200.61 97.69 200.61 90.37 192.77 90.57 193.08 97.86 193.08 97.86 192.78 90.85" style="fill:#fff"/><polygon points="193.64 98.12 193.35 91.11 193.35 91.11 193.34 90.83 192.78 90.85 193.08 97.86 193.08 97.86 193.09 98.14 193.64 98.12" style="fill:#fff"/><polygon points="200.05 97.96 200.05 90.94 200.04 90.94 200.04 98.23 207.55 98.42 207.86 91.12 207.85 91.12 207.56 98.14 207 98.12 207.01 97.85 200.61 97.69 200.61 97.96 200.05 97.96" style="fill:#fff"/><polygon points="200.6 90.66 200.04 90.66 200.04 90.94 200.05 90.94 200.05 97.96 200.61 97.96 200.61 97.69 200.6 97.69 200.6 90.66" style="fill:#fff"/><path d="M207.32,90.83l.55,0v.27c1,0,2,.09,2.92.17l3.76.29,0-.28.56,0-.6,7h0l.62-7.28-4.33-.33c-1-.08-2.15-.16-3.23-.17h-.27L207,97.85h0Z" style="fill:#fff"/><polygon points="207.56 98.14 207.85 91.12 207.86 91.12 207.87 90.85 207.32 90.83 207.02 97.85 207.01 97.85 207 98.12 207.56 98.14" style="fill:#fff"/><polygon points="213.95 98.57 214.55 91.58 214.54 91.58 213.91 98.85 216.79 99.07 221.38 99.65 222.31 92.41 222.31 92.41 221.41 99.38 220.86 99.31 220.89 99.03 216.84 98.51 214.53 98.34 214.5 98.62 213.95 98.57" style="fill:#fff"/><polygon points="215.12 91.34 214.56 91.3 214.54 91.58 214.55 91.58 213.95 98.57 214.5 98.62 214.53 98.34 214.52 98.34 215.12 91.34" style="fill:#fff"/><path d="M221.8,92.07l.55.07,0,.27,3.33.43c.77.12,1.55.26,2.32.4l1,.17-1.2,6.92.53.09,1.27-7.18h0l.05-.28-.28,0-1.25-.22-2.35-.41-3.88-.49L220.89,99h0Z" style="fill:#fff"/><polygon points="221.41 99.38 222.31 92.41 222.31 92.41 222.35 92.14 221.8 92.07 220.9 99.03 220.89 99.03 220.86 99.31 221.41 99.38" style="fill:#fff"/><polygon points="228.27 100.42 228.22 100.7 232.76 101.51 235.58 102.16 237.16 95.03 237.16 95.03 235.63 101.89 235.09 101.77 235.15 101.49 232.87 100.97 228.86 100.25 230.09 93.33 229.54 93.24 228.29 100.43 228.27 100.42" style="fill:#fff"/><polygon points="228.27 100.42 228.29 100.43 229.54 93.24 229.54 93.24 228.27 100.42" style="fill:#fff"/><path d="M236.68,94.64l.54.12-.06.28,5,1.16,1.48.41.07-.27.54.15-1.82,6.79h0l1.89-7-2-.57-5.6-1.29-1.58,7.12h0Z" style="fill:#fff"/><polygon points="235.63 101.89 237.16 95.03 237.16 95.03 237.22 94.76 236.68 94.64 235.16 101.49 235.15 101.49 235.09 101.77 235.63 101.89" style="fill:#fff"/><path d="M241.86,103.4l1.82-6.79h0l-1.89,7,.26.07c.8.24,1.61.46,2.42.69,1.4.39,2.85.8,4.26,1.24l.27.09,2.19-7h0l-2.11,6.69-.54-.17.09-.26c-1.34-.41-2.7-.79-4-1.16l-2.14-.61-.07.26Z" style="fill:#fff"/><path d="M244.28,96.49l-.54-.15-.07.27h0l-1.82,6.79.54.14.07-.26h0Z" style="fill:#fff"/><polygon points="250.74 98.36 251.27 98.52 251.18 98.79 257.52 100.94 257.62 100.67 258.14 100.86 255.74 107.46 255.75 107.47 258.25 100.6 250.82 98.08 248.62 105.05 248.62 105.05 250.74 98.36" style="fill:#fff"/><polygon points="249.06 105.48 251.18 98.79 251.18 98.79 251.27 98.52 250.74 98.36 248.62 105.05 248.62 105.05 248.53 105.31 249.06 105.48" style="fill:#fff"/><path d="M255.14,107.53l2.4-6.59h0L255,107.79l.26.1,4.09,1.59,2.39,1,.25.09,2.8-6.74h0l-2.69,6.49-.51-.21.1-.25-2.13-.84c-1.27-.51-2.55-1-3.83-1.5l-.09.25Z" style="fill:#fff"/><polygon points="258.14 100.86 257.62 100.67 257.52 100.94 257.54 100.94 255.13 107.53 255.66 107.72 255.75 107.47 255.74 107.46 258.14 100.86" style="fill:#fff"/><path d="M264.4,103.32l.52.21-.1.25c.78.3,1.56.65,2.31,1l3.8,1.72.12-.26.51.24-3,6.36h0l3.09-6.61-4.33-2c-.84-.38-1.72-.78-2.61-1.11l-.25-.09-2.79,6.74h0Z" style="fill:#fff"/><polygon points="262.12 110.27 264.81 103.78 264.81 103.78 264.92 103.53 264.4 103.32 261.72 109.81 261.71 109.81 261.61 110.06 262.12 110.27" style="fill:#fff"/><path d="M268,112.86l3-6.36h0l-3.08,6.61,1.84.83c.34.15.67.32,1,.49l.56.29,3.34,1.71L278,110h0l-3.24,6.23-.49-.25.13-.25-2.85-1.46-.55-.28c-.34-.17-.67-.35-1-.5l-1.32-.6-.12.26Z" style="fill:#fff"/><polygon points="271.56 106.47 271.05 106.24 270.93 106.5 270.94 106.5 267.98 112.86 268.48 113.1 268.6 112.84 268.59 112.84 271.56 106.47" style="fill:#fff"/><path d="M277.58,109.45l.5.26L278,110l.89.45c.68.35,1.4.71,2.07,1.1l2.92,1.67-3.51,6.08.46.27,3.67-6.31h0l.14-.24-3.4-2c-.69-.39-1.41-.76-2.1-1.11l-1.14-.58-.24-.13-3.37,6.48h0Z" style="fill:#fff"/><polygon points="274.7 116.18 277.94 109.95 277.95 109.96 278.08 109.71 277.58 109.45 274.34 115.69 274.34 115.68 274.21 115.93 274.7 116.18" style="fill:#fff"/><path d="M280.78,119.53l-.14.24.24.14,1.09.62c.64.37,1.29.74,1.91,1.12l3.17,2,3.93-6.15h0l-3.79,5.91-.46-.3.15-.23-2.7-1.73c-.64-.39-1.29-.76-1.94-1.13l-.84-.48,3.53-6.08-.48-.27-3.65,6.32Z" style="fill:#fff"/><polygon points="280.78 119.53 280.8 119.54 284.45 113.22 284.45 113.22 280.78 119.53" style="fill:#fff"/><path d="M290.67,117l.46.3-.15.23,2.83,1.81c.65.43,1.3.89,1.92,1.34l.81.58.16-.23.46.32-4,5.75h0l4.2-6-.23-.16-1-.74c-.63-.45-1.28-.92-1.95-1.36l-3.3-2.11-3.93,6.15h0Z" style="fill:#fff"/><polygon points="287.19 123.44 290.98 117.53 290.99 117.53 291.13 117.3 290.67 117 286.88 122.91 286.88 122.91 286.73 123.14 287.19 123.44" style="fill:#fff"/><path d="M292.52,127l4-5.75h0l-4.19,6,.22.16,1.63,1.15c1.32.94,2.7,1.91,4,3l.22.18,4.46-5.79h0l-4.28,5.57-.44-.34.18-.23c-1.23-1-2.52-1.9-3.78-2.79-.47-.33-.93-.65-1.39-1l-.16.23Z" style="fill:#fff"/><polygon points="297.16 121.35 296.7 121.03 296.54 121.26 296.55 121.26 292.52 127.01 292.97 127.33 293.13 127.1 293.12 127.1 297.16 121.35" style="fill:#fff"/><path d="M302.58,125.33l.44.34-.17.22,4.07,3.2c.3.23.59.49.88.74l.27.24.18-.21.43.36-4.52,5.38h0l4.69-5.59-.21-.18-.48-.42c-.3-.26-.6-.52-.91-.76l-4.52-3.55-4.44,5.78h0Z" style="fill:#fff"/><polygon points="298.56 131.45 302.84 125.88 302.85 125.89 303.02 125.67 302.58 125.33 298.3 130.89 298.3 130.88 298.12 131.11 298.56 131.45" style="fill:#fff"/><path d="M303.56,135.46l4.52-5.38h0l-4.69,5.59.2.18,1.91,1.64c1.1,1,2.24,1.94,3.34,2.93l.2.19,4.93-5.38h0l-4.74,5.17-.41-.37.19-.21c-1-.93-2.1-1.86-3.14-2.75-.56-.48-1.13-1-1.68-1.46l-.18.21Z" style="fill:#fff"/><polygon points="308.68 130.22 308.25 129.86 308.07 130.07 308.08 130.08 303.56 135.46 303.99 135.81 304.17 135.6 304.16 135.6 308.68 130.22" style="fill:#fff"/><polygon points="313.74 134.64 314.15 135.01 313.96 135.22 318.8 139.84 319 139.64 319.4 140.03 314.43 145.01 314.44 145.02 319.61 139.84 313.93 134.43 308.99 139.81 309 139.82 313.74 134.64" style="fill:#fff"/><polygon points="309.21 140.39 313.95 135.22 313.96 135.22 314.15 135.01 313.74 134.64 309 139.82 308.99 139.81 308.8 140.02 309.21 140.39" style="fill:#fff"/><polygon points="313.85 144.81 318.81 139.85 318.8 139.84 313.65 145 318.84 150.43 324.21 145.49 324.21 145.49 319.04 150.24 318.66 149.83 318.86 149.65 314.44 145.02 314.25 145.21 313.85 144.81" style="fill:#fff"/><polygon points="319.4 140.03 319 139.64 318.8 139.84 318.81 139.85 313.85 144.81 314.25 145.21 314.44 145.02 314.43 145.01 319.4 140.03" style="fill:#fff"/><polygon points="324.04 144.9 324.42 145.31 324.21 145.49 324.64 145.94 328.63 150.54 323.26 155.06 323.6 155.47 329.21 150.77 329.21 150.78 329.42 150.6 325.05 145.56 324.24 144.71 318.86 149.65 318.87 149.65 324.04 144.9" style="fill:#fff"/><polygon points="319.04 150.24 324.21 145.49 324.21 145.49 324.42 145.31 324.04 144.9 318.87 149.65 318.86 149.65 318.66 149.83 319.04 150.24" style="fill:#fff"/><path d="M323.6,155.47l-.21.18.19.21c.57.63,1.1,1.31,1.61,2l.57.73,2.33,2.95,5.79-4.44h0l-5.58,4.27-.34-.44.22-.17-2-2.52-.57-.72c-.46-.59-.93-1.2-1.44-1.78l5.37-4.5-.35-.42-5.59,4.7Z" style="fill:#fff"/><polygon points="323.6 155.47 323.62 155.49 329.21 150.78 329.21 150.77 323.6 155.47" style="fill:#fff"/><path d="M333.76,156.45l.34.45-.22.16.95,1.21.69.95.36.52,1.94,2.73.23-.16.32.45-5.75,4h0l6-4.19-2.27-3.19c-.13-.17-.25-.35-.37-.52-.23-.32-.46-.65-.7-1l-1.3-1.65-5.79,4.44h0Z" style="fill:#fff"/><polygon points="328.3 161.33 333.88 157.06 333.88 157.06 334.1 156.9 333.76 156.45 328.18 160.73 328.18 160.72 327.96 160.89 328.3 161.33" style="fill:#fff"/><path d="M332.08,166.5l5.75-4h0l-6,4.19L333,168.3c.28.39.64.89,1,1.43l2,3.17,6.15-3.93h0l-5.92,3.77-.3-.47.23-.15-1.72-2.68c-.34-.55-.71-1.07-1-1.46l-.84-1.18-.23.16Z" style="fill:#fff"/><polygon points="338.37 162.76 338.05 162.31 337.82 162.47 337.83 162.48 332.08 166.5 332.4 166.96 332.63 166.8 332.62 166.79 338.37 162.76" style="fill:#fff"/><polygon points="342.11 168.35 342.4 168.82 342.17 168.97 343.97 171.79 345.65 174.69 345.89 174.55 346.16 175.03 340.09 178.55 340.09 178.56 346.41 174.91 344.45 171.5 342.34 168.2 336.18 172.13 336.18 172.13 342.11 168.35" style="fill:#fff"/><polygon points="336.25 172.74 342.17 168.97 342.17 168.97 342.4 168.82 342.11 168.35 336.18 172.13 336.18 172.13 335.95 172.27 336.25 172.74" style="fill:#fff"/><polygon points="339.57 178.22 345.65 174.7 345.65 174.69 339.33 178.35 341.63 182.35 342.95 184.92 349.42 181.54 349.41 181.54 343.19 184.79 342.94 184.29 343.18 184.16 342.12 182.08 340.09 178.56 339.85 178.7 339.57 178.22" style="fill:#fff"/><polygon points="346.16 175.03 345.89 174.55 345.65 174.69 345.65 174.7 339.57 178.22 339.85 178.7 340.09 178.56 340.09 178.55 346.16 175.03" style="fill:#fff"/><polygon points="349.41 180.92 349.67 181.41 349.42 181.54 351.77 186.14 352.4 187.54 352.65 187.42 352.88 187.92 346.52 190.9 346.52 190.91 353.14 187.82 352.27 185.9 349.65 180.79 343.18 184.16 343.19 184.17 349.41 180.92" style="fill:#fff"/><polygon points="343.19 184.79 349.41 181.54 349.42 181.54 349.67 181.41 349.41 180.92 343.19 184.17 343.18 184.16 342.94 184.29 343.19 184.79" style="fill:#fff"/><polygon points="346.04 190.53 352.4 187.55 352.4 187.54 345.79 190.63 348.4 196.42 348.83 197.5 355.57 194.69 355.56 194.69 349.09 197.38 348.87 196.87 349.13 196.76 348.92 196.21 346.52 190.91 346.28 191.03 346.04 190.53" style="fill:#fff"/><polygon points="352.88 187.92 352.65 187.42 352.4 187.54 352.4 187.55 346.04 190.53 346.28 191.03 346.52 190.91 346.52 190.9 352.88 187.92" style="fill:#fff"/><polygon points="355.61 194.07 355.83 194.58 355.57 194.69 358.02 200.93 351.44 203.34 351.62 203.84 358.47 201.36 358.47 201.36 358.75 201.26 355.87 193.95 349.13 196.76 349.14 196.76 355.61 194.07" style="fill:#fff"/><polygon points="349.09 197.38 355.56 194.69 355.57 194.69 355.83 194.58 355.61 194.07 349.14 196.76 349.13 196.76 348.87 196.87 349.09 197.38" style="fill:#fff"/><polygon points="351.62 203.84 351.35 203.94 353.76 211.05 360.71 208.87 360.71 208.86 354.01 210.96 353.85 210.43 354.11 210.35 352.05 204.27 358.66 201.88 358.47 201.36 351.63 203.86 351.62 203.84" style="fill:#fff"/><polygon points="351.62 203.84 351.63 203.86 358.47 201.36 358.47 201.36 351.62 203.84" style="fill:#fff"/><path d="M360.82,208.25l.16.53-.27.09c.43,1.43.85,2.89,1.25,4.31.2.71.39,1.42.6,2.12l.27-.07.14.54-6.77,1.8h0l7.05-1.87-.08-.28c-.23-.8-.45-1.6-.68-2.4-.42-1.51-.87-3.07-1.33-4.6l-.08-.27-7,2.19h0Z" style="fill:#fff"/><polygon points="354.01 210.96 360.71 208.86 360.71 208.87 360.98 208.78 360.82 208.25 354.11 210.35 354.11 210.35 353.85 210.43 354.01 210.96" style="fill:#fff"/><path d="M355.78,217.12l6.78-1.8v0l-7.06,1.88.08.28c.31,1,.55,2.06.78,3.07l.91,3.95,7.13-1.57h0l-6.86,1.51-.12-.54.27-.06-.79-3.4c-.21-.93-.43-1.89-.7-2.83l-.28.08Z" style="fill:#fff"/><path d="M363,215.77l-.14-.54-.27.07v0l-6.78,1.8.14.54.28-.08h0Z" style="fill:#fff"/><path d="M364.55,222.3l.12.55-.27.06c.43,1.73.74,3.51,1.05,5.24l.24,1.32.27,0,.1.54-6.92,1.22h0l7.2-1.26-.06-.28c-.09-.53-.19-1.07-.28-1.61-.33-1.83-.66-3.71-1.12-5.55l-.07-.26-7.12,1.57h0Z" style="fill:#fff"/><polygon points="357.54 224.41 364.4 222.9 364.4 222.91 364.67 222.85 364.55 222.31 357.69 223.82 357.69 223.81 357.42 223.87 357.54 224.41" style="fill:#fff"/><path d="M358.77,230.7l6.92-1.21v0l-7.19,1.26.66,3.69.47,3.73,7.24-.94h0l-7,.91-.08-.55.28,0-.4-3.18-.57-3.14-.27.05Z" style="fill:#fff"/><path d="M366.06,230l-.1-.54-.27,0v0l-6.92,1.21.1.55.27-.05h0Z" style="fill:#fff"/><path d="M367.07,236.62l.07.55-.27,0c.06.51.13,1,.19,1.52.22,1.68.44,3.41.55,5.13l.27,0,.05.56-7,.61h0l7.27-.63,0-.27c-.1-1.83-.34-3.67-.57-5.45-.08-.6-.15-1.2-.23-1.8l0-.28-7.24.94h0Z" style="fill:#fff"/><polygon points="359.91 238.11 366.87 237.2 366.87 237.21 367.14 237.17 367.07 236.62 360.11 237.53 360.11 237.53 359.83 237.56 359.91 238.11" style="fill:#fff"/><path d="M360.61,244.48l7-.61h0l-7.28.63.29,3.75c0,.34.05.69.08,1,.06.8.13,1.62.13,2.43V252l7.3-.33h0l-7,.31,0-.56h.29c0-.73-.07-1.46-.13-2.17,0-.34-.05-.69-.08-1l-.24-3.19-.27,0Z" style="fill:#fff"/><path d="M367.93,244.39l-.05-.56-.27,0h0l-7,.61.05.55.27,0h0Z" style="fill:#fff"/><polygon points="361.38 251.4 361.38 251.4 368.39 251.09 368.41 251.65 368.13 251.66 368.3 258.37 361.28 258.38 361.28 258.69 368.86 258.69 368.67 251.08 361.38 251.4" style="fill:#fff"/><polygon points="361.12 251.97 368.13 251.66 368.13 251.66 368.41 251.65 368.39 251.09 361.38 251.4 361.38 251.4 361.09 251.41 361.12 251.97" style="fill:#fff"/><path d="M200.33,78.3A180.61,180.61,0,0,0,19.71,258.69h1.11C21,159.82,101.42,79.42,200.33,79.42s179.37,80.4,179.5,179.27h1.11A180.61,180.61,0,0,0,200.33,78.3Z" style="fill:#fab317"/><path d="M200.33,72.68a186.25,186.25,0,0,0-186.24,186h.56C14.77,156.41,98,73.24,200.33,73.24S385.88,156.41,386,258.69h.56a186.25,186.25,0,0,0-186.23-186Z" style="fill:#fff"/><path d="M149.88,183.33v85.11a9.57,9.57,0,0,0,9.58,9.57H240.6a9.57,9.57,0,0,0,9.58-9.57V183.33Z" style="fill:#1a1a1a"/><path d="M149.88,183.33v85.11a9.57,9.57,0,0,0,9.58,9.57H240.6a9.57,9.57,0,0,0,9.58-9.57V183.33Z" style="fill:none;stroke:#fff;stroke-miterlimit:10"/><ellipse cx="173.64" cy="215.39" rx="17.6" ry="17.58" style="fill:none;stroke:#fff;stroke-miterlimit:10"/><ellipse cx="263.72" cy="243.95" rx="15.55" ry="15.53" style="fill:#1a1a1a"/><ellipse cx="263.72" cy="243.95" rx="15.55" ry="15.53" style="fill:none;stroke:#fff;stroke-miterlimit:10"/><ellipse cx="263.72" cy="243.95" rx="14.04" ry="14.03" style="fill:#1a1a1a"/><ellipse cx="263.72" cy="243.95" rx="14.04" ry="14.03" style="fill:none;stroke:#fff;stroke-miterlimit:10"/><ellipse cx="263.82" cy="243.95" rx="7.52" ry="7.51" style="fill:#1a1a1a"/><ellipse cx="263.82" cy="243.95" rx="7.52" ry="7.51" style="fill:none;stroke:#fff;stroke-miterlimit:10"/><circle cx="263.82" cy="243.95" r="3.19" style="fill:#f8b318;stroke:#fff;stroke-miterlimit:10"/><ellipse cx="136.85" cy="243.95" rx="15.55" ry="15.53" style="fill:#1a1a1a"/><ellipse cx="136.85" cy="243.95" rx="15.55" ry="15.53" style="fill:none;stroke:#fff;stroke-miterlimit:10"/><ellipse cx="136.85" cy="243.95" rx="14.04" ry="14.03" style="fill:#1a1a1a"/><ellipse cx="136.85" cy="243.95" rx="14.04" ry="14.03" style="fill:none;stroke:#fff;stroke-miterlimit:10"/><ellipse cx="136.95" cy="243.95" rx="7.52" ry="7.51" style="fill:#1a1a1a"/><ellipse cx="136.95" cy="243.95" rx="7.52" ry="7.51" style="fill:none;stroke:#fff;stroke-miterlimit:10"/><circle cx="136.95" cy="243.95" r="3.19" style="fill:#f8b318;stroke:#fff;stroke-miterlimit:10"/><ellipse cx="226.74" cy="215.39" rx="17.6" ry="17.58" style="fill:none;stroke:#fff;stroke-miterlimit:10"/><rect x="195.64" y="178.66" width="8.74" height="13.94" style="fill:none;stroke:#fff;stroke-miterlimit:10"/><circle cx="200.01" cy="196.12" r="5.67" style="fill:#f8b318;stroke:#fff;stroke-miterlimit:10"/><circle cx="200.01" cy="196.12" r="2.77" style="fill:#f8b318;stroke:#fff;stroke-miterlimit:10"/><line x1="197.9" y1="198.2" x2="201.98" y2="194.13" style="fill:#f8b318;stroke:#fff;stroke-miterlimit:10"/><line x1="201.98" y1="198.2" x2="197.9" y2="194.13" style="fill:#f8b318;stroke:#fff;stroke-miterlimit:10"/><ellipse cx="173.65" cy="215.39" rx="23.72" ry="23.7" style="fill:none;stroke:#f8b318;stroke-miterlimit:10"/><ellipse cx="226.37" cy="215.39" rx="23.72" ry="23.7" style="fill:none;stroke:#f8b318;stroke-miterlimit:10"/><ellipse cx="173.64" cy="215.39" rx="20.56" ry="20.54" style="fill:none;stroke:#f8b318;stroke-miterlimit:10"/><ellipse cx="226.9" cy="215.39" rx="20.56" ry="20.54" style="fill:none;stroke:#f8b318;stroke-miterlimit:10"/><ellipse cx="173.64" cy="215.63" rx="17.6" ry="17.58" style="fill:#1a1a1a"/><g style="clip-path:url(#f13a0754-eafc-4e69-bcac-79441a1dec1d)"><line x1="156.87" y1="223.77" x2="187.84" y2="202.84" style="fill:none;stroke:#fff;stroke-miterlimit:10"/><line x1="160.6" y1="229.8" x2="191.57" y2="208.86" style="fill:none;stroke:#fff;stroke-miterlimit:10"/></g><ellipse cx="226.85" cy="215.63" rx="17.6" ry="17.58" style="fill:#1a1a1a"/><g style="clip-path:url(#ac635b04-d528-4a8e-a6ec-7f4c5980e8e3)"><line x1="210.08" y1="223.77" x2="241.05" y2="202.84" style="fill:none;stroke:#fff;stroke-miterlimit:10"/><line x1="213.81" y1="229.8" x2="244.78" y2="208.86" style="fill:none;stroke:#fff;stroke-miterlimit:10"/></g><circle cx="155.56" cy="200.49" r="5.67" style="fill:#f8b318;stroke:#fff;stroke-miterlimit:10"/><circle cx="155.56" cy="200.49" r="2.77" style="fill:#f8b318;stroke:#fff;stroke-miterlimit:10"/><line x1="153.45" y1="202.57" x2="157.53" y2="198.5" style="fill:#f8b318;stroke:#fff;stroke-miterlimit:10"/><line x1="157.53" y1="202.57" x2="153.45" y2="198.5" style="fill:#f8b318;stroke:#fff;stroke-miterlimit:10"/><circle cx="244.76" cy="200.49" r="5.67" style="fill:#f8b318;stroke:#fff;stroke-miterlimit:10"/><circle cx="244.76" cy="200.49" r="2.77" style="fill:#f8b318;stroke:#fff;stroke-miterlimit:10"/><line x1="242.65" y1="202.57" x2="246.73" y2="198.5" style="fill:#f8b318;stroke:#fff;stroke-miterlimit:10"/><line x1="246.73" y1="202.57" x2="242.65" y2="198.5" style="fill:#f8b318;stroke:#fff;stroke-miterlimit:10"/><rect x="149.88" y="176.82" width="100.3" height="6.51" style="fill:#1a1a1a"/><rect x="149.88" y="176.82" width="100.3" height="6.51" style="fill:none;stroke:#fff;stroke-miterlimit:10"/><circle cx="200.16" cy="251.15" r="23.41" style="fill:#f8b318;stroke:#fff;stroke-miterlimit:10"/><path d="M215.22,255.78c0,1-1.39,1.91-3.09,1.91H189.27c-1.7,0-3.09-.86-3.09-1.91s1.39-1.91,3.09-1.91h22.86C213.83,253.87,215.22,254.73,215.22,255.78Z" style="fill:#1a1a1a"/><circle cx="195.96" cy="236.52" r="2.44" style="fill:#1a1a1a"/><circle cx="203.93" cy="236.52" r="2.44" style="fill:#1a1a1a"/></svg>