<svg id="fcff52de-1ea2-4093-b199-daecdca9f1b4" data-name="Layer 1" xmlns="http://www.w3.org/2000/svg" xmlns:xlink="http://www.w3.org/1999/xlink" viewBox="0 0 400 400"><defs><clipPath id="b45509c8-27f3-451a-9ba5-7629b0f36656"><rect x="-37.72" y="-34.58" width="462.9" height="298.22" style="fill:none"/></clipPath><clipPath id="a3b7af11-ef1c-41f3-84fc-eca9f1bc1ccc"><path d="M200.38,140.35A123.52,123.52,0,1,0,323.9,263.87,123.52,123.52,0,0,0,200.38,140.35Zm0,231.45A107.93,107.93,0,1,1,308.31,263.87,107.93,107.93,0,0,1,200.38,371.8Z" style="fill:none"/></clipPath></defs><g style="clip-path:url(#b45509c8-27f3-451a-9ba5-7629b0f36656)"><circle cx="200.38" cy="263.87" r="194.71" style="fill:#1a1a1a"/><circle cx="200.38" cy="263.87" r="194.71" style="fill:#1a1a1a"/><circle cx="200.38" cy="263.87" r="194.71" style="fill:#1a1a1a"/><circle cx="200.38" cy="263.87" r="194.71" style="fill:#1a1a1a"/><g style="clip-path:url(#a3b7af11-ef1c-41f3-84fc-eca9f1bc1ccc)"><path d="M200.38,391.8a127.86,127.86,0,1,1,90.48-37.45A127.1,127.1,0,0,1,200.38,391.8Zm0-255.29A127.37,127.37,0,1,0,327.74,263.87,127.51,127.51,0,0,0,200.38,136.51Z" style="fill:#fff"/><rect x="200.1" y="263.87" width="0.56" height="127.65" style="fill:#fff"/><rect x="210.08" y="263.09" width="0.56" height="127.65" transform="matrix(0.99, -0.16, 0.16, 0.99, -48.55, 36.93)" style="fill:#fff"/><rect x="219.82" y="260.75" width="0.56" height="127.65" transform="translate(-89.53 83.9) rotate(-18)" style="fill:#fff"/><rect x="229.07" y="256.92" width="0.56" height="127.65" transform="translate(-120.61 139.08) rotate(-27)" style="fill:#fff"/><rect x="237.61" y="251.68" width="0.56" height="127.65" transform="translate(-140.02 200.09) rotate(-36)" style="fill:#fff"/><rect x="245.23" y="245.18" width="0.56" height="127.65" transform="translate(-146.59 264.11) rotate(-45)" style="fill:#fff"/><rect x="251.73" y="237.56" width="0.56" height="127.65" transform="translate(-139.94 328.12) rotate(-54)" style="fill:#fff"/><rect x="256.97" y="229.02" width="0.56" height="127.65" transform="translate(-120.47 389.11) rotate(-63)" style="fill:#fff"/><rect x="260.8" y="219.77" width="0.56" height="127.65" transform="translate(-89.31 444.26) rotate(-72)" style="fill:#fff"/><rect x="263.14" y="210.03" width="0.56" height="127.65" transform="translate(-48.27 491.19) rotate(-81)" style="fill:#fff"/><rect x="200.38" y="263.59" width="127.65" height="0.56" style="fill:#fff"/><rect x="199.59" y="253.61" width="127.65" height="0.56" transform="translate(-36.45 44.3) rotate(-8.99)" style="fill:#fff"/><rect x="197.26" y="243.87" width="127.65" height="0.56" transform="translate(-62.6 92.49) rotate(-17.97)" style="fill:#fff"/><rect x="193.42" y="234.61" width="127.65" height="0.56" transform="translate(-78.63 142.48) rotate(-27.02)" style="fill:#fff"/><rect x="188.19" y="226.08" width="127.65" height="0.56" transform="translate(-84.93 191.47) rotate(-36.02)" style="fill:#fff"/><rect x="181.69" y="218.46" width="127.65" height="0.56" transform="translate(-82.77 237.67) rotate(-45)" style="fill:#fff"/><rect x="174.07" y="211.96" width="127.65" height="0.56" transform="translate(-73.66 279.84) rotate(-53.98)" style="fill:#fff"/><rect x="165.53" y="206.72" width="127.65" height="0.56" transform="translate(-59.24 317.3) rotate(-62.98)" style="fill:#fff"/><rect x="156.28" y="202.89" width="127.65" height="0.56" transform="translate(-41.08 349.83) rotate(-72.03)" style="fill:#fff"/><rect x="146.54" y="200.55" width="127.65" height="0.56" transform="translate(-20.88 377.22) rotate(-81.01)" style="fill:#fff"/><rect x="200.1" y="136.22" width="0.56" height="127.65" style="fill:#fff"/><rect x="190.11" y="137.01" width="0.56" height="127.65" transform="translate(-29.07 32.26) rotate(-9)" style="fill:#fff"/><rect x="180.38" y="139.35" width="0.56" height="127.65" transform="translate(-53.94 65.77) rotate(-18)" style="fill:#fff"/><rect x="171.12" y="143.18" width="0.56" height="127.65" transform="translate(-75.3 100.38) rotate(-27)" style="fill:#fff"/><rect x="162.58" y="148.41" width="0.56" height="127.65" transform="translate(-93.65 136.26) rotate(-36)" style="fill:#fff"/><rect x="154.97" y="154.92" width="0.56" height="127.65" transform="translate(-109.2 173.85) rotate(-45)" style="fill:#fff"/><rect x="148.46" y="162.53" width="0.56" height="127.65" transform="translate(-121.81 213.65) rotate(-54)" style="fill:#fff"/><rect x="143.23" y="171.07" width="0.56" height="127.65" transform="translate(-130.94 256.13) rotate(-63)" style="fill:#fff"/><rect x="139.4" y="180.33" width="0.56" height="127.65" transform="translate(-135.68 301.55) rotate(-72)" style="fill:#fff"/><rect x="137.06" y="190.06" width="0.56" height="127.65" transform="translate(-134.9 349.82) rotate(-81)" style="fill:#fff"/><rect x="72.73" y="263.59" width="127.65" height="0.56" style="fill:#fff"/><rect x="73.52" y="273.57" width="127.65" height="0.56" transform="translate(-41.12 24.83) rotate(-8.99)" style="fill:#fff"/><rect x="75.86" y="283.31" width="127.65" height="0.56" transform="translate(-80.7 56.95) rotate(-17.97)" style="fill:#fff"/><rect x="79.69" y="292.57" width="127.65" height="0.56" transform="translate(-117.36 97.14) rotate(-27.02)" style="fill:#fff"/><rect x="84.92" y="301.1" width="127.65" height="0.56" transform="translate(-148.79 145.09) rotate(-36.02)" style="fill:#fff"/><rect x="91.43" y="308.72" width="127.65" height="0.56" transform="translate(-173.03 200.28) rotate(-45)" style="fill:#fff"/><rect x="99.04" y="315.22" width="127.65" height="0.56" transform="translate(-188.1 261.7) rotate(-53.98)" style="fill:#fff"/><rect x="107.58" y="320.46" width="127.65" height="0.56" transform="translate(-192.19 327.75) rotate(-62.98)" style="fill:#fff"/><rect x="116.83" y="324.29" width="127.65" height="0.56" transform="translate(-183.82 396.25) rotate(-72.03)" style="fill:#fff"/><rect x="126.57" y="326.63" width="127.65" height="0.56" transform="translate(-162.26 463.86) rotate(-81.01)" style="fill:#fff"/></g><path d="M200.38,372.08A108.21,108.21,0,1,1,308.59,263.87,108.33,108.33,0,0,1,200.38,372.08Zm0-215.86A107.65,107.65,0,1,0,308,263.87,107.77,107.77,0,0,0,200.38,156.22Z" style="fill:#fff"/><path d="M200.38,387.68a123.82,123.82,0,1,1,87.54-36.27A123,123,0,0,1,200.38,387.68Zm0-247A123.24,123.24,0,1,0,323.62,263.87,123.38,123.38,0,0,0,200.38,140.63Z" style="fill:#fff"/><polygon points="370.65 271.81 362.99 271.47 363.18 263.86 370.85 263.87 370.85 264.43 363.73 264.42 363.56 270.93 370.68 271.24 370.65 271.81" style="fill:#fff"/><path d="M370.42,279.18l-7.65-.67.05-.56,7.08.62.26-3.39c0-.36.06-.73.08-1.09.06-.75.13-1.53.14-2.3l-7.12-.32,0-.56,7.66.34v.27c0,.88-.08,1.76-.14,2.62l-.09,1.08Z" style="fill:#fff"/><path d="M369.32,286.47l-7.61-1,0-.28c.08-.6.16-1.21.23-1.81.23-1.69.45-3.45.55-5.19v-.29l7.66.67-.05.56-7.08-.61c-.1,1.66-.32,3.32-.53,4.94-.06.5-.13,1-.19,1.52l7.05.92Z" style="fill:#fff"/><polygon points="368.47 293.8 360.91 292.48 361.01 291.92 368.02 293.15 368.61 289.79 369.04 286.43 361.99 285.5 362.06 284.95 369.67 285.94 369.17 289.88 368.47 293.8" style="fill:#fff"/><path d="M366.76,301l-7.5-1.65.07-.28c.44-1.74.76-3.54,1.07-5.29.09-.54.19-1.08.28-1.61l.05-.28,7.57,1.33-.1.55-7-1.23-.24,1.34c-.29,1.66-.59,3.37-1,5l6.94,1.52Z" style="fill:#fff"/><path d="M365.29,308.21l-7.41-2,.14-.54,6.89,1.83c.29-1,.52-2,.75-3l.83-3.59-6.95-1.53.12-.55,7.5,1.65-1,4.14c-.25,1.1-.51,2.23-.84,3.33Z" style="fill:#fff"/><path d="M363,315.21l-7.32-2.29.08-.27c.43-1.43.84-2.89,1.24-4.3.23-.83.47-1.65.7-2.48l.08-.26,7.41,2-.14.54-6.88-1.83-.63,2.21c-.37,1.33-.76,2.7-1.16,4l6.79,2.13Z" style="fill:#fff"/><polygon points="360.88 322.29 353.65 319.67 353.85 319.14 360.53 321.56 362.71 315.12 355.93 312.99 356.1 312.46 363.43 314.75 360.88 322.29" style="fill:#fff"/><polygon points="357.71 329.58 350.63 326.63 353.42 319.56 360.62 322.19 360.43 322.72 353.74 320.28 351.35 326.33 357.93 329.06 357.71 329.58" style="fill:#fff"/><polygon points="354.97 336.43 348.01 333.18 348.25 332.67 354.69 335.68 357.23 330.06 357.46 329.47 350.88 326.74 351.1 326.21 358.19 329.16 357.74 330.28 354.97 336.43" style="fill:#fff"/><polygon points="351.42 342.9 344.62 339.35 347.16 334.39 347.99 332.54 354.95 335.79 354.71 336.3 348.27 333.29 347.66 334.63 345.38 339.11 351.68 342.4 351.42 342.9" style="fill:#fff"/><polygon points="348.1 349.49 341.45 345.65 341.74 345.16 347.89 348.72 350.05 344.97 351.18 342.77 344.87 339.47 345.13 338.97 351.93 342.53 350.54 345.24 348.1 349.49" style="fill:#fff"/><polygon points="344.02 355.63 337.55 351.51 339.61 348.3 341.5 345.01 348.14 348.85 347.86 349.34 341.71 345.78 340.09 348.59 338.33 351.33 344.33 355.16 344.02 355.63" style="fill:#fff"/><path d="M340.15,361.92l-6.29-4.41.33-.46,5.82,4.08.91-1.27c.3-.41.68-.95,1-1.51l1.84-2.87-6-3.83.3-.47,6.48,4.13-2.15,3.34c-.35.57-.74,1.12-1,1.54Z" style="fill:#fff"/><path d="M335.57,367.69l-6.1-4.67,1.27-1.61.65-.91c.12-.18.25-.35.37-.52l2.2-3.1,6.29,4.4-.32.47-5.83-4.09-1.88,2.65-.37.51c-.22.31-.44.63-.67.93l-.91,1.17,5.64,4.32Z" style="fill:#fff"/><path d="M331.17,373.62l-5.88-4.93.36-.43,5.46,4.57c.54-.61,1-1.26,1.54-1.89l.59-.75,2.1-2.68-5.64-4.32.34-.45,6.1,4.67-2.46,3.13-.59.75c-.55.71-1.13,1.44-1.74,2.12Z" style="fill:#fff"/><polygon points="325.72 379.4 320.06 374.2 320.87 373.36 325.08 368.49 330.95 373.44 330.59 373.87 325.15 369.28 321.29 373.74 320.87 374.18 326.1 378.99 325.72 379.4" style="fill:#fff"/><polygon points="320.82 384.93 315.39 379.49 315.79 379.09 320.81 384.12 325.51 379.2 320.28 374.39 320.66 373.98 326.31 379.18 320.82 384.93" style="fill:#fff"/><polygon points="315.28 389.79 310.1 384.14 315.61 378.88 321.03 384.31 320.63 384.71 315.6 379.67 310.89 384.16 315.7 389.41 315.28 389.79" style="fill:#fff"/><path d="M309.91,394.85,305,389l.43-.36,4.57,5.44,1.72-1.49c1.13-1,2.29-2,3.4-3l-4.8-5.24.42-.39,5.18,5.67-.21.19c-1.18,1.08-2.42,2.15-3.62,3.18-.65.55-1.29,1.11-1.93,1.67Z" style="fill:#fff"/><path d="M304,399.23l-4.68-6.09,4.39-3.44c.29-.23.57-.47.85-.72l.48-.41.22-.19,4.94,5.88-.44.36-4.57-5.44-.26.22c-.28.26-.57.51-.88.75l-3.94,3.09,4.34,5.64Z" style="fill:#fff"/><path d="M298.19,403.81l-4.42-6.28.46-.33,4.09,5.82,1.46-1c1.34-.95,2.73-1.93,4-3l-4.34-5.65.45-.34,4.67,6.08-.21.17c-1.38,1.13-2.85,2.17-4.28,3.18l-1.68,1.19Z" style="fill:#fff"/><path d="M291.9,407.67l-4.13-6.47,3.2-2.05c.63-.41,1.25-.86,1.86-1.29l1-.73.23-.16,4.42,6.28-.46.32L294,397.75l-.79.56c-.61.44-1.24.89-1.88,1.31l-2.74,1.75,3.84,6Z" style="fill:#fff"/><path d="M108.7,407.9l-3.34-2.14c-.67-.44-1.34-.91-2-1.37l-1-.75-.23-.16,4.41-6.29.47.33-4.1,5.82.83.59c.64.46,1.29.93,2,1.36l2.86,1.84,3.84-6,.47.31Z" style="fill:#fff"/><path d="M102.73,403.58l-.46-.33,4.09-5.82-1.41-1c-1.28-.9-2.6-1.82-3.84-2.83l-4.33,5.63-.45-.34,4.69-6.09.23.18c1.29,1.06,2.68,2,4,3l1.65,1.18.23.16Z" style="fill:#fff"/><path d="M96.61,399.45,92,395.86c-.32-.25-.62-.51-.92-.78l-.49-.42-.22-.18,4.94-5.88.43.36-4.58,5.45.29.25q.44.39.9.75l4.12,3.25,4.34-5.64.45.35Z" style="fill:#fff"/><path d="M91,394.63l-.43-.36,4.58-5.45-1.71-1.49c-1.06-.9-2.14-1.84-3.19-2.79l-4.81,5.25-.41-.38,5.18-5.66.21.19c1.11,1,2.27,2,3.38,3,.65.55,1.29,1.11,1.93,1.67l.21.18Z" style="fill:#fff"/><polygon points="85.28 390 79.53 384.52 84.96 379.08 85.36 379.48 80.33 384.51 85.26 389.2 90.06 383.96 90.47 384.34 85.28 390" style="fill:#fff"/><polygon points="80.14 384.72 79.74 384.32 84.77 379.28 80.28 374.58 75.04 379.4 74.66 378.98 80.31 373.79 85.56 379.29 80.14 384.72" style="fill:#fff"/><polygon points="74.84 379.59 74.01 378.72 69.59 373.62 75.46 368.67 75.83 369.1 70.39 373.68 74.43 378.34 74.86 378.8 80.11 373.98 80.49 374.4 74.84 379.59" style="fill:#fff"/><path d="M69.8,373.44l-.36-.43,5.45-4.56c-.52-.59-1-1.21-1.47-1.81l-.57-.73-2-2.55-5.65,4.33-.34-.45,6.09-4.67,2.35,3,.57.74c.53.66,1.06,1.35,1.64,2l.2.22Z" style="fill:#fff"/><path d="M65,367.86l-1.31-1.67c-.24-.32-.47-.65-.7-1l-.38-.54-2.3-3.23L66.57,357l.32.46-5.83,4.08,2,2.78.38.53q.33.48.69,1l1,1.22,5.65-4.33.34.45Z" style="fill:#fff"/><path d="M60.84,361.76l-.32-.47,5.82-4.08-.86-1.2c-.28-.4-.66-.92-1-1.48l-1.75-2.73-6,3.83-.3-.48L62.9,351l2.06,3.2c.33.55.7,1.06,1,1.45l1.19,1.67Z" style="fill:#fff"/><polygon points="56.5 355.79 54.36 352.44 52.37 348.99 59.02 345.15 59.3 345.64 53.14 349.2 54.84 352.15 56.67 355.01 62.67 351.18 62.97 351.66 56.5 355.79" style="fill:#fff"/><polygon points="52.9 349.35 52.62 348.86 58.78 345.3 56.72 341.72 55.64 339.61 49.33 342.9 49.07 342.4 55.88 338.84 57.22 341.45 59.55 345.51 52.9 349.35" style="fill:#fff"/><polygon points="49.09 343.03 46.44 337.85 45.56 335.91 52.51 332.66 52.74 333.17 46.3 336.18 46.94 337.61 49.33 342.27 55.63 338.98 55.89 339.48 49.09 343.03" style="fill:#fff"/><polygon points="46.05 336.31 45.81 335.8 52.26 332.78 49.83 327.41 49.61 326.85 43.05 329.58 42.83 329.06 49.92 326.11 50.35 327.19 53 333.06 46.05 336.31" style="fill:#fff"/><polygon points="42.78 329.69 39.87 322.29 47.09 319.65 47.28 320.18 40.6 322.62 43.1 328.95 49.66 326.22 49.88 326.74 42.78 329.69" style="fill:#fff"/><polygon points="40.15 322.19 39.96 321.66 46.65 319.24 44.57 313.08 37.77 315.21 37.61 314.67 44.93 312.37 47.37 319.58 40.15 322.19" style="fill:#fff"/><path d="M37.51,315.3l-.09-.28c-.46-1.55-.91-3.13-1.34-4.66l-.69-2.43-.08-.28,7.42-2,.15.54L36,308.05c.2.72.41,1.44.61,2.16.41,1.44.82,2.92,1.26,4.38l6.79-2.13.16.54Z" style="fill:#fff"/><path d="M35.73,308.14l-.14-.55,6.87-1.83c-.28-.95-.51-1.93-.72-2.87l-.8-3.45L34,301l-.12-.55,7.5-1.65.92,4c.23,1,.47,2.1.79,3.12l.08.28Z" style="fill:#fff"/><path d="M33.73,301l-.07-.26c-.47-1.86-.81-3.78-1.13-5.63-.1-.54-.2-1.08-.29-1.63l-.06-.28,7.57-1.32.1.55-7,1.23.24,1.35c.31,1.76.63,3.57,1.06,5.33l7-1.54.12.55Z" style="fill:#fff"/><polygon points="32.56 293.75 32.47 293.2 39.47 291.97 38.9 288.78 38.49 285.54 31.44 286.46 31.36 285.91 38.98 284.91 39.46 288.69 40.13 292.43 32.56 293.75" style="fill:#fff"/><path d="M31.16,286.51l0-.28c-.07-.62-.15-1.23-.23-1.84-.23-1.8-.48-3.66-.58-5.51v-.27l7.64-.67.05.56-7.1.62c.11,1.74.34,3.5.56,5.2.07.52.13,1,.2,1.56L38.7,285l.07.56Z" style="fill:#fff"/><path d="M30.62,279.16l-.05-.57,7.09-.61-.25-3.25c0-.35,0-.69-.07-1-.06-.72-.12-1.46-.14-2.2l-7.09.31,0-.56,7.68-.34v.29c0,.82.07,1.65.14,2.45,0,.35.05.7.08,1.05l.29,3.8Z" style="fill:#fff"/><polygon points="29.82 271.82 29.62 263.87 37.3 263.86 37.3 264.42 30.2 264.43 30.37 271.23 37.47 270.92 37.49 271.48 29.82 271.82" style="fill:#fff"/><polygon points="37.58 263.88 29.91 263.87 29.91 263.31 37.03 263.32 37.19 256.81 30.08 256.5 30.11 255.94 37.77 256.28 37.58 263.88" style="fill:#fff"/><path d="M37.47,256.83l-7.66-.33v-.28c0-.87.08-1.76.14-2.62,0-.36.06-.71.08-1.07l.31-4,7.65.67-.05.56-7.09-.62-.25,3.4c0,.36-.06.72-.08,1.08-.07.76-.13,1.54-.14,2.31l7.11.31Z" style="fill:#fff"/><path d="M38.23,249.83l-7.66-.67.05-.56,7.08.62c.1-1.66.32-3.33.53-4.94.06-.51.13-1,.19-1.53l-7.06-.92.08-.56,7.61,1,0,.28c-.07.6-.15,1.2-.22,1.8-.23,1.7-.45,3.45-.55,5.19Z" style="fill:#fff"/><polygon points="38.7 242.8 31.09 241.8 31.59 237.86 32.29 233.94 39.85 235.27 39.75 235.82 32.74 234.59 32.15 237.95 31.72 241.31 38.77 242.24 38.7 242.8" style="fill:#fff"/><path d="M40,235.88l-7.56-1.32.1-.56,7,1.23.24-1.33c.29-1.67.59-3.38,1-5.05l-6.94-1.53.12-.55,7.51,1.65-.07.28c-.44,1.75-.76,3.55-1.07,5.29-.09.54-.19,1.08-.29,1.62Z" style="fill:#fff"/><path d="M41.1,228.92l-7.51-1.66,1-4.14c.25-1.1.51-2.23.84-3.32l.08-.26,7.41,2-.14.55-6.89-1.84c-.29,1-.52,2-.75,3l-.83,3.6,6.95,1.53Z" style="fill:#fff"/><path d="M43,222.14l-7.41-2,.14-.54,6.88,1.83.63-2.21c.37-1.33.76-2.69,1.16-4l-6.79-2.13.17-.54,7.32,2.3-.08.26c-.43,1.43-.84,2.89-1.24,4.3-.23.83-.47,1.66-.7,2.48Z" style="fill:#fff"/><polygon points="44.66 215.29 37.33 212.99 39.88 205.46 47.11 208.07 46.91 208.6 40.23 206.18 38.05 212.62 44.83 214.75 44.66 215.29" style="fill:#fff"/><polygon points="47.34 208.19 40.14 205.55 40.33 205.02 47.02 207.47 49.41 201.42 42.83 198.68 43.05 198.16 50.13 201.11 47.34 208.19" style="fill:#fff"/><polygon points="49.66 201.53 42.58 198.58 43.02 197.47 45.79 191.31 52.75 194.57 52.51 195.08 46.07 192.06 43.53 197.69 43.3 198.27 49.88 201.01 49.66 201.53" style="fill:#fff"/><polygon points="52.77 195.21 45.81 191.95 46.05 191.44 52.49 194.46 53.09 193.11 55.38 188.63 49.08 185.34 49.34 184.84 56.14 188.39 53.6 193.35 52.77 195.21" style="fill:#fff"/><polygon points="55.63 188.77 48.83 185.22 50.22 182.51 52.66 178.25 59.3 182.1 59.02 182.59 52.87 179.02 50.71 182.78 49.58 184.98 55.89 188.27 55.63 188.77" style="fill:#fff"/><polygon points="59.26 182.74 52.61 178.89 52.9 178.4 59.05 181.97 60.67 179.15 62.43 176.41 56.43 172.58 56.74 172.11 63.21 176.24 61.15 179.44 59.26 182.74" style="fill:#fff"/><path d="M62.67,176.57l-6.48-4.13,2.15-3.35c.35-.57.74-1.12,1-1.53l1.23-1.73,6.29,4.4-.33.46-5.83-4.08-.9,1.27c-.3.41-.68,1-1,1.51L57,172.27l6,3.82Z" style="fill:#fff"/><path d="M66.8,170.86l-6.29-4.4.32-.46,5.83,4.08,1.88-2.65.37-.51.67-.93.91-1.16-5.64-4.33.34-.45,6.1,4.68L70,166.34c-.22.29-.44.6-.65.91l-.37.51Z" style="fill:#fff"/><path d="M70.72,165l-6.1-4.67,2.46-3.12.59-.75c.55-.71,1.12-1.45,1.74-2.13l.18-.2,5.88,4.92-.36.43-5.46-4.57c-.54.61-1.05,1.26-1.54,1.89l-.59.76-2.1,2.67,5.64,4.33Z" style="fill:#fff"/><polygon points="75.67 159.25 69.81 154.31 70.17 153.88 75.61 158.47 79.47 154.01 79.89 153.57 74.66 148.76 75.04 148.34 80.7 153.54 79.89 154.39 75.67 159.25" style="fill:#fff"/><polygon points="80.1 153.77 74.44 148.57 79.94 142.82 85.37 148.26 84.97 148.66 79.95 143.63 75.25 148.54 80.48 153.35 80.1 153.77" style="fill:#fff"/><polygon points="85.15 148.86 79.73 143.43 80.13 143.03 85.16 148.07 89.87 143.58 85.06 138.33 85.48 137.95 90.66 143.61 85.15 148.86" style="fill:#fff"/><path d="M90.05,143.79l-5.18-5.66.21-.19c1.18-1.09,2.42-2.15,3.61-3.18l1.94-1.68.22-.19,4.94,5.88-.43.37-4.57-5.45-1.73,1.5c-1.12,1-2.28,2-3.4,3l4.81,5.25Z" style="fill:#fff"/><path d="M95.53,139.36l-4.94-5.88.43-.36,4.58,5.44.25-.22c.29-.25.58-.51.89-.74l3.94-3.1-4.34-5.64.45-.34,4.67,6.08L97.08,138c-.29.23-.57.48-.85.72l-.48.42Z" style="fill:#fff"/><path d="M100.84,134.73l-4.67-6.08.21-.18c1.38-1.13,2.86-2.17,4.28-3.18l1.68-1.19.23-.17,4.42,6.29-.47.32-4.08-5.82-1.45,1c-1.35,1-2.74,1.93-4,3l4.34,5.64Z" style="fill:#fff"/><path d="M106.68,130.78l-4.42-6.28.46-.33,4.09,5.82c.27-.18.53-.37.79-.56.61-.44,1.24-.89,1.88-1.3l2.74-1.76-3.84-6,.47-.3,4.14,6.46-3.2,2.06c-.63.41-1.25.85-1.86,1.29l-1,.73Z" style="fill:#fff"/><path d="M112.36,126.61l-4.14-6.46,3.35-2.14c.68-.42,1.38-.82,2.07-1.22l1.12-.64L115,116l3.85,6.64-.48.29-3.58-6.15-.88.5c-.69.4-1.38.79-2.06,1.2L109,120.32l3.84,6Z" style="fill:#fff"/><path d="M119,122.9l-3.83-6.65.49-.28,3.55,6.16,2.81-1.62c.67-.38,1.36-.73,2-1.06l.86-.44-3.28-6.32.5-.26,3.54,6.82-.25.13-1.12.57c-.66.33-1.34.68-2,1Z" style="fill:#fff"/><path d="M125,119.26l-3.55-6.81,3.54-1.81.58-.3c.36-.19.71-.37,1.08-.54l1.93-.87,3.25,7-.51.23-3-6.45-1.43.65c-.36.16-.71.34-1.05.52l-.59.3-3,1.55,3.28,6.31Z" style="fill:#fff"/><path d="M131.44,116.38l-3.24-6.95.51-.24,3,6.45,3.69-1.67c.73-.34,1.48-.68,2.25-1l-2.72-6.57.52-.21,2.94,7.1-.27.1c-.84.31-1.68.69-2.48,1.06Z" style="fill:#fff"/><path d="M137.77,113.27l-2.94-7.1.26-.11,2.33-.91c1.51-.6,3-1.2,4.55-1.78l.26-.1,2.63,7.22-.53.19L141.9,104l-4.27,1.67-2.06.81,2.72,6.57Z" style="fill:#fff"/><polygon points="144.41 110.94 141.79 103.74 142.32 103.54 144.75 110.23 150.91 108.15 148.77 101.36 149.31 101.19 151.62 108.51 144.41 110.94" style="fill:#fff"/><path d="M151,108.42l-2.31-7.33L149,101c1.54-.48,3.11-.92,4.63-1.35L156,99l.28-.08,2,7.42-.54.15-1.84-6.87-2.2.62c-1.43.4-2.9.82-4.34,1.26l2.14,6.79Z" style="fill:#fff"/><polygon points="157.83 106.72 155.84 99.31 156.38 99.16 158.22 106.03 159.65 105.63 164.54 104.5 163 97.55 163.55 97.43 165.22 104.92 159.79 106.17 157.83 106.72" style="fill:#fff"/><polygon points="164.6 104.77 162.94 97.28 165.9 96.59 170.73 95.73 172.07 103.29 171.52 103.39 170.28 96.38 166.02 97.15 163.61 97.7 165.15 104.65 164.6 104.77" style="fill:#fff"/><path d="M172.09,103.57,170.78,96l.56-.09,1.21,7,1-.18c.75-.13,1.49-.27,2.23-.38L179,102l-.91-7.06.56-.07,1,7.62-3.78.47c-.73.12-1.47.25-2.2.39l-1.26.22Z" style="fill:#fff"/><polygon points="179.01 102.23 178.03 94.61 182.88 94 185.93 93.76 186.59 101.41 186.03 101.46 185.42 94.37 182.94 94.56 178.66 95.1 179.57 102.16 179.01 102.23" style="fill:#fff"/><path d="M186,101.74l-.66-7.65.56,0,.61,7.09,3.66-.28c.93-.07,1.88-.14,2.83-.16l-.3-7.1.56,0,.33,7.68h-.29c-1,0-2.07.09-3.08.16Z" style="fill:#fff"/><polygon points="193.05 100.98 192.72 93.3 200.67 93.1 200.67 100.79 200.1 100.79 200.1 93.68 193.31 93.85 193.61 100.96 193.05 100.98" style="fill:#fff"/><polygon points="207.7 101.26 200.09 101.06 200.09 93.39 200.66 93.39 200.66 100.51 207.16 100.68 207.46 93.57 208.03 93.59 207.7 101.26" style="fill:#fff"/><path d="M214.75,101.46l-.57,0,.61-7.08L211,94c-1-.07-2-.15-3-.17l-.3,7.12-.57,0,.33-7.66h.27c1.1,0,2.2.09,3.27.17l4.39.34Z" style="fill:#fff"/><polygon points="221.71 102.51 217.06 101.92 214.15 101.69 214.8 94.04 215.36 94.09 214.76 101.17 217.11 101.36 221.22 101.88 222.13 94.82 222.69 94.89 221.71 102.51" style="fill:#fff"/><path d="M228.71,103.29l-.55-.09,1.21-7-1-.18c-.78-.14-1.57-.29-2.36-.41l-3.37-.43-.91,7.06-.56-.07,1-7.62,3.94.5,2.38.41,1.27.23.28,0Z" style="fill:#fff"/><polygon points="236.1 105.05 233.24 104.39 228.64 103.57 229.98 96.01 230.53 96.1 229.29 103.11 233.36 103.84 235.67 104.37 237.21 97.43 237.76 97.55 236.1 105.05" style="fill:#fff"/><polygon points="243 106.45 242.46 106.3 244.3 99.43 242.8 99.01 237.69 97.83 236.15 104.77 235.6 104.65 237.27 97.15 242.94 98.46 244.99 99.04 243 106.45" style="fill:#fff"/><path d="M249.68,108.68l-.27-.08c-1.43-.45-2.9-.86-4.32-1.26l-2.45-.7-.26-.07,2-7.41.55.14-1.85,6.88,2.18.62c1.34.37,2.72.76,4.07,1.18l2.14-6.79.54.17Z" style="fill:#fff"/><polygon points="256.44 110.69 255.91 110.49 258.34 103.81 251.9 101.63 249.76 108.41 249.22 108.24 251.53 100.92 259.07 103.47 256.44 110.69" style="fill:#fff"/><path d="M262.89,113.52l-.26-.1-2.42-1c-1.38-.55-2.76-1.09-4.15-1.62l-.26-.1,2.63-7.21.53.19-2.44,6.69,3.89,1.52,2.17.86,2.72-6.58.52.21Z" style="fill:#fff"/><path d="M269.43,116.13l-.51-.24,3-6.44-3.86-1.75c-.77-.35-1.56-.71-2.36-1L263,113.27l-.52-.22L265.4,106l.25.09c.91.34,1.79.74,2.65,1.13l4.38,2Z" style="fill:#fff"/><path d="M275.61,119.51l-3.39-1.74-.55-.29c-.34-.17-.67-.34-1-.49l-1.87-.85,3.25-7,.51.24-3,6.45,1.35.6c.35.16.69.34,1,.52l.55.28,2.89,1.48,3.28-6.31.5.26Z" style="fill:#fff"/><path d="M281.92,122.66l-.49-.28,3.55-6.17-3-1.69c-.69-.4-1.41-.76-2.11-1.11l-.9-.47-3.28,6.32-.5-.26,3.54-6.82.25.14,1.15.58c.7.36,1.43.73,2.13,1.13l3.44,2Z" style="fill:#fff"/><path d="M288.25,126.85,285,124.79c-.64-.38-1.29-.76-2-1.13L282,123l-.25-.14,3.86-6.64.49.28-3.58,6.15.85.49c.66.38,1.32.75,2,1.15l2.73,1.75,3.84-6,.47.3Z" style="fill:#fff"/><path d="M294.25,130.55l-.47-.33,4.09-5.82-.83-.59c-.63-.45-1.28-.92-2-1.35l-2.86-1.84-3.84,6-.47-.3,4.14-6.47L295.4,122c.67.44,1.33.92,2,1.37.35.26.7.51,1.06.75l.23.17Z" style="fill:#fff"/><path d="M299.74,135l-.23-.19c-1.29-1.06-2.68-2-4-3l-1.65-1.17-.23-.16,4.42-6.28.46.32-4.1,5.82,1.42,1c1.28.9,2.59,1.83,3.84,2.83l4.33-5.63.44.34Z" style="fill:#fff"/><path d="M305.41,139.14l-.43-.36,4.57-5.45-.28-.25c-.29-.25-.59-.51-.9-.75l-4.12-3.25-4.34,5.64-.45-.34,4.69-6.09,4.57,3.59c.32.25.62.52.92.78l.49.43.22.18Z" style="fill:#fff"/><path d="M310.52,144l-.21-.19c-1.11-1-2.27-2-3.38-3L305,139.17l-.21-.18,4.93-5.88.44.36-4.58,5.45,1.71,1.49c1,.91,2.14,1.84,3.19,2.79l4.81-5.25.41.39Z" style="fill:#fff"/><polygon points="315.8 148.66 315.4 148.26 320.42 143.24 315.5 138.54 310.7 143.78 310.29 143.4 315.48 137.74 321.23 143.22 315.8 148.66" style="fill:#fff"/><polygon points="320.45 153.95 315.2 148.45 320.62 143.02 321.02 143.42 315.99 148.46 320.48 153.16 325.72 148.35 326.1 148.76 320.45 153.95" style="fill:#fff"/><polygon points="325.3 159.07 324.94 158.64 330.37 154.06 326.33 149.4 325.89 148.94 320.65 153.76 320.27 153.35 325.92 148.16 326.75 149.02 331.17 154.13 325.3 159.07" style="fill:#fff"/><path d="M329.82,165.17l-2.35-3-.58-.73c-.52-.67-1.06-1.36-1.63-2l-.2-.22,5.9-4.94.36.43-5.45,4.57c.52.58,1,1.2,1.47,1.8l.57.73,2,2.56,5.65-4.33.34.44Z" style="fill:#fff"/><path d="M334.19,170.7l-.32-.46,5.83-4.08-2-2.77-.37-.53c-.23-.32-.46-.65-.7-1l-1-1.23L330,165l-.34-.45,6.09-4.67,1.31,1.67.71,1,.37.52,2.3,3.24Z" style="fill:#fff"/><path d="M337.86,176.72l-2.06-3.21c-.33-.55-.7-1.06-1-1.45l-1.19-1.67,6.29-4.4.32.46-5.82,4.08.86,1.2c.28.4.65.92,1,1.48l1.75,2.73,6-3.83.3.48Z" style="fill:#fff"/><polygon points="341.74 182.59 341.46 182.11 347.62 178.54 345.92 175.59 344.09 172.74 338.09 176.56 337.79 176.09 344.26 171.96 346.4 175.3 348.39 178.75 341.74 182.59" style="fill:#fff"/><polygon points="344.88 188.9 343.54 186.29 341.21 182.24 347.86 178.39 348.14 178.88 341.98 182.44 344.04 186.02 345.12 188.14 351.43 184.85 351.69 185.35 344.88 188.9" style="fill:#fff"/><polygon points="348.25 195.09 348.01 194.58 354.46 191.56 353.81 190.13 351.43 185.47 345.13 188.76 344.87 188.26 351.67 184.71 354.32 189.89 355.2 191.84 348.25 195.09" style="fill:#fff"/><polygon points="350.84 201.64 350.41 200.55 347.76 194.68 354.71 191.43 354.95 191.94 348.5 194.96 350.93 200.33 351.15 200.9 357.71 198.17 357.93 198.69 350.84 201.64" style="fill:#fff"/><polygon points="353.67 208.09 353.48 207.56 360.15 205.12 357.66 198.79 351.1 201.52 350.88 201 357.98 198.05 360.89 205.45 353.67 208.09" style="fill:#fff"/><polygon points="355.83 215.37 353.39 208.16 360.61 205.55 360.8 206.08 354.11 208.51 356.19 214.67 362.98 212.54 363.15 213.07 355.83 215.37" style="fill:#fff"/><path d="M358,222.07l-.15-.55,6.87-1.83c-.21-.72-.41-1.44-.61-2.16-.41-1.44-.83-2.92-1.26-4.38l-6.79,2.13-.17-.54,7.33-2.29.09.27c.46,1.55.91,3.13,1.34,4.66l.69,2.43.08.28Z" style="fill:#fff"/><path d="M359.39,229l-.92-4c-.23-1-.48-2.09-.79-3.11l-.08-.28,7.42-2,.15.54L358.3,222c.28,1,.5,1.93.72,2.87l.8,3.46,6.95-1.53.12.55Z" style="fill:#fff"/><path d="M361,235.83l-.1-.55,7-1.23-.24-1.36c-.31-1.75-.63-3.56-1.06-5.31l-7,1.53-.12-.55,7.49-1.65.07.26c.47,1.86.81,3.78,1.13,5.63.1.54.19,1.09.29,1.63l.06.28Z" style="fill:#fff"/><polygon points="361.78 242.83 361.3 239.05 360.63 235.32 368.2 233.99 368.29 234.55 361.29 235.77 361.86 238.97 362.27 242.2 369.32 241.28 369.39 241.84 361.78 242.83" style="fill:#fff"/><path d="M362.82,249.8l-.05-.56,7.1-.62c-.11-1.74-.34-3.5-.56-5.2-.07-.52-.13-1-.2-1.55l-7.05.92-.07-.56,7.61-1,0,.28c.07.61.15,1.22.23,1.82.23,1.81.48,3.67.58,5.53v.27Z" style="fill:#fff"/><path d="M363,256.85v-.3c0-.81-.07-1.65-.14-2.45,0-.35-.05-.7-.08-1l-.29-3.79,7.65-.67.05.56-7.09.62.24,3.24c0,.35.06.7.08,1,.06.72.12,1.47.14,2.21l7.09-.32,0,.57Z" style="fill:#fff"/><polygon points="363.46 263.88 363.45 263.32 370.56 263.31 370.39 256.51 363.29 256.83 363.26 256.26 370.94 255.93 371.14 263.87 363.46 263.88" style="fill:#fff"/><path d="M200.38,446.87a183,183,0,1,1,129.4-53.6A181.83,181.83,0,0,1,200.38,446.87Zm0-364.87C100.1,82,18.51,163.59,18.51,263.87S100.1,445.74,200.38,445.74s181.87-81.59,181.87-181.87S300.66,82,200.38,82Z" style="fill:#fab317"/><path d="M200.38,452.56A188.7,188.7,0,1,1,333.8,397.29,187.45,187.45,0,0,1,200.38,452.56Zm0-376.81c-103.73,0-188.13,84.39-188.13,188.12S96.65,452,200.38,452,388.5,367.6,388.5,263.87,304.11,75.75,200.38,75.75Z" style="fill:#fff"/></g><path d="M238.76,202.82a19.45,19.45,0,0,0-30.91,15.69,19.55,19.55,0,0,0,.74,5.33Z" style="fill:#fff"/><path d="M164.92,202.82a19.45,19.45,0,0,1,30.91,15.69,19.55,19.55,0,0,1-.74,5.33Z" style="fill:#fff"/><path d="M251.55,186v88.82a5.65,5.65,0,0,1-5.63,5.63H157.26a5.65,5.65,0,0,1-5.63-5.63V186" style="fill:#191919"/><path d="M245.92,280.7H157.26a5.92,5.92,0,0,1-5.92-5.91V186h.57v88.82a5.36,5.36,0,0,0,5.35,5.35h88.66a5.36,5.36,0,0,0,5.35-5.35V186h.56v88.82A5.92,5.92,0,0,1,245.92,280.7Z" style="fill:#fff"/><path d="M199.3,214.48h-.56a22.36,22.36,0,0,0-21.28-22.17l-.26,0H152.12v-.57h25.64v0a22.92,22.92,0,0,1,21.54,22.72Z" style="fill:#fff"/><path d="M205,214.43h-.57a22.65,22.65,0,0,1,21.38-22.7h0l.29,0H251.4v.56H226.24l-.18,0A22.08,22.08,0,0,0,205,214.43Z" style="fill:#fff"/><path d="M251.84,186.82H151.34v-7h100.5Zm-99.93-.56h99.37v-5.89H151.91Z" style="fill:#fff"/><polygon points="177.97 240.96 151.35 240.96 151.35 195.7 177.97 195.7 177.97 196.26 151.91 196.26 151.91 240.4 177.97 240.4 177.97 240.96" style="fill:#fff"/><path d="M177,241a22.63,22.63,0,1,1,22.66-22.63A22.67,22.67,0,0,1,177,241Zm0-44.7a22.07,22.07,0,1,0,22.09,22.07A22.1,22.1,0,0,0,177,196.26Z" style="fill:#fff"/><path d="M176.48,238a19.65,19.65,0,1,1,19.68-19.65A19.68,19.68,0,0,1,176.48,238Zm0-38.74a19.09,19.09,0,1,0,19.11,19.09A19.12,19.12,0,0,0,176.48,199.24Z" style="fill:#fff"/><polygon points="251.84 240.96 225.71 240.96 225.71 240.4 251.28 240.4 251.28 196.26 225.71 196.26 225.71 195.7 251.84 195.7 251.84 240.96" style="fill:#fff"/><path d="M226.7,241a22.63,22.63,0,1,1,22.66-22.63A22.67,22.67,0,0,1,226.7,241Zm0-44.7a22.07,22.07,0,1,0,22.09,22.07A22.1,22.1,0,0,0,226.7,196.26Z" style="fill:#fff"/><path d="M227.2,238a19.65,19.65,0,1,1,19.67-19.65A19.69,19.69,0,0,1,227.2,238Zm0-38.74a19.09,19.09,0,1,0,19.11,19.09A19.12,19.12,0,0,0,227.2,199.24Z" style="fill:#fff"/><path d="M177.58,214.92a3.41,3.41,0,1,1-3.42,3.41,3.41,3.41,0,0,1,3.42-3.41m0-.56a4,4,0,1,0,4,4,4,4,0,0,0-4-4Z" style="fill:#fff"/><path d="M226.3,214.92a3.41,3.41,0,1,1-3.41,3.41,3.42,3.42,0,0,1,3.41-3.41m0-.56a4,4,0,1,0,4,4,4,4,0,0,0-4-4Z" style="fill:#fff"/><path d="M196.16,218.33h-.57a19.11,19.11,0,0,0-38.22,0h-.56a19.68,19.68,0,0,1,39.35,0Z" style="fill:#fff"/><path d="M246.89,218.28h-.57a19.11,19.11,0,0,0-38.21,0h-.57a19.68,19.68,0,0,1,39.35,0Z" style="fill:#fff"/><path d="M195.25,224.29l-30.82-21.46.32-.23a19.72,19.72,0,0,1,30.61,21.31Zm-29.84-21.47,29.51,20.56a19.41,19.41,0,0,0,.62-4.87,19.16,19.16,0,0,0-30.13-15.69Z" style="fill:#fff"/><path d="M208.43,224.29l-.11-.38a19.73,19.73,0,0,1,30.61-21.31l.32.23Zm18.86-24.92a19.18,19.18,0,0,0-19.16,19.14,19,19,0,0,0,.63,4.87l29.51-20.56A19,19,0,0,0,227.29,199.37Z" style="fill:#fff"/><path d="M158.58,186.8h-7.25v-7h7.25Zm-6.68-.56H158v-5.85H151.9Z" style="fill:#fff"/><path d="M171.9,186.8h-7.25v-7h7.25Zm-6.68-.56h6.12v-5.85h-6.12Z" style="fill:#fff"/><path d="M185.22,186.8H178v-7h7.24Zm-6.68-.56h6.12v-5.85h-6.12Z" style="fill:#fff"/><path d="M198.54,186.8H191.3v-7h7.24Zm-6.68-.56H198v-5.85h-6.12Z" style="fill:#fff"/><path d="M211.86,186.8h-7.24v-7h7.24Zm-6.68-.56h6.12v-5.85h-6.12Z" style="fill:#fff"/><path d="M225.18,186.8h-7.24v-7h7.24Zm-6.68-.56h6.12v-5.85H218.5Z" style="fill:#fff"/><path d="M238.5,186.8h-7.24v-7h7.24Zm-6.68-.56h6.12v-5.85h-6.12Z" style="fill:#fff"/><path d="M251.82,186.8h-7.24v-7h7.24Zm-6.68-.56h6.12v-5.85h-6.12Z" style="fill:#fff"/><polygon points="209.73 247.06 201.55 240.79 193.32 247.06 177.19 247.06 201.59 266.23 225.85 247.06 209.73 247.06" style="fill:#f8b318"/><path d="M201.6,266.59l-25.22-19.82h16.84l8.33-6.34,8.27,6.34h16.84ZM178,247.34l23.59,18.53L225,247.34H209.63l-8.08-6.2-8.14,6.2Z" style="fill:#fff"/><path d="M264.17,226.54a19.61,19.61,0,0,1,2.44.16H290.7c3.33,0,6.05,2.18,6.05,4.84s-2.72,4.83-6.05,4.83H290a4.83,4.83,0,0,1,3.13,4.24c0,2.66-2.72,4.83-6,4.83h-1.32a4.82,4.82,0,0,1,3.13,4.23c0,2.66-2.72,4.84-6.05,4.84H281a19.07,19.07,0,1,1-16.87-28Z" style="fill:#1a1a1a"/><path d="M139.23,225.86a19.61,19.61,0,0,0-2.44.16H112.7c-3.33,0-6,2.18-6,4.84s2.72,4.83,6,4.83h.71a4.82,4.82,0,0,0-3.13,4.23c0,2.66,2.72,4.84,6,4.84h1.31a4.82,4.82,0,0,0-3.13,4.23c0,2.66,2.72,4.84,6,4.84h1.81a19.07,19.07,0,1,0,16.86-28Z" style="fill:#1a1a1a"/><path d="M139.23,264.26a19.33,19.33,0,0,1-17-10.15h-1.64c-3.49,0-6.33-2.29-6.33-5.12a4.84,4.84,0,0,1,2.31-4h-.21c-3.49,0-6.33-2.29-6.33-5.12a4.8,4.8,0,0,1,2.33-3.95c-3.32-.16-6-2.39-6-5.11s2.84-5.12,6.33-5.12h24.09a18.4,18.4,0,0,1,2.44-.16,19.34,19.34,0,1,1,0,38.68Zm0-38.12a18.13,18.13,0,0,0-2.4.16H112.7c-3.18,0-5.76,2-5.76,4.56s2.58,4.55,5.76,4.55h2l-1.21.54a4.53,4.53,0,0,0-3,4c0,2.52,2.59,4.56,5.77,4.56H119l-1.21.54a4.53,4.53,0,0,0-3,4c0,2.51,2.59,4.56,5.77,4.56h2l.08.15a18.79,18.79,0,1,0,16.61-27.56Z" style="fill:#fff"/><path d="M139.35,254.42a9.51,9.51,0,1,1,9.51-9.5A9.52,9.52,0,0,1,139.35,254.42Zm0-18.44a8.94,8.94,0,1,0,9,8.94A9,9,0,0,0,139.35,236Z" style="fill:#fff"/><circle cx="139.35" cy="244.92" r="3.92" style="fill:#f8b318"/><path d="M139.35,249.11a4.2,4.2,0,0,1-3-1.23h0a4.21,4.21,0,0,1,0-5.93,4.2,4.2,0,0,1,7.17,3,4.2,4.2,0,0,1-4.2,4.19Zm-2.57-1.63a3.63,3.63,0,0,0,5.14,0,3.57,3.57,0,0,0,1.07-2.56,3.64,3.64,0,1,0-6.21,2.56Z" style="fill:#fff"/><path d="M264.17,264.94a19.34,19.34,0,1,1,0-38.68,19.07,19.07,0,0,1,2.47.16H290.7c3.49,0,6.33,2.3,6.33,5.12s-2.64,5-5.95,5.11a4.82,4.82,0,0,1,2.32,4c0,2.82-2.83,5.11-6.32,5.11h-.22a4.82,4.82,0,0,1,2.31,3.95c0,2.83-2.84,5.12-6.33,5.12H281.2A19.33,19.33,0,0,1,264.17,264.94Zm0-38.12a18.78,18.78,0,1,0,16.62,27.56l.08-.15h2c3.18,0,5.77-2,5.77-4.56a4.53,4.53,0,0,0-3-4l-1.21-.54h2.65c3.17,0,5.76-2,5.76-4.55a4.55,4.55,0,0,0-3-4l-1.22-.54h2c3.18,0,5.77-2,5.77-4.55S293.88,227,290.7,227H266.61A21.23,21.23,0,0,0,264.17,226.82Z" style="fill:#fff"/><path d="M264.05,255.1a9.5,9.5,0,1,1,9.51-9.5A9.52,9.52,0,0,1,264.05,255.1Zm0-18.44A8.94,8.94,0,1,0,273,245.6,9,9,0,0,0,264.05,236.66Z" style="fill:#fff"/><circle cx="264.05" cy="245.6" r="3.92" style="fill:#f8b318"/><path d="M264.05,249.79a4.2,4.2,0,1,1,3-1.23h0A4.2,4.2,0,0,1,264.05,249.79Zm0-7.82a3.62,3.62,0,0,0-3.63,3.63,3.56,3.56,0,0,0,1.06,2.56,3.63,3.63,0,0,0,5.14,0h0a3.56,3.56,0,0,0,1.06-2.56,3.62,3.62,0,0,0-3.63-3.63Z" style="fill:#fff"/></svg>