<svg id="bbdeb7e3-d286-4bdc-a585-a066b6ecaa34" data-name="Layer 1" xmlns="http://www.w3.org/2000/svg" xmlns:xlink="http://www.w3.org/1999/xlink" viewBox="0 0 400 400"><defs><clipPath id="b14e0a7f-80ed-4fcc-923a-e635cedcf3fa"><rect x="-33.45" y="-33.56" width="454.93" height="293.08" style="fill:none"/></clipPath><clipPath id="ab2ffd76-11f6-4f56-91ce-635efdbe8d12"><path d="M200.55,138.36A121.4,121.4,0,1,0,321.94,259.75,121.39,121.39,0,0,0,200.55,138.36Zm0,227.47A106.08,106.08,0,1,1,306.62,259.75,106.07,106.07,0,0,1,200.55,365.83Z" style="fill:none"/></clipPath><clipPath id="e0f68216-9898-48a6-a3cc-d9b680300b35"><ellipse cx="173.98" cy="216.65" rx="17.53" ry="17.51" style="fill:#1a1a1a"/></clipPath><clipPath id="ac75aa15-8b04-4a8b-9875-13baa71ef07a"><ellipse cx="226.96" cy="216.65" rx="17.53" ry="17.51" style="fill:#1a1a1a"/></clipPath></defs><g style="clip-path:url(#b14e0a7f-80ed-4fcc-923a-e635cedcf3fa)"><circle cx="200.55" cy="259.75" r="191.36" style="fill:#1a1a1a"/><circle cx="200.55" cy="259.75" r="191.36" style="fill:#1a1a1a"/><circle cx="200.55" cy="259.75" r="191.36" style="fill:#1a1a1a"/><circle cx="200.55" cy="259.75" r="191.36" style="fill:#1a1a1a"/><g style="clip-path:url(#ab2ffd76-11f6-4f56-91ce-635efdbe8d12)"><path d="M200.55,385.48a125.64,125.64,0,1,1,88.92-36.8A125,125,0,0,1,200.55,385.48Zm0-250.9A125.18,125.18,0,1,0,325.72,259.75,125.32,125.32,0,0,0,200.55,134.58Z" style="fill:#fff"/><rect x="200.27" y="259.75" width="0.55" height="125.45" style="fill:#fff"/><rect x="210.08" y="258.98" width="0.55" height="125.45" transform="translate(-47.74 36.87) rotate(-9)" style="fill:#fff"/><rect x="219.65" y="256.68" width="0.55" height="125.45" transform="translate(-87.94 83.6) rotate(-18)" style="fill:#fff"/><rect x="228.75" y="252.92" width="0.55" height="125.45" transform="translate(-118.34 138.38) rotate(-27)" style="fill:#fff"/><rect x="237.14" y="247.78" width="0.55" height="125.45" transform="translate(-137.16 198.85) rotate(-36)" style="fill:#fff"/><rect x="244.62" y="241.38" width="0.55" height="125.45" transform="translate(-143.31 262.24) rotate(-45)" style="fill:#fff"/><rect x="251.02" y="233.9" width="0.55" height="125.45" transform="translate(-136.39 325.57) rotate(-54)" style="fill:#fff"/><rect x="256.16" y="225.51" width="0.55" height="125.45" transform="translate(-116.8 385.86) rotate(-63)" style="fill:#fff"/><rect x="259.93" y="216.41" width="0.55" height="125.45" transform="translate(-85.68 440.35) rotate(-72)" style="fill:#fff"/><rect x="262.22" y="206.84" width="0.55" height="125.45" transform="translate(-44.81 486.67) rotate(-81)" style="fill:#fff"/><rect x="200.55" y="259.48" width="125.45" height="0.55" style="fill:#fff"/><rect x="199.78" y="249.67" width="125.45" height="0.55" transform="translate(-35.84 44.1) rotate(-8.99)" style="fill:#fff"/><rect x="197.48" y="240.09" width="125.45" height="0.55" transform="translate(-61.48 92.03) rotate(-17.97)" style="fill:#fff"/><rect x="193.71" y="231" width="125.45" height="0.55" transform="translate(-77.07 141.72) rotate(-27.02)" style="fill:#fff"/><rect x="188.57" y="222.61" width="125.45" height="0.55" transform="translate(-83.03 190.39) rotate(-36.02)" style="fill:#fff"/><rect x="182.18" y="215.12" width="125.45" height="0.55" transform="translate(-80.58 236.26) rotate(-45)" style="fill:#fff"/><rect x="174.69" y="208.73" width="125.45" height="0.55" transform="translate(-71.25 278.13) rotate(-53.98)" style="fill:#fff"/><rect x="166.3" y="203.59" width="125.45" height="0.55" transform="translate(-56.63 315.3) rotate(-62.98)" style="fill:#fff"/><rect x="157.21" y="199.82" width="125.45" height="0.55" transform="translate(-38.27 347.54) rotate(-72.03)" style="fill:#fff"/><rect x="147.64" y="197.53" width="125.45" height="0.55" transform="translate(-17.89 374.66) rotate(-81.01)" style="fill:#fff"/><rect x="200.27" y="134.3" width="0.55" height="125.45" style="fill:#fff"/><rect x="190.46" y="135.08" width="0.55" height="125.45" transform="translate(-28.59 32.27) rotate(-9)" style="fill:#fff"/><rect x="180.89" y="137.37" width="0.55" height="125.45" transform="translate(-52.97 65.78) rotate(-18)" style="fill:#fff"/><rect x="171.79" y="141.14" width="0.55" height="125.45" transform="translate(-73.8 100.34) rotate(-27)" style="fill:#fff"/><rect x="163.4" y="146.28" width="0.55" height="125.45" transform="translate(-91.59 136.13) rotate(-36)" style="fill:#fff"/><rect x="155.92" y="152.68" width="0.55" height="125.45" transform="translate(-106.56 173.54) rotate(-45)" style="fill:#fff"/><rect x="149.53" y="160.16" width="0.55" height="125.45" transform="translate(-118.57 213.07) rotate(-54)" style="fill:#fff"/><rect x="144.38" y="168.55" width="0.55" height="125.45" transform="translate(-127.08 255.17) rotate(-63)" style="fill:#fff"/><rect x="140.62" y="177.65" width="0.55" height="125.45" transform="translate(-131.25 300.09) rotate(-72)" style="fill:#fff"/><rect x="138.32" y="187.22" width="0.55" height="125.45" transform="translate(-129.95 347.73) rotate(-81)" style="fill:#fff"/><rect x="75.1" y="259.48" width="125.45" height="0.55" style="fill:#fff"/><rect x="75.87" y="269.29" width="125.45" height="0.55" transform="translate(-40.43 24.98) rotate(-8.99)" style="fill:#fff"/><rect x="78.17" y="278.86" width="125.45" height="0.55" transform="translate(-79.27 57.1) rotate(-17.97)" style="fill:#fff"/><rect x="81.93" y="287.95" width="125.45" height="0.55" transform="translate(-115.14 97.16) rotate(-27.02)" style="fill:#fff"/><rect x="87.08" y="296.35" width="125.45" height="0.55" transform="translate(-145.79 144.8) rotate(-36.02)" style="fill:#fff"/><rect x="93.47" y="303.83" width="125.45" height="0.55" transform="translate(-169.29 199.52) rotate(-45)" style="fill:#fff"/><rect x="100.95" y="310.22" width="125.45" height="0.55" transform="translate(-183.71 260.3) rotate(-53.98)" style="fill:#fff"/><rect x="109.35" y="315.37" width="125.45" height="0.55" transform="translate(-187.29 325.56) rotate(-62.98)" style="fill:#fff"/><rect x="118.44" y="319.13" width="125.45" height="0.55" transform="matrix(0.31, -0.95, 0.95, 0.31, -178.56, 393.16)" style="fill:#fff"/><rect x="128.01" y="321.43" width="125.45" height="0.55" transform="translate(-156.83 459.81) rotate(-81.01)" style="fill:#fff"/></g><path d="M200.55,366.1A106.35,106.35,0,1,1,306.9,259.75,106.47,106.47,0,0,1,200.55,366.1Zm0-212.14A105.8,105.8,0,1,0,306.34,259.75,105.92,105.92,0,0,0,200.55,154Z" style="fill:#fff"/><path d="M200.55,381.43a121.68,121.68,0,1,1,86-35.64A120.89,120.89,0,0,1,200.55,381.43Zm0-242.8A121.12,121.12,0,1,0,321.67,259.75,121.26,121.26,0,0,0,200.55,138.63Z" style="fill:#fff"/><polygon points="367.89 267.55 360.36 267.22 360.55 259.74 368.09 259.75 368.08 260.31 361.09 260.3 360.92 266.69 367.91 267 367.89 267.55" style="fill:#fff"/><path d="M367.66,274.8l-7.52-.66.05-.55,7,.61.26-3.34c0-.35,0-.71.08-1.06.06-.75.12-1.51.13-2.27l-7-.31,0-.55,7.53.33v.27c0,.86-.07,1.73-.14,2.57,0,.36-.06.71-.08,1.06Z" style="fill:#fff"/><path d="M366.58,282l-7.48-1,0-.28c.08-.59.15-1.18.23-1.77.22-1.67.44-3.39.53-5.1l0-.29,7.52.66,0,.55-7-.6c-.1,1.63-.31,3.27-.52,4.85-.07.5-.13,1-.19,1.5l6.93.91Z" style="fill:#fff"/><polygon points="365.75 289.17 358.31 287.87 358.41 287.32 365.3 288.53 365.89 285.23 366.31 281.92 359.37 281.01 359.45 280.47 366.93 281.44 366.43 285.31 365.75 289.17" style="fill:#fff"/><path d="M364.07,296.22l-7.38-1.63.07-.27c.44-1.71.75-3.49,1.05-5.2.09-.53.19-1.06.28-1.59l.05-.27,7.43,1.3-.09.55-6.89-1.21c-.08.44-.16.88-.23,1.32-.29,1.63-.59,3.31-1,5l6.82,1.5Z" style="fill:#fff"/><path d="M362.62,303.33l-7.29-1.94.15-.54,6.76,1.8c.29-1,.52-2,.74-3l.82-3.53-6.83-1.5.12-.54,7.37,1.62-.94,4.07c-.24,1.08-.5,2.19-.83,3.27Z" style="fill:#fff"/><path d="M360.35,310.21l-7.2-2.26.08-.26c.43-1.4.83-2.84,1.22-4.23l.69-2.43.08-.26,7.28,1.94-.14.54-6.76-1.81-.62,2.18c-.36,1.3-.74,2.65-1.14,4l6.68,2.09Z" style="fill:#fff"/><polygon points="358.28 317.17 351.18 314.59 351.37 314.07 357.94 316.45 360.08 310.12 353.42 308.03 353.58 307.5 360.79 309.76 358.28 317.17" style="fill:#fff"/><polygon points="355.17 324.33 348.21 321.44 350.95 314.48 358.03 317.07 357.84 317.59 351.27 315.19 348.92 321.13 355.38 323.82 355.17 324.33" style="fill:#fff"/><polygon points="352.47 331.07 345.64 327.87 345.87 327.37 352.2 330.33 354.69 324.8 354.92 324.22 348.46 321.54 348.67 321.02 355.64 323.92 355.2 325.02 352.47 331.07" style="fill:#fff"/><polygon points="348.99 337.42 342.3 333.93 344.8 329.06 345.62 327.24 352.46 330.44 352.22 330.94 345.89 327.97 345.3 329.3 343.05 333.7 349.25 336.93 348.99 337.42" style="fill:#fff"/><polygon points="345.73 343.9 339.19 340.12 339.47 339.64 345.52 343.14 347.64 339.45 348.75 337.29 342.55 334.06 342.81 333.56 349.49 337.06 348.13 339.72 345.73 343.9" style="fill:#fff"/><polygon points="341.72 349.94 335.36 345.88 337.38 342.73 339.24 339.49 345.77 343.27 345.49 343.75 339.44 340.25 337.85 343.01 336.12 345.71 342.02 349.47 341.72 349.94" style="fill:#fff"/><path d="M337.91,356.11l-6.18-4.33.32-.45,5.73,4,.89-1.25c.29-.4.67-.93,1-1.48l1.81-2.83-5.9-3.76.3-.46,6.36,4.06-2.1,3.28c-.35.56-.74,1.1-1,1.51Z" style="fill:#fff"/><path d="M333.41,361.79l-6-4.6,1.24-1.58c.22-.29.43-.59.65-.89l.35-.51,2.17-3,6.18,4.33-.32.45-5.73-4-1.85,2.6c-.12.17-.23.34-.35.5-.22.31-.43.62-.66.92l-.9,1.15,5.54,4.25Z" style="fill:#fff"/><path d="M329.08,367.61l-5.77-4.84.35-.42,5.37,4.49c.52-.6,1-1.24,1.51-1.86l.58-.74,2.07-2.63-5.55-4.25.34-.44,6,4.59-2.41,3.07c-.2.25-.39.5-.59.74-.54.7-1.1,1.42-1.71,2.09Z" style="fill:#fff"/><polygon points="323.73 373.3 318.17 368.19 318.96 367.35 323.11 362.57 328.87 367.43 328.52 367.85 323.17 363.35 319.37 367.73 318.96 368.16 324.1 372.89 323.73 373.3" style="fill:#fff"/><polygon points="318.92 378.72 313.58 373.38 313.97 372.99 318.91 377.93 323.52 373.1 318.38 368.37 318.75 367.96 324.31 373.07 318.92 378.72" style="fill:#fff"/><polygon points="313.47 383.51 308.38 377.95 313.79 372.79 319.12 378.12 318.73 378.51 313.78 373.56 309.15 377.98 313.88 383.13 313.47 383.51" style="fill:#fff"/><path d="M308.19,388.48l-4.85-5.78.42-.36,4.49,5.35,1.69-1.46c1.11-1,2.25-1.93,3.35-2.93l-4.72-5.16.4-.37,5.1,5.56-.2.19c-1.17,1.07-2.39,2.11-3.56,3.13l-1.9,1.64Z" style="fill:#fff"/><path d="M302.36,392.78l-4.6-6,4.31-3.38c.29-.23.56-.47.84-.71l.47-.41.21-.18,4.85,5.78-.42.36-4.5-5.35-.25.21-.86.74-3.88,3,4.27,5.54Z" style="fill:#fff"/><path d="M296.67,397.28l-4.34-6.17.46-.32,4,5.72,1.42-1c1.33-.93,2.69-1.89,4-2.93L297.93,387l.44-.33,4.6,6-.21.17c-1.36,1.11-2.8,2.14-4.21,3.12l-1.65,1.18Z" style="fill:#fff"/><path d="M290.5,401.07l-4.07-6.35,3.15-2c.62-.4,1.23-.84,1.82-1.27l1-.72.23-.15,4.34,6.17-.46.32-4-5.72-.77.55c-.6.43-1.22.88-1.85,1.28l-2.69,1.73,3.77,5.89Z" style="fill:#fff"/><path d="M284.45,405.08l-3.79-6.53.48-.28,3.51,6.05.86-.5c.68-.39,1.36-.77,2-1.18l2.81-1.8L286.58,395l.47-.3,4.07,6.36-3.29,2.1c-.68.41-1.36.8-2,1.19-.37.21-.74.42-1.1.64Z" style="fill:#fff"/><path d="M277.47,408.58,274,401.89l.24-.13,1.11-.56c.65-.33,1.32-.67,2-1l3.24-1.86,3.77,6.53-.48.28-3.49-6.06-2.77,1.59c-.65.38-1.33.72-2,1.05l-.85.44,3.22,6.2Z" style="fill:#fff"/><path d="M123.5,408.83l-.25-.13-1.14-.58c-.68-.35-1.4-.71-2.08-1.1l-3.38-1.95,3.76-6.53.48.27-3.49,6.06,2.91,1.67c.67.38,1.37.74,2,1.09l.9.45,3.23-6.2.49.26Z" style="fill:#fff"/><path d="M116.79,404.84l-.48-.28,3.51-6.05L119,398l-1.93-1.12-2.69-1.73-3.77,5.89-.46-.3,4.06-6.35,3.16,2c.62.38,1.26.74,1.9,1.11l1.09.62.23.14Z" style="fill:#fff"/><path d="M110.45,401.31l-3.29-2.11c-.66-.43-1.31-.9-1.94-1.35l-1-.73L104,397l4.34-6.18.45.32-4,5.72.82.58c.62.45,1.26.91,1.91,1.34l2.82,1.8,3.77-5.89.47.3Z" style="fill:#fff"/><path d="M104.58,397.06l-.45-.32,4-5.73-1.39-1c-1.26-.88-2.55-1.79-3.77-2.78l-4.26,5.54-.44-.34,4.61-6,.22.18c1.27,1.05,2.63,2,4,2.94l1.62,1.15.22.16Z" style="fill:#fff"/><path d="M98.57,393l-4.5-3.53c-.31-.24-.61-.5-.91-.77l-.48-.41-.21-.18,4.86-5.78.42.36-4.5,5.36.28.24c.29.25.58.51.88.74l4.06,3.19,4.26-5.54.44.34Z" style="fill:#fff"/><path d="M93.08,388.26l-.42-.35,4.5-5.36-1.69-1.46c-1-.89-2.1-1.81-3.13-2.74l-4.72,5.15-.41-.37,5.1-5.56.2.18c1.09,1,2.23,2,3.33,2.92l1.89,1.64.2.18Z" style="fill:#fff"/><polygon points="87.43 383.72 81.78 378.32 87.11 372.98 87.5 373.37 82.57 378.31 87.41 382.93 92.13 377.77 92.53 378.15 87.43 383.72" style="fill:#fff"/><polygon points="82.38 378.52 81.99 378.13 86.93 373.18 82.51 368.56 77.36 373.29 76.99 372.88 82.54 367.78 87.7 373.19 82.38 378.52" style="fill:#fff"/><polygon points="77.17 373.48 76.36 372.63 72.01 367.61 77.78 362.75 78.14 363.17 72.79 367.67 76.76 372.25 77.19 372.7 82.34 367.97 82.72 368.38 77.17 373.48" style="fill:#fff"/><path d="M72.22,367.44l-.36-.43,5.36-4.48c-.51-.58-1-1.18-1.45-1.77l-.56-.72-2-2.51-5.56,4.25-.33-.44,6-4.59,2.32,2.95.56.72c.51.65,1,1.33,1.61,1.95l.19.22Z" style="fill:#fff"/><path d="M67.47,362l-1.29-1.64c-.24-.31-.46-.63-.69-.95l-.37-.53-2.26-3.18L69,351.32l.32.45-5.73,4,1.94,2.73.37.53c.23.31.45.63.68.93l.95,1.21,5.55-4.25.34.43Z" style="fill:#fff"/><path d="M63.41,356l-.32-.45,5.73-4L68,350.31c-.28-.39-.65-.91-1-1.45l-1.72-2.69-5.9,3.76-.29-.46,6.36-4.06,2,3.15c.33.53.69,1,1,1.42l1.17,1.64Z" style="fill:#fff"/><polygon points="59.14 350.09 57.04 346.8 55.09 343.41 61.62 339.63 61.9 340.11 55.84 343.61 57.51 346.51 59.31 349.32 65.21 345.56 65.51 346.03 59.14 350.09" style="fill:#fff"/><polygon points="55.61 343.76 55.33 343.28 61.38 339.78 59.36 336.26 58.3 334.18 52.1 337.42 51.85 336.93 58.54 333.43 59.85 336 62.14 339.98 55.61 343.76" style="fill:#fff"/><polygon points="51.86 337.55 49.26 332.46 48.39 330.55 55.22 327.35 55.45 327.86 49.12 330.82 49.75 332.22 52.1 336.8 58.29 333.57 58.55 334.06 51.86 337.55" style="fill:#fff"/><polygon points="48.88 330.95 48.64 330.45 54.98 327.48 52.59 322.2 52.37 321.64 45.92 324.33 45.71 323.82 52.68 320.92 53.1 321.99 55.71 327.75 48.88 330.95" style="fill:#fff"/><polygon points="45.66 324.44 42.8 317.17 49.89 314.57 50.08 315.09 43.52 317.5 45.97 323.71 52.42 321.03 52.64 321.54 45.66 324.44" style="fill:#fff"/><polygon points="43.08 317.07 42.89 316.55 49.47 314.17 47.42 308.11 40.74 310.2 40.58 309.68 47.77 307.42 50.17 314.5 43.08 317.07" style="fill:#fff"/><path d="M40.48,310.29,40.4,310c-.46-1.53-.9-3.08-1.33-4.59-.22-.8-.45-1.59-.67-2.39l-.08-.27,7.29-1.94.15.53L39,303.17l.6,2.12c.4,1.42.81,2.88,1.24,4.31l6.66-2.09.17.53Z" style="fill:#fff"/><path d="M38.74,303.26l-.15-.54,6.75-1.8c-.27-.93-.49-1.89-.7-2.82l-.78-3.39L37,296.21l-.12-.54,7.36-1.62.91,3.92c.23,1,.47,2.06.77,3.07l.09.27Z" style="fill:#fff"/><path d="M36.76,296.28,36.7,296c-.46-1.83-.8-3.71-1.12-5.53-.09-.54-.18-1.07-.28-1.6l0-.28,7.43-1.3.1.55-6.89,1.2.24,1.33c.3,1.72.62,3.5,1,5.23L44,294.11l.12.54Z" style="fill:#fff"/><polygon points="35.62 289.12 35.52 288.58 42.41 287.37 41.85 284.23 41.45 281.05 34.51 281.96 34.44 281.41 41.92 280.43 42.4 284.15 43.05 287.82 35.62 289.12" style="fill:#fff"/><path d="M34.24,282l0-.28c-.07-.6-.15-1.2-.23-1.8-.23-1.77-.46-3.6-.56-5.42l0-.27,7.51-.65.05.55-7,.61c.1,1.71.33,3.44.54,5.11.07.51.14,1,.2,1.53l6.93-.91.07.55Z" style="fill:#fff"/><path d="M33.71,274.77l-.05-.55,7-.6-.24-3.19c0-.34,0-.69-.08-1-.06-.7-.12-1.43-.13-2.16l-7,.31,0-.56,7.55-.33V267c0,.8.07,1.62.13,2.41,0,.34.06.69.08,1l.28,3.73Z" style="fill:#fff"/><polygon points="32.92 267.56 32.73 259.75 40.28 259.74 40.28 260.3 33.29 260.31 33.46 266.99 40.44 266.68 40.47 267.23 32.92 267.56" style="fill:#fff"/><polygon points="40.55 259.77 33.01 259.75 33.01 259.2 40.01 259.21 40.17 252.82 33.18 252.51 33.2 251.96 40.74 252.29 40.55 259.77" style="fill:#fff"/><path d="M40.44,252.84l-7.52-.34v-.26c0-.87.07-1.74.14-2.58,0-.35,0-.7.08-1l.29-3.9,7.52.66-.05.55-7-.61-.25,3.33c0,.36,0,.71-.08,1.07-.06.74-.12,1.51-.14,2.27l7,.3Z" style="fill:#fff"/><path d="M41.19,246l-7.53-.65.05-.55,7,.6c.1-1.63.31-3.27.52-4.85.06-.5.13-1,.19-1.5l-6.94-.91.07-.55,7.48,1,0,.27c-.07.6-.15,1.19-.23,1.78-.21,1.67-.44,3.39-.53,5.1Z" style="fill:#fff"/><polygon points="41.65 239.04 34.17 238.06 34.66 234.19 35.35 230.34 42.78 231.64 42.68 232.19 35.8 230.98 35.21 234.28 34.79 237.59 41.72 238.49 41.65 239.04" style="fill:#fff"/><path d="M43,232.25,35.52,231l.1-.55,6.89,1.21c.08-.44.15-.88.23-1.32.29-1.63.58-3.31,1-5l-6.82-1.5.12-.54,7.37,1.63-.07.27c-.43,1.71-.74,3.49-1,5.2-.09.53-.18,1.06-.28,1.59Z" style="fill:#fff"/><path d="M44,225.4l-7.38-1.62.94-4.08c.25-1.07.5-2.18.83-3.26l.08-.26,7.28,1.94-.14.54-6.77-1.8c-.28,1-.51,2-.74,3l-.81,3.53,6.82,1.5Z" style="fill:#fff"/><path d="M45.88,218.74l-7.29-1.94.14-.54,6.76,1.8c.21-.72.42-1.44.62-2.17.37-1.3.75-2.65,1.14-4l-6.67-2.09.16-.53,7.2,2.26-.08.26c-.42,1.4-.82,2.83-1.22,4.22-.22.82-.45,1.63-.69,2.44Z" style="fill:#fff"/><polygon points="47.51 212.01 40.31 209.75 42.81 202.34 49.91 204.91 49.72 205.44 43.16 203.06 41.01 209.39 47.68 211.48 47.51 212.01" style="fill:#fff"/><polygon points="50.15 205.03 43.07 202.44 43.26 201.92 49.83 204.32 52.17 198.38 45.71 195.69 45.92 195.18 52.89 198.07 50.15 205.03" style="fill:#fff"/><polygon points="52.42 198.48 45.46 195.59 45.89 194.49 48.62 188.44 55.46 191.64 55.23 192.14 48.9 189.18 46.4 194.71 46.17 195.28 52.63 197.97 52.42 198.48" style="fill:#fff"/><polygon points="55.47 192.27 48.64 189.07 48.87 188.57 55.2 191.53 55.8 190.21 58.05 185.81 51.85 182.57 52.1 182.08 58.79 185.58 56.3 190.45 55.47 192.27" style="fill:#fff"/><polygon points="58.29 185.94 51.6 182.45 52.97 179.79 55.37 175.61 61.9 179.39 61.62 179.87 55.57 176.37 53.45 180.05 52.35 182.22 58.55 185.45 58.29 185.94" style="fill:#fff"/><polygon points="61.86 180.02 55.33 176.24 55.6 175.76 61.65 179.26 63.24 176.49 64.97 173.8 59.08 170.04 59.38 169.57 65.74 173.63 63.72 176.78 61.86 180.02" style="fill:#fff"/><path d="M65.2,174l-6.36-4.06L61,166.61c.35-.56.73-1.11,1-1.51l1.2-1.7,6.18,4.32-.32.46-5.72-4-.89,1.25c-.3.4-.67.93-1,1.48l-1.81,2.83,5.89,3.75Z" style="fill:#fff"/><path d="M69.26,168.35,63.08,164l.32-.45,5.73,4L71,165l.36-.5c.21-.3.43-.61.66-.91l.9-1.15-5.55-4.25.34-.44,6,4.59-1.25,1.59-.64.89-.36.51Z" style="fill:#fff"/><path d="M73.12,162.59l-6-4.59,2.42-3.07.58-.74c.54-.7,1.11-1.42,1.71-2.09l.18-.2,5.78,4.84-.36.42-5.36-4.49c-.53.6-1,1.24-1.52,1.86l-.58.74-2.06,2.63,5.54,4.25Z" style="fill:#fff"/><polygon points="77.99 156.94 72.22 152.08 72.58 151.65 77.93 156.16 81.72 151.78 82.14 151.35 76.99 146.62 77.37 146.21 82.93 151.32 82.13 152.16 77.99 156.94" style="fill:#fff"/><polygon points="82.34 151.54 76.78 146.44 82.18 140.78 87.51 146.13 87.12 146.52 82.19 141.58 77.57 146.41 82.71 151.14 82.34 151.54" style="fill:#fff"/><polygon points="87.3 146.72 81.98 141.38 82.37 140.99 87.31 145.95 91.94 141.53 87.22 136.37 87.62 136 92.72 141.56 87.3 146.72" style="fill:#fff"/><path d="M92.12,141.74,87,136.17l.21-.18c1.16-1.07,2.38-2.11,3.55-3.12.64-.55,1.28-1.1,1.91-1.66l.21-.18,4.86,5.78-.42.36-4.5-5.35-1.7,1.47c-1.1,1-2.24,1.93-3.33,2.92l4.72,5.15Z" style="fill:#fff"/><path d="M97.51,137.39l-4.86-5.78.43-.36,4.49,5.35.25-.22c.29-.25.57-.49.87-.73l3.87-3-4.26-5.54.44-.34,4.6,6L99,136.09c-.29.23-.57.47-.84.71l-.47.41Z" style="fill:#fff"/><path d="M102.73,132.83l-4.6-6,.21-.17c1.35-1.12,2.8-2.14,4.21-3.13l1.64-1.17.23-.17,4.34,6.18-.45.32-4-5.72-1.42,1c-1.33.94-2.69,1.9-4,2.94l4.26,5.54Z" style="fill:#fff"/><path d="M108.46,129l-4.34-6.17.45-.32,4,5.72.78-.55c.6-.43,1.21-.88,1.84-1.29l2.69-1.72-3.77-5.89.47-.3,4.07,6.36-3.16,2c-.61.4-1.23.84-1.82,1.27l-1,.71Z" style="fill:#fff"/><path d="M114.05,124.86,110,118.5l3.28-2.1c.68-.41,1.36-.8,2-1.19l1.11-.64.24-.14,3.79,6.53-.48.28-3.51-6-.87.5c-.68.39-1.36.77-2,1.18l-2.82,1.8,3.77,5.89Z" style="fill:#fff"/><path d="M120.55,121.21l-3.77-6.54.48-.27,3.5,6.06,2.76-1.6c.65-.37,1.33-.71,2-1l.85-.44-3.23-6.2.5-.26,3.48,6.7-.25.13-1.1.56c-.65.33-1.32.67-2,1Z" style="fill:#fff"/><path d="M126.48,117.63,123,110.94l3.47-1.78.57-.29c.35-.19.71-.37,1.07-.53l1.9-.86,3.18,6.84-.5.23-2.95-6.34-1.4.63c-.36.16-.7.34-1,.52-.19.1-.38.2-.58.29l-3,1.52,3.22,6.21Z" style="fill:#fff"/><path d="M132.8,114.8,129.61,108l.5-.24,3,6.34,3.63-1.64c.72-.33,1.46-.66,2.21-1L136.24,105l.51-.22,2.89,7-.27.1c-.83.31-1.65.68-2.44,1Z" style="fill:#fff"/><path d="M139,111.74l-2.89-7,.27-.11c.76-.29,1.52-.6,2.28-.9,1.49-.59,3-1.18,4.47-1.74l.26-.1L146,109l-.52.19-2.39-6.56c-1.4.53-2.8,1.08-4.19,1.64l-2,.8,2.67,6.45Z" style="fill:#fff"/><polygon points="145.54 109.46 142.97 102.38 143.49 102.19 145.88 108.76 151.94 106.71 149.83 100.04 150.36 99.87 152.63 107.06 145.54 109.46" style="fill:#fff"/><path d="M152,107l-2.27-7.19.26-.09c1.51-.47,3.06-.9,4.55-1.32l2.43-.69.27-.08,1.95,7.29-.53.15-1.81-6.75-2.16.61c-1.4.4-2.85.8-4.26,1.24l2.1,6.67Z" style="fill:#fff"/><polygon points="158.73 105.31 156.77 98.02 157.31 97.88 159.12 104.63 160.52 104.23 165.33 103.12 163.81 96.3 164.35 96.18 165.99 103.54 160.66 104.77 158.73 105.31" style="fill:#fff"/><polygon points="165.38 103.39 163.75 96.03 166.67 95.36 171.41 94.5 172.73 101.94 172.18 102.03 170.96 95.15 166.78 95.9 164.41 96.45 165.93 103.27 165.38 103.39" style="fill:#fff"/><path d="M172.75,102.21l-1.29-7.43.54-.1,1.2,6.89,1-.17c.72-.13,1.45-.27,2.19-.38l3.17-.4-.9-6.94.55-.07,1,7.49-3.72.47c-.72.11-1.44.24-2.17.37l-1.23.22Z" style="fill:#fff"/><polygon points="179.55 100.89 178.58 93.41 183.35 92.81 186.35 92.57 186.99 100.09 186.44 100.14 185.84 93.17 183.41 93.36 179.2 93.89 180.1 100.82 179.55 100.89" style="fill:#fff"/><path d="M186.45,100.41l-.64-7.52.55,0,.6,7,3.6-.28c.91-.07,1.84-.14,2.78-.16l-.3-7,.55,0,.32,7.55h-.28c-1,0-2,.09-3,.16Z" style="fill:#fff"/><polygon points="193.34 99.67 193.02 92.12 200.83 91.93 200.83 99.48 200.28 99.48 200.28 92.49 193.6 92.66 193.9 99.64 193.34 99.67" style="fill:#fff"/><polygon points="207.74 99.94 200.26 99.75 200.26 92.21 200.82 92.21 200.82 99.21 207.21 99.37 207.51 92.38 208.06 92.41 207.74 99.94" style="fill:#fff"/><path d="M214.67,100.14l-.55,0,.59-7L211,92.84c-1-.07-1.94-.15-2.91-.17l-.3,7-.56,0,.32-7.53h.27c1.08,0,2.17.09,3.22.17l4.31.33Z" style="fill:#fff"/><polygon points="221.51 101.17 216.94 100.58 214.08 100.37 214.72 92.85 215.27 92.89 214.68 99.86 216.99 100.03 221.03 100.55 221.93 93.61 222.48 93.69 221.51 101.17" style="fill:#fff"/><path d="M228.39,101.94l-.54-.1L229,95l-1-.17c-.77-.14-1.55-.28-2.32-.4L222.44,94l-.9,6.93-.55-.07,1-7.48,3.87.49c.78.12,1.56.26,2.34.4l1.24.23.27,0Z" style="fill:#fff"/><polygon points="235.65 103.67 232.84 103.02 228.32 102.21 229.63 94.78 230.18 94.88 228.96 101.76 232.96 102.47 235.23 103 236.75 96.18 237.29 96.3 235.65 103.67" style="fill:#fff"/><polygon points="242.44 105.04 241.9 104.9 243.72 98.14 242.24 97.73 237.22 96.57 235.71 103.39 235.16 103.27 236.8 95.9 242.37 97.19 244.39 97.76 242.44 105.04" style="fill:#fff"/><path d="M249,107.24l-.26-.09c-1.41-.44-2.85-.84-4.25-1.23-.8-.23-1.61-.45-2.41-.69l-.26-.07,2-7.29.54.15-1.81,6.76,2.14.6c1.31.37,2.67.75,4,1.16l2.1-6.66.53.16Z" style="fill:#fff"/><polygon points="255.64 109.21 255.12 109.02 257.51 102.45 251.18 100.31 249.08 106.97 248.55 106.81 250.82 99.6 258.23 102.11 255.64 109.21" style="fill:#fff"/><path d="M262,112l-.25-.1-2.38-.93c-1.36-.54-2.71-1.08-4.08-1.59l-.25-.1,2.58-7.09.52.19L255.73,109c1.27.48,2.55,1,3.82,1.49l2.13.84,2.67-6.46.51.21Z" style="fill:#fff"/><path d="M268.41,114.55l-.5-.23,2.95-6.33-3.79-1.72c-.75-.34-1.53-.69-2.31-1l-2.68,6.47-.51-.21,2.88-7,.25.09c.89.33,1.76.72,2.6,1.11l4.3,1.94Z" style="fill:#fff"/><path d="M274.49,117.88l-3.33-1.71-.55-.28c-.33-.17-.66-.34-1-.49l-1.84-.83,3.19-6.84.5.23-3,6.34,1.33.59c.34.16.68.33,1,.51l.54.27,2.85,1.46,3.23-6.2.49.25Z" style="fill:#fff"/><path d="M280.68,121l-.48-.27,3.49-6.06-2.9-1.67c-.67-.39-1.38-.74-2.07-1.09l-.89-.45-3.22,6.2-.49-.26,3.48-6.69.24.13c.38.19.76.38,1.13.58.69.34,1.41.71,2.1,1.1l3.38,1.94Z" style="fill:#fff"/><path d="M286.9,125.09l-3.15-2c-.63-.38-1.27-.75-1.91-1.11l-1.08-.62-.24-.14,3.79-6.53.48.28-3.51,6,.83.48c.65.37,1.3.73,1.93,1.12l2.69,1.73,3.77-5.89.47.3Z" style="fill:#fff"/><path d="M292.8,128.73l-.46-.32,4-5.72-.81-.59c-.63-.44-1.27-.9-1.92-1.33l-2.82-1.8L287,124.86l-.46-.3,4.07-6.36,3.28,2.11c.66.43,1.31.89,1.94,1.35l1,.73.23.16Z" style="fill:#fff"/><path d="M298.2,133.06l-.23-.18c-1.26-1-2.63-2-4-2.94l-1.62-1.16-.22-.16,4.33-6.17.46.32-4,5.73,1.4,1c1.25.89,2.55,1.8,3.77,2.79l4.25-5.54.44.34Z" style="fill:#fff"/><path d="M303.77,137.17l-.43-.35,4.5-5.36-.28-.24c-.29-.26-.57-.51-.88-.74l-4.05-3.19-4.26,5.54-.44-.34,4.6-6L307,130c.31.24.61.5.91.76l.48.42.21.18Z" style="fill:#fff"/><path d="M308.79,141.94l-.21-.18c-1.08-1-2.22-2-3.32-2.92-.63-.55-1.27-1.09-1.89-1.64l-.21-.18,4.85-5.78.42.36-4.5,5.36,1.69,1.46c1,.89,2.1,1.81,3.13,2.74l4.73-5.16.4.38Z" style="fill:#fff"/><polygon points="313.98 146.53 313.59 146.14 318.52 141.19 313.69 136.58 308.97 141.74 308.56 141.36 313.66 135.79 319.32 141.19 313.98 146.53" style="fill:#fff"/><polygon points="318.56 151.73 313.39 146.32 318.72 140.99 319.11 141.38 314.16 146.33 318.58 150.95 323.73 146.22 324.11 146.63 318.56 151.73" style="fill:#fff"/><polygon points="323.31 156.76 322.96 156.34 328.3 151.84 324.33 147.25 323.9 146.81 318.75 151.54 318.38 151.13 323.93 146.03 324.74 146.88 329.09 151.9 323.31 156.76" style="fill:#fff"/><path d="M327.76,162.75l-2.31-2.94-.57-.72c-.51-.65-1-1.33-1.6-2l-.2-.22,5.8-4.85.35.43L323.88,157c.51.57,1,1.18,1.44,1.77l.56.72,2,2.51,5.55-4.25.34.44Z" style="fill:#fff"/><path d="M332.06,168.19l-.32-.46,5.73-4L335.53,161c-.13-.17-.25-.34-.37-.52s-.45-.63-.69-.95l-.94-1.2L328,162.58l-.33-.44,6-4.58,1.29,1.64c.24.32.47.64.7,1l.37.51,2.26,3.18Z" style="fill:#fff"/><path d="M335.66,174.1l-2-3.15c-.33-.54-.69-1-1-1.42l-1.17-1.65,6.19-4.32.31.45-5.72,4,.84,1.18c.28.39.65.91,1,1.45l1.72,2.69,5.89-3.76.3.46Z" style="fill:#fff"/><polygon points="339.48 179.88 339.2 179.4 345.25 175.9 343.58 172.99 341.78 170.19 335.89 173.95 335.59 173.48 341.95 169.42 344.06 172.71 346.01 176.1 339.48 179.88" style="fill:#fff"/><polygon points="342.56 186.07 341.25 183.51 338.95 179.53 345.49 175.75 345.76 176.23 339.71 179.73 341.73 183.25 342.8 185.32 348.99 182.09 349.25 182.58 342.56 186.07" style="fill:#fff"/><polygon points="345.88 192.16 345.64 191.65 351.98 188.69 351.34 187.28 349 182.7 342.8 185.94 342.55 185.45 349.24 181.96 351.84 187.04 352.71 188.96 345.88 192.16" style="fill:#fff"/><polygon points="348.41 198.59 347.99 197.52 345.39 191.76 352.22 188.56 352.45 189.06 346.12 192.03 348.5 197.31 348.72 197.87 355.17 195.18 355.38 195.69 348.41 198.59" style="fill:#fff"/><polygon points="351.2 204.94 351.01 204.41 357.57 202.01 355.12 195.79 348.67 198.48 348.46 197.97 355.43 195.07 358.3 202.34 351.2 204.94" style="fill:#fff"/><polygon points="353.32 212.09 350.93 205.01 358.02 202.44 358.21 202.96 351.63 205.34 353.68 211.4 360.35 209.3 360.52 209.83 353.32 212.09" style="fill:#fff"/><path d="M355.48,218.67l-.14-.54,6.75-1.79-.6-2.13c-.4-1.41-.81-2.87-1.24-4.3L353.58,212l-.16-.53,7.2-2.26.08.27c.46,1.52.9,3.08,1.32,4.58.23.8.45,1.6.68,2.39l.08.28Z" style="fill:#fff"/><path d="M356.82,225.46l-.9-3.93c-.23-1-.47-2.06-.78-3.06l-.08-.27,7.3-1.95.14.54-6.75,1.79c.28.94.49,1.9.71,2.83l.78,3.39,6.83-1.5.12.54Z" style="fill:#fff"/><path d="M358.41,232.2l-.09-.55,6.88-1.2c-.08-.45-.16-.89-.23-1.34-.31-1.72-.62-3.5-1.05-5.22l-6.83,1.5-.12-.54,7.36-1.62.07.26c.46,1.83.79,3.71,1.11,5.53.1.53.19,1.07.29,1.6l.05.28Z" style="fill:#fff"/><polygon points="359.17 239.08 358.7 235.36 358.04 231.69 365.48 230.39 365.57 230.93 358.69 232.14 359.25 235.28 359.65 238.46 366.58 237.55 366.65 238.1 359.17 239.08" style="fill:#fff"/><path d="M360.19,245.93l-.05-.55,7-.61c-.11-1.71-.33-3.44-.55-5.12-.07-.51-.13-1-.19-1.52l-6.93.91-.08-.55,7.49-1,0,.28c.07.59.15,1.19.23,1.79.23,1.77.47,3.61.57,5.43v.26Z" style="fill:#fff"/><path d="M360.36,252.85v-.29c0-.8-.06-1.62-.13-2.41,0-.34-.05-.69-.08-1l-.28-3.73,7.51-.66.05.56-7,.6.25,3.19c0,.34.05.68.07,1,.06.71.12,1.44.13,2.17l7-.31,0,.56Z" style="fill:#fff"/><polygon points="360.82 259.77 360.82 259.21 367.8 259.2 367.63 252.52 360.65 252.83 360.63 252.28 368.17 251.94 368.37 259.75 360.82 259.77" style="fill:#fff"/><path d="M200.55,439.6a179.84,179.84,0,1,1,127.17-52.68A178.67,178.67,0,0,1,200.55,439.6Zm0-358.58C102,81,21.81,161.2,21.81,259.75S102,438.49,200.55,438.49s178.73-80.18,178.73-178.74S299.1,81,200.55,81Z" style="fill:#fab317"/><path d="M200.55,445.19a185.44,185.44,0,1,1,131.12-54.31A184.21,184.21,0,0,1,200.55,445.19Zm0-370.32c-102,0-184.89,82.94-184.89,184.88S98.6,444.64,200.55,444.64,385.43,361.7,385.43,259.75,302.49,74.87,200.55,74.87Z" style="fill:#fff"/></g><path d="M150.32,184.49v84.74a9.54,9.54,0,0,0,9.54,9.54h80.79a9.54,9.54,0,0,0,9.54-9.54V184.49Z" style="fill:#1a1a1a;stroke:#fff;stroke-miterlimit:10"/><ellipse cx="173.98" cy="216.41" rx="17.53" ry="17.51" style="fill:none;stroke:#fff;stroke-miterlimit:10"/><ellipse cx="263.67" cy="244.85" rx="15.48" ry="15.46" style="fill:#1a1a1a;stroke:#fff;stroke-miterlimit:10"/><ellipse cx="263.67" cy="244.85" rx="13.98" ry="13.97" style="fill:#1a1a1a;stroke:#fff;stroke-miterlimit:10"/><ellipse cx="263.77" cy="244.85" rx="7.49" ry="7.48" style="fill:#1a1a1a;stroke:#fff;stroke-miterlimit:10"/><circle cx="263.77" cy="244.85" r="3.18" style="fill:#f8b318;stroke:#fff;stroke-miterlimit:10"/><ellipse cx="137.34" cy="244.85" rx="15.48" ry="15.46" style="fill:#1a1a1a;stroke:#fff;stroke-miterlimit:10"/><ellipse cx="137.34" cy="244.85" rx="13.98" ry="13.97" style="fill:#1a1a1a;stroke:#fff;stroke-miterlimit:10"/><ellipse cx="137.44" cy="244.85" rx="7.49" ry="7.48" style="fill:#1a1a1a;stroke:#fff;stroke-miterlimit:10"/><circle cx="137.44" cy="244.85" r="3.18" style="fill:#f8b318;stroke:#fff;stroke-miterlimit:10"/><ellipse cx="226.85" cy="216.41" rx="17.53" ry="17.51" style="fill:none;stroke:#fff;stroke-miterlimit:10"/><rect x="195.88" y="179.84" width="8.7" height="13.89" style="fill:none;stroke:#fff;stroke-miterlimit:10"/><circle cx="200.23" cy="197.22" r="5.65" style="fill:#f8b318;stroke:#fff;stroke-miterlimit:10"/><circle cx="200.23" cy="197.22" r="2.75" style="fill:#f8b318;stroke:#fff;stroke-miterlimit:10"/><line x1="198.13" y1="199.3" x2="202.19" y2="195.24" style="fill:#f8b318;stroke:#fff;stroke-miterlimit:10"/><line x1="202.19" y1="199.3" x2="198.13" y2="195.24" style="fill:#f8b318;stroke:#fff;stroke-miterlimit:10"/><ellipse cx="173.99" cy="216.41" rx="23.62" ry="23.6" style="fill:none;stroke:#f8b318;stroke-miterlimit:10"/><ellipse cx="226.48" cy="216.41" rx="23.62" ry="23.6" style="fill:none;stroke:#f8b318;stroke-miterlimit:10"/><ellipse cx="173.98" cy="216.41" rx="20.47" ry="20.45" style="fill:none;stroke:#f8b318;stroke-miterlimit:10"/><ellipse cx="227.01" cy="216.41" rx="20.47" ry="20.45" style="fill:none;stroke:#f8b318;stroke-miterlimit:10"/><ellipse cx="173.98" cy="216.65" rx="17.53" ry="17.51" style="fill:#1a1a1a"/><g style="clip-path:url(#e0f68216-9898-48a6-a3cc-d9b680300b35)"><line x1="157.27" y1="224.76" x2="188.12" y2="203.91" style="fill:none;stroke:#fff;stroke-miterlimit:10"/><line x1="160.99" y1="230.76" x2="191.83" y2="209.91" style="fill:none;stroke:#fff;stroke-miterlimit:10"/></g><ellipse cx="226.96" cy="216.65" rx="17.53" ry="17.51" style="fill:#1a1a1a"/><g style="clip-path:url(#ac75aa15-8b04-4a8b-9875-13baa71ef07a)"><line x1="210.26" y1="224.76" x2="241.1" y2="203.91" style="fill:none;stroke:#fff;stroke-miterlimit:10"/><line x1="213.97" y1="230.76" x2="244.81" y2="209.91" style="fill:none;stroke:#fff;stroke-miterlimit:10"/></g><circle cx="155.97" cy="201.57" r="5.65" style="fill:#f8b318;stroke:#fff;stroke-miterlimit:10"/><circle cx="155.97" cy="201.57" r="2.75" style="fill:#f8b318;stroke:#fff;stroke-miterlimit:10"/><line x1="153.88" y1="203.65" x2="157.93" y2="199.59" style="fill:#f8b318;stroke:#fff;stroke-miterlimit:10"/><line x1="157.93" y1="203.65" x2="153.88" y2="199.59" style="fill:#f8b318;stroke:#fff;stroke-miterlimit:10"/><circle cx="244.79" cy="201.57" r="5.65" style="fill:#f8b318;stroke:#fff;stroke-miterlimit:10"/><circle cx="244.79" cy="201.57" r="2.75" style="fill:#f8b318;stroke:#fff;stroke-miterlimit:10"/><line x1="242.69" y1="203.65" x2="246.75" y2="199.59" style="fill:#f8b318;stroke:#fff;stroke-miterlimit:10"/><line x1="246.75" y1="203.65" x2="242.69" y2="199.59" style="fill:#f8b318;stroke:#fff;stroke-miterlimit:10"/><rect x="150.32" y="178" width="99.87" height="6.48" style="fill:#1a1a1a;stroke:#fff;stroke-miterlimit:10"/><circle cx="200.38" cy="252.01" r="23.31" style="fill:#f8b318;stroke:#fff;stroke-miterlimit:10"/><path d="M215.38,256.63c0,1.05-2.25,1.9-5,1.9H191.46c-2.75,0-5-.85-5-1.9s2.25-1.91,5-1.91h18.92C213.13,254.72,215.38,255.58,215.38,256.63Z" style="fill:#1a1a1a"/><circle cx="196.2" cy="237.45" r="2.43" style="fill:#1a1a1a"/><circle cx="204.14" cy="237.45" r="2.43" style="fill:#1a1a1a"/></svg>