<?xml version="1.0" encoding="utf-8"?>
<!-- Generator: Adobe Illustrator 25.2.3, SVG Export Plug-In . SVG Version: 6.00 Build 0)  -->
<svg version="1.1" id="Layer_1" xmlns="http://www.w3.org/2000/svg" xmlns:xlink="http://www.w3.org/1999/xlink" x="0px" y="0px"
	 viewBox="0 0 694.1 768" style="enable-background:new 0 0 694.1 768;" xml:space="preserve">
<style type="text/css">
	.st0{fill:none;stroke:#FDB515;stroke-miterlimit:10;}
	.st1{fill:#1A1A1A;}
	.st2{fill:none;stroke:#FFFFFF;stroke-miterlimit:10;}
	.st3{fill:#FDB515;}
	.st4{fill:#010101;}
	.st5{fill:#FFFFFF;stroke:#FFFFFF;stroke-miterlimit:10;}
	.st6{fill:none;stroke:#925122;stroke-width:2;stroke-miterlimit:10;}
	.st7{fill:#925122;}
	.st8{fill:#231F20;}
	.st9{fill:none;stroke:#FFFFFF;stroke-width:8;stroke-miterlimit:10;}
	.st10{fill:none;stroke:#333333;stroke-width:8;stroke-miterlimit:10;}
	.st11{fill:#FFFFFF;}
</style>
<g>
	<g>
		<line class="st0" x1="345.3" y1="562.4" x2="345.3" y2="770.1"/>
		<line class="st0" x1="241.5" y1="666.2" x2="449.2" y2="666.2"/>
		<line class="st0" x1="271.9" y1="592.8" x2="418.8" y2="739.7"/>
		<line class="st0" x1="271.9" y1="739.7" x2="418.8" y2="592.8"/>
	</g>
	<circle class="st1" cx="345.3" cy="666.2" r="80.8"/>
</g>
<g>
	<polygon class="st2" points="403.6,634.4 345.3,667.1 287.1,634.4 345.3,598.5 	"/>
	<polygon class="st2" points="398.3,634.4 345.3,664.2 292.3,634.4 345.3,601.8 	"/>
	<polyline class="st2" points="398.3,703.1 345.3,732.8 292.3,703.1 	"/>
	<polyline class="st2" points="403.6,703.1 345.3,735.8 287.1,703.1 	"/>
	<line class="st2" x1="287.2" y1="634.4" x2="287.2" y2="703.7"/>
	<line class="st2" x1="292" y1="634.6" x2="292" y2="703.9"/>
	<line class="st2" x1="398.7" y1="634.4" x2="398.7" y2="703.7"/>
	<line class="st2" x1="403.5" y1="634.6" x2="403.5" y2="703.9"/>
	<line class="st2" x1="345.3" y1="664.1" x2="345.3" y2="735.6"/>
	<line class="st2" x1="345.3" y1="665.3" x2="345.3" y2="670"/>
</g>
<line class="st2" x1="345.3" y1="547.9" x2="345.3" y2="633.7"/>
<g>
	<g>
		<g>
			<line class="st0" x1="344.4" y1="-1.2" x2="344.4" y2="206.5"/>
			<line class="st0" x1="240.6" y1="102.7" x2="448.3" y2="102.7"/>
			<line class="st0" x1="271" y1="29.2" x2="417.9" y2="176.1"/>
			<line class="st0" x1="271" y1="176.1" x2="417.9" y2="29.2"/>
		</g>
		<circle class="st1" cx="344.4" cy="102.7" r="80.8"/>
	</g>
	<g>
		<polygon class="st2" points="402.7,72.7 344.4,105.4 286.2,72.7 344.4,36.8 		"/>
		<polygon class="st2" points="397.4,72.7 344.4,102.4 291.4,72.7 344.4,40 		"/>
		<polyline class="st2" points="397.4,141.3 344.4,171.1 291.4,141.3 		"/>
		<polyline class="st2" points="402.7,141.3 344.4,174 286.2,141.3 		"/>
		<line class="st2" x1="286.3" y1="72.7" x2="286.3" y2="142"/>
		<line class="st2" x1="291.1" y1="72.8" x2="291.1" y2="142.1"/>
		<line class="st2" x1="397.8" y1="72.7" x2="397.8" y2="142"/>
		<line class="st2" x1="402.5" y1="72.8" x2="402.5" y2="142.1"/>
		<line class="st2" x1="344.4" y1="102.4" x2="344.4" y2="173.9"/>
		<line class="st2" x1="344.4" y1="103.6" x2="344.4" y2="108.3"/>
	</g>
	<line class="st2" x1="344.4" y1="172.2" x2="344.4" y2="258"/>
</g>
<g>
	<g>
		<circle class="st3" cx="528.3" cy="167.5" r="7.7"/>
		<circle class="st4" cx="528.1" cy="167.7" r="3.8"/>
		<circle class="st3" cx="444.9" cy="251" r="3.6"/>
		<circle class="st3" cx="443.9" cy="298.4" r="3.6"/>
		<circle class="st3" cx="660.5" cy="81.9" r="3.6"/>
		<circle class="st3" cx="611.5" cy="84.4" r="3.6"/>
		<circle class="st3" cx="492.7" cy="298.8" r="3.6"/>
		<circle class="st3" cx="659.2" cy="132.2" r="3.6"/>
		<polyline class="st0" points="522.9,162.1 611.5,84.4 533.7,172.9 		"/>
		<polyline class="st0" points="523.2,161.8 445.5,250.3 534.1,172.6 		"/>
		<circle class="st3" cx="576.1" cy="215.3" r="7.7"/>
		<polyline class="st0" points="570.7,209.9 659.2,132.2 581.5,220.7 		"/>
		<polyline class="st0" points="571,209.6 493.3,298.1 581.8,220.4 		"/>
		<circle class="st3" cx="551.8" cy="191.2" r="9.9"/>
		<polyline class="st0" points="544.9,184.2 658.9,84.1 558.8,198.1 		"/>
		<polyline class="st0" points="545.3,183.8 445.2,297.8 559.2,197.7 		"/>
		<polyline class="st0" points="522.9,172.9 558.9,184.1 570.7,220.7 581.5,209.9 544.9,198.1 533.7,162.1 		"/>
		<circle class="st4" cx="551.8" cy="191.5" r="3.8"/>
		<circle class="st4" cx="576.4" cy="216" r="3.8"/>
	</g>
	<g>
		<circle class="st3" cx="121.8" cy="214.2" r="7.7"/>
		<circle class="st4" cx="122" cy="214.4" r="3.8"/>
		<circle class="st3" cx="205.3" cy="297.6" r="3.6"/>
		<circle class="st3" cx="252.7" cy="298.6" r="3.6"/>
		<circle class="st3" cx="36.1" cy="82" r="3.6"/>
		<circle class="st3" cx="38.7" cy="131.1" r="3.6"/>
		<circle class="st3" cx="253" cy="249.9" r="3.6"/>
		<circle class="st3" cx="86.4" cy="83.3" r="3.6"/>
		<polyline class="st0" points="116.4,219.6 38.7,131.1 127.2,208.8 		"/>
		<polyline class="st0" points="116.1,219.3 204.6,297 126.9,208.5 		"/>
		<circle class="st3" cx="169.6" cy="166.4" r="7.7"/>
		<polyline class="st0" points="164.2,171.8 86.4,83.3 175,161 		"/>
		<polyline class="st0" points="163.8,171.5 252.4,249.2 174.7,160.7 		"/>
		<circle class="st3" cx="145.4" cy="190.7" r="9.9"/>
		<polyline class="st0" points="138.4,197.6 38.4,83.6 152.4,183.7 		"/>
		<polyline class="st0" points="138,197.2 252.1,297.3 152,183.3 		"/>
		<polyline class="st0" points="127.2,219.6 138.4,183.6 175,171.8 164.2,161 152.4,197.6 116.4,208.8 		"/>
		<circle class="st4" cx="145.7" cy="190.7" r="3.8"/>
		<circle class="st4" cx="170.3" cy="166.2" r="3.8"/>
	</g>
</g>
<g>
	<g>
		<circle class="st2" cx="91.6" cy="401.2" r="85"/>
		<path class="st5" d="M176.5,400.3c0,46.9-38.1,85-85,85s-85-38.1-85-85"/>
		<circle class="st4" cx="91.6" cy="400.3" r="63.7"/>
		<path class="st3" d="M27.8,400.3c0-35.2,28.5-63.7,63.7-63.7s63.7,28.5,63.7,63.7"/>
		<path class="st6" d="M64.6,400.3c0-14.9,12.1-26.9,26.9-26.9s26.9,12.1,26.9,26.9"/>
		<path class="st7" d="M118.5,399.6c0,14.9-12.1,26.9-26.9,26.9s-26.9-12.1-26.9-26.9"/>
		<circle class="st8" cx="91.6" cy="400.2" r="9"/>
	</g>
	<g>
		<circle class="st9" cx="90.8" cy="400.5" r="49.1"/>
		<path class="st10" d="M41.7,400.5c0-27.1,22-49.1,49.1-49.1s49.1,22,49.1,49.1"/>
	</g>
</g>
<g>
	<g>
		<circle class="st2" cx="344.4" cy="402.6" r="85"/>
		<path class="st5" d="M429.4,401.7c0,46.9-38.1,85-85,85s-85-38.1-85-85"/>
		<circle class="st4" cx="344.4" cy="401.7" r="63.7"/>
		<path class="st3" d="M408.2,401.7c0,35.2-28.5,63.7-63.7,63.7s-63.7-28.5-63.7-63.7"/>
		<path class="st6" d="M371.4,401.7c0,14.9-12.1,26.9-26.9,26.9c-14.9,0-26.9-12.1-26.9-26.9"/>
		<path class="st7" d="M317.5,402.4c0-14.9,12.1-26.9,26.9-26.9c14.9,0,26.9,12.1,26.9,26.9"/>
		<circle class="st8" cx="344.4" cy="401.6" r="9"/>
	</g>
	<g>
		<circle class="st9" cx="344.5" cy="401.4" r="49.1"/>
		<path class="st10" d="M393.6,401.4c0,27.1-22,49.1-49.1,49.1s-49.1-22-49.1-49.1"/>
	</g>
</g>
<g>
	<g>
		<circle class="st2" cx="601.8" cy="401.2" r="85"/>
		<path class="st5" d="M600.9,316.2c46.9,0,85,38.1,85,85s-38.1,85-85,85"/>
		<circle class="st4" cx="600.9" cy="401.2" r="63.7"/>
		<path class="st3" d="M600.9,337.5c35.2,0,63.7,28.5,63.7,63.7S636.1,465,600.9,465"/>
		<path class="st6" d="M600.1,374.3c14.9,0,26.9,12.1,26.9,26.9c0,14.9-12.1,26.9-26.9,26.9"/>
		<path class="st7" d="M600.8,428.1c-14.9,0-26.9-12.1-26.9-26.9c0-14.9,12.1-26.9,26.9-26.9"/>
		<circle class="st8" cx="600.8" cy="401.2" r="9"/>
	</g>
	<g>
		<circle class="st9" cx="600.8" cy="401.4" r="49.1"/>
		<path class="st10" d="M600.8,352.3c27.1,0,49.1,22,49.1,49.1s-22,49.1-49.1,49.1"/>
	</g>
</g>
<g>
	<line class="st5" x1="329.8" y1="272.9" x2="399.7" y2="337"/>
	<circle class="st3" cx="344.4" cy="257.1" r="21.7"/>
	<circle class="st7" cx="344.4" cy="257.1" r="10.9"/>
	<g>
		<line class="st5" x1="139.7" y1="471.2" x2="233.3" y2="416.5"/>
		<line class="st5" x1="211" y1="380.7" x2="302.1" y2="328.6"/>
	</g>
	<g>
		<line class="st5" x1="395.3" y1="471.2" x2="488.9" y2="416.5"/>
		<line class="st5" x1="466.6" y1="380.7" x2="557.7" y2="328.6"/>
	</g>
	<g>
		<circle class="st3" cx="474.5" cy="401.2" r="21.7"/>
		<circle class="st7" cx="474.5" cy="401.2" r="10.9"/>
	</g>
	<g>
		<circle class="st3" cx="218" cy="401.2" r="21.7"/>
		<circle class="st7" cx="218" cy="401.2" r="10.9"/>
	</g>
	<circle class="st11" cx="344.1" cy="257.2" r="5.1"/>
	<g>
		<line class="st5" x1="289.6" y1="468" x2="358.6" y2="532.1"/>
		<circle class="st3" cx="345.3" cy="547" r="21.7"/>
		<circle class="st7" cx="345.3" cy="547.9" r="10.9"/>
		<circle class="st11" cx="345.3" cy="547.9" r="6"/>
	</g>
</g>
</svg>
