<svg id="a43ae0af-32d5-4f76-9bd6-3fc2f2f32634" data-name="Layer 1" xmlns="http://www.w3.org/2000/svg" xmlns:xlink="http://www.w3.org/1999/xlink" viewBox="0 0 1336 668"><defs><clipPath id="a742a6d4-ac67-4b74-887e-10e81e4f7c5c"><rect width="1336" height="668" style="fill:none"/></clipPath></defs><g style="clip-path:url(#a742a6d4-ac67-4b74-887e-10e81e4f7c5c)"><rect width="1336" height="668" style="fill:#1a1a1a"/><rect x="-46.64" y="17.77" width="1336" height="668" style="fill:#1a1a1a"/><line x1="-29.84" y1="322.84" x2="1353.24" y2="322.84" style="fill:none;stroke:#fff;stroke-miterlimit:10;stroke-width:0.5px"/><rect x="485.93" y="151.43" width="365.15" height="365.15" transform="translate(431.97 -374.87) rotate(45)" style="fill:none;stroke:#fff;stroke-miterlimit:10;stroke-width:0.5px"/><rect x="315.34" y="-19.16" width="706.32" height="706.32" transform="translate(431.97 -374.87) rotate(45)" style="fill:none;stroke:#fff;stroke-miterlimit:10;stroke-width:0.5px"/><rect x="188.96" y="-145.54" width="959.08" height="959.08" transform="translate(1002.5 -334.5) rotate(90)" style="fill:none;stroke:#fff;stroke-miterlimit:10;stroke-width:0.5px"/><line x1="664.77" y1="35.24" x2="664.77" y2="173.68" style="fill:none;stroke:#fab317;stroke-miterlimit:10;stroke-width:0.5px"/><line x1="595.56" y1="104.46" x2="733.99" y2="104.46" style="fill:none;stroke:#fab317;stroke-miterlimit:10;stroke-width:0.5px"/><line x1="615.83" y1="55.52" x2="713.72" y2="153.41" style="fill:none;stroke:#fab317;stroke-miterlimit:10;stroke-width:0.5px"/><line x1="615.83" y1="153.41" x2="713.72" y2="55.52" style="fill:none;stroke:#fab317;stroke-miterlimit:10;stroke-width:0.5px"/><circle cx="664.77" cy="104.46" r="53.87" style="fill:#1a1a1a"/><polygon points="703.6 84.46 664.77 106.26 625.95 84.46 664.77 60.54 703.6 84.46" style="fill:none;stroke:#fff;stroke-miterlimit:10;stroke-width:0.5px"/><polygon points="700.1 84.46 664.77 104.3 629.45 84.46 664.77 62.69 700.1 84.46" style="fill:none;stroke:#fff;stroke-miterlimit:10;stroke-width:0.5px"/><polyline points="700.1 130.21 664.77 150.05 629.45 130.21" style="fill:none;stroke:#fff;stroke-miterlimit:10;stroke-width:0.5px"/><polyline points="703.6 130.21 664.77 152.01 625.95 130.21" style="fill:none;stroke:#fff;stroke-miterlimit:10;stroke-width:0.5px"/><line x1="626.05" y1="84.46" x2="626.05" y2="130.64" style="fill:none;stroke:#fff;stroke-miterlimit:10;stroke-width:0.5px"/><line x1="629.24" y1="84.57" x2="629.24" y2="130.75" style="fill:none;stroke:#fff;stroke-miterlimit:10;stroke-width:0.5px"/><line x1="700.31" y1="84.46" x2="700.31" y2="130.64" style="fill:none;stroke:#fff;stroke-miterlimit:10;stroke-width:0.5px"/><line x1="703.5" y1="84.57" x2="703.5" y2="130.75" style="fill:none;stroke:#fff;stroke-miterlimit:10;stroke-width:0.5px"/><line x1="664.77" y1="104.25" x2="664.77" y2="151.92" style="fill:none;stroke:#fff;stroke-miterlimit:10;stroke-width:0.5px"/><line x1="664.77" y1="105.06" x2="664.77" y2="108.19" style="fill:none;stroke:#fff;stroke-miterlimit:10;stroke-width:0.5px"/><line x1="664.77" y1="494.32" x2="664.77" y2="632.76" style="fill:none;stroke:#fab317;stroke-miterlimit:10;stroke-width:0.5px"/><line x1="595.56" y1="563.54" x2="733.99" y2="563.54" style="fill:none;stroke:#fab317;stroke-miterlimit:10;stroke-width:0.5px"/><line x1="615.83" y1="514.59" x2="713.72" y2="612.48" style="fill:none;stroke:#fab317;stroke-miterlimit:10;stroke-width:0.5px"/><line x1="615.83" y1="612.48" x2="713.72" y2="514.59" style="fill:none;stroke:#fab317;stroke-miterlimit:10;stroke-width:0.5px"/><circle cx="664.77" cy="563.54" r="53.87" style="fill:#1a1a1a"/><polygon points="703.6 543.54 664.77 565.34 625.95 543.54 664.77 519.61 703.6 543.54" style="fill:none;stroke:#fff;stroke-miterlimit:10;stroke-width:0.5px"/><polygon points="700.1 543.54 664.77 563.37 629.45 543.54 664.77 521.77 700.1 543.54" style="fill:none;stroke:#fff;stroke-miterlimit:10;stroke-width:0.5px"/><polyline points="700.1 589.29 664.77 609.13 629.45 589.29" style="fill:none;stroke:#fff;stroke-miterlimit:10;stroke-width:0.5px"/><polyline points="703.6 589.29 664.77 611.09 625.95 589.29" style="fill:none;stroke:#fff;stroke-miterlimit:10;stroke-width:0.5px"/><line x1="626.05" y1="543.54" x2="626.05" y2="589.72" style="fill:none;stroke:#fff;stroke-miterlimit:10;stroke-width:0.5px"/><line x1="629.24" y1="543.65" x2="629.24" y2="589.82" style="fill:none;stroke:#fff;stroke-miterlimit:10;stroke-width:0.5px"/><line x1="700.31" y1="543.54" x2="700.31" y2="589.72" style="fill:none;stroke:#fff;stroke-miterlimit:10;stroke-width:0.5px"/><line x1="703.5" y1="543.65" x2="703.5" y2="589.82" style="fill:none;stroke:#fff;stroke-miterlimit:10;stroke-width:0.5px"/><line x1="664.77" y1="563.33" x2="664.77" y2="611" style="fill:none;stroke:#fff;stroke-miterlimit:10;stroke-width:0.5px"/><line x1="664.77" y1="564.14" x2="664.77" y2="567.27" style="fill:none;stroke:#fff;stroke-miterlimit:10;stroke-width:0.5px"/><rect x="512.63" y="435.98" width="32.03" height="32.03" transform="translate(1057.3 903.99) rotate(180)" style="fill:#1a1a1a"/><rect x="520.3" y="443.65" width="16.7" height="16.7" transform="translate(1057.3 903.99) rotate(180)" style="fill:#fab317"/><rect x="512.63" y="435.98" width="32.03" height="32.03" transform="translate(1057.3 903.99) rotate(180)" style="fill:none;stroke:#fff;stroke-miterlimit:10;stroke-width:0.5px"/><rect x="391.88" y="556.73" width="32.03" height="32.03" transform="translate(815.8 1145.49) rotate(180)" style="fill:#1a1a1a"/><rect x="399.55" y="564.4" width="16.7" height="16.7" transform="translate(815.8 1145.49) rotate(180)" style="fill:#fab317"/><rect x="391.88" y="556.73" width="32.03" height="32.03" transform="translate(815.8 1145.49) rotate(180)" style="fill:none;stroke:#fff;stroke-miterlimit:10;stroke-width:0.5px"/><rect x="770.55" y="178.07" width="32.03" height="32.03" transform="translate(1573.12 388.17) rotate(180)" style="fill:#1a1a1a"/><rect x="778.21" y="185.74" width="16.7" height="16.7" transform="translate(1573.12 388.17) rotate(180)" style="fill:#fab317"/><rect x="770.55" y="178.07" width="32.03" height="32.03" transform="translate(1573.12 388.17) rotate(180)" style="fill:none;stroke:#fff;stroke-miterlimit:10;stroke-width:0.5px"/><rect x="891.32" y="57.3" width="32.03" height="32.03" transform="translate(1814.66 146.63) rotate(180)" style="fill:#1a1a1a"/><rect x="898.98" y="64.97" width="16.7" height="16.7" transform="translate(1814.66 146.63) rotate(180)" style="fill:#fab317"/><rect x="891.32" y="57.3" width="32.03" height="32.03" transform="translate(1814.66 146.63) rotate(180)" style="fill:none;stroke:#fff;stroke-miterlimit:10;stroke-width:0.5px"/><rect x="523.68" y="189.11" width="32.03" height="32.03" transform="translate(334.57 744.83) rotate(-90)" style="fill:#1a1a1a"/><rect x="531.35" y="196.78" width="16.7" height="16.7" transform="translate(334.57 744.83) rotate(-90)" style="fill:#fab317"/><rect x="523.68" y="189.11" width="32.03" height="32.03" transform="translate(334.57 744.83) rotate(-90)" style="fill:none;stroke:#fff;stroke-miterlimit:10;stroke-width:0.5px"/><rect x="402.89" y="68.32" width="32.03" height="32.03" transform="translate(334.57 503.24) rotate(-90)" style="fill:#1a1a1a"/><rect x="410.56" y="75.99" width="16.7" height="16.7" transform="translate(334.57 503.24) rotate(-90)" style="fill:#fab317"/><rect x="402.89" y="68.32" width="32.03" height="32.03" transform="translate(334.57 503.24) rotate(-90)" style="fill:none;stroke:#fff;stroke-miterlimit:10;stroke-width:0.5px"/><rect x="781.59" y="447.03" width="32.03" height="32.03" transform="translate(334.57 1260.65) rotate(-90)" style="fill:#1a1a1a"/><rect x="789.26" y="454.7" width="16.7" height="16.7" transform="translate(334.57 1260.65) rotate(-90)" style="fill:#fab317"/><rect x="781.59" y="447.03" width="32.03" height="32.03" transform="translate(334.57 1260.65) rotate(-90)" style="fill:none;stroke:#fff;stroke-miterlimit:10;stroke-width:0.5px"/><rect x="902.18" y="567.61" width="32.03" height="32.03" transform="translate(334.57 1501.83) rotate(-90)" style="fill:#1a1a1a"/><rect x="909.85" y="575.28" width="16.7" height="16.7" transform="translate(334.57 1501.83) rotate(-90)" style="fill:#fab317"/><rect x="902.18" y="567.61" width="32.03" height="32.03" transform="translate(334.57 1501.83) rotate(-90)" style="fill:none;stroke:#fff;stroke-miterlimit:10;stroke-width:0.5px"/><rect x="173.02" y="194.96" width="32.03" height="32.03" transform="translate(173.52 493.83) rotate(-135)" style="fill:#1a1a1a"/><rect x="180.69" y="202.63" width="16.7" height="16.7" transform="translate(173.52 493.83) rotate(-135)" style="fill:#fab317"/><rect x="173.02" y="194.96" width="32.03" height="32.03" transform="translate(173.52 493.83) rotate(-135)" style="fill:none;stroke:#fff;stroke-miterlimit:10"/><rect x="173.02" y="430.49" width="32.03" height="32.03" transform="translate(6.97 895.9) rotate(-135)" style="fill:#1a1a1a"/><rect x="180.69" y="438.16" width="16.7" height="16.7" transform="translate(6.97 895.9) rotate(-135)" style="fill:#fab317"/><rect x="173.02" y="430.49" width="32.03" height="32.03" transform="translate(6.97 895.9) rotate(-135)" style="fill:none;stroke:#fff;stroke-miterlimit:10"/><rect x="1131.93" y="194.96" width="32.03" height="32.03" transform="translate(1810.49 1171.89) rotate(-135)" style="fill:#1a1a1a"/><rect x="1139.6" y="202.63" width="16.7" height="16.7" transform="translate(1810.49 1171.89) rotate(-135)" style="fill:#fab317"/><rect x="1131.93" y="194.96" width="32.03" height="32.03" transform="translate(1810.49 1171.89) rotate(-135)" style="fill:none;stroke:#fff;stroke-miterlimit:10"/><rect x="1131.93" y="430.49" width="32.03" height="32.03" transform="translate(1643.95 1573.96) rotate(-135)" style="fill:#1a1a1a"/><rect x="1139.6" y="438.16" width="16.7" height="16.7" transform="translate(1643.95 1573.96) rotate(-135)" style="fill:#fab317"/><rect x="1131.93" y="430.49" width="32.03" height="32.03" transform="translate(1643.95 1573.96) rotate(-135)" style="fill:none;stroke:#fff;stroke-miterlimit:10"/><rect x="293.92" y="306.98" width="32.03" height="32.03" transform="translate(300.69 770.55) rotate(-135)" style="fill:#1a1a1a"/><rect x="301.59" y="314.65" width="16.7" height="16.7" transform="translate(300.69 770.55) rotate(-135)" style="fill:#fab317"/><rect x="293.92" y="306.98" width="32.03" height="32.03" transform="translate(300.69 770.55) rotate(-135)" style="fill:none;stroke:#fff;stroke-miterlimit:10;stroke-width:0.5px"/><rect x="1250.61" y="306.98" width="32.03" height="32.03" transform="translate(1933.88 1447.04) rotate(-135)" style="fill:#1a1a1a"/><rect x="1258.28" y="314.65" width="16.7" height="16.7" transform="translate(1933.88 1447.04) rotate(-135)" style="fill:#fab317"/><rect x="1250.61" y="306.98" width="32.03" height="32.03" transform="translate(1933.88 1447.04) rotate(-135)" style="fill:none;stroke:#fff;stroke-miterlimit:10;stroke-width:0.5px"/><rect x="44.3" y="306.98" width="32.03" height="32.03" transform="translate(-125.42 594.05) rotate(-135)" style="fill:#1a1a1a"/><rect x="51.97" y="314.65" width="16.7" height="16.7" transform="translate(-125.42 594.05) rotate(-135)" style="fill:#fab317"/><rect x="44.3" y="306.98" width="32.03" height="32.03" transform="translate(-125.42 594.05) rotate(-135)" style="fill:none;stroke:#fff;stroke-miterlimit:10;stroke-width:0.5px"/><rect x="1011.22" y="306.98" width="32.03" height="32.03" transform="translate(1525.2 1277.76) rotate(-135)" style="fill:#1a1a1a"/><rect x="1018.89" y="314.65" width="16.7" height="16.7" transform="translate(1525.2 1277.76) rotate(-135)" style="fill:#fab317"/><rect x="1011.22" y="306.98" width="32.03" height="32.03" transform="translate(1525.2 1277.76) rotate(-135)" style="fill:none;stroke:#fff;stroke-miterlimit:10;stroke-width:0.5px"/><rect x="176.35" y="244.64" width="24.98" height="161.56" style="fill:#1a1a1a"/><rect x="176.35" y="244.64" width="24.98" height="161.56" transform="translate(552.49 422) rotate(135)" style="fill:#1a1a1a"/><rect x="176.35" y="244.64" width="24.98" height="161.56" transform="translate(92.27 689.07) rotate(-135)" style="fill:#1a1a1a"/><rect x="176.35" y="244.64" width="24.98" height="161.56" transform="translate(514.27 136.58) rotate(90)" style="fill:#1a1a1a"/><line x1="188.94" y1="252.73" x2="188.94" y2="391.17" style="fill:none;stroke:#fab317;stroke-miterlimit:10;stroke-width:0.5px"/><line x1="119.72" y1="321.95" x2="258.16" y2="321.95" style="fill:none;stroke:#fab317;stroke-miterlimit:10;stroke-width:0.5px"/><line x1="140" y1="273" x2="237.89" y2="370.89" style="fill:none;stroke:#fab317;stroke-miterlimit:10;stroke-width:0.5px"/><line x1="140" y1="370.89" x2="237.89" y2="273" style="fill:none;stroke:#fab317;stroke-miterlimit:10;stroke-width:0.5px"/><circle cx="188.94" cy="321.95" r="53.87" style="fill:#1a1a1a"/><polygon points="227.76 301.95 188.94 323.75 150.12 301.95 188.94 278.02 227.76 301.95" style="fill:none;stroke:#fff;stroke-miterlimit:10;stroke-width:0.5px"/><polygon points="224.27 301.95 188.94 321.79 153.62 301.95 188.94 280.18 224.27 301.95" style="fill:none;stroke:#fff;stroke-miterlimit:10;stroke-width:0.5px"/><polyline points="224.27 347.7 188.94 367.54 153.62 347.7" style="fill:none;stroke:#fff;stroke-miterlimit:10;stroke-width:0.5px"/><polyline points="227.76 347.7 188.94 369.5 150.12 347.7" style="fill:none;stroke:#fff;stroke-miterlimit:10;stroke-width:0.5px"/><line x1="150.21" y1="301.95" x2="150.21" y2="348.13" style="fill:none;stroke:#fff;stroke-miterlimit:10;stroke-width:0.5px"/><line x1="153.4" y1="302.06" x2="153.4" y2="348.23" style="fill:none;stroke:#fff;stroke-miterlimit:10;stroke-width:0.5px"/><line x1="224.48" y1="301.95" x2="224.48" y2="348.13" style="fill:none;stroke:#fff;stroke-miterlimit:10;stroke-width:0.5px"/><line x1="227.67" y1="302.06" x2="227.67" y2="348.23" style="fill:none;stroke:#fff;stroke-miterlimit:10;stroke-width:0.5px"/><line x1="188.94" y1="321.74" x2="188.94" y2="369.41" style="fill:none;stroke:#fff;stroke-miterlimit:10;stroke-width:0.5px"/><line x1="188.94" y1="322.55" x2="188.94" y2="325.68" style="fill:none;stroke:#fff;stroke-miterlimit:10;stroke-width:0.5px"/><rect x="1135.72" y="244.64" width="24.98" height="161.56" style="fill:#1a1a1a"/><rect x="1135.72" y="244.64" width="24.98" height="161.56" transform="translate(2190.22 -256.38) rotate(135)" style="fill:#1a1a1a"/><rect x="1135.72" y="244.64" width="24.98" height="161.56" transform="translate(1730.01 1367.44) rotate(-135)" style="fill:#1a1a1a"/><rect x="1135.72" y="244.64" width="24.98" height="161.56" transform="translate(1473.63 -822.79) rotate(90)" style="fill:#1a1a1a"/><line x1="1148.3" y1="252.73" x2="1148.3" y2="391.17" style="fill:none;stroke:#fab317;stroke-miterlimit:10;stroke-width:0.5px"/><line x1="1079.08" y1="321.95" x2="1217.52" y2="321.95" style="fill:none;stroke:#fab317;stroke-miterlimit:10;stroke-width:0.5px"/><line x1="1099.36" y1="273" x2="1197.25" y2="370.89" style="fill:none;stroke:#fab317;stroke-miterlimit:10;stroke-width:0.5px"/><line x1="1099.36" y1="370.89" x2="1197.25" y2="273" style="fill:none;stroke:#fab317;stroke-miterlimit:10;stroke-width:0.5px"/><circle cx="1148.3" cy="321.95" r="53.87" style="fill:#1a1a1a"/><polygon points="1187.13 301.95 1148.3 323.75 1109.48 301.95 1148.3 278.02 1187.13 301.95" style="fill:none;stroke:#fff;stroke-miterlimit:10;stroke-width:0.5px"/><polygon points="1183.63 301.95 1148.3 321.79 1112.98 301.95 1148.3 280.18 1183.63 301.95" style="fill:none;stroke:#fff;stroke-miterlimit:10;stroke-width:0.5px"/><polyline points="1183.63 347.7 1148.3 367.54 1112.98 347.7" style="fill:none;stroke:#fff;stroke-miterlimit:10;stroke-width:0.5px"/><polyline points="1187.13 347.7 1148.3 369.5 1109.48 347.7" style="fill:none;stroke:#fff;stroke-miterlimit:10;stroke-width:0.5px"/><line x1="1109.57" y1="301.95" x2="1109.57" y2="348.13" style="fill:none;stroke:#fff;stroke-miterlimit:10;stroke-width:0.5px"/><line x1="1112.77" y1="302.06" x2="1112.77" y2="348.23" style="fill:none;stroke:#fff;stroke-miterlimit:10;stroke-width:0.5px"/><line x1="1183.84" y1="301.95" x2="1183.84" y2="348.13" style="fill:none;stroke:#fff;stroke-miterlimit:10;stroke-width:0.5px"/><line x1="1187.03" y1="302.06" x2="1187.03" y2="348.23" style="fill:none;stroke:#fff;stroke-miterlimit:10;stroke-width:0.5px"/><line x1="1148.3" y1="321.74" x2="1148.3" y2="369.41" style="fill:none;stroke:#fff;stroke-miterlimit:10;stroke-width:0.5px"/><line x1="1148.3" y1="322.55" x2="1148.3" y2="325.68" style="fill:none;stroke:#fff;stroke-miterlimit:10;stroke-width:0.5px"/><rect x="892.21" y="244.64" width="24.98" height="161.56" style="fill:#1a1a1a"/><rect x="892.21" y="244.64" width="24.98" height="161.56" transform="translate(1774.53 -84.19) rotate(135)" style="fill:#1a1a1a"/><rect x="892.21" y="244.64" width="24.98" height="161.56" transform="translate(1314.32 1195.25) rotate(-135)" style="fill:#1a1a1a"/><rect x="892.21" y="244.64" width="24.98" height="161.56" transform="translate(1230.13 -579.28) rotate(90)" style="fill:#1a1a1a"/><line x1="904.8" y1="252.73" x2="904.8" y2="391.17" style="fill:none;stroke:#fab317;stroke-miterlimit:10;stroke-width:0.5px"/><line x1="835.58" y1="321.95" x2="974.02" y2="321.95" style="fill:none;stroke:#fab317;stroke-miterlimit:10;stroke-width:0.5px"/><line x1="855.85" y1="273" x2="953.74" y2="370.89" style="fill:none;stroke:#fab317;stroke-miterlimit:10;stroke-width:0.5px"/><line x1="855.85" y1="370.89" x2="953.74" y2="273" style="fill:none;stroke:#fab317;stroke-miterlimit:10;stroke-width:0.5px"/><circle cx="904.8" cy="321.95" r="53.87" style="fill:#1a1a1a"/><polygon points="943.62 301.95 904.8 323.75 865.98 301.95 904.8 278.02 943.62 301.95" style="fill:none;stroke:#fff;stroke-miterlimit:10;stroke-width:0.5px"/><polygon points="940.12 301.95 904.8 321.79 869.47 301.95 904.8 280.18 940.12 301.95" style="fill:none;stroke:#fff;stroke-miterlimit:10;stroke-width:0.5px"/><polyline points="940.12 347.7 904.8 367.54 869.47 347.7" style="fill:none;stroke:#fff;stroke-miterlimit:10;stroke-width:0.5px"/><polyline points="943.62 347.7 904.8 369.5 865.98 347.7" style="fill:none;stroke:#fff;stroke-miterlimit:10;stroke-width:0.5px"/><line x1="866.07" y1="301.95" x2="866.07" y2="348.13" style="fill:none;stroke:#fff;stroke-miterlimit:10;stroke-width:0.5px"/><line x1="869.26" y1="302.06" x2="869.26" y2="348.23" style="fill:none;stroke:#fff;stroke-miterlimit:10;stroke-width:0.5px"/><line x1="940.34" y1="301.95" x2="940.34" y2="348.13" style="fill:none;stroke:#fff;stroke-miterlimit:10;stroke-width:0.5px"/><line x1="943.53" y1="302.06" x2="943.53" y2="348.23" style="fill:none;stroke:#fff;stroke-miterlimit:10;stroke-width:0.5px"/><line x1="904.8" y1="321.74" x2="904.8" y2="369.41" style="fill:none;stroke:#fff;stroke-miterlimit:10;stroke-width:0.5px"/><line x1="904.8" y1="322.55" x2="904.8" y2="325.68" style="fill:none;stroke:#fff;stroke-miterlimit:10;stroke-width:0.5px"/><rect x="418.53" y="244.64" width="24.98" height="161.56" style="fill:#1a1a1a"/><rect x="418.53" y="244.64" width="24.98" height="161.56" transform="translate(965.9 250.75) rotate(135)" style="fill:#1a1a1a"/><rect x="418.53" y="244.64" width="24.98" height="161.56" transform="translate(505.69 860.31) rotate(-135)" style="fill:#1a1a1a"/><rect x="418.53" y="244.64" width="24.98" height="161.56" transform="translate(756.44 -105.6) rotate(90)" style="fill:#1a1a1a"/><line x1="431.11" y1="252.73" x2="431.11" y2="391.17" style="fill:none;stroke:#fab317;stroke-miterlimit:10;stroke-width:0.5px"/><line x1="361.89" y1="321.95" x2="500.33" y2="321.95" style="fill:none;stroke:#fab317;stroke-miterlimit:10;stroke-width:0.5px"/><line x1="382.17" y1="273" x2="480.06" y2="370.89" style="fill:none;stroke:#fab317;stroke-miterlimit:10;stroke-width:0.5px"/><line x1="382.17" y1="370.89" x2="480.06" y2="273" style="fill:none;stroke:#fab317;stroke-miterlimit:10;stroke-width:0.5px"/><circle cx="431.11" cy="321.95" r="53.87" style="fill:#1a1a1a"/><polygon points="469.94 301.95 431.11 323.75 392.29 301.95 431.11 278.02 469.94 301.95" style="fill:none;stroke:#fff;stroke-miterlimit:10;stroke-width:0.5px"/><polygon points="466.44 301.95 431.11 321.79 395.79 301.95 431.11 280.18 466.44 301.95" style="fill:none;stroke:#fff;stroke-miterlimit:10;stroke-width:0.5px"/><polyline points="466.44 347.7 431.11 367.54 395.79 347.7" style="fill:none;stroke:#fff;stroke-miterlimit:10;stroke-width:0.5px"/><polyline points="469.94 347.7 431.11 369.5 392.29 347.7" style="fill:none;stroke:#fff;stroke-miterlimit:10;stroke-width:0.5px"/><line x1="392.38" y1="301.95" x2="392.38" y2="348.13" style="fill:none;stroke:#fff;stroke-miterlimit:10;stroke-width:0.5px"/><line x1="395.58" y1="302.06" x2="395.58" y2="348.23" style="fill:none;stroke:#fff;stroke-miterlimit:10;stroke-width:0.5px"/><line x1="466.65" y1="301.95" x2="466.65" y2="348.13" style="fill:none;stroke:#fff;stroke-miterlimit:10;stroke-width:0.5px"/><line x1="469.84" y1="302.06" x2="469.84" y2="348.23" style="fill:none;stroke:#fff;stroke-miterlimit:10;stroke-width:0.5px"/><line x1="431.11" y1="321.74" x2="431.11" y2="369.41" style="fill:none;stroke:#fff;stroke-miterlimit:10;stroke-width:0.5px"/><line x1="431.11" y1="322.55" x2="431.11" y2="325.68" style="fill:none;stroke:#fff;stroke-miterlimit:10;stroke-width:0.5px"/><rect x="176.23" y="18.04" width="24.98" height="161.56" style="fill:#1a1a1a"/><line x1="188.82" y1="26.13" x2="188.82" y2="164.57" style="fill:none;stroke:#fab317;stroke-miterlimit:10;stroke-width:0.5px"/><line x1="119.6" y1="95.35" x2="258.04" y2="95.35" style="fill:none;stroke:#fab317;stroke-miterlimit:10;stroke-width:0.5px"/><line x1="139.87" y1="46.41" x2="237.76" y2="144.3" style="fill:none;stroke:#fab317;stroke-miterlimit:10;stroke-width:0.5px"/><line x1="139.87" y1="144.3" x2="237.76" y2="46.41" style="fill:none;stroke:#fab317;stroke-miterlimit:10;stroke-width:0.5px"/><circle cx="188.82" cy="95.35" r="53.87" style="fill:#1a1a1a"/><polygon points="227.64 75.35 188.82 97.15 150 75.35 188.82 51.42 227.64 75.35" style="fill:none;stroke:#fff;stroke-miterlimit:10;stroke-width:0.5px"/><polygon points="224.14 75.35 188.82 95.19 153.49 75.35 188.82 53.58 224.14 75.35" style="fill:none;stroke:#fff;stroke-miterlimit:10;stroke-width:0.5px"/><polyline points="224.14 121.1 188.82 140.94 153.49 121.1" style="fill:none;stroke:#fff;stroke-miterlimit:10;stroke-width:0.5px"/><polyline points="227.64 121.1 188.82 142.9 150 121.1" style="fill:none;stroke:#fff;stroke-miterlimit:10;stroke-width:0.5px"/><line x1="150.09" y1="75.35" x2="150.09" y2="121.53" style="fill:none;stroke:#fff;stroke-miterlimit:10;stroke-width:0.5px"/><line x1="153.28" y1="75.46" x2="153.28" y2="121.63" style="fill:none;stroke:#fff;stroke-miterlimit:10;stroke-width:0.5px"/><line x1="224.36" y1="75.35" x2="224.36" y2="121.53" style="fill:none;stroke:#fff;stroke-miterlimit:10;stroke-width:0.5px"/><line x1="227.55" y1="75.46" x2="227.55" y2="121.63" style="fill:none;stroke:#fff;stroke-miterlimit:10;stroke-width:0.5px"/><line x1="188.82" y1="95.14" x2="188.82" y2="142.81" style="fill:none;stroke:#fff;stroke-miterlimit:10;stroke-width:0.5px"/><line x1="188.82" y1="95.95" x2="188.82" y2="99.08" style="fill:none;stroke:#fff;stroke-miterlimit:10;stroke-width:0.5px"/><rect x="1135.59" y="18.04" width="24.98" height="161.56" style="fill:#1a1a1a"/><line x1="1148.18" y1="26.13" x2="1148.18" y2="164.57" style="fill:none;stroke:#fab317;stroke-miterlimit:10;stroke-width:0.5px"/><line x1="1078.96" y1="95.35" x2="1217.4" y2="95.35" style="fill:none;stroke:#fab317;stroke-miterlimit:10;stroke-width:0.5px"/><line x1="1099.24" y1="46.41" x2="1197.13" y2="144.3" style="fill:none;stroke:#fab317;stroke-miterlimit:10;stroke-width:0.5px"/><line x1="1099.24" y1="144.3" x2="1197.13" y2="46.41" style="fill:none;stroke:#fab317;stroke-miterlimit:10;stroke-width:0.5px"/><circle cx="1148.18" cy="95.35" r="53.87" style="fill:#1a1a1a"/><polygon points="1187 75.35 1148.18 97.15 1109.36 75.35 1148.18 51.42 1187 75.35" style="fill:none;stroke:#fff;stroke-miterlimit:10;stroke-width:0.5px"/><polygon points="1183.51 75.35 1148.18 95.19 1112.86 75.35 1148.18 53.58 1183.51 75.35" style="fill:none;stroke:#fff;stroke-miterlimit:10;stroke-width:0.5px"/><polyline points="1183.51 121.1 1148.18 140.94 1112.86 121.1" style="fill:none;stroke:#fff;stroke-miterlimit:10;stroke-width:0.5px"/><polyline points="1187 121.1 1148.18 142.9 1109.36 121.1" style="fill:none;stroke:#fff;stroke-miterlimit:10;stroke-width:0.5px"/><line x1="1109.45" y1="75.35" x2="1109.45" y2="121.53" style="fill:none;stroke:#fff;stroke-miterlimit:10;stroke-width:0.5px"/><line x1="1112.64" y1="75.46" x2="1112.64" y2="121.63" style="fill:none;stroke:#fff;stroke-miterlimit:10;stroke-width:0.5px"/><line x1="1183.72" y1="75.35" x2="1183.72" y2="121.53" style="fill:none;stroke:#fff;stroke-miterlimit:10;stroke-width:0.5px"/><line x1="1186.91" y1="75.46" x2="1186.91" y2="121.63" style="fill:none;stroke:#fff;stroke-miterlimit:10;stroke-width:0.5px"/><line x1="1148.18" y1="95.14" x2="1148.18" y2="142.81" style="fill:none;stroke:#fff;stroke-miterlimit:10;stroke-width:0.5px"/><line x1="1148.18" y1="95.95" x2="1148.18" y2="99.08" style="fill:none;stroke:#fff;stroke-miterlimit:10;stroke-width:0.5px"/><rect x="176.23" y="488.4" width="24.98" height="161.56" style="fill:#1a1a1a"/><line x1="188.82" y1="496.49" x2="188.82" y2="634.92" style="fill:none;stroke:#fab317;stroke-miterlimit:10;stroke-width:0.5px"/><line x1="119.6" y1="565.7" x2="258.04" y2="565.7" style="fill:none;stroke:#fab317;stroke-miterlimit:10;stroke-width:0.5px"/><line x1="139.87" y1="516.76" x2="237.76" y2="614.65" style="fill:none;stroke:#fab317;stroke-miterlimit:10;stroke-width:0.5px"/><line x1="139.87" y1="614.65" x2="237.76" y2="516.76" style="fill:none;stroke:#fab317;stroke-miterlimit:10;stroke-width:0.5px"/><circle cx="188.82" cy="565.7" r="53.87" style="fill:#1a1a1a"/><polygon points="227.64 545.71 188.82 567.5 150 545.71 188.82 521.78 227.64 545.71" style="fill:none;stroke:#fff;stroke-miterlimit:10;stroke-width:0.5px"/><polygon points="224.14 545.71 188.82 565.54 153.49 545.71 188.82 523.93 224.14 545.71" style="fill:none;stroke:#fff;stroke-miterlimit:10;stroke-width:0.5px"/><polyline points="224.14 591.46 188.82 611.29 153.49 591.46" style="fill:none;stroke:#fff;stroke-miterlimit:10;stroke-width:0.5px"/><polyline points="227.64 591.46 188.82 613.25 150 591.46" style="fill:none;stroke:#fff;stroke-miterlimit:10;stroke-width:0.5px"/><line x1="150.09" y1="545.7" x2="150.09" y2="591.88" style="fill:none;stroke:#fff;stroke-miterlimit:10;stroke-width:0.5px"/><line x1="153.28" y1="545.81" x2="153.28" y2="591.99" style="fill:none;stroke:#fff;stroke-miterlimit:10;stroke-width:0.5px"/><line x1="224.36" y1="545.7" x2="224.36" y2="591.88" style="fill:none;stroke:#fff;stroke-miterlimit:10;stroke-width:0.5px"/><line x1="227.55" y1="545.81" x2="227.55" y2="591.99" style="fill:none;stroke:#fff;stroke-miterlimit:10;stroke-width:0.5px"/><line x1="188.82" y1="565.5" x2="188.82" y2="613.16" style="fill:none;stroke:#fff;stroke-miterlimit:10;stroke-width:0.5px"/><line x1="188.82" y1="566.31" x2="188.82" y2="569.43" style="fill:none;stroke:#fff;stroke-miterlimit:10;stroke-width:0.5px"/><rect x="1135.59" y="488.4" width="24.98" height="161.56" style="fill:#1a1a1a"/><line x1="1148.18" y1="496.49" x2="1148.18" y2="634.92" style="fill:none;stroke:#fab317;stroke-miterlimit:10;stroke-width:0.5px"/><line x1="1078.96" y1="565.7" x2="1217.4" y2="565.7" style="fill:none;stroke:#fab317;stroke-miterlimit:10;stroke-width:0.5px"/><line x1="1099.24" y1="516.76" x2="1197.13" y2="614.65" style="fill:none;stroke:#fab317;stroke-miterlimit:10;stroke-width:0.5px"/><line x1="1099.24" y1="614.65" x2="1197.13" y2="516.76" style="fill:none;stroke:#fab317;stroke-miterlimit:10;stroke-width:0.5px"/><circle cx="1148.18" cy="565.7" r="53.87" style="fill:#1a1a1a"/><polygon points="1187 545.71 1148.18 567.5 1109.36 545.71 1148.18 521.78 1187 545.71" style="fill:none;stroke:#fff;stroke-miterlimit:10;stroke-width:0.5px"/><polygon points="1183.51 545.71 1148.18 565.54 1112.86 545.71 1148.18 523.93 1183.51 545.71" style="fill:none;stroke:#fff;stroke-miterlimit:10;stroke-width:0.5px"/><polyline points="1183.51 591.46 1148.18 611.29 1112.86 591.46" style="fill:none;stroke:#fff;stroke-miterlimit:10;stroke-width:0.5px"/><polyline points="1187 591.46 1148.18 613.25 1109.36 591.46" style="fill:none;stroke:#fff;stroke-miterlimit:10;stroke-width:0.5px"/><line x1="1109.45" y1="545.7" x2="1109.45" y2="591.88" style="fill:none;stroke:#fff;stroke-miterlimit:10;stroke-width:0.5px"/><line x1="1112.64" y1="545.81" x2="1112.64" y2="591.99" style="fill:none;stroke:#fff;stroke-miterlimit:10;stroke-width:0.5px"/><line x1="1183.72" y1="545.7" x2="1183.72" y2="591.88" style="fill:none;stroke:#fff;stroke-miterlimit:10;stroke-width:0.5px"/><line x1="1186.91" y1="545.81" x2="1186.91" y2="591.99" style="fill:none;stroke:#fff;stroke-miterlimit:10;stroke-width:0.5px"/><line x1="1148.18" y1="565.5" x2="1148.18" y2="613.16" style="fill:none;stroke:#fff;stroke-miterlimit:10;stroke-width:0.5px"/><line x1="1148.18" y1="566.31" x2="1148.18" y2="569.43" style="fill:none;stroke:#fff;stroke-miterlimit:10;stroke-width:0.5px"/><rect x="506.8" y="297.61" width="320.45" height="52.63" style="fill:#1a1a1a"/></g></svg>