<svg id="abc79438-d5d4-4c2f-93f1-5dd33d963a1e" data-name="Layer 1" xmlns="http://www.w3.org/2000/svg" viewBox="0 0 30 30"><path d="M28.3,17.28a29.09,29.09,0,0,0-2-7.66,6.19,6.19,0,0,0-3.65-3.56,10,10,0,0,0-4.06-.82c0,.7,0,.7.62.83a5.87,5.87,0,0,1,3.18,1.5A18.55,18.55,0,0,0,7.51,7.44a24.13,24.13,0,0,1,3.3-1.36c.45-.15.83-.24.48-.9-.55.07-1.13.12-1.69.21-3.17.54-5.44,2.17-6.38,5.37a1.33,1.33,0,0,1-.1.28,35.07,35.07,0,0,0-1.71,9.79,1.49,1.49,0,0,0,.3.94,8.64,8.64,0,0,0,5.25,3,2.58,2.58,0,0,0,1.72-.12,8.3,8.3,0,0,0,1.44-1.94l-3-1.59a19.38,19.38,0,0,0,15.7,0l-3,1.56c.35.52.73,1,1,1.55a1.18,1.18,0,0,0,1.25.6,8.63,8.63,0,0,0,6-2.9,1.6,1.6,0,0,0,.41-1C28.55,19.67,28.45,18.47,28.3,17.28ZM10.8,18.63a2.35,2.35,0,0,1,0-4.7A2.32,2.32,0,0,1,13,16.3,2.35,2.35,0,0,1,10.8,18.63Zm8.45,0a2.35,2.35,0,0,1-.05-4.7,2.31,2.31,0,0,1,2.23,2.36A2.34,2.34,0,0,1,19.25,18.63Z" style="fill:#fff"/></svg>