<?xml version="1.0" encoding="utf-8"?>
<!-- Generator: Adobe Illustrator 25.2.3, SVG Export Plug-In . SVG Version: 6.00 Build 0)  -->
<svg version="1.1" id="Layer_1" xmlns="http://www.w3.org/2000/svg" xmlns:xlink="http://www.w3.org/1999/xlink" x="0px" y="0px"
	 viewBox="0 0 1012.9 768" style="enable-background:new 0 0 1012.9 768;" xml:space="preserve">
<style type="text/css">
	.st0{fill:none;stroke:#FDB515;stroke-miterlimit:10;}
	.st1{fill:#1A1A1A;}
	.st2{fill:none;stroke:#FFFFFF;stroke-miterlimit:10;}
	.st3{fill:#FDB515;}
	.st4{fill:#010101;}
	.st5{fill:#FFFFFF;stroke:#FFFFFF;stroke-miterlimit:10;}
	.st6{fill:none;stroke:#925122;stroke-width:2;stroke-miterlimit:10;}
	.st7{fill:#925122;}
	.st8{fill:#231F20;}
	.st9{fill:none;stroke:#FFFFFF;stroke-width:8;stroke-miterlimit:10;}
	.st10{fill:none;stroke:#333333;stroke-width:8;stroke-miterlimit:10;}
	.st11{fill:#FFFFFF;}
	.st12{fill:#010101;stroke:#FFFFFF;stroke-miterlimit:10;}
	.st13{fill:#FDB515;stroke:#FFFFFF;stroke-miterlimit:10;}
	.st14{fill:#1A1A1A;stroke:#FFFFFF;stroke-miterlimit:10;}
	.st15{fill:#010101;stroke:#FDB515;stroke-miterlimit:10;}
	.st16{fill:#FFFFFF;stroke:#FDB515;stroke-miterlimit:10;}
	.st17{fill:#333333;stroke:#FFFFFF;stroke-miterlimit:10;}
	.st18{fill:#795221;}
	.st19{fill:#AE792B;}
	.st20{fill:#AE792B;stroke:#FFFFFF;stroke-miterlimit:10;}
	.st21{fill:#925122;stroke:#FFFFFF;stroke-miterlimit:10;}
</style>
<g>
	<g>
		<circle class="st3" cx="60.8" cy="291.7" r="5.2"/>
		<circle class="st4" cx="60.9" cy="291.8" r="2.6"/>
		<circle class="st3" cx="117.6" cy="348.5" r="2.5"/>
		<circle class="st3" cx="149.9" cy="349.2" r="2.5"/>
		<circle class="st3" cx="2.5" cy="201.7" r="2.5"/>
		<circle class="st3" cx="4.2" cy="235.1" r="2.5"/>
		<circle class="st3" cx="150.1" cy="316" r="2.5"/>
		<circle class="st3" cx="36.7" cy="202.6" r="2.5"/>
		<polyline class="st0" points="57.1,295.4 4.2,235.1 64.5,288 		"/>
		<polyline class="st0" points="56.9,295.2 117.2,348.1 64.3,287.8 		"/>
		<circle class="st3" cx="93.3" cy="259.2" r="5.2"/>
		<polyline class="st0" points="89.6,262.8 36.7,202.6 97,255.5 		"/>
		<polyline class="st0" points="89.4,262.6 149.7,315.5 96.8,255.3 		"/>
		<circle class="st3" cx="76.9" cy="275.7" r="6.7"/>
		<polyline class="st0" points="72.1,280.4 4,202.8 81.6,270.9 		"/>
		<polyline class="st0" points="71.8,280.1 149.5,348.3 81.3,270.6 		"/>
		<polyline class="st0" points="64.5,295.4 72.1,270.9 97,262.8 89.6,255.5 81.6,280.4 57.1,288 		"/>
		<circle class="st4" cx="77.1" cy="275.7" r="2.6"/>
		<circle class="st4" cx="93.8" cy="259" r="2.6"/>
	</g>
</g>
<g>
	<g>
		<circle class="st3" cx="951.8" cy="291.7" r="5.2"/>
		<circle class="st4" cx="951.7" cy="291.8" r="2.6"/>
		<circle class="st3" cx="895" cy="348.5" r="2.5"/>
		<circle class="st3" cx="862.7" cy="349.2" r="2.5"/>
		<circle class="st3" cx="1010.1" cy="201.7" r="2.5"/>
		<circle class="st3" cx="1008.4" cy="235.1" r="2.5"/>
		<circle class="st3" cx="862.5" cy="316" r="2.5"/>
		<circle class="st3" cx="975.9" cy="202.6" r="2.5"/>
		<polyline class="st0" points="955.5,295.4 1008.4,235.1 948.1,288 		"/>
		<polyline class="st0" points="955.7,295.2 895.4,348.1 948.3,287.8 		"/>
		<circle class="st3" cx="919.3" cy="259.2" r="5.2"/>
		<polyline class="st0" points="923,262.8 975.9,202.6 915.6,255.5 		"/>
		<polyline class="st0" points="923.2,262.6 862.9,315.5 915.8,255.3 		"/>
		<circle class="st3" cx="935.7" cy="275.7" r="6.7"/>
		<polyline class="st0" points="940.5,280.4 1008.6,202.8 931,270.9 		"/>
		<polyline class="st0" points="940.8,280.1 863.1,348.3 931.3,270.6 		"/>
		<polyline class="st0" points="948.1,295.4 940.5,270.9 915.6,262.8 923,255.5 931,280.4 955.5,288 		"/>
		<circle class="st4" cx="935.5" cy="275.7" r="2.6"/>
		<circle class="st4" cx="918.8" cy="259" r="2.6"/>
	</g>
</g>
<g>
	<circle class="st0" cx="284.4" cy="589.3" r="9.1"/>
	<g>
		<path class="st0" d="M289,561.6c-5,0-9.1-4.1-9.1-9.1c0-5,4.1-9.1,9.1-9.1"/>
	</g>
	<g>
		<path class="st0" d="M293.5,512.7c0,5-4.1,9.1-9.1,9.1c-5,0-9.1-4.1-9.1-9.1"/>
	</g>
	<g>
		<line class="st0" x1="246.1" y1="543" x2="246.1" y2="562"/>
		<line class="st0" x1="236.7" y1="552.5" x2="255.6" y2="552.5"/>
	</g>
	<g>
		<line class="st0" x1="313" y1="545.8" x2="326.4" y2="559.2"/>
		<line class="st0" x1="313" y1="559.2" x2="326.4" y2="545.8"/>
	</g>
</g>
<g>
	<circle class="st0" cx="735.3" cy="589.3" r="9.1"/>
	<g>
		<path class="st0" d="M739.9,561.6c-5,0-9.1-4.1-9.1-9.1c0-5,4.1-9.1,9.1-9.1"/>
	</g>
	<g>
		<path class="st0" d="M744.4,512.7c0,5-4.1,9.1-9.1,9.1s-9.1-4.1-9.1-9.1"/>
	</g>
	<g>
		<line class="st0" x1="697" y1="543" x2="697" y2="562"/>
		<line class="st0" x1="687.6" y1="552.5" x2="706.5" y2="552.5"/>
	</g>
	<g>
		<line class="st0" x1="763.9" y1="545.8" x2="777.3" y2="559.2"/>
		<line class="st0" x1="763.9" y1="559.2" x2="777.3" y2="545.8"/>
	</g>
</g>
<g>
	<g>
		<polygon class="st2" points="235.3,215.5 195.5,237.8 155.8,215.5 195.5,191 		"/>
		<polygon class="st2" points="231.7,215.5 195.5,235.8 159.3,215.5 195.5,193.2 		"/>
		<polyline class="st2" points="231.7,262.3 195.5,282.6 159.3,262.3 		"/>
		<polyline class="st2" points="235.3,262.3 195.5,284.6 155.8,262.3 		"/>
		<line class="st2" x1="155.9" y1="215.5" x2="155.9" y2="262.7"/>
		<line class="st2" x1="159.1" y1="215.6" x2="159.1" y2="262.9"/>
		<line class="st2" x1="231.9" y1="215.5" x2="231.9" y2="262.7"/>
		<line class="st2" x1="235.2" y1="215.6" x2="235.2" y2="262.9"/>
		<line class="st2" x1="195.5" y1="235.7" x2="195.5" y2="284.5"/>
		<line class="st2" x1="195.5" y1="236.6" x2="195.5" y2="239.8"/>
	</g>
	<g>
		<polygon class="st2" points="859.3,215.5 819.6,237.8 779.8,215.5 819.6,191 		"/>
		<polygon class="st2" points="855.7,215.5 819.6,235.8 783.4,215.5 819.6,193.2 		"/>
		<polyline class="st2" points="855.7,262.3 819.6,282.6 783.4,262.3 		"/>
		<polyline class="st2" points="859.3,262.3 819.6,284.6 779.8,262.3 		"/>
		<line class="st2" x1="779.9" y1="215.5" x2="779.9" y2="262.7"/>
		<line class="st2" x1="783.2" y1="215.6" x2="783.2" y2="262.9"/>
		<line class="st2" x1="856" y1="215.5" x2="856" y2="262.7"/>
		<line class="st2" x1="859.2" y1="215.6" x2="859.2" y2="262.9"/>
		<line class="st2" x1="819.6" y1="235.7" x2="819.6" y2="284.5"/>
		<line class="st2" x1="819.6" y1="236.6" x2="819.6" y2="239.8"/>
	</g>
</g>
<g>
	<g>
		<polygon class="st2" points="544.6,393.2 504.9,415.6 465.1,393.2 504.9,368.7 		"/>
		<polygon class="st2" points="541,393.2 504.9,413.5 468.7,393.2 504.9,370.9 		"/>
		<polyline class="st2" points="541,440.1 504.9,460.4 468.7,440.1 		"/>
		<polyline class="st2" points="544.6,440.1 504.9,462.4 465.1,440.1 		"/>
		<line class="st2" x1="465.2" y1="393.2" x2="465.2" y2="440.5"/>
		<line class="st2" x1="468.5" y1="393.3" x2="468.5" y2="440.6"/>
		<line class="st2" x1="541.3" y1="393.2" x2="541.3" y2="440.5"/>
		<line class="st2" x1="544.5" y1="393.3" x2="544.5" y2="440.6"/>
		<line class="st2" x1="504.9" y1="413.5" x2="504.9" y2="462.3"/>
		<line class="st2" x1="504.9" y1="414.3" x2="504.9" y2="417.5"/>
	</g>
</g>
<g>
	<circle class="st3" cx="472.1" cy="178.8" r="7.9"/>
	<circle class="st4" cx="472.1" cy="179.1" r="3.9"/>
	<circle class="st3" cx="472.1" cy="299.8" r="3.7"/>
	<circle class="st3" cx="505.8" cy="334.9" r="3.7"/>
	<circle class="st3" cx="505.8" cy="20.8" r="3.7"/>
	<circle class="st3" cx="472.1" cy="58.3" r="3.7"/>
	<circle class="st3" cx="541.4" cy="299.8" r="3.7"/>
	<circle class="st3" cx="541.4" cy="58.3" r="3.7"/>
	<polyline class="st0" points="464.2,178.8 472.1,58.3 479.9,178.8 	"/>
	<polyline class="st0" points="464.2,178.3 472.1,298.9 479.9,178.3 	"/>
	<circle class="st3" cx="541.4" cy="178.8" r="7.9"/>
	<polyline class="st0" points="533.5,178.8 541.4,58.3 549.2,178.8 	"/>
	<polyline class="st0" points="533.5,178.3 541.4,298.9 549.2,178.3 	"/>
	<circle class="st3" cx="506.3" cy="178.9" r="10.1"/>
	<polyline class="st0" points="496.1,178.9 506.3,23.6 516.4,178.9 	"/>
	<polyline class="st0" points="496.1,178.3 506.3,333.5 516.4,178.3 	"/>
	<polyline class="st0" points="472.1,186.7 506.3,168.6 541.4,186.7 541.4,171 506.3,189 472.1,171 	"/>
	<circle class="st4" cx="506.5" cy="179.1" r="3.9"/>
	<circle class="st4" cx="542.1" cy="179.1" r="3.9"/>
</g>
<g>
	<g>
		<g>
			<g>
				
					<rect x="827" y="427.2" transform="matrix(-1 -4.491308e-11 4.491308e-11 -1 1705.6691 943.0928)" class="st12" width="51.8" height="88.7"/>
				
					<rect x="676.9" y="344.7" transform="matrix(-1 -4.489221e-11 4.489221e-11 -1 1490.5946 824.0464)" class="st17" width="136.8" height="134.6"/>
				<circle class="st2" cx="813.3" cy="411.7" r="66.9"/>
				<path class="st17" d="M746.4,411.7c0,37,30,66.9,66.9,66.9c37,0,66.9-30,66.9-66.9"/>
				<circle class="st4" cx="813.3" cy="411.7" r="50.2"/>
				<path class="st3" d="M863.5,411.7c0-27.7-22.5-50.2-50.2-50.2c-27.7,0-50.2,22.5-50.2,50.2"/>
				<path class="st12" d="M596.3,327.7c0,44.7,36.2,81,81,81s81-36.2,81-81"/>
				<path class="st3" d="M627.1,328.1c0,27.7,22.5,50.2,50.2,50.2s50.2-22.5,50.2-50.2H627.1z"/>
				<path class="st18" d="M677.8,355.7c15.4,0,27.8-12.5,27.8-27.8h-28.3"/>
				<path class="st17" d="M677.6,328.1h-62.2c0,34.1,28.4,61.7,62.5,61.7"/>
				<path class="st7" d="M792.1,411.7c0,11.7,9.5,21.2,21.2,21.2c11.7,0,21.2-9.5,21.2-21.2"/>
				<path class="st3" d="M792.1,411.2c0,11.7,9.5,21.2,21.2,21.2s21.2-9.5,21.2-21.2"/>
				<path class="st19" d="M834.5,411.7c0-11.7-9.5-21.2-21.2-21.2s-21.2,9.5-21.2,21.2"/>
				<path class="st18" d="M813.4,432.9c11.7,0,21.2-9.5,21.2-21.2h-20.8"/>
				
					<rect x="677.3" y="412" transform="matrix(-1 -4.493307e-11 4.493307e-11 -1 1421.459 890.9638)" class="st12" width="66.9" height="66.9"/>
				<polygon class="st12" points="675.8,445.7 655.1,497.4 743.8,497.4 743.8,445.7 				"/>
				<polyline class="st12" points="646,471 646,497.4 695,497.4 695,445.7 676.3,445.7 				"/>
				<g>
					<polygon class="st11" points="668.9,497.3 681.8,483 694.7,497.3 					"/>
					<polygon class="st11" points="646.5,497.3 659.3,483 672.2,497.3 					"/>
				</g>
				
					<rect x="615.5" y="261.9" transform="matrix(-1 -4.482737e-11 4.482737e-11 -1 1264.3324 590.39)" class="st3" width="33.3" height="66.5"/>
				
					<rect x="615.5" y="262.7" transform="matrix(-1 -4.484425e-11 4.484425e-11 -1 1248.2976 591.1295)" class="st17" width="17.2" height="65.8"/>
				<circle class="st4" cx="662.1" cy="344" r="5.9"/>
				<path class="st11" d="M616.2,275.7v53.1c0,0-19.9,1.1-19.9,0C596.3,308.5,603.8,289.9,616.2,275.7"/>
				<path class="st17" d="M685,262.7c0-19.2-15.6-34.8-34.8-34.8s-34.8,15.6-34.8,34.8"/>
				<path class="st3" d="M666.8,262.7c0-9.4-7.6-17-17-17s-17,7.6-17,17"/>
			</g>
			<path class="st17" d="M646.2,472.8c0-14.7,14.1-26.6,28.8-26.6v27.3L646.2,472.8z"/>
		</g>
		<g>
			<polygon class="st11" points="851.5,515.7 864.3,501.4 877.2,515.7 			"/>
			<polygon class="st11" points="829,515.7 841.9,501.4 854.7,515.7 			"/>
		</g>
	</g>
	<g>
		<g>
			<g>
				<rect x="140.5" y="427.2" class="st12" width="51.8" height="88.7"/>
				<rect x="205.5" y="344.7" class="st17" width="136.8" height="134.6"/>
				<circle class="st2" cx="205.9" cy="411.7" r="66.9"/>
				<path class="st17" d="M272.8,411.7c0,37-30,66.9-66.9,66.9s-66.9-30-66.9-66.9"/>
				<circle class="st4" cx="205.9" cy="411.7" r="50.2"/>
				<path class="st3" d="M155.7,411.7c0-27.7,22.5-50.2,50.2-50.2s50.2,22.5,50.2,50.2"/>
				<path class="st12" d="M422.9,327.7c0,44.7-36.2,81-81,81s-81-36.2-81-81"/>
				<path class="st3" d="M392.2,328.1c0,27.7-22.5,50.2-50.2,50.2c-27.7,0-50.2-22.5-50.2-50.2H392.2z"/>
				<path class="st18" d="M341.4,355.7c-15.4,0-27.8-12.5-27.8-27.8h28.3"/>
				<path class="st17" d="M341.6,328.1h62.2c0,34.1-28.4,61.7-62.5,61.7"/>
				<path class="st7" d="M227.1,411.7c0,11.7-9.5,21.2-21.2,21.2c-11.7,0-21.2-9.5-21.2-21.2"/>
				<path class="st3" d="M227.1,411.2c0,11.7-9.5,21.2-21.2,21.2s-21.2-9.5-21.2-21.2"/>
				<path class="st19" d="M184.7,411.7c0-11.7,9.5-21.2,21.2-21.2c11.7,0,21.2,9.5,21.2,21.2"/>
				<path class="st18" d="M205.9,432.9c-11.7,0-21.2-9.5-21.2-21.2h20.8"/>
				<rect x="275.1" y="412" class="st12" width="66.9" height="66.9"/>
				<polygon class="st12" points="343.4,445.7 364.2,497.4 275.4,497.4 275.4,445.7 				"/>
				<polyline class="st12" points="373.3,471 373.3,497.4 324.3,497.4 324.3,445.7 342.9,445.7 				"/>
				<g>
					<polygon class="st11" points="350.3,497.3 337.4,483 324.6,497.3 					"/>
					<polygon class="st11" points="372.8,497.3 359.9,483 347,497.3 					"/>
				</g>
				<rect x="370.4" y="261.9" class="st3" width="33.3" height="66.5"/>
				<rect x="386.5" y="262.7" class="st17" width="17.2" height="65.8"/>
				<circle class="st4" cx="357.1" cy="344" r="5.9"/>
				<path class="st11" d="M403.1,275.7v53.1c0,0,19.9,1.1,19.9,0C422.9,308.5,415.4,289.9,403.1,275.7"/>
				<path class="st17" d="M334.2,262.7c0-19.2,15.6-34.8,34.8-34.8c19.2,0,34.8,15.6,34.8,34.8"/>
				<path class="st3" d="M352.4,262.7c0-9.4,7.6-17,17-17c9.4,0,17,7.6,17,17"/>
			</g>
			<path class="st17" d="M373,472.8c0-14.7-14.1-26.6-28.8-26.6v27.3L373,472.8z"/>
		</g>
		<g>
			<polygon class="st11" points="167.8,515.7 154.9,501.4 142,515.7 			"/>
			<polygon class="st11" points="190.2,515.7 177.4,501.4 164.5,515.7 			"/>
		</g>
	</g>
</g>
<g>
	<circle class="st0" cx="65.5" cy="487.7" r="9.1"/>
	<g>
		<path class="st0" d="M70.1,460c-5,0-9.1-4.1-9.1-9.1s4.1-9.1,9.1-9.1"/>
	</g>
	<g>
		<path class="st0" d="M74.6,411.1c0,5-4.1,9.1-9.1,9.1c-5,0-9.1-4.1-9.1-9.1"/>
	</g>
	<g>
		<line class="st0" x1="27.2" y1="441.5" x2="27.2" y2="460.4"/>
		<line class="st0" x1="17.8" y1="450.9" x2="36.7" y2="450.9"/>
	</g>
	<g>
		<line class="st0" x1="94.1" y1="444.2" x2="107.5" y2="457.6"/>
		<line class="st0" x1="94.1" y1="457.6" x2="107.5" y2="444.2"/>
	</g>
</g>
<g>
	<circle class="st0" cx="956.8" cy="487.7" r="9.1"/>
	<g>
		<path class="st0" d="M961.3,460c-5,0-9.1-4.1-9.1-9.1s4.1-9.1,9.1-9.1"/>
	</g>
	<g>
		<path class="st0" d="M965.9,411.1c0,5-4.1,9.1-9.1,9.1c-5,0-9.1-4.1-9.1-9.1"/>
	</g>
	<g>
		<line class="st0" x1="918.5" y1="441.5" x2="918.5" y2="460.4"/>
		<line class="st0" x1="909" y1="450.9" x2="927.9" y2="450.9"/>
	</g>
	<g>
		<line class="st0" x1="985.3" y1="444.2" x2="998.7" y2="457.6"/>
		<line class="st0" x1="985.3" y1="457.6" x2="998.7" y2="444.2"/>
	</g>
</g>
<g>
	<g>
		<polyline class="st2" points="378,621.2 506.2,493 634.4,621.2 		"/>
		<polyline class="st2" points="353.9,621.2 420.8,554.3 487.7,621.2 		"/>
		<polyline class="st2" points="437.7,621.2 504.7,554.3 571.6,621.2 		"/>
		<polyline class="st2" points="515.3,621.2 582.2,554.3 649.1,621.2 		"/>
	</g>
	<g>
		<polyline class="st2" points="628,625 499.8,753.2 371.6,625 		"/>
		<polyline class="st2" points="652.1,625 585.2,691.9 518.3,625 		"/>
		<polyline class="st2" points="568.3,625 501.4,691.9 434.4,625 		"/>
		<polyline class="st2" points="490.7,625 423.8,691.9 356.9,625 		"/>
	</g>
	<line class="st2" x1="118.2" y1="622.9" x2="889" y2="622.9"/>
</g>
<g>
	<g>
		<rect x="791.1" y="735.6" class="st12" width="102.9" height="16.1"/>
		<path class="st12" d="M886.9,751.7c20.8,0,39.8-7.6,54.5-20.1h19.7v-24.7c6-11.4,9.5-24.4,9.7-38.1h0.1v-44.5h-29.3v22.6h-78.1
			c-1.7-0.1-3.4-0.2-5.1-0.2c-46.4,0-83.9,37.6-83.9,83.9h63.4"/>
		<path class="st17" d="M803.7,728.7c0-24.7,20-44.8,44.8-44.8c24.7,0,44.8,20,44.8,44.8"/>
		<path class="st17" d="M793.1,735.5h-16.8c0,9,7.3,16.2,16.2,16.2L793.1,735.5z"/>
		<g>
			<g>
				<circle class="st14" cx="849.8" cy="727.9" r="13.2"/>
				<path class="st11" d="M863,727.9c0,7.3-5.9,13.2-13.2,13.2s-13.2-5.9-13.2-13.2"/>
				<circle class="st7" cx="849.8" cy="727.9" r="9.9"/>
				<path class="st3" d="M840,728.1c0-5.4,4.4-9.9,9.9-9.9s9.9,4.4,9.9,9.9"/>
			</g>
			<circle class="st1" cx="849.8" cy="727.7" r="3.6"/>
		</g>
		<g>
			<path class="st2" d="M991.2,738.5c-14.3,14.3-37.6,14.3-51.9,0c-14.3-14.3-14.3-37.6,0-51.9"/>
			<path class="st12" d="M991.5,738.2c-14.3,14.3-37.6,14.3-51.9,0c-14.3-14.3-14.3-37.6,0-51.9"/>
			<path class="st4" d="M985,731.7c-10.7,10.7-28.2,10.7-38.9,0c-10.7-10.7-10.7-28.2,0-38.9"/>
			<path class="st3" d="M982.9,729.7c-9.6,9.6-25.2,9.6-34.8,0s-9.6-25.2,0-34.8"/>
			<path class="st7" d="M974,720.2c-4.5,4.5-11.9,4.5-16.4,0c-4.5-4.5-4.5-11.9,0-16.4L974,720.2z"/>
			<path class="st20" d="M957.6,720.2c-4.5-4.5-4.5-11.9,0-16.4l8.8,8.9"/>
		</g>
		<path class="st21" d="M876.7,647.2l23.2,22.8l23.5-23.1C923.4,646.9,876,646.5,876.7,647.2z"/>
		<path class="st3" d="M889.1,647.3l10.9,10.7l11-10.8C911,647.1,888.7,646.9,889.1,647.3z"/>
		<g>
			<g>
				<g>
					<circle class="st2" cx="955.8" cy="589.1" r="38.1"/>
					<path class="st17" d="M993.8,589.1c0,21-17,38.1-38.1,38.1c-21,0-38.1-17-38.1-38.1"/>
					<circle class="st4" cx="955.8" cy="589.1" r="28.6"/>
					<path class="st3" d="M927.2,589.1c0-15.8,12.8-28.6,28.6-28.6c15.8,0,28.6,12.8,28.6,28.6"/>
					<path class="st7" d="M967.8,589.1c0,6.7-5.4,12.1-12.1,12.1c-6.7,0-12.1-5.4-12.1-12.1"/>
					<path class="st3" d="M967.8,588.9c0,6.7-5.4,12.1-12.1,12.1c-6.7,0-12.1-5.4-12.1-12.1"/>
					<path class="st19" d="M943.7,589.1c0-6.7,5.4-12.1,12.1-12.1s12.1,5.4,12.1,12.1"/>
					<path class="st18" d="M955.5,589.2h-11.8c0,6.7,5.4,12.1,12.1,12.1"/>
				</g>
			</g>
		</g>
		
			<rect x="934" y="538.2" transform="matrix(0.7071 -0.7071 0.7071 0.7071 -115.8861 839.5729)" class="st1" width="43" height="43"/>
		<line class="st14" x1="941.5" y1="646.8" x2="970.3" y2="675.3"/>
	</g>
	<g>
		<rect x="124.8" y="735.6" class="st12" width="102.9" height="16.1"/>
		<path class="st12" d="M132,751.7c-20.8,0-39.8-7.6-54.5-20.1H57.7v-24.7c-6-11.4-9.5-24.4-9.7-38.1H48v-44.5h29.3v22.6h78.1
			c1.7-0.1,3.4-0.2,5.1-0.2c46.4,0,83.9,37.6,83.9,83.9h-63.4"/>
		<path class="st17" d="M215.1,728.7c0-24.7-20-44.8-44.8-44.8s-44.8,20-44.8,44.8"/>
		<path class="st17" d="M225.7,735.5h16.8c0,9-7.3,16.2-16.2,16.2L225.7,735.5z"/>
		<g>
			<g>
				<circle class="st14" cx="169" cy="727.9" r="13.2"/>
				<path class="st11" d="M155.8,727.9c0,7.3,5.9,13.2,13.2,13.2s13.2-5.9,13.2-13.2"/>
				<circle class="st7" cx="169" cy="727.9" r="9.9"/>
				<path class="st3" d="M178.8,728.1c0-5.4-4.4-9.9-9.9-9.9s-9.9,4.4-9.9,9.9"/>
			</g>
			<circle class="st1" cx="169" cy="727.7" r="3.6"/>
		</g>
		<g>
			<path class="st2" d="M27.6,738.5c14.3,14.3,37.6,14.3,51.9,0c14.3-14.3,14.3-37.6,0-51.9"/>
			<path class="st12" d="M27.3,738.2c14.3,14.3,37.6,14.3,51.9,0c14.3-14.3,14.3-37.6,0-51.9"/>
			<path class="st4" d="M33.8,731.7c10.7,10.7,28.2,10.7,38.9,0c10.7-10.7,10.7-28.2,0-38.9"/>
			<path class="st3" d="M35.9,729.7c9.6,9.6,25.2,9.6,34.8,0s9.6-25.2,0-34.8"/>
			<path class="st7" d="M44.8,720.2c4.5,4.5,11.9,4.5,16.4,0c4.5-4.5,4.5-11.9,0-16.4L44.8,720.2z"/>
			<path class="st20" d="M61.2,720.2c4.5-4.5,4.5-11.9,0-16.4l-8.8,8.9"/>
		</g>
		<path class="st21" d="M142.1,647.2L119,670l-23.5-23.1C95.4,646.9,142.8,646.5,142.1,647.2z"/>
		<path class="st3" d="M129.7,647.3L118.9,658l-11-10.8C107.8,647.1,130.1,646.9,129.7,647.3z"/>
		<g>
			<g>
				<g>
					<circle class="st2" cx="63" cy="589.1" r="38.1"/>
					<path class="st17" d="M25,589.1c0,21,17,38.1,38.1,38.1s38.1-17,38.1-38.1"/>
					<circle class="st4" cx="63" cy="589.1" r="28.6"/>
					<path class="st3" d="M91.6,589.1c0-15.8-12.8-28.6-28.6-28.6s-28.6,12.8-28.6,28.6"/>
					<path class="st7" d="M51,589.1c0,6.7,5.4,12.1,12.1,12.1s12.1-5.4,12.1-12.1"/>
					<path class="st3" d="M51,588.9c0,6.7,5.4,12.1,12.1,12.1s12.1-5.4,12.1-12.1"/>
					<path class="st19" d="M75.1,589.1c0-6.7-5.4-12.1-12.1-12.1S51,582.5,51,589.1"/>
					<path class="st18" d="M63.3,589.2h11.8c0,6.7-5.4,12.1-12.1,12.1"/>
				</g>
			</g>
		</g>
		
			<rect x="41.8" y="538.2" transform="matrix(-0.7071 -0.7071 0.7071 -0.7071 -287.6912 1000.1812)" class="st1" width="43" height="43"/>
		<line class="st14" x1="77.3" y1="646.8" x2="48.5" y2="675.3"/>
	</g>
</g>
</svg>
