<?xml version="1.0" encoding="utf-8"?>
<!-- Generator: Adobe Illustrator 24.1.3, SVG Export Plug-In . SVG Version: 6.00 Build 0)  -->
<svg version="1.1" id="Layer_1" xmlns="http://www.w3.org/2000/svg" xmlns:xlink="http://www.w3.org/1999/xlink" x="0px" y="0px"
	 viewBox="0 0 118 124" style="enable-background:new 0 0 118 124;" xml:space="preserve">
<style type="text/css">
	.st0{fill:none;stroke:#FDB515;stroke-miterlimit:10;}
	.st1{fill:none;stroke:#FFFFFF;stroke-miterlimit:10;}
</style>
<g>
	<path class="st0" d="M63.28,104.81c-24.09,0-43.62-19.53-43.62-43.62c0-7.31,1.8-14.19,4.97-20.24
		C10.27,48.09,0.39,62.91,0.39,80.03c0,24.09,19.53,43.62,43.62,43.62c16.78,0,31.35-9.48,38.64-23.38
		C76.82,103.17,70.24,104.81,63.28,104.81z"/>
	<circle class="st1" cx="81.46" cy="36.22" r="23"/>
	<line class="st0" x1="81.46" y1="0.22" x2="81.46" y2="7.22"/>
	<line class="st0" x1="81.46" y1="65.22" x2="81.46" y2="72.22"/>
	<line class="st0" x1="45.46" y1="36.22" x2="52.46" y2="36.22"/>
	<line class="st0" x1="110.46" y1="36.22" x2="117.46" y2="36.22"/>
	<line class="st0" x1="56" y1="61.68" x2="60.95" y2="56.73"/>
	<line class="st0" x1="101.96" y1="15.72" x2="106.91" y2="10.77"/>
	<line class="st0" x1="106.91" y1="61.68" x2="101.96" y2="56.73"/>
	<line class="st0" x1="60.95" y1="15.72" x2="56" y2="10.77"/>
</g>
</svg>
