<?xml version="1.0" encoding="utf-8"?>
<!-- Generator: Adobe Illustrator 24.1.3, SVG Export Plug-In . SVG Version: 6.00 Build 0)  -->
<svg version="1.1" id="Layer_1" xmlns="http://www.w3.org/2000/svg" xmlns:xlink="http://www.w3.org/1999/xlink" x="0px" y="0px"
	 viewBox="0 0 125 125" style="enable-background:new 0 0 125 125;" xml:space="preserve">
<style type="text/css">
	.st0{fill:none;stroke:#FDB515;stroke-miterlimit:10;}
	.st1{fill:none;stroke:#FFFFFF;stroke-miterlimit:10;}
</style>
<g>
	<circle class="st0" cx="62.67" cy="62.19" r="51.36"/>
	<g>
		<polyline class="st1" points="87.56,78.44 62.33,92.61 37.09,78.44 		"/>
		<polyline class="st1" points="90.06,78.44 62.33,94.01 34.59,78.44 		"/>
		<g>
			<polygon class="st1" points="90.06,45.75 62.33,61.33 34.59,45.75 62.33,28.66 			"/>
			<polygon class="st1" points="87.56,45.75 62.33,59.92 37.09,45.75 62.33,30.2 			"/>
			<path class="st1" d="M62.33,62.89"/>
			<path class="st1" d="M62.33,61.35"/>
			<line class="st1" x1="34.66" y1="45.75" x2="34.66" y2="78.74"/>
			<line class="st1" x1="36.94" y1="45.83" x2="36.94" y2="78.82"/>
			<line class="st1" x1="87.72" y1="45.75" x2="87.72" y2="78.74"/>
			<line class="st1" x1="90" y1="45.83" x2="90" y2="78.82"/>
			<line class="st1" x1="62.33" y1="59.89" x2="62.33" y2="93.95"/>
			<line class="st1" x1="62.33" y1="60.47" x2="62.33" y2="62.7"/>
		</g>
	</g>
</g>
</svg>
