<?xml version="1.0" encoding="utf-8"?>
<!-- Generator: Adobe Illustrator 24.1.3, SVG Export Plug-In . SVG Version: 6.00 Build 0)  -->
<svg version="1.1" id="Layer_1" xmlns="http://www.w3.org/2000/svg" xmlns:xlink="http://www.w3.org/1999/xlink" x="0px" y="0px"
	 viewBox="0 0 609.59 523.83" style="enable-background:new 0 0 609.59 523.83;" xml:space="preserve">
<style type="text/css">
	.st0{fill:none;stroke:#FFFFFF;stroke-miterlimit:10;}
	.st1{fill:#333333;stroke:#FFFFFF;stroke-miterlimit:10;}
	.st2{fill:#FDB515;}
	.st3{fill:#924F03;}
	.st4{stroke:#FFFFFF;stroke-miterlimit:10;}
	.st5{stroke:#FFFFFF;stroke-width:1;stroke-miterlimit:9.9999;}
</style>
<g>
	<g>
		<g>
			<polyline class="st0" points="165.46,336.93 140.22,351.1 114.99,336.93 			"/>
			<polyline class="st0" points="167.96,336.93 140.22,352.51 112.49,336.93 			"/>
			<g>
				<polygon class="st0" points="167.96,304.24 140.22,319.82 112.49,304.24 140.22,287.15 				"/>
				<polygon class="st0" points="165.46,304.24 140.22,318.41 114.99,304.24 140.22,288.69 				"/>
				<path class="st0" d="M140.22,321.38"/>
				<path class="st0" d="M140.22,319.84"/>
				<line class="st0" x1="112.55" y1="304.24" x2="112.55" y2="337.24"/>
				<line class="st0" x1="114.83" y1="304.32" x2="114.83" y2="337.31"/>
				<line class="st0" x1="165.61" y1="304.24" x2="165.61" y2="337.24"/>
				<line class="st0" x1="167.9" y1="304.32" x2="167.9" y2="337.31"/>
				<line class="st0" x1="140.22" y1="318.38" x2="140.22" y2="352.44"/>
				<line class="st0" x1="140.22" y1="318.96" x2="140.22" y2="321.2"/>
			</g>
		</g>
		<g>
			<polyline class="st0" points="499.98,336.93 474.74,351.1 449.51,336.93 			"/>
			<polyline class="st0" points="502.48,336.93 474.74,352.51 447.01,336.93 			"/>
			<g>
				<polygon class="st0" points="502.48,304.24 474.74,319.82 447.01,304.24 474.74,287.15 				"/>
				<polygon class="st0" points="499.98,304.24 474.74,318.41 449.51,304.24 474.74,288.69 				"/>
				<path class="st0" d="M474.74,321.38"/>
				<path class="st0" d="M474.74,319.84"/>
				<line class="st0" x1="447.07" y1="304.24" x2="447.07" y2="337.24"/>
				<line class="st0" x1="449.35" y1="304.32" x2="449.35" y2="337.31"/>
				<line class="st0" x1="500.13" y1="304.24" x2="500.13" y2="337.24"/>
				<line class="st0" x1="502.41" y1="304.32" x2="502.41" y2="337.31"/>
				<line class="st0" x1="474.74" y1="318.38" x2="474.74" y2="352.44"/>
				<line class="st0" x1="474.74" y1="318.96" x2="474.74" y2="321.2"/>
			</g>
		</g>
		<g>
			<polyline class="st0" points="334.07,68.02 308.83,82.19 283.59,68.02 			"/>
			<polyline class="st0" points="336.57,68.02 308.83,83.59 281.09,68.02 			"/>
			<g>
				<polygon class="st0" points="336.57,35.33 308.83,50.9 281.09,35.33 308.83,18.23 				"/>
				<polygon class="st0" points="334.07,35.33 308.83,49.5 283.59,35.33 308.83,19.77 				"/>
				<path class="st0" d="M308.83,52.46"/>
				<path class="st0" d="M308.83,50.92"/>
				<line class="st0" x1="281.16" y1="35.33" x2="281.16" y2="68.32"/>
				<line class="st0" x1="283.44" y1="35.4" x2="283.44" y2="68.4"/>
				<line class="st0" x1="334.22" y1="35.33" x2="334.22" y2="68.32"/>
				<line class="st0" x1="336.5" y1="35.4" x2="336.5" y2="68.4"/>
				<line class="st0" x1="308.83" y1="49.47" x2="308.83" y2="83.52"/>
				<line class="st0" x1="308.83" y1="50.05" x2="308.83" y2="52.28"/>
			</g>
		</g>
	</g>
	<g>
		<path class="st1" d="M160.08,226.17c-24.83,0-44.95-19.66-44.95-43.83s20.12-43.82,44.95-43.82V226.17z"/>
		<rect x="160.08" y="182.35" class="st2" width="45.02" height="43.83"/>
		<rect x="181.08" y="182.35" class="st3" width="24.02" height="43.83"/>
		<path class="st4" d="M160.08,226.17v-43.82h-44.95C115.12,206.52,135.24,226.17,160.08,226.17z"/>
		<polygon class="st4" points="160.08,138.52 205.1,138.52 160.08,182.35 		"/>
		<path class="st4" d="M260.42,226.17c24.83,0,45.02-19.72,45.02-43.83c0-24.17-20.19-43.82-45.02-43.82
			c-24.76,0-44.95,19.66-44.95,43.83C215.47,206.45,235.66,226.17,260.42,226.17L260.42,226.17z"/>
		<path class="st2" d="M260.42,204.23c12.41,0,22.55-9.79,22.55-21.88c0-12.08-10.13-21.95-22.55-21.95
			c-12.34,0-22.48,9.86-22.48,21.95C237.94,194.43,248.08,204.23,260.42,204.23L260.42,204.23z"/>
		<path class="st3" d="M260.42,204.23c-12.34,0-22.48-9.79-22.48-21.88s10.13-21.95,22.48-21.95c12.41,0,22.55,9.86,22.55,21.95
			h-23.24L260.42,204.23z"/>
		<rect x="315.81" y="138.52" class="st1" width="45.02" height="87.65"/>
		<path class="st2" d="M360.84,226.17c24.76,0,44.95-19.72,44.95-43.83c0-24.17-20.19-43.82-44.95-43.82
			c-24.83,0-45.02,19.66-45.02,43.83C315.81,206.45,336.01,226.17,360.84,226.17z"/>
		<path class="st3" d="M405.79,182.35c0-24.17-20.19-43.82-44.95-43.82c-24.83,0-45.02,19.66-45.02,43.83"/>
		<path class="st4" d="M360.84,226.17v-87.65c-24.9,0-45.02,19.66-45.02,43.83C315.81,206.52,335.93,226.17,360.84,226.17z"/>
		<path class="st2" d="M449.91,160.4h22.48c18.55,0,33.75,14.79,33.75,32.92c0,18.06-15.2,32.85-33.75,32.85h-56.22v-54.8
			c0-3.82,0.64-7.5,1.93-10.97H449.91z"/>
		<path class="st1" d="M472.38,138.52H449.9c-18.62,0-33.75,14.79-33.75,32.85s15.13,32.85,33.75,32.85h54.3
			c1.21-3.4,1.93-7.08,1.93-10.9v-54.8L472.38,138.52L472.38,138.52z"/>
		<path class="st4" d="M449.91,160.4h22.48c18.55,0,33.75,14.79,33.75,32.92c0,3.82-0.71,7.5-1.93,10.9h-54.3
			c-18.62,0-33.75-14.79-33.75-32.85c0-3.82,0.64-7.5,1.93-10.97L449.91,160.4L449.91,160.4z"/>
	</g>
	<g>
		<path class="st2" d="M260.38,362.35c24.83,0,45.02-19.72,45.02-43.83c0-24.17-20.19-43.82-45.02-43.82
			c-24.76,0-44.95,19.66-44.95,43.83C215.43,342.62,235.63,362.35,260.38,362.35z"/>
		<path class="st3" d="M260.38,362.35c24.83,0,45.02-19.72,45.02-43.83c0-24.17-20.19-43.82-45.02-43.82"/>
		<rect x="315.78" y="303.94" class="st3" width="67.5" height="29.17"/>
		<rect x="315.78" y="274.7" class="st4" width="90.04" height="29.24"/>
		<rect x="315.78" y="333.11" class="st4" width="45.02" height="29.24"/>
		<rect x="315.78" y="274.7" class="st1" width="45.02" height="29.24"/>
		<rect x="315.78" y="303.94" class="st2" width="45.02" height="29.17"/>
		
			<rect x="244.22" y="301.8" transform="matrix(0.7071 -0.7071 0.7071 0.7071 -148.997 277.6489)" class="st5" width="32.86" height="33.76"/>
	</g>
	<g>
		<path class="st4" d="M155,419.1c0,12.16-10.06,21.95-22.48,21.95l0,0H64.95v-43.83h67.57C144.94,397.22,155,407.01,155,419.1
			L155,419.1z"/>
		<path class="st4" d="M155,462.92c0,12.08-10.06,21.95-22.48,21.95l0,0H64.95v-43.83h67.57C144.94,441.05,155,450.84,155,462.92
			L155,462.92z"/>
		<rect x="64.95" y="441.05" class="st2" width="45.02" height="43.83"/>
		<rect x="85.95" y="441.05" class="st3" width="24.02" height="43.83"/>
		<rect x="64.95" y="397.22" class="st1" width="45.02" height="43.83"/>
		<rect x="165.3" y="397.22" class="st2" width="45.02" height="87.65"/>
		<rect x="187.3" y="397.22" class="st3" width="23.02" height="87.65"/>
		<rect x="165.3" y="455.63" class="st1" width="89.97" height="29.24"/>
		<rect x="165.3" y="455.63" class="st4" width="45.02" height="29.24"/>
		<path class="st2" d="M310.59,484.87c24.83,0,45.02-19.72,45.02-43.83c0-24.17-20.19-43.82-45.02-43.82
			c-24.76,0-44.95,19.66-44.95,43.83C265.64,465.15,285.83,484.87,310.59,484.87z"/>
		<path class="st3" d="M310.59,484.87c24.83,0,45.02-19.72,45.02-43.83c0-24.17-20.19-43.82-45.02-43.82"/>
		<path class="st4" d="M310.59,462.92c12.41,0,22.55-9.79,22.55-21.88c0-12.08-10.13-21.95-22.55-21.95
			c-12.34,0-22.48,9.86-22.48,21.95C288.12,453.13,298.25,462.92,310.59,462.92L310.59,462.92z"/>
		<path class="st2" d="M410.93,484.87c-24.83,0-44.95-19.66-44.95-43.83c0-24.17,20.12-43.82,44.95-43.82V484.87z"/>
		<rect x="410.93" y="397.22" class="st3" width="45.02" height="87.65"/>
		<path class="st1" d="M410.93,462.92c-12.41,0-22.48-9.79-22.48-21.88c0-12.08,10.06-21.88,22.48-21.95V462.92z"/>
		<polygon points="411.01,419.17 410.93,419.1 410.93,419.17 410.93,462.92 411.01,462.92 455.96,462.92 455.96,419.1 		"/>
		<polygon class="st2" points="466.33,397.22 556.3,484.87 466.33,484.87 		"/>
		<polygon class="st4" points="466.33,484.87 556.3,397.22 466.33,397.22 		"/>
		<rect x="466.51" y="396.87" class="st1" width="45.02" height="87.65"/>
		<rect x="466.51" y="396.87" class="st3" width="45.02" height="43.04"/>
	</g>
</g>
</svg>
