<?xml version="1.0" encoding="utf-8"?>
<!-- Generator: Adobe Illustrator 24.1.3, SVG Export Plug-In . SVG Version: 6.00 Build 0)  -->
<svg version="1.1" id="Layer_1" xmlns="http://www.w3.org/2000/svg" xmlns:xlink="http://www.w3.org/1999/xlink" x="0px" y="0px"
	 viewBox="0 0 1818.78 577.49" style="enable-background:new 0 0 1818.78 577.49;" xml:space="preserve">
<style type="text/css">
	.st0{fill:none;stroke:#FFFFFF;stroke-miterlimit:10;}
	.st1{fill:#333333;stroke:#FFFFFF;stroke-miterlimit:10;}
	.st2{fill:#FDB515;}
	.st3{fill:#924F03;}
	.st4{stroke:#FFFFFF;stroke-miterlimit:10;}
	.st5{stroke:#FFFFFF;stroke-width:1;stroke-miterlimit:9.9999;}
	.st6{fill:none;stroke:#FDB515;stroke-miterlimit:10;}
	.st7{fill:none;stroke:#FFFFFF;stroke-width:1;stroke-miterlimit:9.9999;}
</style>
<g>
	<g>
		<g>
			<g>
				<polyline class="st0" points="765.06,317.16 739.82,331.33 714.59,317.16 				"/>
				<polyline class="st0" points="767.56,317.16 739.82,332.74 712.09,317.16 				"/>
				<g>
					<polygon class="st0" points="767.56,284.47 739.82,300.05 712.09,284.47 739.82,267.38 					"/>
					<polygon class="st0" points="765.06,284.47 739.82,298.64 714.59,284.47 739.82,268.92 					"/>
					<path class="st0" d="M739.82,301.61"/>
					<path class="st0" d="M739.82,300.07"/>
					<line class="st0" x1="712.15" y1="284.47" x2="712.15" y2="317.47"/>
					<line class="st0" x1="714.43" y1="284.55" x2="714.43" y2="317.54"/>
					<line class="st0" x1="765.21" y1="284.47" x2="765.21" y2="317.47"/>
					<line class="st0" x1="767.5" y1="284.55" x2="767.5" y2="317.54"/>
					<line class="st0" x1="739.82" y1="298.61" x2="739.82" y2="332.67"/>
					<line class="st0" x1="739.82" y1="299.19" x2="739.82" y2="301.43"/>
				</g>
			</g>
			<g>
				<polyline class="st0" points="1099.58,317.16 1074.34,331.33 1049.11,317.16 				"/>
				<polyline class="st0" points="1102.08,317.16 1074.34,332.74 1046.61,317.16 				"/>
				<g>
					<polygon class="st0" points="1102.08,284.47 1074.34,300.05 1046.61,284.47 1074.34,267.38 					"/>
					<polygon class="st0" points="1099.58,284.47 1074.34,298.64 1049.11,284.47 1074.34,268.92 					"/>
					<path class="st0" d="M1074.34,301.61"/>
					<path class="st0" d="M1074.34,300.07"/>
					<line class="st0" x1="1046.67" y1="284.47" x2="1046.67" y2="317.47"/>
					<line class="st0" x1="1048.95" y1="284.55" x2="1048.95" y2="317.54"/>
					<line class="st0" x1="1099.73" y1="284.47" x2="1099.73" y2="317.47"/>
					<line class="st0" x1="1102.01" y1="284.55" x2="1102.01" y2="317.54"/>
					<line class="st0" x1="1074.34" y1="298.61" x2="1074.34" y2="332.67"/>
					<line class="st0" x1="1074.34" y1="299.19" x2="1074.34" y2="301.43"/>
				</g>
			</g>
			<g>
				<polyline class="st0" points="933.67,48.25 908.43,62.42 883.19,48.25 				"/>
				<polyline class="st0" points="936.17,48.25 908.43,63.82 880.69,48.25 				"/>
				<g>
					<polygon class="st0" points="936.17,15.56 908.43,31.13 880.69,15.56 908.43,-1.54 					"/>
					<polygon class="st0" points="933.67,15.56 908.43,29.73 883.19,15.56 908.43,0 					"/>
					<path class="st0" d="M908.43,32.69"/>
					<path class="st0" d="M908.43,31.15"/>
					<line class="st0" x1="880.76" y1="15.56" x2="880.76" y2="48.55"/>
					<line class="st0" x1="883.04" y1="15.63" x2="883.04" y2="48.63"/>
					<line class="st0" x1="933.82" y1="15.56" x2="933.82" y2="48.55"/>
					<line class="st0" x1="936.1" y1="15.63" x2="936.1" y2="48.63"/>
					<line class="st0" x1="908.43" y1="29.7" x2="908.43" y2="63.75"/>
					<line class="st0" x1="908.43" y1="30.28" x2="908.43" y2="32.51"/>
				</g>
			</g>
		</g>
		<g>
			<path class="st1" d="M759.68,206.4c-24.83,0-44.95-19.66-44.95-43.83s20.12-43.82,44.95-43.82V206.4z"/>
			<rect x="759.68" y="162.58" class="st2" width="45.02" height="43.83"/>
			<rect x="780.68" y="162.58" class="st3" width="24.02" height="43.83"/>
			<path class="st4" d="M759.68,206.4v-43.82h-44.95C714.72,186.75,734.84,206.4,759.68,206.4z"/>
			<polygon class="st4" points="759.68,118.75 804.7,118.75 759.68,162.58 			"/>
			<path class="st4" d="M860.02,206.4c24.83,0,45.02-19.72,45.02-43.83c0-24.17-20.19-43.82-45.02-43.82
				c-24.76,0-44.95,19.66-44.95,43.83C815.07,186.68,835.26,206.4,860.02,206.4L860.02,206.4z"/>
			<path class="st2" d="M860.02,184.46c12.41,0,22.55-9.79,22.55-21.88c0-12.08-10.13-21.95-22.55-21.95
				c-12.34,0-22.48,9.86-22.48,21.95C837.54,174.66,847.68,184.46,860.02,184.46L860.02,184.46z"/>
			<path class="st3" d="M860.02,184.46c-12.34,0-22.48-9.79-22.48-21.88s10.13-21.95,22.48-21.95c12.41,0,22.55,9.86,22.55,21.95
				h-23.24L860.02,184.46z"/>
			<rect x="915.41" y="118.75" class="st1" width="45.02" height="87.65"/>
			<path class="st2" d="M960.44,206.4c24.76,0,44.95-19.72,44.95-43.83c0-24.17-20.19-43.82-44.95-43.82
				c-24.83,0-45.02,19.66-45.02,43.83C915.41,186.68,935.61,206.4,960.44,206.4z"/>
			<path class="st3" d="M1005.39,162.58c0-24.17-20.19-43.82-44.95-43.82c-24.83,0-45.02,19.66-45.02,43.83"/>
			<path class="st4" d="M960.44,206.4v-87.65c-24.9,0-45.02,19.66-45.02,43.83C915.41,186.75,935.53,206.4,960.44,206.4z"/>
			<path class="st2" d="M1049.51,140.63h22.48c18.55,0,33.75,14.79,33.75,32.92c0,18.06-15.2,32.85-33.75,32.85h-56.22v-54.8
				c0-3.82,0.64-7.5,1.93-10.97H1049.51z"/>
			<path class="st1" d="M1071.98,118.75h-22.48c-18.62,0-33.75,14.79-33.75,32.85s15.13,32.85,33.75,32.85h54.3
				c1.21-3.4,1.93-7.08,1.93-10.9v-54.8L1071.98,118.75L1071.98,118.75z"/>
			<path class="st4" d="M1049.51,140.63h22.48c18.55,0,33.75,14.79,33.75,32.92c0,3.82-0.71,7.5-1.93,10.9h-54.3
				c-18.62,0-33.75-14.79-33.75-32.85c0-3.82,0.64-7.5,1.93-10.97L1049.51,140.63L1049.51,140.63z"/>
		</g>
		<g>
			<path class="st2" d="M859.98,342.58c24.83,0,45.02-19.72,45.02-43.83c0-24.17-20.19-43.82-45.02-43.82
				c-24.76,0-44.95,19.66-44.95,43.83C815.03,322.85,835.23,342.58,859.98,342.58z"/>
			<path class="st3" d="M859.98,342.58c24.83,0,45.02-19.72,45.02-43.83c0-24.17-20.19-43.82-45.02-43.82"/>
			<rect x="915.38" y="284.17" class="st3" width="67.5" height="29.17"/>
			<rect x="915.38" y="254.93" class="st4" width="90.04" height="29.24"/>
			<rect x="915.38" y="313.34" class="st4" width="45.02" height="29.24"/>
			<rect x="915.38" y="254.93" class="st1" width="45.02" height="29.24"/>
			<rect x="915.38" y="284.17" class="st2" width="45.02" height="29.17"/>
			
				<rect x="843.83" y="282.03" transform="matrix(0.7071 -0.7071 0.7071 0.7071 40.6008 695.8438)" class="st5" width="32.86" height="33.76"/>
		</g>
		<g>
			<path class="st4" d="M754.6,399.33c0,12.16-10.06,21.95-22.48,21.95l0,0h-67.57v-43.83h67.57
				C744.54,377.45,754.6,387.24,754.6,399.33L754.6,399.33z"/>
			<path class="st4" d="M754.6,443.15c0,12.08-10.06,21.95-22.48,21.95l0,0h-67.57v-43.83h67.57
				C744.54,421.28,754.6,431.07,754.6,443.15L754.6,443.15z"/>
			<rect x="664.55" y="421.28" class="st2" width="45.02" height="43.83"/>
			<rect x="685.55" y="421.28" class="st3" width="24.02" height="43.83"/>
			<rect x="664.55" y="377.45" class="st1" width="45.02" height="43.83"/>
			<rect x="764.9" y="377.45" class="st2" width="45.02" height="87.65"/>
			<rect x="786.9" y="377.45" class="st3" width="23.02" height="87.65"/>
			<rect x="764.9" y="435.86" class="st1" width="89.97" height="29.24"/>
			<rect x="764.9" y="435.86" class="st4" width="45.02" height="29.24"/>
			<path class="st2" d="M910.19,465.1c24.83,0,45.02-19.72,45.02-43.83c0-24.17-20.19-43.82-45.02-43.82
				c-24.76,0-44.95,19.66-44.95,43.83C865.24,445.38,885.43,465.1,910.19,465.1z"/>
			<path class="st3" d="M910.19,465.1c24.83,0,45.02-19.72,45.02-43.83c0-24.17-20.19-43.82-45.02-43.82"/>
			<path class="st4" d="M910.19,443.15c12.41,0,22.55-9.79,22.55-21.88c0-12.08-10.13-21.95-22.55-21.95
				c-12.34,0-22.48,9.86-22.48,21.95C887.72,433.36,897.85,443.15,910.19,443.15L910.19,443.15z"/>
			<path class="st2" d="M1010.53,465.1c-24.83,0-44.95-19.66-44.95-43.83c0-24.17,20.12-43.82,44.95-43.82V465.1z"/>
			<rect x="1010.53" y="377.45" class="st3" width="45.02" height="87.65"/>
			<path class="st1" d="M1010.53,443.15c-12.41,0-22.48-9.79-22.48-21.88c0-12.08,10.06-21.88,22.48-21.95V443.15z"/>
			<polygon points="1010.61,399.4 1010.53,399.33 1010.53,399.4 1010.53,443.15 1010.61,443.15 1055.56,443.15 1055.56,399.33 			
				"/>
			<polygon class="st2" points="1065.93,377.45 1155.9,465.1 1065.93,465.1 			"/>
			<polygon class="st4" points="1065.93,465.1 1155.9,377.45 1065.93,377.45 			"/>
			<rect x="1066.11" y="377.1" class="st1" width="45.02" height="87.65"/>
			<rect x="1066.11" y="377.1" class="st3" width="45.02" height="43.04"/>
		</g>
	</g>
	<line class="st0" x1="0" y1="507.49" x2="1818.78" y2="507.49"/>
	<line class="st0" x1="1449.74" y1="541.49" x2="377.04" y2="541.49"/>
	<line class="st0" x1="671.13" y1="577.49" x2="1155.65" y2="577.49"/>
	<g>
		<g>
			<circle class="st6" cx="1509.13" cy="310.62" r="12"/>
			<g>
				<path class="st6" d="M1515.13,274.12c-6.63,0-12-5.37-12-12s5.37-12,12-12"/>
			</g>
			<g>
				<path class="st6" d="M1521.13,209.62c0,6.63-5.37,12-12,12s-12-5.37-12-12"/>
			</g>
			<g>
				<line class="st6" x1="1458.63" y1="249.62" x2="1458.63" y2="274.62"/>
				<line class="st6" x1="1446.13" y1="262.12" x2="1471.13" y2="262.12"/>
			</g>
			<g>
				<line class="st6" x1="1546.79" y1="253.29" x2="1564.47" y2="270.96"/>
				<line class="st6" x1="1546.79" y1="270.96" x2="1564.47" y2="253.29"/>
			</g>
		</g>
		<g>
			<g>
				<g>
					<polyline class="st0" points="1219.04,505.62 1407.13,317.53 1595.22,505.62 					"/>
					<polyline class="st0" points="1310.13,505.62 1407.13,408.62 1504.13,505.62 					"/>
					
						<rect x="1375.29" y="332.8" transform="matrix(0.7071 -0.7071 0.7071 0.7071 154.3052 1101.7745)" class="st7" width="63.64" height="63.64"/>
					<g>
						<rect x="1375.3" y="332.8" class="st0" width="63.64" height="63.64"/>
						<rect x="1399.62" y="357.12" class="st2" width="15" height="15"/>
					</g>
				</g>
				<g>
					<polyline class="st0" points="1498.13,505.62 1595.13,408.62 1692.13,505.62 					"/>
					<polyline class="st0" points="1408.04,505.62 1596.13,317.53 1784.22,505.62 					"/>
					<g>
						<rect x="1563.3" y="332.8" class="st0" width="63.64" height="63.64"/>
						<rect x="1587.62" y="357.12" class="st2" width="15" height="15"/>
					</g>
					
						<rect x="1564.29" y="332.81" transform="matrix(0.7071 -0.7071 0.7071 0.7071 209.6608 1235.4171)" class="st7" width="63.64" height="63.64"/>
				</g>
			</g>
			
				<rect x="1493.11" y="450.62" transform="matrix(0.7071 -0.7071 0.7071 0.7071 115.5756 1195.2738)" class="st2" width="15" height="15"/>
		</g>
	</g>
	<g>
		<g>
			<circle class="st6" cx="324.99" cy="310.62" r="12"/>
			<g>
				<path class="st6" d="M330.99,274.12c-6.63,0-12-5.37-12-12s5.37-12,12-12"/>
			</g>
			<g>
				<path class="st6" d="M336.99,209.62c0,6.63-5.37,12-12,12s-12-5.37-12-12"/>
			</g>
			<g>
				<line class="st6" x1="274.49" y1="249.62" x2="274.49" y2="274.62"/>
				<line class="st6" x1="261.99" y1="262.12" x2="286.99" y2="262.12"/>
			</g>
			<g>
				<line class="st6" x1="362.65" y1="253.29" x2="380.33" y2="270.96"/>
				<line class="st6" x1="362.65" y1="270.96" x2="380.33" y2="253.29"/>
			</g>
		</g>
		<g>
			<g>
				<g>
					<polyline class="st0" points="34.9,505.62 222.99,317.53 411.08,505.62 					"/>
					<polyline class="st0" points="125.99,505.62 222.99,408.62 319.99,505.62 					"/>
					
						<rect x="191.16" y="332.8" transform="matrix(0.7071 -0.7071 0.7071 0.7071 -192.5146 264.4657)" class="st7" width="63.64" height="63.64"/>
					<g>
						<rect x="191.17" y="332.8" class="st0" width="63.64" height="63.64"/>
						<rect x="215.49" y="357.12" class="st2" width="15" height="15"/>
					</g>
				</g>
				<g>
					<polyline class="st0" points="313.99,505.62 410.99,408.62 507.99,505.62 					"/>
					<polyline class="st0" points="223.9,505.62 411.99,317.53 600.08,505.62 					"/>
					<g>
						<rect x="379.17" y="332.8" class="st0" width="63.64" height="63.64"/>
						<rect x="403.49" y="357.12" class="st2" width="15" height="15"/>
					</g>
					
						<rect x="380.16" y="332.8" transform="matrix(0.7071 -0.7071 0.7071 0.7071 -137.1591 398.1083)" class="st7" width="63.64" height="63.64"/>
				</g>
			</g>
			
				<rect x="308.98" y="450.62" transform="matrix(0.7071 -0.7071 0.7071 0.7071 -231.2441 357.9647)" class="st2" width="15" height="15"/>
		</g>
	</g>
</g>
</svg>
