<?xml version="1.0" encoding="utf-8"?>
<!-- Generator: Adobe Illustrator 25.2.3, SVG Export Plug-In . SVG Version: 6.00 Build 0)  -->
<svg version="1.1" id="Layer_1" xmlns="http://www.w3.org/2000/svg" xmlns:xlink="http://www.w3.org/1999/xlink" x="0px" y="0px"
	 viewBox="0 0 1088.6 918" style="enable-background:new 0 0 1088.6 918;" xml:space="preserve">
<style type="text/css">
	.st0{fill:#333333;stroke:#FFFFFF;stroke-miterlimit:10;}
	.st1{fill:none;stroke:#FDB515;stroke-miterlimit:10;}
	.st2{fill:none;stroke:#FFFFFF;stroke-miterlimit:10;}
	.st3{fill:#010101;}
	.st4{fill:#FDB515;}
	.st5{fill:#795221;}
	.st6{fill:#010101;stroke:#FFFFFF;stroke-miterlimit:10;}
	.st7{fill:none;stroke:#795221;stroke-width:15;stroke-miterlimit:10;}
	.st8{fill:none;stroke:#FBB03C;stroke-width:15;stroke-miterlimit:10;}
	.st9{fill:#AE792B;}
	.st10{fill:#795221;stroke:#FFFFFF;stroke-miterlimit:10;}
	.st11{fill:#FBB03C;stroke:#FFFFFF;stroke-miterlimit:10;}
	.st12{fill:#1A1A1A;stroke:#FFFFFF;stroke-miterlimit:10;}
	.st13{fill:#FFFFFF;}
	.st14{fill:#925122;}
	.st15{fill:#1A1A1A;}
	.st16{fill:#FDB515;stroke:#FFFFFF;stroke-miterlimit:10;}
	.st17{fill:#925122;stroke:#FFFFFF;stroke-miterlimit:10;}
	.st18{fill:#AE792B;stroke:#FFFFFF;stroke-miterlimit:10;}
</style>
<g>
	<path class="st0" d="M427,330.4c0-69.2,56.1-125.2,125.2-125.2s125.2,56.1,125.2,125.2"/>
	<g>
		<circle class="st1" cx="401.7" cy="746.1" r="10.5"/>
		<g>
			<path class="st1" d="M407,714.2c-5.8,0-10.5-4.7-10.5-10.5c0-5.8,4.7-10.5,10.5-10.5"/>
		</g>
		<g>
			<path class="st1" d="M412.2,657.7c0,5.8-4.7,10.5-10.5,10.5s-10.5-4.7-10.5-10.5"/>
		</g>
		<g>
			<line class="st1" x1="357.6" y1="692.7" x2="357.6" y2="714.6"/>
			<line class="st1" x1="346.6" y1="703.7" x2="368.5" y2="703.7"/>
		</g>
		<g>
			<line class="st1" x1="434.7" y1="695.9" x2="450.1" y2="711.4"/>
			<line class="st1" x1="434.7" y1="711.4" x2="450.1" y2="695.9"/>
		</g>
	</g>
	<g>
		<circle class="st1" cx="698.3" cy="746.1" r="10.5"/>
		<g>
			<path class="st1" d="M703.6,714.2c-5.8,0-10.5-4.7-10.5-10.5c0-5.8,4.7-10.5,10.5-10.5"/>
		</g>
		<g>
			<path class="st1" d="M708.8,657.7c0,5.8-4.7,10.5-10.5,10.5c-5.8,0-10.5-4.7-10.5-10.5"/>
		</g>
		<g>
			<line class="st1" x1="654.2" y1="692.7" x2="654.2" y2="714.6"/>
			<line class="st1" x1="643.2" y1="703.7" x2="665.1" y2="703.7"/>
		</g>
		<g>
			<line class="st1" x1="731.3" y1="695.9" x2="746.7" y2="711.4"/>
			<line class="st1" x1="731.3" y1="711.4" x2="746.7" y2="695.9"/>
		</g>
	</g>
	<g>
		
			<rect x="315.6" y="96.1" transform="matrix(0.7071 -0.7071 0.7071 0.7071 -73.4447 487.6452)" class="st2" width="472.7" height="472.7"/>
		
			<rect x="435.4" y="218.7" transform="matrix(-0.7071 -0.7071 0.7071 -0.7071 709.6671 973.3843)" class="st3" width="242.1" height="242.1"/>
		<polyline class="st4" points="469.7,424.2 385.2,339.7 556.4,168.5 642.1,254.2 		"/>
		<polyline class="st5" points="642,425.3 556.4,510.9 385.2,339.7 468.6,256.4 		"/>
		<g>
			<g>
				<g>
					<path class="st2" d="M219.1,332.9C219.1,149,368.2,0,552,0s332.9,149,332.9,332.9"/>
					<path class="st6" d="M219.1,332.9C219.1,149,368.2,0,552,0s332.9,149,332.9,332.9"/>
					<path class="st0" d="M259.8,331.6c0-160.3,129.9-290.2,290.2-290.2s290.2,129.9,290.2,290.2"/>
					<circle class="st3" cx="552" cy="332.9" r="249.7"/>
					<path class="st4" d="M801.7,332.9c0,137.9-111.8,249.7-249.7,249.7S302.3,470.8,302.3,332.9"/>
					<path class="st7" d="M428.1,330.6c0-69,55.9-124.9,124.9-124.9s124.9,55.9,124.9,124.9"/>
					<path class="st8" d="M553,205.7c69,0,124.9,55.9,124.9,124.9"/>
					<path class="st3" d="M711.9,332.6c0,87-70.5,157.6-157.6,157.6s-157.6-70.5-157.6-157.6"/>
					<path class="st4" d="M466.2,334.8c0-47.4,38.4-85.8,85.8-85.8s85.8,38.4,85.8,85.8"/>
					<path class="st9" d="M637.8,332.9c0,47.4-38.4,85.8-85.8,85.8s-85.8-38.4-85.8-85.8"/>
					<path class="st5" d="M552.1,247c47.4,0,85.8,38.4,85.8,85.8h-84.3"/>
				</g>
			</g>
		</g>
		<path class="st7" d="M764.1,335.6c0,115.8-93.9,209.7-209.7,209.7s-209.7-93.9-209.7-209.7"/>
		<rect x="540.1" y="452.1" class="st6" width="19.8" height="74.1"/>
		<rect x="550.6" y="452.1" class="st0" width="9.4" height="74.1"/>
		<circle class="st6" cx="550" cy="433.9" r="27.1"/>
		<circle class="st0" cx="550" cy="592.7" r="73.3"/>
		
			<rect x="500.1" y="540.8" transform="matrix(0.7071 -0.7071 0.7071 0.7071 -257.1273 563.1528)" class="st6" width="102.3" height="102.3"/>
		<polyline class="st10" points="524.2,447 511.7,434.4 524.2,421.9 		"/>
		<polyline class="st11" points="511.7,434.4 524.2,421.9 524.2,434.8 		"/>
		<line class="st2" x1="536.1" y1="395.3" x2="547.3" y2="406.5"/>
		<line class="st2" x1="560.3" y1="395.3" x2="549.1" y2="407.5"/>
		<line class="st2" x1="549.1" y1="386.4" x2="549.1" y2="406.7"/>
		<g>
			<circle class="st6" cx="553.3" cy="332.6" r="45.9"/>
			<path class="st0" d="M553.3,378.5c-25.4,0-45.9-20.6-45.9-45.9s20.6-45.9,45.9-45.9"/>
		</g>
		<line class="st6" x1="539.2" y1="664.7" x2="539.2" y2="714.8"/>
		<line class="st6" x1="562.7" y1="664.7" x2="562.7" y2="714.8"/>
		<rect x="534.6" y="714.4" class="st6" width="33.7" height="7"/>
	</g>
	<g>
		<circle class="st10" cx="552.2" cy="332.4" r="27.5"/>
		<path class="st4" d="M525.8,332c0-14.6,11.8-26.4,26.4-26.4c14.6,0,26.4,11.8,26.4,26.4"/>
		<path class="st9" d="M552.3,305c14.6,0,26.4,11.8,26.4,26.4h-26"/>
		<circle class="st6" cx="552.2" cy="331.5" r="15.2"/>
		<path class="st0" d="M567.4,331.5c0,8.4-6.8,15.2-15.2,15.2s-15.2-6.8-15.2-15.2"/>
	</g>
	<polyline class="st2" points="451.3,907.7 548.3,810.7 645.3,907.7 	"/>
	<polyline class="st2" points="511.2,907.7 548.3,870.7 585.4,907.7 	"/>
	<polyline class="st2" points="361.2,907.7 549.3,719.7 737.4,907.7 	"/>
	<g>
		
			<rect x="517.5" y="734.9" transform="matrix(6.123234e-17 -1 1 6.123234e-17 -217.461 1316.0262)" class="st2" width="63.6" height="63.6"/>
		
			<rect x="541.8" y="759.2" transform="matrix(6.123234e-17 -1 1 6.123234e-17 -217.461 1316.0262)" class="st4" width="15" height="15"/>
	</g>
	
		<rect x="517.5" y="734.9" transform="matrix(0.7071 -0.7071 0.7071 0.7071 -381.2885 612.9755)" class="st2" width="63.6" height="63.6"/>
	<g>
		<g>
			<circle class="st12" cx="549.9" cy="432.9" r="18.2"/>
			<path class="st13" d="M568.1,432.9c0,10-8.1,18.2-18.2,18.2c-10,0-18.2-8.1-18.2-18.2"/>
			<circle class="st14" cx="549.9" cy="432.9" r="13.6"/>
			<path class="st4" d="M536.3,433.2c0-7.5,6.1-13.6,13.6-13.6c7.5,0,13.6,6.1,13.6,13.6"/>
		</g>
		<circle class="st15" cx="549.9" cy="432.7" r="4.9"/>
	</g>
	<g>
		<polygon class="st2" points="597,566.1 551.2,591.8 505.4,566.1 551.2,537.8 		"/>
		<polygon class="st2" points="592.9,566.1 551.2,589.5 509.5,566.1 551.2,540.4 		"/>
		<polyline class="st2" points="592.9,620.1 551.2,643.5 509.5,620.1 		"/>
		<polyline class="st2" points="597,620.1 551.2,645.8 505.4,620.1 		"/>
		<line class="st2" x1="505.5" y1="566.1" x2="505.5" y2="620.6"/>
		<line class="st2" x1="509.2" y1="566.2" x2="509.2" y2="620.7"/>
		<line class="st2" x1="593.2" y1="566.1" x2="593.2" y2="620.6"/>
		<line class="st2" x1="596.9" y1="566.2" x2="596.9" y2="620.7"/>
		<line class="st2" x1="551.2" y1="589.4" x2="551.2" y2="645.7"/>
		<line class="st2" x1="551.2" y1="590.4" x2="551.2" y2="594.1"/>
	</g>
	<g>
		<g>
			<path class="st0" d="M32.8,824.3l0,43.6c24.1,0,44.2-19.5,44.2-43.6"/>
			<path class="st0" d="M218.4,660.1c45.3,0,81.9,36.7,81.9,81.9c0,45.3-36.7,81.9-81.9,81.9"/>
			<path class="st16" d="M283.1,659c16.4,0,29.8-13.3,29.8-29.8h-30.9L283.1,659z"/>
			<path class="st16" d="M29.8,710.5C13.3,710.5,0,723.8,0,740.2h30.9L29.8,710.5z"/>
			<path class="st6" d="M218.4,679.4c33.9,0,61.5,27.5,61.5,61.5c0,33.9-27.5,61.5-61.5,61.5"/>
			<path class="st17" d="M218.4,717.2c14.3,0,25.9,11.6,25.9,25.9c0,14.3-11.6,25.9-25.9,25.9"/>
			<path class="st16" d="M217.8,717.2c14.3,0,25.9,11.6,25.9,25.9s-11.6,25.9-25.9,25.9"/>
			<path class="st16" d="M218.8,629.2c0,14.1-11.4,25.5-25.5,25.5c-14.1,0-25.5-11.4-25.5-25.5"/>
			<path class="st10" d="M244.3,740.9c0,16.6-12.8,28.2-27.1,28.2v-27.8"/>
			<path class="st6" d="M33.5,857c18,0,32.7-14.6,32.7-32.7H32.8"/>
			<path class="st17" d="M53.8,824.3c0,11-9,20-20,20"/>
			<path class="st16" d="M53.3,824.3c0,11-9,20-20,20"/>
			<path class="st10" d="M32.9,823.8v19.7c11,0,20-9,20-20"/>
			<rect x="31.9" y="741.5" class="st10" width="186.1" height="82.5"/>
			<rect x="31.9" y="801.5" class="st0" width="186.1" height="22.6"/>
			<rect x="32.1" y="769" class="st3" width="186" height="33"/>
			<rect x="218.3" y="628.9" class="st6" width="69" height="30.3"/>
			<rect x="18.6" y="844.2" class="st6" width="14.2" height="74.1"/>
			<rect x="199.4" y="843.1" class="st6" width="14.2" height="75.2"/>
			<polyline class="st6" points="199.4,823.3 199.4,859.8 233.4,822.9 			"/>
			<line class="st0" x1="218.3" y1="628.9" x2="218.3" y2="561"/>
			<line class="st2" x1="189.6" y1="593" x2="246.6" y2="593"/>
			<line class="st2" x1="203.4" y1="605" x2="203.4" y2="582.2"/>
			<line class="st2" x1="231" y1="605" x2="231" y2="582.2"/>
		</g>
		<g>
			<circle class="st10" cx="33.3" cy="741.4" r="18.8"/>
			<path class="st16" d="M15.2,741.2c0-10,8.1-18.1,18.1-18.1s18.1,8.1,18.1,18.1"/>
			<path class="st18" d="M33.3,722.7c10,0,18.1,8.1,18.1,18.1H33.6"/>
			<circle class="st6" cx="33.3" cy="740.8" r="10.4"/>
			<path class="st0" d="M43.7,740.8c0,5.7-4.7,10.4-10.4,10.4s-10.4-4.7-10.4-10.4"/>
		</g>
		<g>
			<circle class="st10" cx="34.2" cy="826.7" r="18.8"/>
			<path class="st16" d="M16.1,826.5c0-10,8.1-18.1,18.1-18.1s18.1,8.1,18.1,18.1"/>
			<path class="st18" d="M34.2,808c10,0,18.1,8.1,18.1,18.1H34.5"/>
			<circle class="st6" cx="34.2" cy="826.1" r="10.4"/>
			<path class="st0" d="M44.6,826.1c0,5.7-4.7,10.4-10.4,10.4s-10.4-4.7-10.4-10.4"/>
		</g>
		<g>
			<circle class="st10" cx="214.1" cy="826.7" r="18.8"/>
			<path class="st16" d="M196,826.5c0-10,8.1-18.1,18.1-18.1s18.1,8.1,18.1,18.1"/>
			<path class="st18" d="M214.1,808c10,0,18.1,8.1,18.1,18.1h-17.8"/>
			<circle class="st6" cx="214.1" cy="826.1" r="10.4"/>
			<path class="st0" d="M224.5,826.1c0,5.7-4.7,10.4-10.4,10.4c-5.7,0-10.4-4.7-10.4-10.4"/>
		</g>
		<g>
			<circle class="st10" cx="217.5" cy="741.4" r="18.8"/>
			<path class="st16" d="M199.4,741.2c0-10,8.1-18.1,18.1-18.1s18.1,8.1,18.1,18.1"/>
			<path class="st18" d="M217.6,722.7c10,0,18.1,8.1,18.1,18.1h-17.8"/>
			<circle class="st6" cx="217.5" cy="740.8" r="10.4"/>
			<path class="st0" d="M227.9,740.8c0,5.7-4.7,10.4-10.4,10.4s-10.4-4.7-10.4-10.4"/>
		</g>
	</g>
	<g>
		<g>
			<path class="st0" d="M1060,824.3l0,43.6c-24.1,0-44.2-19.5-44.2-43.6"/>
			<path class="st0" d="M874.4,660.1c-45.3,0-81.9,36.7-81.9,81.9c0,45.3,36.7,81.9,81.9,81.9"/>
			<path class="st16" d="M809.8,659c-16.4,0-29.8-13.3-29.8-29.8h30.9L809.8,659z"/>
			<path class="st16" d="M1063.1,710.5c16.4,0,29.8,13.3,29.8,29.8h-30.9L1063.1,710.5z"/>
			<path class="st6" d="M874.4,679.4c-33.9,0-61.5,27.5-61.5,61.5c0,33.9,27.5,61.5,61.5,61.5"/>
			<path class="st17" d="M874.4,717.2c-14.3,0-25.9,11.6-25.9,25.9c0,14.3,11.6,25.9,25.9,25.9"/>
			<path class="st16" d="M875,717.2c-14.3,0-25.9,11.6-25.9,25.9s11.6,25.9,25.9,25.9"/>
			<path class="st16" d="M874,629.2c0,14.1,11.4,25.5,25.5,25.5c14.1,0,25.5-11.4,25.5-25.5"/>
			<path class="st10" d="M848.5,740.9c0,16.6,12.8,28.2,27.1,28.2v-27.8"/>
			<path class="st6" d="M1059.3,857c-18,0-32.7-14.6-32.7-32.7h33.3"/>
			<path class="st17" d="M1039.1,824.3c0,11,9,20,20,20"/>
			<path class="st16" d="M1039.5,824.3c0,11,9,20,20,20"/>
			<path class="st10" d="M1059.9,823.8v19.7c-11,0-20-9-20-20"/>
			
				<rect x="874.7" y="741.5" transform="matrix(-1 -4.489576e-11 4.489576e-11 -1 1935.6224 1565.5906)" class="st10" width="186.1" height="82.5"/>
			
				<rect x="874.7" y="801.5" transform="matrix(-1 -4.489576e-11 4.489576e-11 -1 1935.6224 1625.5555)" class="st0" width="186.1" height="22.6"/>
			
				<rect x="874.7" y="769" transform="matrix(-1 -4.489266e-11 4.489266e-11 -1 1935.4741 1570.934)" class="st3" width="186" height="33"/>
			
				<rect x="805.5" y="628.9" transform="matrix(-1 -4.488821e-11 4.488821e-11 -1 1680.0291 1288.1285)" class="st6" width="69" height="30.3"/>
			
				<rect x="1059.9" y="844.2" transform="matrix(-1 -4.493529e-11 4.493529e-11 -1 2134.1206 1762.4559)" class="st6" width="14.2" height="74.1"/>
			
				<rect x="879.2" y="843.1" transform="matrix(-1 -4.493529e-11 4.493529e-11 -1 1772.5493 1761.318)" class="st6" width="14.2" height="75.2"/>
			<polyline class="st6" points="893.4,823.3 893.4,859.8 859.5,822.9 			"/>
			<line class="st0" x1="874.5" y1="628.9" x2="874.5" y2="561"/>
			<line class="st2" x1="903.2" y1="593" x2="846.2" y2="593"/>
			<line class="st2" x1="889.4" y1="605" x2="889.4" y2="582.2"/>
			<line class="st2" x1="861.8" y1="605" x2="861.8" y2="582.2"/>
		</g>
		<g>
			<circle class="st10" cx="1059.5" cy="741.4" r="18.8"/>
			<path class="st16" d="M1077.6,741.2c0-10-8.1-18.1-18.1-18.1s-18.1,8.1-18.1,18.1"/>
			<path class="st18" d="M1059.5,722.7c-10,0-18.1,8.1-18.1,18.1h17.8"/>
			<circle class="st6" cx="1059.5" cy="740.8" r="10.4"/>
			<path class="st0" d="M1049.1,740.8c0,5.7,4.7,10.4,10.4,10.4s10.4-4.7,10.4-10.4"/>
		</g>
		<g>
			<circle class="st10" cx="1058.6" cy="826.7" r="18.8"/>
			<path class="st16" d="M1076.7,826.5c0-10-8.1-18.1-18.1-18.1s-18.1,8.1-18.1,18.1"/>
			<path class="st18" d="M1058.6,808c-10,0-18.1,8.1-18.1,18.1h17.8"/>
			<circle class="st6" cx="1058.6" cy="826.1" r="10.4"/>
			<path class="st0" d="M1048.3,826.1c0,5.7,4.7,10.4,10.4,10.4c5.7,0,10.4-4.7,10.4-10.4"/>
		</g>
		<g>
			<circle class="st10" cx="878.8" cy="826.7" r="18.8"/>
			<path class="st16" d="M896.8,826.5c0-10-8.1-18.1-18.1-18.1c-10,0-18.1,8.1-18.1,18.1"/>
			<path class="st18" d="M878.7,808c-10,0-18.1,8.1-18.1,18.1h17.8"/>
			<circle class="st6" cx="878.8" cy="826.1" r="10.4"/>
			<path class="st0" d="M868.4,826.1c0,5.7,4.7,10.4,10.4,10.4c5.7,0,10.4-4.7,10.4-10.4"/>
		</g>
		<g>
			<circle class="st10" cx="875.3" cy="741.4" r="18.8"/>
			<path class="st16" d="M893.4,741.2c0-10-8.1-18.1-18.1-18.1s-18.1,8.1-18.1,18.1"/>
			<path class="st18" d="M875.3,722.7c-10,0-18.1,8.1-18.1,18.1h17.8"/>
			<circle class="st6" cx="875.3" cy="740.8" r="10.4"/>
			<path class="st0" d="M864.9,740.8c0,5.7,4.7,10.4,10.4,10.4s10.4-4.7,10.4-10.4"/>
		</g>
	</g>
</g>
</svg>
