<svg id="b28a7175-0e67-470d-9fb0-2bde47b6a096" data-name="Layer 1" xmlns="http://www.w3.org/2000/svg" viewBox="0 0 400 400"><path d="M156.64,147.93a45.67,45.67,0,1,1,91.34,0" style="fill:#333;stroke:#fff;stroke-miterlimit:10"/><circle cx="147.41" cy="299.53" r="3.83" style="fill:none;stroke:#fdb515;stroke-miterlimit:10"/><path d="M149.33,287.89a3.83,3.83,0,0,1,0-7.66" style="fill:none;stroke:#fdb515;stroke-miterlimit:10"/><path d="M151.24,267.31a3.83,3.83,0,1,1-7.65,0" style="fill:none;stroke:#fdb515;stroke-miterlimit:10"/><line x1="131.3" y1="280.07" x2="131.3" y2="288.04" style="fill:none;stroke:#fdb515;stroke-miterlimit:10"/><line x1="127.32" y1="284.06" x2="135.29" y2="284.06" style="fill:none;stroke:#fdb515;stroke-miterlimit:10"/><line x1="159.43" y1="281.24" x2="165.07" y2="286.88" style="fill:none;stroke:#fdb515;stroke-miterlimit:10"/><line x1="159.43" y1="286.88" x2="165.07" y2="281.24" style="fill:none;stroke:#fdb515;stroke-miterlimit:10"/><circle cx="255.59" cy="299.53" r="3.83" style="fill:none;stroke:#fdb515;stroke-miterlimit:10"/><path d="M257.51,287.89a3.83,3.83,0,0,1,0-7.66" style="fill:none;stroke:#fdb515;stroke-miterlimit:10"/><path d="M259.42,267.31a3.83,3.83,0,1,1-7.65,0" style="fill:none;stroke:#fdb515;stroke-miterlimit:10"/><line x1="239.48" y1="280.07" x2="239.48" y2="288.04" style="fill:none;stroke:#fdb515;stroke-miterlimit:10"/><line x1="235.5" y1="284.06" x2="243.47" y2="284.06" style="fill:none;stroke:#fdb515;stroke-miterlimit:10"/><line x1="267.61" y1="281.24" x2="273.25" y2="286.88" style="fill:none;stroke:#fdb515;stroke-miterlimit:10"/><line x1="267.61" y1="286.88" x2="273.25" y2="281.24" style="fill:none;stroke:#fdb515;stroke-miterlimit:10"/><rect x="115.99" y="62.47" width="172.41" height="172.41" transform="translate(-45.91 186.52) rotate(-45)" style="fill:none;stroke:#fff;stroke-miterlimit:10"/><rect x="159.68" y="107.16" width="88.31" height="88.31" transform="translate(240.98 402.44) rotate(-135)" style="fill:#010101"/><polyline points="172.19 182.11 141.4 151.31 203.84 88.87 235.09 120.12" style="fill:#fdb515"/><polyline points="235.06 182.53 203.84 213.75 141.4 151.31 171.79 120.91" style="fill:#795221"/><path d="M80.81,148.82a121.42,121.42,0,1,1,242.83,0" style="fill:none;stroke:#fff;stroke-miterlimit:10"/><path d="M80.81,148.82a121.42,121.42,0,1,1,242.83,0" style="fill:#010101;stroke:#fff;stroke-miterlimit:10"/><path d="M95.63,148.33a105.87,105.87,0,0,1,211.73,0" style="fill:#333;stroke:#fff;stroke-miterlimit:10"/><circle cx="202.22" cy="148.82" r="91.06" style="fill:#010101"/><path d="M293.28,148.82a91.06,91.06,0,0,1-182.12,0" style="fill:#fdb515"/><path d="M157.05,148a45.54,45.54,0,1,1,91.08,0" style="fill:none;stroke:#795221;stroke-miterlimit:10;stroke-width:15px"/><path d="M202.59,102.44A45.54,45.54,0,0,1,248.13,148" style="fill:none;stroke:#fbb03c;stroke-miterlimit:10;stroke-width:15px"/><path d="M260.55,148.7a57.47,57.47,0,1,1-114.94,0" style="fill:#010101"/><path d="M170.94,149.53a31.29,31.29,0,0,1,62.58,0" style="fill:#fdb515"/><path d="M233.52,148.81a31.29,31.29,0,0,1-62.58,0" style="fill:#ae792b"/><path d="M202.28,117.48a31.29,31.29,0,0,1,31.29,31.29H202.82" style="fill:#795221"/><path d="M279.58,149.8a76.5,76.5,0,1,1-153,0" style="fill:none;stroke:#795221;stroke-miterlimit:10;stroke-width:15px"/><rect x="197.89" y="192.31" width="7.23" height="27.02" style="fill:#010101;stroke:#fff;stroke-miterlimit:10"/><rect x="201.7" y="192.31" width="3.42" height="27.02" style="fill:#333;stroke:#fff;stroke-miterlimit:10"/><circle cx="201.51" cy="185.65" r="9.9" style="fill:#010101;stroke:#fff;stroke-miterlimit:10"/><circle cx="201.51" cy="243.58" r="26.74" style="fill:#333;stroke:#fff;stroke-miterlimit:10"/><rect x="183.29" y="224.66" width="37.3" height="37.3" transform="translate(-112.9 214.06) rotate(-45)" style="fill:#010101;stroke:#fff;stroke-miterlimit:10"/><polyline points="192.09 190.43 187.52 185.85 192.09 181.28" style="fill:#795221;stroke:#fff;stroke-miterlimit:10"/><polyline points="187.52 185.85 192.09 181.28 192.09 185.99" style="fill:#fbb03c;stroke:#fff;stroke-miterlimit:10"/><line x1="196.42" y1="171.57" x2="200.51" y2="175.66" style="fill:none;stroke:#fff;stroke-miterlimit:10"/><line x1="205.25" y1="171.57" x2="201.16" y2="176.03" style="fill:none;stroke:#fff;stroke-miterlimit:10"/><line x1="201.18" y1="168.34" x2="201.18" y2="175.76" style="fill:none;stroke:#fff;stroke-miterlimit:10"/><circle cx="202.7" cy="148.7" r="16.75" style="fill:#010101;stroke:#fff;stroke-miterlimit:10"/><path d="M202.7,165.45a16.75,16.75,0,1,1,0-33.49" style="fill:#333;stroke:#fff;stroke-miterlimit:10"/><line x1="197.56" y1="269.85" x2="197.56" y2="288.11" style="fill:#010101;stroke:#fff;stroke-miterlimit:10"/><line x1="206.13" y1="269.85" x2="206.13" y2="288.11" style="fill:#010101;stroke:#fff;stroke-miterlimit:10"/><rect x="195.87" y="287.99" width="12.27" height="2.57" style="fill:#010101;stroke:#fff;stroke-miterlimit:10"/><circle cx="202.29" cy="148.63" r="10.03" style="fill:#795221;stroke:#fff;stroke-miterlimit:10"/><path d="M192.65,148.51a9.65,9.65,0,0,1,19.3,0" style="fill:#fdb515"/><path d="M202.31,138.63a9.65,9.65,0,0,1,9.65,9.65h-9.48" style="fill:#ae792b"/><circle cx="202.29" cy="148.32" r="5.55" style="fill:#010101;stroke:#fff;stroke-miterlimit:10"/><path d="M207.84,148.32a5.55,5.55,0,1,1-11.09,0" style="fill:#333;stroke:#fff;stroke-miterlimit:10"/><circle cx="202.29" cy="81.18" r="10.03" style="fill:#795221;stroke:#fff;stroke-miterlimit:10"/><path d="M192.65,81.07a9.65,9.65,0,1,1,19.3,0" style="fill:#fdb515"/><path d="M202.31,71.19A9.65,9.65,0,0,1,212,80.83h-9.48" style="fill:#ae792b"/><circle cx="202.29" cy="80.88" r="5.55" style="fill:#010101;stroke:#fff;stroke-miterlimit:10"/><path d="M207.84,80.88a5.55,5.55,0,1,1-11.09,0" style="fill:#333;stroke:#fff;stroke-miterlimit:10"/><circle cx="144.87" cy="115.2" r="10.03" style="fill:#795221;stroke:#fff;stroke-miterlimit:10"/><path d="M135.23,115.08a9.65,9.65,0,0,1,19.29,0" style="fill:#fdb515"/><path d="M144.89,105.2a9.65,9.65,0,0,1,9.65,9.65h-9.48" style="fill:#ae792b"/><circle cx="144.87" cy="114.89" r="5.55" style="fill:#010101;stroke:#fff;stroke-miterlimit:10"/><path d="M150.42,114.89a5.55,5.55,0,1,1-11.1,0" style="fill:#333;stroke:#fff;stroke-miterlimit:10"/><circle cx="264.01" cy="115.2" r="10.03" style="fill:#795221;stroke:#fff;stroke-miterlimit:10"/><path d="M254.37,115.08a9.65,9.65,0,0,1,19.3,0" style="fill:#fdb515"/><path d="M264,105.2a9.65,9.65,0,0,1,9.64,9.65H264.2" style="fill:#ae792b"/><circle cx="264.01" cy="114.89" r="5.55" style="fill:#010101;stroke:#fff;stroke-miterlimit:10"/><path d="M269.56,114.89a5.55,5.55,0,1,1-11.09,0" style="fill:#333;stroke:#fff;stroke-miterlimit:10"/><polyline points="165.49 358.5 200.87 323.12 236.25 358.5" style="fill:none;stroke:#fff;stroke-miterlimit:10"/><polyline points="187.34 358.5 200.87 344.97 214.39 358.5" style="fill:none;stroke:#fff;stroke-miterlimit:10"/><polyline points="132.63 358.5 201.23 289.89 269.84 358.5" style="fill:none;stroke:#fff;stroke-miterlimit:10"/><rect x="189.63" y="295.46" width="23.21" height="23.21" transform="translate(-105.83 508.3) rotate(-90)" style="fill:none;stroke:#fff;stroke-miterlimit:10"/><rect x="198.5" y="304.33" width="5.47" height="5.47" transform="translate(-105.83 508.3) rotate(-90)" style="fill:#fdb515"/><rect x="189.63" y="295.46" width="23.21" height="23.21" transform="translate(-158.19 232.23) rotate(-45)" style="fill:none;stroke:#fff;stroke-miterlimit:10"/><circle cx="201.46" cy="185.3" r="6.63" style="fill:#1a1a1a;stroke:#fff;stroke-miterlimit:10"/><path d="M208.09,185.3a6.63,6.63,0,0,1-13.26,0" style="fill:#fff"/><circle cx="201.46" cy="185.3" r="4.97" style="fill:#925122"/><path d="M196.49,185.41a5,5,0,0,1,9.94,0" style="fill:#fdb515"/><circle cx="201.45" cy="185.21" r="1.81" style="fill:#1a1a1a"/><polygon points="218.65 233.87 201.93 243.26 185.21 233.87 201.93 223.57 218.65 233.87" style="fill:none;stroke:#fff;stroke-miterlimit:10"/><polygon points="217.14 233.87 201.93 242.41 186.72 233.87 201.93 224.5 217.14 233.87" style="fill:none;stroke:#fff;stroke-miterlimit:10"/><polyline points="217.14 253.57 201.93 262.12 186.72 253.57" style="fill:none;stroke:#fff;stroke-miterlimit:10"/><polyline points="218.65 253.57 201.93 262.96 185.21 253.57" style="fill:none;stroke:#fff;stroke-miterlimit:10"/><line x1="185.25" y1="233.87" x2="185.25" y2="253.76" style="fill:none;stroke:#fff;stroke-miterlimit:10"/><line x1="186.63" y1="233.92" x2="186.63" y2="253.8" style="fill:none;stroke:#fff;stroke-miterlimit:10"/><line x1="217.23" y1="233.87" x2="217.23" y2="253.76" style="fill:none;stroke:#fff;stroke-miterlimit:10"/><line x1="218.61" y1="233.92" x2="218.61" y2="253.8" style="fill:none;stroke:#fff;stroke-miterlimit:10"/><line x1="201.93" y1="242.39" x2="201.93" y2="262.92" style="fill:none;stroke:#fff;stroke-miterlimit:10"/><line x1="201.93" y1="242.74" x2="201.93" y2="244.09" style="fill:none;stroke:#fff;stroke-miterlimit:10"/><path d="M12.86,328.05v15.89A16.08,16.08,0,0,0,29,328.05" style="fill:#333;stroke:#fff;stroke-miterlimit:10"/><path d="M80.53,268.16a29.89,29.89,0,1,1,0,59.78" style="fill:#333;stroke:#fff;stroke-miterlimit:10"/><path d="M104.13,267.78A10.86,10.86,0,0,0,115,256.92H103.7Z" style="fill:#fdb515;stroke:#fff;stroke-miterlimit:10"/><path d="M11.74,286.54A10.86,10.86,0,0,0,.88,297.4H12.16Z" style="fill:#fdb515;stroke:#fff;stroke-miterlimit:10"/><path d="M80.53,275.22a22.42,22.42,0,1,1,0,44.83" style="fill:#010101;stroke:#fff;stroke-miterlimit:10"/><path d="M80.53,289a9.47,9.47,0,1,1,0,18.93" style="fill:#925122;stroke:#fff;stroke-miterlimit:10"/><path d="M80.32,289a9.47,9.47,0,0,1,0,18.93" style="fill:#fdb515;stroke:#fff;stroke-miterlimit:10"/><path d="M80.7,256.9a9.29,9.29,0,0,1-18.58,0" style="fill:#fdb515;stroke:#fff;stroke-miterlimit:10"/><path d="M90,297.65a10,10,0,0,1-9.88,10.29V297.81" style="fill:#795221;stroke:#fff;stroke-miterlimit:10"/><path d="M13.09,340A11.92,11.92,0,0,0,25,328.05H12.86" style="fill:#010101;stroke:#fff;stroke-miterlimit:10"/><path d="M20.49,328.05a7.29,7.29,0,0,1-7.29,7.29" style="fill:#925122;stroke:#fff;stroke-miterlimit:10"/><path d="M20.33,328.05a7.29,7.29,0,0,1-7.3,7.29" style="fill:#fdb515;stroke:#fff;stroke-miterlimit:10"/><path d="M12.88,327.86V335a7.3,7.3,0,0,0,7.3-7.3" style="fill:#795221;stroke:#fff;stroke-miterlimit:10"/><rect x="12.53" y="297.87" width="67.89" height="30.1" style="fill:#795221;stroke:#fff;stroke-miterlimit:10"/><rect x="12.53" y="319.74" width="67.89" height="8.23" style="fill:#333;stroke:#fff;stroke-miterlimit:10"/><rect x="12.59" y="307.89" width="67.84" height="12.02" style="fill:#010101"/><rect x="80.51" y="256.8" width="25.16" height="11.04" style="fill:#010101;stroke:#fff;stroke-miterlimit:10"/><rect x="7.68" y="335.32" width="5.2" height="27.01" style="fill:#010101;stroke:#fff;stroke-miterlimit:10"/><rect x="73.62" y="334.9" width="5.2" height="27.43" style="fill:#010101;stroke:#fff;stroke-miterlimit:10"/><polyline points="73.62 327.7 73.62 341.02 86 327.56" style="fill:#010101;stroke:#fff;stroke-miterlimit:10"/><line x1="80.51" y1="256.8" x2="80.51" y2="232.04" style="fill:#333;stroke:#fff;stroke-miterlimit:10"/><line x1="70.03" y1="243.68" x2="90.82" y2="243.68" style="fill:none;stroke:#fff;stroke-miterlimit:10"/><line x1="75.08" y1="248.08" x2="75.08" y2="239.74" style="fill:none;stroke:#fff;stroke-miterlimit:10"/><line x1="85.15" y1="248.08" x2="85.15" y2="239.74" style="fill:none;stroke:#fff;stroke-miterlimit:10"/><circle cx="13.02" cy="297.82" r="6.86" style="fill:#795221;stroke:#fff;stroke-miterlimit:10"/><path d="M6.43,297.75a6.6,6.6,0,1,1,13.19,0" style="fill:#fdb515;stroke:#fff;stroke-miterlimit:10"/><path d="M13,291a6.59,6.59,0,0,1,6.6,6.6H13.15" style="fill:#ae792b;stroke:#fff;stroke-miterlimit:10"/><circle cx="13.02" cy="297.62" r="3.79" style="fill:#010101;stroke:#fff;stroke-miterlimit:10"/><path d="M16.81,297.62a3.79,3.79,0,0,1-7.58,0" style="fill:#333;stroke:#fff;stroke-miterlimit:10"/><circle cx="13.35" cy="328.94" r="6.86" style="fill:#795221;stroke:#fff;stroke-miterlimit:10"/><path d="M6.75,328.86a6.6,6.6,0,1,1,13.19,0" style="fill:#fdb515;stroke:#fff;stroke-miterlimit:10"/><path d="M13.36,322.1A6.6,6.6,0,0,1,20,328.7H13.47" style="fill:#ae792b;stroke:#fff;stroke-miterlimit:10"/><circle cx="13.35" cy="328.73" r="3.79" style="fill:#010101;stroke:#fff;stroke-miterlimit:10"/><path d="M17.14,328.73a3.8,3.8,0,0,1-7.59,0" style="fill:#333;stroke:#fff;stroke-miterlimit:10"/><circle cx="78.96" cy="328.94" r="6.86" style="fill:#795221;stroke:#fff;stroke-miterlimit:10"/><path d="M72.37,328.86a6.6,6.6,0,1,1,13.19,0" style="fill:#fdb515;stroke:#fff;stroke-miterlimit:10"/><path d="M79,322.1a6.6,6.6,0,0,1,6.6,6.6H79.09" style="fill:#ae792b;stroke:#fff;stroke-miterlimit:10"/><circle cx="78.96" cy="328.73" r="3.79" style="fill:#010101;stroke:#fff;stroke-miterlimit:10"/><path d="M82.75,328.73a3.79,3.79,0,0,1-7.58,0" style="fill:#333;stroke:#fff;stroke-miterlimit:10"/><circle cx="80.22" cy="297.82" r="6.86" style="fill:#795221;stroke:#fff;stroke-miterlimit:10"/><path d="M73.63,297.75a6.6,6.6,0,1,1,13.19,0" style="fill:#fdb515;stroke:#fff;stroke-miterlimit:10"/><path d="M80.24,291a6.59,6.59,0,0,1,6.59,6.6H80.35" style="fill:#ae792b;stroke:#fff;stroke-miterlimit:10"/><circle cx="80.22" cy="297.62" r="3.79" style="fill:#010101;stroke:#fff;stroke-miterlimit:10"/><path d="M84,297.62a3.8,3.8,0,0,1-7.59,0" style="fill:#333;stroke:#fff;stroke-miterlimit:10"/><path d="M387.51,328.05v15.89a16.08,16.08,0,0,1-16.12-15.89" style="fill:#333;stroke:#fff;stroke-miterlimit:10"/><path d="M319.83,268.16a29.89,29.89,0,0,0,0,59.78" style="fill:#333;stroke:#fff;stroke-miterlimit:10"/><path d="M296.24,267.78a10.86,10.86,0,0,1-10.86-10.86h11.28Z" style="fill:#fdb515;stroke:#fff;stroke-miterlimit:10"/><path d="M388.62,286.54a10.86,10.86,0,0,1,10.86,10.86H388.2Z" style="fill:#fdb515;stroke:#fff;stroke-miterlimit:10"/><path d="M319.83,275.22a22.42,22.42,0,0,0,0,44.83" style="fill:#010101;stroke:#fff;stroke-miterlimit:10"/><path d="M319.83,289a9.47,9.47,0,0,0,0,18.93" style="fill:#925122;stroke:#fff;stroke-miterlimit:10"/><path d="M320.05,289a9.47,9.47,0,0,0,0,18.93" style="fill:#fdb515;stroke:#fff;stroke-miterlimit:10"/><path d="M319.66,256.9a9.3,9.3,0,0,0,18.59,0" style="fill:#fdb515;stroke:#fff;stroke-miterlimit:10"/><path d="M310.36,297.65a10,10,0,0,0,9.87,10.29V297.81" style="fill:#795221;stroke:#fff;stroke-miterlimit:10"/><path d="M387.27,340a11.92,11.92,0,0,1-11.92-11.92h12.16" style="fill:#010101;stroke:#fff;stroke-miterlimit:10"/><path d="M379.87,328.05a7.29,7.29,0,0,0,7.3,7.29" style="fill:#925122;stroke:#fff;stroke-miterlimit:10"/><path d="M380,328.05a7.29,7.29,0,0,0,7.3,7.29" style="fill:#fdb515;stroke:#fff;stroke-miterlimit:10"/><path d="M387.48,327.86V335a7.29,7.29,0,0,1-7.29-7.3" style="fill:#795221;stroke:#fff;stroke-miterlimit:10"/><rect x="319.94" y="297.87" width="67.89" height="30.1" transform="translate(707.77 625.84) rotate(-180)" style="fill:#795221;stroke:#fff;stroke-miterlimit:10"/><rect x="319.94" y="319.74" width="67.89" height="8.23" transform="translate(707.77 647.71) rotate(-180)" style="fill:#333;stroke:#fff;stroke-miterlimit:10"/><rect x="319.94" y="307.89" width="67.84" height="12.02" transform="translate(707.72 627.79) rotate(-180)" style="fill:#010101"/><rect x="294.7" y="256.8" width="25.16" height="11.04" transform="translate(614.55 524.64) rotate(-180)" style="fill:#010101;stroke:#fff;stroke-miterlimit:10"/><rect x="387.49" y="335.32" width="5.2" height="27.01" transform="translate(780.17 697.65) rotate(-180)" style="fill:#010101;stroke:#fff;stroke-miterlimit:10"/><rect x="321.55" y="334.9" width="5.2" height="27.43" transform="translate(648.29 697.23) rotate(-180)" style="fill:#010101;stroke:#fff;stroke-miterlimit:10"/><polyline points="326.75 327.7 326.75 341.02 314.37 327.56" style="fill:#010101;stroke:#fff;stroke-miterlimit:10"/><line x1="319.85" y1="256.8" x2="319.85" y2="232.04" style="fill:#333;stroke:#fff;stroke-miterlimit:10"/><line x1="330.34" y1="243.68" x2="309.55" y2="243.68" style="fill:none;stroke:#fff;stroke-miterlimit:10"/><line x1="325.28" y1="248.08" x2="325.28" y2="239.74" style="fill:none;stroke:#fff;stroke-miterlimit:10"/><line x1="315.21" y1="248.08" x2="315.21" y2="239.74" style="fill:none;stroke:#fff;stroke-miterlimit:10"/><circle cx="387.34" cy="297.82" r="6.86" style="fill:#795221;stroke:#fff;stroke-miterlimit:10"/><path d="M393.94,297.75a6.6,6.6,0,1,0-13.2,0" style="fill:#fdb515;stroke:#fff;stroke-miterlimit:10"/><path d="M387.33,291a6.6,6.6,0,0,0-6.6,6.6h6.49" style="fill:#ae792b;stroke:#fff;stroke-miterlimit:10"/><circle cx="387.34" cy="297.62" r="3.79" style="fill:#010101;stroke:#fff;stroke-miterlimit:10"/><path d="M383.55,297.62a3.8,3.8,0,0,0,7.59,0" style="fill:#333;stroke:#fff;stroke-miterlimit:10"/><circle cx="387.02" cy="328.94" r="6.86" style="fill:#795221;stroke:#fff;stroke-miterlimit:10"/><path d="M393.61,328.86a6.6,6.6,0,1,0-13.19,0" style="fill:#fdb515;stroke:#fff;stroke-miterlimit:10"/><path d="M387,322.1a6.6,6.6,0,0,0-6.6,6.6h6.48" style="fill:#ae792b;stroke:#fff;stroke-miterlimit:10"/><circle cx="387.02" cy="328.73" r="3.79" style="fill:#010101;stroke:#fff;stroke-miterlimit:10"/><path d="M383.23,328.73a3.79,3.79,0,0,0,7.58,0" style="fill:#333;stroke:#fff;stroke-miterlimit:10"/><circle cx="321.4" cy="328.94" r="6.86" style="fill:#795221;stroke:#fff;stroke-miterlimit:10"/><path d="M328,328.86a6.6,6.6,0,1,0-13.2,0" style="fill:#fdb515;stroke:#fff;stroke-miterlimit:10"/><path d="M321.39,322.1a6.61,6.61,0,0,0-6.6,6.6h6.49" style="fill:#ae792b;stroke:#fff;stroke-miterlimit:10"/><circle cx="321.4" cy="328.73" r="3.79" style="fill:#010101;stroke:#fff;stroke-miterlimit:10"/><path d="M317.61,328.73a3.8,3.8,0,0,0,7.59,0" style="fill:#333;stroke:#fff;stroke-miterlimit:10"/><circle cx="320.14" cy="297.82" r="6.86" style="fill:#795221;stroke:#fff;stroke-miterlimit:10"/><path d="M326.73,297.75a6.6,6.6,0,1,0-13.19,0" style="fill:#fdb515;stroke:#fff;stroke-miterlimit:10"/><path d="M320.13,291a6.59,6.59,0,0,0-6.6,6.6H320" style="fill:#ae792b;stroke:#fff;stroke-miterlimit:10"/><circle cx="320.14" cy="297.62" r="3.79" style="fill:#010101;stroke:#fff;stroke-miterlimit:10"/><path d="M316.35,297.62a3.79,3.79,0,0,0,7.58,0" style="fill:#333;stroke:#fff;stroke-miterlimit:10"/></svg>