<svg id="abfc514f-ebab-46f0-9a57-b0f4b6dd90fd" data-name="Layer 1" xmlns="http://www.w3.org/2000/svg" viewBox="0 0 630.39 400"><circle cx="400.52" cy="237.06" r="2.99" style="fill:#fdb515"/><circle cx="400.44" cy="237.14" r="1.49" style="fill:#010101"/><circle cx="367.96" cy="269.62" r="1.41" style="fill:#fdb515"/><circle cx="367.58" cy="288.14" r="1.41" style="fill:#fdb515"/><circle cx="452.1" cy="203.62" r="1.41" style="fill:#fdb515"/><circle cx="432.96" cy="204.62" r="1.41" style="fill:#fdb515"/><circle cx="386.6" cy="288.27" r="1.41" style="fill:#fdb515"/><circle cx="451.6" cy="223.26" r="1.41" style="fill:#fdb515"/><polyline points="398.41 234.95 432.96 204.62 402.63 239.17" style="fill:none;stroke:#fdb515;stroke-miterlimit:10"/><polyline points="398.53 234.82 368.2 269.38 402.76 239.05" style="fill:none;stroke:#fdb515;stroke-miterlimit:10"/><circle cx="419.16" cy="255.7" r="2.99" style="fill:#fdb515"/><polyline points="417.05 253.59 451.61 223.26 421.28 257.82" style="fill:none;stroke:#fdb515;stroke-miterlimit:10"/><polyline points="417.18 253.47 386.85 288.02 421.4 257.69" style="fill:none;stroke:#fdb515;stroke-miterlimit:10"/><circle cx="409.7" cy="246.27" r="3.85" style="fill:#fdb515"/><polyline points="406.98 243.55 451.48 204.49 412.42 249" style="fill:none;stroke:#fdb515;stroke-miterlimit:10"/><polyline points="407.14 243.39 368.08 287.89 412.58 248.84" style="fill:none;stroke:#fdb515;stroke-miterlimit:10"/><polyline points="398.41 239.17 412.45 243.52 417.05 257.82 421.28 253.59 406.98 248.99 402.63 234.95" style="fill:none;stroke:#fdb515;stroke-miterlimit:10"/><circle cx="409.7" cy="246.4" r="1.49" style="fill:#010101"/><circle cx="419.27" cy="255.97" r="1.49" style="fill:#010101"/><circle cx="229.87" cy="237.06" r="2.99" style="fill:#fdb515"/><circle cx="229.96" cy="237.14" r="1.49" style="fill:#010101"/><circle cx="262.44" cy="269.62" r="1.41" style="fill:#fdb515"/><circle cx="262.81" cy="288.14" r="1.41" style="fill:#fdb515"/><circle cx="178.29" cy="203.62" r="1.41" style="fill:#fdb515"/><circle cx="197.43" cy="204.62" r="1.41" style="fill:#fdb515"/><circle cx="243.79" cy="288.27" r="1.41" style="fill:#fdb515"/><circle cx="178.79" cy="223.26" r="1.41" style="fill:#fdb515"/><polyline points="231.99 234.95 197.43 204.62 227.76 239.17" style="fill:none;stroke:#fdb515;stroke-miterlimit:10"/><polyline points="231.86 234.82 262.19 269.38 227.64 239.05" style="fill:none;stroke:#fdb515;stroke-miterlimit:10"/><circle cx="211.23" cy="255.7" r="2.99" style="fill:#fdb515"/><polyline points="213.34 253.59 178.79 223.26 209.12 257.82" style="fill:none;stroke:#fdb515;stroke-miterlimit:10"/><polyline points="213.22 253.47 243.55 288.02 208.99 257.69" style="fill:none;stroke:#fdb515;stroke-miterlimit:10"/><circle cx="220.69" cy="246.27" r="3.85" style="fill:#fdb515"/><polyline points="223.41 243.55 178.91 204.49 217.97 249" style="fill:none;stroke:#fdb515;stroke-miterlimit:10"/><polyline points="223.25 243.39 262.31 287.89 217.81 248.84" style="fill:none;stroke:#fdb515;stroke-miterlimit:10"/><polyline points="231.99 239.17 217.94 243.52 213.34 257.82 209.12 253.59 223.41 248.99 227.76 234.95" style="fill:none;stroke:#fdb515;stroke-miterlimit:10"/><circle cx="220.7" cy="246.4" r="1.49" style="fill:#010101"/><circle cx="211.13" cy="255.97" r="1.49" style="fill:#010101"/><path d="M336,135.29a29.17,29.17,0,0,1-48.46-11.92A29.17,29.17,0,1,0,343,124,29.05,29.05,0,0,1,336,135.29Z" style="fill:none;stroke:#fdb515;stroke-miterlimit:10"/><polyline points="190.67 384.5 272.83 302.34 354.99 384.5" style="fill:none;stroke:#fff;stroke-miterlimit:10"/><polyline points="230.46 384.5 272.83 342.13 315.2 384.5" style="fill:none;stroke:#fff;stroke-miterlimit:10"/><polyline points="146.16 384.5 188.53 342.13 230.9 384.5" style="fill:none;stroke:#fff;stroke-miterlimit:10"/><polyline points="399.5 384.5 441.87 342.13 484.24 384.5" style="fill:none;stroke:#fff;stroke-miterlimit:10"/><polyline points="314.76 384.5 357.13 342.13 399.5 384.5" style="fill:none;stroke:#fff;stroke-miterlimit:10"/><polyline points="275.41 384.5 357.57 302.34 439.72 384.5" style="fill:none;stroke:#fff;stroke-miterlimit:10"/><rect x="258.93" y="309.01" width="27.8" height="27.8" transform="translate(-148.42 287.5) rotate(-45)" style="fill:none;stroke:#fff;stroke-miterlimit:10"/><rect x="258.93" y="309.01" width="27.8" height="27.8" transform="translate(-50.08 595.74) rotate(-90)" style="fill:none;stroke:#fff;stroke-miterlimit:10"/><rect x="269.55" y="319.64" width="6.55" height="6.55" transform="translate(-50.08 595.74) rotate(-90)" style="fill:#fdb515"/><rect x="343.23" y="309.01" width="27.8" height="27.8" transform="translate(34.22 680.04) rotate(-90)" style="fill:none;stroke:#fff;stroke-miterlimit:10"/><rect x="353.85" y="319.64" width="6.55" height="6.55" transform="translate(34.22 680.04) rotate(-90)" style="fill:#fdb515"/><rect x="312.58" y="360.48" width="6.55" height="6.55" transform="translate(-164.7 329.88) rotate(-45)" style="fill:#fdb515"/><rect x="343.67" y="309.01" width="27.8" height="27.8" transform="translate(-123.6 347.42) rotate(-45)" style="fill:none;stroke:#fff;stroke-miterlimit:10"/><path d="M314.61,14.41a1.35,1.35,0,1,1-.41,2.2,1.36,1.36,0,0,1,.41-2.2M303.3,15.63a1.06,1.06,0,1,1-.12,2,1.07,1.07,0,0,1,.12-2m23.15,2a1.06,1.06,0,0,1-.19-2c.74-.36,1.42.32,1.53,1a1.16,1.16,0,0,1-1.34,1m-20.58,2.82a1.64,1.64,0,1,1-.23,2.7,1.65,1.65,0,0,1,.23-2.7m16.3.71a1.65,1.65,0,0,1,2.94-.07,1.73,1.73,0,0,1-1.07,2.4,1.7,1.7,0,0,1-1.87-2.33m-8.93,2.26a2,2,0,0,1,2-1.91,2.13,2.13,0,0,1,1.67,1.09,1.92,1.92,0,0,1-.9,2.62,2.52,2.52,0,0,1-1.44.13,2.11,2.11,0,0,1-1.29-1.93M296.44,25a1.35,1.35,0,0,1,1.92,1.55A1.35,1.35,0,1,1,296.44,25m36.09,0a1.34,1.34,0,1,1,.15,2.32,1.35,1.35,0,0,1-.15-2.32M318,26.84a3.26,3.26,0,1,1-2,4.23,3.26,3.26,0,0,1,2-4.23M310,27a3.26,3.26,0,1,1-1.52,4.41A3.29,3.29,0,0,1,310,27m-8,2.75a2.06,2.06,0,0,1,2-1.68,2.16,2.16,0,0,1,1.9,1.91,2,2,0,0,1-1.9,2,1.91,1.91,0,0,1-2-2.2m23.69-1.47a1.92,1.92,0,1,1-.15,3.33,1.94,1.94,0,0,1,.15-3.33M306.7,33.43A3.25,3.25,0,1,1,304.61,38a3.28,3.28,0,0,1,2.09-4.54m15.19,0A3.26,3.26,0,1,1,320,38.09a3.28,3.28,0,0,1,1.92-4.67M297.69,35a1.64,1.64,0,1,1-.58,2.77,1.65,1.65,0,0,1,.58-2.77m32.82,1.74a1.86,1.86,0,0,1,1.73-2,1.74,1.74,0,0,1,1.57,1.71A1.64,1.64,0,0,1,331.43,38a2.17,2.17,0,0,1-.92-1.2m-38.78-1.15a1.06,1.06,0,1,1-.42,1.62A1.07,1.07,0,0,1,291.73,35.63Zm45.94,0a1.05,1.05,0,0,1,1.54.5,1,1,0,0,1-1,1.44c-1,.09-1.37-1.49-.51-1.94m-27,4.4a3.26,3.26,0,1,1,.12,6.37,3.25,3.25,0,0,1-.12-6.37m7.59,0a3.26,3.26,0,1,1-2.38,2.41A3.28,3.28,0,0,1,318.25,40m-14.63,1.22a1.92,1.92,0,1,1-1.2,3.17,1.94,1.94,0,0,1,1.2-3.17m22.26.06a1.92,1.92,0,1,1-.36,3.42,1.92,1.92,0,0,1,.36-3.42m6.22,6.24a1.34,1.34,0,0,1,1.36-1.88c.48,0,.82.38,1.13.7.06.52.17,1.14-.26,1.54a1.34,1.34,0,0,1-2.23-.36m-35.67-1.63a1.36,1.36,0,0,1,2,1.36,1.37,1.37,0,0,1-2.08.94,1.36,1.36,0,0,1,.06-2.3m18,2a1.91,1.91,0,1,1-.36,3.4,1.93,1.93,0,0,1,.36-3.4m-8.32,1.94a1.63,1.63,0,1,1,.48,3.11,1.61,1.61,0,0,1-.48-3.11m16.85,0a1.66,1.66,0,0,1,2.43,1.5,1.64,1.64,0,1,1-2.43-1.5m2.93,7.25a1.16,1.16,0,0,1,.84-1.71c.6.12,1.24.58,1.11,1.28a1.07,1.07,0,0,1-1.95.43m-23.27-.61c.19-.56.64-1.11,1.29-1a1.06,1.06,0,0,1,.4,2,1.14,1.14,0,0,1-1.69-1m11.23.64a1.33,1.33,0,0,1,1.95-.79c.46.2.6.72.72,1.16-.07.23-.12.46-.18.69a1.54,1.54,0,0,1-1.13.67,1.34,1.34,0,0,1-1.36-1.73" style="fill:#fab317"/><line x1="294.52" y1="76.51" x2="335.87" y2="117.86" style="fill:none;stroke:#fdb515;stroke-miterlimit:10"/><line x1="294.52" y1="117.86" x2="335.87" y2="76.51" style="fill:none;stroke:#fdb515;stroke-miterlimit:10"/><line x1="285.96" y1="97.19" x2="344.44" y2="97.19" style="fill:none;stroke:#fdb515;stroke-miterlimit:10"/><line x1="315.2" y1="126.43" x2="315.2" y2="67.95" style="fill:none;stroke:#fdb515;stroke-miterlimit:10"/><circle cx="315.77" cy="97.76" r="23.55" style="fill:#010101"/><circle cx="315.77" cy="97.19" r="18.68" style="fill:none;stroke:#fff;stroke-miterlimit:10"/><polygon points="327.97 90.01 315.2 97.18 302.42 90.01 315.2 82.14 327.97 90.01" style="fill:none;stroke:#fff;stroke-miterlimit:10"/><polygon points="326.82 90.01 315.2 96.53 303.57 90.01 315.2 82.84 326.82 90.01" style="fill:none;stroke:#fff;stroke-miterlimit:10"/><polyline points="326.82 105.06 315.2 111.59 303.57 105.06" style="fill:none;stroke:#fff;stroke-miterlimit:10"/><polyline points="327.97 105.06 315.2 112.23 302.42 105.06" style="fill:none;stroke:#fff;stroke-miterlimit:10"/><line x1="302.45" y1="90.01" x2="302.45" y2="105.2" style="fill:none;stroke:#fff;stroke-miterlimit:10"/><line x1="303.5" y1="90.04" x2="303.5" y2="105.24" style="fill:none;stroke:#fff;stroke-miterlimit:10"/><line x1="326.89" y1="90.01" x2="326.89" y2="105.2" style="fill:none;stroke:#fff;stroke-miterlimit:10"/><line x1="327.94" y1="90.04" x2="327.94" y2="105.24" style="fill:none;stroke:#fff;stroke-miterlimit:10"/><line x1="315.2" y1="96.52" x2="315.2" y2="112.21" style="fill:none;stroke:#fff;stroke-miterlimit:10"/><line x1="315.2" y1="96.79" x2="315.2" y2="97.82" style="fill:none;stroke:#fff;stroke-miterlimit:10"/><path d="M344.67,207.48a28.58,28.58,0,0,1-57.16,0" style="fill:none;stroke:#fdb515;stroke-miterlimit:10"/><path d="M332.94,207.47a16.85,16.85,0,0,1-33.7,0" style="fill:none;stroke:#fdb515;stroke-miterlimit:10"/><line x1="316.09" y1="196.96" x2="316.09" y2="308.37" style="fill:none;stroke:#fdb515;stroke-miterlimit:10"/><path d="M304.1,237.56a16.85,16.85,0,0,1-33.7,0" style="fill:none;stroke:#fdb515;stroke-miterlimit:10"/><path d="M297.18,237.55a9.94,9.94,0,0,1-19.87,0" style="fill:none;stroke:#fdb515;stroke-miterlimit:10"/><path d="M363.18,237.56a16.85,16.85,0,0,1-33.7,0" style="fill:none;stroke:#fdb515;stroke-miterlimit:10"/><path d="M356.26,237.55a9.94,9.94,0,0,1-19.87,0" style="fill:none;stroke:#fdb515;stroke-miterlimit:10"/><path d="M332.64,179.91a16.85,16.85,0,1,1-33.7,0" style="fill:none;stroke:#fdb515;stroke-miterlimit:10"/><path d="M325.72,179.91a9.94,9.94,0,0,1-19.87,0" style="fill:none;stroke:#fdb515;stroke-miterlimit:10"/><line x1="316.09" y1="274.48" x2="287.25" y2="254.41" style="fill:none;stroke:#fdb515;stroke-miterlimit:10"/><line x1="346.33" y1="254.41" x2="316.09" y2="274.48" style="fill:none;stroke:#fdb515;stroke-miterlimit:10"/><path d="M344.67,207.48a28.58,28.58,0,0,1-57.16,0" style="fill:none;stroke:#fdb515;stroke-miterlimit:10"/><path d="M332.94,207.47a16.85,16.85,0,0,1-33.7,0" style="fill:none;stroke:#fdb515;stroke-miterlimit:10"/><line x1="316.09" y1="196.96" x2="316.09" y2="345.22" style="fill:none;stroke:#fdb515;stroke-miterlimit:10"/><path d="M304.1,237.56a16.85,16.85,0,0,1-33.7,0" style="fill:none;stroke:#fdb515;stroke-miterlimit:10"/><path d="M297.18,237.55a9.94,9.94,0,0,1-19.87,0" style="fill:none;stroke:#fdb515;stroke-miterlimit:10"/><path d="M363.18,237.56a16.85,16.85,0,0,1-33.7,0" style="fill:none;stroke:#fdb515;stroke-miterlimit:10"/><path d="M356.26,237.55a9.94,9.94,0,0,1-19.87,0" style="fill:none;stroke:#fdb515;stroke-miterlimit:10"/><path d="M332.64,179.91a16.85,16.85,0,1,1-33.7,0" style="fill:none;stroke:#fdb515;stroke-miterlimit:10"/><path d="M325.72,179.91a9.94,9.94,0,0,1-19.87,0" style="fill:none;stroke:#fdb515;stroke-miterlimit:10"/><polyline points="346.33 254.41 316.09 274.48 287.25 254.41" style="fill:none;stroke:#fdb515;stroke-miterlimit:10"/><circle cx="298.98" cy="204.62" r="2.86" style="fill:none;stroke:#fdb515;stroke-miterlimit:10"/><circle cx="344.67" cy="204.62" r="2.86" style="fill:none;stroke:#fdb515;stroke-miterlimit:10"/><circle cx="315.79" cy="175.02" r="2.86" style="fill:none;stroke:#fdb515;stroke-miterlimit:10"/><circle cx="356" cy="234.45" r="2.86" style="fill:none;stroke:#fdb515;stroke-miterlimit:10"/><path d="M267.21,234.69a2.86,2.86,0,1,1,2.86,2.86,2.86,2.86,0,0,1-2.86-2.86" style="fill:none;stroke:#fdb515;stroke-miterlimit:10"/><polyline points="74.03 270.8 63.88 278.02 74.02 262.29" style="fill:#010101;stroke:#fff;stroke-miterlimit:10"/><circle cx="88.99" cy="232.59" r="9.94" style="fill:#fff"/><path d="M76.51,232.75a12.76,12.76,0,1,1,25.51,0v12.56H76.51Z" style="fill:none;stroke:#fff;stroke-miterlimit:10"/><path d="M104.48,247.75v-15a15.22,15.22,0,0,0-30.44,0v38.06h30.44Z" style="fill:none;stroke:#fff;stroke-miterlimit:10"/><rect x="76.51" y="245.31" width="25.52" height="25.52" style="fill:none;stroke:#fff;stroke-miterlimit:10"/><polygon points="89.27 295.61 76.5 280.85 102.02 280.85 89.27 295.61" style="fill:#fdb515;stroke:#fff;stroke-miterlimit:10"/><path d="M66.8,358.51l0-44c-24.31,0-44.64,19.71-44.64,44" style="fill:#333;stroke:#fff;stroke-miterlimit:10"/><path d="M102,280.85,89.26,295.13s37.66,10.17,38.28,10.49S102,280.85,102,280.85Z" style="fill:#010101;stroke:#fff;stroke-miterlimit:10"/><polygon points="76.5 280.85 76.5 317.31 89.27 295.61 76.5 280.85" style="fill:#010101;stroke:#fff;stroke-miterlimit:10"/><polygon points="67.01 317.07 77.01 317.31 67.01 358.66 67.01 317.07" style="fill:#010101;stroke:#fff;stroke-miterlimit:10"/><polygon points="118.31 308.57 128.31 308.57 118.31 345.13 118.31 308.57" style="fill:#010101;stroke:#fff;stroke-miterlimit:10"/><circle cx="76.51" cy="317.31" r="4.5" style="fill:#795221;stroke:#fff;stroke-miterlimit:10"/><path d="M72.18,317.26a4.33,4.33,0,0,1,8.65,0" style="fill:#fdb515;stroke:#fff;stroke-miterlimit:10"/><path d="M76.51,312.83a4.33,4.33,0,0,1,4.33,4.33H76.59" style="fill:#ae792b;stroke:#fff;stroke-miterlimit:10"/><circle cx="76.51" cy="317.18" r="2.49" style="fill:#010101;stroke:#fff;stroke-miterlimit:10"/><path d="M79,317.18a2.49,2.49,0,0,1-5,0" style="fill:#333;stroke:#fff;stroke-miterlimit:10"/><circle cx="127.8" cy="306.08" r="4.5" style="fill:#795221;stroke:#fff;stroke-miterlimit:10"/><path d="M123.48,306a4.33,4.33,0,0,1,8.65,0" style="fill:#fdb515;stroke:#fff;stroke-miterlimit:10"/><path d="M127.81,301.6a4.33,4.33,0,0,1,4.33,4.33h-4.25" style="fill:#ae792b;stroke:#fff;stroke-miterlimit:10"/><circle cx="127.8" cy="305.94" r="2.49" style="fill:#010101;stroke:#fff;stroke-miterlimit:10"/><path d="M130.29,305.94a2.49,2.49,0,1,1-5,0" style="fill:#333;stroke:#fff;stroke-miterlimit:10"/><circle cx="63.83" cy="277.98" r="2.8" style="fill:#fdb515;stroke:#fff;stroke-miterlimit:10"/><circle cx="63.83" cy="277.98" r="0.86" style="fill:#010101;stroke:#fff;stroke-miterlimit:10"/><circle cx="88.99" cy="276.1" r="5.02" style="fill:#010101;stroke:#fff;stroke-miterlimit:10"/><circle cx="88.99" cy="276.1" r="4.3" style="fill:#fdb515;stroke:#fff;stroke-miterlimit:10"/><circle cx="88.88" cy="276.14" r="2.69" style="fill:#1a1a1a"/><path d="M88.72,278.82a2.69,2.69,0,1,1,.33-5.36" style="fill:#fff;stroke:#fff;stroke-miterlimit:10"/><path d="M89,222.65a9.94,9.94,0,1,1,0,19.88" style="fill:#010101"/><polygon points="66.53 358.66 127.92 358.66 127.92 310.21 66.53 358.66" style="fill:#333;stroke:#fff;stroke-miterlimit:10"/><circle cx="66.8" cy="358.51" r="8.77" style="fill:#010101;stroke:#fff;stroke-miterlimit:10"/><path d="M58,358.51a8.77,8.77,0,0,1,17.54,0" style="fill:#fdb515"/><path d="M70.5,358.43a3.7,3.7,0,0,1-7.4,0" style="fill:#fdb515"/><path d="M63.1,358.51a3.7,3.7,0,0,1,7.4,0" style="fill:#ae792b"/><path d="M66.79,362.22a3.7,3.7,0,0,1-3.7-3.7h3.64" style="fill:#795221"/><circle cx="127.44" cy="358.02" r="8.77" style="fill:#010101;stroke:#fff;stroke-miterlimit:10"/><path d="M127.44,366.79a8.77,8.77,0,1,1,0-17.53" style="fill:#fdb515"/><path d="M127.36,354.32a3.7,3.7,0,0,1,0,7.4" style="fill:#fdb515"/><path d="M127.36,354.32a3.7,3.7,0,0,1,3.7,3.7h-3.62" style="fill:#795221"/><path d="M127.44,354.32a3.7,3.7,0,1,0,0,7.4" style="fill:#ae792b"/><circle cx="66.79" cy="358.43" r="27.29" style="fill:none;stroke:#fff;stroke-miterlimit:10"/><circle cx="66.79" cy="358.43" r="19.4" style="fill:none;stroke:#fff;stroke-miterlimit:10"/><polygon points="83.56 246.54 93.81 256.8 114.7 224.38 83.56 246.54" style="fill:#010101;stroke:#fff;stroke-miterlimit:10"/><polygon points="111.24 220.91 118.12 227.79 139.35 198.83 111.24 220.91" style="fill:#010101;stroke:#fff;stroke-miterlimit:10"/><polygon points="145.99 188.11 150.34 192.47 151.04 187.08 145.99 188.11" style="fill:none;stroke:#fff;stroke-miterlimit:10"/><circle cx="114.71" cy="224.12" r="2.8" style="fill:#fdb515;stroke:#fff;stroke-miterlimit:10"/><circle cx="114.71" cy="224.12" r="0.86" style="fill:#010101;stroke:#fff;stroke-miterlimit:10"/><circle cx="139.51" cy="198.84" r="2.8" style="fill:#1a1a1a;stroke:#fff;stroke-miterlimit:10"/><circle cx="139.51" cy="198.84" r="0.86" style="fill:#fdb515;stroke:#fff;stroke-miterlimit:10"/><circle cx="88.99" cy="252.11" r="4.5" style="fill:#795221;stroke:#fff;stroke-miterlimit:10"/><path d="M84.67,252.06a4.33,4.33,0,0,1,8.65,0" style="fill:#fdb515;stroke:#fff;stroke-miterlimit:10"/><path d="M89,247.63A4.33,4.33,0,0,1,93.33,252H89.08" style="fill:#ae792b;stroke:#fff;stroke-miterlimit:10"/><circle cx="88.99" cy="251.97" r="2.49" style="fill:#010101;stroke:#fff;stroke-miterlimit:10"/><path d="M91.48,252a2.49,2.49,0,1,1-5,0" style="fill:#333;stroke:#fff;stroke-miterlimit:10"/><path d="M136.66,189.74a36.77,36.77,0,0,0-51.88.17l-2.85-2.82a40.58,40.58,0,0,1,57.38,0Z" style="fill:none;stroke:#fdb515;stroke-miterlimit:10"/><path d="M148.58,201.67a36.77,36.77,0,0,1-.16,51.88l2.82,2.85a40.58,40.58,0,0,0,0-57.38Z" style="fill:none;stroke:#fdb515;stroke-miterlimit:10"/><rect x="131.1" y="196.9" width="16.87" height="3.81" transform="translate(181.44 -40.44) rotate(45)" style="fill:none;stroke:#fdb515;stroke-miterlimit:10"/><rect x="135.23" y="186.91" width="3.63" height="10.02" transform="translate(175.85 -40.7) rotate(45)" style="fill:none;stroke:#fdb515;stroke-miterlimit:10"/><rect x="144.59" y="196.27" width="3.63" height="10.02" transform="translate(185.21 -44.57) rotate(45)" style="fill:none;stroke:#fdb515;stroke-miterlimit:10"/><polyline points="556.37 270.8 566.51 278.02 556.38 262.29" style="fill:#010101;stroke:#fff;stroke-miterlimit:10"/><circle cx="541.4" cy="232.59" r="9.94" style="fill:#fff"/><path d="M553.89,232.75a12.76,12.76,0,0,0-25.52,0v12.56h25.52Z" style="fill:none;stroke:#fff;stroke-miterlimit:10"/><path d="M525.91,247.75v-15a15.22,15.22,0,0,1,30.44,0v38.06H525.91Z" style="fill:none;stroke:#fff;stroke-miterlimit:10"/><rect x="528.37" y="245.31" width="25.52" height="25.52" transform="translate(1082.26 516.14) rotate(-180)" style="fill:none;stroke:#fff;stroke-miterlimit:10"/><polygon points="541.13 295.61 553.89 280.85 528.37 280.85 541.13 295.61" style="fill:#fdb515;stroke:#fff;stroke-miterlimit:10"/><path d="M563.59,358.51l0-44c24.31,0,44.65,19.71,44.65,44" style="fill:#333;stroke:#fff;stroke-miterlimit:10"/><path d="M528.37,280.85l12.76,14.28s-37.66,10.17-38.28,10.49S528.37,280.85,528.37,280.85Z" style="fill:#010101;stroke:#fff;stroke-miterlimit:10"/><polygon points="553.89 280.85 553.89 317.31 541.13 295.61 553.89 280.85" style="fill:#010101;stroke:#fff;stroke-miterlimit:10"/><polygon points="563.38 317.07 553.38 317.31 563.38 358.66 563.38 317.07" style="fill:#010101;stroke:#fff;stroke-miterlimit:10"/><polygon points="512.09 308.57 502.09 308.57 512.09 345.13 512.09 308.57" style="fill:#010101;stroke:#fff;stroke-miterlimit:10"/><circle cx="553.89" cy="317.31" r="4.5" style="fill:#795221;stroke:#fff;stroke-miterlimit:10"/><path d="M558.21,317.26a4.33,4.33,0,0,0-8.65,0" style="fill:#fdb515;stroke:#fff;stroke-miterlimit:10"/><path d="M553.88,312.83a4.32,4.32,0,0,0-4.32,4.33h4.24" style="fill:#ae792b;stroke:#fff;stroke-miterlimit:10"/><circle cx="553.89" cy="317.18" r="2.49" style="fill:#010101;stroke:#fff;stroke-miterlimit:10"/><path d="M551.4,317.18a2.49,2.49,0,0,0,5,0" style="fill:#333;stroke:#fff;stroke-miterlimit:10"/><circle cx="502.59" cy="306.08" r="4.5" style="fill:#795221;stroke:#fff;stroke-miterlimit:10"/><path d="M506.91,306a4.33,4.33,0,0,0-8.65,0" style="fill:#fdb515;stroke:#fff;stroke-miterlimit:10"/><path d="M502.58,301.6a4.32,4.32,0,0,0-4.32,4.33h4.25" style="fill:#ae792b;stroke:#fff;stroke-miterlimit:10"/><circle cx="502.59" cy="305.94" r="2.49" style="fill:#010101;stroke:#fff;stroke-miterlimit:10"/><path d="M500.1,305.94a2.49,2.49,0,0,0,5,0" style="fill:#333;stroke:#fff;stroke-miterlimit:10"/><circle cx="566.56" cy="277.98" r="2.8" style="fill:#fdb515;stroke:#fff;stroke-miterlimit:10"/><circle cx="566.56" cy="277.98" r="0.86" style="fill:#010101;stroke:#fff;stroke-miterlimit:10"/><circle cx="541.4" cy="276.1" r="5.02" style="fill:#010101;stroke:#fff;stroke-miterlimit:10"/><circle cx="541.4" cy="276.1" r="4.3" style="fill:#fdb515;stroke:#fff;stroke-miterlimit:10"/><circle cx="541.51" cy="276.14" r="2.69" style="fill:#1a1a1a"/><path d="M541.68,278.82a2.69,2.69,0,1,0-.34-5.36" style="fill:#fff;stroke:#fff;stroke-miterlimit:10"/><path d="M541.4,222.65a9.94,9.94,0,1,0,0,19.88" style="fill:#010101"/><polygon points="563.86 358.66 502.48 358.66 502.48 310.21 563.86 358.66" style="fill:#333;stroke:#fff;stroke-miterlimit:10"/><circle cx="563.59" cy="358.51" r="8.77" style="fill:#010101;stroke:#fff;stroke-miterlimit:10"/><path d="M572.36,358.51a8.77,8.77,0,0,0-17.53,0" style="fill:#fdb515"/><path d="M559.89,358.43a3.71,3.71,0,0,0,7.41,0" style="fill:#fdb515"/><path d="M567.3,358.51a3.71,3.71,0,0,0-7.41,0" style="fill:#ae792b"/><path d="M563.6,362.22a3.7,3.7,0,0,0,3.7-3.7h-3.64" style="fill:#795221"/><circle cx="502.95" cy="358.02" r="8.77" style="fill:#010101;stroke:#fff;stroke-miterlimit:10"/><path d="M503,366.79a8.77,8.77,0,1,0,0-17.53" style="fill:#fdb515"/><path d="M503,354.32a3.7,3.7,0,1,0,0,7.4" style="fill:#fdb515"/><path d="M503,354.32a3.7,3.7,0,0,0-3.7,3.7H503" style="fill:#795221"/><path d="M503,354.32a3.7,3.7,0,1,1,0,7.4" style="fill:#ae792b"/><circle cx="563.6" cy="358.43" r="27.29" style="fill:none;stroke:#fff;stroke-miterlimit:10"/><circle cx="563.6" cy="358.43" r="19.4" style="fill:none;stroke:#fff;stroke-miterlimit:10"/><polygon points="546.83 246.54 536.58 256.8 515.69 224.38 546.83 246.54" style="fill:#010101;stroke:#fff;stroke-miterlimit:10"/><polygon points="519.15 220.91 512.28 227.79 491.05 198.83 519.15 220.91" style="fill:#010101;stroke:#fff;stroke-miterlimit:10"/><polygon points="484.41 188.11 480.05 192.47 479.35 187.08 484.41 188.11" style="fill:none;stroke:#fff;stroke-miterlimit:10"/><circle cx="515.68" cy="224.12" r="2.8" style="fill:#fdb515;stroke:#fff;stroke-miterlimit:10"/><circle cx="515.68" cy="224.12" r="0.86" style="fill:#010101;stroke:#fff;stroke-miterlimit:10"/><circle cx="490.88" cy="198.84" r="2.8" style="fill:#1a1a1a;stroke:#fff;stroke-miterlimit:10"/><circle cx="490.88" cy="198.84" r="0.86" style="fill:#fdb515;stroke:#fff;stroke-miterlimit:10"/><circle cx="541.4" cy="252.11" r="4.5" style="fill:#795221;stroke:#fff;stroke-miterlimit:10"/><path d="M545.72,252.06a4.33,4.33,0,0,0-8.65,0" style="fill:#fdb515;stroke:#fff;stroke-miterlimit:10"/><path d="M541.39,247.63a4.32,4.32,0,0,0-4.32,4.32h4.25" style="fill:#ae792b;stroke:#fff;stroke-miterlimit:10"/><circle cx="541.4" cy="251.97" r="2.49" style="fill:#010101;stroke:#fff;stroke-miterlimit:10"/><path d="M538.91,252a2.49,2.49,0,1,0,5,0" style="fill:#333;stroke:#fff;stroke-miterlimit:10"/><path d="M493.74,189.74a36.77,36.77,0,0,1,51.88.17l2.84-2.82a40.58,40.58,0,0,0-57.38,0Z" style="fill:none;stroke:#fdb515;stroke-miterlimit:10"/><path d="M481.81,201.67a36.77,36.77,0,0,0,.17,51.88l-2.82,2.85a40.56,40.56,0,0,1,0-57.38Z" style="fill:none;stroke:#fdb515;stroke-miterlimit:10"/><rect x="482.43" y="196.9" width="16.87" height="3.81" transform="translate(978.53 -7.72) rotate(135)" style="fill:none;stroke:#fdb515;stroke-miterlimit:10"/><rect x="491.53" y="186.91" width="3.63" height="10.02" transform="translate(977.9 -21.22) rotate(135)" style="fill:none;stroke:#fdb515;stroke-miterlimit:10"/><rect x="482.17" y="196.27" width="3.63" height="10.02" transform="translate(968.54 1.38) rotate(135)" style="fill:none;stroke:#fdb515;stroke-miterlimit:10"/><polygon points="401.55 129.55 413.73 129.54 410.35 138.54 401.55 129.55" style="fill:#ae792b"/><polygon points="394.11 129.45 394.11 124.26 404.44 129.55 394.11 129.45" style="fill:#333;stroke:#fff;stroke-miterlimit:10"/><path d="M383.94,129.55a10.18,10.18,0,1,0,20.35,0H383.94" style="fill:#333;stroke:#fff;stroke-miterlimit:10"/><rect x="383.94" y="125.66" width="3.83" height="3.83" transform="translate(771.7 255.15) rotate(-180)" style="fill:#010101;stroke:#fff;stroke-miterlimit:10"/><rect x="390.26" y="125.66" width="3.83" height="3.83" transform="translate(784.35 255.15) rotate(-180)" style="fill:#333;stroke:#fff;stroke-miterlimit:10"/><polyline points="384.11 122.75 381.25 124.17 384.11 125.6" style="fill:#fdb515"/><circle cx="388.97" cy="124.34" r="5.15" style="fill:#333;stroke:#fff;stroke-miterlimit:10"/><path d="M390.75,129.55a3.22,3.22,0,1,0,6.44,0" style="fill:#fdb515"/><path d="M388.6,129.53a5.37,5.37,0,1,0,10.74,0" style="fill:#010101"/><path d="M390.52,131a9.33,9.33,0,1,0,13.2-13.2" style="fill:#fdb515"/><circle cx="388.82" cy="124.17" r="1.66" style="fill:#010101;stroke:#fff;stroke-miterlimit:10"/><path d="M394.11,127.28a4.17,4.17,0,0,0,5.9-5.9" style="fill:#ae792b"/><circle cx="388.82" cy="124.17" r="0.8" style="fill:#fff"/><polygon points="413.56 150.77 400.55 151.9 413.35 152.73 413.56 150.77" style="fill:#795221"/><rect x="413.01" y="156.75" width="7.64" height="7.64" style="fill:#010101"/><path d="M413,164.39a7.64,7.64,0,0,0,0-15.28Z" style="fill:#010101;stroke:#fff;stroke-miterlimit:10"/><path d="M413,172a7.64,7.64,0,0,0,0-15.28Z" style="fill:#010101;stroke:#fff;stroke-miterlimit:10"/><path d="M418.59,178.4a8.46,8.46,0,0,1-12,0l6.22-6.21Z" style="fill:#fdb515"/><path d="M420.52,169.16c6.88,0,13-5.58,13-12.45H420.54Z" style="fill:#fdb515"/><path d="M412.84,172.19l5.75,6.21a8.41,8.41,0,0,1-6,2.48" style="fill:#ae792b"/><path d="M413.81,156.61a6.81,6.81,0,0,0,13.61,0" style="fill:#fdb515"/><path d="M420.63,163.42a6.81,6.81,0,0,0,6.8-6.8h-6.68" style="fill:#795221"/><polygon points="228.84 129.55 216.66 129.54 220.04 138.54 228.84 129.55" style="fill:#ae792b"/><polygon points="236.28 129.45 236.28 124.26 225.96 129.55 236.28 129.45" style="fill:#333;stroke:#fff;stroke-miterlimit:10"/><path d="M246.46,129.55a10.18,10.18,0,1,1-20.35,0h20.35" style="fill:#333;stroke:#fff;stroke-miterlimit:10"/><rect x="242.63" y="125.66" width="3.83" height="3.83" style="fill:#010101;stroke:#fff;stroke-miterlimit:10"/><rect x="236.3" y="125.66" width="3.83" height="3.83" style="fill:#333;stroke:#fff;stroke-miterlimit:10"/><polyline points="246.28 122.75 249.15 124.17 246.28 125.6" style="fill:#fdb515"/><circle cx="241.43" cy="124.34" r="5.15" style="fill:#333;stroke:#fff;stroke-miterlimit:10"/><path d="M239.65,129.55a3.23,3.23,0,0,1-6.45,0" style="fill:#fdb515"/><path d="M241.8,129.53a5.38,5.38,0,0,1-10.75,0" style="fill:#010101"/><path d="M239.87,131a9.33,9.33,0,1,1-13.2-13.2" style="fill:#fdb515"/><circle cx="241.57" cy="124.17" r="1.66" style="fill:#010101;stroke:#fff;stroke-miterlimit:10"/><path d="M236.29,127.28a4.18,4.18,0,1,1-5.91-5.9" style="fill:#ae792b"/><circle cx="241.57" cy="124.17" r="0.8" style="fill:#fff"/><polygon points="216.84 150.77 229.85 151.9 217.04 152.73 216.84 150.77" style="fill:#795221"/><rect x="209.74" y="156.75" width="7.64" height="7.64" transform="translate(427.12 321.15) rotate(-180)" style="fill:#010101"/><path d="M217.38,164.39a7.64,7.64,0,0,1,0-15.28Z" style="fill:#010101;stroke:#fff;stroke-miterlimit:10"/><path d="M217.38,172a7.64,7.64,0,1,1,0-15.28Z" style="fill:#010101;stroke:#fff;stroke-miterlimit:10"/><path d="M211.81,178.4a8.44,8.44,0,0,0,12,0l-6.21-6.21Z" style="fill:#fdb515"/><path d="M209.87,169.16c-6.87,0-13-5.58-13-12.45h12.93Z" style="fill:#fdb515"/><path d="M217.56,172.19l-5.75,6.21a8.39,8.39,0,0,0,6,2.48" style="fill:#ae792b"/><path d="M216.58,156.61a6.81,6.81,0,0,1-13.61,0" style="fill:#fdb515"/><path d="M209.77,163.42a6.81,6.81,0,0,1-6.81-6.8h6.69" style="fill:#795221"/></svg>