<svg id="fc946c39-d649-481c-80ab-d263d9c87f77" data-name="Layer 1" xmlns="http://www.w3.org/2000/svg" viewBox="0 0 680.02 441.69"><circle cx="562.02" cy="222.11" r="10.79" style="fill:#fdb515"/><circle cx="562.02" cy="222.54" r="5.39" style="fill:#010101"/><circle cx="562.02" cy="388.38" r="5.08" style="fill:#fdb515"/><circle cx="608.35" cy="436.61" r="5.08" style="fill:#fdb515"/><circle cx="608.35" cy="5.08" r="5.08" style="fill:#fdb515"/><circle cx="562.02" cy="56.48" r="5.08" style="fill:#fdb515"/><circle cx="657.21" cy="388.38" r="5.08" style="fill:#fdb515"/><circle cx="657.21" cy="56.48" r="5.08" style="fill:#fdb515"/><polyline points="551.23 222.11 562.02 56.48 572.81 222.11" style="fill:none;stroke:#fdb515;stroke-miterlimit:10"/><polyline points="551.23 221.48 562.02 387.11 572.81 221.48" style="fill:none;stroke:#fdb515;stroke-miterlimit:10"/><circle cx="657.21" cy="222.11" r="10.79" style="fill:#fdb515"/><polyline points="646.42 222.11 657.21 56.48 668 222.11" style="fill:none;stroke:#fdb515;stroke-miterlimit:10"/><polyline points="646.42 221.48 657.21 387.11 668 221.48" style="fill:none;stroke:#fdb515;stroke-miterlimit:10"/><circle cx="608.98" cy="222.2" r="13.89" style="fill:#fdb515"/><polyline points="595.09 222.21 608.98 8.88 622.88 222.21" style="fill:none;stroke:#fdb515;stroke-miterlimit:10"/><polyline points="595.09 221.39 608.98 434.71 622.88 221.39" style="fill:none;stroke:#fdb515;stroke-miterlimit:10"/><polyline points="562.02 232.9 608.98 208.15 657.21 232.9 657.21 211.32 608.98 236.07 562.02 211.32" style="fill:none;stroke:#fdb515;stroke-miterlimit:10"/><circle cx="609.3" cy="222.54" r="5.39" style="fill:#010101"/><circle cx="658.16" cy="222.54" r="5.39" style="fill:#010101"/><path d="M462.31,220.84c0,116.36-102.21,210.69-228.3,210.69S5.71,337.2,5.71,220.84" style="fill:#010101;stroke:#fff;stroke-miterlimit:10"/><path d="M432,220.43c0,101.46-89.12,183.71-199.06,183.71S33.83,321.89,33.83,220.43" style="fill:#333;stroke:#fff;stroke-miterlimit:10"/><polygon points="237.05 333.53 119.63 225.18 237.05 116.82 354.46 225.18 237.05 333.53" style="fill:#010101"/><polyline points="177.54 278.62 119.63 225.18 237.05 116.82 295.82 171.06" style="fill:#fdb515"/><polyline points="295.75 279.35 237.05 333.53 119.63 225.18 176.79 172.42" style="fill:#795221"/><path d="M5.71,220.84C5.71,104.48,107.92,10.15,234,10.15s228.3,94.33,228.3,210.69" style="fill:none;stroke:#fff;stroke-miterlimit:10"/><path d="M5.71,220.84C5.71,104.48,107.92,10.15,234,10.15s228.3,94.33,228.3,210.69" style="fill:#010101;stroke:#fff;stroke-miterlimit:10"/><path d="M33.58,220c0-101.46,89.12-183.7,199.06-183.7S431.7,118.55,431.7,220" style="fill:#333;stroke:#fff;stroke-miterlimit:10"/><ellipse cx="234.01" cy="220.84" rx="171.23" ry="158.02" style="fill:#010101"/><path d="M149.06,219.4c0-43.64,38.34-79,85.64-79s85.63,35.38,85.63,79" style="fill:none;stroke:#795221;stroke-miterlimit:10;stroke-width:15px"/><path d="M234.7,140.38c47.29,0,85.63,35.38,85.63,79" style="fill:none;stroke:#fbb03c;stroke-miterlimit:10;stroke-width:15px"/><path d="M175.18,222.08c0-30,26.34-54.3,58.84-54.3s58.84,24.31,58.84,54.3" style="fill:#fdb515"/><path d="M292.86,220.84c0,30-26.34,54.3-58.84,54.3s-58.84-24.31-58.84-54.3" style="fill:#ae792b"/><ellipse cx="234.91" cy="220.65" rx="31.49" ry="29.06" style="fill:#010101;stroke:#fff;stroke-miterlimit:10"/><path d="M234.91,249.71c-17.39,0-31.49-13-31.49-29.06s14.1-29.06,31.49-29.06" style="fill:#333;stroke:#fff;stroke-miterlimit:10"/><ellipse cx="234.14" cy="220.52" rx="18.86" ry="17.41" style="fill:#795221;stroke:#fff;stroke-miterlimit:10"/><path d="M216,220.32c0-9.24,8.13-16.74,18.14-16.74s18.14,7.5,18.14,16.74" style="fill:#fdb515"/><ellipse cx="234.14" cy="219.99" rx="10.43" ry="9.63" style="fill:#010101;stroke:#fff;stroke-miterlimit:10"/><path d="M244.58,220c0,5.32-4.68,9.63-10.44,9.63s-10.43-4.31-10.43-9.63" style="fill:#333;stroke:#fff;stroke-miterlimit:10"/><ellipse cx="234.14" cy="103.48" rx="18.86" ry="17.41" style="fill:#795221;stroke:#fff;stroke-miterlimit:10"/><path d="M216,103.28c0-9.24,8.13-16.74,18.14-16.74s18.14,7.5,18.14,16.74" style="fill:#fdb515"/><path d="M234.18,86.13c10,0,18.14,7.5,18.14,16.75H234.5" style="fill:#ae792b"/><ellipse cx="234.14" cy="102.95" rx="10.43" ry="9.63" style="fill:#010101;stroke:#fff;stroke-miterlimit:10"/><path d="M244.58,103c0,5.32-4.68,9.63-10.44,9.63s-10.43-4.31-10.43-9.63" style="fill:#333;stroke:#fff;stroke-miterlimit:10"/><ellipse cx="126.17" cy="162.51" rx="18.86" ry="17.41" style="fill:#795221;stroke:#fff;stroke-miterlimit:10"/><path d="M108,162.31c0-9.25,8.12-16.74,18.14-16.74s18.14,7.49,18.14,16.74" style="fill:#fdb515"/><path d="M126.2,145.16c10,0,18.14,7.5,18.14,16.74H126.52" style="fill:#ae792b"/><ellipse cx="126.17" cy="161.98" rx="10.43" ry="9.63" style="fill:#010101;stroke:#fff;stroke-miterlimit:10"/><path d="M136.6,162c0,5.32-4.67,9.63-10.43,9.63s-10.44-4.31-10.44-9.63" style="fill:#333;stroke:#fff;stroke-miterlimit:10"/><ellipse cx="350.2" cy="162.51" rx="18.86" ry="17.41" style="fill:#795221;stroke:#fff;stroke-miterlimit:10"/><path d="M332.07,162.31c0-9.25,8.12-16.74,18.14-16.74s18.14,7.49,18.14,16.74" style="fill:#fdb515"/><path d="M350.24,145.16c10,0,18.14,7.5,18.14,16.74H350.56" style="fill:#ae792b"/><ellipse cx="350.2" cy="161.98" rx="10.43" ry="9.63" style="fill:#010101;stroke:#fff;stroke-miterlimit:10"/><path d="M360.63,162c0,5.32-4.67,9.63-10.43,9.63s-10.43-4.31-10.43-9.63" style="fill:#333;stroke:#fff;stroke-miterlimit:10"/><path d="M462.31,217.94c0,116.37-102.21,210.69-228.3,210.69S5.71,334.31,5.71,217.94" style="fill:none;stroke:#fff;stroke-miterlimit:10"/><path d="M320.2,219.39c0,43.64-39.58,79-86.88,79s-84.39-35.38-84.39-79" style="fill:none;stroke:#795221;stroke-miterlimit:10;stroke-width:15px"/><path d="M233.32,298.41c-47.29,0-84.39-35.38-84.39-79" style="fill:none;stroke:#fbb03c;stroke-miterlimit:10;stroke-width:15px"/><ellipse cx="233.88" cy="335.31" rx="18.86" ry="17.41" style="fill:#795221;stroke:#fff;stroke-miterlimit:10"/><path d="M252,335.51c0,9.24-8.12,16.74-18.14,16.74s-18.14-7.5-18.14-16.74" style="fill:#fdb515"/><path d="M233.84,352.65c-10,0-18.14-7.49-18.14-16.74h17.82" style="fill:#ae792b"/><ellipse cx="233.88" cy="335.84" rx="10.43" ry="9.63" style="fill:#010101;stroke:#fff;stroke-miterlimit:10"/><path d="M223.45,335.84c0-5.32,4.67-9.63,10.43-9.63s10.43,4.31,10.43,9.63" style="fill:#333;stroke:#fff;stroke-miterlimit:10"/><ellipse cx="341.85" cy="276.28" rx="18.86" ry="17.41" style="fill:#795221;stroke:#fff;stroke-miterlimit:10"/><path d="M360,276.48c0,9.24-8.12,16.74-18.14,16.74s-18.14-7.5-18.14-16.74" style="fill:#fdb515"/><path d="M341.82,293.63c-10,0-18.14-7.5-18.14-16.75H341.5" style="fill:#ae792b"/><ellipse cx="341.85" cy="276.81" rx="10.43" ry="9.63" style="fill:#010101;stroke:#fff;stroke-miterlimit:10"/><path d="M331.42,276.81c0-5.32,4.67-9.63,10.43-9.63s10.44,4.31,10.44,9.63" style="fill:#333;stroke:#fff;stroke-miterlimit:10"/><ellipse cx="117.82" cy="276.28" rx="18.86" ry="17.41" style="fill:#795221;stroke:#fff;stroke-miterlimit:10"/><path d="M136,276.48c0,9.24-8.12,16.74-18.14,16.74s-18.14-7.5-18.14-16.74" style="fill:#fdb515"/><path d="M117.78,293.63c-10,0-18.14-7.5-18.14-16.75h17.82" style="fill:#ae792b"/><ellipse cx="117.82" cy="276.81" rx="10.43" ry="9.63" style="fill:#010101;stroke:#fff;stroke-miterlimit:10"/><path d="M107.39,276.81c0-5.32,4.67-9.63,10.43-9.63s10.43,4.31,10.43,9.63" style="fill:#333;stroke:#fff;stroke-miterlimit:10"/></svg>