<svg id="bea45895-d5e3-41c4-99b5-88f10af4455d" data-name="Layer 1" xmlns="http://www.w3.org/2000/svg" xmlns:xlink="http://www.w3.org/1999/xlink" viewBox="0 0 661.26 457.89"><defs><clipPath id="a68a46d7-5cb1-47aa-89f1-93c653f58c18"><path d="M441.21,101.22A127.73,127.73,0,1,0,568.94,228.94,127.72,127.72,0,0,0,441.21,101.22Zm0,239.32a111.6,111.6,0,1,1,111.6-111.6A111.6,111.6,0,0,1,441.21,340.54Z" style="fill:none"/></clipPath></defs><circle cx="10.8" cy="230.21" r="10.8" style="fill:#fdb515"/><circle cx="10.8" cy="230.64" r="5.4" style="fill:#010101"/><circle cx="10.8" cy="396.59" r="5.08" style="fill:#fdb515"/><circle cx="57.15" cy="444.85" r="5.08" style="fill:#fdb515"/><circle cx="57.15" cy="13.04" r="5.08" style="fill:#fdb515"/><circle cx="10.8" cy="64.48" r="5.08" style="fill:#fdb515"/><circle cx="106.05" cy="396.59" r="5.08" style="fill:#fdb515"/><circle cx="106.05" cy="64.48" r="5.08" style="fill:#fdb515"/><polyline points="0 230.21 10.79 64.48 21.59 230.21" style="fill:none;stroke:#fdb515;stroke-miterlimit:10"/><polyline points="0 229.58 10.79 395.31 21.59 229.58" style="fill:none;stroke:#fdb515;stroke-miterlimit:10"/><circle cx="106.05" cy="230.21" r="10.8" style="fill:#fdb515"/><polyline points="95.25 230.21 106.05 64.48 116.84 230.21" style="fill:none;stroke:#fdb515;stroke-miterlimit:10"/><polyline points="95.25 229.58 106.05 395.31 116.84 229.58" style="fill:none;stroke:#fdb515;stroke-miterlimit:10"/><circle cx="57.79" cy="230.31" r="13.9" style="fill:#fdb515"/><polyline points="43.88 230.31 57.79 16.85 71.69 230.31" style="fill:none;stroke:#fdb515;stroke-miterlimit:10"/><polyline points="43.88 229.49 57.79 442.94 71.69 229.49" style="fill:none;stroke:#fdb515;stroke-miterlimit:10"/><polyline points="10.79 241.01 57.79 216.24 106.05 241.01 106.05 219.42 57.79 244.18 10.79 219.42" style="fill:none;stroke:#fdb515;stroke-miterlimit:10"/><circle cx="58.1" cy="230.64" r="5.4" style="fill:#010101"/><circle cx="107" cy="230.64" r="5.4" style="fill:#010101"/><rect x="285.61" y="73.35" width="311.19" height="311.19" transform="translate(291.12 -244.93) rotate(45)" style="fill:none;stroke:#fab317;stroke-miterlimit:10;stroke-width:2px"/><circle cx="441.21" cy="228.94" r="201.33" style="fill:#1a1a1a"/><rect x="285.61" y="73.35" width="311.19" height="311.19" transform="translate(670.15 -212.27) rotate(90)" style="fill:none;stroke:#fab317;stroke-miterlimit:10;stroke-width:2px"/><circle cx="441.21" cy="228.94" r="201.33" style="fill:#1a1a1a"/><rect x="285.61" y="73.35" width="311.19" height="311.19" transform="translate(482.23 -266.43) rotate(67.31)" style="fill:none;stroke:#fab317;stroke-miterlimit:10;stroke-width:2px"/><circle cx="441.21" cy="228.94" r="201.33" style="fill:#1a1a1a"/><rect x="285.61" y="73.35" width="311.19" height="311.19" transform="translate(820.5 -92.34) rotate(112.31)" style="fill:none;stroke:#fab317;stroke-miterlimit:10;stroke-width:2px"/><circle cx="441.21" cy="228.94" r="201.33" style="fill:#1a1a1a"/><path d="M479.53,200.58a20.11,20.11,0,0,0-32,16.22,20.42,20.42,0,0,0,.76,5.51Z" style="fill:#fff"/><path d="M403.17,200.58a20.1,20.1,0,0,1,31.2,21.73Z" style="fill:#fff"/><path d="M492.76,183.16v87.66a10,10,0,0,1-10,10H399.43a10,10,0,0,1-10-10V183.16" style="fill:none;stroke:#fff;stroke-miterlimit:10"/><path d="M438.44,212.64A23.48,23.48,0,0,0,430.25,195a23.09,23.09,0,0,0-14.09-5.59v0H389.94" style="fill:none;stroke:#fff;stroke-miterlimit:10"/><path d="M444.28,212.59a23.12,23.12,0,0,1,22.1-23.2v0H492.6" style="fill:none;stroke:#fff;stroke-miterlimit:10"/><rect x="389.43" y="177.07" width="103.33" height="6.68" style="fill:none;stroke:#fff;stroke-miterlimit:10"/><polyline points="416.68 239.73 389.44 239.73 389.44 193.5 416.68 193.5" style="fill:none;stroke:#fff;stroke-miterlimit:10"/><ellipse cx="415.65" cy="216.62" rx="23.14" ry="23.11" style="fill:none;stroke:#fff;stroke-miterlimit:10"/><ellipse cx="415.13" cy="216.62" rx="20.05" ry="20.03" style="fill:none;stroke:#fff;stroke-miterlimit:10"/><polyline points="466.03 239.73 492.76 239.73 492.76 193.5 466.03 193.5" style="fill:none;stroke:#fff;stroke-miterlimit:10"/><ellipse cx="467.06" cy="216.62" rx="23.14" ry="23.11" style="fill:none;stroke:#fff;stroke-miterlimit:10"/><ellipse cx="467.57" cy="216.62" rx="20.05" ry="20.03" style="fill:none;stroke:#fff;stroke-miterlimit:10"/><path d="M416.27,213.51a3.11,3.11,0,1,1-3.12,3.11,3.11,3.11,0,0,1,3.12-3.11m0-1a4.11,4.11,0,1,0,4.11,4.11,4.11,4.11,0,0,0-4.11-4.11Z" style="fill:#fff"/><path d="M466.65,213.51a3.11,3.11,0,1,1-3.11,3.11,3.11,3.11,0,0,1,3.11-3.11m0-1a4.11,4.11,0,1,0,4.11,4.11,4.11,4.11,0,0,0-4.11-4.11Z" style="fill:#fff"/><path d="M395.08,216.62a20.05,20.05,0,0,1,40.1,0" style="fill:none;stroke:#fff;stroke-miterlimit:10"/><path d="M447.54,216.57a20.05,20.05,0,0,1,40.1,0" style="fill:none;stroke:#fff;stroke-miterlimit:10"/><path d="M403.17,200.58a20.1,20.1,0,0,1,31.2,21.73Z" style="fill:none;stroke:#fff;stroke-miterlimit:10"/><path d="M479.53,200.58a20.11,20.11,0,0,0-32,16.22,20.42,20.42,0,0,0,.76,5.51Z" style="fill:none;stroke:#fff;stroke-miterlimit:10"/><rect x="389.42" y="177.1" width="6.91" height="6.63" style="fill:none;stroke:#fff;stroke-miterlimit:10"/><rect x="403.2" y="177.1" width="6.91" height="6.63" style="fill:none;stroke:#fff;stroke-miterlimit:10"/><rect x="416.97" y="177.1" width="6.91" height="6.63" style="fill:none;stroke:#fff;stroke-miterlimit:10"/><rect x="430.74" y="177.1" width="6.91" height="6.63" style="fill:none;stroke:#fff;stroke-miterlimit:10"/><rect x="444.52" y="177.1" width="6.91" height="6.63" style="fill:none;stroke:#fff;stroke-miterlimit:10"/><rect x="458.29" y="177.1" width="6.91" height="6.63" style="fill:none;stroke:#fff;stroke-miterlimit:10"/><rect x="472.06" y="177.1" width="6.91" height="6.63" style="fill:none;stroke:#fff;stroke-miterlimit:10"/><rect x="485.84" y="177.1" width="6.91" height="6.63" style="fill:none;stroke:#fff;stroke-miterlimit:10"/><polygon points="449.51 246.32 441.05 239.84 432.54 246.32 415.87 246.32 441.1 266.14 466.18 246.32 449.51 246.32" style="fill:#f8b318;stroke:#fff;stroke-miterlimit:10"/><path d="M505.81,225.11a21,21,0,0,1,2.52.16h24.91c3.44,0,6.25,2.25,6.25,5s-2.81,5-6.25,5h-.74a5,5,0,0,1,3.24,4.38c0,2.75-2.81,5-6.25,5h-1.36a5,5,0,0,1,3.24,4.38c0,2.75-2.82,5-6.26,5h-1.87a19.72,19.72,0,1,1-17.43-28.92Z" style="fill:#1a1a1a"/><path d="M376.61,224.4a18.89,18.89,0,0,0-2.51.17H349.18c-3.44,0-6.25,2.25-6.25,5s2.81,5,6.25,5h.74a5,5,0,0,0-3.24,4.38c0,2.75,2.81,5,6.25,5h1.36a5,5,0,0,0-3.23,4.37c0,2.75,2.81,5,6.25,5h1.87a19.72,19.72,0,1,0,17.43-28.92Z" style="fill:#1a1a1a"/><path d="M376.61,224.4a18.89,18.89,0,0,0-2.51.17H349.18c-3.44,0-6.25,2.25-6.25,5s2.81,5,6.25,5h.74a5,5,0,0,0-3.24,4.38c0,2.75,2.81,5,6.25,5h1.36a5,5,0,0,0-3.23,4.37c0,2.75,2.81,5,6.25,5h1.87a19.72,19.72,0,1,0,17.43-28.92Z" style="fill:none;stroke:#fff;stroke-miterlimit:10"/><ellipse cx="376.74" cy="244.11" rx="9.54" ry="9.53" style="fill:none;stroke:#fff;stroke-miterlimit:10"/><ellipse cx="376.74" cy="244.11" rx="4.05" ry="4.05" style="fill:#f8b318;stroke:#fff;stroke-miterlimit:10"/><path d="M505.81,225.11a21,21,0,0,1,2.52.16h24.91c3.44,0,6.25,2.25,6.25,5s-2.81,5-6.25,5h-.74a5,5,0,0,1,3.24,4.38c0,2.75-2.81,5-6.25,5h-1.36a5,5,0,0,1,3.24,4.38c0,2.75-2.82,5-6.26,5h-1.87a19.72,19.72,0,1,1-17.43-28.92Z" style="fill:none;stroke:#fff;stroke-miterlimit:10"/><ellipse cx="505.68" cy="244.81" rx="9.54" ry="9.53" style="fill:none;stroke:#fff;stroke-miterlimit:10"/><ellipse cx="505.68" cy="244.81" rx="4.05" ry="4.05" style="fill:#f8b318;stroke:#fff;stroke-miterlimit:10"/><g style="clip-path:url(#a68a46d7-5cb1-47aa-89f1-93c653f58c18)"><circle cx="441.21" cy="228.94" r="131.99" style="fill:none;stroke:#fff;stroke-miterlimit:10"/><line x1="441.21" y1="228.94" x2="441.21" y2="360.93" style="fill:none;stroke:#fff;stroke-miterlimit:10"/><line x1="441.21" y1="228.94" x2="461.86" y2="359.31" style="fill:none;stroke:#fff;stroke-miterlimit:10"/><line x1="441.21" y1="228.94" x2="482" y2="354.47" style="fill:none;stroke:#fff;stroke-miterlimit:10"/><line x1="441.21" y1="228.94" x2="501.13" y2="346.55" style="fill:none;stroke:#fff;stroke-miterlimit:10"/><line x1="441.21" y1="228.94" x2="518.79" y2="335.73" style="fill:none;stroke:#fff;stroke-miterlimit:10"/><line x1="441.21" y1="228.94" x2="534.54" y2="322.27" style="fill:none;stroke:#fff;stroke-miterlimit:10"/><line x1="441.21" y1="228.94" x2="547.99" y2="306.53" style="fill:none;stroke:#fff;stroke-miterlimit:10"/><line x1="441.21" y1="228.94" x2="558.81" y2="288.87" style="fill:none;stroke:#fff;stroke-miterlimit:10"/><line x1="441.21" y1="228.94" x2="566.74" y2="269.73" style="fill:none;stroke:#fff;stroke-miterlimit:10"/><line x1="441.21" y1="228.94" x2="571.58" y2="249.59" style="fill:none;stroke:#fff;stroke-miterlimit:10"/><line x1="441.21" y1="228.94" x2="573.2" y2="228.94" style="fill:none;stroke:#fff;stroke-miterlimit:10"/><line x1="441.21" y1="228.94" x2="571.58" y2="208.3" style="fill:none;stroke:#fff;stroke-miterlimit:10"/><line x1="441.21" y1="228.94" x2="566.74" y2="188.16" style="fill:none;stroke:#fff;stroke-miterlimit:10"/><line x1="441.21" y1="228.94" x2="558.81" y2="169.02" style="fill:none;stroke:#fff;stroke-miterlimit:10"/><line x1="441.21" y1="228.94" x2="547.99" y2="151.36" style="fill:none;stroke:#fff;stroke-miterlimit:10"/><line x1="441.21" y1="228.94" x2="534.54" y2="135.61" style="fill:none;stroke:#fff;stroke-miterlimit:10"/><line x1="441.21" y1="228.94" x2="518.79" y2="122.16" style="fill:none;stroke:#fff;stroke-miterlimit:10"/><line x1="441.21" y1="228.94" x2="501.13" y2="111.34" style="fill:none;stroke:#fff;stroke-miterlimit:10"/><line x1="441.21" y1="228.94" x2="482" y2="103.41" style="fill:none;stroke:#fff;stroke-miterlimit:10"/><line x1="441.21" y1="228.94" x2="461.86" y2="98.58" style="fill:none;stroke:#fff;stroke-miterlimit:10"/><line x1="441.21" y1="228.94" x2="441.21" y2="96.95" style="fill:none;stroke:#fff;stroke-miterlimit:10"/><line x1="441.21" y1="228.94" x2="420.56" y2="98.58" style="fill:none;stroke:#fff;stroke-miterlimit:10"/><line x1="441.21" y1="228.94" x2="400.42" y2="103.41" style="fill:none;stroke:#fff;stroke-miterlimit:10"/><line x1="441.21" y1="228.94" x2="381.29" y2="111.34" style="fill:none;stroke:#fff;stroke-miterlimit:10"/><line x1="441.21" y1="228.94" x2="363.63" y2="122.16" style="fill:none;stroke:#fff;stroke-miterlimit:10"/><line x1="441.21" y1="228.94" x2="347.88" y2="135.61" style="fill:none;stroke:#fff;stroke-miterlimit:10"/><line x1="441.21" y1="228.94" x2="334.43" y2="151.36" style="fill:none;stroke:#fff;stroke-miterlimit:10"/><line x1="441.21" y1="228.94" x2="323.61" y2="169.02" style="fill:none;stroke:#fff;stroke-miterlimit:10"/><line x1="441.21" y1="228.94" x2="315.68" y2="188.16" style="fill:none;stroke:#fff;stroke-miterlimit:10"/><line x1="441.21" y1="228.94" x2="310.85" y2="208.3" style="fill:none;stroke:#fff;stroke-miterlimit:10"/><line x1="441.21" y1="228.94" x2="309.22" y2="228.94" style="fill:none;stroke:#fff;stroke-miterlimit:10"/><line x1="441.21" y1="228.94" x2="310.85" y2="249.59" style="fill:none;stroke:#fff;stroke-miterlimit:10"/><line x1="441.21" y1="228.94" x2="315.68" y2="269.73" style="fill:none;stroke:#fff;stroke-miterlimit:10"/><line x1="441.21" y1="228.94" x2="323.61" y2="288.87" style="fill:none;stroke:#fff;stroke-miterlimit:10"/><line x1="441.21" y1="228.94" x2="334.43" y2="306.53" style="fill:none;stroke:#fff;stroke-miterlimit:10"/><line x1="441.21" y1="228.94" x2="347.88" y2="322.27" style="fill:none;stroke:#fff;stroke-miterlimit:10"/><line x1="441.21" y1="228.94" x2="363.63" y2="335.73" style="fill:none;stroke:#fff;stroke-miterlimit:10"/><line x1="441.21" y1="228.94" x2="381.29" y2="346.55" style="fill:none;stroke:#fff;stroke-miterlimit:10"/><line x1="441.21" y1="228.94" x2="400.42" y2="354.47" style="fill:none;stroke:#fff;stroke-miterlimit:10"/><line x1="441.21" y1="228.94" x2="420.56" y2="359.31" style="fill:none;stroke:#fff;stroke-miterlimit:10"/></g><circle cx="441.21" cy="228.94" r="111.6" style="fill:none;stroke:#fff;stroke-miterlimit:10"/><circle cx="441.21" cy="228.94" r="127.72" style="fill:none;stroke:#fff;stroke-miterlimit:10"/><path d="M574.55,250.25a147.22,147.22,0,0,0,1.68-21.09l24.56,0a173.18,173.18,0,0,1-2,24.9Z" style="fill:#1a1a1a"/><path d="M581.06,245.93c.12-1,.26-1.9.35-2.85l.22-2.87c.12-1.92.35-3.83.35-5.75l12.78.49c0,2.1-.24,4.18-.38,6.27l-.24,3.12c-.1,1-.25,2.08-.37,3.12Z" style="fill:#fab317"/><path d="M574.55,250.25a147.22,147.22,0,0,0,1.68-21.09l24.56,0a173.18,173.18,0,0,1-2,24.9Z" style="fill:none;stroke:#fff;stroke-miterlimit:10;stroke-width:0.5px"/><path d="M569.61,270.76a137.76,137.76,0,0,0,4.95-20.54l24.25,3.83A160.88,160.88,0,0,1,593,278.36Z" style="fill:#1a1a1a"/><path d="M575.61,261.34c1.77-.94,3.54-1.93,5.33-3s3.46-2.13,5.21-3.25c1.22,1.65,2.5,3.37,3.65,5.11s2.28,3.51,3.41,5.33l-2.7,1.64c-.91.53-1.86,1-2.78,1.55q-2.79,1.51-5.53,2.91c-1.06-1.8-2.12-3.56-3.2-5.28-.55-.86-1.08-1.7-1.64-2.54Z" style="fill:#fab317"/><path d="M569.61,270.76a137.76,137.76,0,0,0,4.95-20.54l24.25,3.83A160.88,160.88,0,0,1,593,278.36Z" style="fill:none;stroke:#fff;stroke-miterlimit:10;stroke-width:0.5px"/><path d="M550.44,308.29a128.94,128.94,0,0,0,11.06-18l21.86,11.17a152.73,152.73,0,0,1-13.07,21.3Z" style="fill:#1a1a1a"/><path d="M559.09,301.2c2-.33,3.93-.76,5.94-1.19s4-.91,6-1.45c.68,2,1.24,3.93,1.83,6s1.17,4.09,1.64,6.15c-2.09.48-4.17.92-6.22,1.32l-3.06.58-3.11.47-.64-3-.76-3C560.2,305.05,559.66,303.11,559.09,301.2Z" style="fill:#fab317"/><path d="M550.44,308.29a128.94,128.94,0,0,0,11.06-18l21.86,11.17a152.73,152.73,0,0,1-13.07,21.3Z" style="fill:none;stroke:#fff;stroke-miterlimit:10;stroke-width:0.5px"/><path d="M561.5,290.26a128.41,128.41,0,0,0,8.11-19.51l23.35,7.6a153.06,153.06,0,0,1-9.6,23.08Z" style="fill:#1a1a1a"/><path d="M569.06,288.19c.77-1.76,1.62-3.48,2.33-5.26l2.11-5.35,12,4.41-2.31,5.84c-.77,1.95-1.69,3.83-2.54,5.75Z" style="fill:#fab317"/><path d="M561.5,290.26a128.41,128.41,0,0,0,8.11-19.51l23.35,7.6a153.06,153.06,0,0,1-9.6,23.08Z" style="fill:none;stroke:#fff;stroke-miterlimit:10;stroke-width:0.5px"/><path d="M536.72,324.39a143.13,143.13,0,0,0,13.72-16.1l19.85,14.44a167.76,167.76,0,0,1-16.2,19Z" style="fill:#1a1a1a"/><path d="M544.53,324.72l1-1.05.94-1.08,1.89-2.18c.62-.73,1.27-1.44,1.87-2.19L552,316l10,7.91-1.94,2.47c-.65.81-1.36,1.59-2,2.38L556,331.1l-1,1.18-1.08,1.14Z" style="fill:#fab317"/><path d="M536.72,324.39a143.13,143.13,0,0,0,13.72-16.1l19.85,14.44a167.76,167.76,0,0,1-16.2,19Z" style="fill:none;stroke:#fff;stroke-miterlimit:10;stroke-width:0.5px"/><path d="M520.66,338.1a143.21,143.21,0,0,0,16.09-13.74l17.37,17.36a167.89,167.89,0,0,1-19,16.22Z" style="fill:#1a1a1a"/><path d="M531.05,334c2,.28,4,.52,6.06.74s4,.31,6.13.42c0,2.06,0,4.16,0,6.28s-.21,4.18-.37,6.31c-4.19-.28-8.45-.89-12.49-1.52C530.72,342,531,338.07,531.05,334Z" style="fill:#fab317"/><path d="M520.66,338.1a143.21,143.21,0,0,0,16.09-13.74l17.37,17.36a167.89,167.89,0,0,1-19,16.22Z" style="fill:none;stroke:#fff;stroke-miterlimit:10;stroke-width:0.5px"/><path d="M483.15,357.3a127.8,127.8,0,0,0,19.5-8.13L513.84,371a152.56,152.56,0,0,1-23.07,9.61Z" style="fill:#1a1a1a"/><path d="M494.31,356.62c1.82.92,3.63,1.69,5.51,2.51s3.79,1.63,5.72,2.35c-.61,2-1.3,3.92-2,5.9s-1.45,4-2.28,5.95q-3-1.26-5.82-2.57l-2.82-1.32L489.83,368l1.24-2.81,1.14-2.88Q493.32,359.44,494.31,356.62Z" style="fill:#fab317"/><path d="M483.15,357.3a127.8,127.8,0,0,0,19.5-8.13L513.84,371a152.56,152.56,0,0,1-23.07,9.61Z" style="fill:none;stroke:#fff;stroke-miterlimit:10;stroke-width:0.5px"/><path d="M502.66,349.17a129,129,0,0,0,18-11.08l14.46,19.84A153.61,153.61,0,0,1,513.85,371Z" style="fill:#1a1a1a"/><path d="M510,351.91c1.65-1,3.35-1.88,5-2.9l4.84-3.11L527,356.51l-5.28,3.39c-1.77,1.12-3.62,2.11-5.42,3.17Z" style="fill:#fab317"/><path d="M502.66,349.17a129,129,0,0,0,18-11.08l14.46,19.84A153.61,153.61,0,0,1,513.85,371Z" style="fill:none;stroke:#fff;stroke-miterlimit:10;stroke-width:0.5px"/><path d="M462.18,362.35a142,142,0,0,0,20.56-4.91l7.54,23.36A166.43,166.43,0,0,1,466,386.61Z" style="fill:#1a1a1a"/><path d="M468.29,367.22c.95-.15,1.89-.35,2.82-.58l2.8-.65c.94-.22,1.88-.41,2.8-.66l2.77-.78L483,376.86l-3,.86c-1,.27-2,.48-3.06.72l-3.06.71c-1,.25-2,.47-3.07.63Z" style="fill:#fab317"/><path d="M462.18,362.35a142,142,0,0,0,20.56-4.91l7.54,23.36A166.43,166.43,0,0,1,466,386.61Z" style="fill:none;stroke:#fff;stroke-miterlimit:10;stroke-width:0.5px"/><path d="M441.12,364a151.9,151.9,0,0,0,21.1-1.63L466,386.6a174.43,174.43,0,0,1-24.9,1.92Z" style="fill:#1a1a1a"/><path d="M452,366.74c1.44,1.39,2.93,2.84,4.46,4.17s3.08,2.65,4.69,4q-1.8,2.52-3.74,5c-1.29,1.67-2.64,3.24-4,4.88-1.62-1.4-3.19-2.77-4.72-4.2s-3-2.94-4.48-4.42q2.08-2.31,4-4.62C449.48,370,450.74,368.34,452,366.74Z" style="fill:#fab317"/><path d="M441.12,364a151.9,151.9,0,0,0,21.1-1.63L466,386.6a174.43,174.43,0,0,1-24.9,1.92Z" style="fill:none;stroke:#fff;stroke-miterlimit:10;stroke-width:0.5px"/><path d="M399.48,357.37A138.81,138.81,0,0,0,420,362.31l-3.82,24.25a162,162,0,0,1-24.31-5.84Z" style="fill:#1a1a1a"/><path d="M408.9,363.37c1,1.76,1.94,3.54,3,5.32s2.13,3.46,3.26,5.21c-1.66,1.22-3.38,2.49-5.11,3.65s-3.51,2.29-5.33,3.42c-2.25-3.55-4.24-7.38-6.11-11C402.19,367.82,405.59,365.77,408.9,363.37Z" style="fill:#fab317"/><path d="M399.48,357.37A138.81,138.81,0,0,0,420,362.31l-3.82,24.25a162,162,0,0,1-24.31-5.84Z" style="fill:none;stroke:#fff;stroke-miterlimit:10;stroke-width:0.5px"/><path d="M420,362.31a150.41,150.41,0,0,0,21.1,1.66l0,24.55a174.7,174.7,0,0,1-24.9-2Z" style="fill:#1a1a1a"/><path d="M424.36,368.81c.95.11,1.9.27,2.86.34l2.87.22c1.91.13,3.82.34,5.74.34l-.48,12.79c-2.09,0-4.17-.23-6.26-.37l-3.13-.24c-1-.09-2.08-.25-3.11-.37Z" style="fill:#fab317"/><path d="M420,362.31a150.41,150.41,0,0,0,21.1,1.66l0,24.55a174.7,174.7,0,0,1-24.9-2Z" style="fill:none;stroke:#fff;stroke-miterlimit:10;stroke-width:0.5px"/><path d="M380,349.27a127.36,127.36,0,0,0,19.51,8.1l-7.58,23.35a152.65,152.65,0,0,1-23.09-9.58Z" style="fill:#1a1a1a"/><path d="M382.05,356.83c1.75.76,3.47,1.62,5.26,2.32l5.35,2.11-4.41,12L382.41,371c-2-.76-3.83-1.69-5.75-2.53Z" style="fill:#fab317"/><path d="M380,349.27a127.36,127.36,0,0,0,19.51,8.1l-7.58,23.35a152.65,152.65,0,0,1-23.09-9.58Z" style="fill:none;stroke:#fff;stroke-miterlimit:10;stroke-width:0.5px"/><path d="M362,338.25a128.34,128.34,0,0,0,18,11l-11.15,21.87a152.71,152.71,0,0,1-21.31-13.05Z" style="fill:#1a1a1a"/><path d="M369.07,346.9c.34,2,.76,3.93,1.19,5.93s.91,4,1.46,6c-2,.69-3.93,1.24-6,1.84s-4.09,1.16-6.15,1.64c-.48-2.09-.92-4.17-1.33-6.22L357.7,353c-.17-1-.32-2.07-.47-3.1,1-.21,2-.42,3-.65l3-.76C365.21,348,367.16,347.46,369.07,346.9Z" style="fill:#fab317"/><path d="M362,338.25a128.34,128.34,0,0,0,18,11l-11.15,21.87a152.71,152.71,0,0,1-21.31-13.05Z" style="fill:none;stroke:#fff;stroke-miterlimit:10;stroke-width:0.5px"/><path d="M332.11,308.46a142.31,142.31,0,0,0,13.75,16.08l-17.34,17.39a167.81,167.81,0,0,1-16.24-19Z" style="fill:#1a1a1a"/><path d="M336.23,318.86c-.27,2-.51,4-.73,6.06s-.31,4.05-.42,6.12c-2.06,0-4.16,0-6.28,0s-4.18-.21-6.31-.36c.28-4.2.88-8.45,1.51-12.5C328.17,318.53,332.15,318.85,336.23,318.86Z" style="fill:#fab317"/><path d="M332.11,308.46a142.31,142.31,0,0,0,13.75,16.08l-17.34,17.39a167.81,167.81,0,0,1-16.24-19Z" style="fill:none;stroke:#fff;stroke-miterlimit:10;stroke-width:0.5px"/><path d="M345.86,324.55A141.26,141.26,0,0,0,362,338.25l-14.43,19.87a166.91,166.91,0,0,1-19-16.19Z" style="fill:#1a1a1a"/><path d="M345.54,332.36c.68.67,1.4,1.31,2.13,1.93l2.18,1.88c1.43,1.29,2.94,2.46,4.46,3.65l-7.9,10.06c-1.65-1.29-3.31-2.57-4.86-4l-2.38-2.06c-.79-.67-1.58-1.37-2.32-2.1Z" style="fill:#fab317"/><path d="M345.86,324.55A141.26,141.26,0,0,0,362,338.25l-14.43,19.87a166.91,166.91,0,0,1-19-16.19Z" style="fill:none;stroke:#fff;stroke-miterlimit:10;stroke-width:0.5px"/><path d="M320.83,290.08a126.43,126.43,0,0,0,11,18L312,322.53a152.75,152.75,0,0,1-13-21.32Z" style="fill:#1a1a1a"/><path d="M318.06,297.41c1,1.66,1.89,3.34,2.89,5l3.11,4.85-10.64,7.12L310,309.07c-1.08-1.79-2.1-3.62-3.15-5.43Z" style="fill:#fab317"/><path d="M320.83,290.08a126.43,126.43,0,0,0,11,18L312,322.53a152.75,152.75,0,0,1-13-21.32Z" style="fill:none;stroke:#fff;stroke-miterlimit:10;stroke-width:0.5px"/><path d="M312.76,270.59a128.81,128.81,0,0,0,8.08,19.52L299,301.25a152.67,152.67,0,0,1-9.56-23.1Z" style="fill:#1a1a1a"/><path d="M313.42,281.75c-.94,1.82-1.71,3.63-2.53,5.5s-1.61,3.79-2.37,5.73c-2-.63-3.91-1.31-5.89-2s-4-1.45-5.93-2.29c1.7-4,3.35-7.72,5.35-11.41C305.75,279,309.69,280.41,313.42,281.75Z" style="fill:#fab317"/><path d="M312.76,270.59a128.81,128.81,0,0,0,8.08,19.52L299,301.25a152.67,152.67,0,0,1-9.56-23.1Z" style="fill:none;stroke:#fff;stroke-miterlimit:10;stroke-width:0.5px"/><path d="M306.18,228.94a150.4,150.4,0,0,0,1.65,21.1l-24.25,3.8a174.46,174.46,0,0,1-1.95-24.9Z" style="fill:#1a1a1a"/><path d="M303.42,239.77c-1.39,1.45-2.84,2.94-4.17,4.46s-2.64,3.09-4,4.7q-2.51-1.8-5-3.74c-1.69-1.29-3.25-2.63-4.88-4,1.39-1.61,2.76-3.19,4.19-4.72s2.94-3,4.41-4.47c1.55,1.38,3.09,2.73,4.63,4S301.82,238.56,303.42,239.77Z" style="fill:#fab317"/><path d="M306.18,228.94a150.4,150.4,0,0,0,1.65,21.1l-24.25,3.8a174.46,174.46,0,0,1-1.95-24.9Z" style="fill:none;stroke:#fff;stroke-miterlimit:10;stroke-width:0.5px"/><path d="M307.83,250.05a139.38,139.38,0,0,0,4.93,20.55l-23.36,7.57a163.92,163.92,0,0,1-5.82-24.32Z" style="fill:#1a1a1a"/><path d="M303,256.16c.14.95.36,1.89.58,2.82l.65,2.8c.23.93.41,1.88.67,2.8l.79,2.77-12.32,3.48-.85-3c-.28-1-.49-2-.73-3.06l-.71-3.06c-.24-1-.48-2-.64-3.07Z" style="fill:#fab317"/><path d="M307.83,250.05a139.38,139.38,0,0,0,4.93,20.55l-23.36,7.57a163.92,163.92,0,0,1-5.82-24.32Z" style="fill:none;stroke:#fff;stroke-miterlimit:10;stroke-width:0.5px"/><path d="M307.83,207.85a150.4,150.4,0,0,0-1.65,21.1H281.63A174.72,174.72,0,0,1,283.58,204Z" style="fill:#1a1a1a"/><path d="M301.33,212.18c-.11.95-.27,1.9-.34,2.86l-.21,2.87c-.14,1.91-.34,3.82-.34,5.75l-12.79-.48c0-2.09.22-4.17.37-6.26l.24-3.13c.08-1,.24-2.08.36-3.12Z" style="fill:#fab317"/><path d="M307.83,207.85a150.4,150.4,0,0,0-1.65,21.1H281.63A174.72,174.72,0,0,1,283.58,204Z" style="fill:none;stroke:#fff;stroke-miterlimit:10;stroke-width:0.5px"/><path d="M312.75,187.33a139.35,139.35,0,0,0-4.92,20.55l-24.26-3.79a163.92,163.92,0,0,1,5.82-24.32Z" style="fill:#1a1a1a"/><path d="M306.76,196.76c-1.77,1-3.54,1.94-5.33,3s-3.46,2.14-5.2,3.27c-1.23-1.66-2.49-3.37-3.66-5.11s-2.29-3.51-3.41-5.32c3.55-2.25,7.36-4.26,11-6.12C302.3,190.05,304.36,193.46,306.76,196.76Z" style="fill:#fab317"/><path d="M312.75,187.33a139.35,139.35,0,0,0-4.92,20.55l-24.26-3.79a163.92,163.92,0,0,1,5.82-24.32Z" style="fill:none;stroke:#fff;stroke-miterlimit:10;stroke-width:0.5px"/><path d="M331.86,149.78a126.43,126.43,0,0,0-11,18l-21.89-11.13a152.75,152.75,0,0,1,13-21.32Z" style="fill:#1a1a1a"/><path d="M323.21,156.88c-2,.34-3.93.76-5.93,1.2s-4,.9-6,1.46c-.7-2-1.25-3.93-1.84-6s-1.16-4.08-1.66-6.15q3.15-.72,6.23-1.33l3.06-.58c1-.18,2.07-.33,3.1-.48.21,1,.41,2,.65,3l.77,3Q322.36,154,323.21,156.88Z" style="fill:#fab317"/><path d="M331.86,149.78a126.43,126.43,0,0,0-11,18l-21.89-11.13a152.75,152.75,0,0,1,13-21.32Z" style="fill:none;stroke:#fff;stroke-miterlimit:10;stroke-width:0.5px"/><path d="M320.82,167.82a129.84,129.84,0,0,0-8.08,19.52l-23.36-7.56a153.1,153.1,0,0,1,9.56-23.1Z" style="fill:#1a1a1a"/><path d="M313.27,169.91c-.76,1.75-1.63,3.47-2.32,5.26l-2.11,5.35-12-4.39,2.3-5.85c.75-1.95,1.69-3.83,2.53-5.74Z" style="fill:#fab317"/><path d="M320.82,167.82a129.84,129.84,0,0,0-8.08,19.52l-23.36-7.56a153.1,153.1,0,0,1,9.56-23.1Z" style="fill:none;stroke:#fff;stroke-miterlimit:10;stroke-width:0.5px"/><path d="M345.86,133.35a143.09,143.09,0,0,0-13.75,16.07l-19.83-14.48a167.71,167.71,0,0,1,16.24-19Z" style="fill:#1a1a1a"/><path d="M338.05,133c-1.36,1.35-2.56,2.86-3.83,4.3-.62.72-1.26,1.44-1.88,2.18l-1.77,2.26-10.05-7.93,1.94-2.46c.67-.81,1.37-1.59,2.05-2.38,1.38-1.57,2.69-3.2,4.17-4.69Z" style="fill:#fab317"/><path d="M345.86,133.35a143.09,143.09,0,0,0-13.75,16.07l-19.83-14.48a167.71,167.71,0,0,1,16.24-19Z" style="fill:none;stroke:#fff;stroke-miterlimit:10;stroke-width:0.5px"/><path d="M361.94,119.66a143.15,143.15,0,0,0-16.11,13.71L328.49,116a166.81,166.81,0,0,1,19-16.19Z" style="fill:#1a1a1a"/><path d="M351.54,123.76c-2-.28-4-.52-6.06-.74s-4.05-.32-6.12-.43c0-2.07,0-4.18.05-6.28s.22-4.18.38-6.32c4.19.28,8.46.91,12.49,1.54C351.89,115.71,351.55,119.67,351.54,123.76Z" style="fill:#fab317"/><path d="M361.94,119.66a143.15,143.15,0,0,0-16.11,13.71L328.49,116a166.81,166.81,0,0,1,19-16.19Z" style="fill:none;stroke:#fff;stroke-miterlimit:10;stroke-width:0.5px"/><path d="M399.48,100.52a127.36,127.36,0,0,0-19.51,8.1L368.81,86.74a152.6,152.6,0,0,1,23.09-9.57Z" style="fill:#1a1a1a"/><path d="M388.32,101.19c-1.83-.94-3.63-1.7-5.51-2.53S379,97,377.09,96.3c.62-2,1.31-3.91,2-5.9s1.45-4,2.28-5.93c2,.84,3.92,1.69,5.82,2.57,1,.44,1.88.86,2.82,1.33l2.79,1.44-1.25,2.81c-.4.94-.77,1.92-1.14,2.87Q389.31,98.37,388.32,101.19Z" style="fill:#fab317"/><path d="M399.48,100.52a127.36,127.36,0,0,0-19.51,8.1L368.81,86.74a152.6,152.6,0,0,1,23.09-9.57Z" style="fill:none;stroke:#fff;stroke-miterlimit:10;stroke-width:0.5px"/><path d="M380,108.62a128,128,0,0,0-18,11L347.5,99.81a151.73,151.73,0,0,1,21.3-13.06Z" style="fill:#1a1a1a"/><path d="M372.62,105.86c-1.66,1-3.34,1.89-5,2.9l-4.84,3.1-7.13-10.62L361,97.85c1.78-1.1,3.62-2.1,5.43-3.16Z" style="fill:#fab317"/><path d="M380,108.62a128,128,0,0,0-18,11L347.5,99.81a151.73,151.73,0,0,1,21.3-13.06Z" style="fill:none;stroke:#fff;stroke-miterlimit:10;stroke-width:0.5px"/><path d="M420,95.58a138.81,138.81,0,0,0-20.55,4.94L391.9,77.17a162,162,0,0,1,24.31-5.84Z" style="fill:#1a1a1a"/><path d="M413.91,90.7c-1.9.32-3.75.84-5.62,1.24-.93.23-1.88.41-2.8.68l-2.77.78-3.49-12.31,3-.86c1-.28,2-.48,3.05-.73,2-.45,4.07-1,6.13-1.35Z" style="fill:#fab317"/><path d="M420,95.58a138.81,138.81,0,0,0-20.55,4.94L391.9,77.17a162,162,0,0,1,24.31-5.84Z" style="fill:none;stroke:#fff;stroke-miterlimit:10;stroke-width:0.5px"/><path d="M441.09,93.92A148.93,148.93,0,0,0,420,95.59l-3.83-24.26a173.15,173.15,0,0,1,24.9-2Z" style="fill:#1a1a1a"/><path d="M430.25,91.16c-1.44-1.38-2.94-2.84-4.46-4.16s-3.1-2.64-4.71-4c1.21-1.67,2.45-3.35,3.74-5s2.63-3.25,4-4.89c1.62,1.39,3.2,2.78,4.73,4.19s3,2.94,4.48,4.41c-1.39,1.54-2.73,3.09-4,4.62S431.46,89.56,430.25,91.16Z" style="fill:#fab317"/><path d="M441.09,93.92A148.93,148.93,0,0,0,420,95.59l-3.83-24.26a173.15,173.15,0,0,1,24.9-2Z" style="fill:none;stroke:#fff;stroke-miterlimit:10;stroke-width:0.5px"/><path d="M482.74,100.45a142,142,0,0,0-20.56-4.91L466,71.28a166.4,166.4,0,0,1,24.32,5.8Z" style="fill:#1a1a1a"/><path d="M473.3,94.47q-1.43-2.64-3-5.33c-1-1.75-2.14-3.45-3.27-5.19,1.66-1.23,3.37-2.48,5.1-3.67s3.51-2.29,5.32-3.41c2.26,3.55,4.26,7.35,6.13,11C480,90,476.61,92.07,473.3,94.47Z" style="fill:#fab317"/><path d="M482.74,100.45a142,142,0,0,0-20.56-4.91L466,71.28a166.4,166.4,0,0,1,24.32,5.8Z" style="fill:none;stroke:#fff;stroke-miterlimit:10;stroke-width:0.5px"/><path d="M462.17,95.54a150.25,150.25,0,0,0-21.1-1.62l0-24.55A174.53,174.53,0,0,1,466,71.28Z" style="fill:#1a1a1a"/><path d="M457.84,89.05c-1.9-.29-3.82-.41-5.73-.55s-3.83-.33-5.75-.33l.46-12.79c2.09,0,4.18.2,6.26.36s4.18.29,6.25.6Z" style="fill:#fab317"/><path d="M462.17,95.54a150.25,150.25,0,0,0-21.1-1.62l0-24.55A174.53,174.53,0,0,1,466,71.28Z" style="fill:none;stroke:#fff;stroke-miterlimit:10;stroke-width:0.5px"/><path d="M502.65,108.72a127.8,127.8,0,0,0-19.5-8.13l7.62-23.34a152.56,152.56,0,0,1,23.07,9.61Z" style="fill:#1a1a1a"/><path d="M500.58,101.16c-1.75-.78-3.48-1.62-5.25-2.34L490,96.71l4.43-12L500.24,87c1.94.78,3.83,1.7,5.74,2.54Z" style="fill:#fab317"/><path d="M502.65,108.72a127.8,127.8,0,0,0-19.5-8.13l7.62-23.34a152.56,152.56,0,0,1,23.07,9.61Z" style="fill:none;stroke:#fff;stroke-miterlimit:10;stroke-width:0.5px"/><path d="M520.63,119.77a128.9,128.9,0,0,0-18-11.07L513.8,86.84a152.76,152.76,0,0,1,21.29,13.09Z" style="fill:#1a1a1a"/><path d="M513.54,111.11c-.32-2-.75-3.93-1.18-5.94s-.91-4-1.45-6c2-.67,3.94-1.24,6-1.83S521,96.16,523,95.7q.72,3.15,1.33,6.22l.57,3.06.47,3.11-3,.64-3,.76Q516.41,110.27,513.54,111.11Z" style="fill:#fab317"/><path d="M520.63,119.77a128.9,128.9,0,0,0-18-11.07L513.8,86.84a152.76,152.76,0,0,1,21.29,13.09Z" style="fill:none;stroke:#fff;stroke-miterlimit:10;stroke-width:0.5px"/><path d="M550.44,149.6a143.13,143.13,0,0,0-13.72-16.1l17.37-17.36a167.66,167.66,0,0,1,16.2,19Z" style="fill:#1a1a1a"/><path d="M546.33,139.2q.42-3,.74-6.06c.19-2,.32-4,.43-6.12,2.06,0,4.17,0,6.28,0s4.18.21,6.31.37c-.27,4.2-.9,8.46-1.53,12.5C554.39,139.55,550.42,139.21,546.33,139.2Z" style="fill:#fab317"/><path d="M550.44,149.6a143.13,143.13,0,0,0-13.72-16.1l17.37-17.36a167.66,167.66,0,0,1,16.2,19Z" style="fill:none;stroke:#fff;stroke-miterlimit:10;stroke-width:0.5px"/><path d="M536.72,133.49a144.27,144.27,0,0,0-16.1-13.73l14.46-19.84a166.87,166.87,0,0,1,19,16.22Z" style="fill:#1a1a1a"/><path d="M537.05,125.69c-1.36-1.36-2.88-2.55-4.31-3.83-.73-.62-1.44-1.27-2.18-1.87l-2.27-1.78,7.92-10,2.47,1.94c.81.66,1.59,1.36,2.38,2,1.56,1.39,3.21,2.69,4.69,4.17Z" style="fill:#fab317"/><path d="M536.72,133.49a144.27,144.27,0,0,0-16.1-13.73l14.46-19.84a166.87,166.87,0,0,1,19,16.22Z" style="fill:none;stroke:#fff;stroke-miterlimit:10;stroke-width:0.5px"/><path d="M561.5,167.62a128.37,128.37,0,0,0-11.06-18l19.85-14.45a152.73,152.73,0,0,1,13.07,21.3Z" style="fill:#1a1a1a"/><path d="M564.25,160.28c-1-1.66-1.89-3.35-2.9-5l-3.11-4.84,10.62-7.14,3.39,5.29c1.11,1.77,2.11,3.61,3.16,5.42Z" style="fill:#fab317"/><path d="M561.5,167.62a128.37,128.37,0,0,0-11.06-18l19.85-14.45a152.73,152.73,0,0,1,13.07,21.3Z" style="fill:none;stroke:#fff;stroke-miterlimit:10;stroke-width:0.5px"/><path d="M569.6,187.1a128.46,128.46,0,0,0-8.12-19.51l21.86-11.18a152,152,0,0,1,9.6,23.08Z" style="fill:#1a1a1a"/><path d="M568.92,175.93c.93-1.82,1.69-3.63,2.52-5.51s1.62-3.79,2.35-5.72c2,.61,3.92,1.3,5.9,2s4,1.45,5.94,2.28c-.84,2-1.69,3.92-2.57,5.82l-1.32,2.82-1.44,2.79-2.81-1.24L574.61,178Q571.75,176.92,568.92,175.93Z" style="fill:#fab317"/><path d="M569.6,187.1a128.46,128.46,0,0,0-8.12-19.51l21.86-11.18a152,152,0,0,1,9.6,23.08Z" style="fill:none;stroke:#fff;stroke-miterlimit:10;stroke-width:0.5px"/><path d="M576.23,228.73a147.48,147.48,0,0,0-1.68-21.1l24.25-3.84a173.18,173.18,0,0,1,2,24.9Z" style="fill:#1a1a1a"/><path d="M579,217.89c1.38-1.44,2.85-2.94,4.15-4.46s2.64-3.1,4-4.71q2.5,1.8,5,3.73c1.71,1.29,3.26,2.63,4.9,4-1.39,1.62-2.78,3.2-4.19,4.73s-2.93,3-4.41,4.48q-2.31-2.07-4.62-4T579,217.89Z" style="fill:#fab317"/><path d="M576.23,228.73a147.48,147.48,0,0,0-1.68-21.1l24.25-3.84a173.18,173.18,0,0,1,2,24.9Z" style="fill:none;stroke:#fff;stroke-miterlimit:10;stroke-width:0.5px"/><path d="M574.55,207.63a136.7,136.7,0,0,0-5-20.55l23.35-7.6a162.26,162.26,0,0,1,5.86,24.3Z" style="fill:#1a1a1a"/><path d="M579.43,201.5c-.34-1.89-.84-3.74-1.25-5.62s-.94-3.71-1.47-5.56l12.31-3.5c.58,2,1.17,4,1.6,6.07s1,4.07,1.36,6.13Z" style="fill:#fab317"/><path d="M574.55,207.63a136.7,136.7,0,0,0-5-20.55l23.35-7.6a162.26,162.26,0,0,1,5.86,24.3Z" style="fill:none;stroke:#fff;stroke-miterlimit:10;stroke-width:0.5px"/><path d="M441.21,70.49A158.46,158.46,0,1,0,599.66,228.94,158.45,158.45,0,0,0,441.21,70.49Zm0,293.23A134.78,134.78,0,1,1,576,228.94,134.78,134.78,0,0,1,441.21,363.72Z" style="fill:none;stroke:#fff;stroke-miterlimit:10"/><polyline points="619.6 243.39 606.51 242.35 606.76 239.13 606.88 237.51 606.92 235.9 607.09 229.44 620.22 229.47" style="fill:none;stroke:#fff;stroke-miterlimit:10"/><path d="M606.51,242.34l13.09,1-.27,3.48c-.1,1.15-.28,2.3-.41,3.46-.32,2.3-.54,4.61-.94,6.9l-13-2.06" style="fill:none;stroke:#fff;stroke-miterlimit:10"/><path d="M615.24,270.87l-12.76-3.07c.46-2.1,1-4.18,1.41-6.3l1.13-6.36,13,2.06" style="fill:none;stroke:#fff;stroke-miterlimit:10"/><path d="M602.48,267.79l12.77,3.07c-.28,1.13-.5,2.27-.82,3.39l-.95,3.35c-.65,2.23-1.22,4.49-2,6.68L599,280.22" style="fill:none;stroke:#fff;stroke-miterlimit:10"/><path d="M606.67,297.34l-12.13-5,2.37-6c.72-2,1.38-4.07,2.08-6.11l12.49,4.05" style="fill:none;stroke:#fff;stroke-miterlimit:10"/><path d="M594.54,292.31l12.13,5c-.4,1.09-.89,2.14-1.37,3.2l-1.44,3.18c-.48,1.05-.94,2.12-1.45,3.17l-1.59,3.1-11.7-6" style="fill:none;stroke:#fff;stroke-miterlimit:10"/><path d="M594.07,322.15l-11.2-6.85c2.16-3.72,4.37-7.42,6.26-11.29l11.7,5.95" style="fill:none;stroke:#fff;stroke-miterlimit:10"/><path d="M582.87,315.29l11.21,6.85L590.31,328c-1.25,2-2.66,3.8-4,5.71L575.69,326" style="fill:none;stroke:#fff;stroke-miterlimit:10"/><polyline points="577.03 345.49 567.08 336.94 569.19 334.5 571.19 331.96 573.18 329.42 574.18 328.15 575.12 326.83 585.71 334.59" style="fill:none;stroke:#fff;stroke-miterlimit:10"/><path d="M567.08,336.93l10,8.55c-3,3.57-6.23,6.9-9.45,10.25l-9.27-9.3" style="fill:none;stroke:#fff;stroke-miterlimit:10"/><path d="M557.34,365.13l-8.52-10,2.44-2.12c.82-.7,1.64-1.4,2.4-2.16l4.68-4.46,9.27,9.3" style="fill:none;stroke:#fff;stroke-miterlimit:10"/><path d="M548.83,355.14l8.52,10c-.89.76-1.74,1.54-2.65,2.27L552,369.54c-1.83,1.43-3.63,2.91-5.55,4.22l-7.72-10.62" style="fill:none;stroke:#fff;stroke-miterlimit:10"/><path d="M534.86,381.52,528,370.34l5.44-3.49c1.79-1.2,3.52-2.49,5.29-3.72l7.72,10.61" style="fill:none;stroke:#fff;stroke-miterlimit:10"/><path d="M528,370.33l6.88,11.18c-2,1.24-4,2.34-6,3.52s-4.07,2.23-6.14,3.29l-6-11.68" style="fill:none;stroke:#fff;stroke-miterlimit:10"/><path d="M510.1,394.21,505,382.09c2-.81,3.94-1.76,5.9-2.63s3.89-1.85,5.8-2.83l6,11.68" style="fill:none;stroke:#fff;stroke-miterlimit:10"/><path d="M505.05,382.09l5.06,12.11-6.49,2.56c-2.17.83-4.39,1.52-6.59,2.28l-4.09-12.48" style="fill:none;stroke:#fff;stroke-miterlimit:10"/><polyline points="482.59 403.1 479.57 390.33 482.72 389.6 485.82 388.72 488.93 387.83 490.48 387.4 492.01 386.88 496.03 399.38" style="fill:none;stroke:#fff;stroke-miterlimit:10"/><path d="M479.58,390.32l3,12.78-3.4.78c-1.13.27-2.27.53-3.41.71l-6.87,1.23-2-13" style="fill:none;stroke:#fff;stroke-miterlimit:10"/><path d="M455.11,407.38l-1-13.09c4.31-.24,8.57-.9,12.84-1.45l2,13" style="fill:none;stroke:#fff;stroke-miterlimit:10"/><path d="M454.11,394.29l1,13.08c-4.63.46-9.28.46-13.92.59V394.83" style="fill:none;stroke:#fff;stroke-miterlimit:10"/><path d="M427.3,407.37l1-13.08c4.29.42,8.61.41,12.91.54V408" style="fill:none;stroke:#fff;stroke-miterlimit:10"/><path d="M428.32,394.29l-1,13.09c-4.64-.27-9.24-1-13.84-1.57l2-13" style="fill:none;stroke:#fff;stroke-miterlimit:10"/><path d="M399.82,403.1l3-12.78,3.15.73c1,.25,2.09.49,3.16.66l6.36,1.14-2,13" style="fill:none;stroke:#fff;stroke-miterlimit:10"/><polyline points="402.85 390.33 399.83 403.1 396.43 402.31 393.08 401.36 389.72 400.41 388.05 399.93 386.39 399.38 390.41 386.88" style="fill:none;stroke:#fff;stroke-miterlimit:10"/><path d="M372.31,394.2l5.06-12.11,6,2.37c2,.77,4.08,1.4,6.11,2.1L385.39,399" style="fill:none;stroke:#fff;stroke-miterlimit:10"/><path d="M377.38,382.09l-5.06,12.12c-2.15-.89-4.24-1.9-6.37-2.84s-4.19-2-6.26-3.06l6-11.68" style="fill:none;stroke:#fff;stroke-miterlimit:10"/><path d="M347.55,381.51l6.88-11.18c1.82,1.15,3.72,2.16,5.57,3.26s3.78,2.07,5.7,3.05l-6,11.68" style="fill:none;stroke:#fff;stroke-miterlimit:10"/><path d="M354.44,370.34l-6.88,11.18-5.87-3.77c-1.93-1.29-3.8-2.67-5.7-4l7.73-10.61" style="fill:none;stroke:#fff;stroke-miterlimit:10"/><path d="M325.07,365.12l8.53-10c.82.7,1.61,1.43,2.45,2.1l2.54,2c1.7,1.32,3.36,2.7,5.14,3.91L336,373.76" style="fill:none;stroke:#fff;stroke-miterlimit:10"/><path d="M333.6,355.15l-8.52,10-2.63-2.28c-.88-.76-1.77-1.51-2.59-2.33l-5.05-4.81,9.27-9.3" style="fill:none;stroke:#fff;stroke-miterlimit:10"/><path d="M305.38,345.48l10-8.55c2.76,3.31,5.78,6.39,8.76,9.5l-9.27,9.3" style="fill:none;stroke:#fff;stroke-miterlimit:10"/><polyline points="315.35 336.94 305.39 345.49 303.11 342.86 300.95 340.12 298.8 337.38 297.72 336.01 296.71 334.59 307.3 326.83" style="fill:none;stroke:#fff;stroke-miterlimit:10"/><path d="M288.34,322.14l11.21-6.85,3.48,5.44c1.16,1.82,2.48,3.53,3.7,5.3l-10.63,7.69" style="fill:none;stroke:#fff;stroke-miterlimit:10"/><path d="M299.55,315.3l-11.2,6.85c-2.34-4-4.72-8-6.76-12.19l11.7-5.95" style="fill:none;stroke:#fff;stroke-miterlimit:10"/><path d="M275.75,297.33l12.13-5c.37,1,.82,2,1.27,3l1.33,2.94c.45,1,.87,2,1.35,2.94L293.3,304l-11.7,6" style="fill:none;stroke:#fff;stroke-miterlimit:10"/><path d="M287.88,292.32l-12.13,5-2.55-6.49c-.78-2.19-1.51-4.4-2.26-6.6l12.49-4.05" style="fill:none;stroke:#fff;stroke-miterlimit:10"/><path d="M267.18,270.86l12.76-3.07c.25,1,.46,2.11.75,3.14l.89,3.11c.6,2.06,1.12,4.16,1.86,6.18L271,284.28" style="fill:none;stroke:#fff;stroke-miterlimit:10"/><path d="M279.94,267.8l-12.76,3.07c-.51-2.27-1.09-4.52-1.52-6.81l-1.23-6.86,13-2.06" style="fill:none;stroke:#fff;stroke-miterlimit:10"/><path d="M262.82,243.38l13.09-1,.24,3.22c.1,1.07.26,2.13.39,3.2.29,2.14.49,4.28.86,6.4l-13,2.06" style="fill:none;stroke:#fff;stroke-miterlimit:10"/><polyline points="275.91 242.35 262.82 243.39 262.56 239.92 262.43 238.18 262.38 236.44 262.2 229.47 275.33 229.44" style="fill:none;stroke:#fff;stroke-miterlimit:10"/><polyline points="262.82 214.5 275.91 215.54 275.66 218.76 275.54 220.37 275.5 221.99 275.33 228.45 262.2 228.41" style="fill:none;stroke:#fff;stroke-miterlimit:10"/><path d="M275.91,215.55l-13.09-1,.27-3.48c.1-1.15.28-2.3.41-3.46.32-2.3.54-4.62.94-6.91l13,2.06" style="fill:none;stroke:#fff;stroke-miterlimit:10"/><path d="M267.18,187l12.76,3.06c-.46,2.11-1,4.19-1.41,6.31l-1.13,6.35-13-2.05" style="fill:none;stroke:#fff;stroke-miterlimit:10"/><path d="M279.94,190.1,267.18,187c.27-1.13.49-2.27.81-3.39l.95-3.35c.65-2.23,1.22-4.49,2-6.68l12.49,4.06" style="fill:none;stroke:#fff;stroke-miterlimit:10"/><path d="M275.75,160.55l12.13,5-2.37,6c-.72,2-1.38,4.07-2.08,6.11l-12.49-4.06" style="fill:none;stroke:#fff;stroke-miterlimit:10"/><path d="M287.88,165.58l-12.13-5c.41-1.09.89-2.15,1.37-3.2l1.44-3.18c.48-1.06.94-2.13,1.45-3.17l1.59-3.1,11.7,6" style="fill:none;stroke:#fff;stroke-miterlimit:10"/><path d="M288.35,135.74l11.2,6.84c-2.16,3.73-4.37,7.43-6.26,11.3l-11.7-5.95" style="fill:none;stroke:#fff;stroke-miterlimit:10"/><path d="M299.55,142.59l-11.21-6.84,3.77-5.87c1.25-2,2.66-3.81,4-5.71l10.63,7.69" style="fill:none;stroke:#fff;stroke-miterlimit:10"/><polyline points="305.39 112.39 315.35 120.95 313.23 123.39 311.23 125.93 309.24 128.47 308.24 129.74 307.3 131.06 296.71 123.3" style="fill:none;stroke:#fff;stroke-miterlimit:10"/><path d="M315.34,121l-10-8.56c3-3.57,6.23-6.89,9.45-10.24l9.27,9.3" style="fill:none;stroke:#fff;stroke-miterlimit:10"/><path d="M325.08,92.76l8.52,10-2.44,2.12c-.81.7-1.64,1.4-2.4,2.16l-4.68,4.46-9.27-9.3" style="fill:none;stroke:#fff;stroke-miterlimit:10"/><path d="M333.6,102.75l-8.53-10c.89-.75,1.74-1.53,2.65-2.26l2.74-2.15c1.83-1.43,3.63-2.91,5.55-4.22l7.72,10.62" style="fill:none;stroke:#fff;stroke-miterlimit:10"/><path d="M347.56,76.37l6.88,11.18L349,91c-1.79,1.2-3.52,2.48-5.28,3.72L336,84.15" style="fill:none;stroke:#fff;stroke-miterlimit:10"/><path d="M354.43,87.56l-6.88-11.18c2-1.24,4-2.34,6-3.52s4.07-2.23,6.14-3.29l6,11.68" style="fill:none;stroke:#fff;stroke-miterlimit:10"/><path d="M372.32,63.68l5.06,12.12c-2,.81-3.93,1.75-5.9,2.62s-3.89,1.86-5.8,2.84l-6-11.68" style="fill:none;stroke:#fff;stroke-miterlimit:10"/><path d="M377.37,75.8l-5.06-12.11,6.49-2.56c2.17-.83,4.39-1.52,6.59-2.28l4.09,12.47" style="fill:none;stroke:#fff;stroke-miterlimit:10"/><polyline points="399.83 54.79 402.85 67.56 399.71 68.29 396.6 69.17 393.49 70.05 391.94 70.49 390.41 71.01 386.39 58.51" style="fill:none;stroke:#fff;stroke-miterlimit:10"/><path d="M402.84,67.56l-3-12.77,3.39-.78c1.13-.27,2.27-.53,3.42-.71l6.86-1.23,2,13" style="fill:none;stroke:#fff;stroke-miterlimit:10"/><path d="M427.31,50.51l1,13.09c-4.3.24-8.57.9-12.84,1.45l-2-13" style="fill:none;stroke:#fff;stroke-miterlimit:10"/><path d="M428.31,63.6l-1-13.09c4.63-.45,9.28-.45,13.92-.58V63.05" style="fill:none;stroke:#fff;stroke-miterlimit:10"/><path d="M455.12,50.51l-1,13.09c-4.29-.42-8.6-.41-12.91-.55V49.93" style="fill:none;stroke:#fff;stroke-miterlimit:10"/><path d="M454.1,63.6l1-13.09c4.64.26,9.24,1,13.85,1.56l-2,13" style="fill:none;stroke:#fff;stroke-miterlimit:10"/><path d="M482.61,54.79l-3,12.77-3.15-.72c-1-.26-2.09-.49-3.16-.66L466.91,65l2-13" style="fill:none;stroke:#fff;stroke-miterlimit:10"/><polyline points="479.57 67.56 482.59 54.79 485.99 55.57 489.35 56.52 492.7 57.48 494.38 57.95 496.03 58.51 492.01 71.01" style="fill:none;stroke:#fff;stroke-miterlimit:10"/><path d="M510.11,63.69,505.05,75.8l-6-2.37c-2-.77-4.07-1.4-6.11-2.11L497,58.85" style="fill:none;stroke:#fff;stroke-miterlimit:10"/><path d="M505,75.8l5.06-12.12c2.15.88,4.25,1.89,6.37,2.84s4.19,2,6.26,3.06l-6,11.68" style="fill:none;stroke:#fff;stroke-miterlimit:10"/><path d="M534.87,76.38,528,87.56c-1.82-1.15-3.72-2.17-5.57-3.26s-3.78-2.07-5.7-3l6-11.68" style="fill:none;stroke:#fff;stroke-miterlimit:10"/><path d="M528,87.55l6.88-11.18,5.87,3.76c1.93,1.3,3.8,2.68,5.7,4l-7.72,10.61" style="fill:none;stroke:#fff;stroke-miterlimit:10"/><path d="M557.35,92.76l-8.52,10c-.82-.7-1.62-1.43-2.46-2.1l-2.54-2c-1.7-1.33-3.36-2.7-5.14-3.91l7.72-10.62" style="fill:none;stroke:#fff;stroke-miterlimit:10"/><path d="M548.82,102.74l8.52-10L560,95c.88.76,1.77,1.51,2.59,2.33l5.05,4.81-9.27,9.3" style="fill:none;stroke:#fff;stroke-miterlimit:10"/><path d="M577,112.4l-10,8.56c-2.76-3.32-5.77-6.39-8.76-9.5l9.27-9.3" style="fill:none;stroke:#fff;stroke-miterlimit:10"/><polyline points="567.08 120.95 577.03 112.39 579.32 115.03 581.47 117.77 583.62 120.51 584.7 121.88 585.71 123.3 575.12 131.06" style="fill:none;stroke:#fff;stroke-miterlimit:10"/><path d="M594.08,135.75l-11.21,6.84-3.48-5.44c-1.16-1.81-2.48-3.52-3.7-5.29l10.63-7.69" style="fill:none;stroke:#fff;stroke-miterlimit:10"/><path d="M582.87,142.58l11.2-6.84c2.34,4,4.72,8,6.76,12.19l-11.7,5.95" style="fill:none;stroke:#fff;stroke-miterlimit:10"/><path d="M606.67,160.56l-12.13,5c-.37-1-.82-2-1.27-3l-1.33-2.94c-.45-1-.87-2-1.34-2.94l-1.48-2.87,11.7-6" style="fill:none;stroke:#fff;stroke-miterlimit:10"/><path d="M594.54,165.57l12.13-5,2.55,6.49c.79,2.18,1.51,4.4,2.26,6.59L599,177.69" style="fill:none;stroke:#fff;stroke-miterlimit:10"/><path d="M615.25,187l-12.77,3.07c-.25-1-.45-2.11-.75-3.15l-.88-3.1c-.61-2.07-1.13-4.16-1.86-6.18l12.48-4.06" style="fill:none;stroke:#fff;stroke-miterlimit:10"/><path d="M602.48,190.08,615.24,187c.51,2.27,1.09,4.52,1.52,6.8l1.23,6.87-13,2.05" style="fill:none;stroke:#fff;stroke-miterlimit:10"/><path d="M619.6,214.51l-13.09,1-.24-3.22c-.1-1.07-.26-2.14-.39-3.21-.29-2.13-.49-4.28-.86-6.4l13-2.06" style="fill:none;stroke:#fff;stroke-miterlimit:10"/><polyline points="606.51 215.54 619.6 214.5 619.86 217.97 619.99 219.71 620.04 221.45 620.22 228.41 607.09 228.45" style="fill:none;stroke:#fff;stroke-miterlimit:10"/><circle cx="441.21" cy="228.94" r="188.64" style="fill:none;stroke:#fab317;stroke-miterlimit:10;stroke-width:2px"/><circle cx="441.21" cy="228.94" r="194.82" style="fill:none;stroke:#fff;stroke-miterlimit:10"/></svg>