<svg id="ba62c1c6-f178-4375-b273-54d644c4f205" data-name="Layer 1" xmlns="http://www.w3.org/2000/svg" viewBox="0 0 34.29 457.89"><rect x="9.68" y="278.66" width="14.94" height="14.94" transform="translate(-173.06 500.58) rotate(-135)" style="fill:#fab317"/><rect x="2.81" y="271.8" width="28.66" height="28.66" transform="translate(-173.06 500.58) rotate(-135)" style="fill:none;stroke:#fff;stroke-miterlimit:10"/><rect x="9.68" y="214.44" width="14.94" height="14.94" transform="translate(-204.77 239.05) rotate(-90)" style="fill:#fab317"/><rect x="2.81" y="207.58" width="28.66" height="28.66" transform="translate(-204.77 239.05) rotate(-90)" style="fill:none;stroke:#fff;stroke-miterlimit:10"/><rect x="9.68" y="150.22" width="14.94" height="14.94" transform="translate(-82.24 281.31) rotate(-135)" style="fill:#fab317"/><rect x="2.81" y="143.36" width="28.66" height="28.66" transform="translate(-82.24 281.31) rotate(-135)" style="fill:none;stroke:#fff;stroke-miterlimit:10"/><rect x="9.68" y="86" width="14.94" height="14.94" transform="translate(-76.32 110.61) rotate(-90)" style="fill:#fab317"/><rect x="2.81" y="79.14" width="28.66" height="28.66" transform="translate(-76.32 110.61) rotate(-90)" style="fill:none;stroke:#fff;stroke-miterlimit:10"/><rect x="9.68" y="21.78" width="14.94" height="14.94" transform="translate(-15.66 20.69) rotate(-45)" style="fill:#fab317"/><rect x="2.81" y="14.92" width="28.66" height="28.66" transform="translate(-15.66 20.69) rotate(-45)" style="fill:none;stroke:#fff;stroke-miterlimit:10"/><polygon points="3.99 371.99 17.14 448.91 30.3 371.99 3.99 371.99" style="fill:#fdb515"/></svg>