<svg id="aefb1159-5dc3-49e2-abdf-620f75edd076" data-name="Layer 1" xmlns="http://www.w3.org/2000/svg" viewBox="0 0 664.58 457.89"><circle cx="10.79" cy="231.83" r="10.79" style="fill:#fdb515"/><circle cx="10.79" cy="232.25" r="5.39" style="fill:#010101"/><circle cx="10.79" cy="398.1" r="5.08" style="fill:#fdb515"/><circle cx="57.11" cy="446.33" r="5.08" style="fill:#fdb515"/><circle cx="57.11" cy="14.79" r="5.08" style="fill:#fdb515"/><circle cx="10.79" cy="66.2" r="5.08" style="fill:#fdb515"/><circle cx="105.98" cy="398.1" r="5.08" style="fill:#fdb515"/><circle cx="105.98" cy="66.2" r="5.08" style="fill:#fdb515"/><polyline points="0 231.83 10.79 66.2 21.58 231.83" style="fill:none;stroke:#fdb515;stroke-miterlimit:10"/><polyline points="0 231.2 10.79 396.83 21.58 231.2" style="fill:none;stroke:#fdb515;stroke-miterlimit:10"/><circle cx="105.98" cy="231.83" r="10.79" style="fill:#fdb515"/><polyline points="95.19 231.83 105.98 66.2 116.77 231.83" style="fill:none;stroke:#fdb515;stroke-miterlimit:10"/><polyline points="95.19 231.2 105.98 396.83 116.77 231.2" style="fill:none;stroke:#fdb515;stroke-miterlimit:10"/><circle cx="57.75" cy="231.92" r="13.89" style="fill:#fdb515"/><polyline points="43.85 231.92 57.75 18.6 71.64 231.92" style="fill:none;stroke:#fdb515;stroke-miterlimit:10"/><polyline points="43.85 231.1 57.75 444.43 71.64 231.1" style="fill:none;stroke:#fdb515;stroke-miterlimit:10"/><polyline points="10.79 242.62 57.75 217.87 105.98 242.62 105.98 221.04 57.75 245.79 10.79 221.04" style="fill:none;stroke:#fdb515;stroke-miterlimit:10"/><circle cx="58.07" cy="232.25" r="5.39" style="fill:#010101"/><circle cx="106.93" cy="232.25" r="5.39" style="fill:#010101"/><path d="M534.87,322.43l0,47.31c-26.13,0-48-21.18-48-47.31" style="fill:#333;stroke:#fff;stroke-miterlimit:10"/><path d="M333.43,144.18a89,89,0,1,0,0,177.91" style="fill:#333;stroke:#fff;stroke-miterlimit:10"/><path d="M378.54,143a32.31,32.31,0,0,0,32.31-32.32H377.28Z" style="fill:#fdb515;stroke:#fff;stroke-miterlimit:10"/><path d="M538.2,198.88a32.32,32.32,0,0,1,32.31,32.31H536.94Z" style="fill:#fdb515;stroke:#fff;stroke-miterlimit:10"/><path d="M333.43,165.18a66.72,66.72,0,0,0,0,133.44" style="fill:#010101;stroke:#fff;stroke-miterlimit:10"/><path d="M333.43,206.2a28.17,28.17,0,0,0,0,56.34" style="fill:#925122;stroke:#fff;stroke-miterlimit:10"/><path d="M334.08,206.2a28.17,28.17,0,1,0,0,56.34" style="fill:#fdb515;stroke:#fff;stroke-miterlimit:10"/><path d="M308.82,110.65a27.66,27.66,0,1,1-55.32,0" style="fill:#fdb515;stroke:#fff;stroke-miterlimit:10"/><path d="M305.22,231.94c0,18.07,13.85,30.64,29.41,30.64V232.43" style="fill:#795221;stroke:#fff;stroke-miterlimit:10"/><path d="M534.17,357.91a35.49,35.49,0,0,1-35.48-35.48h36.18" style="fill:#010101;stroke:#fff;stroke-miterlimit:10"/><path d="M512.14,322.43a21.72,21.72,0,0,0,21.72,21.71" style="fill:#925122;stroke:#fff;stroke-miterlimit:10"/><path d="M512.64,322.43a21.71,21.71,0,0,0,21.72,21.71" style="fill:#fdb515;stroke:#fff;stroke-miterlimit:10"/><path d="M534.8,321.87v21.34a21.73,21.73,0,0,1-21.72-21.72" style="fill:#795221;stroke:#fff;stroke-miterlimit:10"/><rect x="333.76" y="232.6" width="202.08" height="89.6" transform="translate(869.6 554.8) rotate(-180)" style="fill:#795221;stroke:#fff;stroke-miterlimit:10"/><rect x="333.76" y="297.71" width="202.08" height="24.49" transform="translate(869.6 619.91) rotate(-180)" style="fill:#333;stroke:#fff;stroke-miterlimit:10"/><rect x="333.76" y="262.41" width="201.91" height="35.77" transform="translate(869.43 560.6) rotate(-180)" style="fill:#010101"/><rect x="308.26" y="110.35" width="74.88" height="32.87" style="fill:#010101;stroke:#fff;stroke-miterlimit:10"/><rect x="534.82" y="344.06" width="15.47" height="80.41" transform="translate(1085.1 768.53) rotate(-180)" style="fill:#010101;stroke:#fff;stroke-miterlimit:10"/><rect x="338.54" y="342.83" width="15.47" height="81.65" transform="translate(692.55 767.3) rotate(-180)" style="fill:#010101;stroke:#fff;stroke-miterlimit:10"/><polyline points="354.01 321.39 354.01 361.04 317.16 320.96" style="fill:#010101;stroke:#fff;stroke-miterlimit:10"/><line x1="308.26" y1="110.35" x2="308.26" y2="36.65" style="fill:#333;stroke:#fff;stroke-miterlimit:10"/><line x1="277.05" y1="71.3" x2="338.93" y2="71.3" style="fill:none;stroke:#fff;stroke-miterlimit:10"/><line x1="292.09" y1="84.4" x2="292.09" y2="59.59" style="fill:none;stroke:#fff;stroke-miterlimit:10"/><line x1="322.06" y1="84.4" x2="322.06" y2="59.59" style="fill:none;stroke:#fff;stroke-miterlimit:10"/><circle cx="534.39" cy="232.47" r="20.41" style="fill:#795221;stroke:#fff;stroke-miterlimit:10"/><path d="M554,232.23a19.64,19.64,0,0,0-39.27,0" style="fill:#fdb515;stroke:#fff;stroke-miterlimit:10"/><path d="M534.34,212.13a19.63,19.63,0,0,0-19.63,19.63H534" style="fill:#ae792b;stroke:#fff;stroke-miterlimit:10"/><circle cx="534.39" cy="231.85" r="11.29" style="fill:#010101;stroke:#fff;stroke-miterlimit:10"/><path d="M523.1,231.85a11.29,11.29,0,1,0,22.58,0" style="fill:#333;stroke:#fff;stroke-miterlimit:10"/><circle cx="533.42" cy="325.07" r="20.41" style="fill:#795221;stroke:#fff;stroke-miterlimit:10"/><path d="M553,324.84a19.63,19.63,0,1,0-39.26,0" style="fill:#fdb515;stroke:#fff;stroke-miterlimit:10"/><path d="M533.38,304.73a19.63,19.63,0,0,0-19.63,19.63H533" style="fill:#ae792b;stroke:#fff;stroke-miterlimit:10"/><circle cx="533.42" cy="324.45" r="11.29" style="fill:#010101;stroke:#fff;stroke-miterlimit:10"/><path d="M522.13,324.45a11.29,11.29,0,0,0,22.58,0" style="fill:#333;stroke:#fff;stroke-miterlimit:10"/><circle cx="338.11" cy="325.07" r="20.41" style="fill:#795221;stroke:#fff;stroke-miterlimit:10"/><path d="M357.73,324.84a19.63,19.63,0,0,0-39.26,0" style="fill:#fdb515;stroke:#fff;stroke-miterlimit:10"/><path d="M338.07,304.73a19.63,19.63,0,0,0-19.63,19.63h19.29" style="fill:#ae792b;stroke:#fff;stroke-miterlimit:10"/><circle cx="338.11" cy="324.45" r="11.29" style="fill:#010101;stroke:#fff;stroke-miterlimit:10"/><path d="M326.82,324.45a11.29,11.29,0,0,0,22.58,0" style="fill:#333;stroke:#fff;stroke-miterlimit:10"/><circle cx="334.35" cy="232.47" r="20.41" style="fill:#795221;stroke:#fff;stroke-miterlimit:10"/><path d="M354,232.23a19.63,19.63,0,0,0-39.26,0" style="fill:#fdb515;stroke:#fff;stroke-miterlimit:10"/><path d="M334.31,212.13a19.63,19.63,0,0,0-19.63,19.63H334" style="fill:#ae792b;stroke:#fff;stroke-miterlimit:10"/><circle cx="334.35" cy="231.85" r="11.29" style="fill:#010101;stroke:#fff;stroke-miterlimit:10"/><path d="M323.06,231.85a11.29,11.29,0,1,0,22.58,0" style="fill:#333;stroke:#fff;stroke-miterlimit:10"/></svg>