<svg id="f723c6e0-62cb-438a-a173-6f9514104515" data-name="Layer 1" xmlns="http://www.w3.org/2000/svg" viewBox="0 0 661.26 457.89"><circle cx="558.6" cy="230.21" r="10.79" style="fill:#fdb515"/><circle cx="558.6" cy="230.64" r="5.39" style="fill:#010101"/><circle cx="558.6" cy="396.48" r="5.08" style="fill:#fdb515"/><circle cx="604.92" cy="444.71" r="5.08" style="fill:#fdb515"/><circle cx="604.92" cy="13.18" r="5.08" style="fill:#fdb515"/><circle cx="558.6" cy="64.58" r="5.08" style="fill:#fdb515"/><circle cx="653.79" cy="396.48" r="5.08" style="fill:#fdb515"/><circle cx="653.79" cy="64.58" r="5.08" style="fill:#fdb515"/><polyline points="547.81 230.21 558.6 64.58 569.38 230.21" style="fill:none;stroke:#fdb515;stroke-miterlimit:10"/><polyline points="547.81 229.58 558.6 395.21 569.38 229.58" style="fill:none;stroke:#fdb515;stroke-miterlimit:10"/><circle cx="653.79" cy="230.21" r="10.79" style="fill:#fdb515"/><polyline points="643 230.21 653.79 64.58 664.58 230.21" style="fill:none;stroke:#fdb515;stroke-miterlimit:10"/><polyline points="643 229.58 653.79 395.21 664.58 229.58" style="fill:none;stroke:#fdb515;stroke-miterlimit:10"/><circle cx="605.56" cy="230.3" r="13.89" style="fill:#fdb515"/><polyline points="591.66 230.3 605.56 16.98 619.45 230.3" style="fill:none;stroke:#fdb515;stroke-miterlimit:10"/><polyline points="591.66 229.49 605.56 442.81 619.45 229.49" style="fill:none;stroke:#fdb515;stroke-miterlimit:10"/><polyline points="558.6 241 605.56 216.25 653.79 241 653.79 219.43 605.56 244.17 558.6 219.43" style="fill:none;stroke:#fdb515;stroke-miterlimit:10"/><circle cx="605.88" cy="230.64" r="5.39" style="fill:#010101"/><circle cx="654.74" cy="230.64" r="5.39" style="fill:#010101"/><path d="M458.89,228.94c0,116.36-102.21,210.69-228.3,210.69S2.28,345.3,2.28,228.94" style="fill:#010101;stroke:#fff;stroke-miterlimit:10"/><path d="M428.53,228.53c0,101.46-89.12,183.71-199.06,183.71S30.41,330,30.41,228.53" style="fill:#333;stroke:#fff;stroke-miterlimit:10"/><polygon points="233.62 341.63 116.21 233.28 233.62 124.92 351.04 233.28 233.62 341.63" style="fill:#010101"/><polyline points="174.12 286.72 116.21 233.28 233.62 124.92 292.39 179.16" style="fill:#fdb515"/><polyline points="292.33 287.45 233.62 341.63 116.21 233.28 173.37 180.52" style="fill:#795221"/><path d="M2.28,228.94C2.28,112.58,104.5,18.25,230.59,18.25s228.3,94.33,228.3,210.69" style="fill:none;stroke:#fff;stroke-miterlimit:10"/><path d="M2.28,228.94C2.28,112.58,104.5,18.25,230.59,18.25s228.3,94.33,228.3,210.69" style="fill:#010101;stroke:#fff;stroke-miterlimit:10"/><path d="M30.15,228.11c0-101.46,89.13-183.7,199.07-183.7s199.06,82.24,199.06,183.7" style="fill:#333;stroke:#fff;stroke-miterlimit:10"/><ellipse cx="230.59" cy="228.94" rx="171.23" ry="158.02" style="fill:#010101"/><path d="M145.64,227.5c0-43.64,38.34-79,85.63-79s85.64,35.38,85.64,79" style="fill:none;stroke:#795221;stroke-miterlimit:10;stroke-width:15px"/><path d="M231.27,148.48c47.3,0,85.64,35.38,85.64,79" style="fill:none;stroke:#fbb03c;stroke-miterlimit:10;stroke-width:15px"/><path d="M171.76,230.18c0-30,26.34-54.3,58.84-54.3s58.84,24.31,58.84,54.3" style="fill:#fdb515"/><path d="M289.44,228.94c0,30-26.35,54.3-58.84,54.3s-58.84-24.31-58.84-54.3" style="fill:#ae792b"/><ellipse cx="231.48" cy="228.75" rx="31.49" ry="29.06" style="fill:#010101;stroke:#fff;stroke-miterlimit:10"/><path d="M231.48,257.81c-17.39,0-31.49-13-31.49-29.06s14.1-29.06,31.49-29.06" style="fill:#333;stroke:#fff;stroke-miterlimit:10"/><ellipse cx="230.72" cy="228.62" rx="18.86" ry="17.41" style="fill:#795221;stroke:#fff;stroke-miterlimit:10"/><path d="M212.59,228.42c0-9.24,8.12-16.74,18.14-16.74s18.14,7.5,18.14,16.74" style="fill:#fdb515"/><ellipse cx="230.72" cy="228.09" rx="10.43" ry="9.63" style="fill:#010101;stroke:#fff;stroke-miterlimit:10"/><path d="M241.15,228.09c0,5.32-4.67,9.63-10.43,9.63s-10.43-4.31-10.43-9.63" style="fill:#333;stroke:#fff;stroke-miterlimit:10"/><ellipse cx="230.72" cy="111.58" rx="18.86" ry="17.41" style="fill:#795221;stroke:#fff;stroke-miterlimit:10"/><path d="M212.59,111.38c0-9.24,8.12-16.74,18.14-16.74s18.14,7.5,18.14,16.74" style="fill:#fdb515"/><path d="M230.76,94.23c10,0,18.14,7.5,18.14,16.74H231.07" style="fill:#ae792b"/><ellipse cx="230.72" cy="111.05" rx="10.43" ry="9.63" style="fill:#010101;stroke:#fff;stroke-miterlimit:10"/><path d="M241.15,111.05c0,5.32-4.67,9.63-10.43,9.63s-10.43-4.31-10.43-9.63" style="fill:#333;stroke:#fff;stroke-miterlimit:10"/><ellipse cx="122.74" cy="170.61" rx="18.86" ry="17.41" style="fill:#795221;stroke:#fff;stroke-miterlimit:10"/><path d="M104.61,170.41c0-9.25,8.12-16.74,18.14-16.74s18.14,7.49,18.14,16.74" style="fill:#fdb515"/><path d="M122.78,153.26c10,0,18.14,7.5,18.14,16.74H123.1" style="fill:#ae792b"/><ellipse cx="122.74" cy="170.08" rx="10.43" ry="9.63" style="fill:#010101;stroke:#fff;stroke-miterlimit:10"/><path d="M133.17,170.08c0,5.32-4.67,9.63-10.43,9.63s-10.43-4.31-10.43-9.63" style="fill:#333;stroke:#fff;stroke-miterlimit:10"/><ellipse cx="346.78" cy="170.61" rx="18.86" ry="17.41" style="fill:#795221;stroke:#fff;stroke-miterlimit:10"/><path d="M328.65,170.41c0-9.25,8.12-16.74,18.14-16.74s18.14,7.49,18.14,16.74" style="fill:#fdb515"/><path d="M346.82,153.26c10,0,18.14,7.5,18.14,16.74H347.13" style="fill:#ae792b"/><ellipse cx="346.78" cy="170.08" rx="10.43" ry="9.63" style="fill:#010101;stroke:#fff;stroke-miterlimit:10"/><path d="M357.21,170.08c0,5.32-4.67,9.63-10.43,9.63s-10.43-4.31-10.43-9.63" style="fill:#333;stroke:#fff;stroke-miterlimit:10"/><path d="M458.89,226c0,116.37-102.21,210.69-228.3,210.69S2.28,342.41,2.28,226" style="fill:none;stroke:#fff;stroke-miterlimit:10"/><path d="M316.78,227.49c0,43.64-39.58,79-86.88,79s-84.39-35.38-84.39-79" style="fill:none;stroke:#795221;stroke-miterlimit:10;stroke-width:15px"/><path d="M229.9,306.51c-47.29,0-84.39-35.38-84.39-79" style="fill:none;stroke:#fbb03c;stroke-miterlimit:10;stroke-width:15px"/><ellipse cx="230.45" cy="343.41" rx="18.86" ry="17.41" style="fill:#795221;stroke:#fff;stroke-miterlimit:10"/><path d="M248.58,343.61c0,9.24-8.12,16.74-18.14,16.74s-18.14-7.5-18.14-16.74" style="fill:#fdb515"/><path d="M230.42,360.75c-10,0-18.14-7.49-18.14-16.74H230.1" style="fill:#ae792b"/><ellipse cx="230.45" cy="343.94" rx="10.43" ry="9.63" style="fill:#010101;stroke:#fff;stroke-miterlimit:10"/><path d="M220,343.94c0-5.32,4.67-9.63,10.43-9.63s10.44,4.31,10.44,9.63" style="fill:#333;stroke:#fff;stroke-miterlimit:10"/><ellipse cx="338.43" cy="284.38" rx="18.86" ry="17.41" style="fill:#795221;stroke:#fff;stroke-miterlimit:10"/><path d="M356.56,284.58c0,9.24-8.12,16.74-18.14,16.74s-18.14-7.5-18.14-16.74" style="fill:#fdb515"/><path d="M338.39,301.73c-10,0-18.14-7.5-18.14-16.75h17.83" style="fill:#ae792b"/><ellipse cx="338.43" cy="284.91" rx="10.43" ry="9.63" style="fill:#010101;stroke:#fff;stroke-miterlimit:10"/><path d="M328,284.91c0-5.32,4.67-9.63,10.43-9.63s10.43,4.31,10.43,9.63" style="fill:#333;stroke:#fff;stroke-miterlimit:10"/><ellipse cx="114.39" cy="284.38" rx="18.86" ry="17.41" style="fill:#795221;stroke:#fff;stroke-miterlimit:10"/><path d="M132.52,284.58c0,9.24-8.12,16.74-18.14,16.74s-18.14-7.5-18.14-16.74" style="fill:#fdb515"/><path d="M114.36,301.73c-10,0-18.14-7.5-18.14-16.75H114" style="fill:#ae792b"/><ellipse cx="114.39" cy="284.91" rx="10.43" ry="9.63" style="fill:#010101;stroke:#fff;stroke-miterlimit:10"/><path d="M104,284.91c0-5.32,4.67-9.63,10.43-9.63s10.44,4.31,10.44,9.63" style="fill:#333;stroke:#fff;stroke-miterlimit:10"/></svg>