<?xml version="1.0" encoding="utf-8"?>
<!-- Generator: Adobe Illustrator 24.1.3, SVG Export Plug-In . SVG Version: 6.00 Build 0)  -->
<svg version="1.1" id="Layer_1" xmlns="http://www.w3.org/2000/svg" xmlns:xlink="http://www.w3.org/1999/xlink" x="0px" y="0px"
	 viewBox="0 0 1920 300" style="enable-background:new 0 0 1920 300;" xml:space="preserve">
<style type="text/css">
	.st0{fill:none;stroke:#FFFFFF;stroke-miterlimit:10;}
	.st1{fill:#FDB515;}
	.st2{fill:none;stroke:#FDB515;stroke-miterlimit:10;}
</style>
<g>
	<g>
		<g>
			<polyline class="st0" points="98.76,295.24 288.18,105.82 477.59,295.24 			"/>
			<polyline class="st0" points="190.49,295.24 288.18,197.55 385.86,295.24 			"/>
			<polyline class="st0" points="-3.87,295.24 93.81,197.55 191.5,295.24 			"/>
			<polyline class="st0" points="580.22,295.24 677.91,197.55 775.59,295.24 			"/>
			<polyline class="st0" points="384.85,295.24 482.54,197.55 580.22,295.24 			"/>
			<polyline class="st0" points="294.13,295.24 483.55,105.82 672.96,295.24 			"/>
			
				<rect x="256.13" y="121.2" transform="matrix(0.7071 -0.7071 0.7071 0.7071 -23.9534 248.6547)" class="st0" width="64.09" height="64.09"/>
			<g>
				
					<rect x="256.13" y="121.2" transform="matrix(6.123234e-17 -1 1 6.123234e-17 134.9344 441.4178)" class="st0" width="64.09" height="64.09"/>
				
					<rect x="280.62" y="145.69" transform="matrix(6.123234e-17 -1 1 6.123234e-17 134.9344 441.4178)" class="st1" width="15.11" height="15.11"/>
			</g>
			<g>
				
					<rect x="450.49" y="121.2" transform="matrix(6.123234e-17 -1 1 6.123234e-17 329.297 635.7804)" class="st0" width="64.09" height="64.09"/>
				
					<rect x="474.99" y="145.69" transform="matrix(6.123234e-17 -1 1 6.123234e-17 329.297 635.7804)" class="st1" width="15.11" height="15.11"/>
				
					<rect x="379.82" y="239.85" transform="matrix(0.7071 -0.7071 0.7071 0.7071 -61.481 346.3755)" class="st1" width="15.11" height="15.11"/>
			</g>
			
				<rect x="451.5" y="121.2" transform="matrix(0.7071 -0.7071 0.7071 0.7071 33.269 386.8019)" class="st0" width="64.09" height="64.09"/>
		</g>
		<g>
			<polyline class="st0" points="672.69,295.24 862.11,105.82 1051.53,295.24 			"/>
			<polyline class="st0" points="764.43,295.24 862.11,197.55 959.8,295.24 			"/>
			<polyline class="st0" points="570.06,295.24 667.75,197.55 765.43,295.24 			"/>
			<polyline class="st0" points="1154.16,295.24 1251.84,197.55 1349.53,295.24 			"/>
			<polyline class="st0" points="958.79,295.24 1056.47,197.55 1154.16,295.24 			"/>
			<polyline class="st0" points="868.06,295.24 1057.48,105.82 1246.9,295.24 			"/>
			
				<rect x="830.07" y="121.2" transform="matrix(0.7071 -0.7071 0.7071 0.7071 144.1483 654.4882)" class="st0" width="64.09" height="64.09"/>
			<g>
				
					<rect x="830.07" y="121.2" transform="matrix(6.123234e-17 -1 1 6.123234e-17 708.8695 1015.3529)" class="st0" width="64.09" height="64.09"/>
				
					<rect x="854.56" y="145.69" transform="matrix(6.123234e-17 -1 1 6.123234e-17 708.8695 1015.3529)" class="st1" width="15.11" height="15.11"/>
			</g>
			<g>
				
					<rect x="1024.43" y="121.2" transform="matrix(6.123234e-17 -1 1 6.123234e-17 903.2321 1209.7155)" class="st0" width="64.09" height="64.09"/>
				
					<rect x="1048.92" y="145.69" transform="matrix(6.123234e-17 -1 1 6.123234e-17 903.2321 1209.7155)" class="st1" width="15.11" height="15.11"/>
				
					<rect x="953.75" y="239.85" transform="matrix(0.7071 -0.7071 0.7071 0.7071 106.6209 752.209)" class="st1" width="15.11" height="15.11"/>
			</g>
			
				<rect x="1025.44" y="121.2" transform="matrix(0.7071 -0.7071 0.7071 0.7071 201.3707 792.6353)" class="st0" width="64.09" height="64.09"/>
		</g>
		<g>
			<polyline class="st0" points="1246.72,295.24 1436.14,105.82 1625.55,295.24 			"/>
			<polyline class="st0" points="1338.45,295.24 1436.14,197.55 1533.82,295.24 			"/>
			<polyline class="st0" points="1144.09,295.24 1241.77,197.55 1339.46,295.24 			"/>
			<polyline class="st0" points="1728.18,295.24 1825.87,197.55 1923.55,295.24 			"/>
			<polyline class="st0" points="1532.81,295.24 1630.5,197.55 1728.18,295.24 			"/>
			<polyline class="st0" points="1442.09,295.24 1631.51,105.82 1820.92,295.24 			"/>
			
				<rect x="1404.09" y="121.2" transform="matrix(0.7071 -0.7071 0.7071 0.7071 312.2761 1060.3845)" class="st0" width="64.09" height="64.09"/>
			<g>
				
					<rect x="1404.09" y="121.2" transform="matrix(6.123234e-17 -1 1 6.123234e-17 1282.8937 1589.3771)" class="st0" width="64.09" height="64.09"/>
				
					<rect x="1428.58" y="145.69" transform="matrix(6.123234e-17 -1 1 6.123234e-17 1282.8937 1589.3771)" class="st1" width="15.11" height="15.11"/>
			</g>
			<g>
				
					<rect x="1598.45" y="121.2" transform="matrix(6.123234e-17 -1 1 6.123234e-17 1477.2563 1783.7396)" class="st0" width="64.09" height="64.09"/>
				
					<rect x="1622.95" y="145.69" transform="matrix(6.123234e-17 -1 1 6.123234e-17 1477.2563 1783.7396)" class="st1" width="15.11" height="15.11"/>
				
					<rect x="1527.78" y="239.85" transform="matrix(0.7071 -0.7071 0.7071 0.7071 274.7488 1158.1056)" class="st1" width="15.11" height="15.11"/>
			</g>
			
				<rect x="1599.46" y="121.2" transform="matrix(0.7071 -0.7071 0.7071 0.7071 369.4985 1198.5317)" class="st0" width="64.09" height="64.09"/>
		</g>
	</g>
	<g>
		<circle class="st2" cx="388.21" cy="104.86" r="12"/>
		<g>
			<path class="st2" d="M394.21,68.36c-6.63,0-12-5.37-12-12s5.37-12,12-12"/>
		</g>
		<g>
			<path class="st2" d="M400.21,3.86c0,6.63-5.37,12-12,12s-12-5.37-12-12"/>
		</g>
		<g>
			<line class="st2" x1="337.71" y1="43.86" x2="337.71" y2="68.86"/>
			<line class="st2" x1="325.21" y1="56.36" x2="350.21" y2="56.36"/>
		</g>
		<g>
			<line class="st2" x1="425.87" y1="47.52" x2="443.55" y2="65.2"/>
			<line class="st2" x1="425.87" y1="65.2" x2="443.55" y2="47.52"/>
		</g>
	</g>
	<g>
		<circle class="st2" cx="960.86" cy="104.86" r="12"/>
		<g>
			<path class="st2" d="M966.86,68.36c-6.63,0-12-5.37-12-12s5.37-12,12-12"/>
		</g>
		<g>
			<path class="st2" d="M972.86,3.86c0,6.63-5.37,12-12,12s-12-5.37-12-12"/>
		</g>
		<g>
			<line class="st2" x1="910.36" y1="43.86" x2="910.36" y2="68.86"/>
			<line class="st2" x1="897.86" y1="56.36" x2="922.86" y2="56.36"/>
		</g>
		<g>
			<line class="st2" x1="998.52" y1="47.52" x2="1016.2" y2="65.2"/>
			<line class="st2" x1="998.52" y1="65.2" x2="1016.2" y2="47.52"/>
		</g>
	</g>
</g>
</svg>
