<?xml version="1.0" encoding="utf-8"?>
<!-- Generator: Adobe Illustrator 25.2.3, SVG Export Plug-In . SVG Version: 6.00 Build 0)  -->
<svg version="1.1" id="Layer_1" xmlns="http://www.w3.org/2000/svg" xmlns:xlink="http://www.w3.org/1999/xlink" x="0px" y="0px"
	 viewBox="0 0 694.1 768" style="enable-background:new 0 0 694.1 768;" xml:space="preserve">
<style type="text/css">
	.st0{fill:none;stroke:#FDB515;stroke-miterlimit:10;}
	.st1{fill:#1A1A1A;}
	.st2{fill:none;stroke:#FFFFFF;stroke-miterlimit:10;}
	.st3{fill:#FDB515;}
	.st4{fill:#010101;}
	.st5{fill:#FFFFFF;stroke:#FFFFFF;stroke-miterlimit:10;}
	.st6{fill:none;stroke:#925122;stroke-width:2;stroke-miterlimit:10;}
	.st7{fill:#925122;}
	.st8{fill:#231F20;}
	.st9{fill:none;stroke:#FFFFFF;stroke-width:8;stroke-miterlimit:10;}
	.st10{fill:none;stroke:#333333;stroke-width:8;stroke-miterlimit:10;}
	.st11{fill:#FFFFFF;}
	.st12{fill:#010101;stroke:#FFFFFF;stroke-miterlimit:10;}
	.st13{fill:#FDB515;stroke:#FFFFFF;stroke-miterlimit:10;}
	.st14{fill:#1A1A1A;stroke:#FFFFFF;stroke-miterlimit:10;}
	.st15{fill:#010101;stroke:#FDB515;stroke-miterlimit:10;}
	.st16{fill:#FFFFFF;stroke:#FDB515;stroke-miterlimit:10;}
</style>
<g>
	<g>
		<circle class="st5" cx="358.6" cy="262.1" r="44.7"/>
		<path class="st1" d="M358.6,217.4c24.7,0,44.7,20,44.7,44.7c0,24.7-20,44.7-44.7,44.7"/>
	</g>
	<g>
		<polygon class="st12" points="351.7,582 207.6,581.5 207.8,541.3 		"/>
		<g>
			<circle class="st13" cx="320.7" cy="576.8" r="11.6"/>
			<circle class="st12" cx="320.7" cy="576.8" r="3.6"/>
		</g>
	</g>
	<path class="st12" d="M352.6,545.3c-20.3,0-36.7,16.4-36.7,36.7c0,20.3,16.4,36.7,36.7,36.7V545.3z"/>
	<path class="st12" d="M489.4,770.8c0-20.3-16.4-36.7-36.7-36.7S416,750.5,416,770.8H489.4z"/>
	<g>
		<polygon class="st12" points="453.6,739.1 454.1,541.3 494.3,541.5 		"/>
		<g>
			<circle class="st13" cx="452.6" cy="737.6" r="11.6"/>
			<circle class="st12" cx="452.6" cy="737.6" r="3.6"/>
		</g>
	</g>
	<polygon class="st13" points="410.3,491.6 359.7,542.2 309.1,491.6 	"/>
	<path class="st2" d="M358.6,204c-29.6,0-53.7,24-53.7,53.7v62.6h107.4v-62.6C412.3,228,388.3,204,358.6,204z"/>
	<path class="st2" d="M420.1,327.8v-71.7c0-34-27.5-61.5-61.5-61.5s-61.5,27.5-61.5,61.5v71.7"/>
	<g>
		<circle class="st3" cx="12.8" cy="221.7" r="8.1"/>
		<circle class="st4" cx="12.8" cy="222" r="4.1"/>
		<circle class="st3" cx="12.8" cy="346.5" r="3.8"/>
		<circle class="st3" cx="47.6" cy="382.7" r="3.8"/>
		<circle class="st3" cx="47.6" cy="58.7" r="3.8"/>
		<circle class="st3" cx="12.8" cy="97.3" r="3.8"/>
		<circle class="st3" cx="84.3" cy="346.5" r="3.8"/>
		<circle class="st3" cx="84.3" cy="97.3" r="3.8"/>
		<polyline class="st0" points="4.7,221.7 12.8,97.3 20.9,221.7 		"/>
		<polyline class="st0" points="4.7,221.2 12.8,345.6 20.9,221.2 		"/>
		<circle class="st3" cx="84.3" cy="221.7" r="8.1"/>
		<polyline class="st0" points="76.2,221.7 84.3,97.3 92.4,221.7 		"/>
		<polyline class="st0" points="76.2,221.2 84.3,345.6 92.4,221.2 		"/>
		<circle class="st3" cx="48.1" cy="221.7" r="10.4"/>
		<polyline class="st0" points="37.7,221.7 48.1,61.6 58.5,221.7 		"/>
		<polyline class="st0" points="37.7,221.1 48.1,381.3 58.5,221.1 		"/>
		<polyline class="st0" points="12.8,229.8 48.1,211.2 84.3,229.8 84.3,213.6 48.1,232.2 12.8,213.6 		"/>
		<circle class="st4" cx="48.3" cy="222" r="4.1"/>
		<circle class="st4" cx="85" cy="222" r="4.1"/>
	</g>
	<g>
		<circle class="st3" cx="612.9" cy="221.7" r="8.1"/>
		<circle class="st4" cx="612.9" cy="222" r="4.1"/>
		<circle class="st3" cx="612.9" cy="346.5" r="3.8"/>
		<circle class="st3" cx="647.7" cy="382.7" r="3.8"/>
		<circle class="st3" cx="647.7" cy="58.7" r="3.8"/>
		<circle class="st3" cx="612.9" cy="97.3" r="3.8"/>
		<circle class="st3" cx="684.4" cy="346.5" r="3.8"/>
		<circle class="st3" cx="684.4" cy="97.3" r="3.8"/>
		<polyline class="st0" points="604.8,221.7 612.9,97.3 621,221.7 		"/>
		<polyline class="st0" points="604.8,221.2 612.9,345.6 621,221.2 		"/>
		<circle class="st3" cx="684.4" cy="221.7" r="8.1"/>
		<polyline class="st0" points="676.3,221.7 684.4,97.3 692.5,221.7 		"/>
		<polyline class="st0" points="676.3,221.2 684.4,345.6 692.5,221.2 		"/>
		<circle class="st3" cx="648.2" cy="221.7" r="10.4"/>
		<polyline class="st0" points="637.8,221.7 648.2,61.6 658.6,221.7 		"/>
		<polyline class="st0" points="637.8,221.1 648.2,381.3 658.6,221.1 		"/>
		<polyline class="st0" points="612.9,229.8 648.2,211.2 684.4,229.8 684.4,213.6 648.2,232.2 612.9,213.6 		"/>
		<circle class="st4" cx="648.4" cy="222" r="4.1"/>
		<circle class="st4" cx="685.1" cy="222" r="4.1"/>
	</g>
	<g>
		<path class="st14" d="M350.3,256.8c0,5.9-4.8,10.7-10.7,10.7s-10.7-4.8-10.7-10.7"/>
	</g>
	<g>
		<circle class="st15" cx="358.8" cy="237.5" r="7.2"/>
		<g>
			<line class="st16" x1="373.3" y1="254.4" x2="384.3" y2="265.4"/>
			<line class="st16" x1="373.3" y1="265.4" x2="384.3" y2="254.4"/>
		</g>
	</g>
	<rect x="304.9" y="320.7" class="st2" width="107.4" height="107.4"/>
	<path class="st14" d="M412.5,448.1c0-9.3-7.1-16.9-16.1-17.8v-0.1h-71.6v0c-9.5,0.5-17,8.3-17,17.8s7.5,17.4,17,17.8v0h71.6v-0.1
		C405.4,465,412.5,457.4,412.5,448.1z"/>
	<circle class="st13" cx="394.6" cy="448.1" r="17.9"/>
	<circle class="st13" cx="325.7" cy="448.1" r="17.9"/>
	<circle class="st1" cx="325.7" cy="448.1" r="11.2"/>
	<path class="st5" d="M326.4,436.9c6.2,0.4,10.8,5.7,10.5,11.9c-0.4,6.2-5.7,10.8-11.9,10.5"/>
	<circle class="st1" cx="394.2" cy="448.2" r="11.2"/>
	<path class="st5" d="M393.5,459.4c-6.2-0.4-10.8-5.7-10.5-11.9c0.4-6.2,5.7-10.8,11.9-10.5"/>
	<circle class="st14" cx="359.7" cy="480.3" r="17.9"/>
	<circle class="st13" cx="359.3" cy="480.5" r="11.2"/>
	<path class="st5" d="M358.6,491.6c-6.2-0.4-10.8-5.7-10.5-11.9c0.4-6.2,5.7-10.8,11.9-10.5"/>
	<g>
		<g>
			<polygon class="st12" points="127.9,286.5 179.1,380.9 210.5,363.8 			"/>
			<g>
				<circle class="st14" cx="130.1" cy="292.4" r="11.6"/>
				<circle class="st13" cx="130.1" cy="292.4" r="3.6"/>
			</g>
		</g>
		<polygon class="st12" points="335.3,166 354.3,166 354.3,108.7 		"/>
		<polygon class="st12" points="297,429 297,321.6 243.4,321.6 		"/>
		<polygon class="st12" points="188.4,375.8 295.7,375.8 295.7,322.1 		"/>
		<polygon class="st12" points="190.6,468.4 298,468.4 298,432.6 		"/>
		<g>
			<circle class="st14" cx="297.1" cy="432.6" r="11.6"/>
			<circle class="st13" cx="297.1" cy="432.6" r="3.6"/>
		</g>
		<g>
			<circle class="st13" cx="184.8" cy="374.9" r="11.6"/>
			<circle class="st12" cx="184.8" cy="374.9" r="3.6"/>
		</g>
		<polygon class="st12" points="243.4,213.4 243.4,320.7 297.1,320.7 		"/>
		<polygon class="st12" points="351.7,166.9 244.3,166.9 244.3,202.6 		"/>
		<g>
			<circle class="st13" cx="245.2" cy="215.2" r="11.6"/>
			<circle class="st12" cx="245.2" cy="215.2" r="3.6"/>
		</g>
		<g>
			<circle class="st14" cx="345.4" cy="166" r="11.6"/>
			<circle class="st13" cx="345.4" cy="166" r="3.6"/>
		</g>
		<polygon class="st12" points="196.8,475 183.4,461.6 142.9,502.1 		"/>
		<g>
			<circle class="st14" cx="189.7" cy="467.9" r="11.6"/>
			<circle class="st13" cx="189.7" cy="467.9" r="3.6"/>
		</g>
	</g>
	<g>
		<g>
			<polygon class="st12" points="589.2,286.5 538,380.9 506.5,363.8 			"/>
			<g>
				<circle class="st14" cx="587" cy="292.4" r="11.6"/>
				<circle class="st13" cx="587" cy="292.4" r="3.6"/>
			</g>
		</g>
		<polygon class="st12" points="381.7,166 362.7,166 362.7,108.7 		"/>
		<polygon class="st12" points="420,429 420,321.6 473.7,321.6 		"/>
		<polygon class="st12" points="528.7,375.8 421.3,375.8 421.3,322.1 		"/>
		<polygon class="st12" points="526.4,468.4 419.1,468.4 419.1,432.6 		"/>
		<g>
			<circle class="st14" cx="420" cy="432.6" r="11.6"/>
			<circle class="st13" cx="420" cy="432.6" r="3.6"/>
		</g>
		<g>
			<circle class="st13" cx="532.2" cy="374.9" r="11.6"/>
			<circle class="st12" cx="532.2" cy="374.9" r="3.6"/>
		</g>
		<polygon class="st12" points="473.6,213.4 473.6,320.7 420,320.7 		"/>
		<polygon class="st12" points="365.4,166.9 472.7,166.9 472.7,202.6 		"/>
		<g>
			<circle class="st13" cx="471.9" cy="215.2" r="11.6"/>
			<circle class="st12" cx="471.9" cy="215.2" r="3.6"/>
		</g>
		<g>
			<circle class="st14" cx="371.6" cy="166" r="11.6"/>
			<circle class="st13" cx="371.6" cy="166" r="3.6"/>
		</g>
		<polygon class="st12" points="520.2,475 533.6,461.6 574.1,502.1 		"/>
		<g>
			<circle class="st14" cx="527.3" cy="467.9" r="11.6"/>
			<circle class="st13" cx="527.3" cy="467.9" r="3.6"/>
		</g>
	</g>
	<path class="st12" d="M308.7,491.6l-106.5,51h157.5C359.7,542.6,308.7,488.7,308.7,491.6z"/>
	<path class="st12" d="M412.5,491.6l63.5,51H360.6C360.6,542.6,412.5,488.7,412.5,491.6z"/>
	<g>
		<circle class="st14" cx="206.4" cy="561.5" r="21.4"/>
		<circle class="st13" cx="206.4" cy="561.5" r="6.6"/>
	</g>
	<g>
		<circle class="st14" cx="473.9" cy="542.7" r="21.4"/>
		<circle class="st13" cx="473.9" cy="542.7" r="6.6"/>
	</g>
	<g>
		<polygon class="st2" points="400,350.9 359,374 318,350.9 359,325.7 		"/>
		<polygon class="st2" points="396.3,350.9 359,371.9 321.7,350.9 359,327.9 		"/>
		<polyline class="st2" points="396.3,399.3 359,420.2 321.7,399.3 		"/>
		<polyline class="st2" points="400,399.3 359,422.3 318,399.3 		"/>
		<line class="st2" x1="318.1" y1="350.9" x2="318.1" y2="399.7"/>
		<line class="st2" x1="321.5" y1="351.1" x2="321.5" y2="399.8"/>
		<line class="st2" x1="396.5" y1="350.9" x2="396.5" y2="399.7"/>
		<line class="st2" x1="399.9" y1="351.1" x2="399.9" y2="399.8"/>
		<line class="st2" x1="359" y1="371.8" x2="359" y2="422.2"/>
		<line class="st2" x1="359" y1="372.7" x2="359" y2="376"/>
	</g>
	<g>
		<polygon class="st2" points="400,25.3 359,48.3 318,25.3 359,0 		"/>
		<polygon class="st2" points="396.3,25.3 359,46.2 321.7,25.3 359,2.3 		"/>
		<polyline class="st2" points="396.3,73.6 359,94.6 321.7,73.6 		"/>
		<polyline class="st2" points="400,73.6 359,96.6 318,73.6 		"/>
		<line class="st2" x1="318.1" y1="25.3" x2="318.1" y2="74.1"/>
		<line class="st2" x1="321.5" y1="25.4" x2="321.5" y2="74.2"/>
		<line class="st2" x1="396.5" y1="25.3" x2="396.5" y2="74.1"/>
		<line class="st2" x1="399.9" y1="25.4" x2="399.9" y2="74.2"/>
		<line class="st2" x1="359" y1="46.2" x2="359" y2="96.5"/>
		<line class="st2" x1="359" y1="47" x2="359" y2="50.3"/>
	</g>
</g>
</svg>
