<svg id="a34437cc-44d3-4800-a4c4-b7f1779d7168" data-name="Layer 1" xmlns="http://www.w3.org/2000/svg" viewBox="0 0 1080 1080"><polyline points="367.29 959.94 433.39 893.84 499.5 959.94" style="fill:none;stroke:#fff;stroke-miterlimit:10"/><polyline points="305.9 959.94 434.08 831.76 562.25 959.94" style="fill:none;stroke:#fff;stroke-miterlimit:10"/><rect x="411.71" y="842.17" width="43.37" height="43.37" transform="translate(-430.46 1297.25) rotate(-90)" style="fill:none;stroke:#fff;stroke-miterlimit:10"/><rect x="428.28" y="858.74" width="10.22" height="10.22" transform="translate(-430.46 1297.25) rotate(-90)" style="fill:#fdb515"/><rect x="412.39" y="842.17" width="43.37" height="43.37" transform="translate(-483.7 559.95) rotate(-45)" style="fill:none;stroke:#fff;stroke-miterlimit:10"/><polyline points="139.31 959.94 205.41 893.84 271.51 959.94" style="fill:none;stroke:#fff;stroke-miterlimit:10"/><polyline points="77.91 959.94 206.09 831.76 334.26 959.94" style="fill:none;stroke:#fff;stroke-miterlimit:10"/><rect x="183.72" y="842.17" width="43.37" height="43.37" transform="translate(-658.45 1069.26) rotate(-90)" style="fill:none;stroke:#fff;stroke-miterlimit:10"/><rect x="200.3" y="858.74" width="10.22" height="10.22" transform="translate(-658.45 1069.26) rotate(-90)" style="fill:#fdb515"/><rect x="184.4" y="842.17" width="43.37" height="43.37" transform="translate(-550.47 398.74) rotate(-45)" style="fill:none;stroke:#fff;stroke-miterlimit:10"/><polyline points="593.05 959.94 659.16 893.84 725.26 959.94" style="fill:none;stroke:#fff;stroke-miterlimit:10"/><polyline points="531.66 959.94 659.84 831.76 788.01 959.94" style="fill:none;stroke:#fff;stroke-miterlimit:10"/><rect x="637.47" y="842.17" width="43.37" height="43.37" transform="translate(-204.7 1523.01) rotate(-90)" style="fill:none;stroke:#fff;stroke-miterlimit:10"/><rect x="654.05" y="858.74" width="10.22" height="10.22" transform="translate(-204.7 1523.01) rotate(-90)" style="fill:#fdb515"/><rect x="638.15" y="842.17" width="43.37" height="43.37" transform="translate(-417.57 719.59) rotate(-45)" style="fill:none;stroke:#fff;stroke-miterlimit:10"/><polyline points="818.45 959.94 884.55 893.84 950.65 959.94" style="fill:none;stroke:#fff;stroke-miterlimit:10"/><polyline points="757.05 959.94 885.23 831.76 1013.4 959.94" style="fill:none;stroke:#fff;stroke-miterlimit:10"/><rect x="862.86" y="842.17" width="43.37" height="43.37" transform="translate(20.7 1748.4) rotate(-90)" style="fill:none;stroke:#fff;stroke-miterlimit:10"/><rect x="879.44" y="858.74" width="10.22" height="10.22" transform="translate(20.7 1748.4) rotate(-90)" style="fill:#fdb515"/><rect x="863.55" y="842.17" width="43.37" height="43.37" transform="translate(-351.56 878.97) rotate(-45)" style="fill:none;stroke:#fff;stroke-miterlimit:10"/><line x1="75.97" y1="960.32" x2="1013.23" y2="960.32" style="fill:none;stroke:#fff;stroke-miterlimit:10"/><rect x="284.99" y="368.68" width="64.98" height="64.98" style="fill:none;stroke:#fff;stroke-miterlimit:10"/><polyline points="275.03 443.62 275.03 358.72 359.93 358.72 359.93 443.62" style="fill:none;stroke:#fff;stroke-miterlimit:10"/><rect x="275.02" y="444.42" width="84.9" height="84.9" style="fill:none;stroke:#fff;stroke-miterlimit:10"/><polygon points="404.3 444.85 360.28 444.85 360.28 528.7 404.3 444.85" style="fill:#333;stroke:#fff;stroke-miterlimit:10"/><polygon points="360.28 444.66 404.3 444.66 404.3 360.81 360.28 444.66" style="fill:#333;stroke:#fff;stroke-miterlimit:10"/><polygon points="404.13 360.54 404.13 316.52 320.27 316.52 404.13 360.54" style="fill:#333;stroke:#fff;stroke-miterlimit:10"/><polygon points="230.41 444.73 274.43 444.73 274.43 528.58 230.41 444.73" style="fill:#333;stroke:#fff;stroke-miterlimit:10"/><polygon points="358.49 581.4 317.05 622.85 275.61 581.4 358.49 581.4" style="fill:#fdb515;stroke:#fff;stroke-miterlimit:10"/><path d="M360.27,545.75a14.65,14.65,0,0,0-13.18-14.58v-.07H288.48v0a14.63,14.63,0,0,0,0,29.23v0h58.61v-.07A14.65,14.65,0,0,0,360.27,545.75Z" style="fill:#1a1a1a;stroke:#fff;stroke-miterlimit:10"/><circle cx="345.62" cy="545.75" r="14.65" style="fill:#fdb515;stroke:#fff;stroke-miterlimit:10"/><circle cx="289.21" cy="545.75" r="14.65" style="fill:#fdb515;stroke:#fff;stroke-miterlimit:10"/><circle cx="289.21" cy="545.75" r="9.16" style="fill:#1a1a1a"/><path d="M289.79,536.61a9.16,9.16,0,0,1-1.15,18.28" style="fill:#fff;stroke:#fff;stroke-miterlimit:10"/><circle cx="345.26" cy="545.87" r="9.16" style="fill:#1a1a1a"/><path d="M344.68,555a9.16,9.16,0,0,1,1.15-18.28" style="fill:#fff;stroke:#fff;stroke-miterlimit:10"/><circle cx="317.05" cy="572.13" r="14.65" style="fill:#1a1a1a;stroke:#fff;stroke-miterlimit:10"/><circle cx="316.68" cy="572.25" r="9.16" style="fill:#fdb515;stroke:#fff;stroke-miterlimit:10"/><path d="M316.11,581.39a9.16,9.16,0,1,1,1.15-18.28" style="fill:#fff;stroke:#fff;stroke-miterlimit:10"/><path d="M275.29,581.41l-33.61,41.75h75.37S275.29,579,275.29,581.41Z" style="fill:#010101;stroke:#fff;stroke-miterlimit:10"/><path d="M360.27,581.41l35.28,41.75H317.78S360.27,579,360.27,581.41Z" style="fill:#010101;stroke:#fff;stroke-miterlimit:10"/><circle cx="403.94" cy="444.05" r="12.88" style="fill:#795221;stroke:#fff;stroke-miterlimit:10"/><path d="M416.31,443.91a12.39,12.39,0,1,0-24.77,0" style="fill:#fdb515;stroke:#fff;stroke-miterlimit:10"/><path d="M403.91,431.22a12.39,12.39,0,0,0-12.39,12.39h12.17" style="fill:#ae792b;stroke:#fff;stroke-miterlimit:10"/><circle cx="403.94" cy="443.66" r="7.12" style="fill:#010101;stroke:#fff;stroke-miterlimit:10"/><path d="M396.81,443.66a7.13,7.13,0,1,0,14.25,0" style="fill:#333;stroke:#fff;stroke-miterlimit:10"/><polygon points="243.02 623.16 318.6 746.36 319.12 623.16 243.02 623.16" style="fill:#333;stroke:#fff;stroke-miterlimit:10"/><polygon points="273.15 742.65 318.6 945.85 319.12 742.65 273.15 742.65" style="fill:#333;stroke:#fff;stroke-miterlimit:10"/><polygon points="393.45 623.16 317.87 746.36 317.35 623.16 393.45 623.16" style="fill:#333;stroke:#fff;stroke-miterlimit:10"/><polygon points="362.98 742.65 317.87 945.85 317.35 742.65 362.98 742.65" style="fill:#333;stroke:#fff;stroke-miterlimit:10"/><circle cx="305.58" cy="741.51" r="12.88" style="fill:#795221;stroke:#fff;stroke-miterlimit:10"/><path d="M318,741.36a12.39,12.39,0,0,0-24.77,0" style="fill:#fdb515;stroke:#fff;stroke-miterlimit:10"/><path d="M305.56,728.68a12.39,12.39,0,0,0-12.39,12.38h12.17" style="fill:#ae792b;stroke:#fff;stroke-miterlimit:10"/><circle cx="305.58" cy="741.12" r="7.12" style="fill:#010101;stroke:#fff;stroke-miterlimit:10"/><path d="M298.46,741.12a7.13,7.13,0,0,0,14.25,0" style="fill:#333;stroke:#fff;stroke-miterlimit:10"/><circle cx="332.07" cy="741.51" r="12.88" style="fill:#795221;stroke:#fff;stroke-miterlimit:10"/><path d="M344.45,741.36a12.39,12.39,0,0,0-24.77,0" style="fill:#fdb515;stroke:#fff;stroke-miterlimit:10"/><path d="M332,728.68a12.38,12.38,0,0,0-12.38,12.38h12.17" style="fill:#ae792b;stroke:#fff;stroke-miterlimit:10"/><circle cx="332.07" cy="741.12" r="7.12" style="fill:#010101;stroke:#fff;stroke-miterlimit:10"/><path d="M325,741.12a7.12,7.12,0,1,0,14.24,0" style="fill:#333;stroke:#fff;stroke-miterlimit:10"/><polygon points="186.29 528.25 230.31 528.25 230.31 444.39 186.29 528.25" style="fill:#333;stroke:#fff;stroke-miterlimit:10"/><polygon points="230.75 528.48 261.88 559.61 311.62 500.32 230.75 528.48" style="fill:#333;stroke:#fff;stroke-miterlimit:10"/><circle cx="229.4" cy="444.89" r="12.88" style="fill:#795221;stroke:#fff;stroke-miterlimit:10"/><path d="M241.78,444.74a12.39,12.39,0,0,0-24.78,0" style="fill:#fdb515;stroke:#fff;stroke-miterlimit:10"/><path d="M229.37,432.05A12.39,12.39,0,0,0,217,444.44h12.16" style="fill:#ae792b;stroke:#fff;stroke-miterlimit:10"/><circle cx="229.4" cy="444.5" r="7.12" style="fill:#010101;stroke:#fff;stroke-miterlimit:10"/><path d="M222.27,444.5a7.13,7.13,0,0,0,14.25,0" style="fill:#333;stroke:#fff;stroke-miterlimit:10"/><circle cx="230.77" cy="528.13" r="7.91" style="fill:#fdb515;stroke:#fff;stroke-miterlimit:10"/><circle cx="230.77" cy="528.13" r="2.44" style="fill:#010101;stroke:#fff;stroke-miterlimit:10"/><circle cx="314.11" cy="317.6" r="7.91" style="fill:#fdb515;stroke:#fff;stroke-miterlimit:10"/><circle cx="314.11" cy="317.6" r="2.44" style="fill:#010101;stroke:#fff;stroke-miterlimit:10"/><circle cx="403.15" cy="357.08" r="7.91" style="fill:#fdb515;stroke:#fff;stroke-miterlimit:10"/><circle cx="403.15" cy="357.08" r="2.44" style="fill:#010101;stroke:#fff;stroke-miterlimit:10"/><circle cx="315.25" cy="497.79" r="7.91" style="fill:#fdb515;stroke:#fff;stroke-miterlimit:10"/><circle cx="315.25" cy="497.79" r="2.44" style="fill:#010101;stroke:#fff;stroke-miterlimit:10"/><line x1="316.84" y1="122.44" x2="316.84" y2="182.96" style="fill:none;stroke:#fff;stroke-miterlimit:10"/><line x1="295.44" y1="174.09" x2="338.24" y2="131.3" style="fill:none;stroke:#fff;stroke-miterlimit:10"/><line x1="338.24" y1="174.09" x2="295.44" y2="131.3" style="fill:none;stroke:#fff;stroke-miterlimit:10"/><line x1="286.58" y1="152.7" x2="347.1" y2="152.7" style="fill:none;stroke:#fff;stroke-miterlimit:10"/><line x1="338.24" y1="174.09" x2="295.44" y2="131.3" style="fill:none;stroke:#fff;stroke-miterlimit:10"/><line x1="338.24" y1="131.3" x2="295.44" y2="174.09" style="fill:none;stroke:#fff;stroke-miterlimit:10"/><path d="M408,182.61a91.1,91.1,0,0,1-182.2,0" style="fill:none;stroke:#fff;stroke-miterlimit:10"/><path d="M408,182.61a91.1,91.1,0,0,1-182.2,0" style="fill:#333;stroke:#fff;stroke-miterlimit:10"/><path d="M385.21,182.61a68.33,68.33,0,1,1-136.65,0" style="fill:#fdb515"/><path d="M360.51,183a43.63,43.63,0,1,1-87.25,0" style="fill:#010101;stroke:#fff;stroke-miterlimit:10"/><path d="M345.73,182.61a28.85,28.85,0,1,1-57.69,0" style="fill:#925122"/><path d="M345.73,182A28.85,28.85,0,1,1,288,182" style="fill:#fdb515"/><path d="M288,182.61a28.85,28.85,0,1,1,57.69,0" style="fill:#ae792b"/><path d="M316.84,211.5A28.85,28.85,0,0,1,288,182.65h28.34" style="fill:#795221"/><line x1="314" y1="495.67" x2="314" y2="275.16" style="fill:#333;stroke:#fff;stroke-miterlimit:10"/><rect x="758.19" y="368.68" width="64.98" height="64.98" transform="translate(1581.36 802.35) rotate(-180)" style="fill:none;stroke:#fff;stroke-miterlimit:10"/><polyline points="833.13 443.62 833.13 358.72 748.23 358.72 748.23 443.62" style="fill:none;stroke:#fff;stroke-miterlimit:10"/><rect x="748.25" y="444.42" width="84.9" height="84.9" transform="translate(1581.39 973.75) rotate(-180)" style="fill:none;stroke:#fff;stroke-miterlimit:10"/><polygon points="703.86 444.85 747.88 444.85 747.88 528.7 703.86 444.85" style="fill:#333;stroke:#fff;stroke-miterlimit:10"/><polygon points="747.88 444.66 703.86 444.66 703.86 360.81 747.88 444.66" style="fill:#333;stroke:#fff;stroke-miterlimit:10"/><polygon points="704.03 360.54 704.03 316.52 787.89 316.52 704.03 360.54" style="fill:#333;stroke:#fff;stroke-miterlimit:10"/><polygon points="877.75 444.73 833.73 444.73 833.73 528.58 877.75 444.73" style="fill:none;stroke:#fff;stroke-miterlimit:10"/><polygon points="749.67 581.4 791.11 622.85 832.55 581.4 749.67 581.4" style="fill:#fdb515;stroke:#fff;stroke-miterlimit:10"/><path d="M747.89,545.75a14.65,14.65,0,0,1,13.18-14.58v-.07h58.61v0a14.63,14.63,0,0,1,0,29.23v0H761.07v-.07A14.65,14.65,0,0,1,747.89,545.75Z" style="fill:#1a1a1a;stroke:#fff;stroke-miterlimit:10"/><circle cx="762.54" cy="545.75" r="14.65" style="fill:#fdb515;stroke:#fff;stroke-miterlimit:10"/><circle cx="818.95" cy="545.75" r="14.65" style="fill:#fdb515;stroke:#fff;stroke-miterlimit:10"/><circle cx="818.95" cy="545.75" r="9.16" style="fill:#1a1a1a"/><path d="M818.38,536.61a9.16,9.16,0,1,0,1.14,18.28" style="fill:#fff;stroke:#fff;stroke-miterlimit:10"/><circle cx="762.9" cy="545.87" r="9.16" style="fill:#1a1a1a"/><path d="M763.48,555a9.16,9.16,0,0,0-1.15-18.28" style="fill:#fff;stroke:#fff;stroke-miterlimit:10"/><circle cx="791.11" cy="572.13" r="14.65" style="fill:#1a1a1a;stroke:#fff;stroke-miterlimit:10"/><circle cx="791.48" cy="572.25" r="9.16" style="fill:#fdb515;stroke:#fff;stroke-miterlimit:10"/><path d="M792.05,581.39a9.16,9.16,0,1,0-1.15-18.28" style="fill:#fff;stroke:#fff;stroke-miterlimit:10"/><path d="M832.87,581.41l33.61,41.75H791.11S832.87,579,832.87,581.41Z" style="fill:#010101;stroke:#fff;stroke-miterlimit:10"/><path d="M747.89,581.41l-35.28,41.75h77.77S747.89,579,747.89,581.41Z" style="fill:#010101;stroke:#fff;stroke-miterlimit:10"/><circle cx="704.22" cy="444.05" r="12.88" style="fill:#795221;stroke:#fff;stroke-miterlimit:10"/><path d="M691.85,443.91a12.39,12.39,0,1,1,24.77,0" style="fill:#fdb515;stroke:#fff;stroke-miterlimit:10"/><path d="M704.25,431.22a12.39,12.39,0,0,1,12.39,12.39H704.47" style="fill:#ae792b;stroke:#fff;stroke-miterlimit:10"/><circle cx="704.22" cy="443.66" r="7.12" style="fill:#010101;stroke:#fff;stroke-miterlimit:10"/><path d="M711.35,443.66a7.13,7.13,0,1,1-14.25,0" style="fill:#333;stroke:#fff;stroke-miterlimit:10"/><polygon points="865.14 623.16 789.56 746.36 789.04 623.16 865.14 623.16" style="fill:#333;stroke:#fff;stroke-miterlimit:10"/><polygon points="835.01 742.65 789.56 945.85 789.04 742.65 835.01 742.65" style="fill:#333;stroke:#fff;stroke-miterlimit:10"/><polygon points="714.71 623.16 790.29 746.36 790.81 623.16 714.71 623.16" style="fill:#333;stroke:#fff;stroke-miterlimit:10"/><polygon points="745.18 742.65 790.29 945.85 790.81 742.65 745.18 742.65" style="fill:#333;stroke:#fff;stroke-miterlimit:10"/><circle cx="802.58" cy="741.51" r="12.88" style="fill:#795221;stroke:#fff;stroke-miterlimit:10"/><path d="M790.2,741.36a12.39,12.39,0,0,1,24.77,0" style="fill:#fdb515;stroke:#fff;stroke-miterlimit:10"/><path d="M802.6,728.68A12.39,12.39,0,0,1,815,741.06H802.82" style="fill:#ae792b;stroke:#fff;stroke-miterlimit:10"/><circle cx="802.58" cy="741.12" r="7.12" style="fill:#010101;stroke:#fff;stroke-miterlimit:10"/><path d="M809.7,741.12a7.12,7.12,0,0,1-14.24,0" style="fill:#333;stroke:#fff;stroke-miterlimit:10"/><circle cx="776.09" cy="741.51" r="12.88" style="fill:#795221;stroke:#fff;stroke-miterlimit:10"/><path d="M763.71,741.36a12.39,12.39,0,0,1,24.77,0" style="fill:#fdb515;stroke:#fff;stroke-miterlimit:10"/><path d="M776.12,728.68a12.38,12.38,0,0,1,12.38,12.38H776.33" style="fill:#ae792b;stroke:#fff;stroke-miterlimit:10"/><circle cx="776.09" cy="741.12" r="7.12" style="fill:#010101;stroke:#fff;stroke-miterlimit:10"/><path d="M783.21,741.12a7.12,7.12,0,0,1-14.24,0" style="fill:#333;stroke:#fff;stroke-miterlimit:10"/><polygon points="921.87 528.25 877.85 528.25 877.85 444.39 921.87 528.25" style="fill:#333;stroke:#fff;stroke-miterlimit:10"/><polygon points="877.41 528.48 846.28 559.61 796.54 500.32 877.41 528.48" style="fill:#333;stroke:#fff;stroke-miterlimit:10"/><circle cx="878.76" cy="444.89" r="12.88" style="fill:#795221;stroke:#fff;stroke-miterlimit:10"/><path d="M866.39,444.74a12.39,12.39,0,0,1,24.77,0" style="fill:#fdb515;stroke:#fff;stroke-miterlimit:10"/><path d="M878.79,432.05a12.39,12.39,0,0,1,12.39,12.39H879" style="fill:#ae792b;stroke:#fff;stroke-miterlimit:10"/><circle cx="878.76" cy="444.5" r="7.12" style="fill:#010101;stroke:#fff;stroke-miterlimit:10"/><path d="M885.89,444.5a7.13,7.13,0,0,1-14.25,0" style="fill:#333;stroke:#fff;stroke-miterlimit:10"/><circle cx="877.39" cy="528.13" r="7.91" style="fill:#fdb515;stroke:#fff;stroke-miterlimit:10"/><circle cx="877.39" cy="528.13" r="2.44" style="fill:#010101;stroke:#fff;stroke-miterlimit:10"/><circle cx="794.05" cy="317.6" r="7.91" style="fill:#fdb515;stroke:#fff;stroke-miterlimit:10"/><circle cx="794.05" cy="317.6" r="2.44" style="fill:#010101;stroke:#fff;stroke-miterlimit:10"/><circle cx="705.01" cy="357.08" r="7.91" style="fill:#fdb515;stroke:#fff;stroke-miterlimit:10"/><circle cx="705.01" cy="357.08" r="2.44" style="fill:#010101;stroke:#fff;stroke-miterlimit:10"/><circle cx="792.91" cy="497.79" r="7.91" style="fill:#fdb515;stroke:#fff;stroke-miterlimit:10"/><circle cx="792.91" cy="497.79" r="2.44" style="fill:#010101;stroke:#fff;stroke-miterlimit:10"/><line x1="793.19" y1="122.44" x2="793.19" y2="182.96" style="fill:none;stroke:#fff;stroke-miterlimit:10"/><line x1="771.79" y1="174.09" x2="814.59" y2="131.3" style="fill:none;stroke:#fff;stroke-miterlimit:10"/><line x1="814.59" y1="174.09" x2="771.79" y2="131.3" style="fill:none;stroke:#fff;stroke-miterlimit:10"/><line x1="762.93" y1="152.7" x2="823.45" y2="152.7" style="fill:none;stroke:#fff;stroke-miterlimit:10"/><line x1="814.59" y1="174.09" x2="771.79" y2="131.3" style="fill:none;stroke:#fff;stroke-miterlimit:10"/><line x1="814.59" y1="131.3" x2="771.79" y2="174.09" style="fill:none;stroke:#fff;stroke-miterlimit:10"/><path d="M700.18,182.61a91.1,91.1,0,1,0,182.19,0" style="fill:none;stroke:#fff;stroke-miterlimit:10"/><path d="M700.18,182.61a91.1,91.1,0,1,0,182.19,0" style="fill:#333;stroke:#fff;stroke-miterlimit:10"/><path d="M723,182.61a68.33,68.33,0,1,0,136.65,0" style="fill:#fdb515"/><path d="M747.65,183a43.63,43.63,0,1,0,87.25,0" style="fill:#010101;stroke:#fff;stroke-miterlimit:10"/><path d="M762.43,182.61a28.85,28.85,0,1,0,57.69,0" style="fill:#925122"/><path d="M762.43,182a28.85,28.85,0,1,0,57.69,0" style="fill:#fdb515"/><path d="M820.12,182.61a28.85,28.85,0,1,0-57.69,0" style="fill:#ae792b"/><path d="M791.32,211.5a28.85,28.85,0,0,0,28.85-28.85H791.82" style="fill:#795221"/><line x1="794.16" y1="495.67" x2="794.16" y2="275.16" style="fill:#333;stroke:#fff;stroke-miterlimit:10"/><path d="M641.51,615.33a93.2,93.2,0,0,1-186.4,0" style="fill:none;stroke:#fdb515;stroke-miterlimit:10"/><path d="M603.26,615.29a55,55,0,0,1-109.9,0" style="fill:none;stroke:#fdb515;stroke-miterlimit:10"/><line x1="548.31" y1="581" x2="548.31" y2="944.34" style="fill:none;stroke:#fdb515;stroke-miterlimit:10"/><path d="M602.29,525.43a54.95,54.95,0,0,1-109.9,0" style="fill:none;stroke:#fdb515;stroke-miterlimit:10"/><path d="M579.74,525.4a32.4,32.4,0,0,1-64.8,0" style="fill:none;stroke:#fdb515;stroke-miterlimit:10"/><path d="M641.51,615.33a93.2,93.2,0,0,1-186.4,0" style="fill:none;stroke:#fdb515;stroke-miterlimit:10"/><path d="M603.26,615.29a55,55,0,0,1-109.9,0" style="fill:#fdb515;stroke:#fff;stroke-miterlimit:10"/><line x1="548.31" y1="581" x2="548.31" y2="944.34" style="fill:none;stroke:#fdb515;stroke-miterlimit:10"/><path d="M602.29,525.43a54.95,54.95,0,0,1-109.9,0" style="fill:#010101;stroke:#fff;stroke-miterlimit:10"/><path d="M579.74,525.4a32.4,32.4,0,0,1-64.8,0" style="fill:#fdb515;stroke:#fff;stroke-miterlimit:10"/><circle cx="492.51" cy="605.99" r="9.31" style="fill:none;stroke:#fdb515;stroke-miterlimit:10"/><circle cx="641.51" cy="605.99" r="9.31" style="fill:none;stroke:#fdb515;stroke-miterlimit:10"/><path d="M458.42,804.88a93.2,93.2,0,0,1,186.4,0" style="fill:none;stroke:#fdb515;stroke-miterlimit:10"/><path d="M496.67,804.92a55,55,0,0,1,109.9,0" style="fill:none;stroke:#fdb515;stroke-miterlimit:10"/><path d="M458.42,804.88a93.2,93.2,0,0,1,186.4,0" style="fill:none;stroke:#fdb515;stroke-miterlimit:10"/><path d="M496.67,804.92a55,55,0,0,1,109.9,0" style="fill:#fdb515;stroke:#fff;stroke-miterlimit:10"/><circle cx="607.42" cy="814.22" r="9.31" style="fill:none;stroke:#fdb515;stroke-miterlimit:10"/><circle cx="458.42" cy="814.22" r="9.31" style="fill:none;stroke:#fdb515;stroke-miterlimit:10"/><circle cx="547.34" cy="509.47" r="9.31" style="fill:none;stroke:#fdb515;stroke-miterlimit:10"/><path d="M492.39,474.11a55,55,0,1,1,109.9,0" style="fill:none;stroke:#fdb515;stroke-miterlimit:10"/><path d="M514.94,474.13a32.4,32.4,0,0,1,64.8,0" style="fill:none;stroke:#fdb515;stroke-miterlimit:10"/><path d="M492.39,474.11a55,55,0,1,1,109.9,0" style="fill:#010101;stroke:#fff;stroke-miterlimit:10"/><path d="M514.94,474.13a32.4,32.4,0,0,1,64.8,0" style="fill:#fdb515;stroke:#fff;stroke-miterlimit:10"/><path d="M602.29,363.71a55,55,0,1,1-109.9,0" style="fill:#010101;stroke:#fff;stroke-miterlimit:10"/><path d="M579.74,363.69a32.4,32.4,0,0,1-64.8,0" style="fill:#fdb515;stroke:#fff;stroke-miterlimit:10"/><circle cx="547.34" cy="490.07" r="9.31" style="fill:none;stroke:#fdb515;stroke-miterlimit:10"/></svg>