<svg id="e9f01e33-2d21-4faf-aa82-06604186f37e" data-name="Layer 1" xmlns="http://www.w3.org/2000/svg" viewBox="0 0 1080 1080"><rect x="485.77" y="886.55" width="22.09" height="22.09" transform="translate(213.41 1883.59) rotate(-135)" style="fill:#fab317"/><rect x="475.62" y="876.4" width="42.38" height="42.38" transform="translate(213.41 1883.59) rotate(-135)" style="fill:none;stroke:#fff;stroke-miterlimit:10"/><rect x="485.77" y="558.6" width="22.09" height="22.09" transform="translate(-72.84 1066.46) rotate(-90)" style="fill:#fab317"/><rect x="475.62" y="548.45" width="42.38" height="42.38" transform="translate(-72.84 1066.46) rotate(-90)" style="fill:none;stroke:#fff;stroke-miterlimit:10"/><rect x="485.77" y="172.27" width="22.09" height="22.09" transform="translate(15.89 404.99) rotate(-45)" style="fill:#fab317"/><rect x="475.62" y="162.13" width="42.38" height="42.38" transform="translate(15.89 404.99) rotate(-45)" style="fill:none;stroke:#fff;stroke-miterlimit:10"/><line x1="497.84" y1="213.29" x2="497.84" y2="548.45" style="fill:none;stroke:#fff;stroke-miterlimit:10"/><line x1="614.51" y1="183.32" x2="526.3" y2="183.32" style="fill:none;stroke:#fff;stroke-miterlimit:10"/><line x1="614.51" y1="569.65" x2="518" y2="569.65" style="fill:none;stroke:#fff;stroke-miterlimit:10"/><line x1="614.51" y1="897.6" x2="526.78" y2="897.6" style="fill:none;stroke:#fff;stroke-miterlimit:10"/><line x1="497.84" y1="590.84" x2="497.84" y2="869.78" style="fill:none;stroke:#fff;stroke-miterlimit:10"/></svg>