<svg xmlns="http://www.w3.org/2000/svg" viewBox="0 0 30 30"><g style="isolation:isolate"><g id="b7942413-219f-469b-89ee-4d4b28af2835" data-name="Layer 1"><g style="opacity:0.5;mix-blend-mode:multiply"><path d="M1.41,23.68a11.75,11.75,0,0,0,5.84-1,10,10,0,0,0,2.34-1.39,5.65,5.65,0,0,1-2.4-.62,5.59,5.59,0,0,1-2.69-3c-.13-.32-.13-.32.22-.29a4.68,4.68,0,0,0,2.06-.14,8.23,8.23,0,0,1-1.35-.5,5.68,5.68,0,0,1-3-4.78c0-.26,0-.28.27-.17a5,5,0,0,0,2.21.57,11.81,11.81,0,0,1-1-.85,5.72,5.72,0,0,1-.87-6.35c.13-.27.19-.27.4,0a15.85,15.85,0,0,0,9.75,5.44c.42.06.84.09,1.27.15.26.05.3-.09.26-.31a5.62,5.62,0,0,1,9.4-5,.54.54,0,0,0,.6.14,11.11,11.11,0,0,0,3-1.16,1,1,0,0,0,.23-.13,5.8,5.8,0,0,1-2.37,3.09,11.38,11.38,0,0,0,3-.8.45.45,0,0,1-.13.32,12.16,12.16,0,0,1-2.32,2.38.48.48,0,0,0-.23.46,16.18,16.18,0,0,1-3.89,11,14.84,14.84,0,0,1-9.34,5.25A16.09,16.09,0,0,1,1.53,23.75.31.31,0,0,0,1.41,23.68Z" style="fill:#676767;fill-rule:evenodd"/></g><path d="M1.41,23.68a11.75,11.75,0,0,0,5.84-1,10,10,0,0,0,2.34-1.39,5.65,5.65,0,0,1-2.4-.62,5.59,5.59,0,0,1-2.69-3c-.13-.32-.13-.32.22-.29a4.68,4.68,0,0,0,2.06-.14,8.23,8.23,0,0,1-1.35-.5,5.68,5.68,0,0,1-3-4.78c0-.26,0-.28.27-.17a5,5,0,0,0,2.21.57,11.81,11.81,0,0,1-1-.85,5.72,5.72,0,0,1-.87-6.35c.13-.27.19-.27.4,0a15.85,15.85,0,0,0,9.75,5.44c.42.06.84.09,1.27.15.26.05.3-.09.26-.31a5.62,5.62,0,0,1,9.4-5,.54.54,0,0,0,.6.14,11.11,11.11,0,0,0,3-1.16,1,1,0,0,0,.23-.13,5.8,5.8,0,0,1-2.37,3.09,11.38,11.38,0,0,0,3-.8.45.45,0,0,1-.13.32,12.16,12.16,0,0,1-2.32,2.38.48.48,0,0,0-.23.46,16.18,16.18,0,0,1-3.89,11,14.84,14.84,0,0,1-9.34,5.25A16.09,16.09,0,0,1,1.53,23.75.31.31,0,0,0,1.41,23.68Z" style="fill:#fdfeff;fill-rule:evenodd"/></g></g></svg>